<svg xmlns="http://www.w3.org/2000/svg" width="160" height="600" fill="none" viewBox="0 0 160 600"><g filter="url(#a)"><rect width="120" height="20" x="20" y="322" fill="url(#b)" rx="10" shape-rendering="crispEdges"/><path fill="#fff" d="M52.978 333.223c0 1.518-1.078 2.409-2.816 2.409-1.111 0-1.925-.407-2.695-1.001l.913-1.232c.473.374 1.155.693 1.815.693.803 0 1.023-.275 1.023-.759 0-.803-1.463-1.078-2.134-1.452-.803-.44-1.441-.946-1.441-2.222 0-1.65 1.44-2.321 2.86-2.321.759 0 1.672.209 2.32.693l-.791 1.309c-.352-.264-.946-.462-1.53-.462-.813 0-1.1.462-1.1.781 0 .726 1.024.946 1.959 1.353.78.341 1.617.891 1.617 2.211m6.245 2.277h-4.84v-8.03h4.675v1.485h-2.915v1.881h2.706v1.485h-2.706v1.694h3.08zm6.295 0h-4.84v-8.03h4.675v1.485h-2.915v1.881h2.706v1.485h-2.706v1.694h3.08zm10.537-4.026c0 2.651-2.046 4.026-4.18 4.026h-2.431v-8.03h2.43c2.289 0 4.18 1.408 4.18 4.004m-1.815 0c0-1.408-.957-2.519-2.365-2.519h-.671v5.06h.67c1.497 0 2.366-1.188 2.366-2.541m10.965-.022c0 2.321-1.661 4.18-4.147 4.18s-4.125-1.892-4.125-4.18c0-2.31 1.66-4.114 4.147-4.114 2.508 0 4.125 1.727 4.125 4.114m-1.815 0c0-1.408-.913-2.574-2.31-2.574-1.375 0-2.332 1.232-2.332 2.574 0 1.474 1.056 2.64 2.31 2.64 1.452 0 2.332-1.287 2.332-2.64m8.088 1.771c0 1.518-1.078 2.409-2.816 2.409-1.111 0-1.925-.407-2.695-1.001l.913-1.232c.473.374 1.155.693 1.815.693.803 0 1.023-.275 1.023-.759 0-.803-1.463-1.078-2.134-1.452-.803-.44-1.441-.946-1.441-2.222 0-1.65 1.44-2.321 2.86-2.321.759 0 1.672.209 2.32.693l-.791 1.309c-.352-.264-.946-.462-1.53-.462-.813 0-1.1.462-1.1.781 0 .726 1.024.946 1.959 1.353.78.341 1.617.891 1.617 2.211m3.165 2.277h-1.76v-8.03h1.76zm8.641 0h-1.518l-3.542-4.675c-.11-.154-.198-.33-.198-.33s.022.209.022.407v4.598h-1.76v-8.03h1.518l3.542 4.631c.121.154.198.33.198.33s-.022-.209-.022-.407v-4.554h1.76zm9.308-4.048c0 2.651-1.738 4.18-3.927 4.18-2.387 0-4.114-1.705-4.114-4.18 0-2.486 1.848-4.114 4.081-4.114 1.419 0 2.398.55 3.102 1.309l-1.089 1.067c-.495-.539-1.199-.836-2.013-.836-1.342 0-2.343 1.188-2.343 2.574 0 1.419 1.001 2.64 2.376 2.64.968 0 1.672-.385 1.98-1.155h-2.046v-1.485z"/></g><defs><linearGradient id="b" x1="63.107" x2="59.907" y1="328" y2="340.615" gradientUnits="userSpaceOnUse"><stop stop-color="#94348c"/><stop offset="1" stop-color="#852a7d"/></linearGradient><filter id="a" width="148" height="48" x="6" y="309" color-interpolation-filters="sRGB" filterUnits="userSpaceOnUse"><feFlood flood-opacity="0" result="BackgroundImageFix"/><feColorMatrix in="SourceAlpha" result="hardAlpha" values="0 0 0 0 0 0 0 0 0 0 0 0 0 0 0 0 0 0 127 0"/><feOffset dy="1"/><feGaussianBlur stdDeviation="7"/><feComposite in2="hardAlpha" operator="out"/><feColorMatrix values="0 0 0 0 1 0 0 0 0 1 0 0 0 0 1 0 0 0 1 0"/><feBlend in2="BackgroundImageFix" result="effect1_dropShadow_2838_900"/><feBlend in="SourceGraphic" in2="effect1_dropShadow_2838_900" result="shape"/></filter></defs></svg>