<?xml version="1.0" encoding="utf-8"?>
<!-- Generator: Adobe Illustrator 26.5.0, SVG Export Plug-In . SVG Version: 6.00 Build 0)  -->
<svg version="1.1" id="a" xmlns="http://www.w3.org/2000/svg" xmlns:xlink="http://www.w3.org/1999/xlink" x="0px" y="0px"
	 viewBox="0 0 728 90" style="enable-background:new 0 0 728 90;" xml:space="preserve">
<style type="text/css">
	.st0{fill:#FFFFFF;}
</style>
<g>
	<path class="st0" d="M128.7,17.2c0.1,0,0.2,0.1,0.4,0.1c0.2-0.5,0.4-0.9,0.6-1.4c-0.1,0-0.3-0.1-0.4-0.1l0,0
		C129,16.3,128.8,16.7,128.7,17.2L128.7,17.2z"/>
	<path class="st0" d="M182.2,19c0,0.1,0.1,0.3,0.1,0.5c1.5-0.4,2.9-0.8,4.4-1.2c0-0.1-0.1-0.3-0.1-0.4l0,0
		C185.2,18.2,183.7,18.6,182.2,19L182.2,19z"/>
	<path class="st0" d="M132.6,3c-1.8,1.6-2.9,3.8-4.4,5.7c-2.1,2.7-2.9,5.9-4.3,8.9c-0.9,1.9-1.3,3.9-1.9,5.9
		c-0.3,1.1-0.4,2.3-0.7,3.4c-0.5,2-1.1,4-1.7,6c-0.2,0.6-0.5,1.2-0.7,1.8c-0.7,1.9-1.5,3.8-2.2,5.7c-0.3,0.7-0.4,1.5-0.7,2.2
		c-0.3,0.6-0.9,1.2-1.2,1.8c-0.6,1.7-1.1,3.4-1.7,5.1c-0.3,0.7-0.8,1.5-1.4,2.1c-1,1.1-1.1,2.2,0.1,3c1.2-2.1,2.7-4.2,3.6-6.4
		c1.3-2.9,2.2-5.9,3.3-8.8c1.1-2.8,2.3-5.5,3.4-8.2c0.3-0.8,0.1-1.7,0.3-2.5c0.3-1.1,0.7-2.2,1-3.3c0.8-2.7,1.5-5.5,2.5-8.1
		c0.6-1.8,1.5-3.5,2.4-5.1c1.2-2.2,2.5-4.5,4-6.6c1-1.4,2.7-2.2,4.1-3.2c1.1-0.9,2.2-1.6,3.3-2.3h-2.8C135.3,0.9,133.9,1.9,132.6,3
		L132.6,3z"/>
	<path class="st0" d="M137,5c1.2-0.9,2.4-1.8,3.6-2.7c-0.1-0.1-0.1-0.2-0.2-0.2l0,0C139.3,3,137.7,3.5,137,5L137,5z"/>
	<path class="st0" d="M163.9,10.3c0.1-0.1,0.2-0.2,0.3-0.2c-0.7-0.8-1.4-1.6-2.1-2.4c-0.1,0.1-0.2,0.2-0.3,0.3
		C162.5,8.8,163.2,9.6,163.9,10.3z"/>
	<path class="st0" d="M128.4,18.7c-0.1,0-0.3-0.1-0.4-0.1c-0.7,0.9-1.1,1.9-0.8,2.9C127.6,20.6,128,19.6,128.4,18.7L128.4,18.7
		L128.4,18.7z"/>
	<path class="st0" d="M166.7,0.1c0.5,0.4,1.1,0.8,1.6,1.3c1,1.1,1.8,2.5,2.9,3.5c1.5,1.3,3.3,2.3,4.7,3.7c2.2,2.2,5.1,2.6,8.2,1.7
		c2.4-0.7,5-1.1,7.2-3.1c1.8-1.6,4.2-2.6,6.2-4.1c1.2-0.9,2.6-1.7,3.1-3.2h-0.9c-1.3,1.7-3,2.8-4.8,4c-2.6,1.8-5.2,3.6-8.2,4.7
		c-1.1,0.4-2.2,0.6-3.4,0.8c-1,0.2-2.1,0.4-3,0.2c-3.4-0.4-5.5-2.8-7.3-5c-1.4-1.7-3-3.3-4.6-4.8h-1.8C166.5,0,166.6,0.1,166.7,0.1
		L166.7,0.1z"/>
	<path class="st0" d="M118.5,17.1c-0.3,0.6-0.5,1.2-0.6,1.9l-0.1,0.7c-0.1,0.3-0.1,0.7-0.2,1c-0.3,1.1-0.9,2.2-1.2,3.3
		c-0.8,2.9-1.4,5.8-2.3,8.7c-0.6,1.9-1.3,3.8-2.1,5.7l-0.8,1.9c-0.5,1.2-1.2,2.4-1.7,3.6c-0.5,1.2-0.9,2.5-1.3,3.7
		c-0.1,0.4,0,0.9,0,1.3c0.2,0,0.3,0,0.5,0c0.5-1.2,1.1-2.5,1.6-3.7c0.6-1.6,1.1-3.3,1.8-4.9c1.2-3,2.7-6,3.8-9
		c0.6-1.5,0.7-3.1,1-4.6c0-0.2,0.1-0.4,0.2-0.6c0.5-1.7,1-3.5,1.6-5.2s1.2-3.4,1.9-5c0.4-1.1,1.4-2.2,1.4-3.2c0-0.9,0.3-1.4,0.9-2.1
		c0.4-0.4,0.5-1.1,0.8-1.7c0.4-0.8,0.9-1.7,1.4-2.4c0.5-0.8,1.4-1.5,1.6-2.3c0.5-1.8,1.8-2.8,3.2-3.9c0.2-0.1,0.4-0.3,0.5-0.4h-1.6
		c-0.8,0.8-1.6,1.5-2.2,2.4c-1.3,1.8-2.2,3.8-3.6,5.5C120.7,10.8,120.3,14.2,118.5,17.1L118.5,17.1z"/>
	<path class="st0" d="M118.8,47.1c0.3-0.8,0.6-1.5,0.8-2.3c-0.1,0-0.3-0.1-0.4-0.1c-0.3,0.8-0.6,1.5-0.9,2.3
		C118.5,47,118.7,47,118.8,47.1z"/>
	<path class="st0" d="M124.9,28.6l-1.2,4.7c0.1,0,0.3,0,0.4,0.1c0.7-1.5,1.7-3,1.2-4.7l0,0C125.2,28.7,125,28.7,124.9,28.6
		L124.9,28.6z"/>
	<path class="st0" d="M125.8,26.1c0.2-0.5,0.4-1.1,0.7-1.8c0.3-0.7,0.6-1.4,0.8-2.1c0.1-0.2-0.1-0.4-0.2-0.6l-0.1,0.2
		C126.1,23.3,125.5,25.5,125.8,26.1z"/>
	<path class="st0" d="M203.6,2.6c-1.3,1.8-2.7,3.4-4.7,4.6c-1.9,1.1-3.7,2.3-5.6,3.5c-2.4,1.6-4.9,2.8-7.6,3.4c-2,0.4-4,1.1-6,0.9
		c-2.9-0.3-5.4-1.2-7.4-3.2c-1.4-1.4-3-2.5-4.3-3.9c-1.1-1.2-2.2-2.4-3.4-3.6c-1.6-1.5-3.2-2.9-5-4.2h-4.2c1.9,0.9,3.7,1.9,5.4,3.1
		c2.7,2,4.8,4.4,7.1,6.6c0.1,0.1,0.2,0.2,0.4,0.3l0.7,0.7c1.8,1.8,3.7,3.5,6.2,4.7c2.3,1,4.9,1.2,7.4,0.9c2.4-0.3,4.9-1.2,7.3-2
		c0.7-0.2,1.4-0.7,2.1-1.1c2.2-1.4,4.5-2.8,6.7-4.2c0.9-0.6,1.9-1.2,2.7-1.9c1.1-1,1.9-2.1,2.9-3.2c1.1-1.2,2.2-2.2,3.3-3.5
		c0.1-0.2,0.3-0.4,0.4-0.5h-2.1C205,0.9,204.3,1.7,203.6,2.6L203.6,2.6z"/>
	<path class="st0" d="M98.1,76c0.8,0.1,1.6,0.2,2.4,0.3v-0.1c-0.8-0.2-1.6-0.3-2.3-0.5C98.1,75.7,98.1,75.9,98.1,76z"/>
	<path class="st0" d="M121.1,68.9c0.4-0.5,0.9-1,1.3-1.5c-0.1-0.1-0.2-0.1-0.2-0.2c-0.5,0.5-0.9,0.9-1.4,1.4
		C120.9,68.7,121,68.8,121.1,68.9L121.1,68.9z"/>
	<path class="st0" d="M87,70.1c0.1-0.1,0.2-0.2,0.3-0.3c-0.4-0.4-0.8-0.7-1.2-1.1c-0.1,0.1-0.1,0.1-0.2,0.2
		C86.3,69.3,86.6,69.7,87,70.1L87,70.1z"/>
	<path class="st0" d="M138.1,35c0.1,0,0.1,0,0.2,0c0.1-0.6,0.3-1.2,0.4-1.8h-0.1C138.4,33.8,138.2,34.4,138.1,35L138.1,35z"/>
	<path class="st0" d="M144.1,11.6c2.1-1.1,3.8-0.4,5.4,0.6c2.3,1.5,4.5,3.1,6.1,5.3c0.5,0.7,1.3,1.2,1.9,1.8c2.1,2,4,4.2,6.3,5.9
		c1.6,1.2,3.6,2.1,5.5,2.8c1.6,0.6,3.6,0.6,5.1,1.4c2,1,4.3,0.1,6.4,0.5c1.1,0.2,2.4-0.5,3.5-0.4c2,0.1,3.8-1.1,5.7-1.4
		c0.7-0.1,1.4-0.1,2-0.4c1.8-0.8,3.6-1.6,5.4-2.5c0.6-0.3,1.2-0.6,1.8-1c0.7-0.4,1.4-0.8,2-1.2c0.9-0.5,1.8-1.9,2.4-1.9
		c0.9,0.1,1.6-0.4,2.2-0.9l0.3-0.3c0.5-0.5,1-0.9,1.8-1c2.3-2.5,5.6-4.1,7-7.4c0.1-0.1,0.2-0.2,0.3-0.3c2.2-1.5,3.6-3.6,4.9-5.7
		c1.2-1.9,2.4-3.8,3.6-5.7h-1.9c-0.4,0.5-0.9,1-1.4,1.5c-0.3-0.4-0.7-0.4-0.9,0.4c-0.1,0.5-0.1,1.1-0.3,1.5
		c-1.2,1.9-2.5,3.7-3.9,5.5c-0.8,1-1.8,1.8-2.6,2.7c-0.5,0.6-0.8,1.4-1.1,2c-0.1-0.1-0.2-0.2-0.3-0.3c-0.4,0.3-0.9,0.6-1.2,0.9
		c-1.1,1.1-1.7,2.6-3.4,3.1c-0.8,0.3-1.5,0.8-2.4,1.2c0.3,0.2,0.5,0.3,0.8,0.5c-0.8,0.3-1.6,0.5-2.4,0.8l-1.5,0.5l-0.8,0.2l0.4,0.6
		l-1.3,0.9c-0.1-0.2-0.1-0.4-0.1-0.7c-0.6,0.3-1.1,0.5-1.7,0.8c0,0.1,0.1,0.1,0.1,0.2c0.2-0.1,0.5-0.1,0.7-0.2
		c0.1,0.1,0.1,0.2,0.2,0.3c-2.1,1.1-4.3,2.2-6.2,3.3c-0.6-0.2-0.9-0.3-1.3-0.4c0,0.1-0.1,0.2-0.1,0.3l0.6,0.9
		c-1-0.1-1.7-0.2-2.5-0.2c-0.1,0.1-0.2,0.1-0.2,0.2c-0.2,0.2-0.5,0.5-0.7,0.7l-0.1-0.1c0.1-0.1,0.3-0.3,0.7-0.7
		c-1.2,0.2-2,0.3-2.9,0.5c0,0.1,0,0.2,0,0.3c0.2,0.1,0.5,0.1,1.1,0.3c-2.6,0.3-4.9,0.6-7.3,0.9c0.4-0.3,0.6-0.5,1-0.8
		c-0.8,0-1.5-0.2-1.8,0c-1.7,1.4-2.7,0.6-3.7-0.5c-0.6,0.7-1.2,0.8-1.8,0.2c-0.2-0.2-0.8-0.6-0.9-0.5c-0.7,0.5-1.2,0.3-1.6,0
		l-0.2-0.1c-0.2-0.1-0.4-0.2-0.6-0.3c0.3-0.1,0.5-0.2,0.8-0.4c-0.7-0.4-1.3-0.7-2.1-1.2c0.1,0.5,0.1,0.7,0.1,1.1
		c-1.2-0.7-2.3-1.4-3.5-2.1c0.2-0.7-1.6-2.6-2.8-2.8c0.4,0.5,0.7,0.8,1.1,1.2c-0.6-0.2-1.1-0.5-1.4-0.9c-0.5-0.6-1-1.2-1.4-1.9
		c-0.3-0.5-0.9-0.9-1.4-1.2l-0.3-0.2c-0.8-0.5-1.6-1-1.7-2.2c0-0.2-0.5-0.3-0.8-0.5c-0.4-0.2-0.8-0.3-1.2-0.4
		c0.2-0.9,0.2-1.5-0.9-1.4c-0.3,0-0.8-0.2-1-0.5c-1.4-1.6-3.4-2.4-5.6-2.5c-1.2-0.1-2.6-0.1-3.6,0.5c-1.5,0.9-2.9,2.2-3.9,3.6
		c-1.4,2-2.4,4.2-3.5,6.3c-0.3,0.6-0.7,1.3-0.9,1.9c-0.4,1.1-0.5,2.3-0.9,3.4c-0.3,1.1-0.7,2.2-1.1,3.3c0,0-0.2-0.1-0.5-0.3
		c-0.1,0.5-0.2,0.9-0.3,1.3c0.3,0.1,0.5,0.1,0.8,0.2c-1.1,2.4-0.9,5-2.7,7.1c0,0.4,0,0.8-0.1,1.1c-0.3,0.6-0.9,1.2-0.9,1.7
		c-0.3,2.1-0.9,4-2.5,5.8c-0.2,0.2-0.3,0.6-0.3,0.9c0,0.3,0.3,0.7,0.2,0.9c-0.3,0.9-0.7,1.8-1.1,2.7c-0.2,0.7-0.4,1.3-0.7,2
		c-0.4,1-0.9,1.9-1.3,2.9c-0.1,0.2-0.1,0.4-0.1,0.6c-0.2-0.2-0.3-0.3-0.3-0.3c-0.6,0.9-1.2,1.7-1.8,2.5c-1,1.3-1.2,2.8-2.6,4
		c-0.8,0.7-1.5,1.7-2.4,2.4c-1.2,0.8-2.2,1.8-3.4,2.6c-0.6,0.5-1.5,1.2-2,1.1c-1.2-0.2-2,0.1-2.9,0.8c-0.8,0.6-1.7,1.2-2.6,1.9
		c-0.6-0.9-1.2-1.3-1.8-0.5c-2-0.3-3.9-0.5-5.7-0.7c0,0.1-0.1,0.2-0.1,0.4c-0.2-0.2-0.5-0.4-0.6-0.5c-0.4,0.1-0.6,0.3-0.7,0.2
		c-0.8-0.4-1.6-0.8-2.3-1.3c-0.9-0.6-1.7-1.3-2.6-2c-0.6-0.5-1.1-1-1.8-1.7c0.5,0.2,0.8,0.3,1.1,0.3c0.1-0.1,0.3-0.2,0.4-0.3
		c-3.3-1.5-3.5-4.8-4.5-7.7c-0.1,0.1-0.3,0.2-0.4,0.2c0.2,0.3,0.3,0.7,0.5,1c-0.5-0.3-1.1-0.6-1.2-1c-0.6-2-0.5-4.2-1.9-6
		C85,51.5,84.9,51.2,85,51c0.6-1.5-1-2.4-0.6-4.1c0.3-1-0.8-2.2-1.4-3.4l-0.1,0.1c0-0.1-0.1-0.2-0.1-0.2l-0.2-0.5c0,0,0-0.1-0.1-0.1
		c-0.2-0.5-0.4-1-0.6-1.5c-0.1-0.5-0.2-1-0.4-1.4c0-1.6-1.8-2-3-2.4c-0.3-0.2-0.7-0.2-1.2-0.1c0.2,0,0.5,0,0.7-0.1
		c0.3,0.3,0.6,0.7,0.9,0.9c0,0,0,0.1,0,0.2c0.6,1.2,0.8,2.4,1.1,3.7c0,0.7,0.1,1.4,0.4,2.1c0.2,1.1,0.4,2.4,0.8,3.7
		c0.5,2,1.3,3.9,1.7,5.9c0.3,1.8,0.1,3.8,2.1,4.8c0.1,0.1,0.1,0.3,0.2,0.5c0.8,1.6,1.6,3.3,2.5,4.9c0.2,0.4,0.9,0.8,0.9,1.2
		c0.3,1.8,1.5,2.8,2.9,3.7c0.2,0.5,0.1,1.1,0.4,1.2c0.9,0.6,1.9,0.9,2.8,1.4c0.4,0.2,0.7,0.6,1,1c-0.1,0.1-0.1,0.3-0.2,0.4
		c0.6-0.2,1.1-0.5,1.7-0.7c0.2-0.1,0.7-0.2,0.8-0.1c0.5,0.7,1.2,0.7,2,0.7h0.5c0.3,0,0.7,0,1,0.1c1,0.2,2.4,1.1,3.6-0.2
		c0.1-0.1,0.5,0.1,0.8,0.1c0.4,0.1,0.9,0.2,1.2,0.1c1.2-0.5,2.5-0.9,3.7-1.6c2.2-1.3,4.3-2.7,6.4-4.1c1.4-0.9,2.5-2,3.4-3.4
		c1.1-1.5,2.7-2.6,3.3-4.4c0.3-0.8,0.8-1.4,1.3-2l0.4-0.4c0.7-0.9,1.4-1.8,1.5-3c0.1-0.8,0.4-1.7,0.8-2.5l0.3-0.6
		c0.1-0.3,0.3-0.6,0.4-0.9c0.9-2.1,1.8-4.2,2.6-6.3c0.4-1,0.8-2,1.1-3c0.8-2.5,1.8-5,2.6-7.5c0.9-2.8,1.4-5.7,2.2-8.5
		c0.4-1.4,0.7-2.8,1.3-4.1c1.1-2.5,2.3-4.9,3.4-7.3C142.8,12.6,143.4,11.9,144.1,11.6L144.1,11.6z"/>
	<path class="st0" d="M210.1,1.6L210.1,1.6L210.1,1.6z"/>
	<path class="st0" d="M199.6,11.7l3.7-2.5l-0.1-0.1l-3.7,2.5C199.5,11.6,199.5,11.7,199.6,11.7z"/>
	<path class="st0" d="M106.5,58.7l3.3-2.3c0-0.2,0-0.3,0-0.5c-0.6,0-1.2-0.1-1.7,0.1l0,0C107.2,56.5,106.2,57.2,106.5,58.7
		L106.5,58.7z"/>
	<path class="st0" d="M207.8,3.6c1.5-0.3,1.7-1.3,2.3-2c-0.1-0.1-0.2-0.1-0.3-0.2C209.2,2,208.6,2.7,207.8,3.6L207.8,3.6z"/>
	<path class="st0" d="M189.6,16.9c0,0.2,0.1,0.3,0.1,0.5c1.3-0.6,2.6-1.2,3.9-1.8l-0.1-0.3l0,0C192.2,15.8,190.9,16.3,189.6,16.9z"
		/>
	<path class="st0" d="M109.9,74.9c0.1,0.1,0.1,0.2,0.1,0.3c1-0.4,1.9-0.8,2.9-1.3c0-0.1-0.1-0.3-0.1-0.4l0,0L109.9,74.9L109.9,74.9z
		"/>
	<path class="st0" d="M37.3,88.8c-0.1,0.4-0.3,0.8-0.4,1.2h0.5c0.1-0.4,0.3-0.7,0.4-1.1C37.6,88.8,37.4,88.8,37.3,88.8z"/>
	<path class="st0" d="M58.5,42l-0.8,0.7c0.2,0.1,0.3,0.2,0.4,0.3l1.1-1.8L58.5,42L58.5,42z"/>
	<path class="st0" d="M39.3,61.8c0.7-1.2,0.9-2.6,1.5-3.8c0.7-1.6,1.6-3.2,2.3-4.8c0.3-0.6,0.6-1.3,0.8-1.9l0.5-1.3
		c0.5-1.3,1.1-2.5,1.8-3.7c2.1-3.4,4.5-6.6,6.8-9.9c0.8-1.1,1.4-2.3,2.3-3.3c1.7-2,3.7-3.7,5.9-5.3c0.4-0.3,0.7-0.6,1-0.9
		c1.5-1.2,2.9-2.5,4.5-3.5c2.1-1.2,4.3-2.3,6.6-3.2c0.8-0.3,1.7-0.4,2.5-0.4c2.2,0.1,4.3,0.2,6.5,0.4c1.3,0.1,2.6,0.3,3.9,0.5
		c0.4,0,0.7,0.3,0.9,0.5c0.4,0.3,0.7,0.8,1.1,0.9c3,0.6,3.3,4,5.9,5.1c0.9,0.4,1.2,1.9,1.8,2.8c1.7,2.8,2.9,5.9,3.8,9.1
		c0.7,2.4,1.2,5,1.9,7.4c0.2,0.8,0.7,1.6,1.2,2.6c0.1-0.3,0.4-0.6,0.3-0.8c-0.9-3.9-1.6-7.9-3-11.6c-0.8-2.2-1.3-4.6-2.6-6.7
		c-0.9-1.5-2.1-2.8-3.2-4.1L93.4,25c-1.1-1.1-2.1-2.2-2.9-3.5l-0.1-0.1c-0.7-0.3-1.4-0.6-2-1L88,20.3c-1.9-1-3.8-2-6.3-1.8
		c-0.5,0-1-0.2-1.5-0.3c-1.1-0.3-2.2,0-3.3,0.2l-0.6,0.2c-0.3,0.1-0.6,0.2-0.9,0.2c-2.2,0.5-4.5,0.8-6.5,2c-0.7,0.4-1.2,0.9-1.8,1.3
		c-2.1,1.3-4.2,2.6-6.2,4c-0.5,0.4-0.9,1-1.3,1.5c-1.2,1.2-2.5,2.5-3.8,3.7c-0.9,0.9-2,1.7-2.7,2.7c-1.4,1.8-2.6,3.8-3.9,5.7
		c-0.9,1.4-2,2.7-2.8,4.1c-0.9,1.5-2,3-2.2,4.5c-0.5,2.5-2.3,4.4-3,6.7c-0.9,2.9-2.5,5.6-3.6,8.5c-1,2.5-1.7,5.1-2.8,7.7
		c-1,2.5-2.3,4.9-3.3,7.4c-0.7,1.6-1.2,3.3-1.9,4.9c-0.5,1.1-1,2.2-1.4,3.3c-0.4,1.1-0.6,2.1-0.9,3.2h1c1.1-3,2.3-6,3.5-9
		c0.8-2.2,1.6-4.3,2.5-6.5C36.2,70.3,36.9,65.9,39.3,61.8L39.3,61.8z"/>
	<path class="st0" d="M56.7,45.3c-0.1-0.1-0.2-0.1-0.4-0.2c-0.7,1-1.4,2-2.1,3.1c0.1,0.1,0.3,0.2,0.4,0.2l0,0
		C55.3,47.4,56,46.3,56.7,45.3z"/>
	<path class="st0" d="M40,81.7c-0.4,1-0.8,2-1.1,3c0.1,0,0.3,0.1,0.4,0.1l1.2-3C40.3,81.7,40.2,81.7,40,81.7z"/>
	<path class="st0" d="M117.4,64.8c0.7-0.8,1.3-1.5,2-2.3c-0.1-0.1-0.2-0.2-0.4-0.3c-0.6,0.8-1.2,1.6-1.8,2.4
		C117.3,64.7,117.3,64.8,117.4,64.8L117.4,64.8z"/>
	<path class="st0" d="M111.8,58.1l-4.5,3.1C109.1,60.6,110.8,59.8,111.8,58.1z"/>
	<path class="st0" d="M76.4,34.4c2.6-1.1,4.6-0.2,6,1.5c1.4,1.8,2.8,3.7,3.7,5.9c1,2.7,1.4,5.7,2.2,8.5c0.6,2.1,1.3,4.2,2.3,6.2
		c0.9,2,2.2,3.9,3.3,5.9c0.2,0.3,0.5,0.6,0.6,0.9c0.9,3,3.4,4.2,6.4,4.9c3.6,0.8,7.2-0.2,10.4-2c2-1.1,4.1-2.6,5.8-4.5
		c1.9-2.1,3.3-4.5,5-6.8c1.2-1.7,1.7-3.9,2.4-6c1.5-3.9,2.9-7.8,4.4-11.8c0.3-0.8,0.9-1.6,1.1-2.4c0.8-2.8,1.4-5.6,2.2-8.4
		c1.1-4.2,2.8-8.4,4.8-12.4c0.9-1.8,2.4-3.3,4.2-4.7c1.9-1.6,3.9-1.9,6-2.1l0.6-0.1c0.8-0.1,1.7,0.1,2.4,0.4
		c1.8,0.8,3.6,1.5,5.2,2.5c2.2,1.3,3.9,3,5.5,4.8l0.8,0.8c1,1.1,2,2.2,3.2,3.2c3.5,3,7.2,5.8,12.4,6.3c3.3,0.3,6.6,0.5,10-0.9
		c2.8-1.1,5.6-2,8.4-3c0.5-0.2,1-0.6,1.5-1c0.6-0.4,1.2-0.8,1.8-1.2c3-2.1,6.5-3.5,9.1-6.2c1.3-1.4,2.5-2.8,3.7-4.3
		c0.7-0.9,1.8-1.6,2.4-2.5c1.4-2,2.8-4.1,4.2-6.2H215c-0.3,0.4-0.5,0.7-0.8,1.1c-1.5,2-3.2,3.8-4.9,5.8c-0.4,0.5-0.6,1.1-1.1,1.5
		c-1.7,1.5-3.5,2.9-5.3,4.3c-1.1,0.8-2.6,1.3-3.6,2.2c-1.5,1.6-3.4,2.5-5.3,3.4c-2.1,1-4.1,2.2-6.4,2.5c-1.8,0.2-3.6,1-5.4,1.4
		c-0.5,0.1-1.1-0.1-1.6-0.2c-0.2,0-0.5-0.2-0.8-0.1c-2.7,0.7-5.1-0.2-7.4-0.9c-1.9-0.6-3.5-2.1-5.1-3.2c-0.8-0.5-1.6-1.1-2.3-1.8
		c-1.4-1.3-2.7-2.6-4-4c-0.3-0.3-0.4-0.9-0.9-1.1c-0.8-0.7-1.6-1.3-2.3-2.1c-1.8-2.1-4.2-3.6-6.9-4.3c-2.3-0.7-5-0.6-7.7,0.2
		c-4.1,1.2-6.5,3.9-8.6,7.3c-1.2,1.9-2.4,3.7-2.8,5.9c-0.1,0.6-0.9,1.3-1.1,1.9c-0.3,1.1-0.6,2.1-0.9,3.2l-0.9,3.2l-0.4,1.6
		c-0.7,2.7-1.4,5.4-2.3,8.1c-0.4,1.3-1.1,2.5-1.7,3.8c-0.4,1-0.7,2.1-1.2,3.2c-0.3,0.7,0.1,1.8-1.2,2.1c-0.2,0-0.2,0.6-0.3,0.8
		c-0.9,2.4-1.4,5-2.7,7.2c-0.9,1.5-1.8,3.1-3,4.4c-1.5,1.8-3.2,3.4-5.2,4.7c-1.7,1.2-3.8,2.2-5.8,2.8c-1.6,0.4-3.4-0.1-5,0.1
		c-2.1,0.2-3.2-1-4.2-2.2l-0.2-0.3c-0.2-0.2-0.3-0.4-0.5-0.6c-1.4-1.7-2-3.9-3.3-5.7c-2.5-3.5-2.8-7.8-4.2-11.7
		c-0.9-2.8-1.8-5.6-2.8-8.4c-0.2-0.5-0.7-0.9-1.1-1.3c-0.8-0.8-1.6-1.5-2.3-2.3c-0.9-1.1-3.5-1.7-5-1.6c-2.1,0.2-3.8,1.4-5.4,2.5
		l0,0.9c-0.4,0.3-0.9,0.7-1.3,1c-1.2,0.8-2.4,1.6-3.3,2.6c-1.7,1.8-3.2,3.6-4.7,5.5c-1.2,1.6-2.4,3.2-3.5,4.8
		c-0.5,0.7-0.8,1.5-1.1,2.2c-1.2,2.8-2.5,5.5-3.7,8.3C52,61.6,50.3,64.7,49,68c-0.8,2-1.2,4.1-1.8,6.1c-0.2,0.6-0.5,1.2-0.8,1.8
		c-0.3,0.5-0.7,1-0.9,1.5c-0.8,2.1-1.6,4.2-2.4,6.3c-0.6,1.7-1,3.4-1.8,5c-0.2,0.5-0.4,0.9-0.6,1.4h3c0.2-0.5,0.3-0.9,0.5-1.4
		c0.8-2.4,2.1-4.6,3-7c0.9-2.2,1.6-4.5,2.5-6.7c1.2-3.2,2.5-6.4,3.8-9.5c1.7-3.9,3.3-7.9,5.2-11.7c1.3-2.5,3-4.9,4.6-7.3
		c1-1.5,2.1-3,3.3-4.4c0.9-1,1.9-2,3-2.9c1.2-1,2.3-1.9,3.6-2.8C74.2,35.6,75.3,34.9,76.4,34.4L76.4,34.4z"/>
	<path class="st0" d="M57,64l-0.3-0.2c-0.4,0.4-0.8,0.7-1.2,1.1l0.3,0.3C56.2,64.7,56.6,64.4,57,64L57,64L57,64z"/>
	<path class="st0" d="M59.8,61.1c0.2-0.4,0.3-0.8,0.5-1.2l1-2.3c0.7-1.5,1.3-3.1,2.1-4.6c0.8-1.6,1.9-3,2.9-4.5s2-2.9,3-4.3
		c0.4-0.6,0.9-1.1,1.5-1.7c-0.1-0.1-0.1-0.2-0.1-0.4c-0.2,0.2-0.3,0.3-0.5,0.5l0,0c-1.1,1-2.4,2.1-2.9,3.1c-0.2,0.4-0.5,0.8-0.9,1.2
		l-0.3,0.4c-0.6,0.7-1.1,1.4-1.2,2.4c0,0.3-0.7,0.7-1,1.1c-1.3,1.9-2.9,3.7-3.7,5.7c-0.5,1.1-0.7,2.4-1.3,3.5
		c-0.2,0.3-0.5,0.5-0.7,0.8c-0.2,0.2-0.4,0.5-0.4,0.7c0.3,1.6-0.5,3-1.4,4.3L56,66.2l-0.1,0.2c-0.5,0.8-0.6,1.8-0.9,2.7h-0.1
		c-0.4,1.3-0.7,2.5-1.2,3.7s-1.4,2.3-1.4,3.8c0,1.2-1,2.4-1.5,3.7c-0.3,0.7-0.3,1.4-0.5,2.2c-0.1,0.5-0.4,1-0.6,1.5
		c-0.1,0-0.2,0-0.3,0c-0.1-0.2-0.1-0.4-0.2-0.7c-0.2,0.2-0.3,0.3-0.3,0.4c0,1.2-0.9,2.2-0.9,3.5c0,0.9-0.5,1.9-1.1,2.9h1.6
		c0.4-1,0.8-2,1.1-3c0.2-0.6,0.5-1.2,0.8-1.8c0.8-2,1.5-4.1,2.3-6.1c0.9-2.2,1.8-4.5,2.7-6.7c0.5-1.3,1-2.7,1.5-4
		C57.7,66,58.7,63.6,59.8,61.1L59.8,61.1z"/>
	<path class="st0" d="M728,0H229.1h2.1c-0.3,0.5-1.3,2.9-1.6,3.4c-1.5,2.3-3.1,4.6-4.8,6.8s-3.4,4.4-5.2,6.4
		c-1.3,1.5-2.8,2.7-4.3,4.1c-1.1,1-2.2,1.9-3.3,2.9c-0.6,0.5-1.2,1-1.8,1.5c-2.1,1.3-4.1,2.8-6.2,3.9c-3,1.5-5.8,3.6-9.1,4.5
		c-3.4,0.9-6.8,2-10.2,2.8c-1.3,0.3-2.7,0-4.1,0.1c-0.4,0-0.7,0-1.1,0l-2.1,0.1c-1.1,0-2.1,0-3.2,0c-1.2,0-2.3-0.4-3.5-0.7
		c-2.3-0.5-4.4-1.3-6.3-2.6c-0.7-0.5-1.8-0.6-2.6-1c-0.7-0.3-1.3-0.8-1.9-1.3c-2.7-2.3-5.5-4.6-8.2-6.9c-1-0.9-1.8-2.1-2.8-3.1
		c-0.7-0.7-1.5-1.3-2.4-2c-1.1,2.5-2.2,4.8-3,7.2c-0.8,2.3-1.3,4.7-1.8,7.1c-0.8,3.5-2.1,6.9-3.4,10.3c-0.8,2-1.6,3.9-2.3,5.9
		c-0.7,1.9-1.7,3.7-2.2,5.6c-0.6,2.3-2,4-3.2,6c-1.1,1.7-2,3.4-3.3,5c-0.8,0.9-1.7,1.8-2.4,2.8c-2.5,3.6-6.4,5.3-10,7.3
		c-1.6,0.9-3.2,1.9-4.9,2.4c-2.2,0.6-4.6,1.1-6.8,1.2c-2.4,0.1-4.8-0.1-7.1-0.5c-1.3-0.2-2.4-0.7-3.6-1.2l-0.9-0.4L91.3,77
		c-1.2-0.5-2.7-0.9-3.5-1.8c-2.2-2.3-4.7-4.4-5.9-7.4c-0.6-1.4-1.6-2.7-2.3-4c-0.7-1.2-1.4-2.5-1.9-3.8c-0.7-1.5-1.2-3.2-1.7-4.8
		c-0.6-2-1.1-4-1.6-6c-0.1,0-0.3-0.1-0.4-0.2c-0.7,1-1.5,1.9-2.1,3c-1.2,2-2.3,3.9-3.4,5.9c-0.2,0.4-0.3,0.8-0.4,1.2
		c0,0.1-0.1,0.2-0.1,0.2l-0.1,0.5c-0.1,0.3-0.1,0.5-0.2,0.7c-1,2-2.2,3.9-3.2,5.8c-0.1,0.2-0.1,0.5-0.2,0.7
		c-0.4,1.1-0.9,2.3-1.3,3.4c-0.5,1.3-0.9,2.6-1.3,3.9c-0.6,1.8-1.1,3.6-1.8,5.3c-1.3,3.4-2.5,6.9-4,10.2H728V0z"/>
	<path class="st0" d="M92.7,49.2L92.7,49.2c0.1,0,0.2-0.1,0.4-0.1c-0.2-0.6-0.3-1.2-0.5-1.9c-0.1,0-0.3,0.1-0.4,0.1
		C92.3,47.9,92.5,48.5,92.7,49.2L92.7,49.2z"/>
	<path class="st0" d="M0,90h23.4c0-0.2,0.1-0.3,0.1-0.5c0.9-2.7,2-5.3,3-8c0.5-1.4,1-2.8,1.5-4.2c0.6-1.6,1.3-3.2,1.9-4.8
		c0.6-1.4,1-2.8,1.6-4.2c1.3-3.2,2.7-6.3,4-9.5c0.8-2,1.5-3.9,2.4-5.9C39.5,49.5,41,46,43,42.7c2.1-3.5,4.7-6.7,6.9-10.2
		c2.3-3.7,5.7-6.3,9.1-8.9c1.1-0.9,2-2,3.2-2.7c1.1-0.7,2.3-1.3,3.5-1.9l2.3-1.2c0.8-0.4,1.6-0.8,2.3-1.2c3.2-1.8,6.5-1.6,9.8-1.4
		c2.6,0.2,5.2,0.6,7.8,1c0.6,0.1,1.2,0.5,1.7,0.9c1.5,1.3,3.8,1.6,4.9,3.3c0.5,0.8,1.1,1.5,1.8,2.2c0.5,0.5,1.2,0.9,1.7,1.5
		c1.4,2.1,2.9,4.1,3.9,6.4c1.1,2.3,1.7,4.9,2.4,7.4c0.5,1.8,0.9,3.7,1.7,5.5c0.6-1.8,1.2-3.6,1.9-5.3c1.3-3.2,2.8-6.4,3.9-9.6
		c1-2.8,1.4-5.8,2.3-8.7c0.6-1.9,1.4-3.8,2.2-5.7c1-2.4,1.9-4.8,3-7.2c0.4-0.9,1.2-1.8,1.9-2.7c0.4-0.5,0.8-1.1,1.1-1.7
		c0.4-0.9,0.9-1.8,1.6-2.6H0V90z"/>
	<path class="st0" d="M97.9,53.2c1,1.6,1.8,3.3,2.8,5c0.6,1,2,1.4,3.6,0.9c-0.7-0.5-1.4-1-2-1.5s-1.3-1.1-1.7-1.8
		c-0.6-1.2-0.7-2.8-1.5-3.8c-2.2-2.4-1.8-5.7-3.1-8.4c-0.6-1.2-0.4-2.7-0.7-4c-0.1-0.5-0.4-1-0.6-1.6c-0.2-0.4-0.3-0.8-0.4-1.3
		L94,35.8c-0.5-1.4-1-2.8-1.9-4.1c-0.7-1-1.6-1.8-2.4-2.7c-0.5-0.6-1.2-1.1-1.6-1.8c-0.7-1.4-2-1.9-3.5-2.4
		c-0.3-0.1-0.6-0.4-0.9-0.5c-0.7-0.3-1.4-0.7-2.1-0.9c-0.5-0.1-1.1,0.1-1.6-0.1c-1.5-0.4-2.9-0.2-4.4,0.5c-0.4,0.2-1-0.2-1.5-0.1
		c-1.1,0.4-2.2,0.8-3.2,1.4c-1.9,1.2-3.7,2.6-5.6,3.8c-2.4,1.5-4.2,3.6-6.1,5.5c-1.5,1.5-2.6,3.3-4,4.7c-1.3,1.4-1.6,3-2.8,4.3
		c-1.1,1.3-1.7,3-2.5,4.5c-1.1,2.1-2.1,4.2-3.2,6.3c-1,2-2.3,3.9-3,5.9c-0.3,0.9-0.6,1.8-1,2.7c-1,2.7-1.9,5.4-2.9,8
		c-0.5,1.2-1.1,2.4-1.6,3.7C38,75,38,75.6,37.8,76.1c-1,2.4-2.1,4.9-3.2,7.3c0,0.1-0.1,0.2-0.1,0.2c-0.2,2-1.6,3.7-2.2,5.6
		c0,0.1-0.1,0.3-0.1,0.4h2c1-2.6,2-5.1,3-7.7c0.2-0.7,0.5-1.3,0.8-2l1.5-4c0.5-1.3,1-2.7,1.5-4c1.2-3.1,2.6-6.2,3.8-9.2
		c0.6-1.5,1.1-3.1,1.8-4.7c0.7-1.5,1.5-2.9,2.1-4.4c0.5-1.2,0.8-2.5,1.5-3.7c2.2-3.7,4.6-7.4,7-11c0.8-1.2,1.6-2.6,2.6-3.6
		c1.9-1.8,3.9-3.5,6-5c2-1.5,4.1-3,6.2-4.3c1.3-0.8,2.8-1.2,4.4-1.1s3.2-0.2,4.8,0c1.2,0.2,2.4,0.7,3.4,1.3c2.1,1.3,3.8,3,5.2,5.1
		c2.2,3.2,3.4,6.8,4.2,10.6C95,46.1,96,49.9,97.9,53.2L97.9,53.2z"/>
	<path class="st0" d="M177.1,3.5c0.1,0.1,0.2,0.2,0.3,0.3l0.3,0.3l0.1,0.1l0.3,0.3c1.1,1,2.2,2,4.1,1.7l0.6-0.1
		c1.8-0.3,3.7-0.7,5.3-2c1.2-0.9,2.6-1.6,3.9-2.4c0.8-0.5,1.6-1,2.4-1.6h-20.8C174.7,1.2,175.8,2.4,177.1,3.5L177.1,3.5z"/>
	<path class="st0" d="M159.9,6.2c-2.7-2.9-5.9-5.1-10.5-5.1C153.5,2,157,3.7,159.9,6.2z"/>
	<path class="st0" d="M61.3,38.7L61.3,38.7c-0.2-0.1-0.4-0.2-0.5-0.3L59.4,41C60,40.2,60.7,39.5,61.3,38.7L61.3,38.7z"/>
	<path class="st0" d="M67.7,32.2c-1.3,1-2.5,2.1-4,3.3C65.9,34.6,67.8,33,67.7,32.2z"/>
	<path class="st0" d="M58.1,43L58.1,43L58.1,43z"/>
	<path class="st0" d="M86.5,32.3L86.5,32.3l3.2,4.6c-0.2-0.3-0.3-0.7-0.5-1L89,35.5C88.5,34.3,88,33,86.5,32.3L86.5,32.3z"/>
	<path class="st0" d="M76.7,28.1L76.7,28.1c1.5,0.1,2.7,0.1,3.9,0.1c0-0.2,0.1-0.5,0.1-0.7C79.4,28.2,78.4,26.6,76.7,28.1L76.7,28.1
		z"/>
</g>
</svg>
