<?xml version="1.0" encoding="utf-8"?>
<!-- Generator: Adobe Illustrator 26.5.0, SVG Export Plug-In . SVG Version: 6.00 Build 0)  -->
<svg version="1.1" id="a" xmlns="http://www.w3.org/2000/svg" xmlns:xlink="http://www.w3.org/1999/xlink" x="0px" y="0px"
	 viewBox="0 0 728.2 90" style="enable-background:new 0 0 728.2 90;" xml:space="preserve">
<style type="text/css">
	.st0{fill:#FFFFFF;}
</style>
<path class="st0" d="M639,13.6c0.7-0.3,2.4-2.2,3-3.3C640.5,10.9,639.6,12.1,639,13.6z"/>
<path class="st0" d="M687.1,88.7c1.1,0.4,2.1,0.8,3.2,1.3h1.9C690.5,89.2,688.8,88.3,687.1,88.7z"/>
<path class="st0" d="M631.7,23c-0.9-1-1.3-1-1.7,0.2C630.6,23.7,631.2,23.7,631.7,23z"/>
<path class="st0" d="M616.3,64c21.5,2.9,41.8,10.7,62,18.2c7,2.4,13.9,5,20.7,7.8h6.2c-9.2-4-18.5-7.7-28-10.9
	C668.5,76.7,619.5,56.8,616.3,64L616.3,64z"/>
<path class="st0" d="M628.8,24.9L628.8,24.9c-0.1-0.1-0.1-0.1-0.2-0.2c-0.3,0.2-0.6,0.4-0.8,0.7C628.5,25.6,628.7,25.4,628.8,24.9
	L628.8,24.9z"/>
<path class="st0" d="M643.4,8.4c0.1,0.1,0.2,0.2,0.3,0.3l2.6-2.8C645.1,5.5,644.1,7.6,643.4,8.4z"/>
<path class="st0" d="M652.5,0h-0.5c-0.5,0.3-0.7,0.7-0.8,1.5C651.9,1,652.6,0.8,652.5,0z"/>
<path class="st0" d="M647.5,4.5c-0.2,0.2-0.4,0.3-0.6,0.5c0.1,0.1,0.1,0.2,0.2,0.2c0.2-0.2,0.4-0.3,0.6-0.5
	C647.7,4.7,647.6,4.6,647.5,4.5L647.5,4.5z"/>
<polygon class="st0" points="646.3,5.9 646.3,5.9 646.3,5.9 "/>
<polygon class="st0" points="641.9,8.7 641.9,8.7 641.9,8.7 "/>
<path class="st0" d="M642.9,9.3c-0.2,0.1-0.5,0.2-0.7,0.3c0.1,0.1,0.2,0.2,0.3,0.3c0.2-0.2,0.3-0.3,0.5-0.5
	C643,9.4,643,9.3,642.9,9.3L642.9,9.3z"/>
<path class="st0" d="M641.7,8.4c-0.1,0.1-0.1,0.1-0.3,0.3c0.2,0.1,0.4,0.4,0.5,0.1C641.8,8.6,641.8,8.5,641.7,8.4L641.7,8.4z"/>
<polygon class="st0" points="675.4,69 675.4,69 675.4,69 "/>
<path class="st0" d="M668.5,66.1c0.4,0.3,0.8,0.5,1.2,0.4C669.3,66.4,669,66.3,668.5,66.1z"/>
<path class="st0" d="M619.5,59.1c1.8-0.2,3.5,1.3,5.3,1c1.7,0.1,3.6,0.5,5,1.7c4.5-0.6,9.3,1.4,13.5,2.8c0.4,0.5,1.4,0.2,1.5,1
	c0.1,0.6,0.5,0.4,0.9,0.2c-0.1-0.2-0.1-0.5-0.2-0.8c1.2,0.1,1.9,1.6,3.2,1c2.2,1,4.7,1.2,6.9,2.4l0,0c0,0,0,0,0,0h0.1
	c0.1,0,0.1,0,0.2,0l-0.1-0.4l2-0.3l0.2,1l-1.9,0.3c0.7,0.3,1.5,0.5,2.3,0.4c0-0.2,0-0.3,0-0.5c1,0.1,0.9,1.6,2.1,1.5
	c0-0.2,0-0.4,0-0.8c0.9,0.5,1.8,0.9,2.7,1.4c-0.4,0-0.7,0-1.1,0l-0.1,0.2c0.4,0.1,0.7,0.3,1.1,0.4c0-0.1,0.1-0.3,0.1-0.4
	c4.4,0.5,8.2,2.7,12.4,4.1c-0.1,0.2-0.1,0.4-0.3,0.7c3.7-0.4,6.5,2.3,10.1,2.8c-0.1,2,6.4,1.9,8.2,3.2l-1.2,0.2
	c0.8,1.6,2.5,0.1,4.1,0.9c-0.2,0.2-0.4,0.4-0.7,0.6c0.7,0.3,1.2,0.6,1.8,0.8l0.2-0.2l-0.5-0.6c1.7,0.5,3.6,0.6,4.6,2.2
	c1.6-0.9,2.4,0.7,4,0.9c1.1,0,1.2,1.8,2.2,1.4c1.1-0.7,1.6,0.6,2.5,0.9c0.5,0.6,1.8,0.3,2.4,0.7h5.2c-1.6-0.7-3.1-1.5-4.7-2.3
	c-29.8-12.4-60.2-24.3-92.2-31.2C620.6,57.4,620,58.2,619.5,59.1L619.5,59.1z"/>
<path class="st0" d="M633.4,55.7c0.6,0.4,1.2,0.6,1.9,0.2C634.7,55.3,634.1,55.3,633.4,55.7z"/>
<path class="st0" d="M638.6,56.5c0.6,0.5,1.1,0.7,1.6,0.5C639.5,56.8,639,56.7,638.6,56.5z"/>
<path class="st0" d="M675.4,69c-0.2-0.2-0.3-0.2-0.6-0.2c-0.1,0.3,0.3,0.2,0.5,0.3C675.3,69.1,675.3,69,675.4,69L675.4,69z"/>
<path class="st0" d="M709.5,88.9c-0.3-0.2-0.7-0.4-1.2,0.1C708.8,89,709.4,89.5,709.5,88.9z"/>
<path class="st0" d="M704.7,87.6L704.7,87.6c0.5,0.2,0.8,0.3,1.1,0.4C706.2,87.5,705.4,87.2,704.7,87.6z"/>
<path class="st0" d="M728.2,89c-0.4,0.2-0.5,0.7-0.3,1h0.3V89z"/>
<path class="st0" d="M710,90C710,90,710,90,710,90l1.2,0c-0.3-0.1-0.7-0.2-1-0.4C710.1,89.8,710,89.9,710,90L710,90z"/>
<path class="st0" d="M628.4,69.2c-1.3-1.1-2.9-1.2-4.4-1.3l0,0l-0.1,0.3L628.4,69.2z"/>
<path class="st0" d="M655.7,77.3c1.3,0.7,2.7,1.2,4.1,1.5l0.1-0.3c-1.3-0.7-2.6-1.2-4.1-1.5L655.7,77.3z"/>
<path class="st0" d="M646.7,73.8c2,1.5,4.8,1.7,7.1,2.6c0-0.1,0.1-0.2,0.1-0.2C651.5,75.4,649.2,73.8,646.7,73.8z"/>
<path class="st0" d="M614.7,66.3c-0.1,0.1-0.2,0.3-0.3,0.4c0.4,0.2,1,0.2,1.4,0.3c0-0.1,0-0.1,0-0.2
	C615.6,66.7,614.9,66.4,614.7,66.3L614.7,66.3L614.7,66.3z"/>
<path class="st0" d="M646.4,73.9c0-0.1,0.1-0.2,0.1-0.2c-0.3-0.1-0.5-0.2-0.8-0.2c0,0.1,0,0.2-0.1,0.2
	C645.8,73.8,646.1,73.9,646.4,73.9z"/>
<polygon class="st0" points="659.9,78.5 659.9,78.5 659.9,78.5 "/>
<path class="st0" d="M676.4,84.5c-0.5-1.4-3.1-0.9-4.3-1.7c-3.3-1.5-7-3.9-10.6-3.8c1.2,0.8,2.6,0.9,3.8,1.5l0,0
	C669,81.8,672.4,84.2,676.4,84.5z"/>
<path class="st0" d="M634.9,70.8c3.2,0.7,6.3,2.1,9.5,2.5c-4.4-2-9.8-3.4-14.8-4.1c0,0.1,0,0.2-0.1,0.3
	C631.1,70.4,633.1,70.2,634.9,70.8L634.9,70.8z"/>
<path class="st0" d="M616.4,67c1.1,0.3,2.2,0.3,3.4,0.5C619,66.6,618.6,66.5,616.4,67z"/>
<path class="st0" d="M681,78.4c0.5,0.2,0.9,0.5,1.4,0.7C682.9,78.3,681.6,78.2,681,78.4z"/>
<path class="st0" d="M682,86.7c-1.5-0.9-3.1-1.7-4.8-2C678.4,86.1,680.2,86.3,682,86.7z"/>
<path class="st0" d="M617.2,56.2c-0.5-0.1-1,0-1.5-0.1h0c-0.4,0.7-0.9,1.4-1.3,2C616,59,616.4,57.2,617.2,56.2z"/>
<path class="st0" d="M591.8,67.2c1.1,0.1,2.2,0.6,2.6-0.7C593.4,66.3,592.3,65.9,591.8,67.2z"/>
<path class="st0" d="M594.3,59.4c-0.7,0.3-1,0.5-1.1,1C593.8,60.5,594,59.8,594.3,59.4z"/>
<path class="st0" d="M591.2,76.8c0.1-0.2,0.2-0.3,0.3-0.4c0,0-0.1,0-0.1,0C591.3,76.6,591.3,76.7,591.2,76.8L591.2,76.8z"/>
<path class="st0" d="M590.3,78.3c-1,1.1-1.8,2.2-2.4,3.6l0.2,0.1c1-1.1,1.8-2.3,2.4-3.6L590.3,78.3z"/>
<path class="st0" d="M588.2,90c2.7-4.4,5.4-8.7,8.3-12.9c-3.5,4.1-6.8,8.4-9.8,12.9H588.2z"/>
<path class="st0" d="M594.5,63.3L594.5,63.3L594.5,63.3C594.5,63.2,594.5,63.2,594.5,63.3L594.5,63.3z"/>
<path class="st0" d="M596.5,73.6c1.5,0.2,2.5,0.3,3.1-1.2C598.2,72.2,597.1,72.1,596.5,73.6L596.5,73.6z"/>
<path class="st0" d="M586.7,83.7c-1.4,2.1-3.5,3.9-4,6.3h0c1.9-1.6,2.7-4.2,4.2-6.2C586.9,83.8,586.8,83.7,586.7,83.7L586.7,83.7z"
	/>
<path class="st0" d="M596.3,63.5L596.3,63.5c-0.5-0.3-1.1-0.5-1.7-0.3C595.2,63.8,595.5,63.9,596.3,63.5z"/>
<path class="st0" d="M593.1,72.9L593.1,72.9c1,0.4,1.3-0.4,1.8-1.1C593.9,71.4,593.6,72.2,593.1,72.9L593.1,72.9z"/>
<path class="st0" d="M579.4,81.4c-0.5,0-0.4,0.2-0.4,0.8C579.6,82,579.5,81.8,579.4,81.4z"/>
<path class="st0" d="M593.1,90h1.2c2.6-4.2,5.3-8.2,8.1-12.2C599.1,81.7,596,85.8,593.1,90z"/>
<path class="st0" d="M581.1,65.9C581.1,65.9,581.1,65.9,581.1,65.9L581.1,65.9L581.1,65.9L581.1,65.9z"/>
<path class="st0" d="M581.1,65.9C581.1,65.9,581.1,65.9,581.1,65.9C581.1,65.9,581.1,65.9,581.1,65.9
	C581.1,65.9,581.1,65.9,581.1,65.9z"/>
<path class="st0" d="M570,90h4.1c0.2-0.2,0.3-0.4,0.5-0.6c-0.3,0-0.5,0-0.8,0c0.1-1,2.2-1.4,1.7-2.5c1.4-2,2.4-4.5,4.1-6.4l0,0
	c0.2,0,0.3,0,0.4-0.1l-0.4-0.1l0.2-1.9c0.1,0,0.5,0,0.5,0.1l-0.2,1.9c0.7-0.4,1-1.5,1.2-2.3c-0.2,0-0.3-0.1-0.4-0.1
	c0.3-0.9,1.8-0.5,2-1.7c-0.2-0.1-0.4-0.1-0.8-0.2c0.2-0.2,0.4-0.4,0.6-0.6C578.9,77,574.5,82.4,570,90L570,90z"/>
<path class="st0" d="M582.1,71.7c1,0.2,1.9,0.3,2.8,0.5c0.3-0.5,0.5-1.1,0.8-1.6c-0.3-0.1-0.7-0.3-1.1-0.3v0
	C583.3,70,582.5,70.3,582.1,71.7L582.1,71.7z"/>
<path class="st0" d="M580.8,61.5c-0.4,0-0.7,0-1.1,0.1C580.1,61.6,580.6,62,580.8,61.5z"/>
<path class="st0" d="M588.3,72.3c1.2,0.2,2.3,0.5,2.8-0.9c-0.7,0.1-1.2-0.4-1.9-0.4C588.9,71.4,588.6,71.8,588.3,72.3z"/>
<path class="st0" d="M579.1,90c2.8-4.7,5.7-9.3,8.7-13.8c-4.6,2.5-8.1,7.9-11.2,13.8H579.1L579.1,90z"/>
<path class="st0" d="M578.1,83.7c-1-0.1-1.2,1.5-1,2.1l0,0C577.4,85,577.8,84.3,578.1,83.7L578.1,83.7z"/>
<path class="st0" d="M618.6,14.4c-0.1-1-1.6-1-1.6,0.1C617,15.4,618.6,15.5,618.6,14.4z"/>
<path class="st0" d="M589.7,66C589.7,66,589.7,66,589.7,66L589.7,66C589.7,66.1,589.7,66,589.7,66L589.7,66L589.7,66z"/>
<path class="st0" d="M602.2,46.9l0,0.2c1.9,0.4,0.4-1.7,1.6-2.8c0.1,0.3,0.3,0.5,0.4,0.8c0.5-0.5,0.8-1,1.2-1.6l-0.2-0.2l-0.7,0.4
	c0.9-1.5,1.4-3.3,3.3-3.9c-0.5-1.8,1.3-2.2,1.9-3.7c0.2-1,2.1-0.7,1.9-1.8c-0.3-0.8,0.3-1.1,0.7-1.6c1.4-0.3,1.3-3.3,2.8-2.9
	c1-2.2,2.8-3.7,4.2-5.6c0.4,0.8,1,0,0.7-1.1c-0.2,0.1-0.3,0.1-0.4,0.2c1.3-1.5,2.9-2.7,4-4.6c0.2,0.2,0.3,0.3,0.4,0.5
	c0.9-1.3,1-2.9,2.3-4c0,0.1,0,0.1,0.1,0.1c-0.1,0.3-0.1,0.7-0.1,1c0.5-0.4,0.5-0.7,0.3-0.9c0.1,0,0.2,0,0.3,0.1
	c1.5-3.9,5.5-5.7,7.8-9.2c0,0.3,0,0.5,0,0.8c1-0.4,1-1.4,2.1-2.2c-0.5,0.1-0.7,0.1-1.2,0.2c0.8-1,1.3-2.2,2.5-2.5
	c1.5,0.2,1.2-1.9,2.3-2.8h-3.8c-2.8,4.6-8.4,8.8-11.8,12.7c-8.9,11.3-18.2,22.2-26.1,34.1C600,46.7,601.3,47.2,602.2,46.9
	L602.2,46.9z"/>
<path class="st0" d="M620.1,35.7c1.6-1.4,3.8-3.6,4.1-5.6C623,32.1,621.3,33.7,620.1,35.7z"/>
<path class="st0" d="M612,47c-0.3-0.2-1,0.4-1.7,1.2C611.3,48.6,611.6,47.8,612,47z"/>
<path class="st0" d="M613.8,61.2c-0.4-0.1-0.8-0.1-1.3-0.2c-0.4,0.6-0.8,1.2-1.2,1.8C612.7,63.5,613,62.2,613.8,61.2L613.8,61.2z"/>
<path class="st0" d="M607.4,57.8c0.5,0.5,1.3,0.5,1.7-0.4c1.2,0.5,1.6-1.7,2.4-2.3c-0.1,0-0.2,0-0.2,0l0,0
	C609.1,54.4,608.6,56.4,607.4,57.8L607.4,57.8z"/>
<path class="st0" d="M629,12.8c-0.2,0.2-0.3,0.5-0.5,0.7l0.2,0.1l0.6-0.6C629.2,13,629.1,12.9,629,12.8z"/>
<path class="st0" d="M633.7,8.2c-0.4,0.3-0.8,0.6-1.2,1l0.2,0.3c0.4-0.4,0.8-0.7,1.2-1C633.9,8.4,633.8,8.3,633.7,8.2L633.7,8.2z"/>
<path class="st0" d="M620,35.9c-1.5,2-4.8,5-5.2,7.1C616.5,40.7,618.9,38.5,620,35.9z"/>
<path class="st0" d="M629.4,20.7c-0.3,0-0.6,0.3-1.1,0.6C629.3,23.2,631,21.2,629.4,20.7z"/>
<path class="st0" d="M613.9,31.4c-0.2,0.3-0.4,0.6-0.6,0.9c0.1,0.1,0.2,0.1,0.3,0.2c0.2-0.3,0.4-0.6,0.6-0.9
	C614.1,31.5,614,31.4,613.9,31.4L613.9,31.4z"/>
<path class="st0" d="M682.2,90c-2.9-1.1-5.8-2.1-8.6-3.1C654,79.8,632,70.5,611.8,70.2c23.1,3.9,45.5,11.2,67.6,19.8H682.2z"/>
<path class="st0" d="M613.8,44.3c-0.2,0.3-0.4,0.6-0.7,0.9c0.1,0,0.1,0.1,0.2,0.2c0.2-0.3,0.5-0.5,0.7-0.8
	C614,44.4,613.9,44.4,613.8,44.3L613.8,44.3z"/>
<path class="st0" d="M637,24.1c1.6,0.9,0.9-1.1,0.2-1.7c0.8-2,2.6-3.1,3.5-5c0.7,1.3,2.6-0.2,1.8,1.5c0.6,0,1,0,1.7,0.1
	c-0.6-1.3-0.5-2.4-2.1-2.1c5.3-5.8,11-11.5,17-17h-2.5c-7.2,6.6-14.1,13.4-20.6,20.5c-1.2-0.6-2-0.6-3.2,0.2c1-1.9,2.8-3.1,3.9-5
	c-1.5,0.9-2.2,2.5-3.5,3.5c-0.3-0.4-0.6-0.8-1-1.3c-0.4,0.4-0.7,0.7-1,1c1.6,2-1.4,3.6,3.1,3.2c-0.2,2-1.8-0.5-2.3,2.2
	c-4.9,7.1-12.2,16.3-18.1,24.3C620.6,48.8,629.6,24.6,637,24.1L637,24.1z"/>
<polygon class="st0" points="598.4,67.1 598.4,67.1 598.4,67.1 "/>
<path class="st0" d="M600.1,68.2c1.2,0.3,2.2,0.7,2.8-0.8C601.8,67.2,600.6,66.9,600.1,68.2z"/>
<path class="st0" d="M599.9,64.3L599.9,64.3c0.1-0.2,0.2-0.4,0.3-0.6c-0.4-0.1-0.4,0.2-0.6,0.5C599.7,64.2,599.8,64.3,599.9,64.3z"
	/>
<path class="st0" d="M602.2,61.5c0.5-0.7,0.8-1.4,1.2-2.1c-0.8,0.2-1.3,1.4-1.9,2C601.8,61.4,602,61.4,602.2,61.5z"/>
<path class="st0" d="M612.2,33.8L612.2,33.8C613.4,32.5,611.7,32.4,612.2,33.8z"/>
<path class="st0" d="M598.4,67.1c-0.8-0.2-1.1,0.3-1.6,0.9C597.6,68.3,598,67.8,598.4,67.1z"/>
<path class="st0" d="M599.7,55.9c0.6,0.3,1.2,0.5,1.7,0.4l0,0c0.6-0.9,1.2-1.8,1.8-2.6C601.3,52.9,600.7,54.4,599.7,55.9L599.7,55.9
	z"/>
<path class="st0" d="M610.4,35.9c-0.4,0.2-0.6,0.4-0.4,1.2c0.3-0.5,0.5-0.7,0.7-1C610.6,36,610.5,36,610.4,35.9z"/>
<path class="st0" d="M605,64.4c-0.8-0.1-1.9-0.8-2.3,0.2l0,0C603.4,64.5,604.6,65.3,605,64.4z"/>
<path class="st0" d="M648.9,0h-3.2c-15,14.4-28.6,30.2-40.3,47.5C618.5,31.3,633,15.2,648.9,0L648.9,0z"/>
<path class="st0" d="M605.5,73.4c-0.6-0.1-1.2-0.6-1.6,0h0c-0.3,0.3-0.6,0.6-0.9,0.9C604.2,74.7,604.9,74.6,605.5,73.4L605.5,73.4z"
	/>
<path class="st0" d="M607.9,60.2c-1.7-0.8-2.4,0.1-3.3,1.5c0.6,0,1.2,0.3,1.8,0.6C606.9,61.7,607.4,61,607.9,60.2L607.9,60.2z"/>
<polygon class="st0" points="653.8,76.5 653.8,76.5 653.8,76.5 "/>
<path class="st0" d="M490.1,62.1c-1.1,0.6-0.4,1.2,0.4,1.8C490.9,63,491.3,62,490.1,62.1z"/>
<path class="st0" d="M496.6,65.6c0.7-1.1,4.1-2,1.9-3.4c-1-0.5-1.1,1.1-2.1,1.1C495.5,63.6,494.9,66.4,496.6,65.6L496.6,65.6z"/>
<path class="st0" d="M493.8,64.1L493.8,64.1c-0.1,0-0.3,0-0.5,0c0,0.1,0,0.2,0,0.3c0.2,0,0.3-0.1,0.5-0.1L493.8,64.1L493.8,64.1z"/>
<path class="st0" d="M485.4,62.8c-1-0.6-1.3,0.9-0.4,1.3C485.7,63.4,485.8,63.2,485.4,62.8z"/>
<polygon class="st0" points="479.8,66 479.8,66 479.8,66 "/>
<path class="st0" d="M479.8,66c3.8-1,9.6-0.7,12.4-2.2c-5.6,0.6-11.6,1-16.9,2.5C476.9,66.4,478.3,66,479.8,66L479.8,66z"/>
<path class="st0" d="M399.7,80.9c-0.4-0.2-0.7,0-1.1,0.5c0.5-0.1,0.8-0.2,1.1-0.2C399.8,81.1,399.8,81,399.7,80.9L399.7,80.9
	L399.7,80.9z"/>
<path class="st0" d="M462,61c-0.4-0.4-0.7-0.2-1.1,0C461.3,61.6,461.7,61.6,462,61z"/>
<path class="st0" d="M456,62.4c0.6-0.2,1-0.3,1.4-0.4c0-0.1-0.1-0.2-0.1-0.3l0,0C456.8,61.7,456.3,61.6,456,62.4L456,62.4z"/>
<path class="st0" d="M431.9,68.9l0.1-0.2c-0.5,0.1-0.9,0.2-1.3,0.3c0,0.1,0,0.2,0.1,0.3C431.5,69.3,431.6,69.3,431.9,68.9
	L431.9,68.9z"/>
<path class="st0" d="M397.5,89.8c2.6-0.4,4.9-1.6,7.2-2.8c0.1-0.1,0.3-0.2,0.5-0.2C402.3,87,399.9,88.4,397.5,89.8L397.5,89.8z"/>
<path class="st0" d="M412.3,84.2c1.5-0.6,2.9-0.5,3.9-1.7C415,82.5,412.9,83.4,412.3,84.2z"/>
<path class="st0" d="M484.3,58.6c0.4,0.6,1.1,1,1.6,0.3l0,0c0.5-0.7-0.4-1.1-0.9-1.3v0C484.7,57.9,484.5,58.2,484.3,58.6L484.3,58.6
	z"/>
<path class="st0" d="M406.2,86.5c1-0.3,2.2-0.4,2.9-1.3C408,85.4,407,85.7,406.2,86.5z"/>
<path class="st0" d="M487.8,70.5c0.1,0.4,0.3,0.8,0.4,1.2C488.5,71.1,488.4,70.7,487.8,70.5z"/>
<path class="st0" d="M418.1,81.4c0.9,0.7,2.4-0.3,3.4-0.7l0,0c2-1.3,5-1.3,6.6-2.9C424.6,78.6,421.2,80.1,418.1,81.4z"/>
<path class="st0" d="M470.8,67.4l3-0.4C472.9,66.7,471.9,66.6,470.8,67.4z"/>
<path class="st0" d="M453.3,70.1c-5.2,0.8-10.6,2.7-15.6,4.5c0.5,0,0.8,0.1,1.1,0l0,0C443.4,72.8,449.4,72.2,453.3,70.1L453.3,70.1z
	"/>
<path class="st0" d="M466,69.2c-3.6-2.2-8.3,0-11.9,1c2-0.2,3.9-0.6,5.8-1C461.2,70.1,464.5,69.6,466,69.2L466,69.2z"/>
<path class="st0" d="M431.7,77c1.2-0.3,2.5-0.7,3.6-1.4C433.8,75.5,432.6,75.9,431.7,77z"/>
<path class="st0" d="M478.2,72c-1,0.1-0.6,1.8,0.3,1.5l0,0C479.4,73.2,479.1,71.7,478.2,72z"/>
<polygon class="st0" points="504,49.2 504,49.2 504,49.2 "/>
<path class="st0" d="M486.6,52.5L486.6,52.5C487.7,54.5,488.7,51.2,486.6,52.5z"/>
<path class="st0" d="M489.2,49.5L489.2,49.5c-0.1-0.3-0.4-0.5-0.7-0.7c-0.2,0.3-0.5,0.6-0.7,0.8c0.3,0.2,0.6,0.4,1,0.8
	C489,50,489.3,49.7,489.2,49.5L489.2,49.5z"/>
<path class="st0" d="M504.2,46.7l-0.9,0.1c-0.1,0.8-0.6,2.8,0.6,2.5C504.7,48.5,504.4,47.7,504.2,46.7z"/>
<polygon class="st0" points="485.3,53.1 485.3,53.1 485.3,53.1 "/>
<path class="st0" d="M485.5,49.2c-0.3,0.5-0.5,0.9-0.7,1.2c-0.1-0.3-0.2-0.6-0.3-0.9c-1.6,1.7-0.8,3.6,0.8,3.6
	c0.5,0,0.9-0.4,1.4-0.6c0.6-0.7,1.5,0,1.1-1.7C486.5,50.9,486.2,50.2,485.5,49.2z"/>
<path class="st0" d="M516.2,47.6c-0.4,0.4-0.7,0.7-1,1c0.6,0.5,1.7,0.8,1.9,0.1l0,0C517.3,48,516.7,47.9,516.2,47.6L516.2,47.6z"/>
<path class="st0" d="M530.2,48.8c-0.7-0.5-1,0.5-0.5,1C530.3,49.5,530.5,49.3,530.2,48.8z"/>
<path class="st0" d="M494.5,57.3c0.1,0.3,0.2,0.6,0.4,1c0.3-0.2,0.5-0.3,0.7-0.5C495.4,57.2,495.1,56.9,494.5,57.3L494.5,57.3z"/>
<polygon class="st0" points="520.9,46 520.9,46 520.9,46 "/>
<path class="st0" d="M520.9,46c-0.2-0.9-1.7-0.4-1.3,0.6C520,47.2,520.9,46.9,520.9,46z"/>
<path class="st0" d="M401.2,73.9c1,0,0.8-1.7-0.2-1.4C400.1,72.5,400.2,74.1,401.2,73.9z"/>
<path class="st0" d="M396.9,74.5c-0.7,0.3-1.3,0.5-1.9,0.8C396.1,75.4,396.5,75.2,396.9,74.5z"/>
<path class="st0" d="M389,78.5c0.4-0.2,0.7-0.3,1.1-0.5C389.6,77.6,388.6,77.9,389,78.5z"/>
<path class="st0" d="M479.5,53.3c-0.1,0,0,0.3-0.1,0.6c0.5-0.1,1-0.2,1.5-0.4C480.4,52.9,479.9,53,479.5,53.3L479.5,53.3z"/>
<path class="st0" d="M412.9,71.7c0.5-0.3,0.3-0.7-0.1-1.1C411.9,70.8,411.9,72,412.9,71.7z"/>
<path class="st0" d="M433.3,61c0.4,0.5,0.9,0.8,1.3,1.3l0,0C437.2,64,434.6,58,433.3,61z"/>
<path class="st0" d="M422.5,66.8c0.2-0.5,0.4-0.9,0.6-1.3h0c0.1-0.3,0.4-1,0.6-1.3C422.4,64.4,422.1,65,422.5,66.8L422.5,66.8z"/>
<path class="st0" d="M420.7,66.9c0.6-0.5,0-1.3-0.5-1c-0.5,1.2-1.8,0.5-2.3,1.7C419.4,68.2,419.9,67.8,420.7,66.9z"/>
<path class="st0" d="M417.6,65.3L417.6,65.3c0,0,0.1,0,0.4,0.1c0.1-0.3,0.2-0.6,0.4-1C417.2,63.6,416.5,64.3,417.6,65.3z"/>
<path class="st0" d="M609.8,79.1c-5.4-0.4-8.6,5.1-11.5,10.9h54.6C638.8,85.3,624.5,81.5,609.8,79.1L609.8,79.1z"/>
<path class="st0" d="M641.6,0.2L641.6,0.2l-0.2-0.1c-0.2,0.2-0.4,0.4-0.6,0.7c0.1,0.1,0.2,0.1,0.3,0.2
	C641.3,0.7,641.5,0.4,641.6,0.2z"/>
<path class="st0" d="M633,2.6c-1.1-0.5-0.9-1.3-0.6-2.3c-2-0.5-4.2,1-2.2,2.9C626.3,6.1,633.2,5.6,633,2.6z M631,2.1l0.7,0.1
	l-0.1,0.7l-0.7-0.1L631,2.1z"/>
<path class="st0" d="M667.6,90c-11.4-4.4-23.3-8.1-35.1-11.5c-5.7-1.2-11.3-2.7-17.1-3.4c-2.4,0.7-5.8-3-7.1,0.1
	c18.7,2.8,37.1,8.3,55,14.9L667.6,90L667.6,90z"/>
<path class="st0" d="M608.7,68.7c-0.9-0.2-1.7-0.7-2.1,0.5l0,0C607.4,69.3,608.3,69.8,608.7,68.7L608.7,68.7z"/>
<polygon class="st0" points="597.7,58.8 597.7,58.8 597.7,58.8 "/>
<path class="st0" d="M596.2,60.8c1.8,1.1,2.4-0.5,3.4-1.8c-0.7,0-1.3-0.1-1.9-0.2C597.2,59.4,596.7,60.1,596.2,60.8z"/>
<path class="st0" d="M593.1,55.4c0.5,0.2,1.2,0.3,1.8,0c1.2-0.2,1.9-0.2,2.2-1.5c0.6,0.3,1.1-0.1,1.5-0.7c-1.4-0.2-2.9-0.5-4.2-0.7
	C594.1,53.6,593.6,54.5,593.1,55.4z"/>
<path class="st0" d="M590,59.9c0.9,0.3,1.9,0.3,2.9,0.4c0.4-0.7,0.9-1.4,1.4-2.1C592.2,57.9,590.8,57.6,590,59.9z"/>
<path class="st0" d="M591,63.1c0.1-0.1,0.1-0.2,0.2-0.3c-0.4-0.1-0.8-0.2-1.2-0.3h0c0,0.1,0,0.2-0.1,0.3
	C590.3,62.9,590.7,63,591,63.1L591,63.1z"/>
<polygon class="st0" points="592.9,60.3 592.9,60.3 592.9,60.3 "/>
<path class="st0" d="M655.5,68.5c0.1,0.3,0.1,0.5,0.4,0.6C655.8,68.9,655.8,68.5,655.5,68.5z"/>
<path class="st0" d="M444.7,80.3L444.7,80.3c-0.5-1.1-1.3-0.4-1.8,0.4C443.8,81.3,444.8,81.6,444.7,80.3L444.7,80.3z"/>
<path class="st0" d="M666.9,73.1c0.2,0.1,0.3,0.3,0.5,0.4l0.2-0.3C667.4,73.1,666.9,72.7,666.9,73.1z"/>
<path class="st0" d="M585.1,66.7c1.1,0.1,2.2,0.3,3.3,0.1l0,0c0.2-0.3,0.4-0.5,0.6-0.8C587.4,66.1,585.8,64.8,585.1,66.7L585.1,66.7
	z"/>
<path class="st0" d="M673.8,75.5c-0.8-0.4-1.5-0.6-2.1-0.9l-0.1,0.3C672.1,75.4,672.7,76,673.8,75.5L673.8,75.5z"/>
<path class="st0" d="M639.1,64.2c0.2,0.1,0.5,0.1,0.7,0.2c0-0.1,0-0.2,0.1-0.3l-0.7-0.1L639.1,64.2L639.1,64.2L639.1,64.2z"/>
<path class="st0" d="M672.9,0c-6.2,5.1-12.1,10.4-17.9,15.9c-1.5-2.1-1.6-0.9-3.3,0c0.7-0.9,1.4-1.7,2.2-2.6c0.5,1.2,1.8-0.2,2-0.9
	c-0.2-0.4-0.5-0.5-0.9-0.5c3.7-4.2,7.7-8.2,11.9-12h-1.5c-8.6,7.5-16.8,15.4-24.3,23.8c-0.5-0.3-1-0.5-1.5-0.8
	c-0.8,1.1-0.8,1.2,0.4,1.9c-2.1,1.9-3.3,5-6,6c0.5-0.8,1.1-1.6,1.6-2.4c-2.2-1.6-5.8,2.9-3.7,4.7c1,0.8-3.9,6.8-5.1,7.1
	c-1.8,3.4-4.3,6.7-6.8,9.8c6-1,8.7-15.6,15.7-14.7c0.4-0.5,0-0.8-0.2-1.1c-5.4,2.5,5.7-10,6.8-8.5c-0.2,1.2-0.8,1.6-2,1.9
	c0.6,2,0.3,2.9-1.5,4.2c0.4,0.1,0.7,0.2,1.1,0.3c-4.7,6.3-9.8,12.4-14.6,18.8c26,5.4,50.8,15,75.4,24.9c8.7,3.1,18.5,7.2,27.3,11.5
	V0H672.9L672.9,0z M650.4,15.3c0.4,1.6,0.6,2.5,2.3,2.6C644.1,29.8,638.8,25.4,650.4,15.3z"/>
<path class="st0" d="M653.4,68.4c0.3,0.5,0.4,0.4,0.8,0.2C654.1,68.1,653.9,68.3,653.4,68.4z"/>
<path class="st0" d="M642.8,64.9c-0.4-0.1-0.8-0.2-1.3-0.3C641.7,65.5,642.3,65.2,642.8,64.9z"/>
<path class="st0" d="M649.4,67.4c0.9,0.2,1.6,0.3,2.3,0.5C651.6,67,650,67.1,649.4,67.4z"/>
<path class="st0" d="M655.9,69.1C655.9,69.1,655.9,69.1,655.9,69.1L655.9,69.1L655.9,69.1L655.9,69.1z"/>
<path class="st0" d="M576.1,54c0.3,0.1,0.5,0.1,1.1,0.2c-0.3-0.3-0.4-0.4-0.5-0.6c-0.2,0.1-0.4,0.1-0.5,0.2
	C576.1,53.9,576.1,54,576.1,54z"/>
<path class="st0" d="M575.8,61.5l0.7,0.1c0-0.1,0-0.2,0-0.2l-0.7-0.1C575.8,61.3,575.8,61.4,575.8,61.5L575.8,61.5L575.8,61.5z"/>
<path class="st0" d="M565,60.6c0,0.1,0,0.2,0,0.2c2.6,0,5.5,0.9,8,0.4l0-0.2c-0.3,0-0.6-0.1-1-0.1C569.6,61.1,567.3,59.8,565,60.6
	L565,60.6z"/>
<path class="st0" d="M567.2,53.5c0.4,0,0.8,0,1.1-0.1c0-0.1,0-0.2,0-0.3C567.9,53.1,567.5,52.9,567.2,53.5L567.2,53.5z"/>
<path class="st0" d="M551.4,60.3c-0.1,0.2-0.2,0.4-0.3,0.5c0.8,0.4,1.9-0.1,2.2,1.4c0.5-1,0.4-1.7,1.5-1.6c0-0.1,0-0.1,0-0.2
	c-0.6,0-1.2,0.1-1.9,0.1c0.3-0.5,0.6-0.9,0.8-1.3c-0.8-0.9-2,0.5-2.1,1.2v0C551.6,60.3,551.4,60.3,551.4,60.3L551.4,60.3z"/>
<path class="st0" d="M535.2,61.2v-0.2c-1.5-0.3-3.2-0.2-4.8-0.3c-0.7,0-1.2,0-1.3-0.8c-0.5-1-1.5-0.1-1.2,0.8
	c-0.5,0.1-0.9,0.4-1.2,0.8C529.5,61.2,532.4,61.7,535.2,61.2L535.2,61.2z"/>
<path class="st0" d="M521.8,73.1c0.7,0.3,0.7,1,0.7,1.6c1.1-0.3,2-1.3,0.7-1.8l0,0C522.6,72.7,522,72.2,521.8,73.1L521.8,73.1z"/>
<path class="st0" d="M546.3,59.8c-0.3,0.3-0.6,0.5-1,0.8l0,0c1.9,0.4,3.3,0.1,5.2-0.1C549.1,59.8,547.5,60.8,546.3,59.8z"/>
<path class="st0" d="M536.3,61.2c2-0.2,4.1-0.1,6.1-0.4c0-0.1,0-0.2,0-0.3c-0.3,0-0.7,0-1.1-0.1c0.4-1.4,0.2-1.6-1.3-1.3l0,0
	c0,0.4,0,0.8,0,1.2C538.8,60.7,537.2,60.4,536.3,61.2L536.3,61.2z"/>
<path class="st0" d="M495,75.2c0,0.2-0.1,0.4-0.1,0.6c0.2,0.1,0.2-0.3,0.4-0.5l0,0C495.2,75.2,495.1,75.2,495,75.2L495,75.2z"/>
<path class="st0" d="M585.3,54.4c-0.1,0.1-0.2,0.2-0.4,0.4c0.1,0.1,0.2,0.2,0.3,0.2c0.1-0.1,0.2-0.3,0.3-0.4
	C585.5,54.6,585.4,54.5,585.3,54.4L585.3,54.4z"/>
<path class="st0" d="M543.6,48.5c0.2-0.4,1.6-2.1,0.3-1.9l0,0l-0.1,0l0,0c-0.1-0.3-0.2-0.7-0.4-1c0.1,0.2,0,1.1,0.4,1
	c-0.1,0.2-0.2,0.4-0.1,0.7l-1.6,0.3C542.6,47.8,543.1,48.1,543.6,48.5L543.6,48.5z M543.9,46.6L543.9,46.6L543.9,46.6z"/>
<path class="st0" d="M522,54.2c0.5,0.1,1,0.3,1.5-0.3C523.1,53.8,522.3,53.8,522,54.2z"/>
<path class="st0" d="M677.3,77c0.7,0.3,1.2,0.5,1.8,0.8C678.5,77,678.2,76.8,677.3,77z"/>
<path class="st0" d="M444.6,85.1L444.6,85.1c0,0.1,0.1,0.2,0.1,0.3c0.2-0.1,0.4-0.2,0.6-0.2c0-0.1,0-0.1-0.1-0.2
	C445,85,444.8,85.1,444.6,85.1L444.6,85.1z"/>
<path class="st0" d="M0.2,90H360c6.4-3.7,13.3-6.7,19.7-10.4c5.7-3.1,12-5.1,17.8-7.9c2.4-0.2,5.3-3.6,7.2-1.6
	c0.2-0.3,0.3-0.5,0.4-0.7c-0.4-0.1-0.9,0-0.8-0.4c2.1-0.5,2.5,1.8,3.6,3.2c14.3-8.6-12.6,0.5,11.3-8.8c-0.2,0.6,0.5,0.7,1.2,0.4
	c-0.5-0.2-0.8-0.3-1.1-0.4c16.1-5.5,33.7-11.8,50.4-12.1c2.4-3.3,2.5,2.5,3.5,3.5c2.3,0.9,1.5-2.3,1-3.5c1.5-2.2,7-1.6,9.8-2.5
	c0-0.1,0-0.1-0.1-0.2c5.1-1,11-1.6,16.5-1.9c4.6,0,10.7-2.5,14.6,0.1c0.8-0.2,0.9-0.7,0.7-1.4c4.9,0,9.9-1,14.7-0.8
	c-1.8,1.1-4,4.6-0.3,2.7c0.8,1.1,0.1,2.5,0.7,3.7c-6.3,0.1-12.7,1.1-18.9,1.2c-0.4-0.7-0.7-1-1.3-0.6c-2,2.1-4.4-1.9-5.9,0.2
	c-0.6,1.3-2.3-0.3-2.8,1.2c-0.4,0.6-0.5,0.7-1.1,0.2c1.6-1.5,0.5-3.6-1.2-1.6h0.1l0.2,1c0,0-0.4,0-0.4,0.1c0-0.1-0.5,0-0.6,0
	c-0.2-1.3-1.3-3-2.7-1.6c1.4,0.7,0.9,1.8,0,2.6c-1.7,0.2-3.5,0.6-5.2,0.6c-2.2-0.3-4.4,1-6.8,0.5c0.1-1.5-0.8,0-1.2,0.4
	c-0.6,0.5-2.2-0.6-2.2,0.5c-6.5,2.4-2-4-5.7-1.2c0.6,0.6,1.7,0.8,1.4,2.1c-3.5-0.5-6.5,1-9.8,1.3c-0.7-0.9-1.7,0.1-2.5-0.3
	c-0.8,1.1-2.3,0.4-3.2,1.3c-3.1,0-6.5,0.8-9.5,1.9c-3.8-0.4-7.4,2-11.1,2.7c-2.1,0.7-4.9,1.1-6.9,2.2c-9,2.3-17.6,6.4-26.7,9.4
	c-10.9,5.1-22.5,8.9-32.6,15.2h5.4c1.4-1.1,2.7-3,4.4-2.3c1.4-1,3.1-2.2,4.7-2.9c1.2,0.9,1.6-0.9,2.6-0.7c2.5-1.9,5.4-2.4,8.2-3.8
	c1.2-1,3.5-0.1,4.8-1.2c-0.4,0-0.7-0.1-1.2-0.1c0.9-0.6,1.1-0.7,2.1-0.4c0.5-0.9,1.5-0.8,2.5-0.8c-0.1-0.2-0.2-0.4-0.3-0.6
	c0.8-0.2,1.3-1.3,2.4-0.8c-0.3,0.3-0.5,0.5-0.8,0.8c0.8-0.1,0.8-0.1,1.5-0.9c1.6,0.9,0.7-1.3,0.7-1.9l4-0.7l0.1,0.9
	c0.6-0.6,3.4,0,2.6-1.4c1-1,2,0.6,2.8-0.5c-0.2-0.2-0.4-0.3-0.5-0.4c0.7-0.3,1.4-0.6,2.1-0.9c0.1,0.1,0.2,0.3,0.3,0.5
	c-0.1,0-0.3,0.2-0.4,0.2c0.1,0.3,0.5,0.1,0.6-0.1c0,0,0,0,0,0c0.8-0.7,3,0.3,2.3-1.5c1.7-1,3.3,0.2,4.7-1.3c1.4-0.6,2.5-1.5,4.1-1.2
	c0.9-1.5,2.5-0.1,4-0.6c-0.1-0.4-0.2-0.6-0.2-0.9c1.6-0.8,3.7-0.7,5.4-1.4c0,0.1,0.1,0.2,0.1,0.2c-0.3,0.1-0.6,0.3-0.9,0.4
	c1.1,0.4,1.7-0.1,1.9-1.1c0.8-0.7,1.9-0.1,2.6-0.9c0.1-0.1,0.6,0.2,0.8,0.3c-0.1,0.1-0.1,0.2-0.4,0.6c0.8-0.2,1.4-0.4,2-0.5
	c0-0.1,0-0.2,0-0.2c-0.2,0-0.5-0.1-0.8-0.2c1.4-0.9,3.4-1.3,5-1.2c0.5,0.4,0.9,0.1,1.2-0.1c2.7-1.5,6.1-1,8.9-1.9
	c-0.1,0.2-0.2,0.3-0.3,0.5c1.1,0.6,1.6-0.9,2.5-1.1c1.3-0.1,1.4,1.3,2.8,0c-0.5-0.1-0.9-0.1-1.3-0.2c1.4-0.8,1.2,0.5,2.3,0.3
	c1.1-0.7,1.1-0.7,2.1,0.2c1.1-1.1,2.2-1.4,3.9-1.5c-0.1,0.2-0.2,0.2-0.4,0.4c0.2,0.1,0.4,0.3,0.6,0.4c0.2-0.2,0.4-0.4,0.6-0.7
	c0.2,0.2,0.4,0.4,0.6,0.7c0.6-0.3,1.3-0.7,2-1c0,0.1,0,0.3,0,0.5c1.4,0.5,2.7-0.3,4.1-0.7c-0.7-0.5-1.2,0-1.8-0.2
	c1-0.3,1.9-0.5,2.8-0.8c0,0,0,0.1,0,0.1c-0.2,0.1-0.5,0.2-0.9,0.3c0.6,0.1,1.2,0.5,1.5,0.1c0.6-1.1,2.5,0.5,3.7,0
	c-0.1-0.9-0.7-0.6-1.2-0.7c1.3,0,2.5-0.3,3.7-0.7c-0.2,0.2-0.4,0.4-0.7,0.6c1.1,0,2.2,0,3.4-0.1c-0.2-0.2-0.3-0.3-0.6-0.6
	c0.3,0,0.6-0.2,0.7-0.1c1.2,1.1,2.9-1.5,3.5,0.8c0.3,1.1,2,0.1,1.3-0.7c-0.7-1.6,1.2-0.6,1.9-0.5c0.6-0.2,1-0.2,1.5,0.4
	c0.4,0.5,0.6,0.4,1-0.4c6.3,4.2-19.4,3.4-21.7,4.9c-18,2.1-37,6.3-53.3,11.7c-0.9,1.1-2.5,0.9-3.8,1.5c-0.3-0.2-0.2-1.1-1-0.8
	c-10.9,7.1-25.5,10.8-38.3,17.1h4.5c7.9-3.6,16-6.9,24.1-9.7c28.4-12.7,59.8-18,90.5-20.3c-0.1,0.3-0.2,0.6-0.4,1.1
	c0.6,0,1.1-0.1,1.7-0.1c-0.1,0.4-0.2,0.8-0.3,1.3c-0.5-0.2-0.9-0.3-1.6-0.5c0.2,0.6,0.5,1.1,0.7,1.6c-0.6-0.4-1.1-0.6-1.6-0.9
	c-0.4,0.8,0.6,1.2,0.4,1.9c-3.8-1.2-3.5,2.1-7,2.4c-12.1,0.8-24.4,3.6-36.7,5.2c-18.6,4.6-37.6,10.4-55.7,18.1h5.2
	c1.1-0.4,2.1-0.9,3.2-1.3c-0.1,1.1,1,1.2,1.2,0.2c0.3-0.8,0.5-1,1.4-1c2.3-0.2,4-2.1,6.3-2.5c5.1-2.5,2.6,2.6,5.4-0.9
	c-0.3-0.1-0.6-0.2-1-0.2c3-3,8.2-2.6,11.9-4.7c8.4-2.7,16.9-5.4,25.7-6.4c7.4-2.2,15.7-1.8,23.1-3.8c2.9-1.9,4.9,3.3,7.1,0.1
	c0.5,0.3,1,0.6,1.6,0.9c0.1-1.3,1.1-1.2,2-1.5c0,1.4,1.6,0.9,2.1,2c-1.3,2.9-5.7,1.5-8.4,2.3c-4.4-0.3-8.4,1.8-12.7,1.6
	c-8.3,1.8-17.3,2.4-25.6,4.5c-7.3,1.7-13.9,4.9-21.1,6.5l0,0.1c-3.2,1.3-6.7,2.8-10.2,4.2h3.5c0.9-0.2,1.8-0.2,2.6,0h136.4
	c2.9-5.2,5.9-10.4,9-15.4c-16-1.6-31.9-0.5-48,0.3c-3.7-0.3-7.9,1.6-11.1-0.4c0.2-1,0.3-1.1,1.8-0.5c0.2-0.6,0.2-1.2,0.2-1.8
	c12.7-1.6,25.3-1.5,39-2.2c5.5-0.9,18.1,2.7,21.2-0.3c-16.3-1.7-32.2-0.6-48.5-0.2c-0.1-0.4-0.2-0.7-0.4-1.2
	c-0.9,0.2-1.8,0.1-1.9,1.3c-4.7,0.4-10.2,0.6-15.2,1.2c-2.3-0.5-5.9,2-7.4-0.2c0.3-0.1,0.5-0.1,1-0.2c-1.5-0.8-0.4-1.9-1.7-2.8
	c3.8,0,10.8-3,12.8,0.8c0.8-0.1,1.9-0.1,1.9-1.2c0.4,0.1,0.9,0.2,1.4,0.2c-1.5-2.6,16.4-1.8,18.8-2.1c13.9-1.9,29.2,0.8,42.4-0.4
	c-25.3-2.3-50.8-1.2-75.9,1.7c-0.1-1.4,7.3-4.6,7.9-2.6c1.2-1.7,4-0.6,5.8-0.9c2.5,0.2,5-0.8,7.6-1l0-0.3c-4-0.5-9.9,1.8-13.2-0.2
	c-1,2-2.7,0.4-4.3,0.4c3.3-4.7,11.6-1.7,16.7-3.2c2.3-0.4,4.6-0.2,7-0.6c0.5,0.4,0.2,1.4,1.1,1.2c2.4-1.8,8.1-2.2,11-0.8
	c1,0.4,0.4-1.3,1.5-0.7c-0.1,0.3-0.3,0.6-0.4,0.9c0.9,0.4,2.5-1.3,3.9-1.1c-2,2.6,2.8,1.8,4.2,2.5c-0.6-4.8,6-1.4,8.5-2.9
	c0.1,0.1,0.1,0.2,0.2,0.3c-1.1-0.3-2,1.1-2.1,2.2c-0.8,0-1.5-0.2-2,0.6c0.5,0.3,0.9,0.5,1.5,0.8c0.9-1.9,3.6,0.1,4.8-1.4
	c-1,0-1.9,0-3,0c0.3-0.9,1.2-1.4,1-2.2c6.3-1.5,20.5,4,23.7-0.8c-7.5-1-16.1,0.2-22.9-2.5c-2.2,2-6,0.5-8.8,1.1
	c-2.3,0.3-4.5,0.1-4.4-2.7c0.1,0,0.2-0.1,0.3-0.1c1.9,4.6,3.1-1.7,6.6-0.2c-0.2,0.2-0.3,0.3-0.4,0.4c0.5,0.5,1.5,0,2.1,0.5
	c1.2,1.1,2.3-0.7,3.6-0.2c0.7,0.2,1.2-0.2,1.3-0.6c0.4-1.2,2.2-0.7,2.3,0.3c0.6-0.1,1.3,0.2,1.7-0.5l3.5,0.2c0.2,1,0.8,0.5,1.3,0.3
	c0.9-0.1,1.7,0,2.3,0.5c1-0.6,1.7-0.7,2.7,0.3c1-1.2,1.6,0.1,2.8-0.8c0.5,0.4,1.1,1.1,1.7,0.5c1.5-0.4,3.3,0.1,4.7,0.7
	c-0.4-0.1-0.8-0.2-1.2,0c0.5,0.6,0.9,0,1.3,0l0,0c0,0,0,0,0,0l0,0l0,0c0,0,0,0,0,0c0,0,0,0,0,0c0.5-0.3,0.9-0.5,1.5-0.3
	c0.5-0.8,1.1-1.5,1.6-2.3c-11.6-1-23.6-2.7-35.2-1.8c-1.6-1.5-1.6-2.3,0.8-1.4c1.1-3.6-4.2-2.9-5.2-0.8c-0.5-0.5-0.9-1-1.4-1.5
	c-1.7,3.2-3.9,4.4-7.6,3.9c0.2-0.5,0.4-0.7,0.6-1c1.3,0.7,1.5,0.6,2.2-1c0-0.4-0.9-0.5-0.5-1.2c0.2,0.1,0.3,0.2,0.5,0.3l-0.3-1.6
	l1.9-0.3c-1.3-3.5,7.7-1.5,9.9-2c-0.1,0.5-0.2,0.8-0.4,1.4c5.1-2.8,10.9-0.9,16.5-1.1c2.7,0.5,0.5,1.3,4.5,0.4
	c11-0.7,17.9,6.5,23.8-6.2c8.9-13.3,21.3-29.2,31.6-37.9H0L0.2,90z M510.5,72.1c0.7,1.4-0.7,1.4-1.7,1.7c-2-0.3-1.5,2.9-3.2,1.7
	c0.2-0.2,0.4-0.4,0.6-0.6C499,74.2,507.2,71.3,510.5,72.1L510.5,72.1z M433.8,86.8c-0.4,0.3-0.7,0.1-1.1,0.1c0-0.2-0.2-0.2-0.3-0.3
	l0.3,0l-0.1-0.6l1-0.2l0.1,0.7c0,0,0.1,0,0.1,0L433.8,86.8L433.8,86.8L433.8,86.8z M442.7,86.9c-2.4,1.6-5,1.5-7.5,2.8
	c0.5-1.4,1.9-0.6,2.1-2.9c-4.4-0.8,3.6-2.8,5.2-3.2c0.1,0.5,0.1,1-0.5,0.8c-0.8-0.2-1.5,0.2-2.2,0.3C440.2,86.4,442,85.9,442.7,86.9
	L442.7,86.9z M501.2,74.3c0,0.7,0,1.4-0.1,2.3c-7,0.8-17.5,1.7-24.6,3.4c-10.9,1.3-21.7,3-32,6.4c-1.5-1.7-1.4-1.3,0.4-2.1
	c-1-3.6,11.9-4,14.8-5.4c11.1-1.5,23.2-4.8,34-4.5c1.5-1,3-1,4.7-1.3C498.2,74.9,500.2,75.8,501.2,74.3L501.2,74.3z M505.6,60.9
	L505.6,60.9c0-0.1-0.1-0.2-0.1-0.2h0c0-0.3-0.2-0.5-0.3-0.9c0,0,0.1,0,0.1-0.1v0c0.2,0,0.8-0.1,1-0.2l0.2,1
	C506.3,60.6,505.4,60.5,505.6,60.9L505.6,60.9z M507.7,56.2l-1,0.2l0-0.3c-0.1,0-0.3-0.1-0.5-0.2c0.1-0.2,0.2-0.3,0.4-0.4v-0.1
	l-1,0.2l-0.2-1l3-0.5l0.2,1l-1,0.2L507.7,56.2L507.7,56.2z M548.5,57.6c-0.2-0.1-0.3-0.1-0.5-0.2c1,0,1.7,0.1,2.5-0.1v0.1
	c0.1,0,0.2,0,0.3,0c-0.2,0.3-0.3,0.5-0.2,0.9l-3,0.4l-0.1-0.9L548.5,57.6z M535.2,44.6l0.7,4.9l-0.8,0.1c0,1.2-1.5,0.7-2.3,0.9
	c0-0.6,0.1-1,0.1-1.5l-0.6-4L535.2,44.6L535.2,44.6z M533.6,53.9c0.9,0.4,1.4-0.4,2.2-0.7c1.1,0.9,2,0.6,2.9-0.3v0
	c0.9,1.8,2.3-0.9,3.3,0.5c0.5,1.2,1.4,0,2.3,0.7c-0.4,3.9-5.5,1.1-8.4,2.5c-1.6,0.4-4.7-4.6-5.7-1.7c0.1,2.4-21.3,4.1-20.6,1.6
	c0.3-0.8,3.5-2.3,4.1-1.5c0.7,0.8,1.1,0.6,2.1,0.1c-0.5-0.1-0.8-0.1-1.4-0.2c1.4-0.6,2.9-0.9,4.5-0.8c-0.1,0-0.1,0-0.2,0.1
	c0.5,0.3,0.9,0.5,1.3,0.2l0,0c0-0.1-0.1-0.1-0.1-0.2c0.6,0.1,1.2,0.2,1.8,0.5v0c0-0.2,0.1-0.3,0.2-0.5c-0.1,0-0.2,0-0.2,0
	c0.9-1,3.4-0.1,4.9-0.6c-0.2,0.2-0.4,0.4-0.6,0.7C528.6,54.3,530.8,52.6,533.6,53.9L533.6,53.9z M407.3,67.8l1-0.2l0,0.2
	c0.3,0,0.5,0.5,0.1,0.5l0.1,0.3l-1,0.2L407.3,67.8L407.3,67.8L407.3,67.8z"/>
<path class="st0" d="M566.8,46.6c0.5,0.2,0.8,0.3,1.1-0.3C567.3,46.1,567,46.2,566.8,46.6z"/>
<path class="st0" d="M535.9,53.6c-0.2-0.3-0.2-0.4-0.7-0.1l0,0C535.5,53.7,535.6,53.9,535.9,53.6z"/>
<path class="st0" d="M527,54.6c-0.4,0.1-0.7,0.3-0.6,0.7C527,55.9,527.5,55.1,527,54.6z"/>
</svg>
