<?xml version="1.0" encoding="utf-8"?>
<!-- Generator: Adobe Illustrator 26.5.0, SVG Export Plug-In . SVG Version: 6.00 Build 0)  -->
<svg version="1.1" id="a" xmlns="http://www.w3.org/2000/svg" xmlns:xlink="http://www.w3.org/1999/xlink" x="0px" y="0px"
	 viewBox="0 0 728.2 90" style="enable-background:new 0 0 728.2 90;" xml:space="preserve">
<style type="text/css">
	.st0{fill:#FFFFFF;}
</style>
<g>
	<path class="st0" d="M687.1,88.7c1.1,0.4,2.1,0.8,3.2,1.3h1.9C690.5,89.2,688.8,88.3,687.1,88.7z"/>
	<path class="st0" d="M675.4,69L675.4,69L675.4,69z"/>
	<path class="st0" d="M668.5,66.1c0.4,0.3,0.8,0.5,1.2,0.4C669.3,66.4,669,66.3,668.5,66.1z"/>
	<path class="st0" d="M633.4,55.7c0.6,0.4,1.2,0.6,1.9,0.2C634.7,55.3,634.1,55.3,633.4,55.7z"/>
	<path class="st0" d="M638.6,56.5c0.6,0.5,1.1,0.7,1.6,0.5C639.5,56.8,639,56.7,638.6,56.5z"/>
	<path class="st0" d="M675.4,69c-0.2-0.2-0.3-0.2-0.6-0.2c-0.1,0.3,0.3,0.2,0.5,0.3C675.3,69.1,675.3,69,675.4,69L675.4,69z"/>
	<path class="st0" d="M708.3,88.9c0.6,0.1,1.1,0.6,1.2-0.1C709.1,88.6,708.8,88.5,708.3,88.9z"/>
	<path class="st0" d="M704.7,87.6L704.7,87.6c0.5,0.2,0.8,0.3,1.1,0.4C706.2,87.5,705.4,87.2,704.7,87.6z"/>
	<path class="st0" d="M727.9,90h0.3v-1C727.8,89.2,727.7,89.6,727.9,90z"/>
	<path class="st0" d="M710,90L710,90h1.2c-0.3-0.1-0.7-0.2-1-0.4C710.1,89.8,710,89.9,710,90L710,90z"/>
	<path class="st0" d="M628.4,69.2c-1.3-1.1-2.9-1.2-4.4-1.3l0,0l-0.1,0.3L628.4,69.2z"/>
	<path class="st0" d="M655.8,77l-0.1,0.2c1.3,0.7,2.7,1.2,4.1,1.5l0.1-0.3C658.6,77.8,657.3,77.2,655.8,77z"/>
	<path class="st0" d="M646.7,73.8c2,1.5,4.8,1.7,7.1,2.6c0-0.1,0.1-0.2,0.1-0.2C651.5,75.4,649.2,73.8,646.7,73.8z"/>
	<path class="st0" d="M614.7,66.3c-0.1,0.1-0.2,0.3-0.3,0.4c0.4,0.2,1,0.2,1.4,0.3c0-0.1,0-0.1,0-0.2
		C615.6,66.7,614.9,66.4,614.7,66.3L614.7,66.3L614.7,66.3z"/>
	<path class="st0" d="M645.7,73.5c0,0.1,0,0.2-0.1,0.2c0.3,0.1,0.5,0.2,0.8,0.2c0-0.1,0.1-0.2,0.1-0.2
		C646.2,73.7,645.9,73.6,645.7,73.5z"/>
	<path class="st0" d="M659.9,78.5L659.9,78.5L659.9,78.5z"/>
	<path class="st0" d="M676.4,84.5c-0.5-1.4-3.1-0.9-4.3-1.7c-3.3-1.5-7-3.9-10.6-3.8c1.2,0.8,2.6,0.9,3.8,1.5l0,0
		C669,81.8,672.4,84.2,676.4,84.5z"/>
	<path class="st0" d="M629.6,69.2c0,0.1,0,0.2-0.1,0.3c1.6,1,3.6,0.8,5.4,1.3c3.2,0.7,6.3,2.1,9.5,2.5
		C640,71.3,634.6,69.9,629.6,69.2L629.6,69.2z"/>
	<path class="st0" d="M616.4,67c1.1,0.3,2.2,0.3,3.4,0.5C619,66.6,618.6,66.5,616.4,67z"/>
	<path class="st0" d="M681,78.4c0.5,0.2,0.9,0.5,1.4,0.7C682.9,78.3,681.6,78.2,681,78.4z"/>
	<path class="st0" d="M682,86.7c-1.5-0.9-3.1-1.7-4.8-2C678.4,86.1,680.2,86.3,682,86.7z"/>
	<path class="st0" d="M594.6,63.2L594.6,63.2C594.5,63.2,594.5,63.2,594.6,63.2L594.6,63.2L594.6,63.2z"/>
	<path class="st0" d="M596.3,63.5L596.3,63.5c-0.5-0.3-1.1-0.5-1.7-0.3C595.2,63.8,595.5,63.9,596.3,63.5z"/>
	<path class="st0" d="M581.1,65.9L581.1,65.9L581.1,65.9L581.1,65.9L581.1,65.9z"/>
	<path class="st0" d="M581.1,65.9L581.1,65.9L581.1,65.9L581.1,65.9z"/>
	<path class="st0" d="M580.8,61.5c-0.4,0-0.7,0-1.1,0.1C580.1,61.6,580.6,62,580.8,61.5z"/>
	<path class="st0" d="M589.7,66L589.7,66L589.7,66C589.7,66.1,589.7,66,589.7,66L589.7,66L589.7,66z"/>
	<path class="st0" d="M598.4,67.1L598.4,67.1L598.4,67.1z"/>
	<path class="st0" d="M611.1,65.5c-1.2-0.2-2.3-0.6-2.8,0.8C609.6,66.6,610.6,66.9,611.1,65.5z"/>
	<path class="st0" d="M599.6,64.2c0.1,0,0.2,0,0.3,0l0,0c0.1-0.2,0.2-0.4,0.3-0.6C599.8,63.6,599.7,64,599.6,64.2z"/>
	<path class="st0" d="M605,64.4c-0.8-0.1-1.9-0.8-2.3,0.2l0,0C603.4,64.5,604.6,65.3,605,64.4z"/>
	<path class="st0" d="M653.8,76.5L653.8,76.5L653.8,76.5z"/>
	<path class="st0" d="M490.1,62.1c-1.1,0.6-0.4,1.2,0.4,1.8C490.9,63,491.3,62,490.1,62.1z"/>
	<path class="st0" d="M496.6,65.6c0.7-1.1,4.1-2,1.9-3.4c-1-0.5-1.1,1.1-2.1,1.1C495.5,63.6,494.9,66.4,496.6,65.6L496.6,65.6z"/>
	<path class="st0" d="M493.8,64.1L493.8,64.1c-0.1,0-0.3,0-0.5,0c0,0.1,0,0.2,0,0.3c0.2,0,0.3-0.1,0.5-0.1V64.1L493.8,64.1z"/>
	<path class="st0" d="M485.4,62.8c-1-0.6-1.3,0.9-0.4,1.3C485.7,63.4,485.8,63.2,485.4,62.8z"/>
	<path class="st0" d="M479.8,66L479.8,66L479.8,66z"/>
	<path class="st0" d="M479.8,66c3.8-1,9.6-0.7,12.4-2.2c-5.6,0.6-11.6,1-16.9,2.5C476.9,66.4,478.3,66,479.8,66L479.8,66z"/>
	<path class="st0" d="M399.7,80.9c-0.4-0.2-0.7,0-1.1,0.5c0.5-0.1,0.8-0.2,1.1-0.2C399.8,81.1,399.8,81,399.7,80.9L399.7,80.9
		L399.7,80.9z"/>
	<path class="st0" d="M462,61c-0.4-0.4-0.7-0.2-1.1,0C461.3,61.6,461.7,61.6,462,61z"/>
	<path class="st0" d="M456,62.4c0.6-0.2,1-0.3,1.4-0.4c0-0.1-0.1-0.2-0.1-0.3l0,0C456.8,61.7,456.3,61.6,456,62.4L456,62.4z"/>
	<path class="st0" d="M431.9,68.9l0.1-0.2c-0.5,0.1-0.9,0.2-1.3,0.3c0,0.1,0,0.2,0.1,0.3C431.5,69.3,431.6,69.3,431.9,68.9
		L431.9,68.9z"/>
	<path class="st0" d="M405.2,86.8c-2.9,0.3-5.3,1.6-7.7,3c2.6-0.4,4.9-1.6,7.2-2.8C404.9,86.9,405,86.9,405.2,86.8L405.2,86.8z"/>
	<path class="st0" d="M412.3,84.2c1.5-0.6,2.9-0.5,3.9-1.7C415,82.5,412.9,83.4,412.3,84.2z"/>
	<path class="st0" d="M484.3,58.6c0.4,0.6,1.1,1,1.6,0.3l0,0c0.5-0.7-0.4-1.1-0.9-1.3l0,0C484.7,57.9,484.5,58.2,484.3,58.6
		L484.3,58.6z"/>
	<path class="st0" d="M406.2,86.5c1-0.3,2.2-0.4,2.9-1.3C408,85.4,407,85.7,406.2,86.5z"/>
	<path class="st0" d="M487.8,70.5c0.1,0.4,0.3,0.8,0.4,1.2C488.5,71.1,488.4,70.7,487.8,70.5z"/>
	<path class="st0" d="M418.1,81.4c0.9,0.7,2.4-0.3,3.4-0.7l0,0c2-1.3,5-1.3,6.6-2.9C424.6,78.6,421.2,80.1,418.1,81.4z"/>
	<path class="st0" d="M470.8,67.4l3-0.4C472.9,66.7,471.9,66.6,470.8,67.4z"/>
	<path class="st0" d="M453.3,70.1c-5.2,0.8-10.6,2.7-15.6,4.5c0.5,0,0.8,0.1,1.1,0l0,0C443.4,72.8,449.4,72.2,453.3,70.1L453.3,70.1
		z"/>
	<path class="st0" d="M466,69.2c-3.6-2.2-8.3,0-11.9,1c2-0.2,3.9-0.6,5.8-1C461.2,70.1,464.5,69.6,466,69.2L466,69.2z"/>
	<path class="st0" d="M431.7,77c1.2-0.3,2.5-0.7,3.6-1.4C433.8,75.5,432.6,75.9,431.7,77z"/>
	<path class="st0" d="M478.2,72c-1,0.1-0.6,1.8,0.3,1.5l0,0C479.4,73.2,479.1,71.7,478.2,72z"/>
	<path class="st0" d="M504,49.2L504,49.2L504,49.2z"/>
	<path class="st0" d="M486.6,52.5L486.6,52.5C487.7,54.5,488.7,51.2,486.6,52.5z"/>
	<path class="st0" d="M489.2,49.5L489.2,49.5c-0.1-0.3-0.4-0.5-0.7-0.7c-0.2,0.3-0.5,0.6-0.7,0.8c0.3,0.2,0.6,0.4,1,0.8
		C489,50,489.3,49.7,489.2,49.5L489.2,49.5z"/>
	<path class="st0" d="M504.2,46.7l-0.9,0.1c-0.1,0.8-0.6,2.8,0.6,2.5C504.7,48.5,504.4,47.7,504.2,46.7z"/>
	<path class="st0" d="M485.3,53.1L485.3,53.1L485.3,53.1z"/>
	<path class="st0" d="M485.5,49.2c-0.3,0.5-0.5,0.9-0.7,1.2c-0.1-0.3-0.2-0.6-0.3-0.9c-1.6,1.7-0.8,3.6,0.8,3.6
		c0.5,0,0.9-0.4,1.4-0.6c0.6-0.7,1.5,0,1.1-1.7C486.5,50.9,486.2,50.2,485.5,49.2z"/>
	<path class="st0" d="M516.2,47.6c-0.4,0.4-0.7,0.7-1,1c0.6,0.5,1.7,0.8,1.9,0.1l0,0C517.3,48,516.7,47.9,516.2,47.6L516.2,47.6z"/>
	<path class="st0" d="M530.2,48.8c-0.7-0.5-1,0.5-0.5,1C530.3,49.5,530.5,49.3,530.2,48.8z"/>
	<path class="st0" d="M494.5,57.3c0.1,0.3,0.2,0.6,0.4,1c0.3-0.2,0.5-0.3,0.7-0.5C495.4,57.2,495.1,56.9,494.5,57.3L494.5,57.3z"/>
	<path class="st0" d="M520.9,46L520.9,46L520.9,46z"/>
	<path class="st0" d="M520.9,46c-0.2-0.9-1.7-0.4-1.3,0.6C520,47.2,520.9,46.9,520.9,46z"/>
	<path class="st0" d="M401.2,73.9c1,0,0.8-1.7-0.2-1.4C400.1,72.5,400.2,74.1,401.2,73.9z"/>
	<path class="st0" d="M396.9,74.5c-0.7,0.3-1.3,0.5-1.9,0.8C396.1,75.4,396.5,75.2,396.9,74.5z"/>
	<path class="st0" d="M389,78.5c0.4-0.2,0.7-0.3,1.1-0.5C389.6,77.6,388.6,77.9,389,78.5z"/>
	<path class="st0" d="M479.5,53.3c-0.1,0,0,0.3-0.1,0.6c0.5-0.1,1-0.2,1.5-0.4C480.4,52.9,479.9,53,479.5,53.3L479.5,53.3z"/>
	<path class="st0" d="M412.9,71.7c0.5-0.3,0.3-0.7-0.1-1.1C411.9,70.8,411.9,72,412.9,71.7z"/>
	<path class="st0" d="M433.3,61c0.4,0.5,0.9,0.8,1.3,1.3l0,0C437.2,64,434.6,58,433.3,61z"/>
	<path class="st0" d="M422.5,66.8c0.2-0.5,0.4-0.9,0.6-1.3l0,0c0.1-0.3,0.4-1,0.6-1.3C422.4,64.4,422.1,65,422.5,66.8L422.5,66.8z"
		/>
	<path class="st0" d="M420.7,66.9c0.6-0.5,0-1.3-0.5-1c-0.5,1.2-1.8,0.5-2.3,1.7C419.4,68.2,419.9,67.8,420.7,66.9z"/>
	<path class="st0" d="M417.6,65.3L417.6,65.3c0,0,0.1,0,0.4,0.1c0.1-0.3,0.2-0.6,0.4-1C417.2,63.6,416.5,64.3,417.6,65.3z"/>
	<path class="st0" d="M597.7,58.8L597.7,58.8L597.7,58.8z"/>
	<path class="st0" d="M590,62.6L590,62.6c0,0.1,0,0.2-0.1,0.3c0.4,0.1,0.7,0.2,1.1,0.3c0.1-0.1,0.1-0.2,0.2-0.3
		C590.8,62.7,590.4,62.7,590,62.6L590,62.6z"/>
	<path class="st0" d="M592.9,60.3L592.9,60.3L592.9,60.3z"/>
	<path class="st0" d="M655.5,68.5c0.1,0.3,0.1,0.5,0.4,0.6C655.8,68.9,655.8,68.5,655.5,68.5z"/>
	<path class="st0" d="M444.7,80.3L444.7,80.3c-0.5-1.1-1.3-0.4-1.8,0.4C443.8,81.3,444.8,81.6,444.7,80.3L444.7,80.3z"/>
	<path class="st0" d="M666.9,73.1c0.2,0.1,0.3,0.3,0.5,0.4l0.2-0.3C667.4,73.1,666.9,72.7,666.9,73.1z"/>
	<path class="st0" d="M587.6,62.8L587.6,62.8c0.2-0.3,0.4-0.5,0.6-0.8c-1.5,0.1-3.2-1.2-3.9,0.7C585.4,62.9,586.4,63,587.6,62.8
		L587.6,62.8z"/>
	<path class="st0" d="M671.7,74.6l-0.1,0.3c0.6,0.6,1.1,1.1,2.3,0.6C673,75.1,672.3,74.9,671.7,74.6L671.7,74.6z"/>
	<path class="st0" d="M639.1,64.1v0.2l0,0c0.2,0.1,0.5,0.1,0.7,0.2c0-0.1,0-0.2,0.1-0.3L639.1,64.1L639.1,64.1z"/>
	<path class="st0" d="M569.1,43.9c2.7,0.5,0.5,1.3,4.5,0.4c6.3-0.4,11.2,1.7,15.4,1.3l47.3,7.8c22.1,5.6,43.4,13.9,64.6,22.4
		c8.7,3.1,18.5,7.2,27.3,11.5V0H0l0.2,90H360c6.4-3.7,13.3-6.7,19.7-10.4c5.7-3.1,12-5.1,17.8-7.9c2.4-0.2,5.3-3.6,7.2-1.6
		c0.2-0.3,0.3-0.5,0.4-0.7c-0.4-0.1-0.9,0-0.8-0.4c2.1-0.5,2.5,1.8,3.6,3.2c14.3-8.6-12.6,0.5,11.3-8.8c-0.2,0.6,0.5,0.7,1.2,0.4
		c-0.5-0.2-0.8-0.3-1.1-0.4c16.1-5.5,33.7-11.8,50.4-12.1c2.4-3.3,2.5,2.5,3.5,3.5c2.3,0.9,1.5-2.3,1-3.5c1.5-2.2,7-1.6,9.8-2.5
		c0-0.1,0-0.1-0.1-0.2c5.1-1,11-1.6,16.5-1.9c4.6,0,10.7-2.5,14.6,0.1c0.8-0.2,0.9-0.7,0.7-1.4c4.9,0,9.9-1,14.7-0.8
		c-1.8,1.1-4,4.6-0.3,2.7c0.8,1.1,0.1,2.5,0.7,3.7c-6.3,0.1-12.7,1.1-18.9,1.2c-0.4-0.7-0.7-1-1.3-0.6c-2,2.1-4.4-1.9-5.9,0.2
		c-0.6,1.3-2.3-0.3-2.8,1.2c-0.4,0.6-0.5,0.7-1.1,0.2c1.6-1.5,0.5-3.6-1.2-1.6h0.1l0.2,1c0,0-0.4,0-0.4,0.1c0-0.1-0.5,0-0.6,0
		c-0.2-1.3-1.3-3-2.7-1.6c1.4,0.7,0.9,1.8,0,2.6c-1.7,0.2-3.5,0.6-5.2,0.6c-2.2-0.3-4.4,1-6.8,0.5c0.1-1.5-0.8,0-1.2,0.4
		c-0.6,0.5-2.2-0.6-2.2,0.5c-6.5,2.4-2-4-5.7-1.2c0.6,0.6,1.7,0.8,1.4,2.1c-3.5-0.5-6.5,1-9.8,1.3c-0.7-0.9-1.7,0.1-2.5-0.3
		c-0.8,1.1-2.3,0.4-3.2,1.3c-3.1,0-6.5,0.8-9.5,1.9c-3.8-0.4-7.4,2-11.1,2.7c-2.1,0.7-4.9,1.1-6.9,2.2c-9,2.3-17.6,6.4-26.7,9.4
		c-10.9,5.1-22.5,8.9-32.6,15.2h5.4c1.4-1.1,2.7-3,4.4-2.3c1.4-1,3.1-2.2,4.7-2.9c1.2,0.9,1.6-0.9,2.6-0.7c2.5-1.9,5.4-2.4,8.2-3.8
		c1.2-1,3.5-0.1,4.8-1.2c-0.4,0-0.7-0.1-1.2-0.1c0.9-0.6,1.1-0.7,2.1-0.4c0.5-0.9,1.5-0.8,2.5-0.8c-0.1-0.2-0.2-0.4-0.3-0.6
		c0.8-0.2,1.3-1.3,2.4-0.8l-0.8,0.8c0.8-0.1,0.8-0.1,1.5-0.9c1.6,0.9,0.7-1.3,0.7-1.9l4-0.7l0.1,0.9c0.6-0.6,3.4,0,2.6-1.4
		c1-1,2,0.6,2.8-0.5c-0.2-0.2-0.4-0.3-0.5-0.4c0.7-0.3,1.4-0.6,2.1-0.9c0.1,0.1,0.2,0.3,0.3,0.5c-0.1,0-0.3,0.2-0.4,0.2
		c0.1,0.3,0.5,0.1,0.6-0.1c0.8-0.7,3,0.3,2.3-1.5c1.7-1,3.3,0.2,4.7-1.3c1.4-0.6,2.5-1.5,4.1-1.2c0.9-1.5,2.5-0.1,4-0.6
		c-0.1-0.4-0.2-0.6-0.2-0.9c1.6-0.8,3.7-0.7,5.4-1.4c0,0.1,0.1,0.2,0.1,0.2c-0.3,0.1-0.6,0.3-0.9,0.4c1.1,0.4,1.7-0.1,1.9-1.1
		c0.8-0.7,1.9-0.1,2.6-0.9c0.1-0.1,0.6,0.2,0.8,0.3c-0.1,0.1-0.1,0.2-0.4,0.6c0.8-0.2,1.4-0.4,2-0.5c0-0.1,0-0.2,0-0.2
		c-0.2,0-0.5-0.1-0.8-0.2c1.4-0.9,3.4-1.3,5-1.2c0.5,0.4,0.9,0.1,1.2-0.1c2.7-1.5,6.1-1,8.9-1.9c-0.1,0.2-0.2,0.3-0.3,0.5
		c1.1,0.6,1.6-0.9,2.5-1.1c1.3-0.1,1.4,1.3,2.8,0c-0.5-0.1-0.9-0.1-1.3-0.2c1.4-0.8,1.2,0.5,2.3,0.3c1.1-0.7,1.1-0.7,2.1,0.2
		c1.1-1.1,2.2-1.4,3.9-1.5c-0.1,0.2-0.2,0.2-0.4,0.4c0.2,0.1,0.4,0.3,0.6,0.4c0.2-0.2,0.4-0.4,0.6-0.7c0.2,0.2,0.4,0.4,0.6,0.7
		c0.6-0.3,1.3-0.7,2-1v0.5c1.4,0.5,2.7-0.3,4.1-0.7c-0.7-0.5-1.2,0-1.8-0.2c1-0.3,1.9-0.5,2.8-0.8v0.1c-0.2,0.1-0.5,0.2-0.9,0.3
		c0.6,0.1,1.2,0.5,1.5,0.1c0.6-1.1,2.5,0.5,3.7,0c-0.1-0.9-0.7-0.6-1.2-0.7c1.3,0,2.5-0.3,3.7-0.7c-0.2,0.2-0.4,0.4-0.7,0.6
		c1.1,0,2.2,0,3.4-0.1c-0.2-0.2-0.3-0.3-0.6-0.6c0.3,0,0.6-0.2,0.7-0.1c1.2,1.1,2.9-1.5,3.5,0.8c0.3,1.1,2,0.1,1.3-0.7
		c-0.7-1.6,1.2-0.6,1.9-0.5c0.6-0.2,1-0.2,1.5,0.4c0.4,0.5,0.6,0.4,1-0.4c6.3,4.2-19.4,3.4-21.7,4.9c-18,2.1-37,6.3-53.3,11.7
		c-0.9,1.1-2.5,0.9-3.8,1.5c-0.3-0.2-0.2-1.1-1-0.8c-10.9,7.1-25.5,10.8-38.3,17.1h4.5c7.9-3.6,16-6.9,24.1-9.7
		c28.4-12.7,59.8-18,90.5-20.3c-0.1,0.3-0.2,0.6-0.4,1.1c0.6,0,1.1-0.1,1.7-0.1c-0.1,0.4-0.2,0.8-0.3,1.3c-0.5-0.2-0.9-0.3-1.6-0.5
		c0.2,0.6,0.5,1.1,0.7,1.6c-0.6-0.4-1.1-0.6-1.6-0.9c-0.4,0.8,0.6,1.2,0.4,1.9c-3.8-1.2-3.5,2.1-7,2.4c-12.1,0.8-24.4,3.6-36.7,5.2
		c-18.6,4.6-37.6,10.4-55.7,18.1h5.2c1.1-0.4,2.1-0.9,3.2-1.3c-0.1,1.1,1,1.2,1.2,0.2c0.3-0.8,0.5-1,1.4-1c2.3-0.2,4-2.1,6.3-2.5
		c5.1-2.5,2.6,2.6,5.4-0.9c-0.3-0.1-0.6-0.2-1-0.2c3-3,8.2-2.6,11.9-4.7c8.4-2.7,16.9-5.4,25.7-6.4c7.4-2.2,15.7-1.8,23.1-3.8
		c2.9-1.9,4.9,3.3,7.1,0.1c0.5,0.3,1,0.6,1.6,0.9c0.1-1.3,1.1-1.2,2-1.5c0,1.4,1.6,0.9,2.1,2c-1.3,2.9-5.7,1.5-8.4,2.3
		c-4.4-0.3-8.4,1.8-12.7,1.6c-8.3,1.8-17.3,2.4-25.6,4.5c-7.3,1.7-13.9,4.9-21.1,6.5v0.1c-3.2,1.3-6.7,2.8-10.2,4.2h3.5
		c0.9-0.2,1.8-0.2,2.6,0h226.1c-13.7-4.5-27.7-8.3-42-10.7c-11.2-3.7-39-4.8-39-4.8c-16-1.6-31.8-0.5-47.8,0.3
		c-3.7-0.3-7.9,1.6-11.1-0.4c0.2-1,0.3-1.1,1.8-0.5c0.2-0.6,0.2-1.2,0.2-1.8c12.7-1.6,25.3-1.5,39-2.2c4.1-0.7,12.1,1.1,17.2,0.9
		c0.1,0.1,0.2,0.1,0.3,0.1c0.7,0,1.4-0.1,2.1-0.1c0.4,0,0.8,0,1.2-0.1c1.4,0.2,2.8,0.5,4.2,0.7c2.4,0.3,4.9,0.4,7.3,0.5
		c0.6,0.1,1.2,0.2,1.8,0.2c2.2,0.3,4.5,0.4,6.7,0.5c2.2,0.3,4.4,0.7,6.6,1c1.4,0.2,2.9,0.4,4.3,0.6c1,0.1,1.9,0.3,2.9,0.3
		c1,0.2,1.9,0.4,2.9,0.7c0.2,0.1,0.4,0,0.5-0.2c17.5,2.9,34.8,8.2,51.6,14.4h4.3c-11.4-4.4-23.3-8.1-35.1-11.5
		c-5.6-1.3-11.3-2.7-17.1-3.5c-2.1,0.6-4.9-2-6.4-0.8c-0.2,0-0.3,0-0.5,0c-3.9-0.8-7.9-1.5-11.9-1.8c-0.7-0.1-1.5-0.1-2.2-0.2
		c-2.3-0.3-4.5-0.7-6.8-0.7c-0.5,0-1,0-1.5,0c-1.5-0.2-3.1-0.5-4.6-0.7c-2.2-0.3-4.3-0.5-6.5-0.5c0,0,0,0-0.1,0c0,0,0.1,0,0.1-0.1
		c-0.6-0.1-1.1-0.1-1.7-0.2c-0.5-0.1-1-0.2-1.5-0.3c-0.2,0-0.3,0-0.4,0.1c-15.1-1.2-29.8-0.2-44.9,0.1c-0.1-0.4-0.2-0.7-0.4-1.2
		c-0.9,0.2-1.8,0.1-1.9,1.3c-4.7,0.4-10.2,0.6-15.2,1.2c-2.3-0.5-5.9,2-7.4-0.2c0.3-0.1,0.5-0.1,1-0.2c-1.5-0.8-0.4-1.9-1.7-2.8
		c3.8,0,10.8-3,12.8,0.8c0.8-0.1,1.9-0.1,1.9-1.2c0.4,0.1,0.9,0.2,1.4,0.2c-1.5-2.6,16.4-1.8,18.8-2.1c11.5-1.6,24,0,35.4-0.1
		c0.8,0.1,1.7,0.2,2.5,0.3c0.1,0,0.1,0,0.2,0c2.8-0.3,5.7,0.1,8.5,0.3c2.8,0.3,5.7,0.6,8.5,0.9c5.7,0.6,11.4,1.4,17.1,2.3
		c1.6,0.2,3.2,0.5,4.8,0.8c1.5,0.3,2.9,0.5,4.4,0.8c0.1,0.1,0.2,0.1,0.3,0.1c0.1,0,0.1,0,0.2,0c21,4.1,41.4,10.8,61.6,18.7h2.8
		c-2.9-1.1-5.8-2.1-8.6-3.1c-16.8-6.1-35.4-13.8-53.1-16c-0.1-0.1-0.2-0.3-0.3-0.3c-0.7-0.2-1.4-0.3-2.2-0.3c-0.1,0-0.1-0.1-0.2-0.1
		c-11.3-1.9-22.7-3.5-34.1-4.6c-3.2-0.3-6.5-0.9-9.7-0.5c0,0,0,0,0,0c-1.3-0.1-2.7-0.3-4-0.4c-0.1,0-0.3,0.1-0.4,0.2
		c-22.5-1.4-45.1-0.2-67.4,2.3c-0.1-1.4,7.3-4.6,7.9-2.6c1.2-1.7,4-0.6,5.8-0.9c2.5,0.2,5-0.8,7.6-1v-0.3c-4-0.5-9.9,1.8-13.2-0.2
		c-1,2-2.7,0.4-4.3,0.4c3.3-4.7,11.6-1.7,16.7-3.2c2.3-0.4,4.6-0.2,7-0.6c0.5,0.4,0.2,1.4,1.1,1.2c2.4-1.8,8.1-2.2,11-0.8
		c1,0.4,0.4-1.3,1.5-0.7c-0.1,0.3-0.3,0.6-0.4,0.9c0.9,0.4,2.5-1.3,3.9-1.1c-2,2.6,2.8,1.8,4.2,2.5c-0.6-4.8,6-1.4,8.5-2.9
		c0.1,0.1,0.1,0.2,0.2,0.3c-1.1-0.3-2,1.1-2.1,2.2c-0.8,0-1.5-0.2-2,0.6c0.5,0.3,0.9,0.5,1.5,0.8c0.9-1.9,3.6,0.1,4.8-1.4h-3
		c0.3-0.9,1.2-1.4,1-2.2c5.2-1.2,15.7,2.3,21,0.9c0.1,0.4,0.5,0.7,1,0.8c3.2,0.5,6.5,1,9.7,1.4c3.3,0.5,6.6,0.6,9.9,0.9
		c6.7,0.6,13.4,1.8,20.1,3c0.4,0.1,0.7,0,1-0.1c19.1,3.4,37.4,10.4,55.5,17.2c7,2.4,13.9,5,20.7,7.8h6.2c-9.2-4-18.5-7.7-28-10.9
		c-6.9-1.9-39.4-14.9-54-16.5c-0.2-0.2-0.4-0.3-0.7-0.3c-6.6-1.2-13.2-2.4-19.9-3c-3.3-0.3-6.6-0.4-9.9-0.8c-3.3-0.5-6.6-1-10-1.5
		c-0.4-0.1-0.8,0-1.1,0.2c-7-0.6-14.7,0.2-21-2.3c-2.2,2-6,0.5-8.8,1.1c-2.3,0.3-4.5,0.1-4.4-2.7c0.1,0,0.2-0.1,0.3-0.1
		c1.9,4.6,3.1-1.7,6.6-0.2c-0.2,0.2-0.3,0.3-0.4,0.4c0.5,0.5,1.5,0,2.1,0.5c1.2,1.1,2.3-0.7,3.6-0.2c0.7,0.2,1.2-0.2,1.3-0.6
		c0.4-1.2,2.2-0.7,2.3,0.3c0.6-0.1,1.3,0.2,1.7-0.5l3.5,0.2c0.2,1,0.8,0.5,1.3,0.3c0.9-0.1,1.7,0,2.3,0.5c1-0.6,1.7-0.7,2.7,0.3
		c1-1.2,1.6,0.1,2.8-0.8c0.5,0.4,1.1,1.1,1.7,0.5c1.5-0.4,3.3,0.1,4.7,0.7c-0.4-0.1-0.8-0.2-1.2,0c0.5,0.6,0.9,0,1.3,0
		c0.4-0.3,0.8-0.4,1.3-0.3c0.2,0.3,0.6,0.5,1.1,0.6c2.9,0.2,5.8,0.9,8.7,1.4c3,0.5,6.1,0.9,9.1,1.2c2.9,0.3,5.8,0.7,8.7,0.8
		c1.4,0.1,2.7-0.1,4.1,0.2c1.5,0.3,2.8,1,4.3,1.3c0.3,0.1,0.6,0,0.8-0.1c0.8,0.3,1.7,0.6,2.5,0.4c1.7,0.1,3.6,0.5,5,1.7
		c4.5-0.6,9.3,1.4,13.5,2.8c0.4,0.5,1.4,0.2,1.5,1c0.1,0.6,0.5,0.4,0.9,0.2c-0.1-0.2-0.1-0.5-0.2-0.8c1.2,0.1,1.9,1.6,3.2,1
		c2.2,1,4.7,1.2,6.9,2.4h0.1c0.1,0,0.1,0,0.2,0l-0.1-0.4l2-0.3l0.2,1L656,69c0.7,0.3,1.5,0.5,2.3,0.4v-0.5c1,0.1,0.9,1.6,2.1,1.5
		v-0.8c0.9,0.5,1.8,0.9,2.7,1.4H662l-0.1,0.2c0.4,0.1,0.7,0.3,1.1,0.4c0-0.1,0.1-0.3,0.1-0.4c4.4,0.5,8.2,2.7,12.4,4.1
		c-0.1,0.2-0.1,0.4-0.3,0.7c3.7-0.4,6.5,2.3,10.1,2.8c-0.1,2,6.4,1.9,8.2,3.2l-1.2,0.2c0.8,1.6,2.5,0.1,4.1,0.9
		c-0.2,0.2-0.4,0.4-0.7,0.6c0.7,0.3,1.2,0.6,1.8,0.8l0.2-0.2l-0.5-0.6c1.7,0.5,3.6,0.6,4.6,2.2c1.6-0.9,2.4,0.7,4,0.9
		c1.1,0,1.2,1.8,2.2,1.4c1.1-0.7,1.6,0.6,2.5,0.9c0.5,0.6,1.8,0.3,2.4,0.7h5.2c-1.6-0.7-3.1-1.5-4.7-2.3
		c-29.8-12.2-60.2-24.2-92.2-31c0,0,0,0.1-0.1,0.1c-1-0.3-2-0.7-3.1-0.9c-1.4-0.4-2.8-0.3-4.2-0.3c-3,0-6.1-0.5-9-0.8
		c-3.1-0.4-6.2-0.8-9.3-1.3c-1.3-0.2-2.7-0.5-4-0.7c0,0,0,0-0.1,0c-0.4,0-0.7-0.1-1.1-0.2c-1.3-0.2-2.6-0.4-3.9-0.5
		c-0.2,0-0.4,0-0.6,0.1c-11.2-1-22.7-2.5-33.8-1.7c-1.6-1.5-1.6-2.3,0.8-1.4c1.1-3.6-4.2-2.9-5.2-0.8c-0.5-0.5-0.9-1-1.4-1.5
		c-1.7,3.2-3.9,4.4-7.6,3.9c0.2-0.5,0.4-0.7,0.6-1c1.3,0.7,1.5,0.6,2.2-1c0-0.4-0.9-0.5-0.5-1.2c0.2,0.1,0.3,0.2,0.5,0.3l-0.3-1.6
		l1.9-0.3c-1.3-3.5,7.7-1.5,9.9-2c-0.1,0.5-0.2,0.8-0.4,1.4C557.7,42.2,563.5,44.1,569.1,43.9z M408.5,68.6l-1,0.2l-0.2-1l1-0.2v0.2
		c0.2,0,0.4,0.5,0.1,0.5L408.5,68.6z M510.5,72.1c0.7,1.4-0.7,1.4-1.7,1.7c-2-0.3-1.5,2.9-3.2,1.7l0.6-0.6
		C499,74.2,507.2,71.3,510.5,72.1z M433.8,86.8c-0.4,0.3-0.7,0.1-1.1,0.1c0-0.2-0.2-0.2-0.3-0.3h0.3l-0.1-0.6l1-0.2l0.1,0.7h0.1
		V86.8z M435.2,89.7c0.5-1.4,1.9-0.6,2.1-2.9c-4.4-0.8,3.6-2.8,5.2-3.2c0.1,0.5,0.1,1-0.5,0.8c-0.8-0.2-1.5,0.2-2.2,0.3
		c0.4,1.7,2.2,1.2,2.9,2.2C440.3,88.5,437.7,88.4,435.2,89.7z M501.2,74.3c0,0.7,0,1.4-0.1,2.3c-7,0.8-17.5,1.7-24.6,3.4
		c-10.9,1.3-21.7,3-32,6.4c-1.5-1.7-1.4-1.3,0.4-2.1c-1-3.6,11.9-4,14.8-5.4c11.1-1.5,23.2-4.8,34-4.5c1.5-1,3-1,4.7-1.3
		C498.2,74.9,500.2,75.8,501.2,74.3z M505.6,60.9c0-0.1-0.1-0.2-0.1-0.2c0-0.3-0.2-0.5-0.3-0.9c0,0,0.1,0,0.1-0.1
		c0.2,0,0.8-0.1,1-0.2l0.2,1C506.3,60.6,505.4,60.5,505.6,60.9z M507.7,56.2l-1,0.2v-0.3c-0.1,0-0.3-0.1-0.5-0.2
		c0.1-0.2,0.2-0.3,0.4-0.4v-0.1l-1,0.2l-0.2-1l3-0.5l0.2,1l-1,0.2L507.7,56.2z M548.5,57.6c-0.2-0.1-0.3-0.1-0.5-0.2
		c1,0,1.7,0.1,2.5-0.1v0.1h0.3c-0.2,0.3-0.3,0.5-0.2,0.9l-3,0.4l-0.1-0.9L548.5,57.6z M535.2,44.6l0.7,4.9l-0.8,0.1
		c0,1.2-1.5,0.7-2.3,0.9c0-0.6,0.1-1,0.1-1.5l-0.6-4L535.2,44.6z M542,53.5c0.5,1.2,1.4,0,2.3,0.7c-0.4,3.9-5.5,1.1-8.4,2.5
		c-1.6,0.4-4.7-4.6-5.7-1.7c0.1,2.4-21.3,4.1-20.6,1.6c0.3-0.8,3.5-2.3,4.1-1.5c0.7,0.8,1.1,0.6,2.1,0.1c-0.5-0.1-0.8-0.1-1.4-0.2
		c1.4-0.6,2.9-0.9,4.5-0.8c-0.1,0-0.1,0-0.2,0.1c0.5,0.3,0.9,0.5,1.3,0.2c0-0.1-0.1-0.1-0.1-0.2c0.6,0.1,1.2,0.2,1.8,0.5
		c0-0.2,0.1-0.3,0.2-0.5c-0.1,0-0.2,0-0.2,0c0.9-1,3.4-0.1,4.9-0.6c-0.2,0.2-0.4,0.4-0.6,0.7c2.5,0,4.7-1.6,7.5-0.4
		c0.9,0.4,1.4-0.4,2.2-0.7c1.1,0.9,2,0.6,2.9-0.3C539.6,54.8,541,52,542,53.5z"/>
	<path class="st0" d="M654.2,68.6c-0.2-0.5-0.3-0.4-0.8-0.2C653.7,68.9,653.8,68.9,654.2,68.6z"/>
	<path class="st0" d="M642.8,64.9c-0.4-0.1-0.8-0.2-1.3-0.3C641.7,65.5,642.3,65.2,642.8,64.9z"/>
	<path class="st0" d="M649.4,67.4c0.9,0.2,1.6,0.3,2.3,0.5C651.6,67,650,67.1,649.4,67.4z"/>
	<path class="st0" d="M655.9,69.1L655.9,69.1L655.9,69.1L655.9,69.1L655.9,69.1z"/>
	<path class="st0" d="M576.1,53.8c0,0,0,0.1,0,0.2c0.3,0.1,0.5,0.1,1.1,0.2c-0.3-0.3-0.4-0.4-0.5-0.6
		C576.5,53.7,576.3,53.8,576.1,53.8z"/>
	<path class="st0" d="M575.8,61.5l0.7,0.1c0-0.1,0-0.2,0-0.2l-0.7-0.1C575.8,61.3,575.8,61.4,575.8,61.5L575.8,61.5L575.8,61.5z"/>
	<path class="st0" d="M565,60.6c0,0.1,0,0.2,0,0.2c2.6,0,5.5,0.9,8,0.4V61c-0.3,0-0.6-0.1-1-0.1C569.6,61.1,567.3,59.8,565,60.6
		L565,60.6z"/>
	<path class="st0" d="M567.2,53.5c0.4,0,0.8,0,1.1-0.1c0-0.1,0-0.2,0-0.3C567.9,53.1,567.5,52.9,567.2,53.5L567.2,53.5z"/>
	<path class="st0" d="M551.4,60.3c-0.1,0.2-0.2,0.4-0.3,0.5c0.8,0.4,1.9-0.1,2.2,1.4c0.5-1,0.4-1.7,1.5-1.6c0-0.1,0-0.1,0-0.2
		c-0.6,0-1.2,0.1-1.9,0.1c0.3-0.5,0.6-0.9,0.8-1.3c-0.8-0.9-2,0.5-2.1,1.2l0,0C551.6,60.3,551.4,60.3,551.4,60.3L551.4,60.3z"/>
	<path class="st0" d="M535.2,61.2V61c-1.5-0.3-3.2-0.2-4.8-0.3c-0.7,0-1.2,0-1.3-0.8c-0.5-1-1.5-0.1-1.2,0.8
		c-0.5,0.1-0.9,0.4-1.2,0.8C529.5,61.2,532.4,61.7,535.2,61.2L535.2,61.2z"/>
	<path class="st0" d="M521.8,73.1c0.7,0.3,0.7,1,0.7,1.6c1.1-0.3,2-1.3,0.7-1.8l0,0C522.6,72.7,522,72.2,521.8,73.1L521.8,73.1z"/>
	<path class="st0" d="M546.3,59.8c-0.3,0.3-0.6,0.5-1,0.8l0,0c1.9,0.4,3.3,0.1,5.2-0.1C549.1,59.8,547.5,60.8,546.3,59.8z"/>
	<path class="st0" d="M536.3,61.2c2-0.2,4.1-0.1,6.1-0.4c0-0.1,0-0.2,0-0.3c-0.3,0-0.7,0-1.1-0.1c0.4-1.4,0.2-1.6-1.3-1.3l0,0
		c0,0.4,0,0.8,0,1.2C538.8,60.7,537.2,60.4,536.3,61.2L536.3,61.2z"/>
	<path class="st0" d="M495,75.2c0,0.2-0.1,0.4-0.1,0.6c0.2,0.1,0.2-0.3,0.4-0.5l0,0C495.2,75.2,495.1,75.2,495,75.2L495,75.2z"/>
	<path class="st0" d="M585.5,54.6c0,0-0.1-0.1-0.2-0.2c-0.1,0.1-0.2,0.2-0.4,0.4c0.1,0.1,0.2,0.2,0.3,0.2
		C585.3,54.9,585.5,54.8,585.5,54.6L585.5,54.6z"/>
	<path class="st0" d="M543.6,48.5c0.2-0.4,1.6-2.1,0.3-1.9l0,0h-0.1l0,0c-0.1-0.3-0.2-0.7-0.4-1c0.1,0.2,0,1.1,0.4,1
		c-0.1,0.2-0.2,0.4-0.1,0.7l-1.6,0.3C542.6,47.8,543.1,48.1,543.6,48.5L543.6,48.5z"/>
	<path class="st0" d="M522,54.2c0.5,0.1,1,0.3,1.5-0.3C523.1,53.8,522.3,53.8,522,54.2z"/>
	<path class="st0" d="M677.3,77c0.7,0.3,1.2,0.5,1.8,0.8C678.5,77,678.2,76.8,677.3,77z"/>
	<path class="st0" d="M444.6,85.1L444.6,85.1c0,0.1,0.1,0.2,0.1,0.3c0.2-0.1,0.4-0.2,0.6-0.2c0-0.1,0-0.1-0.1-0.2
		C445,85,444.8,85.1,444.6,85.1L444.6,85.1z"/>
	<path class="st0" d="M566.8,46.6c0.5,0.2,0.8,0.3,1.1-0.3C567.3,46.1,567,46.2,566.8,46.6z"/>
	<path class="st0" d="M535.2,53.6L535.2,53.6c0.3,0.1,0.4,0.3,0.7,0.1C535.6,53.4,535.6,53.3,535.2,53.6z"/>
	<path class="st0" d="M526.5,55.3c0.5,0.6,1-0.2,0.6-0.7C526.6,54.7,526.3,54.9,526.5,55.3z"/>
</g>
</svg>
