<svg xmlns="http://www.w3.org/2000/svg" width="300" height="600" fill="none" viewBox="0 0 300 600"><rect width="230" height="38" x="35" y="305" fill="#fff" rx="19"/><path fill="#983387" d="M108.238 326.481c0 2.346-1.666 3.723-4.352 3.723-1.717 0-2.975-.629-4.165-1.547l1.411-1.904c.731.578 1.785 1.071 2.805 1.071 1.241 0 1.581-.425 1.581-1.173 0-1.241-2.261-1.666-3.298-2.244-1.241-.68-2.227-1.462-2.227-3.434 0-2.55 2.227-3.587 4.42-3.587 1.173 0 2.584.323 3.587 1.071l-1.224 2.023c-.544-.408-1.462-.714-2.363-.714-1.258 0-1.7.714-1.7 1.207 0 1.122 1.581 1.462 3.026 2.091 1.207.527 2.499 1.377 2.499 3.417M117.89 330h-7.48v-12.41h7.225v2.295h-4.505v2.907h4.182v2.295h-4.182v2.618h4.76zm9.729 0h-7.48v-12.41h7.225v2.295h-4.505v2.907h4.182v2.295h-4.182v2.618h4.76zm16.284-6.222c0 4.097-3.162 6.222-6.46 6.222h-3.757v-12.41h3.757c3.536 0 6.46 2.176 6.46 6.188m-2.805 0c0-2.176-1.479-3.893-3.655-3.893h-1.037v7.82h1.037c2.312 0 3.655-1.836 3.655-3.927m16.946-.034c0 3.587-2.567 6.46-6.409 6.46s-6.375-2.924-6.375-6.46c0-3.57 2.567-6.358 6.409-6.358 3.876 0 6.375 2.669 6.375 6.358m-2.805 0c0-2.176-1.411-3.978-3.57-3.978-2.125 0-3.604 1.904-3.604 3.978 0 2.278 1.632 4.08 3.57 4.08 2.244 0 3.604-1.989 3.604-4.08m12.499 2.737c0 2.346-1.666 3.723-4.352 3.723-1.717 0-2.975-.629-4.165-1.547l1.411-1.904c.731.578 1.785 1.071 2.805 1.071 1.241 0 1.581-.425 1.581-1.173 0-1.241-2.261-1.666-3.298-2.244-1.241-.68-2.227-1.462-2.227-3.434 0-2.55 2.227-3.587 4.42-3.587 1.173 0 2.584.323 3.587 1.071l-1.224 2.023c-.544-.408-1.462-.714-2.363-.714-1.258 0-1.7.714-1.7 1.207 0 1.122 1.581 1.462 3.026 2.091 1.207.527 2.499 1.377 2.499 3.417M172.63 330h-2.72v-12.41h2.72zm13.355 0h-2.346l-5.474-7.225c-.17-.238-.306-.51-.306-.51s.034.323.034.629V330h-2.72v-12.41h2.346l5.474 7.157c.187.238.306.51.306.51s-.034-.323-.034-.629v-7.038h2.72zm14.384-6.256c0 4.097-2.686 6.46-6.069 6.46-3.689 0-6.358-2.635-6.358-6.46 0-3.842 2.856-6.358 6.307-6.358 2.193 0 3.706.85 4.794 2.023l-1.683 1.649c-.765-.833-1.853-1.292-3.111-1.292-2.074 0-3.621 1.836-3.621 3.978 0 2.193 1.547 4.08 3.672 4.08 1.496 0 2.584-.595 3.06-1.785h-3.162v-2.295z"/></svg>