<?xml version="1.0" encoding="utf-8"?>
<!-- Generator: Adobe Illustrator 26.5.0, SVG Export Plug-In . SVG Version: 6.00 Build 0)  -->
<svg version="1.1" id="a" xmlns="http://www.w3.org/2000/svg" xmlns:xlink="http://www.w3.org/1999/xlink" x="0px" y="0px"
	 viewBox="0 0 160 600" style="enable-background:new 0 0 160 600;" xml:space="preserve">
<style type="text/css">
	.st0{fill:#FFFFFF;}
</style>
<path class="st0" d="M91.8,61.7c-2.8-0.4-5.9-1.3-8.8-1C85.6,61,89.8,62.4,91.8,61.7z"/>
<path class="st0" d="M98.6,63.1c-0.2-1.1-1-1-1.9-0.9C96.7,62.6,97.5,62.9,98.6,63.1z"/>
<path class="st0" d="M94.6,61.8c-0.3-0.1-0.7-0.2-1.1-0.2c0,0.1-0.1,0.2-0.1,0.3C93.8,61.9,94.5,62.3,94.6,61.8z"/>
<path class="st0" d="M82.9,60.7c-2-0.7-5-1.6-6.9-0.8C78.4,59.9,80.6,60.5,82.9,60.7z"/>
<path class="st0" d="M67.2,58.1c0.1-0.8-0.2-1.2-1-1.4C65.7,58,66,58.3,67.2,58.1z"/>
<path class="st0" d="M70.1,59c-0.1-0.7-0.4-0.8-0.9-0.7l0,0c0,0.1-0.1,0.2-0.1,0.3C69.4,58.7,69.8,58.9,70.1,59z"/>
<path class="st0" d="M111.7,63.7c0.6,0.6,1.9,0.5,2.7,0.7c-0.1-0.2-0.2-0.4-0.3-0.7C113.3,63.6,112.5,63.6,111.7,63.7L111.7,63.7z"
	/>
<path class="st0" d="M117.8,64.6c-0.1-0.1-0.1-0.2-0.1-0.3l0,0c-0.2,0-0.4,0-0.6,0.1C117.2,64.8,117.5,64.6,117.8,64.6L117.8,64.6z"
	/>
<path class="st0" d="M116.8,82c0-0.2,0-0.3,0.1-0.4c-0.2,0-0.4-0.1-0.5-0.1C116.1,81.9,116.4,81.9,116.8,82z"/>
<path class="st0" d="M65.2,59.9c0.1,0.3,0.6,0.4,1.1,0.7C67.5,58.7,64.9,58.2,65.2,59.9z"/>
<path class="st0" d="M119.4,69.5L119.4,69.5L119.4,69.5L119.4,69.5L119.4,69.5z"/>
<path class="st0" d="M128.3,79.9L128.3,79.9L128.3,79.9L128.3,79.9L128.3,79.9z"/>
<path class="st0" d="M114,68.9L114,68.9L114,68.9z"/>
<path class="st0" d="M24.4,53.7c0.6,0.2,0.9,0.3,1.6,0.4C25.5,53.6,25.2,53.2,24.4,53.7z"/>
<path class="st0" d="M42.2,59.6c0-0.1,0-0.2,0-0.3c-0.3,0-0.6,0-0.9,0l0,0C41.3,59.6,42,59.5,42.2,59.6z"/>
<path class="st0" d="M53.7,62.8l0.1-0.3c-0.5-0.2-1-0.3-1.5-0.5c0,0.1-0.1,0.2-0.1,0.3C52.8,62.4,53.2,62.6,53.7,62.8L53.7,62.8z"/>
<path class="st0" d="M17.5,51c0.6,0.4,0.7,0,0.1-0.2C17.5,50.9,17.5,51,17.5,51z"/>
<path class="st0" d="M128.3,79.9L128.3,79.9L128.3,79.9L128.3,79.9L128.3,79.9z"/>
<path class="st0" d="M12.4,49.2c-0.5-0.2-0.8-0.3-1-0.5C11.6,49,11.9,49.2,12.4,49.2z"/>
<path class="st0" d="M58.5,64.1c0.3,0,0.6,0.1,0.9,0.1c0.2-0.4-0.7-0.3-0.8-0.4C58.6,63.8,58.6,63.9,58.5,64.1z"/>
<path class="st0" d="M83.3,68.3c0-0.1,0-0.2,0-0.4c-0.4,0-0.8,0-1.1-0.1c0,0.1,0,0.2,0,0.3C82.5,68.2,82.9,68.2,83.3,68.3L83.3,68.3
	z"/>
<path class="st0" d="M87.8,69c0.3,0.3,0.7,0.3,1.3-0.2C88.4,68.8,87.8,68.4,87.8,69z"/>
<path class="st0" d="M132.2,55.8c-0.1,0-0.2-0.1-0.3-0.1c-0.2,0-0.4,0-0.5,0c-1-0.1-2.1-0.1-3.1-0.2c0.4,0.1,0.8,0.2,1.1,0.3
	c-0.3,0-0.6,0-0.9,0c-0.1,0-0.1,0-0.2,0c0,0-0.1,0-0.1,0c-0.2-0.1-0.4-0.1-0.6,0.1c-3.6-0.1-7.3-0.4-10.9-0.9
	c-2.4-0.3-4.8-0.5-7.3-0.5c-2.5,0-5-0.5-7.4-0.8c-2.8-0.4-5.7-0.8-8.5-1.2c-0.1,0-0.2,0-0.3,0c-5.4-2.3-15.6,0.8-18.4-5
	c-0.6-0.1-0.7,0.3-0.9,0.7c3.9,3.1-5.8,0.6-7,0.2c-8.7-2,0-2.6,3.1-1.9c-0.1-0.4-0.2-0.7-0.3-1.1c7.8,1.1,15.6,2.5,23.5,3.6
	c0,0,9,1.7,23.5,2.3c1.6,0.1,3.3,0.1,5.1,0.2c0.3,0.3,0.7,0.5,1,0.5c-0.1-0.2-0.1-0.3-0.2-0.5c1.9,0,3.9,1,6,1
	c5.8,3.3,15.2,0.2,23,1.3c2.7,0.2,5.4,0.3,8.2,0.3V0H0v21.3C15.9,28.5,32.1,34.9,48.6,40c-1.1,2.3,0,1.9,1.6,2.9
	c-1.1-0.2-2.2-0.4-3.3-0.6c0.9-1-1-1.5-1.8-1.3c-0.2,0.4-0.2,0.7,0,1C29.7,38.5,14.7,32.2,0,25.2v1.1c7.1,3.7,14.2,7.2,21.6,9.1
	c13.4,4.9,27,10.2,40.6,12.8c-0.5,1.8,1.7,2.7,1.5,0.4c2.7,0.9,5.9,0.4,8.2,2.3c-1-0.1-1.9-0.2-2.9-0.2c-0.3,2.7,5.4,3.6,5.8,0.9
	c5.7-1.1,14.2,2,20.6,2.2c-0.1-0.1-0.2-0.2-0.3-0.3c1.9,0.3,3.8,0.5,5.7,0.8c2.5,0.4,5,0.8,7.5,1c1.2,0.1,2.4,0,3.7,0
	c1.2,0,2.5,0.2,3.7,0.3c2.5,0.3,5,0.7,7.5,0.9c1.8,0.1,3.6,0.2,5.3,0.2c0.4,0.1,0.8,0.1,1.2,0c0.7,0,1.5,0,2.2-0.1
	c0.2,0,0.3-0.1,0.4-0.3c8.7,1.8,18,2.4,27.7,2.2v-2C150.5,56.7,141.2,56.4,132.2,55.8z M50.3,44.2c1.2-1.2,1.9-1.8,1.2-3.3
	C65.9,42.4,64.3,49.3,50.3,44.2z"/>
<path class="st0" d="M160,70c-7.2,0.1-14.5,0-21.8-0.6c0-0.3-0.2-0.6-0.6-0.6c-0.8,0.1-1.7,0.2-2.5,0.3c-0.4,0-0.7-0.1-1.1-0.1
	c0.2,0.1,0.4,0.1,0.5,0.1c-4.6,0.3-9.3-0.1-13.9-0.3c-5.7-0.3-11.4-0.8-17-1.2c-3.1-0.2-6.2-0.3-9.1-1.3c-0.3-0.1-0.5,0.1-0.6,0.3
	c-31-5.7-63.2-14.4-93.8-27v1.7c29.9,12.8,62.5,22.8,94.1,26c0,0,0,0,0,0c2.6,0.9,5.4,1,8.1,1.2c2.9,0.2,5.7,0.4,8.6,0.6
	c5.8,0.4,11.6,0.8,17.5,1c3,0.1,6,0.1,9-0.3c7.2,1.8,14.9,2.4,22.8,2.4V70z"/>
<path class="st0" d="M134.6,65.5c0.7,1,3.1,0.6,4.3,0.6C138.2,65.2,135.9,65.6,134.6,65.5z"/>
<path class="st0" d="M158.5,74.3L158.5,74.3L158.5,74.3z"/>
<path class="st0" d="M157.8,74.1c0,0.1,0,0.2,0,0.3l0.7-0.1C158.5,73.9,158,74.1,157.8,74.1z"/>
<path class="st0" d="M154.7,74.4c0.4,0,0.9,0,1.3,0C155.5,73.6,155.1,74,154.7,74.4z"/>
<path class="st0" d="M160,81.3v-0.2c-0.2,0-0.4,0.1-0.6,0.2C159.6,81.2,159.8,81.3,160,81.3z"/>
<path class="st0" d="M141.1,66.1c0,0.1,0,0.2,0,0.3c2.5,0.2,5.1,1.1,7.5,0.4C146.3,65.8,143.5,66.4,141.1,66.1L141.1,66.1z"/>
<path class="st0" d="M148.9,66.6c0,0.1,0,0.2,0,0.2c0.3,0,0.6,0,0.8,0c0-0.1,0-0.2,0-0.2C149.4,66.6,149.1,66.6,148.9,66.6z"/>
<path class="st0" d="M160,67.2v-0.7c-3,0-6.1,0.1-9,0.2C153.8,67.1,156.9,67.3,160,67.2z"/>
<path class="st0" d="M147.6,73.7c-0.9,0.1-1.6,0.1-2.4,0.2C145.7,74.7,147.2,74.2,147.6,73.7z"/>
<path class="st0" d="M5.2,53.8c-0.7,0.2-0.7,0.5-0.5,0.8C5.3,54.9,5.1,54.3,5.2,53.8z"/>
<path class="st0" d="M26.7,62.6c0.3-0.1,0.6-0.2,0.9-0.3C27.1,61.9,26.8,62,26.7,62.6z"/>
<path class="st0" d="M8.4,53.9c0.9-0.3,0.2-1.8-0.6-1.4C6.7,52.9,7.5,54.4,8.4,53.9z"/>
<path class="st0" d="M54.4,54.9c-0.6-0.5-3.1-1-4.4-1C51.3,54.9,52.8,55.1,54.4,54.9z"/>
<path class="st0" d="M7.9,54.8L8,54.6c-0.3-0.1-0.6-0.2-0.9-0.3l0,0c0,0.1-0.1,0.2-0.1,0.2C7.3,54.6,7.6,54.7,7.9,54.8L7.9,54.8z"/>
<path class="st0" d="M47.7,65.6c0.1,1.2-0.7,1.4-1.8,1.6c0.6,2,3,3.2,3.6,0.5C54,69.7,50.2,64,47.7,65.6L47.7,65.6z M48.2,67.6
	L48,67l0.7-0.3l0.3,0.6L48.2,67.6z"/>
<path class="st0" d="M65,72.4c-0.8,0.6-0.1,1.8,0.9,1.3C66.7,73.2,66,71.8,65,72.4z"/>
<path class="st0" d="M17.1,42.8L17.1,42.8L17.1,42.8z"/>
<path class="st0" d="M17.7,43.3c0-0.1,0.1-0.2,0.1-0.3c-0.2-0.1-0.5-0.2-0.7-0.3c0,0.1-0.1,0.2-0.1,0.3
	C17.2,43.1,17.5,43.2,17.7,43.3z"/>
<path class="st0" d="M21.7,44.6c-1.1-0.3-2-1.2-3.2-0.9C19.6,43.9,20.5,44.8,21.7,44.6z"/>
<path class="st0" d="M27.8,47c-0.3-0.5-0.7-0.7-1.4-0.8C26.6,47,27.1,47.1,27.8,47z"/>
<path class="st0" d="M0.3,47.9c-0.1,0-0.2,0-0.3,0v1.3C0.4,49,0.7,48.6,0.3,47.9z"/>
<path class="st0" d="M0,35.6v0.8c0.9,0.5,1.9,0.7,3,0.7C2.1,36.5,1.1,35.9,0,35.6z"/>
<path class="st0" d="M16.5,42.5c-4-1.7-7.7-3.3-11.6-4.5c0.3,0.4,0.8,0.6,1.2,0.7C9.7,39.6,12.6,43,16.5,42.5L16.5,42.5z"/>
<path class="st0" d="M49.4,53.7c-0.2-0.1-0.5-0.1-0.7-0.2c-0.1,0.3,0.4,0.4,0.5,0.6C49.3,54,49.4,53.9,49.4,53.7z"/>
<path class="st0" d="M33.5,48.9c-1.1-0.7-2.1-1-3.1-1.2C31.1,48.6,32,49.2,33.5,48.9z"/>
<path class="st0" d="M48.7,54.8L48.7,54.8L48.7,54.8z"/>
<path class="st0" d="M47.8,53.3l-3.7-0.9C44.2,53.4,47.5,54.1,47.8,53.3z"/>
<path class="st0" d="M48.9,55.3c0-0.2,0.1-0.6-0.2-0.5c-0.1,0.1-0.1,0.2-0.2,0.4C48.6,55.2,48.7,55.2,48.9,55.3L48.9,55.3z"/>
<path class="st0" d="M37.8,50.2c-0.8-0.3-1.2-0.9-2.1-0.2C36.4,50.4,36.9,50.6,37.8,50.2z"/>
<path class="st0" d="M44.1,52.3L44.1,52.3L44.1,52.3z"/>
<path class="st0" d="M43,52.2c0-0.1,0.1-0.2,0.1-0.3c-0.2-0.1-0.5-0.2-0.7-0.3c0,0.1-0.1,0.2-0.1,0.3C42.5,52.1,42.7,52.1,43,52.2z"
	/>
<g>
	<path class="st0" d="M102,73.6c0.5,0.1,1,0.2,1.5,0.2c0.7,0.1,1.3,0.1,2,0.2c1.3,0.1,2.7,0.3,4,0.4c0.2,0,0.4-0.1,0.6-0.2
		c3.7,0.4,7.4,0.9,11.2,1.1c1.8,0.1,3.7,0.2,5.5,0.1c1.8-0.1,3.7-0.6,5.5-0.4c0,0,0.1,0,0.1,0c1.7,0,3.4-0.1,5.1-0.2
		c0,0,0.1,0,0.1,0c0.3,0,0.5,0.1,0.8,0.1c0,0,0.1,0,0.1,0c5.6,2,13,2.8,21.6,2.9v-3c-1.9,0-3.7,0-5.5-0.2c-0.6-0.3-1.5,0.3-1.7-0.5
		c-0.4-0.8-1.2,0.2-0.5,0.7c-3.4-0.8-6.9,0.1-10.6-0.7c-0.1-0.1-0.2-0.2-0.3-0.3l0.2,0.4l-1.8,0.8c0-0.1-0.2-0.4-0.2-0.5l1.7-0.8
		c-0.7-0.5-1.7-0.2-2.5,0c0,0,0,0-0.1,0c-0.1,0-0.3-0.1-0.4-0.1c-0.1-0.4-0.4-0.8-0.9-0.8c-0.4,0-0.9,0-1.4,0.1
		c-0.1,0.1-0.3,0.1-0.5,0.1c-0.4,0-0.7,0-1.1-0.1c-0.3,0-0.6,0-0.9,0c-0.2,0.1-0.3,0.2-0.6,0.2c-0.2,0-0.4-0.1-0.5-0.2
		c-0.6,0-1.2,0-1.8,0c-0.1,0-0.1,0.1-0.2,0.1c-0.1,0.1-0.3,0.1-0.4,0.1h-1.1c-0.2,0-0.4-0.1-0.6-0.2c-1.1,0-2.3,0-3.4-0.1
		c0,0,0,0-0.1,0c-0.1,0.1-0.3,0.1-0.4,0.1c-0.2,0-0.4,0-0.6,0c-0.3,0-0.6,0-0.8-0.1c-0.1,0-0.1,0-0.2-0.1c-1.2,0-2.4-0.1-3.5-0.1
		c0,0-0.1,0.1-0.1,0.1c-0.1,0.1-0.3,0.1-0.4,0.1c-0.4,0-0.7,0-1.1,0c-0.2,0-0.4-0.1-0.6-0.2c-1,0-2-0.1-3-0.1
		c-0.2,0.1-0.4,0.2-0.6,0.2c-0.5,0-1-0.2-1.5-0.3c-0.7,0-1.3-0.1-2-0.1c-0.6-0.1-1.2-0.1-1.8-0.2c0,0-0.1,0.1-0.1,0.1
		c-0.2,0.1-0.5,0.2-0.8,0.1c-0.6-0.2-1.2-0.4-1.9-0.6c-0.5-0.1-0.9-0.1-1.4-0.2c-0.1,0.1-0.3,0.1-0.4,0.1c-0.2,0-0.4-0.1-0.6-0.2
		c-0.5,0-1-0.1-1.5-0.1c-0.1-0.2-0.3-0.4-0.4-0.5l0.2-0.1c-0.6-1.9-1.7,0.4-3.2-0.1c0.2-0.2,0.3-0.5,0.5-0.8c-0.8-0.2-3-0.6-1.4,0.3
		c-1.8,0-3.6,0.4-5-0.9c-1.3,1.3-2.5,0-4.1,0.2c-1,0.3-1.6-1.5-2.5-0.8h-1.1c0.1-0.1,0.2-0.2,0.4-0.3c-0.9-0.2-1.1,0.1-1,0.3
		c-3.5-0.1-7-1.5-10.8-1.9c0.5-0.8-0.6-0.9-1.3-0.1c0.1,0.1,0.3,0.2,0.4,0.3c-2-0.4-3.8-1.2-6-1.3c0.6-1.5-3.2,0.2-4.4-0.6v-0.1
		c0.3-0.1,0.7-0.3,0.9-0.4c-0.6-0.2-0.8-0.1-0.9,0.1c0-0.1-0.1-0.2-0.1-0.3c-4.1,0.6-7.6-2-11.8-2.3c0.2-0.1,0.5-0.3,0.7-0.4
		C50,61,49.1,61.5,48,60.9c0.3,0.4,0.4,0.6,0.7,0.9c-1.2-0.2-2.6,0-3.4-1c-0.7-1.7-3.2,0.8-4.5-1.6c-0.7-0.1-1.4,0.5-1.7-0.4
		c-1.2,0.4-2-0.3-2.2-1.6c-1.4,3.5-2.2-2-3.9-0.4c-1.8-0.5-3.8-0.7-5.1-2c-2.3-0.1-4.5-1.1-6.8-1.8c-1.5-1.2-3.8-1.5-5.7-2.3
		c1.3-0.7-2-1.9-1.4-0.5c-1.8-0.2-3.3-0.8-4.3-2.5c-0.3,0.2-0.1,0.4-0.2,0.9c-0.6-0.2-1.3-0.5-1.9-0.7c0.5-0.2,1.1,0,1.1-0.5
		c-0.7-0.1-1.4-0.6-2.2-1c0.1,0.4,0.5,0.5,0.7,0.7H6.8l0.1,0.3l-2,0.9l-1-2.3L4,45.8H2.4C1.9,44.9,1,44.5,0,44.2v3.1
		c11.5,4.8,23.1,9.3,34.5,13.5c-0.2,0.2-0.5,0.5-0.8,0.7c1,1,2.7,2,3.3,0.1c0.7,1,0,2.3,1.5,2.5c-0.5,1.9-2.1-0.2-2.7,1.1
		c1.4,1.2,0.1,0.6-1,0.1C38.2,71.1,9.2,58,0,54.3V600h160V172.2c0,0,0-0.1-0.1-0.1V161c0,0,0,0,0.1,0.1v-4.4c0,0,0,0-0.1,0.1v-4.6
		c0,0,0,0,0.1,0V149c0,0,0,0-0.1,0v-1.3h0.1v-6.1c0,0,0,0,0-0.1V83.7c-15.5-0.7-29.8-1.2-39.7-1.5c-0.4-0.2-0.7-0.3-1.1-0.3
		c0,0.1,0.1,0.2,0.1,0.3c-1.2,0-2.3-0.1-3.4-0.1c-0.6-0.7-1.4-1-2.9-0.8c0.1,0.2,0.2,0.5,0.3,0.7c-4.5-0.1-7.1-0.2-7.1-0.2
		c-14.4-5.1-33.7-3.2-49.3-8.5c-4.9,0.6-8.9-5.7-9.1-2.4c-13.7-1.9-2.7-2.8-8-5.4c-0.1,0.7-0.2,1.3-0.3,2c-2.2-0.6,0-2.5,0.4-3.5
		L39,64.3l-0.2-0.5l0.8-0.4C58.8,65.7,81.1,72.6,102,73.6z M14.4,51.1l-0.3-0.7l0.8-0.3l0.3,0.7L14.4,51.1z M39,62.5l1.2-0.5
		l0.3,0.8l-1.2,0.5L39,62.5z"/>
	<path class="st0" d="M22.7,52.7c-0.7-0.2-1.1-0.1-1.6,0.3C21.6,53,22.1,53.3,22.7,52.7z"/>
</g>
<path class="st0" d="M132.9,65.7c-0.2,0-0.4,0-0.5-0.1C132.4,65.9,132.7,65.7,132.9,65.7z"/>
<path class="st0" d="M126.8,65c0.1,1.1,0.9,1,1.9,1.1l0,0C128.5,65,127.6,65.1,126.8,65L126.8,65z"/>
<path class="st0" d="M143.5,73.8c-0.4-0.4-0.5-0.3-0.9,0C142.9,74.3,143.1,74.1,143.5,73.8z"/>
<path class="st0" d="M138.1,61.5c-0.7-0.1-1.5-0.2-2.2-0.3l0-0.1c-0.1-0.1-0.1-0.1-0.2-0.1c-0.1,0-0.2,0-0.3-0.1c-0.1,0-0.1,0-0.2,0
	c-0.1,0-0.1,0-0.2,0c-5.2-0.2-10.5-0.5-15.7-0.7c-2.7-0.1-5.3-0.2-8-0.4c-2.7-0.1-5.3-0.2-8-0.4c-2.8-0.2-5.4-0.9-8.1-1.5
	c-7.9-4-23.8-0.1-30.4-6.4c-0.6-2.6,0,2.2-7.7-0.1c0.8-1.2-1.5-2.2,0.4-2.3c-0.3-0.5-0.5-0.9-0.8-1.5c-0.8,1.1-1.9,1.6-0.8,2.8
	C36.8,46.2,17.9,39.2,0,31.1v1.6c21.6,8.8,43.9,16.1,63.6,24c-2.1,0.2-4-0.8-6.2-0.8c1.5,0.9,3.3,0.7,4.8,1.3
	c-0.2,0.5-0.4,0.9-0.6,1.5c1.3,0.6,1.5,0.2,2-1c2.5,0.6,1.5-1.7,0.7-2.9c8.7,2.3,22.2,2.9,33.1,4.8c0,0,0,0,0,0
	c1.5,0.3,3,0.6,4.5,0.8c2.6,0.3,5.3,0.4,7.9,0.5c5.4,0.2,10.9,0.5,16.3,0.7l9.1,0.4c0.1,0.1,0.2,0.2,0.4,0.2c0,0,0.1,0,0.1,0
	c0.9,0.1,1.7,0.2,2.6,0.4c0.2,0,0.3,0,0.4-0.1c7,1,14.1,1.5,21.3,1.6V62C152.6,62.1,145.3,61.9,138.1,61.5z"/>
<path class="st0" d="M120.9,64.3c0.2,0.8,0.8,0.8,1.6,0.9C122.3,64.3,121.7,64.2,120.9,64.3z"/>
<path class="st0" d="M120.9,64.3L120.9,64.3L120.9,64.3z"/>
<path class="st0" d="M100.4,62.9c0.7,1,3.1,0.6,4.3,0.6C104,62.6,101.7,63,100.4,62.9z"/>
<path class="st0" d="M107.9,63.5c0.1,1.1,0.9,1,1.9,1.1l0,0C109.6,63.5,108.7,63.6,107.9,63.5L107.9,63.5z"/>
<path class="st0" d="M130.8,65.9c-0.1-0.1-0.1-0.2-0.1-0.3l0,0c-0.2,0-0.4,0-0.6,0.1C130.2,66.1,130.5,65.9,130.8,65.9L130.8,65.9z"
	/>
</svg>
