<?xml version="1.0" encoding="utf-8"?>
<!-- Generator: Adobe Illustrator 26.5.0, SVG Export Plug-In . SVG Version: 6.00 Build 0)  -->
<svg version="1.1" id="a" xmlns="http://www.w3.org/2000/svg" xmlns:xlink="http://www.w3.org/1999/xlink" x="0px" y="0px"
	 viewBox="0 0 160 600.1" style="enable-background:new 0 0 160 600.1;" xml:space="preserve">
<style type="text/css">
	.st0{fill:#FFFFFF;}
</style>
<g>
	<path class="st0" d="M121.2,100l-1.4,4.6c0.1,0,0.3,0.1,0.4,0.1c0.7-1.5,1.8-2.9,1.4-4.6l0,0C121.5,100.1,121.4,100,121.2,100
		L121.2,100z"/>
	<path class="st0" d="M114.4,118.2c0.3-0.8,0.6-1.5,0.9-2.3c-0.1,0-0.3-0.1-0.4-0.1c-0.3,0.8-0.7,1.5-1,2.3
		C114.2,118.1,114.3,118.1,114.4,118.2z"/>
	<path class="st0" d="M125.2,90.2c-0.1,0-0.3-0.1-0.4-0.1c-0.8,0.9-1.2,1.8-0.9,2.9C124.3,92,124.8,91.1,125.2,90.2L125.2,90.2
		L125.2,90.2z"/>
	<path class="st0" d="M123.1,95.7c0.3-0.7,0.7-1.3,0.9-2c0.1-0.2-0.1-0.4-0.1-0.6l-0.1,0.2c-1.1,1.4-1.7,3.6-1.4,4.2l0,0
		C122.5,97,122.8,96.4,123.1,95.7L123.1,95.7z"/>
	<path class="st0" d="M104.2,119.7c0.6-1.2,1.2-2.4,1.8-3.7c0.7-1.6,1.2-3.2,2-4.8c1.4-2.9,2.9-5.8,4.2-8.8c0.6-1.5,0.8-3.1,1.2-4.6
		c0.1-0.2,0.1-0.4,0.2-0.6c0.6-1.7,1.1-3.4,1.8-5.2c0.6-1.7,1.3-3.3,2.1-4.9c0.5-1.1,1.4-2.1,1.6-3.2c0.1-0.9,0.3-1.4,1-2
		c0.4-0.4,0.5-1.1,0.9-1.6c0.5-0.8,1-1.6,1.5-2.4c0.5-0.8,1.4-1.4,1.7-2.2c0.5-1.7,2-2.7,3.3-3.7c1.6-1.2,3.3-2.2,5.2-3.4
		c1.8,0,2.9-2.3,4.8-2.6c0.4,0.2,0.8,0.3,1.2,0.2c0.6-0.2,1.1-0.7,1.6-0.7c2.1-0.2,4.1-0.4,6.2-0.4c0.6,0,1.2,0.4,1.8,0.5
		c0.5,0.1,0.9,0.2,1.4,0.3l1.4,0.2c1.2,0.2,2.4,0.4,3.5,0.8c1.9,0.6,3.8,1.6,5.4,2.6c0.1,0.1,0.2,0.1,0.3,0.2v-1.6
		c-0.8-0.5-1.6-1-2.6-1.4c-2.5-1.1-4.7-2.6-7.7-2.5c-1.9,0-3.8-0.5-5.7-0.4c-2.1,0.2-4.3,1.2-6.5,0.9c-0.1,0-0.3,0.1-0.4,0.1
		c-0.2,0.1-0.5,0.2-0.7,0.4l-1.5,0.7c-1,0.5-2,1-2.9,1.6c-1.6,1-3.2,2.1-4.7,3.2c-1.2,0.9-2.4,2-3.3,3.2c-1.4,1.7-2.4,3.7-3.8,5.4
		c-2.3,2.8-2.9,6.1-4.7,9c-0.4,0.6-0.6,1.2-0.7,1.9l-0.2,0.7c-0.1,0.3-0.2,0.7-0.3,1c-0.4,1.1-1,2.2-1.3,3.3
		c-0.9,2.8-1.6,5.8-2.6,8.6c-0.7,1.9-1.5,3.8-2.3,5.6l-0.8,1.9c-0.5,1.2-1.3,2.3-1.8,3.5c-0.6,1.2-1,2.4-1.5,3.7
		c-0.2,0.4-0.1,0.9-0.1,1.3C103.8,119.7,104,119.7,104.2,119.7L104.2,119.7z"/>
	<path class="st0" d="M160,81.5c-0.2-0.3-0.4-0.5-0.6-0.8c-0.1,0.1-0.2,0.2-0.4,0.2c0.3,0.4,0.6,0.8,1,1.2L160,81.5L160,81.5z"/>
	<path class="st0" d="M103.4,126.6c-1.1,0.5-2.1,1.2-1.8,2.6l3.4-2.1c0-0.2,0-0.3,0.1-0.5C104.6,126.6,103.9,126.4,103.4,126.6
		L103.4,126.6L103.4,126.6z"/>
	<path class="st0" d="M160,94.8v-0.6c-0.2-0.1-0.4-0.2-0.7-0.3C159.6,94.2,159.8,94.5,160,94.8z"/>
	<path class="st0" d="M125.5,88.7c0.1,0.1,0.2,0.1,0.3,0.1c0.2-0.4,0.4-0.9,0.7-1.3c-0.2,0-0.3-0.1-0.4-0.1l0,0
		C125.9,87.8,125.7,88.3,125.5,88.7z"/>
	<path class="st0" d="M0,189.1c0.2-0.3,0.4-0.6,0.7-0.9c1.8-2.3,3.5-4.5,5.1-6.9c2.2-3,3.7-6.3,5.1-9.7c1.6-3.7,3.5-7.4,5.2-11.1
		c0.6-1.3,0.8-2.8,1.3-4.1c1-2.6,2.2-5.3,3.3-7.9c0.6-1.4,1.1-2.7,1.7-4.1c0.7-1.6,1.5-3.1,2.1-4.7c0.6-1.4,1.2-2.7,1.8-4.1
		c1.5-3.1,3-6.2,4.4-9.3c0.9-1.9,1.6-3.9,2.6-5.8c1.8-3.4,3.4-6.8,5.5-10c2.2-3.4,5-6.5,7.3-9.9c2.5-3.6,5.9-6.1,9.5-8.5
		c1.2-0.8,2.1-1.9,3.4-2.6c1.2-0.6,2.3-1.2,3.5-1.8l2.4-1.1c0.8-0.4,1.6-0.8,2.4-1.2c3.3-1.7,6.6-1.3,9.8-1c2.6,0.3,5.2,0.8,7.7,1.3
		c0.6,0.1,1.2,0.6,1.7,1c1.4,1.4,3.7,1.7,4.8,3.5c0.5,0.8,1.1,1.6,1.7,2.3c0.5,0.6,1.2,1,1.6,1.6c1.3,2.1,2.7,4.2,3.7,6.5
		c1,2.4,1.5,5,2.1,7.5c0.4,1.8,0.8,3.7,1.4,5.6c0.7-1.8,1.3-3.5,2.1-5.2c1.4-3.2,3-6.3,4.3-9.5c1.1-2.8,1.7-5.7,2.7-8.6
		c0.7-1.9,1.6-3.8,2.4-5.6c1.1-2.4,2.1-4.8,3.3-7.1c0.5-0.9,1.3-1.7,2-2.6c0.4-0.5,0.9-1.1,1.2-1.6c1.3-2.7,3.4-4.6,6.1-6
		c0.7-0.4,1.2-1,1.8-1.6c0.2-0.2,0.4-0.4,0.6-0.5c2-1.1,3.9-2.4,5.9-3.3c1.4-0.6,3-0.9,4.5-1.2c2.8-0.4,5.7-1.2,8.5-0.7
		c3,0.6,5.9,1.2,8.8,2c1.3,0.4,2.6,0.9,3.8,1.6V0H0V189.1z"/>
	<path class="st0" d="M106.9,128.9l-4.6,2.9C104.1,131.2,105.8,130.5,106.9,128.9z"/>
	<path class="st0" d="M104.4,145.6c0,0.1,0.1,0.2,0.1,0.3c1-0.4,2-0.8,2.9-1.1c0-0.1-0.1-0.3-0.1-0.4l0,0
		C107.3,144.3,104.4,145.6,104.4,145.6z"/>
	<path class="st0" d="M115.8,140.1c0.4-0.5,0.9-0.9,1.4-1.4c-0.1-0.1-0.2-0.1-0.2-0.2c-0.5,0.4-0.9,0.9-1.4,1.3
		C115.6,139.9,115.7,139.9,115.8,140.1L115.8,140.1z"/>
	<path class="st0" d="M139.1,85.3c0.8-0.6,1.4-1.2,2.1-1.6c2.1-1,3.8-0.2,5.3,0.8c2.2,1.6,4.3,3.3,5.9,5.6c0.5,0.7,1.2,1.3,1.8,1.9
		c1.9,2,3.7,4.2,5.8,6v-3.1c-0.4-0.2-0.8-0.5-1-0.8c-0.5-0.6-0.9-1.3-1.3-2c-0.3-0.6-0.8-0.9-1.4-1.3l-0.3-0.2
		c-0.8-0.5-1.6-1.1-1.6-2.2c0-0.2-0.5-0.4-0.8-0.5c-0.4-0.2-0.8-0.3-1.2-0.5c0.3-0.9,0.2-1.4-0.9-1.4c-0.3,0-0.8-0.2-1-0.5
		c-1.3-1.7-3.3-2.5-5.5-2.7c-1.2-0.1-2.6-0.2-3.6,0.3c-1.5,0.8-3,2.1-4,3.4c-1.5,1.9-2.6,4.1-3.8,6.1c-0.4,0.6-0.8,1.2-1,1.9
		c-0.4,1.1-0.6,2.2-1,3.4c-0.4,1.1-0.8,2.2-1.2,3.2c0,0-0.2-0.1-0.5-0.3c-0.1,0.5-0.2,0.9-0.3,1.3c0.3,0.1,0.5,0.2,0.8,0.2
		c-1.2,2.3-1.1,5-3,6.9c-0.1,0.4,0,0.8-0.2,1.1c-0.3,0.6-0.9,1.1-1,1.7c-0.3,2.1-1.1,4-2.7,5.6c-0.2,0.2-0.3,0.6-0.4,0.9
		c0,0.3,0.2,0.7,0.1,0.9c-0.3,0.9-0.8,1.7-1.2,2.6c-0.3,0.6-0.5,1.3-0.8,1.9c-0.4,0.9-0.9,1.9-1.4,2.8c-0.1,0.2-0.1,0.4-0.1,0.6
		c-0.2-0.2-0.3-0.3-0.3-0.3c-0.7,0.8-1.2,1.6-1.9,2.4c-1,1.2-1.3,2.8-2.8,3.9c-0.8,0.6-1.5,1.6-2.6,2.3c-1.2,0.8-2.3,1.7-3.5,2.5
		c-0.7,0.4-1.5,1.1-2.1,1c-1.1-0.2-2,0.1-2.9,0.7c-0.8,0.6-1.7,1.2-2.6,1.8c-0.6-0.9-1.2-1.3-1.8-0.6c-2-0.3-3.8-0.7-5.7-1
		c-0.1,0.1-0.1,0.2-0.2,0.4c-0.2-0.2-0.5-0.5-0.6-0.5c-0.4,0.1-0.7,0.3-0.7,0.2c-0.8-0.4-1.5-0.9-2.2-1.4c-0.9-0.7-1.7-1.4-2.5-2.1
		c-0.6-0.5-1-1.1-1.7-1.8c0.5,0.2,0.8,0.3,1.1,0.4c0.2-0.1,0.3-0.2,0.4-0.3c-3.2-1.7-3.3-5-4.1-7.9c-0.2,0.1-0.3,0.1-0.4,0.2
		c0.2,0.3,0.3,0.7,0.4,1c-0.5-0.3-1-0.6-1.2-1.1c-0.5-2-0.3-4.3-1.6-6c-0.1-0.2-0.2-0.4-0.1-0.6c0.7-1.5-0.9-2.5-0.4-4.1
		c0.3-1-0.7-2.2-1.2-3.5c0,0-0.1,0.1-0.1,0.1c0-0.1-0.1-0.2-0.1-0.2l-0.1-0.6c0,0,0-0.1-0.1-0.1c-0.2-0.5-0.3-1.1-0.5-1.6
		c0-0.5-0.1-1-0.4-1.4c0.1-1.6-1.7-2.1-2.9-2.5c-0.3-0.2-0.7-0.2-1.2-0.1c0.2,0,0.5,0,0.7,0c0.3,0.3,0.5,0.7,0.8,1
		c0,0.1,0,0.1,0,0.2c0.5,1.2,0.7,2.5,0.9,3.7c0,0.7,0,1.4,0.3,2.1c0.2,1.1,0.3,2.4,0.6,3.7c0.4,2,1.2,3.9,1.5,6
		c0.3,1.8,0,3.8,1.9,4.9c0.1,0.1,0.1,0.3,0.2,0.5c0.8,1.7,1.5,3.3,2.3,5c0.2,0.4,0.8,0.8,0.9,1.2c0.2,1.8,1.4,2.9,2.7,3.8
		c0.1,0.5,0.1,1.1,0.4,1.3c0.8,0.6,1.8,1,2.7,1.6c0.4,0.2,0.7,0.7,1,1c-0.1,0.1-0.1,0.3-0.2,0.4c0.6-0.2,1.2-0.5,1.8-0.6
		c0.2-0.1,0.7-0.1,0.8,0c0.5,0.7,1.2,0.7,2,0.7l0.5,0c0.3,0,0.7,0,1,0.1c1,0.3,2.3,1.2,3.6-0.1c0.1-0.1,0.5,0.1,0.8,0.1
		c0.4,0.1,0.9,0.3,1.2,0.2c1.3-0.4,2.6-0.8,3.8-1.4c2.2-1.2,4.4-2.6,6.6-3.8c1.5-0.8,2.6-1.9,3.6-3.2c1.1-1.4,2.8-2.5,3.5-4.3
		c0.3-0.8,0.8-1.4,1.4-2l0.4-0.4c0.7-0.8,1.4-1.7,1.6-2.9c0.1-0.8,0.5-1.7,0.9-2.5l0.3-0.6c0.2-0.3,0.3-0.6,0.5-0.9
		c0.9-2.1,2-4.1,2.9-6.2c0.5-1,0.8-2,1.3-3c0.9-2.5,2-4.9,2.9-7.4c1-2.8,1.7-5.6,2.5-8.4c0.4-1.4,0.9-2.7,1.5-4
		C136.6,90,137.9,87.6,139.1,85.3L139.1,85.3z"/>
	<path class="st0" d="M134.4,107c0.2-0.6,0.3-1.2,0.5-1.8c0,0-0.1,0-0.1,0c-0.2,0.6-0.4,1.2-0.6,1.8C134.2,107,134.3,107,134.4,107
		L134.4,107z"/>
	<path class="st0" d="M92.4,146.1c0.8,0.1,1.6,0.3,2.4,0.4c0,0,0-0.1,0-0.1c-0.8-0.2-1.5-0.4-2.3-0.6
		C92.5,145.9,92.5,146,92.4,146.1z"/>
	<path class="st0" d="M134.4,76.9c1.2-0.8,2.5-1.7,3.8-2.6c-0.1-0.1-0.1-0.2-0.2-0.2l0,0C136.8,75,135.2,75.4,134.4,76.9z"/>
	<path class="st0" d="M157.2,79.1c-2.6-3-5.7-5.3-10.2-5.5C151,74.6,154.4,76.4,157.2,79.1z"/>
	<path class="st0" d="M160,77.6v-2.4c-1-0.9-2.1-1.8-3.2-2.6c-1.4-1-3.1-1.7-4.8-2.5c-0.7-0.3-1.5-0.8-2.3-0.7
		c-2.8,0.2-5.4-0.9-8.3,0.1c-1.1,0.3-2.4,0-3.4,0.5c-2.7,1.4-5.6,2.9-8,4.8c-1.8,1.5-3.1,3.7-4.6,5.5c-2.2,2.7-3.2,5.8-4.7,8.7
		c-0.9,1.8-1.5,3.8-2.2,5.8c-0.4,1.1-0.5,2.3-0.9,3.4c-0.6,2-1.3,3.9-2,5.9c-0.2,0.6-0.5,1.2-0.8,1.8c-0.8,1.9-1.6,3.7-2.4,5.6
		c-0.3,0.7-0.5,1.5-0.8,2.1c-0.3,0.6-1,1.1-1.2,1.7c-0.7,1.7-1.2,3.3-2,5c-0.3,0.7-0.9,1.4-1.5,2c-1,1-1.2,2.1,0,3
		c1.3-2.1,2.8-4.1,3.9-6.2c1.4-2.8,2.4-5.8,3.7-8.7c1.2-2.7,2.5-5.4,3.7-8.1c0.3-0.8,0.2-1.7,0.4-2.5c0.3-1.1,0.8-2.2,1.1-3.2
		c0.9-2.7,1.8-5.4,2.8-8c0.7-1.7,1.6-3.4,2.6-5c1.3-2.2,2.7-4.3,4.2-6.4c1.1-1.3,2.8-2,4.2-3.1c2.7-2,5.4-3.4,8.7-3.5
		c2.6-0.1,5.1,0.1,7.4,0.9c0.9,0.3,1.8,0.5,2.6,0.9c2.1,1,3.9,2.2,5.7,3.6C158.8,76.6,159.4,77.1,160,77.6L160,77.6z"/>
	<path class="st0" d="M80.6,138.5c0.3,0.4,0.7,0.9,1,1.3c0.1-0.1,0.2-0.2,0.4-0.3c-0.4-0.4-0.8-0.8-1.1-1.1l0,0
		C80.8,138.4,80.7,138.5,80.6,138.5L80.6,138.5z"/>
	<path class="st0" d="M35.2,174.9c0.1-0.1,0.2-0.3,0.3-0.4c0.5-1,1-2.1,1.4-3.1c1.2-2.7,2.5-5.3,3.6-8c0.5-1.2,0.6-2.5,1-3.7
		c0.5-1.6,1.2-3.1,1.9-4.6c0.2-0.6,0.6-1.1,0.8-1.7c0.8-2,1.7-4,2.5-6c1-2.2,2-4.4,2.9-6.6c0.6-1.3,1.1-2.6,1.7-3.9
		c1.1-2.4,2.2-4.8,3.4-7.2c0.2-0.4,0.4-0.8,0.5-1.1l1.1-2.3c0.7-1.5,1.5-3,2.3-4.5c0.8-1.5,2-2.9,3.1-4.3c1-1.4,2.1-2.8,3.2-4.2
		c0.4-0.6,1-1,1.6-1.7c-0.1-0.1-0.1-0.2-0.1-0.4c-0.2,0.2-0.3,0.3-0.5,0.5c0,0,0,0,0,0c-1.2,0.9-2.5,2-3.1,3
		c-0.2,0.4-0.6,0.8-0.9,1.2l-0.3,0.4c-0.6,0.7-1.2,1.4-1.3,2.3c0,0.3-0.7,0.6-1,1c-1.4,1.8-3,3.6-4,5.6c-0.5,1.1-0.8,2.3-1.5,3.4
		c-0.2,0.3-0.5,0.5-0.8,0.7c-0.2,0.2-0.4,0.4-0.4,0.6c0.2,1.6-0.6,2.9-1.5,4.3l-0.3,0.4l-0.1,0.2c-0.5,0.8-0.7,1.7-1,2.7
		c0,0-0.1,0-0.1,0c-0.5,1.3-0.8,2.5-1.3,3.6c-0.6,1.2-1.5,2.2-1.5,3.7c0,1.1-1.2,2.4-1.7,3.6c-0.3,0.7-0.4,1.4-0.6,2.1
		c-0.2,0.5-0.4,1-0.6,1.4c-0.1,0-0.2,0-0.3,0c-0.1-0.2-0.1-0.4-0.2-0.7c-0.2,0.2-0.4,0.3-0.4,0.4c-0.1,1.2-1,2.2-1,3.5
		c-0.1,1.3-1.2,2.7-1.9,4.1c0,0.1-0.2,0.2-0.3,0.2c-0.2,0.1-0.4,0.3-0.7,0.4c0.2,0.2,0.3,0.4,0.7,0.7l-0.7,1.4
		c-0.3,0.6-0.7,1.3-1,2.1c0.1,0,0.3,0,0.6,0c-0.1,0.2-0.2,0.6-0.3,0.6c-1,0.2-1.1,0.9-1.3,1.6c-0.7,2.2-1.4,4.4-2.2,6.5
		c-0.3,0.9-1,1.7-1.5,2.6c-0.3,0.6-0.4,1.4-0.7,2c-0.2,0.4-0.7,0.6-0.8,0.9c-0.8,2-1.6,4-2.4,6c0,0-0.1,0-0.1,0l-0.2,0.1
		c-0.7,0.2-1.4,0.5-1.1,1.6c0,0.2-0.2,0.6-0.5,0.9l-0.2,0.2c-0.1,0.1-0.2,0.2-0.3,0.4c0.1,0,0.3,0.1,0.7,0.2c-0.8,1-1.6,1.9-2.4,2.8
		c-0.4,0.4-0.6,1-0.8,1.5c-0.4,1-0.6,2-1.8,2c0,0.4,0.2,0.9,0,1.2c-0.3,0.7-0.7,1.3-1.2,1.9c-0.1,0.1-0.5,0.1-0.9,0.2
		c-0.2,0.6-0.5,1.2-0.7,1.9c-0.1-0.1-0.3-0.2-0.4-0.3c-0.5,0.4-1.2,0.8-1.3,1.2c-0.4,2.5-2.9,3.8-4.2,5.8c-0.6,1-1.2,1.7-2.2,2.4
		c-0.4,0.2-0.8,0.5-1.2,0.7c0.4,0.7,0,1.1-0.5,1.5l-0.2,0.1c-0.1,0.1-0.3,0.2-0.4,0.4c-0.5,0.6-1.1,1.1-1.7,1.7
		c-0.9,1-1.8,2.1-2.8,3.2l-0.4-0.7c-0.7,0.7-1.3,1.4-2,2.1c-0.6,0.6-1.1,1.2-1.6,1.9c0.1,0.1,0.2,0.2,0.3,0.3
		c-0.3,0.2-0.6,0.3-0.9,0.4L0,220.2v2.4c0.6-0.5,1.1-0.9,1.7-1.4c1.5-1.3,2.8-2.9,4.3-4c0.9-0.6,1.2-1.3,1.8-2
		c0.9-1.1,2.1-1.9,3.1-2.9c1.2-1.3,2.2-2.6,3.3-4c0.6-0.7,1.3-1.2,1.9-1.9c0.5-0.6,0.7-1.3,1.2-1.9c0.4-0.4,1-0.7,1.2-1.2
		c1.3-1.4,2.5-2.9,3.8-4.3c0.1-0.2,0.4-0.3,0.5-0.5c0.5-1.7,1.9-3,3-4.4c0.9-1.2,1.5-2.7,2.3-4c2.1-3.3,3.8-6.7,5-10.4
		c0.2-0.5,0.6-1,0.9-1.5c0.2-0.3,0.5-0.7,0.5-0.9c-0.2-0.8,0.2-1.5,0.6-2.1L35.2,174.9L35.2,174.9z"/>
	<path class="st0" d="M73.2,97.4L73.2,97.4c1.5,0.1,2.7,0.2,3.9,0.3c0-0.2,0.1-0.5,0.1-0.7C75.9,97.6,74.9,96,73.2,97.4z"/>
	<path class="st0" d="M5,190c1.6-2.2,3.9-4.1,4.8-6.7c0.1-0.4,0.6-0.8,0.9-1.2c0.3-0.4,0.7-0.8,1-1.3c0.6-1.1,1.3-2.2,1.8-3.3
		c0.9-2.2,1.7-4.4,2.6-6.6c0-0.1,0.1-0.2,0.1-0.2l0.2-0.5c0.1-0.4,0.3-0.8,0.6-1.2c2.5-3.5,3.4-7.4,4.9-11.1
		c1.2-3.2,2.8-6.4,4.2-9.6c0.9-2.1,1.7-4.3,2.8-6.3c2-4.1,3-8.6,5.6-12.5c0.7-1.1,1-2.5,1.6-3.8c0.8-1.6,1.7-3.2,2.5-4.7
		c0.3-0.6,0.6-1.2,0.9-1.8l0.6-1.2c0.6-1.2,1.2-2.5,2-3.6c2.2-3.3,4.8-6.4,7.2-9.6c0.8-1.1,1.5-2.2,2.4-3.2c1.8-2,3.9-3.6,6.1-5
		c0.4-0.2,0.7-0.6,1.1-0.8c1.5-1.1,3-2.4,4.7-3.3c2.2-1.2,4.4-2.1,6.7-2.9c0.8-0.3,1.7-0.3,2.5-0.3c2.2,0.2,4.3,0.4,6.5,0.7
		c1.3,0.2,2.6,0.4,3.9,0.7c0.3,0.1,0.7,0.3,0.9,0.6c0.4,0.3,0.6,0.9,1.1,1c3,0.7,3.2,4.1,5.7,5.3c0.9,0.4,1.1,1.9,1.7,2.9
		c1.6,2.9,2.6,6,3.4,9.2c0.6,2.5,1,5,1.6,7.5c0.2,0.9,0.7,1.6,1.1,2.6c0.1-0.3,0.4-0.5,0.4-0.7c-0.8-3.9-1.2-7.9-2.5-11.7
		c-0.7-2.2-1.1-4.6-2.3-6.8c-0.8-1.6-1.9-2.9-3.1-4.2l-0.8-1c-1-1.1-2-2.3-2.7-3.6c0,0-0.1-0.1-0.1-0.1c-0.7-0.3-1.3-0.7-2-1
		l-0.6-0.3C83,89,81.1,87.9,78.6,88c-0.5,0-1-0.2-1.5-0.4c-1.1-0.3-2.2-0.1-3.3,0.1l-0.6,0.1C73,87.9,72.7,88,72.4,88
		c-2.3,0.4-4.5,0.6-6.6,1.8c-0.7,0.4-1.3,0.9-1.9,1.2c-2.1,1.2-4.3,2.4-6.4,3.7c-0.5,0.3-0.9,0.9-1.4,1.4c-1.3,1.2-2.6,2.4-4,3.6
		c-1,0.8-2,1.6-2.8,2.6c-1.5,1.8-2.7,3.7-4.1,5.6c-1,1.3-2.1,2.6-3,4c-0.9,1.4-2.1,2.9-2.4,4.4c-0.6,2.4-2.5,4.2-3.3,6.6
		c-1,2.8-2.7,5.5-4,8.3c-1.1,2.5-2,5.1-3.1,7.5c-1.1,2.5-2.5,4.8-3.6,7.3c-0.8,1.6-1.4,3.2-2.1,4.8c-0.5,1.1-1.1,2.2-1.5,3.3
		c-0.5,1.2-0.7,2.4-1.1,3.6c-1.1,3.4-2.6,6.6-4.3,9.8c-1,1.9-1.8,3.9-2.7,5.8l-0.6,1.5c-1.3,3-2.7,6.1-4.5,8.9
		c-0.8,1.2-1.7,2.3-2.5,3.5c-1.9,2.4-3.8,4.9-5.8,7.3c-0.2,0.2-0.4,0.4-0.6,0.7v1.3c0.7-0.9,1.4-1.8,2.1-2.7
		C3.1,192.4,4.1,191.2,5,190L5,190z"/>
	<path class="st0" d="M93.3,123.4c0.9,1.7,1.7,3.4,2.6,5.1c0.5,1,1.9,1.4,3.6,1.1c-0.6-0.5-1.3-1-1.9-1.6c-0.6-0.6-1.2-1.1-1.6-1.8
		c-0.6-1.2-0.5-2.9-1.4-3.9c-2.1-2.5-1.5-5.8-2.7-8.6c-0.5-1.2-0.3-2.7-0.5-4.1c-0.1-0.6-0.4-1.1-0.5-1.6c-0.1-0.4-0.3-0.9-0.4-1.3
		l-0.2-0.9c-0.4-1.4-0.9-2.9-1.7-4.2c-0.7-1-1.5-1.9-2.3-2.8c-0.5-0.6-1.2-1.2-1.5-1.9c-0.7-1.4-1.9-2-3.4-2.5
		c-0.3-0.1-0.6-0.4-0.9-0.6c-0.7-0.4-1.3-0.8-2.1-1c-0.5-0.2-1.1,0-1.6-0.1c-1.5-0.5-2.9-0.4-4.4,0.3c-0.4,0.2-1-0.3-1.5-0.1
		c-1.1,0.3-2.3,0.7-3.3,1.3c-2,1.1-3.8,2.4-5.8,3.5c-2.5,1.4-4.3,3.4-6.3,5.3c-1.6,1.4-2.8,3.2-4.2,4.6c-1.4,1.3-1.8,2.9-3,4.2
		c-1.2,1.2-1.8,2.9-2.7,4.4c-1.2,2.1-2.3,4.1-3.4,6.2c-1.1,1.9-2.5,3.8-3.3,5.8c-0.4,0.9-0.7,1.8-1.1,2.7c-1.2,2.6-2.1,5.3-3.2,7.9
		c-0.5,1.2-1.2,2.4-1.8,3.6c-0.2,0.5-0.2,1.1-0.5,1.6c-1.1,2.4-2.3,4.8-3.5,7.1c0,0.1-0.1,0.1-0.1,0.2c-0.3,2-1.8,3.7-2.4,5.5
		c-0.7,1.9-1.1,3.8-1.9,5.7c-0.7,1.8-1.6,3.5-2.4,5.2c-0.6,1.2-1,2.6-1.7,3.8c-2.3,3.9-3.5,8-5.8,11.9c-1.7,2.9-3.6,5.6-5.8,8.1
		c-1.6,1.8-2.9,3.9-4.3,5.7c-0.7,0.9-1.7,1.7-2.4,2.6c-0.7,0.8-1.3,1.6-2,2.3v2.1c1-1.2,2-2.4,3-3.5c2.9-3.4,5.8-6.7,8.6-10.1
		c0.6-0.8,1.2-1.6,1.7-2.4L14,187c0.3-0.4,0.5-0.8,0.8-1.2c1.3-1.9,2.2-3.9,3.4-5.8c1.7-2.8,2.5-5.8,3.9-8.6
		c0.8-1.6,1.7-3.1,2.4-4.7c1.2-2.9,2.2-5.8,3.4-8.7c1.1-2.7,2.4-5.4,3.6-8.2c0.3-0.6,0.6-1.3,0.8-2l1.6-3.9c0.5-1.3,1.1-2.6,1.7-3.9
		c1.3-3,2.8-6,4.2-9.1c0.7-1.5,1.3-3.1,2-4.6c0.7-1.4,1.6-2.8,2.3-4.3c0.6-1.2,1-2.5,1.7-3.6c2.4-3.6,4.9-7.2,7.4-10.7
		c0.8-1.2,1.7-2.5,2.8-3.4c2-1.7,4.1-3.3,6.2-4.8c2.1-1.4,4.2-2.8,6.4-4c1.4-0.8,2.9-1.1,4.4-0.9c1.6,0.2,3.2,0,4.8,0.2
		c1.2,0.2,2.4,0.8,3.4,1.4c2.1,1.4,3.7,3.2,5,5.3c2,3.3,3.1,7,3.8,10.8C90.7,116.2,91.5,120,93.3,123.4L93.3,123.4z"/>
	<path class="st0" d="M1.9,206.8L1.9,206.8c1-1.2,2-2.5,3-3.7c-0.1-0.1-0.3-0.2-0.4-0.3c-1,1.2-1.9,2.5-2.9,3.7
		C1.7,206.6,1.8,206.7,1.9,206.8z"/>
	<path class="st0" d="M26.8,167.4c-0.7,1.2-1.3,2.5-2,3.8c0.2,0.1,0.4,0.1,0.5,0.2l0,0c0.7-1.2,1.4-2.5,2-3.7
		C27.2,167.5,27,167.4,26.8,167.4z"/>
	<path class="st0" d="M21.6,180L21.6,180c0.8-1.9,1.5-3.8,2.3-5.8c-0.1-0.1-0.3-0.1-0.5-0.1c-0.9,1.9-1.7,3.8-2.5,5.7
		C21.2,179.9,21.4,180,21.6,180L21.6,180z"/>
	<path class="st0" d="M112.3,135.8c0.7-0.7,1.4-1.5,2.1-2.2c-0.1-0.1-0.2-0.2-0.4-0.3c-0.7,0.8-1.3,1.5-1.9,2.3
		C112.1,135.7,112.2,135.8,112.3,135.8z"/>
	<path class="st0" d="M31.2,156.3c-0.3,0.7-0.5,1.4-0.8,2.1l0.4,0.1c0.3-0.7,0.6-1.4,0.9-2.1C31.5,156.4,31.3,156.4,31.2,156.3
		L31.2,156.3z"/>
	<path class="st0" d="M160,105.8c-0.6-0.3-1.3-0.4-1.9-0.7c-0.7-0.4-1.3-0.9-1.9-1.4c-2.6-2.4-5.3-4.8-7.9-7.3c-1-1-1.7-2.2-2.6-3.2
		c-0.7-0.7-1.5-1.4-2.3-2.1c-1.2,2.5-2.4,4.7-3.3,7c-0.9,2.3-1.5,4.7-2.1,7.1c-0.9,3.5-2.4,6.8-3.9,10.1c-0.9,1.9-1.7,3.8-2.6,5.8
		c-0.8,1.8-1.9,3.6-2.4,5.5c-0.7,2.3-2.1,3.9-3.5,5.8c-1.2,1.6-2.1,3.3-3.5,4.8c-0.8,0.9-1.8,1.7-2.5,2.6c-2.7,3.4-6.6,5-10.3,6.9
		c-1.6,0.8-3.3,1.7-5,2.2c-2.3,0.5-4.6,0.9-6.9,0.9c-2.4,0-4.8-0.3-7.1-0.9c-1.2-0.3-2.4-0.8-3.6-1.4l-0.9-0.4l-0.4-0.2
		c-1.2-0.6-2.6-1.1-3.4-2c-2.1-2.4-4.5-4.6-5.6-7.7c-0.5-1.4-1.5-2.7-2.2-4.1c-0.6-1.3-1.3-2.6-1.8-3.9c-0.6-1.6-1.1-3.2-1.5-4.8
		c-0.5-2-0.9-4-1.3-6c-0.1-0.1-0.3-0.1-0.4-0.2c-0.8,0.9-1.6,1.9-2.2,2.9c-1.3,1.9-2.5,3.8-3.7,5.8c-0.2,0.4-0.3,0.8-0.5,1.2
		c0,0.1,0,0.2-0.1,0.2l-0.1,0.5c-0.1,0.2-0.2,0.5-0.3,0.7c-1.1,1.9-2.3,3.8-3.5,5.7c-0.1,0.2-0.2,0.5-0.3,0.7
		c-0.5,1.1-1,2.2-1.4,3.3c-0.5,1.3-1,2.6-1.5,3.9c-0.7,1.7-1.3,3.5-2,5.2c-1.5,3.4-2.8,6.9-4.5,10.1c-1.9,3.7-2.8,7.6-4.3,11.4
		c-0.9,2.1-2.2,4.1-3.2,6.3c-2,4.3-3.8,8.6-5.7,12.8c-0.5,1-1.2,1.9-1.8,2.9c-0.9,1.7-1.7,3.4-2.8,5c-1.8,2.6-3.8,5-5.8,7.5
		c-1.3,1.7-2.5,3.5-4,5.1c-2.1,2.2-3.9,4.6-5.8,6.8c-0.6,0.7-1.5,1.3-2.2,2c-2.8,2.7-5.4,5.6-8.3,8.2c-1.6,1.4-3.4,2.6-5.2,3.9
		c-0.1,0.1-0.2,0.1-0.3,0.2v369.6l160-0.1L160,105.8L160,105.8z"/>
	<path class="st0" d="M51.9,132.4L51.9,132.4c-0.1-0.1-0.2-0.2-0.2-0.3c-0.4,0.3-0.8,0.7-1.2,1l0.3,0.3
		C51.1,133.1,51.5,132.7,51.9,132.4L51.9,132.4z"/>
	<path class="st0" d="M72.6,103.7c2.6-0.9,4.6,0,5.9,1.8c1.4,1.9,2.7,3.9,3.4,6c0.9,2.7,1.1,5.7,1.8,8.5c0.5,2.2,1.2,4.3,2,6.3
		c0.8,2.1,2,4,3,6c0.2,0.3,0.4,0.6,0.5,1c0.8,3.1,3.3,4.3,6.2,5.1c3.5,1,7.2,0.1,10.4-1.5c2.1-1,4.2-2.4,5.9-4.3
		c2-2.1,3.5-4.4,5.3-6.6c1.3-1.7,1.8-3.9,2.7-5.8c1.6-3.9,3.2-7.7,4.9-11.6c0.3-0.8,1-1.5,1.2-2.3c0.9-2.7,1.7-5.5,2.5-8.3
		c1.3-4.2,3.1-8.3,5.3-12.2c1-1.7,2.6-3.2,4.4-4.5c2-1.5,4-1.7,6.1-1.9l0.6,0c0.8-0.1,1.7,0.2,2.4,0.5c1.8,0.8,3.5,1.7,5.1,2.7
		c2.1,1.4,3.8,3.2,5.3,5.1l0.7,0.9c0.6,0.7,1.1,1.3,1.7,1.9V87c-0.6-0.7-1.2-1.4-1.9-2.1c-0.3-0.3-0.4-0.9-0.8-1.1
		c-0.8-0.7-1.6-1.4-2.2-2.2c-1.8-2.1-4.1-3.8-6.7-4.6c-2.3-0.7-4.9-0.8-7.7-0.2c-4.1,1-6.7,3.6-8.9,6.9c-1.2,1.8-2.6,3.6-3.1,5.8
		c-0.1,0.6-0.9,1.2-1.1,1.9c-0.4,1.1-0.7,2.1-1,3.2l-1,3.2l-0.5,1.6c-0.8,2.7-1.7,5.4-2.6,8c-0.5,1.3-1.2,2.5-1.8,3.7
		c-0.5,1-0.8,2.1-1.3,3.1c-0.3,0.7,0,1.8-1.3,2.1c-0.2,0-0.2,0.5-0.3,0.8c-1,2.4-1.7,4.9-3.1,7.1c-0.9,1.5-2,3-3.2,4.3
		c-1.5,1.7-3.4,3.2-5.4,4.5c-1.8,1.1-3.9,2-5.9,2.5c-1.6,0.4-3.3-0.2-5-0.1c-2.1,0.1-3.2-1.1-4.1-2.4l-0.2-0.3
		c-0.2-0.2-0.3-0.4-0.4-0.6c-1.3-1.8-1.8-4-3-5.8c-2.4-3.6-2.5-7.9-3.6-11.9c-0.8-2.8-1.6-5.7-2.5-8.5c-0.2-0.5-0.7-0.9-1-1.3
		c-0.7-0.8-1.5-1.6-2.2-2.4c-0.8-1.1-3.4-1.9-4.9-1.8c-2.2,0.1-3.8,1.2-5.5,2.3l-0.6,0.4c-0.5,0.3-0.9,0.6-1.4,0.9
		c-1.2,0.7-2.4,1.5-3.4,2.5c-1.8,1.7-3.4,3.5-4.9,5.3c-1.3,1.5-2.5,3.1-3.7,4.7c-0.5,0.7-0.8,1.4-1.2,2.2c-1.4,2.7-2.7,5.4-4.1,8.1
		c-1.6,3.1-3.4,6.2-4.8,9.3c-0.9,1.9-1.4,4-2.1,6c-0.2,0.6-0.6,1.2-0.9,1.7c-0.3,0.5-0.7,0.9-1,1.4c-0.9,2.1-1.8,4.1-2.7,6.2
		c-0.7,1.6-1.2,3.4-2.1,4.9c-1.8,3.3-2.4,6.9-3.9,10.2c-0.7,1.5-1.8,3-2.6,4.5c-0.6,1.2-1,2.5-1.5,3.7c-1,2.4-2.6,4.6-3.1,7.2
		c-0.2,1.1-1,2.1-1.7,3.1c-1.2,2-2.4,4.2-3.8,6.1c-2.7,3.6-5.6,7.2-8.6,10.8c-2.3,2.8-4.8,5.5-7.4,8.2c-0.8,0.8-1.7,1.7-2.6,2.5v4
		c0.8-0.6,1.5-1.3,2.2-2c2.3-2.2,4.3-4.7,6.4-7c0.8-0.8,1.6-1.6,2.3-2.4c1.5-1.8,2.9-3.6,4.4-5.4c1.5-1.8,3-3.5,4.3-5.3
		c1.1-1.5,1.9-3.1,2.9-4.6c0.2-0.3,0.4-0.6,0.6-1l1.2-1.9c1-1.6,1.9-3.2,2.8-4.8c1-1.9,1.6-3.9,2.4-5.9c0.5-1,1.1-2,1.6-3
		c0.8-1.7,1.7-3.5,2.4-5.2c1.5-3.9,2.8-7.8,4.3-11.6c0.9-2.3,2.3-4.5,3.3-6.8c1-2.2,1.8-4.4,2.8-6.6c1.4-3.1,2.8-6.2,4.2-9.3
		c1.8-3.8,3.6-7.7,5.7-11.5c1.4-2.5,3.2-4.8,4.9-7.1c1.1-1.5,2.3-2.9,3.5-4.2c1-1,2-1.9,3.1-2.8c1.2-0.9,2.4-1.8,3.7-2.6
		C70.3,104.8,71.4,104.1,72.6,103.7L72.6,103.7z"/>
	<path class="st0" d="M18.9,184.9L18.9,184.9l1-2c-0.1-0.1-0.3-0.1-0.4-0.1c-0.4,0.7-0.7,1.3-1.1,2
		C18.6,184.8,18.8,184.8,18.9,184.9L18.9,184.9z"/>
	<polygon class="st0" points="54,111.5 54,111.5 54,111.5 	"/>
	<path class="st0" d="M57.3,107.3L57.3,107.3c-0.2-0.1-0.4-0.2-0.5-0.3l-1.5,2.6C56,108.8,56.6,108.1,57.3,107.3z"/>
	<path class="st0" d="M64,101.1c-1.3,1-2.6,2-4.1,3.1C62.1,103.5,64.1,101.9,64,101.1z"/>
	<path class="st0" d="M88.2,119.1L88.2,119.1c0.1,0,0.3-0.1,0.4-0.1c-0.1-0.6-0.3-1.2-0.4-1.9c-0.1,0-0.3,0.1-0.4,0.1
		C87.9,117.8,88.1,118.5,88.2,119.1L88.2,119.1z"/>
	<path class="st0" d="M82.7,102L82.7,102l3,4.8c-0.2-0.3-0.3-0.7-0.4-1l-0.1-0.4C84.7,104,84.2,102.8,82.7,102L82.7,102z"/>
	<path class="st0" d="M54.3,110.5l-0.8,0.7c0.1,0.1,0.3,0.2,0.4,0.3l1.2-1.7C55.1,109.8,54.3,110.5,54.3,110.5z"/>
	<path class="st0" d="M34.2,149.3c-0.4,1-0.8,2-1.2,2.9c0.1,0,0.3,0.1,0.4,0.1l1.3-2.9C34.5,149.4,34.3,149.4,34.2,149.3z"/>
	<polygon class="st0" points="30.8,158.5 30.8,158.5 30.8,158.5 	"/>
	<path class="st0" d="M50.2,116.7c0.7-1,1.5-2,2.2-3c-0.1-0.1-0.2-0.2-0.4-0.2c-0.7,1-1.5,2-2.2,3C50,116.5,50.1,116.6,50.2,116.7z"
		/>
</g>
</svg>
