<?xml version="1.0" encoding="utf-8"?>
<!-- Generator: Adobe Illustrator 26.5.0, SVG Export Plug-In . SVG Version: 6.00 Build 0)  -->
<svg version="1.1" id="a" xmlns="http://www.w3.org/2000/svg" xmlns:xlink="http://www.w3.org/1999/xlink" x="0px" y="0px"
	 viewBox="0 0 160 599.6" style="enable-background:new 0 0 160 599.6;" xml:space="preserve">
<style type="text/css">
	.st0{fill:#FFFFFF;}
</style>
<path class="st0" d="M88.4,444.4c0.1-0.1,0.2-0.2,0.2-0.2c-0.4-0.2-0.8-0.3-1.1-0.5l0,0c0,0.1-0.1,0.2-0.1,0.3
	C87.7,444.1,88,444.3,88.4,444.4z"/>
<path class="st0" d="M91.9,445.1L91.9,445.1C91.8,445.1,91.8,445.1,91.9,445.1C91.8,445.1,91.9,445.1,91.9,445.1z"/>
<path class="st0" d="M101.9,448c-0.8-0.2-1.8-1.1-2.3-0.2l0,0C100.3,447.9,101.4,448.8,101.9,448z"/>
<path class="st0" d="M95,449.6L95,449.6L95,449.6z"/>
<path class="st0" d="M93.5,445.7L93.5,445.7c-0.5-0.4-1-0.7-1.6-0.5C92.4,445.8,92.7,445.9,93.5,445.7z"/>
<path class="st0" d="M84.4,435.1c0,0-0.1-0.2-0.2-0.2c-0.1,0.1-0.3,0.2-0.4,0.4c0.1,0.1,0.2,0.2,0.2,0.3
	C84.1,435.4,84.3,435.3,84.4,435.1z"/>
<path class="st0" d="M86.6,447.1L86.6,447.1L86.6,447.1L86.6,447.1L86.6,447.1L86.6,447.1z"/>
<path class="st0" d="M78.1,445.6L78.1,445.6L78.1,445.6L78.1,445.6z"/>
<path class="st0" d="M19.8,443L19.8,443c-0.5-0.3-1-1-1.4,0c0.6,0.4,0.5,1.1,0.4,1.7C20,444.6,21,443.7,19.8,443z"/>
<path class="st0" d="M78.2,445.5L78.2,445.5L78.2,445.5L78.2,445.5z"/>
<path class="st0" d="M78.5,441.1c-0.3-0.1-0.7-0.1-1.1-0.1C77.8,441.2,78.3,441.6,78.5,441.1z"/>
<path class="st0" d="M95.7,441.2L95.7,441.2L95.7,441.2z"/>
<path class="st0" d="M34.9,425.9L34.9,425.9c0.3,0.2,0.4,0.4,0.6,0.2C35.3,425.7,35.3,425.6,34.9,425.9z"/>
<path class="st0" d="M0,437.1v0.2c0.1,0,0.1,0,0.2,0C0.1,437.2,0.1,437.1,0,437.1z"/>
<path class="st0" d="M21.8,424.3c0.5,0.1,1,0.4,1.5-0.1C22.9,424.1,22.1,423.9,21.8,424.3z"/>
<path class="st0" d="M26,426.2c0.4,0.6,1,0,0.7-0.6C26.2,425.6,25.9,425.7,26,426.2z"/>
<path class="st0" d="M110.8,451.8c0.4,0.3,0.9,0.3,1.4,0.5c0-0.1,0-0.1,0.1-0.2c-0.2-0.1-0.9-0.5-1.1-0.6
	C111.1,451.6,110.9,451.7,110.8,451.8z"/>
<path class="st0" d="M96.6,446.9c0.1,0,0.2,0.1,0.3,0.1l0,0c0.1-0.2,0.2-0.3,0.3-0.5C96.9,446.3,96.8,446.7,96.6,446.9z"/>
<path class="st0" d="M63.1,437.7c0,0.1,0,0.2,0,0.2c2.6,0.5,5.2,1.8,7.8,1.7v-0.2c-0.3-0.1-0.6-0.2-0.9-0.3
	C67.6,438.9,65.5,437.3,63.1,437.7z"/>
<path class="st0" d="M43.7,434.5L43.7,434.5c1.8,0.7,3.3,0.6,5.2,0.8c-1.3-1-3-0.3-4.1-1.4C44.4,434.1,44.1,434.2,43.7,434.5
	L43.7,434.5z"/>
<path class="st0" d="M33.6,433.4v-0.2c-1.5-0.6-3.2-0.7-4.7-1c-0.7-0.1-1.2-0.2-1.2-1c-0.3-1.1-1.5-0.3-1.4,0.6
	c-0.5,0-1,0.2-1.3,0.6C28,432.4,30.8,433.4,33.6,433.4z"/>
<path class="st0" d="M4.6,414c-0.2,0.8-1.1,2.6,0.2,2.5c0.9-0.6,0.6-1.5,0.7-2.5H4.6z"/>
<path class="st0" d="M38.7,432.2L38.7,432.2c-0.1,0.4-0.1,0.8-0.2,1.2c-1.2,0.1-2.7-0.4-3.8,0.2c2,0.1,4,0.6,6.1,0.6
	c0-0.1,0-0.2,0-0.3c-0.3-0.1-0.7-0.2-1-0.2C40.4,432.4,40.2,432.2,38.7,432.2L38.7,432.2z"/>
<path class="st0" d="M30.8,420.4c-0.6-0.6-1.1,0.3-0.6,0.9C30.7,421.1,31,420.9,30.8,420.4z"/>
<path class="st0" d="M17.1,416.8c-0.4,0.3-0.8,0.5-1.2,0.8c0.5,0.6,1.6,1,1.9,0.4l0,0C18.1,417.5,17.5,417.2,17.1,416.8z"/>
<path class="st0" d="M22,416L22,416L22,416z"/>
<path class="st0" d="M22,416c-0.1-1-1.6-0.7-1.4,0.4C21,417.1,21.9,416.9,22,416z"/>
<path class="st0" d="M49.9,435.2L49.9,435.2c0,0-0.1,0-0.2-0.1c-0.1,0.2-0.2,0.4-0.4,0.5c0.7,0.5,1.9,0.2,2,1.7
	c0.6-0.9,0.7-1.6,1.7-1.4c0-0.1,0-0.1,0-0.2c-0.6-0.1-1.2-0.1-1.9-0.2c0.4-0.5,0.7-0.8,1-1.2C51.6,433.4,50.2,434.6,49.9,435.2
	L49.9,435.2z"/>
<path class="st0" d="M44,422.2c0.3-0.4,1.9-1.8,0.6-1.8l0,0h-0.1l0,0c0-0.4-0.1-0.7-0.2-1c0,0.2-0.2,1.1,0.2,1.1
	c-0.1,0.2-0.2,0.4-0.2,0.6h-1.6C43.1,421.4,43.5,421.8,44,422.2L44,422.2z"/>
<path class="st0" d="M68.3,424c-0.5-0.3-0.8-0.2-1.1,0.1C67.6,424.4,67.9,424.6,68.3,424z"/>
<path class="st0" d="M75.2,432.9c0,0,0,0.1,0,0.2c0.2,0.1,0.5,0.2,1,0.4c-0.2-0.4-0.4-0.5-0.4-0.7C75.6,432.8,75.4,432.8,75.2,432.9
	z"/>
<path class="st0" d="M73.6,440.3l0.7,0.2c0-0.1,0.1-0.2,0.1-0.2l-0.7-0.2C73.6,440.2,73.6,440.2,73.6,440.3L73.6,440.3L73.6,440.3z"
	/>
<path class="st0" d="M66.5,431.1c0.4,0,0.8,0.1,1.1,0.1c0-0.1,0-0.2,0-0.3C67.2,430.7,66.9,430.5,66.5,431.1z"/>
<path class="st0" d="M160,479v-1c-16.5-9.5-34.5-20-52.2-23.2C125.9,461,143.2,469.5,160,479L160,479z"/>
<path class="st0" d="M151.4,461L151.4,461L151.4,461L151.4,461z"/>
<path class="st0" d="M148.1,467.9L148.1,467.9L148.1,467.9z"/>
<path class="st0" d="M153.8,470.9L153.8,470.9L153.8,470.9z"/>
<path class="st0" d="M158.9,473.8L158.9,473.8c0.4,0.2,0.8,0.4,1.1,0.7v-0.9c-1.5-0.9-3.1-1.7-4.7-1.9
	C156.4,472.6,157.7,473,158.9,473.8L158.9,473.8z"/>
<path class="st0" d="M113.2,449.5c16.6,5.1,31.9,13.1,46.8,21.6v-2.6C143.8,459.5,116.5,444.4,113.2,449.5L113.2,449.5z"/>
<path class="st0" d="M141.6,464.1c1.7,1.8,4.4,2.4,6.5,3.8c0.1-0.1,0.1-0.2,0.1-0.2C146.1,466.4,144.1,464.5,141.6,464.1
	L141.6,464.1z"/>
<path class="st0" d="M135.7,453.2l-0.1,0.2l0,0c0.2,0.1,0.4,0.2,0.6,0.3c0-0.1,0.1-0.2,0.1-0.3L135.7,453.2L135.7,453.2z"/>
<path class="st0" d="M125.5,456.7l-0.1,0.2c1.4,1.2,3.4,1.4,5.1,2.2c3,1.2,5.8,3.1,8.9,4C135.3,460.5,130.3,458.2,125.5,456.7z"/>
<path class="st0" d="M120.1,454.6l-0.1,0.2l4.3,1.7C123.1,455.3,121.6,454.9,120.1,454.6L120.1,454.6L120.1,454.6z"/>
<path class="st0" d="M140.6,463.6c0,0.1-0.1,0.1-0.1,0.2c0.2,0.1,0.5,0.2,0.7,0.4c0-0.1,0.1-0.1,0.1-0.2
	C141.1,463.8,140.8,463.7,140.6,463.6z"/>
<path class="st0" d="M150,468.7l-0.1,0.2c1.1,0.9,2.4,1.6,3.8,2.1l0.1-0.2C152.7,469.9,151.4,469.2,150,468.7z"/>
<path class="st0" d="M131.4,444c0.6,0.5,1.1,0.8,1.8,0.5C132.7,443.9,132.2,443.8,131.4,444z"/>
<g>
	<path class="st0" d="M120,436.2c2.2,0.7,3.8,1.2,4.7,1.6c12.3,4.7,24.1,10.5,35.7,16.7V0H0v413.1c0.6,0.1,1.2,0.1,1.8,0.2
		c4.5,0.8,11-0.7,14.4,2.5c0.8-0.1,1-0.6,1-1.3c4.8,0.8,9.9,0.6,14.7,1.6c-1.9,0.8-4.7,3.9-0.7,2.6c0.6,1.2-0.3,2.4,0.1,3.8
		c-6.2-0.9-12.8-1-18.8-1.9c-0.3-0.8-0.6-1.1-1.2-0.8c-2.4,1.8-4-2.6-5.9-0.8c-0.8,1.2-2.2-0.7-3,0.7c-0.5,0.6-0.6,0.6-1.2,0
		c1.8-1.3,1.1-3.5-0.9-1.8h0.1v1c0,0-0.2,0-0.3,0v3.2c0.1,0.1,0.2,0.1,0.3,0.1c0.6-0.1,1,0,1.4,0.6c0.3,0.5,0.6,0.5,1.1-0.2
		c1.8,1.7,0.2,2.3-2.8,2.4v1.7c1.1,0.1,2.1,0.2,3.2,0.3c-0.2,0.3-0.3,0.6-0.5,1c0.6,0,1,0.1,1.6,0.1c0-0.1,0-0.1,0-0.1
		c0-0.3-0.1-0.6-0.2-0.9c0,0,0.1,0,0.2,0h1v0.9H5.3c-0.2,0-0.8-0.1-0.9,0.1c0,0,0.1,0,0.1,0c-0.2,0.4-0.3,0.8-0.5,1.2
		c-0.5-0.3-0.9-0.5-1.5-0.8c0.2,0.6,0.3,1.1,0.4,1.7c-0.6-0.5-1-0.8-1.4-1.2c-0.5,0.8,0.4,1.3,0,2c-0.5-0.3-1-0.4-1.4-0.5v3.6
		c3.9,0.2,10.2-0.9,11.4,2.7c0.8,0.1,1.9,0.2,2.1-0.9c0.4,0.1,0.8,0.3,1.3,0.5c-1.1-2.8,16.6,0.9,18.9,1c12,0.3,24.4,4.2,36.1,5.9
		c0.1,0.1,0.1,0.1,0.2,0.2c11.2,2.6,22.3,5.9,33.2,9.7c3.1,1.1,6.2,2.2,9.2,3.4c0.6,0.2,0.9-0.7,0.3-1c-10.8-4.2-21.7-7.8-32.9-10.8
		c-3.2-0.8-6.4-1.6-9.6-2.4c-0.1,0-0.3,0-0.4,0.1c-22.8-5.5-46.2-8.2-69.5-9.4c0.1-1.4,7.9-3.4,8.2-1.3c1.5-1.5,4,0.1,5.9,0.1
		c2.5,0.6,5,0,7.6,0.3V432c-3.9-1.2-10.1,0.2-13-2.3c-1.3,1.9-2.7-0.1-4.3-0.3c4.1-4.1,11.8,0.2,17-0.4c2.4-0.1,4.6,0.5,7,0.5
		c0.4,0.5,0,1.4,0.9,1.4c2.7-1.4,8.4-0.8,11,1c0.9,0.6,0.7-1.2,1.6-0.5c-0.2,0.3-0.4,0.6-0.5,0.9c0.9,0.5,2.7-0.9,4.1-0.4
		c-2.5,2.2,2.5,2.2,3.8,3.1c0.2-4.9,6.1-0.4,8.9-1.5c0.1,0.1,0.1,0.2,0.1,0.4c-1.1-0.5-2.1,0.8-2.4,1.8c-0.8-0.1-1.5-0.4-2.1,0.3
		c0.4,0.3,0.8,0.7,1.3,1.1c1.2-1.7,3.5,0.7,5-0.6c-1-0.2-1.9-0.3-3-0.5c0.4-0.8,1.4-1.2,1.3-2c5.5-0.3,15.6,5.1,21,4.2
		c4.6,1.2,9.1,2.6,13.6,4c1.5,0.5,3,1,4.5,1.4c3,1.2,6,2.4,9,3.5c1.3,0.5,2.7,0.9,4,1.2c0,0,0,0,0.1,0c1.1,0.5,2.4,0.6,3.4,1.2
		c0.5,0.3,1-0.4,0.6-0.8c0.1-0.3,0-0.6-0.3-0.6c-1.2-0.2-2.4-0.5-3.6-0.8c-0.8-0.4-1.6-0.8-2.4-1.1c-2.3-0.9-4.7-1.6-7-2.4
		c-1-0.3-2.1-0.7-3.1-1c-3.3-1.4-6.7-2.7-10.1-3.9c-2.2-0.7-4.4-1.3-6.7-1.8c0.1-0.1,0.2-0.2,0.3-0.3c-7.2-2.2-15.9-2.5-22.2-6.2
		c-2.5,1.6-6-0.5-8.8-0.3c-2.3-0.1-4.4-0.6-3.9-3.4c0.1,0,0.2,0,0.3-0.1c1.2,4.9,3.4-1.1,6.6,0.8c-0.2,0.1-0.3,0.2-0.5,0.3
		c0.4,0.5,1.5,0.3,2,0.8c1,1.3,2.4-0.3,3.5,0.4c0.6,0.3,1.2,0,1.4-0.4c0.5-1.1,2.2-0.4,2.2,0.6c0.6,0,1.2,0.5,1.8-0.2l3.4,0.8
		c0,1,0.7,0.6,1.2,0.6c0.9,0,1.6,0.3,2.2,0.9c1.1-0.4,1.8-0.4,2.6,0.8c1.1-1,1.6,0.4,2.9-0.3c0.4,0.5,0.9,1.3,1.6,0.8
		c1.5-0.2,3.2,0.6,4.6,1.5h0.1c0.5-0.2,0.9-0.3,1.3-0.1c0.1,0.3,0.3,0.5,0.6,0.6c0.6,0.1,1.1,0.3,1.7,0.4c0,0.1,0,0.2,0.1,0.3
		c0.3,0.2,0.6,0.4,0.9,0.4c0.3,0.1,0.7,0.1,1-0.1c0.1,0,0.2-0.1,0.2-0.2c1.4,0.4,2.8,0.8,4.2,1.5c0.2,0.1,0.3,0.2,0.5,0.2
		c1,0.6,2,1.1,3.1,1.4c0.1,0,0.2,0,0.2,0c0.2,0.1,0.4,0.1,0.6,0.2c0,0.3,0.1,0.5,0.5,0.5c0.2,0,0.3-0.1,0.4-0.2
		c0.9,0.3,1.8,0.6,2.7,0.9c1,0.3,2.1,0.6,3.2,1c0.5,0.2,0.9,0.3,1.4,0.5c0.1,0,0.2,0,0.3,0c0.4,0.1,0.8,0.2,1.1,0.3
		c0.1,0.1,0.2,0.3,0.4,0.3c0.1,0,0.2,0,0.2-0.1c0.9,0.3,1.8,0.5,2.6,0.8c0,0,0,0.1,0,0.1c0,0.1,0,0.1,0,0.2c0,0,0,0.1,0.1,0.1
		c0,0.1,0.1,0.1,0.2,0.2c0,0,0.1,0,0.1,0.1c0.1,0,0.2,0,0.3,0c0,0-0.1,0-0.1,0c0.1,0,0.1,0,0.2,0c0.1,0,0.1,0,0.2,0
		c0.1,0,0.1,0,0.2,0c0.1,0,0.1,0,0.2-0.1c0.1,0,0.1-0.1,0.1-0.1c0,0,0-0.1,0.1-0.1c0.8,0.2,1.5,0.5,2.3,0.7c0,0.1,0.1,0.1,0.2,0.2
		c0.7,0.3,1.4,0.6,2.2,0.6c0,0,0.1,0,0.1,0c0.1,0,0.1,0,0.2,0.1c0,0,0,0-0.1,0.1c0.2,0,0.3,0,0.5,0.1c0.3,0.1,0.6,0.2,0.9,0.3
		c0,0,0.1,0,0.1,0c1.2,0.5,2.3,1.4,3.7,1.5c1.7,0.4,3.5,1.1,4.6,2.5c4.5,0.1,8.9,2.9,12.8,4.9c0.3,0.6,1.4,0.4,1.3,1.2
		c0,0.6,0.4,0.5,0.8,0.4c0-0.3,0-0.5-0.1-0.8c1.2,0.3,1.6,1.9,3,1.5c2,1.4,4.5,1.9,6.4,3.5h0.1c0.1,0,0.1,0,0.2,0V460h2v1h-1.9
		c0.6,0.4,1.4,0.7,2.2,0.8c0-0.2,0.1-0.3,0.1-0.5c1,0.2,0.6,1.7,1.9,1.8c0-0.2,0.1-0.4,0.1-0.8c0.8,0.6,1.6,1.2,2.4,1.8
		c-0.4-0.1-0.7-0.1-1.1-0.2l-0.1,0.2c0.4,0.2,0.7,0.4,1,0.6c0.1-0.1,0.1-0.3,0.2-0.4c0.7,0.2,1.3,0.4,1.9,0.7v-3
		c-13-7-26.3-13.5-40.1-18.9c0,0,0-0.1-0.1-0.1c-0.2-0.3-0.6-0.3-1-0.3c0,0-0.1,0-0.1,0c-2.1-1-4.3-2-6.6-2.5
		c-2.9-0.5-5.6-1.4-8.4-2.4c-5.6-1.8-11.2-3.7-16.9-5.5l0,0c-11.2-2.9-22.9-6.5-34.4-7.6c-1.3-1.7-1.2-2.5,1-1.3
		c1.6-3.3-3.7-3.5-5-1.7c-0.4-0.6-0.8-1.1-1.2-1.7c-2.2,2.9-4.6,3.7-8.1,2.6c0.3-0.4,0.5-0.6,0.7-0.9c1.2,0.9,1.4,0.8,2.4-0.6
		c0.1-0.4-0.8-0.7-0.3-1.2l0.4,0.4v-1.6h1.9c-0.8-3.7,7.8-0.2,10.1-0.3c-0.2,0.4-0.4,0.8-0.6,1.3c5.5-1.9,10.9,0.9,16.4,1.6
		c2.6,0.9,0.3,1.4,4.3,1.1c7.3,0.7,12.2,4.6,17,3.8c2.8,1,5.4,1.9,7.9,2.8c-0.1,0.1-0.2,0.2-0.2,0.3c1,0.1,2,0.7,2.9,0.7
		c0.1,0,0.1,0,0.2,0.1v0.1c0.3,0.1,0.5,0.1,0.7,0.1c7.1,2.5,12.8,4.4,16.7,5.7c-0.1,0-0.1,0.1-0.2,0.1H120z M46.3,432h0.9
		c-0.1-0.1-0.3-0.2-0.5-0.3c1,0.1,1.7,0.4,2.5,0.4v0.1h0.3c-0.3,0.2-0.4,0.5-0.3,0.8h-3L46.3,432z M33.3,421l0.1-4h2.9l-0.1,5h-0.8
		c-0.2,1.1-1.6,0.5-2.5,0.5C33.1,422,33.2,421.5,33.3,421z M8.3,423h-1v1h-1v-0.3c-0.1,0-0.3-0.1-0.4-0.3c0.2-0.2,0.3-0.3,0.4-0.3
		V423h-1v-1h3V423z M41.6,426.9c0.3,1.3,1.4,0.2,2.2,1.1c-1.1,3.8-5.6,0.2-8.7,1c-1.7,0.1-3.9-5.3-5.4-2.6
		c-0.3,2.4-21.6,0.5-20.6-1.8c0.4-0.7,3.9-1.7,4.3-0.8c0.6,0.9,1,0.8,2.1,0.5c-0.5-0.2-0.8-0.2-1.3-0.4c1.5-0.4,3.1-0.4,4.6-0.1
		c-0.1,0-0.1,0-0.2,0c0.5,0.4,0.8,0.7,1.3,0.4c0-0.1-0.1-0.1-0.1-0.2c0.6,0.2,1.2,0.4,1.8,0.8c0-0.2,0.1-0.3,0.2-0.4
		c-0.1,0-0.1,0-0.2-0.1c1.1-0.9,3.4,0.5,4.9,0.2c-0.2,0.2-0.4,0.4-0.7,0.6c2.5,0.4,4.9-0.8,7.5,0.8c0.8,0.5,1.4-0.1,2.3-0.3
		c0.9,1,1.9,0.9,2.9,0.2C39,427.8,40.9,425.3,41.6,426.9z"/>
	<path class="st0" d="M4.4,428.2c0,0,0-0.1,0-0.1c0,0,0,0,0,0V428.2z"/>
	<path class="st0" d="M82.1,434.2c0.4,0.6,0.8,0.2,1.2,0.2C82.9,434.2,82.6,434.1,82.1,434.2z"/>
</g>
<path class="st0" d="M136.4,445.7c0.5,0.6,1,0.8,1.4,0.8C137.2,446.1,136.8,445.9,136.4,445.7z"/>
<path class="st0" d="M151.1,460.3c0,0.3,0.1,0.5,0.3,0.6C151.4,460.7,151.4,460.3,151.1,460.3z"/>
<path class="st0" d="M145.3,458.2c0.8,0.3,1.5,0.6,2.2,0.9C147.5,458.1,146,458,145.3,458.2z"/>
<path class="st0" d="M139.1,454.7c-0.4-0.2-0.8-0.3-1.2-0.5C138,455.1,138.6,454.8,139.1,454.7z"/>
<path class="st0" d="M112.7,452.5c1,0.5,2.1,0.7,3.3,1C115.4,452.4,115.1,452.3,112.7,452.5z"/>
<path class="st0" d="M149.9,460.2c-0.1-0.5-0.3-0.4-0.8-0.3C149.3,460.4,149.4,460.4,149.9,460.2z"/>
<path class="st0" d="M160,485.5v-1.7c-10.7-6.3-21.9-12-33.2-17.4c-5.4-2.1-10.7-4.5-16.3-6.2c-1.9,0.2-4-2.3-5.6-2.1
	c-8.6-3.4-17.5-6-26.4-8.3c-1.3-0.3-2.6-0.7-3.9-1c-1.2-0.3-2.4-0.7-3.7-0.7c-15.5-4.2-31-5.7-46.9-7.8c-0.1-0.4-0.1-0.7-0.2-1.2
	c-0.9,0-1.9-0.2-2.1,0.9c-4.7-0.4-10.2-1.1-15.2-1.3c-1.8-0.8-4.8,0.4-6.4-0.5v161.4h160V489.4c-17.7-10.2-36-19.3-55.3-25.9
	c-13.7-7.4-36.9-10.8-36.9-10.9c-15.5-4.2-31.4-5.7-47.4-7.5c-3.5-0.9-8.1,0.2-10.9-2.2c0.4-1,0.5-1,1.9-0.2
	c0.2-0.6,0.4-1.1,0.5-1.7c12.8,0.5,25.2,2.6,38.9,4.3c3.7,0,10.2,2.5,15.1,3.4c0,0,0.1,0,0.1,0c5.1,1,10.3,2,15.4,3.3
	c5.1,1.2,10.1,2.7,15,4.4c2.4,0.8,4.8,1.6,7.2,2.5c0,0.1-0.1,0.1-0.1,0.2C123.2,465.5,142,475,160,485.5z M5.6,441.5
	c-1.9-0.6-2,2.7-3.4,1.1c0.2-0.2,0.5-0.3,0.7-0.5c-7.1-1.8,1.5-3.3,4.6-2C8,441.6,6.5,441.4,5.6,441.5z"/>
<path class="st0" d="M84.4,442.9c-0.8-0.2-1.8-1.1-2.3-0.2l0,0C82.8,442.8,83.9,443.7,84.4,442.9z"/>
<path class="st0" d="M103.9,449l-0.1,0.2l4.3,1.7C106.9,449.7,105.4,449.3,103.9,449L103.9,449L103.9,449z"/>
<path class="st0" d="M90.1,436c-0.6,0-0.6,1,0,1C90.7,437,90.7,436,90.1,436z"/>
</svg>
