<?xml version="1.0" encoding="utf-8"?>
<!-- Generator: Adobe Illustrator 26.5.0, SVG Export Plug-In . SVG Version: 6.00 Build 0)  -->
<svg version="1.1" id="a" xmlns="http://www.w3.org/2000/svg" xmlns:xlink="http://www.w3.org/1999/xlink" x="0px" y="0px"
	 viewBox="0 0 160 600.7" style="enable-background:new 0 0 160 600.7;" xml:space="preserve">
<style type="text/css">
	.st0{fill:#FFFFFF;}
</style>
<g>
	<path class="st0" d="M111,438.8l-0.1-0.1c0.8,1.4,1.6,2.7,2.3,4c0.1,0,0.3-0.1,0.4-0.2C113,441.1,112.3,439.8,111,438.8L111,438.8z
		"/>
	<path class="st0" d="M110.8,438.7L110.8,438.7c0.1,0,0,0,0-0.1V438.7z"/>
	<path class="st0" d="M102.3,403c-0.3,0.4-0.7,0.8-1.1,1.1c0.1,0.1,0.2,0.2,0.2,0.3c0.4-0.3,0.8-0.7,1.2-1
		C102.5,403.3,102.4,403.2,102.3,403L102.3,403z"/>
	<path class="st0" d="M109.2,437c0.4,0.5,0.8,0.9,1.2,1.4l0.2,0.2c-0.4-2-1.7-3.4-3.1-4.8C107.9,434.9,108.5,436,109.2,437
		L109.2,437z"/>
	<path class="st0" d="M103.8,429c0.2-0.2,0.4-0.3,0.5-0.4l-2-3.1c-0.1,0.1-0.3,0.2-0.4,0.3L103.8,429z"/>
	<path class="st0" d="M127.3,503c-1.4,1.6-2.6,3-3.8,4.4l0.2,0.3C125.1,506.4,126.7,505.4,127.3,503L127.3,503z"/>
	<path class="st0" d="M130.3,496.2l-2.8,6.6l0.3,0.1l2.8-6.6C130.5,496.3,130.4,496.2,130.3,496.2z"/>
	<path class="st0" d="M104.2,513.3c1.2,0.3,2.4,0.6,3.7,0.1l0.2-0.1h0.1c-1.3-0.2-2.6-0.4-3.9-0.6
		C104.2,513,104.2,513.2,104.2,513.3z"/>
	<path class="st0" d="M111.3,513l-3,0.4h-0.2c1.1,0.1,2.1,0.2,3.2,0.3C111.3,513.5,111.3,513.2,111.3,513z"/>
	<path class="st0" d="M107.4,400.2c0.7-0.2,1.3-0.3,2-0.5C108.6,399.2,107.8,398.8,107.4,400.2z"/>
	<path class="st0" d="M122.2,508.7c-0.1-0.1-0.2-0.3-0.3-0.4c-0.6,0.5-1.1,1-1.7,1.5c0.1,0.1,0.2,0.3,0.4,0.4
		C121.1,509.7,121.6,509.2,122.2,508.7z"/>
	<path class="st0" d="M150.1,413.2l-0.9-0.6c-1.4-0.9-2.7-1.7-4.2-2.2c-2.5-0.8-4.5-2.1-6.8-3.1c-2.4-1-4.6-2.3-7-3.2
		c-3.4-1.3-6.7-2.7-10.2-3.2c-2.9-0.5-6.1-0.3-9.1,0.8c-0.3,0.1-0.5,0.2-0.8,0.3c-3.3,0.6-5.9,2.5-8,5c-2.3,2.8-3,5.9-1.3,9.3
		c1.3,2.9,2.1,5.9,3.4,8.8c0.8,1.7,2.1,3.2,3.2,4.8c1.5,2.2,3,4.4,4.5,6.6c2.1,3.1,4.1,6.2,6.2,9.3c1.2,1.9,2.2,3.9,3.3,5.9
		c1.9,3.5,4,6.8,5.8,10.4c1.2,2.4,1.8,5,2.7,7.5c0.6,1.7,1.3,3.3,1.8,5c0.5,1.9,1,3.8,1.3,5.8c0.3,2.4,0.3,4.9,0.3,7.4
		c0,1.9,0,3.8-0.4,5.6c-1.1,5-2.6,9.9-6,13.8c-1.4,1.6-3.3,2.7-4.9,4.1c-0.7,0.6-1.3,1.5-2.1,1.8c-2.8,1.2-5.6,2.5-8.5,3.2
		c-2.2,0.5-4.5-0.1-6.8-0.2c-0.9,0-1.9,0.1-2.8-0.1c-1.9-0.4-3.8-1-5.6-1.5c-1.2-0.3-2.5-0.5-3.6-1c-3.3-1.4-6.6-2.9-9.8-4.5
		c-1.3-0.7-2.5-1.8-3.7-2.7c-2.7-2-5.6-3.8-8.2-6c-2-1.7-3.9-3.4-5.9-5.2l-2.9-2.6c-1-0.9-1.9-1.8-2.9-2.6l-4.5-3.9
		c-2.7-2.3-5.4-4.7-8.3-7c-1.4-1.1-3.1-1.9-4.7-2.7c-4.6-2.2-9.1-4.4-13.8-6.3c-1.2-0.5-2.7-0.6-4-0.9c-1.8-0.3-3.5-0.5-5.3-0.9
		c-2.1-0.4-4.1,0.1-6.1,0.7l-0.7,0.2c-1,0.3-2.1,0.3-3,0.7c-1.7,0.7-3.2,1.7-4.9,2.3c-1.8,0.8-3.4,1.9-4.8,3.1v3.4
		c0.3-0.3,0.6-0.6,1-0.9c1.2-1,2.6-1.7,3.8-2.7c3-2.3,6.6-2.8,9.9-4.2c1.4-0.6,2.7-0.6,4.1-0.5h0.7c0.5,0,0.9,0,1.4,0
		c3,0,5.9,0.9,8.7,1.9c2.1,0.7,4.3,1.3,6.4,2.2c1.4,0.5,2.6,1.3,3.9,2c1.4,0.8,2.9,1.6,4.3,2.4c0.8,0.5,1.5,1.1,2.3,1.6
		c4,2.4,7.6,5.3,11,8.4c1.9,1.7,3.9,3.3,5.8,4.9c0.6,0.5,1.1,1.3,1.7,1.9c1.7,1.5,3.4,3,5.2,4.5c0.9,0.8,1.7,1.6,2.7,2.3
		c1.5,1.2,3,2.3,4.5,3.5l0.8,0.6l1.5,1.2c1.5,1.2,3.1,2.3,4.7,3.3c2,1.2,4.2,1.8,6.3,2.7c0.9,0.4,1.8,0.9,2.7,1.2
		c2.9,1,5.6,2.6,8.9,3c3.1,0.4,6.2,0.8,9.4,0.8c1.6,0,3.2-0.5,4.8-1c1.5-0.4,3.1-0.9,4.5-1.6c1.7-0.8,3.4-1.8,5-2.8
		c0.3-0.2,0.5-0.6,0.8-0.7c2.3-0.7,3.7-2.6,5-4.3c1.5-1.9,2.3-4.3,3.3-6.5c0.6-1.3,1.1-2.7,1.4-4.2c0.5-2.3,1.5-4.5,1.2-7
		c-0.3-2.3,0-4.7,0.1-7.1c0-1.5-0.1-2.9-0.7-4.4c-0.4-0.9-0.6-1.9-0.7-2.9l-0.2-1c-0.1-0.3-0.1-0.7-0.2-1c-0.1-0.4-0.3-0.7-0.4-1.1
		c-0.8-2.4-1.6-4.8-2.5-7.2c-0.4-1.2-1.3-2.2-1.5-3.4c-0.4-2.4-2.3-4-3-6.1c-0.6-2-2-3.3-2.8-5c-0.6-1.3-1.4-2.5-2.2-3.7
		c-0.8-1.3-1.6-2.7-2.5-4c-1.6-2.4-3.3-4.7-4.8-7.2c-0.4-0.6-0.8-1.3-1.2-2l-0.7-1.4c-0.1-0.2-0.3-0.4-0.4-0.7
		c-0.2-0.3-0.4-0.7-0.7-1c-1.8-1.4-2.9-3.4-3.7-5.5c-0.2-0.6-0.8-1.1-1.2-1.6c-0.1-0.2-0.4-0.3-0.4-0.5c-1.3-3.2-2.8-6.3-3.8-9.5
		c-0.7-2.3,0.4-4.5,2.1-6.2c3.4-3.5,7.8-4.8,12.5-5.2c2-0.1,4,0.1,5.9,0.5c1.7,0.4,3.3,1.3,4.9,2c0.8,0.3,1.6,0.5,2.3,0.7
		c1.8,0.7,3.7,1.3,5.4,2c0.9,0.4,1.7,1.1,2.6,1.7c1,0.6,2.1,1.1,3.2,1.7c2.7,1.3,5.3,2.7,8,4c1.5,0.7,3.2,1.2,4.7,2
		c1.5,0.8,3,1.7,4.6,2.5v-1.3c-2.6-1.3-5.1-2.5-7.6-3.9C151.6,414.2,150.9,413.7,150.1,413.2L150.1,413.2z"/>
	<polygon class="st0" points="123.1,495 121.5,498.8 121.8,498.9 123.4,495.1 	"/>
	<path class="st0" d="M122.6,398.1l-3.5-0.3c0,0.1,0,0.3,0,0.4c1.1,0.1,2.3,0.3,3.4,0.4L122.6,398.1z"/>
	<path class="st0" d="M9.2,478.9c2.6-0.9,5.2-2.1,7.9-2.6c3.3-0.5,6.5,0.4,9.7,1.5c2.1,0.8,4.4,1.3,6.5,2.2c2,0.8,3.8,1.9,5.7,3
		c1.8,1.1,3.6,2.3,5.4,3.4c3.9,2.5,7.4,5.6,10.8,8.8c1.1,1.1,2.4,1.9,3.6,2.9c2.4,2.2,4.8,4.5,7.3,6.7c2.3,2,4.8,3.8,7.2,5.7
		c1.7,1.3,3.4,2.6,5.1,3.8c1.3,0.9,2.6,1.8,4.1,2.5c2,1,4,1.8,6.1,2.6c1.4,0.5,2.8,1,4.2,1.5c0.3,0.1,0.5,0.2,0.8,0.3
		c2.7,1.9,5.9,2,9,2.7c3.3,0.7,6.6,0.4,9.8,0.5c1.4,0.1,2.8-0.4,4.1-0.8c2.8-0.8,5.6-1.7,8.2-3c4.3-2.1,8-5,10.9-8.8
		c2.6-3.4,4.6-7.3,5.4-11.6c0.5-2.1,1.3-4.2,1.7-6.3c0.3-1.5,0.4-3.2,0.2-4.7c-0.5-3.4,0.4-6.8-0.8-10.2c-0.8-2.3-1.1-4.8-1.7-7.1
		c-0.4-1.4-1-2.8-1.5-4.2c-1.2-3.1-2.2-6.2-3.6-9.2c-0.7-1.7-2-3.2-2.7-4.9c-1.6-3.8-4.3-7.1-6.4-10.7c-1-1.8-2.1-3.5-3.3-5.2
		l-1.4-2c-0.5-0.7-0.9-1.4-1.4-2c-0.8-1.2-1.3-2.5-2.1-3.6c-1-1.4-2.4-2.6-3.3-4.1c-1.2-1.9-2.1-4-3.2-6.1c-0.3-0.6-0.8-1-1.3-1.5
		c-0.2,0.1-0.3,0.2-0.5,0.3c1,1.9,1.9,3.9,2.9,5.8c0.9,1.6,1.8,3.2,2.8,4.7c2,2.9,4.1,5.8,6.2,8.7c1.9,2.8,3.7,5.6,5.6,8.5
		c1.8,3,3.8,5.9,5.3,9c0.2,0.4,0.4,0.8,0.7,1.2l0.2,0.3c0.6,0.8,1.1,1.7,0.9,2.9c-0.1,0.4,0.5,0.9,0.7,1.4c1,1.9,1.7,3.9,2.4,6
		l0.5,1.5c0.3,1,0.7,2,1.1,3c0.4,0.9,0.1,2.1,0.6,2.9c0.9,1.4,1.1,2.8,1.3,4.3c0.3,2,0.6,4,0.4,6.2c-0.3,1.9,0.1,4,0,6
		c0,1.1-0.6,2.2-0.6,3.3c0,3-1.3,5.7-2.1,8.5c-0.6,2.3-2.2,4-3.2,6.1c-1.2,2.6-3.4,4.2-5.3,6.1c-0.9,0.9-2.1,1.7-3.3,2.3l-0.8,0.5
		c-0.3,0.2-0.5,0.3-0.8,0.5l-0.5,0.3l-1,0.6c-1.2,0.7-2.5,1.5-3.8,2c-1.7,0.7-3.5,0.8-5.3,1.1c-1.4,0.2-2.8,0.4-4.1,0.4
		c-1.3,0-2.5-0.2-3.8-0.1c-3.6,0.1-7-0.8-10.3-1.8c-1.4-0.4-2.9-0.7-4.3-1.3c-0.9-0.4-1.9-0.8-2.8-1.2l-1.8-0.9
		c-0.3-0.1-0.6-0.3-0.9-0.4c-0.6-0.3-1.3-0.5-1.9-0.8c-1.3-0.6-2.7-1.2-3.9-2c-2.5-1.6-4.8-3.2-7.2-4.9c-0.9-0.6-1.6-1.3-2.4-2
		c-0.7-0.6-1.3-1.2-2-1.8c-1.6-1.4-3.3-2.8-4.9-4.2c-2.1-1.9-4.1-3.9-6.2-5.8c-1.3-1.2-2.9-2.2-4.2-3.3c-0.6-0.5-1-1.3-1.6-1.8
		c-2.5-2-4.9-3.9-7.5-5.8c-1.4-1-2.9-1.8-4.5-2.6c-2.3-1.2-4.5-2.4-6.8-3.5c-1.8-0.9-3.7-1.7-5.6-2.4c-1.3-0.4-2.7-0.6-4-0.8
		c-1.8-0.3-3.6-0.5-5.3-0.8c-0.1,0-0.3-0.1-0.4-0.1c-2.5,1-5.4,0.8-7.6,2.5c-0.2,0.1-0.4,0.3-0.6,0.3c-3.1,0.9-5.5,2.9-7.6,5.1
		c-0.9,0.9-1.7,2.1-2.4,3.2v1C2.3,483.5,4.9,480.4,9.2,478.9L9.2,478.9z"/>
	<path class="st0" d="M156.5,401.6l-0.8-0.3c-0.8-0.3-1.5-0.6-2.1-1.1c-1.5-1.2-3.3-1.7-5-2.4c-1.3-0.5-2.4-1.3-3.6-1.9l-0.7-0.3
		l-1.3-0.6c-0.2-0.1-0.4-0.2-0.7-0.3c-0.6-0.3-1-0.8-1.6-1c-0.4-0.2-1-0.2-1.5-0.4c-1.9-0.7-3.7-1.5-5.6-2.3c-1-0.4-2-0.6-3-1
		c-1.8-0.6-3.5-1.3-5.3-1.8c-0.9-0.3-1.9-0.3-2.9-0.4c-1.5-0.1-3-0.1-4.5-0.1c-0.5,0-1,0.1-1.6,0.2c-0.4,0.1-1,0.4-1.3,0.2
		c-2.3-1.3-4.2,0.7-6.2,0.8c-1.6,0.1-2.9,0.9-4.4,1.1c-0.7,0.1-1.3,0.6-1.9,0.9c-0.8,0.5-1.6,1.1-2.4,1.6c-1.4,0.9-2.8,1.7-4.1,2.7
		c-0.7,0.5-1.5,0.6-2.1,1.3c-0.7,0.7-1,1.5-1.5,2.3c-0.4,0.7-1.1,1.2-1.8,2c0.3,0.6,0.3,1.5-0.8,2c-0.3,0.1-0.4,0.5-0.6,0.7
		c-0.6,1.1-1.4,2.2-1.7,3.4c-0.2,0.9-0.3,1.8-0.3,2.7v0.9c0,0.2,0,0.3,0,0.5c0,0.9,0.1,1.8,0.1,2.7c0,0.3-0.3,0.6-0.3,0.9
		c0.2,3.5,1.6,6.6,2.8,9.8c0.2,0.6,0.4,1.2,0.7,1.8c0.7,1.7,1.3,3.4,2.1,5c1,1.8,2.2,3.6,3.3,5.4c0.3,0.5,0.6,1,0.6,1.5
		c0,1.5,1.5,1.7,2.1,2.7c1.2,1.7,2.4,3.4,3.6,5.1c1.5,2.2,3,4.3,4.4,6.6c1.3,2,2.5,4.1,3.7,6.2c1.4,2.5,2.8,4.9,4.1,7.4
		c0.8,1.6,1.2,3.4,1.9,5.1c0.5,1.2,1.2,2.4,1.6,3.6c0.7,2.1,1.3,4.1,1.9,6.2c1.3,4.8,0.8,10.2-0.7,15c-1,3.2-3.6,4.2-5.9,5.9
		s-4.7,0.8-7.1,0.9c-2.2,0.1-4.3-0.6-6.3-1.4l-0.8-0.3c-0.4-0.2-0.8-0.3-1.2-0.5c-1.5-0.6-2.9-1.5-4.4-2.2c-0.5-0.2-1.1-0.1-1.5-0.3
		c-1-0.5-1.9-1.1-2.8-1.7c-1.2-0.9-2.1-2.3-3.4-2.7c-2.4-0.8-3.4-3.3-5.7-4.1c-0.2-0.1-0.3-0.2-0.4-0.3c-0.3-0.9-1-1.4-1.7-1.9
		l-0.4-0.2c-0.4-0.2-0.8-0.5-1.1-0.8c-0.9-0.9-1.9-1.8-2.9-2.7c0,0,0-0.1-0.1-0.1c-1.4-1.2-2.9-2.3-4.3-3.6
		c-1.2-1.1-2.3-2.3-3.5-3.4c-1.9-1.6-3.9-3.2-5.9-4.8l-1.6-1.2c-1.3-1-2.7-2.1-4.1-3c-1.5-1-3.1-1.7-4.7-2.6c-0.4-0.2-0.7-0.5-1-0.7
		c-2.6-1.9-5.6-3-8.6-4.1c-3-1.2-6-2.5-9.1-3.5c-0.7-0.2-1.4-0.4-2.1-0.5l-1.1-0.2c-0.4-0.1-0.7-0.1-1.1-0.2
		c-2.4-0.5-4.8-0.9-7.2-0.7c-0.6,0-1.2-0.2-1.7-0.2c-1.3,0.1-2.5,0.3-3.8,0.5l-0.8,0.1l-1.5,0.1c-0.5,0-1,0.1-1.5,0.2
		c-0.7,0.1-1.5,0.4-2.2,0.7c-1.4,0.5-2.8,1-4.1,1.6c-0.6,0.3-1.2,0.6-1.9,0.9c-0.6,0.3-1.1,0.5-1.7,0.7c0,0-0.1,0-0.1,0v2.7l0.2-0.1
		c1.5-0.7,3-1.4,4.4-2.1c0.3-0.1,0.6-0.3,0.8-0.5c0.7-0.6,1.4-0.8,2,0.1c1.5-1.6,3.2-2.2,5.3-1.3c0.5,0.2,1.2-0.4,1.9-0.6
		c0.9-0.2,1.8-0.5,2.7-0.6c0.2,0,0.5,0.4,0.9,0.9c1.3-0.6,3.1-1.5,4.8,0.4c0.4-1,1.3-1.1,2.1-0.5c0.7,0.5,1.4,0.9,2.1,1.4
		c0.1-0.1,0.2-0.3,0.2-0.4l-1-0.6c0.9,0.1,1.8,0.1,2.7,0.3c0.5,0.3,1,0.5,1.5,0.8c0,0,0-0.1,0-0.1c0.2,0.1,0.3,0.2,0.5,0.4
		c0.1,0.1,0.2,0,0.3,0c0.7,0.1,1.6,0,2.2,0.4c0.2,0.1,0.5,0.2,0.8,0.4c0,0.1-0.1,0.2,0,0.2l1.6,0.5v0c1.1,0.5,2.3,0.9,3.4,1.4
		c1.5,0.8,3,1.7,4.8,2.2c1.2,0.3,2.2,1.3,3.3,2c0.3,0.2,0.6,0.1,0.9,0.2c0.2,0,0.4,0.1,0.6,0.2c1,0.7,2,1.4,3.1,2.1
		c1.5,0.9,3.1,1.8,3.9,3.6c0.1,0.2,0.4,0.3,0.8,0.3c-0.3-0.4-0.5-0.8-0.8-1.2l0.2-0.1c0.6,0.6,1.1,1.4,1.8,1.9
		c1.3,1,2.7,1.8,3.9,2.8c0.5,0.4,0.8,0.9,1.1,1.4l0.2-0.4l0.9,0.4l-0.3,0.6c0.1,0.1,0.2,0.1,0.3,0.2l0.8,0.6
		c0.1,0.1,0.3,0.2,0.4,0.3c1.3,1.1,2.6,2.3,3.9,3.4c0.1,0.1,0.2,0.1,0.2,0.1c0.5,2.6,3.9,2.2,4.6,4.4c-0.1,0-0.4-0.1-0.7-0.2
		c0,0.1,0,0.2-0.1,0.2l2.3,1h-0.1c0.2,0.4,0.4,1,0.7,1.3c1.1,0.9,2.4,1.7,3.5,2.7c0.8,0.6,1.4,1.4,2.1,2.1c0.3,0.3,0.5,0.8,0.8,1.2
		l0.3-0.1c0.3-0.1,0.5-0.2,0.6-0.3c1.7,1.2,3.3,2.4,5.1,3.4c1.1,0.6,0.6,0.8,0.1,1.2c1.1,0.4,2.3,0.8,3.5,1.2l0.2-0.5l0.8,0.3
		l0.1,0.1l-0.2,0.6c0.4,0.4,0.8,0.7,1.2,1.1c0.1-0.1,0.2-0.2,0.3-0.2c-0.1-0.2-0.2-0.4-0.2-0.5c1.4,0.3,2.8,0.6,4.2,0.9
		c0.3,0.1,0.4,0.7,0.6,0.7c1.6,0.5,3.3,1.2,4.9,1.4c2,0.3,4,0.2,5.9,0.2c0.7,0,1.5-0.1,2.2-0.4c1.4-0.6,3.1-1,4.2-2l0.5-0.4
		c2.1-1.8,4.3-3.7,4.8-6.8c0.3-2,1.7-3.8,1.5-5.9c-0.2-3,0.3-5.9-0.7-8.9c-0.5-1.7-0.9-3.3-1.7-4.9c-0.1-0.2,0.2-0.7,0.4-1.1
		c0.1,0,0.2,0,0.4,0.1c-0.5-0.8-1-1.6-1.4-2.5c-0.8-1.6-1.6-3.1-2.3-4.7c-0.5-1.1-0.9-2.3-1.3-3.5c-0.1-0.3,0.2-0.6,0.3-1
		c-1.2-0.3-1.7-1.2-2.2-2.5c-0.6-1.6-1.3-3.6-2.5-4.4c-1.5-0.9-0.7-2.3-1.7-3.2c-0.8-0.7-1.5-1.6-2.1-2.5s-0.9-1.9-1.5-2.8
		c-0.5-0.8-1.2-1.5-1.7-2.2c-0.8-1.2-1.7-2.3-2.3-3.6c-0.7-1.5-1.7-2.7-2.9-3.7c-0.1-0.1-0.1-0.1-0.2-0.2l-0.1-0.1
		c-0.4-0.3-0.7-0.6-0.1-0.9c-1.1-1.5-2.2-3.1-3.4-4.9c0.6,0.1,0.9,0.1,1.1,0.1c-2.2-1.3-2.8-3.4-3.2-5.5l-0.1-0.5
		c-0.1-0.5-0.2-1-0.3-1.6c-0.3,0.3-0.5,0.6-0.7,0.8c-0.7-2.2-1.3-4.4-2-6.5c0.2,0.2,0.4,0.4,0.7,0.7c0.1-0.1,0.2-0.2,0.4-0.2
		c-0.5-0.7-1-1.4-1.4-2.2c-0.5-0.8-0.8-1.8-1.2-2.6c0.1-0.1,0.3-0.1,0.4-0.2c0.1,0.3,0.3,0.6,0.6,1.3c0-0.7,0.1-1,0-1.3
		c0-0.1-0.1-0.2-0.1-0.3l-0.1-0.2c-0.2-0.6-0.5-1.1,0.4-1.7c0.4-0.2,0.4-1.7,0-2.3c-1-1.7-0.1-2.9,0.6-4.3c0.6-1,0.7-2.2,2-3
		c0.9-0.5,1.1-2.2,1.7-3.4c0.1-0.2,0.4-0.3,0.6-0.4c0.3-0.1,0.6-0.2,0.9-0.3c-0.1-0.2-0.3-0.4-0.3-0.6s0.4-0.4,0.5-0.4
		c1.3,0.1,1.4-0.9,1.7-2.1c0.3,0.4,0.5,0.7,0.7,1c0.5-0.7,1-1.4,1.4-2.2c0,0.1,0.1,0.2,0.1,0.3c0.6-0.2,1.1-0.3,1.7-0.6
		c0.5-0.2,1-0.5,1.6-0.7c0.4-0.4,0.9-1,1.7-1.8c0.1,0.6,0.1,0.9,0.1,1.2c0.6-0.2,1.3-0.3,1.9-0.5c0-0.1,0-0.2,0-0.3
		c-0.4,0-0.8,0-1.2,0c-0.1-0.2-0.1-0.3-0.2-0.5c0.6-0.1,1.1-0.3,1.7-0.4c1.2-0.2,2.3-0.5,3.6-0.9c-0.3,0.2-0.5,0.4-0.8,0.6
		c0,0.1,0.1,0.2,0.1,0.3c0.6-0.2,1.2-0.4,1.8-0.6c0.2-0.1,0.4-0.5,0.6-0.4c1.5,0.1,2.9,0.4,4.4,0.5c0.6,0.1,1.2,0.1,2.2,0.1
		c-0.5-0.3-0.6-0.5-0.8-0.6l0.1-0.3l1.7,0.7c0.4-1,1.2-0.8,1.9-0.6l0.2,0.1c0.3,0.1,0.5,0.2,0.8,0.2c1,0.1,1.9,0.8,2.9,1.3
		c-0.1-0.3-0.1-0.6-0.2-0.9c2.1,0.7,4.1,1.3,6.4,2.1c-0.5,0-0.7,0-1-0.1c0.5,0.2,1,0.3,1.5,0.5l0.4,0.1c1.7,0.5,3.3,1.1,4.1,3.1
		c0.1-0.1,0.2-0.2,0.3-0.3c0-0.3-0.1-0.5-0.1-1.2c0.9,0.5,1.5,1,2.2,1.3s1.4,0.4,2.1,0.7c1.3,0.6,2.6,1.3,3.9,1.9
		c0.1,0,0.2,0,0.2,0.1c0.8,1.7,2.5,1.2,3.8,1.7c0.5,0.2,1.4,0.2,0.8,1.1l1.2,0.5c0,0.2,0,0.6,0.1,0.7c0.8,0.4,1.6,0.7,2.5,1l0.7,0.3
		l-0.1-0.1c-0.2-0.2-0.5-0.4-0.7-0.6c-0.1,0-0.1-0.1-0.1-0.1c0.6,0.3,1.2,0.6,1.9,0.8c0.5,0.3,1,0.7,1.5,1l0.1-0.2
		c0.8,0.5,1.5,1.2,2.4,1.4v-3.2c-0.7-0.4-1.3-0.7-2-1.1C157.5,402.1,157,401.9,156.5,401.6L156.5,401.6z"/>
	<path class="st0" d="M152.6,405.5c-0.9-0.4-1.8-0.9-2.7-1.4c-0.8-0.4-1.6-0.6-2.4-1c-1.4-0.7-2.8-1.5-4.3-2.2
		c-1.1-0.5-2.2-0.9-3.3-1.4c-2.7-1.2-5.4-2.5-8-3.7c-0.7-0.3-1.4-0.4-2.1-0.6c-0.7-0.3-1.5-0.6-2.2-0.9c-1.3-0.4-2.5-0.7-3.8-1
		c-4.1-0.8-8.1-0.5-12.1,0.3c-1.6,0.3-3.2,0.6-4.7,1.1c-1.2,0.5-2.4,1.2-3.5,2c-1.9,1.4-4.3,2.1-5.8,4.2c-2.1,2.8-4.1,5.7-4.7,9
		c-0.4,2.7,0.2,5.7,1.1,8.4c1.1,3.6,2.7,7.1,4.3,10.5c0.7,1.6,1.9,3,2.9,4.5c2.8,4.1,5.6,8.3,8.4,12.4c1.4,2.1,3,4.2,4.3,6.5
		c1.9,3.3,3.8,6.6,5.6,10c0.8,1.5,1.3,3.1,1.9,4.7c0.9,2.3,1.8,4.5,2.7,6.8c1.3,3.4,2.5,6.9,2.7,10.7c0.2,5.8-0.4,11.5-3.4,16.6
		c-0.8,1.3-2,2.4-3.2,3.3c-1.6,1.2-3.4,2.3-5.3,3.2c-1.7,0.9-3.6,1-5.5,0.9h-0.7c-0.4,0-0.7,0-1.1,0c-4.1,0.1-7.9-1.1-11.6-2.5
		c-4.3-1.7-8.5-3.5-12.1-6.5c-2.1-1.8-4.5-3.2-6.6-5c-1.8-1.5-3.5-3.1-5.2-4.6l-3.4-3.1c-0.6-0.5-1.1-1-1.7-1.6
		c-1-0.9-2.1-1.9-3.2-2.7c-2.7-2.3-5-5.1-8.2-6.6c-1-0.5-1.8-1.4-2.7-2.1c-2.5-2-5.2-3.6-8.2-4.9c-1.3-0.6-2.4-1.5-3.7-2.1
		c-1.7-0.8-3.6-1.5-5.3-2.3c-2.2-0.9-4.3-2-6.6-2.7c-1.4-0.5-2.9-0.4-4.4-0.6c-2.2-0.3-4.5-0.7-6.7-0.8c-1.5,0-3,0.3-4.5,0.6
		c-2,0.4-4.1,0.8-6,1.5c-2.2,0.8-4.3,1.8-6.4,2.9c-0.3,0.2-0.6,0.3-0.9,0.5v1.5c1.4-0.8,2.7-1.6,4.2-2.2c3.2-1.4,6.6-2.5,10.1-3.4
		c2-0.5,4.1,0,6.2,0c2.8,0,5.5,0.8,8.1,1.6c2.8,0.9,5.5,2.1,8.3,2.9c4.1,1.2,7.5,3.7,11.2,5.7c3.6,2.1,6.9,4.8,10.2,7.2
		c1.5,1.2,2.7,2.8,4.1,4.1c1.7,1.5,3.5,2.8,5.2,4.3c0.7,0.6,1.2,1.3,1.9,1.9c0.8,0.6,1.6,1.2,2.4,1.8c0.4,0.3,0.7,0.8,1.1,1.2
		s0.8,0.8,1.2,1.2c1.3,1.1,2.5,2.3,3.9,3.3c1.4,1.1,2.9,2,4.3,3c0.4,0.2,0.7,0.5,1.1,0.8c0.4,0.3,0.8,0.6,1.2,0.8l1.2,0.9
		c1.2,0.9,2.5,1.7,3.8,2.3c2.2,1.1,4.6,1.6,6.9,2.4c1.3,0.5,2.5,1.1,3.8,1.6c0.3,0.1,0.7,0.1,1,0.2l0.5,0.1l1,0.2
		c0.7,0.1,1.4,0.2,2.1,0.2c2.2,0.1,4.5,0.6,6.7-0.4c1.1-0.5,2.3-0.8,3.4-1.1c2.9-0.7,4.9-2.7,7.1-4.4c1-0.8,1.7-2,2.2-3.2
		c1.1-2.7,2.2-5.5,2.8-8.4c0.5-2,0.3-4.2,0.4-6.3c0.1-2,0.3-4-0.4-6c-0.6-1.7-0.9-3.5-1.4-5.2c-0.6-2.1-1.3-4.2-2.1-6.3
		c-1.3-3.4-2.7-6.8-4.7-9.9c-2.7-4.4-5.3-8.8-8.1-13.2c-1.2-2-2.6-3.9-3.8-5.9c-0.7-1-1.2-2.1-1.9-3.1c-1.1-1.5-2.3-2.9-3.4-4.4
		c-0.4-0.6-0.7-1.3-1.1-2c-1.7-3.4-3.3-6.8-5.1-10.3c-0.4-0.9-0.8-1.9-0.5-3c0.1-0.2,0-0.6-0.2-0.8c-1.2-2.1-1.1-4.4-0.7-6.6
		c0.3-1.6,1.3-3.1,2.1-4.6c2-4,5.8-6,9.4-8c2-1.1,4.3-1.7,6.5-2c3.3-0.5,6.6-0.4,9.8,0.1c1.4,0.2,2.7,0.7,4.1,1.1
		c0.6,0.2,1.2,0.3,1.8,0.4c0.3,0.1,0.6,0.1,0.9,0.2c0.5,0.2,1.1,0.5,1.6,0.8l1,0.5c1.4,0.7,2.8,1.4,4.3,1.8c2.2,0.6,4,1.8,6,2.7
		c2.8,1.3,5.5,2.9,8.2,4.2c0.5,0.3,1,0.4,1.5,0.7c2,0.9,4.3,1.4,5.9,2.8c0.8,0.7,1.7,1.1,2.6,1.4v-1.9c-1.4-0.7-2.7-1.5-4.1-2.2
		C154.8,406.4,153.7,406,152.6,405.5L152.6,405.5z"/>
	<path class="st0" d="M157.7,413.9c-0.1,0.1-0.1,0.1-0.1,0.2l2.2,0.9l0.1-0.2L157.7,413.9z"/>
	<path class="st0" d="M139.2,404.6c-0.1,0.1-0.1,0.2-0.1,0.2l2.7,1.1c0.1,0,0.1-0.1,0.2-0.1L139.2,404.6L139.2,404.6z"/>
	<path class="st0" d="M126.7,399.7l3.3,1.4C129.1,399.6,127.9,399.6,126.7,399.7z"/>
	<path class="st0" d="M154.3,411.6c-3.3-1.6-6.5-3.2-9.6-4.6c-0.1,0.2-0.1,0.3-0.2,0.4C149.4,410.4,153.1,412,154.3,411.6
		L154.3,411.6z"/>
	<path class="st0" d="M119.8,453.4c0.2-0.1,0.4-0.2,0.5-0.3c-0.3-0.4-0.6-0.9-0.9-1.3c-0.1,0.1-0.3,0.2-0.4,0.3
		C119,452.1,119.8,453.4,119.8,453.4z"/>
	<path class="st0" d="M131.8,489.3l-0.1-1.6c-0.2,0-0.3,0-0.4,0c0,0.5,0.1,1.1,0.1,1.6C131.5,489.3,131.7,489.3,131.8,489.3z"/>
	<path class="st0" d="M131,480.7c0.1,0.9,0.2,1.7,0.3,2.6c0.1-0.1,0.3-0.1,0.4-0.1c-0.1-0.9-0.2-1.8-0.2-2.6
		C131.3,480.6,131.2,480.7,131,480.7L131,480.7z"/>
	<path class="st0" d="M1,470.9l-1,0.9v0.5c0.4-0.3,0.9-0.5,1.3-0.9C1.2,471.2,1.1,471.1,1,470.9z"/>
	<path class="st0" d="M131.6,492.3c0-0.8-0.1-1.7-0.1-2.6c-0.1,0-0.3,0-0.4,0c0,0.9,0,1.7-0.1,2.6
		C131.2,492.3,131.4,492.3,131.6,492.3L131.6,492.3z"/>
	<path class="st0" d="M7,468.1c0,0.1,0.1,0.2,0.1,0.4c1.1-0.4,2.2-0.8,3.3-1.2C9,466.8,8.1,467.6,7,468.1L7,468.1z"/>
	<path class="st0" d="M149.7,420.1c-1.5-0.8-3.1-1.5-4.7-2.3c-1.1-0.6-2.2-1.2-3.3-1.7c-0.8-0.4-1.7-0.7-2.6-1.1
		c-0.7-0.4-1.5-0.7-2.1-1.2c-1.6-1.3-4-0.8-5.3-2.5c-0.1-0.1-0.3-0.2-0.4-0.1c-1,0.1-1.8-0.3-2.6-0.8l-0.4-0.2
		c-0.4-0.2-0.7-0.4-1.1-0.5c-1.7-0.6-3.3-1.6-5.1-2c-3.3-0.7-6.7-0.1-10,0.7c-0.3,0.1-0.5,0.6-0.7,1l0.3,0.3
		c3.1-1.3,6.4-1.5,9.6-0.9c1.6,0.3,3.1,1.1,4.7,1.8c4.3,1.8,8.5,3.5,12.7,5.4c3.2,1.5,6.3,3.3,9.5,4.9c1.3,0.7,2.8,1.1,4.1,1.8
		c2.6,1.3,5.1,2.8,7.7,4.2v-1.5c-1.2-0.6-2.5-1.2-3.7-1.9C154.1,422.4,151.9,421.1,149.7,420.1L149.7,420.1z"/>
	<path class="st0" d="M84.2,408.1c-0.1,0-0.3-0.1-0.4-0.1l-0.3,3.9c0.2,0,0.3,0,0.5,0C84,410.7,84.1,409.4,84.2,408.1z"/>
	<path class="st0" d="M150,426.1c-3-1.6-6-3.2-9-4.8c-0.7-0.4-1.5-0.6-2.3-0.8c-0.6-0.2-1.2-0.4-1.7-0.7c-1.6-1.2-3.5-1.7-5.4-2.4
		c-2.3-0.8-4.5-2.1-6.7-3.1c-3-1.3-6-2.3-9.3-1.4c-2.8,0.8-2.7,0.7-1.9,3.5c0.8,2.9,2.4,5.4,4.2,7.8c2.1,2.9,4,6,6.2,9
		c1.5,2.2,3,4.3,4.4,6.6c2.2,3.7,4.3,7.4,6.5,11.1c1,1.7,2,3.5,3,5.2c0.3,0.6,0.4,1.3,0.6,1.9c0.4,1,0.9,1.9,1.3,2.9
		c1.3,3.8,2.4,7.7,4,11.4c1.2,2.9,1.8,5.9,2.1,9c0.3,4.3,0.4,8.6-0.2,12.9c-0.4,2.4-0.8,4.8-1.4,7.1c-0.4,1.6-1.1,3.2-1.8,4.8
		c-0.9,1.9-2.2,3.6-3.1,5.4c-2,4.2-5.4,6.9-9.1,9.3c-1,0.6-1.8,1.4-2.7,2.1c-0.7,0.5-1.3,1-2.1,1.3c-2.5,1-5.1,2-7.7,2.9
		c-1.2,0.4-2.6,0.5-3.9,0.5c-4.7,0.2-9.3,0.5-13.9-0.4c-2.5-0.5-4.9-1.3-7.4-2.1c-2-0.6-3.9-1.4-5.8-2.2c-2.6-1.1-5.3-2.3-7.8-3.7
		c-1.6-0.9-3-2.3-4.6-3.4c-1-0.7-2.1-1.3-3-2.1c-3.3-2.6-6.5-5.2-9.7-7.9c-2-1.6-3.9-3.4-5.8-5.1c-2.1-1.8-4.6-3.4-6.3-5.6
		c-2.1-2.5-5-3.8-7.3-6c-1.1-1.1-2.5-1.8-3.9-2.5c-4.3-2.1-8.5-4.4-13-5.9c-2.9-1.1-6.2-1.7-9.4-0.5c-2.4,1-5.1,1.6-7.2,3
		c-2.2,1.5-4,3.6-5.5,5.7C2,491.1,1,492.9,0,494.7v106h160V431c-1.5-0.8-3-1.5-4.5-2.3C153.8,427.8,151.8,427,150,426.1L150,426.1z"
		/>
	<path class="st0" d="M84.2,419.7c0.2,0,0.3-0.1,0.5-0.1l-0.8-2.4c-0.1,0-0.3,0.1-0.4,0.1L84.2,419.7z"/>
	<path class="st0" d="M20.5,465.7c-1.6-0.1-3.2-0.2-4.8-0.3c0,0.1,0,0.3,0,0.5l4.8,0.2C20.5,466,20.5,465.8,20.5,465.7L20.5,465.7z"
		/>
	<path class="st0" d="M101.5,512.5c-1.4-0.3-2.7-0.7-4.1-1c0,0.2-0.1,0.3-0.1,0.5c1.4,0.4,2.7,0.7,4.1,1.1
		C101.4,512.9,101.5,512.7,101.5,512.5L101.5,512.5z"/>
	<path class="st0" d="M57.2,483.1c-0.7-0.5-1.4-1.1-2.1-1.6c0,0.1-0.1,0.2-0.1,0.3c0.7,0.5,1.4,1.1,2,1.6
		C57.1,483.3,57.2,483.2,57.2,483.1z"/>
	<path class="st0" d="M74.3,498.3c0,0.1-0.1,0.2-0.2,0.3c0.4,0.3,0.8,0.6,1.2,0.9l0.2-0.3C75.1,498.9,74.7,498.6,74.3,498.3z"/>
	<path class="st0" d="M64,489.1c-1.4-1.2-2.8-2.4-4.3-3.7c-0.1,0.2-0.2,0.3-0.3,0.4c1.4,1.2,2.8,2.4,4.3,3.7
		C63.8,489.4,63.9,489.2,64,489.1z"/>
	<path class="st0" d="M85.8,506.8l-0.2,0.3l3.8,1.6c0.1-0.1,0.1-0.2,0.2-0.3L85.8,506.8z"/>
	<path class="st0" d="M82,504c-1.2-0.7-2.3-1.5-3.5-2.2c0,0-0.1,0.1-0.2,0.3l3.5,2.3L82,504z"/>
	<path class="st0" d="M21.4,465.6c-0.1,0.1-0.1,0.3-0.1,0.5c1,0.2,2,0.4,3,0.5c0-0.1,0-0.2,0.1-0.3
		C23.4,466.1,22.4,465.9,21.4,465.6L21.4,465.6z"/>
	<path class="st0" d="M36.5,470.2l-0.1,0.4c0.7,0.1,1.3,0.2,2,0.4c0-0.1,0-0.2,0.1-0.3L36.5,470.2L36.5,470.2z"/>
	<path class="st0" d="M32.7,468.7l-0.6-0.3c-2.3-1.2-4.6-2.2-7.5-2c3.9,1.3,7.5,2.5,11,3.6C34.6,469.7,33.7,469.2,32.7,468.7
		L32.7,468.7z"/>
	<path class="st0" d="M43.5,473.8c-0.1,0.1-0.1,0.2-0.1,0.2l1.7,0.7c0-0.1,0-0.1,0.1-0.2L43.5,473.8z"/>
	<path class="st0" d="M49.7,477.1c-0.7-0.4-1.5-0.8-2.2-1.2c-0.2,0.1-0.3,0.2-0.3,0.3l2.2,1.3C49.5,477.4,49.6,477.2,49.7,477.1z"/>
	<path class="st0" d="M125.3,55.6L125.3,55.6c1.1,0.7,2.3,1.4,3.5,2c0.1-0.1,0.2-0.3,0.3-0.4L125.3,55.6z"/>
	<path class="st0" d="M119.5,52.1c-0.7-1.1-2-1.3-3.1-1.7l-0.2-0.1l3.4,2C119.6,52.3,119.5,52.1,119.5,52.1z"/>
	<path class="st0" d="M124.1,54.2l-4.3-1.8l-0.2-0.1c1.4,0.9,2.7,1.7,4.1,2.6C123.8,54.7,123.9,54.4,124.1,54.2z"/>
	<path class="st0" d="M101.6,42c-2.4-1.2-4.7-2.5-7.1-3.7c0,0.1-0.1,0.2-0.2,0.4c2.4,1.2,4.8,2.4,7.1,3.7
		C101.5,42.3,101.5,42.2,101.6,42z"/>
	<path class="st0" d="M104.6,43.5l-2.6-1.1c0,0.1-0.1,0.2-0.1,0.3l2.6,1.1C104.5,43.7,104.6,43.6,104.6,43.5z"/>
	<path class="st0" d="M108.9,46.2c-0.1,0.1-0.1,0.2-0.2,0.2l2.3,1c0-0.1,0-0.1,0.1-0.2C111.1,47.2,108.9,46.2,108.9,46.2z"/>
	<path class="st0" d="M158.4,88.4l-0.1-0.2c-0.1-0.1-0.1-0.2-0.2-0.3c-0.1-0.1-0.1-0.4-0.2-0.4c-1.5-0.3-2.7-1.1-3.3-2.6
		c-0.1-0.1-0.4-0.1-0.6-0.2c-0.7-0.3-1.5-0.5-1.9-1c-0.6-0.8-0.8-1.8-2.1-1.4c-0.2,0-0.5-0.3-0.7-0.5c-1-0.9-1.9-1.9-2.9-2.7
		c-0.2-0.1-0.6,0-0.7,0c-0.3-0.5-0.6-1.2-0.9-1.3c-1.9-0.1-2.7-1.9-4.1-2.7c-1.6-0.9-3.3-1.8-4.6-3.2c-0.7-0.7-2-0.9-2.9-1.5
		c-1.4-0.9-2.7-2-4.1-2.9c-0.8-0.5-2-0.8-2.4-1.5c-0.6-1.2-1.3-1.4-2.4-1.5c-0.2,0-0.3-0.1-0.5-0.2c-1.3-0.8-2.6-1.6-3.9-2.4
		c-0.4-0.2-0.8-0.5-1-0.9c-0.2-0.3-0.3-0.8-0.3-0.9c-0.7,0.2-1,0.4-1.3,0.3c-0.8-0.4-1.6-0.9-2.4-1.3c-2.2-1.1-4.4-2.2-6.5-3.3
		c-0.2-0.1-0.3-0.4-0.5-0.5l-0.3-0.2l-0.5-0.5c-0.4-0.3-0.7-0.6-1.1-0.8c-0.7-0.4-1.5-0.4-2.2-0.7c-0.9-0.5-1.8-1.2-2.7-1.7
		c-1.5-0.8-3-1.5-4.6-2.3c-2-1-3.9-2.1-5.9-3.1c-0.2-0.1-0.4-0.4-0.6-0.6c-0.5-0.5-0.9-1.2-1.5-1.4c-1.1-0.3-2.1-0.6-3-1.4
		c-1-0.9-2.1-1.6-3.2-2.2c-0.9-0.5-1.9-0.9-2.9-1.3c0-0.1,0.1-0.2,0.1-0.3c0.3,0,0.5,0.1,0.8,0.1c-0.4-0.5-1-1.1-1.5-1.1
		c-1.6,0-3.7-1-4.3-2.3c-0.1-0.3-0.4-0.6-0.6-0.7c-0.7-0.3-1.5-0.5-2.2-0.9c-1-0.6-2-1.3-2.9-2c-0.5-0.4-1-0.9-1.8-1.5
		c0.7,0,0.9,0.1,1.4,0.1c-0.4-0.4-0.7-0.8-1-0.8c-1.2-0.1-2-0.8-2.9-1.5c-2.2-1.6-3.9-3.8-6.2-5.4c-2.7-2-4.8-4.8-7.2-7.3
		c-0.3-0.3-1-0.4-1.2-0.8C49.3,14,49,13,48.4,12.3c-0.7-0.9-1.7-1.5-2.4-2.4c-0.5-0.6-1-1.3-1.5-2l-0.2-0.3l-0.2-0.2
		C44,7.3,43.9,7.1,43.8,7v0.1L41,5.9L41.4,5h0.1l1.4,0.6c-0.1-0.4-0.2-0.8-0.5-1.1c-0.3-0.3-0.9-0.3-1.3-0.6
		c-1.2-0.9-1.7-2.1-1.6-3.6c0-0.1,0-0.2-0.1-0.3h-3.8c0.7,1.3,1.3,2.6,2,3.9C38,4.4,38,5.1,38.3,5.5c1.5,1.8,3.1,3.6,4.6,5.4
		c1.2,1.4,2.3,3.3,3.8,4.2c2.9,1.9,4.3,5.3,7.2,7.1c1,0.6,1.6,1.7,2.4,2.5s1.7,1.6,2.5,2.3c0.7,0.6,1.3,1.2,2,1.7
		c0.4,0.3,1,0.6,1.3,1c0.2,0.2,0.3,0.4,0.4,0.6l0.2,0.4c0.5,0.7,0.9,1.5,2.1,1.3c0.1,0,0.2,0.1,0.3,0.2c0.9,0.9,1.8,1.9,2.7,2.8
		c0.8,0.8,1.7,1.7,2.7,2c2.1,0.6,3.3,2.3,5,3.3c0.4-0.1,0.9-0.1,1.1,0.1c0.6,0.5,1,1.3,1.7,1.7c1.8,1.1,3.7,2,5.5,3
		c1,0.5,2.1,0.9,3.1,1.5c1.2,0.8,2.4,1.8,3.6,2.5c0.3,0.2,0.7,0.4,1,0.5l0.7,0.3c0.2,0.1,0.5,0.2,0.7,0.3c1.6,0.8,3.1,1.7,4.6,2.5
		l0.8,0.5l1.6,1c0.3,0.2,0.5,0.3,0.8,0.5c0.7,0.4,1.4,0.7,2.2,1c1.1,0.6,2.3,1.1,3.3,1.8c1.5,0.9,2.9,2,4.5,2.9
		c1.1,0.6,2.4,1,3.6,1.6c1.9,1,3.8,2.2,5.7,3.3c1,0.6,2.1,1,3,1.6l4.5,3c1.3,0.9,2.7,1.9,4,2.9c0.2,0.2,0.4,0.4,0.7,0.5
		c0.9,0.5,1.9,1,2.8,1.6c1.7,1.2,3.4,2.5,5.1,3.7s3.4,2.4,5,3.6c0.9,0.7,1.8,1.6,2.7,2.3c1,0.8,2.1,1.4,3.2,2.2
		c0.8,0.6,1.6,1.4,2.4,2c1.6,1.3,3.2,2.6,4.8,3.8c0.3,0.3,0.6,0.6,1,0.9c0.3,0.2,0.5,0.4,0.8,0.6v-4.6c-0.3-0.2-0.7-0.4-1.2-0.4
		C158.7,89,158.5,88.7,158.4,88.4L158.4,88.4z"/>
	<path class="st0" d="M137.1,62.1c-1.4-0.9-2.9-1.7-4.3-2.6c-0.2,0.1-0.2,0.3-0.3,0.4c1.4,0.9,2.8,1.8,4.3,2.6
		C136.9,62.4,137,62.2,137.1,62.1z"/>
	<path class="st0" d="M150,59.5c-2.3-1.6-4.6-3.2-6.9-4.8c-0.4-0.3-0.8-0.6-1.2-0.9l-1.2-0.9c-0.8-0.6-1.6-1.2-2.4-1.7
		c-2.8-1.7-5.7-3.2-8.6-4.8c-1.6-0.9-3.1-1.8-4.7-2.7c-0.9-0.5-1.8-1-2.8-1.5c-3.1-1.8-6.1-3.7-9.3-5.2c-3-1.4-5.7-3.3-8.6-4.9
		c-1.4-0.8-3.1-1.3-4.5-2.1c-3.1-1.8-6.1-3.8-9.2-5.7c-0.6-0.4-1.2-1.1-1.8-1.3c-3-1.3-5.5-3.3-8-5.2c-1.2-0.9-2.2-2.2-3.4-3.2
		c-1.4-1.2-3-2.3-4.3-3.5c-3.2-3-6.3-6.1-9.4-9.2c-0.6-0.6-1.2-1.2-1.8-1.9h-1.2c0.8,1,1.6,2.1,2.7,2.8c1.8,1.2,2.4,3.6,4.5,4.8
		c1.8,1,2.6,3.3,4.7,4.3c0.8,0.4,1.5,1,2.1,1.7l0.5,0.5l0.7,0.7c1.5,1.3,2.9,2.8,4.4,4c1.6,1.2,3.4,2.2,5,3.3
		c1.8,1.2,3.5,2.5,5.4,3.6c1.6,1,3.2,1.8,4.8,2.7c3,1.8,6,3.5,9,5.3c0.4,0.3,0.7,0.8,1.2,1c2.6,1.3,5.3,2.5,7.9,3.8
		c0.7,0.3,1.3,0.7,1.9,1.1l1.2,0.8c0.4,0.3,0.8,0.5,1.3,0.8c1.4,0.8,2.9,1.4,4.3,2.2c3,1.7,6,3.5,9,5.3c2.1,1.2,4.4,2.2,6.4,3.7
		c1.7,1.3,4.2,1.5,5.1,3.8c0,0.1,0.3,0.2,0.3,0.2c1.3-0.5,1.7,0.6,2.4,1.2c0.7,0.6,1.4,1.2,2.1,1.7l1.5,1.1c0.2,0.2,0.5,0.2,0.8,0.3
		c0.5,0.2,1,0.4,1.4,0.7c1.6,1.1,3.2,2.3,4.8,3.5c1.2,0.9,2.4,1.6,3.5,2.5c0.1,0.1,0.3,0.2,0.4,0.3v-1.2c-0.8-0.5-1.5-1-2.3-1.5
		C155,63.3,152.5,61.3,150,59.5L150,59.5z"/>
	<polygon class="st0" points="158.1,77.4 156.4,76.3 156.2,76.7 157.9,77.7 	"/>
	<path class="st0" d="M153.9,69.2c-2.4-1.7-4.4-3.9-7.2-5.2c-2-1-3.7-2.6-5.6-4c-1.9-1.3-3.7-2.7-5.6-4c-1.3-0.9-2.7-1.8-4.1-2.6
		c-0.9-0.5-1.9-0.9-2.9-1.4c-0.6-0.3-1.4-0.4-1.9-0.8c-2-1.3-3.9-2.7-6-3.9c-2.2-1.3-4.5-2.4-6.8-3.6c-0.7-0.4-1.2-1-1.9-1.2
		c-2.2-0.6-3.9-2.1-5.8-3.2c-2.7-1.6-5.6-3-8.5-4.5c-0.3-0.2-0.6-0.2-0.9-0.4c-2-1.2-4-2.3-6-3.5c-1.1-0.6-2.1-1.3-3.2-2
		c-0.2-0.2-0.5-0.3-0.7-0.5L86.3,28c-0.5-0.4-1.1-0.9-1.7-1c-2.6-0.8-4.4-2.9-6.5-4.3c-3.2-2.1-6-4.9-8.8-7.5
		c-3.2-3-6.4-6.1-9.4-9.2c-1.3-1.3-2.2-2.8-3.4-4.1c-0.6-0.6-1.1-1.3-1.7-1.9h-2.5c0.4,0.6,0.9,1.1,1.4,1.6c2,2,4,4,5.9,6.1
		c1.1,1.2,2,2.6,3.2,3.7c1.8,1.8,3.8,3.3,5.7,5l1.8,1.8c0.8,0.7,1.7,1.2,2.5,1.9c1.8,1.5,3.4,3.3,5.2,4.7c2,1.5,4.2,2.6,6.3,4
		c1,0.7,1.9,1.5,3,2.2c2,1.2,4,2.3,6,3.4c2.3,1.3,4.6,2.6,6.9,3.9c1.1,0.6,2.3,1.2,3.4,1.8c3,1.6,5.9,3.3,8.8,4.9
		c1.8,1,3.5,2,5.3,3.1c2,1.2,4,2.4,6,3.5c2.3,1.2,4.8,2.2,6.9,3.6c1.1,0.8,2.3,1.5,3.5,2.2l1.4,0.9c2.4,1.4,4.8,2.9,6.9,4.8
		c2.6,2.3,5.7,3.8,8.5,5.9c3.1,2.2,6.1,4.4,9,6.7v-2.4c-0.1-0.1-0.3-0.2-0.4-0.3C157.7,71.7,155.8,70.5,153.9,69.2L153.9,69.2z"/>
	<path class="st0" d="M115.4,50c0.1,0,0.3,0.1,0.4,0.1h0.1c-1.1-0.7-2.1-1.5-3.2-2.2l-0.2,0.4c0.6,1,1.5,1.3,2.5,1.6
		C115,49.9,115.4,50,115.4,50z"/>
	<path class="st0" d="M58.5,22.1c-0.1,0.1-0.1,0.2-0.2,0.3l1.4,0.6l0.1-0.2C59.4,22.6,58.9,22.3,58.5,22.1z"/>
	<path class="st0" d="M147,73.8c-1.7-1.2-3.3-2.4-5-3.5c-2.6-1.7-4.9-3.6-7.5-5.3c-1.5-1-3.1-1.7-4.6-2.6c-4.2-2.5-8.3-5.1-12.5-7.6
		c-1.8-1.1-3.7-1.9-5.5-2.9c-2.8-1.5-5.5-3-8.3-4.5c-1.2-0.6-2.3-1.3-3.4-2c-1.7-1-3.4-1.9-5.1-2.9c-1.8-1-3.6-1.8-5.3-2.8
		c-2.5-1.5-4.9-3.1-7.3-4.7c-2.2-1.4-4.4-3-6.7-4.3c-2.8-1.6-5-3.9-7.4-6c-2.7-2.3-5.2-4.8-7.8-7.2c-2.2-2-4.4-4-6.5-6.1
		c-1.4-1.5-2.7-3.2-4-4.8C48.3,4.5,46.5,2.4,45,0h-2.2c1,2,2.1,3.8,3.5,5.4c2.4,2.6,4.9,5.1,7.3,7.7c0.8,0.8,1.3,1.9,2.2,2.7
		c2,1.9,4.2,3.7,6.3,5.5c2.7,2.4,5.4,4.7,8.1,7.1c1,0.9,1.9,1.9,3,2.6c2.4,1.6,4.8,3,7.2,4.5c1.9,1.2,3.6,2.5,5.5,3.6
		c3.4,1.9,6.8,3.7,10.3,5.6c3,1.6,5.9,3.3,8.9,4.9l0.7,0.4l1.5,0.8c0.5,0.3,1,0.5,1.4,0.8c2.7,1.6,5.4,3.3,8.1,4.9
		c3,1.7,6.3,3.1,9.2,4.9c4.5,2.8,8.7,5.8,13.1,8.8l3.8,2.6c2.5,1.7,5,3.4,7.5,5.2c1.4,1,2.8,2.1,4.1,3.2l2,1.7
		c0.3,0.3,0.7,0.6,1,0.8c0.8,0.7,1.7,1.3,2.5,2v-2.2c-1.1-0.9-2.2-1.7-3.3-2.5C153.5,78.6,150.2,76.2,147,73.8L147,73.8z"/>
	<path class="st0" d="M65.8,28.2c-0.4-0.3-0.8-0.6-1.2-0.9c0,0.1-0.1,0.2-0.2,0.3l1.1,0.9C65.6,28.4,65.7,28.3,65.8,28.2z"/>
	<path class="st0" d="M46.3,8.9c-0.5-0.5-1.1-1-1.6-1.5l-0.2,0.1l-0.1,0.1l0.1,0.2l1.4,1.4C46.1,9.1,46.2,9,46.3,8.9z"/>
	<path class="st0" d="M67.4,0c0.3,0.3,0.5,0.5,0.8,0.8c1.5,1.5,3,2.9,4.5,4.4c1.4,1.4,2.8,2.9,4.2,4.3c1.4,1.3,2.9,2.4,4.4,3.6
		c0.3,0.2,0.6,0.5,0.8,0.7l0.8,0.8c0.5,0.5,1.1,1,1.7,1.4c2.3,1.6,4.7,3.1,7.1,4.5c2.4,1.5,4.8,2.9,7.3,4.3c2.8,1.6,5.7,3.3,8.5,4.8
		c3.4,1.9,6.9,3.7,10.3,5.6c0.9,0.5,1.7,1.2,2.6,1.7c2.1,1.2,4.2,2.4,6.3,3.6c4,2.3,8,4.6,11.9,6.8l0.9,0.5l1.8,1
		c1.2,0.7,2.3,1.3,3.5,2.1c1.7,1.1,3.2,2.5,4.9,3.7c3.4,2.4,6.9,4.7,10.3,7V0H67.4z"/>
	<path class="st0" d="M157.7,100.9c-4.6-4.2-9.6-8-14.6-11.8c-2-1.5-4-2.9-6.1-4.3c-3.3-2.3-6.6-4.6-10-6.9
		c-2.6-1.8-5.2-3.7-7.9-5.4c-1.7-1.1-3.6-1.9-5.3-2.9c-3.1-1.8-6.2-3.6-9.3-5.4c-0.3-0.2-0.6-0.3-0.9-0.4c-3.4-1.5-6.8-3.1-9.8-5.3
		c-0.9-0.7-2-1.2-3-1.7l-1.3-0.6c-0.6-0.3-1.3-0.6-1.9-1c-4-2.3-8.2-4.1-11.8-7c-1.2-0.9-2.5-1.8-3.8-2.3c-3.1-1.2-5.3-3.6-7.9-5.4
		c-3.2-2.2-6.1-4.9-8.9-7.5c-3.6-3.3-7.1-6.7-10.6-10.2c-2-2-3.9-4.1-5.7-6.3c-2-2.4-4-4.8-5.8-7.3c-1.3-1.8-2.1-3.8-3.3-5.7
		c-0.7-1.1-1.3-2.3-1.9-3.5H0v453.3c2.4-0.9,4.8-1.9,7.1-2.6c2.2-0.6,4.4-1.1,6.7-1.4c2-0.2,4.1-0.1,6.2,0c1.4,0.1,2.9,0.4,4.3,0.4
		c3.8,0,7.2,1.5,10.8,2.3c3.3,0.8,6.5,2.2,9.5,3.6c0.7,0.3,1.3,0.7,2,1l1.4,0.6c2.7,1.3,5.4,2.6,7.8,4.5c2.2,1.7,4.8,3,7.1,4.7
		c1.6,1.1,2.9,2.5,4.4,3.8c2.7,2.3,5.5,4.6,8.3,6.9c0.7,0.6,1.2,1.4,1.8,2c1.8,1.5,3.6,2.9,5.4,4.4s3.5,3.1,5.3,4.6
		c1.3,1.1,2.7,2,4.1,2.9c1.8,1.1,3.5,2.2,5.4,3.1c1.2,0.6,2.6,0.7,3.7,1.4c1.7,1.1,3.6,1.2,5.4,1.5c3.2,0.6,5.9-0.9,6.6-4.7
		c0.8-4.1,0-8-1.4-11.8c-0.5-1.4-0.7-2.8-1.2-4.2c-0.3-1-1-1.8-1.4-2.8c-1.3-2.7-2.5-5.5-3.8-8.2c-0.4-0.8-1-1.4-1.4-2.1
		c-1.4-2.3-2.6-4.6-4-6.9c-1.8-3-3.7-5.9-5.8-8.8c-0.8-1.1-1.8-2-2.6-3.1c-1-1.4-1.7-3-2.6-4.5c-1.1-1.8-2.2-3.6-3.3-5.4
		c-0.1-0.1-0.2-0.2-0.2-0.3c-1-3.9-3.9-7.2-4-11.5c0-1.7-0.8-3.4-1.3-5.1c-0.4-1.6-0.4-3.1,0-4.7s0-3.4,0.4-4.9
		c0.6-2.3,1.8-4.4,2.5-6.7c0.6-2,1.8-3.4,3-4.9l0.5-0.6c1.7-1.9,3.4-3.8,5.4-5.4c2.8-2.2,5.9-4.2,9.4-5.2c0.9-0.3,1.8-0.6,2.7-0.9
		l1.1-0.4c2.4-0.8,4.7-1.6,7.3-1.7s5.2,0.1,7.9,0.1c2.8,0,5.6,0.3,8.3,1.2c3.4,1.3,7,2.1,10.4,3.2c3,1.1,5.9,2.6,8.8,4
		c3.8,1.9,7.6,4,11.4,5.9c0.2,0.1,0.4,0.2,0.6,0.3V102.8l-0.4-0.3C158.9,102,158.3,101.4,157.7,100.9L157.7,100.9z"/>
	<path class="st0" d="M51.8,3.9c0.1-0.1,0.2-0.1,0.3-0.2c-1-1.2-1.9-2.5-2.9-3.7h-0.6C49.6,1.4,50.4,2.8,51.8,3.9z"/>
	<path class="st0" d="M70.5,21.7c-1.1-0.9-2.3-1.9-3.4-2.8c-0.2,0-0.3,0.1-0.4,0.3c1.2,0.9,2.3,1.8,3.5,2.8
		C70.3,21.9,70.4,21.8,70.5,21.7z"/>
	<path class="st0" d="M90,35.5l-2-0.9c-0.1,0.1-0.1,0.2-0.1,0.3l2,0.8C89.9,35.6,90,35.6,90,35.5z"/>
	<path class="st0" d="M78.1,27.9c-1.1-0.7-2.1-1.4-3.2-2.2c-0.1,0.1-0.2,0.3-0.3,0.4c1.1,0.7,2.1,1.5,3.2,2.2
		C77.9,28.2,78,28,78.1,27.9z"/>
	<path class="st0" d="M59.6,11.9c-0.1,0.1-0.1,0.2-0.2,0.3c0.7,1.1,1.6,1.8,3,2C61.5,13.4,60.6,12.6,59.6,11.9z"/>
	<path class="st0" d="M54.7,6.6c-0.1,0.1-0.2,0.2-0.3,0.3l1.1,1.2l0.3-0.3C55.4,7.4,55.1,7,54.7,6.6z"/>
</g>
</svg>
