<svg xmlns="http://www.w3.org/2000/svg" viewBox="0 0 300.01 250.07"><path d="M217.46 26.6c-.63 1.2-.46 1.52.75 1.55.26-.73 0-1.25-.75-1.55ZM206.08 22.97c-.53-.59-2.85-1.51-4.15-1.67 1.14 1.19 2.55 1.62 4.15 1.67ZM216.02 29.62c.1.29.5.49.93.87 1.47-1.71-.93-2.61-.93-.87ZM196.34 18.77h.01v-.01l-.01.01zM200.51 21.94h.01v-.01l-.01.01z" style="fill:#fff"/><path d="M200.63 22.46c.02-.25.18-.54-.12-.52-.09.11-.16.22-.22.34.08.05.17.09.34.18ZM201.22 21.34c.07-.13.13-.24.19-.37-.22-.1-.42-.2-.64-.29 0 0-.04.09-.07.14.17.18.35.35.51.52h.01ZM241.42 35.93c.38.14.52.03.59-.31-2.73-.84-5.65-2.26-8.47-2.41 2.42 1.22 5.35 1.59 7.88 2.73ZM247.09 12c-.31.75-.16 1.28.43 1.86.19-.75.13-1.3-.43-1.86ZM243.55 36.12c.36.11.7.21 1.06.32.03-.07.06-.15.08-.22-.33-.12-.67-.25-1-.38l-.14.28ZM233.35 33.18c-1.83-1.02-4.67-2.34-6.66-1.92 2.3.45 4.37 1.43 6.66 1.92ZM220.95 29.47c.04-.74-.32-.84-.75-.82-.05.09-.1.17-.15.26.3.19.6.37.9.56ZM248.45 38.08c-.07-.31-.14-.61-.22-.92-.48-.11-.98-.19-1.48-.24-.04.35.68.77 1.71 1.16h-.01ZM199.71 20.65l.15-.36-3.52-1.52-.11.24c.9 1.1 2.24 1.27 3.48 1.64ZM172.48 6.08c1.02.47 1.81 1.46 3.05 1.45-1.03-.48-1.79-1.48-3.05-1.45ZM200.75 9.18c1.01-.87-.77-1.67-1.56-1.62-.87.98.72 2.07 1.56 1.62Z" style="fill:#fff"/><path d="M202.8 7.24c-1.49 2.13-.25 1.84 1.12 3.08-3.47.5-6.39-1.51-9.27-3.27-1.49-.69-3.35-1.69-4.77-2.55-2.63-1.49-5.28-2.95-7.93-4.43h-2.19c5.33 2.87 10.16 6.31 15.84 8.66 2.62 1.44 5.2 3.35 8.1 4.05 2.58 1.59 6.02 1.77 8.11 3.92 1.21-.28 1.95.93 3.14.88-.09.61-.17 1.15-.23 1.66 1.29.42 1.43.33 1.66-1.05 2.49 1.34 5.79 1.36 7.7 3.55-.93-.23-1.87-.46-2.82-.69-.78 2.65 4.73 4.41 5.63 1.83.39-1.18 7.77 1.35 8.41 2.37 3.82.48 7.74 1.78 11.6 3.04-.08-.43-.15-.86-.22-1.28-3.62-1.04-7.21-2.16-10.72-3.39-1.94-.14-3.47-1.45-5.46-1.51-.89.05-1.32-.79-1.74-1.46-.92-.39-1.09-1.19-1.09-2.05-.59-.19-.72.23-1.01.54 3.35 3.68-5.85-.32-6.91-.93-1.03-1.06-3.65-.66-3.46-2.57.47-.01.94-.03 1.37-.04.36.43.67.82 1.05 1.28.74-.42 1.38-.81 2.13-1.24.67.36 1.4.73 2.29 1.21-.03-.44-.05-.74-.08-1.12 7.52 2.29 15.04 4.96 22.63 7.28-.03-.19-.06-.38-.08-.57-.19-1.96-.86-3.87-.6-5.87-.47-.89-.36-1.88-.46-2.83-.22-1.95-.54-3.9-.72-5.85-.1-1.08-.03-2.17-.05-3.25 0-.52.08-1.07-.04-1.57-.21-.99-.38-1.99-.51-2.99h-54.08c4.51 2.49 9.07 4.88 13.68 7.17h-.02Zm2.67 1.38c3.33.82 6.84 2.29 9.55 4.52-.11.89.22 1.92-.49 2.86-3.78-1.16-6.79-3.15-10.72-4.33 1.38-.97 2.18-1.45 1.68-3.05h-.02ZM246.48 7.06c0 .65.03 1.15.03 1.65.27-.7.26-1.25-.03-1.65ZM298.77 113.11c.6.45.88 1.39 1.22 2.14v-3.75c-.1-.17-.2-.33-.3-.52.04-.12.17-.23.3-.34v-1c-.29-.17-.71-.26-1.11-.43-.54-1.2-1.18-2.54-1.74-3.9-.37-.89-.59-1.84-.95-2.74-.43-1.08-.93-2.14-1.38-3.22-.49-1.18-.96-2.37-1.45-3.57-.31-.75-.65-1.47-.93-2.22-.32-.82-.6-1.66-.9-2.49-.08-.22-.08-.51-.22-.68-.72-.82-.91-1.86-1.27-2.84-.52-1.39-1.13-2.75-1.69-4.12-.16-.41-.42-.83-.42-1.25.03-.87-.49-1.5-.75-2.25-.76-2.19-1.88-4.24-2.21-6.61-.21-1.5-.8-2.94-1.2-4.41-.17-.65-.29-1.32-.45-1.97-.07-.31-.12-.69-.31-.88-.52-.47-.65-1.1-.82-1.71-.03-.14-.08-.28-.11-.41-.45-.1-.9-.21-1.35-.32.19.72.37 1.45.57 2.17.2.74.54 1.43.73 2.16.3 1.16.48 2.35.75 3.52.1.39.3 1.02.47 1.4.31.72.64 1.44.96 2.16.08.18.15.4.11.58-.22 1.05.31 1.87.74 2.74.59 1.23 1.08 2.52 1.61 3.78.02.03.05.09.04.11-.4 1.11.59 1.73.92 2.57.27.68.5 1.36.74 2.04l1.82 5.23c.03.07.05.18.12.21.56.32.7.82.81 1.33l.06.31c.05.2.09.41.17.6.7 1.69.94 3.61 2.28 5.04.34.36.32 1.05.48 1.58.18.61.38 1.21.59 1.81.06.19.22.35.26.54.48 2.01 1.45 3.82 2.29 5.75-.3.24-.57.45-.96.75.28.45.57.91.87 1.4.33-.03.64-.04.96-.06.04.14.14.25.12.35-.13.59-.05.93.55 1.38l-.02.04ZM277.02 42.34c-.19-.68-.41-1.36-.57-2.07-.55-.14-1.1-.26-1.65-.4.22.69.45 1.38.63 2.08l1.59.39ZM277.1 50.14c.51.13 1 .25 1.51.38-.15-.66-.32-1.32-.48-1.98-.43-.1-.86-.22-1.28-.32.12.24.21.54.17.77-.07.42-.01.79.08 1.15ZM163.08.07h-.64c2.71 1.69 4.86 4.5 8.21 4.61-2.59-1.64-5.06-3.21-7.57-4.61ZM186.41 13.64c-.97-.84-1.89-1.32-2.92-1.63.62.98 1.43 1.69 2.92 1.63ZM275.12 59.43v-.02h.01v.02ZM171.75 5.64c.06-.09.11-.19.16-.28-.23-.12-.45-.25-.68-.37-.05.09-.1.17-.15.25.22.13.45.26.66.4ZM190.46 15.59c-.71-.4-1.09-1.09-2.03-.52.61.57 1.13.81 2.03.52ZM194.6 18.1c.23.12.45.25.68.39.05-.09.11-.19.16-.28-.23-.14-.45-.26-.67-.4-.06.09-.11.19-.17.3Z" style="fill:#fff"/><path d="M171.32.07h-3.87c.13.08.25.16.38.25 10.03 5.38 20.04 10.86 29.92 16.4 1.41.83 3.1 1.4 4.55 2.1.72-.36 1.34.08 1.8.4 3.2 1.33 6.3 2.77 9.49 4.12-.16 1.37.11 2.14 1.34 2.94-2.15-.28-3.88-1.55-6.04-1.92 1.32 1.1 3.1 1.25 4.53 2.03-.28.44-.54.86-.87 1.37l1.24.57c.3-.44.55-.79.86-1.23.41.09.82.19 1.36.31.18-.29.39-.6.53-.81-.28-.84-.52-1.53-.77-2.27 1.9-.49.13 1.91 2.87 1.38.53 1.09.8 1.13 1.6.22 9.09 2.85 18.22 5.7 27.38 8.42 0-.04-.02-.08-.02-.12-.03-.16-.06-.32-.05-.48.02-.39.02-.77 0-1.16-9.31-2.69-18.58-5.57-27.8-8.59-1.28-.53-3.45-.94-3.11-2.73.34-1.81-1.35-.48-1.66.35-2.12-.05-3.82-1.33-5.89-1.63 1-1.08-1.09-2.35.81-2.24-.19-.58-.33-.99-.54-1.64-.67.6-1.16 1.04-1.68 1.51.13.36.26.68.43 1.14-9.33-2.73-17.77-7.95-26.2-12.72-3.56-1.9-7.1-3.92-10.61-6l.02.03ZM181.15 10.87c-.21-.56-.61-.77-1.21-1 .04.88.51 1.01 1.21 1ZM272.28 51.38l.02-.05s-.04-.02-.05-.04.02.07.03.1ZM272.49 48.45c-.1-.48-.25-.96-.37-1.45l-1.05-.27c.12.67.28 1.32.48 1.97.35.09.7.19 1.05.28-.04-.17-.08-.36-.12-.53ZM282.86 100.36c.36-.12.73-.26 1.12-.39.21.37.41.76.62 1.14.22.38.43.77.65 1.15.2.35.27.79.79.87-.92-1.82-1.48-3.81-2.44-5.59-.08.04-.16.07-.25.09.09.33.18.64.3 1.04-1.43.13-1.55.38-.81 1.7h.02ZM267.93 47.74h.06l-.04-.07-.02.06ZM268.57 27.64c.04-.23.07-.52-.03-.72-.54-1.04-.63-2.15-.7-3.28 0-.08 0-.18-.05-.23-.8-.77-.68-1.87-.88-2.8-.34-1.55-.39-3.17-.57-4.77-.03-.33-.02-.67-.13-.96-.32-.9-.37-1.8-.27-2.74.07-.8-.05-1.57-.3-2.36-.28-.9-.56-1.83-.38-2.84.1-.53-.14-1.12-.17-1.68-.09-1.54-.14-3.08-.21-4.62V.06h-1.23c.05.69.1 1.38.14 2.07.03.59-.03 1.55-.1 2.14-.16 1.48.59 2.84.61 4.26.01 1.71.69 3.29.75 4.95.05 1.41.18 2.79.49 4.16.1.47.29.92.35 1.39.12.96.16 1.91.25 2.87.04.44-.01.97.22 1.26.7.89.71 1.91.85 2.94.11.91.29 1.83.47 2.73.29.08.58.17.86.25-.05-.48-.06-.96.04-1.46v.02ZM278.67 88.74c.3.07.58.23.87.38l.2.09h.06c.06-.02.11-.08.17-.11l.02.16c.2.03.41.07.61.1v.02c.09-.87-.71-1.73.54-2.56-.74-.05-1.16-.08-1.63-.11l-.4-.71s-.12.06-.18.08c.23.53.46 1.08.76 1.77-.6-.13-1.05-.22-1.54-.33-.19.62-.21 1.06.52 1.23ZM267.63 45.98c-.13.59-.14 1.12.24 1.57l.08.08.05-.13c.26-.71.2-.94-.36-1.52ZM291.12 108.08c.5 1.36 1.11 2.65 2.02 3.82.44.58.61 1.39.79 2.14.21.87.54 1.67 1 2.43l.23.4c.41.65.78 1.33.8 2.15 0 .25.22.52.36.76.95 1.72 1.75 3.52 2.24 5.44.23.87.81 1.65 1.23 2.46.07.13.13.27.2.4v-2.77c-.31-.74-.56-1.47-.81-2.09.31-.36.57-.66.81-.95v-1.56l-.24-.44c-.33.01-.68.03-1.05.05-.07-.43-.15-.86-.24-1.4-.4.15-.71.27-1.06.4-.06-.06-.15-.13-.22-.22-.21-.37-.41-.74-.61-1.12-.1-.17-.27-.35-.28-.53-.1-1.24-.66-2.31-1.23-3.36l-.3-.52c-.42-.8-.81-1.61-1.14-2.46-.85-2.16-2.06-4.2-2.49-6.52-.41-.58-.66-1.25-.89-1.91l-.22-.67c-.23-.69-.5-1.36-.95-1.96-.13-.17-.32-.46-.4-.66-.46-1.2-.86-2.43-1.4-3.6-.53-1.14-.96-2.28-1.04-3.55-.01-.12-.03-.3-.1-.34-1.29-.6-.99-2.01-1.52-3-.4-.74-.67-1.55-1.04-2.31-.34-.69-.62-1.38-.54-2.2.04-.36-.17-.78-.34-1.12-1.38-2.66-2.35-5.44-2.98-8.36-.31-1.44-.86-2.82-1.3-4.24-.06-.19-.19-.39-.17-.58.12-1.27-.41-2.32-1.14-3.29a.952.952 0 0 1-.15-.36c-.19-1.34-.58-2.63-.96-3.93l-.85-.21c.02.08.04.16.06.23.21.73.45 1.46.64 2.19.57 2.17 1.15 4.35 1.7 6.52.15.61.14 1.26.34 1.85.33 1.03.79 2.01 1.14 3.03.28.83.44 1.71.72 2.53a81.68 81.68 0 0 0 1.59 4.29c.95 2.33 1.91 4.65 2.57 7.1.28 1.02.58 2.13 1.39 3.01.41.44.79 1.31.91 1.9.4 1.89 1.17 3.6 2.04 5.31.68 1.35 1.05 2.85 1.57 4.28.43 1.17.88 2.32 1.3 3.49v.05ZM279.24 106.78c0-.25.03-.38 0-.51 0-.05-.11-.07-.17-.12-.06.12-.13.24-.15.36 0 .05.14.12.31.27h.01Z" style="fill:#fff"/><path d="M300 171.57c-.49-.75-1.15-1.44-.57-2.54-.95-.19-1.48-.69-1.59-1.57.93-.46 1.63-.93 2.16-1.41v-2.59c-.27.09-.55.18-.84.27-.38.33-.77.81-1.27 1.09-.61.34-.8.19-1.06-.48-.14-.36-.31-.8-.59-.99-.61-.37-.8-.97-1.1-1.52-.98-1.8-1.97-3.58-2.96-5.38-.05.03-.09.07-.13.11-.35-.27-.68-.53-1.01-.79l-.12-.21c-.11-.65-.11-1.36-.38-1.93-.57-1.18-1.29-2.29-1.94-3.43-.28-.5-.64-.96-.81-1.49-.8-2.42-2.57-4.38-3.13-6.91 0-.02-.02-.04-.03-.07-.97-1.97-1.95-3.92-2.93-5.88 0-.02-.01-.03-.02-.04-.48-1.18-.95-2.35-1.42-3.53-.23-.56-.45-1.11-.7-1.66-.41-.91-.59-1.81.1-2.67-.47-.69-1.01-.6-1.57-.2-.2-.36-.48-.67-.52-.99-.11-1.1-.72-1.96-1.15-2.91-.4-.88-.61-1.85-1.07-2.68-.93-1.69-1.92-3.34-2.36-5.25-.06-.25-.34-.44-.46-.69-.15-.3-.22-.62-.22-1.05 1.22.55 2.23 1.66 3.75 1.17.08-.62-.13-1.01-.67-1.27-.22-.11-.54-.47-.5-.56.12-.25.39-.49.64-.63.53-.26 1.11-.41 1.65-.66.31-.14.56-.39.98-.67l.33.79 1.42 3.47c.09.21.26.56.37.76 1.07 1.92 1.6 4.07 2.75 5.96.58.94.84 2.06 1.26 3.1.1.26.2.58.4.74.83.65.73 1.67 1.07 2.5.02.04 0 .12-.04.15-.77.61-.47.96-.05 1.31.4.34.8.65 1 .82.13.86.24 1.48.3 2.1.03.25.01.55-.09.77-.36.86.07 1.65 1.02 1.8.6.1.93.47.98 1.13.07.75.29.98 1.08 1.11.72.12.79.26.59 1-.46-.08-.93-.19-1.41-.25-.37-.05-.81-.07-.9.38-.06.32 0 .76.19 1 .22.28.63.45 1 .56l-.04-.07.87-.49.17.3h.06v.09l.27.47-.53.3c-.02.23-.31.49-.53.66-.59.42-.7.77-.33 1.38.1.17.22.33.36.47.1.1.25.17.44.28.14-.4.25-.73.35-1.04.6-.38 1.16-.21 1.68 0l.26.12s.09.04.13.05c.2.08.31.41.41.64.17.4.19.97.48 1.2.96.73.97 1.91 1.5 2.83.09.17.18.4.14.57-.13.58.21.89.57 1.23.79.74 1.26 1.66 1.5 2.7.13.58.36 1.14.55 1.72-.31.05-.72.12-.41.67.4.08.93.04 1.17.29.31.31.5.83.54 1.28.05.59.19.86.67.67.1.16.19.3.28.46v-4.94c-.3-.09-.48-.32-.37-.72.29-1.05-.36-1.81-.6-2.71-.8.38-.29.89-.23 1.37-.43-1.22-1.12-2.25-1.9-3.29.27.13.53.26.83.41-.41-1.07-.78-2.04-1.2-3.12-.1.23-.17.41-.31.76-.15-.26-.37-.5-.32-.62.26-.64 0-1.08-.46-1.49-.88-.74-.89-1.38-.03-2.11.12-.1.24-.21.35-.33.03-.03.03-.07.04-.11-.58-1.03-.82-1.13-1.48-.54-.26.23-.54.55-.79.27s-.41-.79-.34-1.14c.06-.28.2-.46-.03-.72-.4-.47-.49-.92-.12-1.52.33-.53.13-.72-.72-.82.1-.27.2-.52.31-.75.12-.25.25-.5.37-.73 1.38-.06 1.45.02 1.93 1.15.64 1.48 1.34 2.93 2 4.39.25.55.45 1.11.7 1.66.15.33.36.62.55.93.47.79.98 1.57 1.41 2.39.15.29.28.6.41.9v-3.5c-.23-.41-.45-.82-.69-1.23-.95-1.59-1.93-3.18-2.35-5.03-.06-.25-.29-.47-.42-.7-.33-.58-.78-1.13-.62-1.96.33 0 .67-.03 1.12-.03-.22-.46-.4-.87-.58-1.28l-.12-.28.41-.05c.29-.03.6-.06.91-.1.02.57.04.99.07 1.67.25-.23.44-.42.65-.61l.42-.4c.08-.07.15-.14.23-.22-.12.74-.21 1.26-.3 1.82.71.05.88-.57 1.29-.86v-1.77c-.28-.13-.48-.34-.65-.69-.42-.85-.98-1.65-1.56-2.41-.51-.65-.87-1.27-.16-2.05-.93-.12-1.24-.68-1.47-1.43-.39-1.26-.98-2.47-1.35-3.73-.36-1.26-.7-2.42-1.75-3.38-.63-.58-.77-1.65-1.17-2.48-.15-.33-.39-.61-.58-.91l-.29.16c.17.5.31 1.02.53 1.51.28.62.64 1.21.95 1.83.13.25.37.55.32.77-.24 1.01.34 1.67.9 2.35 1.07 1.32 1.31 3.02 1.93 4.53.14.36-.16.91-.28 1.46 1.37.19 1.76 1.06 1.59 2.39-.06.48.18 1 .28 1.49-1.26.06-2.48-.67-3.05-1.79-1.03-2.07-1.68-4.3-2.66-6.39-.36-.76-.83-1.47-1.25-2.21-.35-.62-.63-1.2-.74-1.95-.12-.8-.55-1.6-1.02-2.27-.72-1.04-1.08-2.22-1.54-3.36-.36-.88-.84-1.71-1.26-2.56-.07-.13-.13-.28-.18-.39.21-.56 1.23-.64.77-1.48-.21-.37-.31-.45-1.04-.47-.13-.1-.28-.19-.42-.27-.96-2.22-1.93-4.43-2.85-6.67-.26-.61-.41-1.29-.49-1.95-.04-.25.23-.54.3-.71.06-1.05-1.38.03-1.21-1.15.33.02.66.04 1.02.06.04-.17.13-.34.1-.38-.48-.45-.97-.88-1.51-1.23l-.94-1.73s.14-.07.19-.03c.46.39 1.02.33 1.29-.08.22-.33.27-.96.1-1.32-.49-1.05-.52-2.16-.7-3.26l-.02-.14-.2-.03s-.05.03-.08.04c-.82.78-2.07.62-2.63-.37-.5-.88-.75-1.81-.9-2.81-.14-.83-.62-1.63-1.02-2.4-.2-.36-.37-.72-.43-1.09.75.56 1.61.81 2.63.58.04.07.06.15.09.23l.08.25c.18.54.39 1.04 1.13 1.21.09-.53.18-1.06.29-1.68-.73 0-1.03-.27-1.16-.88-.18-.77-.56-1.5-.9-2.22-.17-.35-.25-.83-.91-.98.35.97.66 1.81 1.03 2.83-.57-.09-1.02-.09-1.41-.25-.42-.18-.73-.12-1 .07-.41-.9-.82-1.79-1.19-2.7-.16-.4-.2-.85-.3-1.28-.14-.59-.28-1.16-.44-1.75-.14-.46-.32-.91-.45-1.37-.27-.96-.53-1.93-.78-2.9-.11-.42-.18-.86-.28-1.29-.17-.69-.16-1.44-.83-1.94-.2-.15-.21-.58-.29-.88-.27-1.01-.54-2.01-.8-3.03-.23-.93-.45-1.86-.65-2.79-.09-.43-.13-.88-.19-1.32-.92-.24-1.83-.48-2.74-.72.49 1.55.98 3.1 1.42 4.67.87 3.09 1.82 6.17 2.46 9.32.39 1.94 1.43 3.61 1.8 5.54l.07.35c.17.82.34 1.65-.24 2.5 1.17.24 1.41 1.12 1.73 2.04.7 1.96 1.55 3.87 2.33 5.81.33.83.64 1.65.92 2.49.2.58.14 1.15-.37 1.53-.5.38-1.06.68-1.6 1.02-.07-.08-.14-.15-.21-.23.27-.3.58-.57.79-.9.2-.32.4-.72.39-1.08 0-.44-.22-.85-.85-.76-.28.05-.7-.02-.87-.2-.64-.68-1.24-1.4-1.79-2.16-.16-.23-.11-.62-.16-1.02.23.11.38.19.53.26.03-.06.12-.14.1-.19-.09-.38-.23-.77-.31-1.16-.05-.26-.13-.58-.04-.8.33-.74-.03-1.36-.51-1.71-.59-.44-.79-1.03-.87-1.59-.09-.69-.61-1.07-.99-1.04-.86.07-.91-.39-.99-.98-.03-.19-.12-.38-.21-.63.21-.2.43-.4.67-.64-.31-.54-.22-1.31-1.05-1.46l-.97-3.32c.67-.4.38-.72.11-1.04l-.1-.12c-.05-.06-.09-.12-.13-.18-.43-.76-.56-1.56-.32-2.35-.87-.72-1.29-1.38-.6-2.6-.85-.37-.97-.51-.83-1.25l.02-.1c-.27-.31-.54-.63-.87-1 .04-.1.06-.3.16-.46.34-.54.24-1.02-.24-1.37-.45-.32-.51-.72-.56-1.22-.07-.65-.36-1.28-.44-1.93-.06-.43 0-.86.03-1.3v-.23c.04.39.07.8.42 1.14.38-.64-.25-.83-.39-1.2v-.06h-.01v.04c-.25-.22-.62-.43-.68-.69-.05-.18-.07-.39-.07-.59-.91-.24-1.82-.49-2.72-.74 0 .03.02.07.02.1.13.71.06 1.51.4 2.09.52.89.42 1.81.52 2.73.02.18.17.35.27.52.14.24.43.5.41.72-.17 1.24.65 2.21.89 3.34.26 1.24.84 2.41 1.22 3.63.27.88.44 1.78.63 2.69.06.27.1.53.14.8l.12.8c.12.8.26 1.6.6 2.36.35.79.7 1.59 1.01 2.4.12.32.17.69.17 1.03.01.91.17 1.75.81 2.45.67.74.64 1.72.85 2.61.18.78.35 1.55.88 2.19.15.18.26.43.29.65.12 1.01.43 1.94 1.11 2.57-.34.64-.64 1.19-1 1.86-.37-.03-.49-.39-.49-.87 0-.38-.07-.75-.12-1.22-.41.11-.69.16-.92.28-1.33.68-1.45 1.07-.69 2.35.47.79.98 1.56 1.51 2.4.27.03.62.08 1.11.13-.33.67-.62 1.22-.93 1.86.57.11 1.07.17 1.55.34.59.22 1.16.53 1.74.78.47.2.96.38 1.48.57.46 1.29.95 2.61 1.5 4.13-.51-.08-.83-.14-1.14-.19.17-1.47 0-1.63-1.73-1.74-.41.14-.21 1.03-.95.84.04-.19.09-.37.13-.56l-1.43.81-.93-1.65c-.35.42-.49.47-1.24.65-1.67-1.11-1.32-3.11-2.26-4.58-.87-1.36-1.19-3.07-1.76-4.68.47-.02.85-.04 1.45-.08-.44-.5-.7-.99-1.1-1.2-1.17-.61-1.54-1.65-1.79-2.82-.07-.31-.12-.63-.27-.9-.74-1.34-1.49-2.63-1.56-4.24-.02-.42-.19-.83-.4-1.25l-.24-.49c-.08-.16-.15-.33-.21-.5a6.39 6.39 0 0 1-.31-1.16c-.16-.86-.25-1.73-.76-2.51-.31-.49-.38-1.05.07-1.56.29-.34.12-.63-.13-.96-.41-.57-.87-1.16-1.07-1.82-.53-1.75-1.42-3.38-1.62-5.24-.09-.82-.48-1.61-.71-2.42-.15-.5-.37-1-.4-1.51-.17-2.42-1.01-4.7-1.47-7.06-.09-.47-.32-.9-.46-1.35-.02-.03-.02-.07-.03-.11-3.1-.85-6.21-1.72-9.32-2.56-12.81-3.12-25.39-7.15-37.54-12.21-1.33-.58-2.88-.58-3.99-1.58-.34-.29-.6-.64-1.14-.53-1.02-.33-1.28-1.73-2.01-2.61-.27-.03-.62-.08-1.01-.12-.17.36-.33.68-.48.98-1.09.23-1.06-.92-1.67-1.4-.23.26-.43.47-.7.76-9.55-3.34-.07-2.83-4.64-6.01-.23.67-.44 1.28-.65 1.91-1.73-.65-.2-2.5.81-3.01.07-.02.09-.25.13-.38l-.85.22-.13-.51.87-.23.12.48v.03c.54-.23 1.06-.45 1.62-.69 1.83.18 3.28 2 5.12 1.78.19-.04.47.11.67.24 3.77 2.48 8.59 3.08 12.28 5.56 1.97.49 3.79 1.42 5.75 1.74 2.89 1.94 6.63 2.02 9.79 3.44 2.75.44 5.01 2.4 7.84 2.6 2.39.44 4.31 2.13 6.8 1.9.95.02 1.44 1.29 2.58.78 2.68 1.1 5.43 1.78 8.2 2.38-.03-.12-.06-.24-.1-.36-.27-.86-.47-1.72-.66-2.59-.07-.04-.15-.06-.22-.11l.18-.05c-.05-.26-.11-.51-.16-.76-.57-.14-1.13-.13-1.55.42-.28-.04-.8-.12-1.46-.22.19-.22.38-.44.58-.68-.67-.23-1.28-.44-1.89-.64l-.13.21.61.48c-1.66 0-2.6-.6-4.28-.97-.06-.08-.28-.39-.53-.75-1.48 1.11-2.48-.45-4.08-.49-1.07.12-1.37-1.73-2.34-1.13-.58.44-1.02.25-1.47-.03a1.92 1.92 0 0 1-.27-.11v-.04s.09.06.14.09c.29.09.59.06.96-.3-.46-.07-.79-.13-1.11-.15-.03 0-.06.17-.09.28-.24-.15-.49-.3-.77-.35-.81-.69-2.79.27-2.79-1.19-2.4-.17-4.45-1.37-6.7-2.07.63-.69-.41-.96-1.25-.28.12.11.23.22.33.32-.98.19-1.34-.85-2.23-1.1-1.09-.74-2.28-.49-3.46-1.14.1-.19.18-.35.28-.55-.56-.49-1.24-.2-1.79-.11-.95.21-1.72-.44-2.58-.69-.05.02-.11.03-.15.04h.03s.02-.06.05-.1c.31-.07.68-.18.95-.24-.54-.33-.78-.22-.95 0-.02-.12-.04-.23-.05-.34-1.88.45-3.29-1.24-5.03-1.21-1.47-1.6-4.25-2.1-6.25-2.95a18 18 0 0 0 .79-.31c-.23-.64-.84-.33-1.22-.52-.43-.21-.85-.39-1.5-.69.22.41.33.62.54 1.02-.68-.11-1.07-.2-1.59-.56-.6-.41-1.34.02-1.61-.98-.44-1.8-3.3.24-4.15-2.26-.63-.18-1.41.22-1.65-.7-.55.24-1.18-.2-1.71-.57-.05-.32-.1-.71-.21-1.4-.38.51-.57.78-.82 1.12-.54-.35-1.1-.7-1.53-.97.28-1.26-.34-1.68-1.4-1.18-1.08-.41-2.12-.93-3.17-1.36-.77-.1-1.05-1.12-1.59-1.41-.59.05-1.04-.63-1.72-.29-1.07-.35-1.8-1.92-3.24-1.71-.56-.09-.99-.44-1.42-.84h-.03c.5.1.94.44 1.6-.06-.66-.31-.95-.32-1.53-.03l-.11.04c-.72-.73-1.4-1.61-2.54-1.52-.19 0-.5-.06-.54-.19-.39-.97-1.39-1.05-2.13-1.49 1.42-.44-1.65-2.23-1.35-.73-1.73-.46-3.16-1.29-3.82-3.15-.07.04-.14.08-.21.1-.03.19-.07.38-.13.73-.55-.32-1.19-.7-1.74-1.03.5-.03.79-.04 1.07-.06.02-.08.05-.15.08-.23-.64-.24-1.33-.81-2.02-1.32l.09.34c.18.15.36.31.52.5-.15-.03-.29-.08-.42-.12l.08.31-2.12.54-.62-2.42.2-.05h-.05l.02-.04c-.54-.1-1.08-.19-1.6-.29.25-.97-.7-1.4-1.4-1.47-2.17-.46-3.94-2.08-5.63-3.52.29.05.59.09 1.07.17-.36-.32-.73-.54-1.11-.72h-5.79c1.99 1.4 3.97 2.81 5.95 4.2 1.64 1.15 3.66 2.03 5.21 3.4.89.78 2.36.64 2.65 2.02 2.25.36 4.17 2.12 6.09 3.31 3.77 1.63 7.04 4.36 10.92 5.49.32.87 1.29 1.06 1.85 1.64 1.35-.11 2.01 1.1 3.04 1.62.83.43 1.76.8 2.3 1.69 1.4.73 3.15.47 4.18 2.09-.24.17-.52.38-.86.61.84 1.14 2.31 2.43 3.25.65.49 1.13-.41 2.31 1.1 2.69-.79 1.8-2.06-.48-2.87.62v.02c.2.28.41.54.62.81-.03.03-.05.07-.08.09-.45-.29-.89-.59-1.54-1.01.73 4.25-3.34.57-4.97-.38-1.09-.81-2.64-.46-3.35-1.9-.08-.14-.36-.19-.54-.21-9.1-4.22-17.67-10.07-26.09-15.08.47-.51.74-.99.26-1.57-.73-.19-1.03.38-1.43 1.01A867.99 867.99 0 0 1 131.71 0H0v250.07h300v-78.5Zm-4.36-40.14.4.71h.21l.04-.02c-.06.06-.12.11-.17.16v.03l-.13.08c-.18.16-.37.32-.59.5-.01-.03-.07-.06-.12-.11h-.02l-.03-.05s-.08-.09-.08-.15l-.38-.67.87-.49Zm-21.15-49.12c.08-.1.16-.18.24-.26 0 .01.01.03.02.04l-.03.15c-.01.12 0 .24 0 .36-.1-.07-.19-.14-.28-.23l.04-.07h.01Zm-83.48-54.66.21.81-1.23.32-.21-.81 1.23-.32Zm-23.77-14.84-.2-.75.82-.23.19.74v.02l-.82.22Zm117.74 108.31c0 .05 0 .11.01.16a.433.433 0 0 1-.01-.16Zm6.39 12.1c-.25-.03-.41-.11-.51-.23l-.06.03.49.87-.87.49-1.48-2.61.87-.49.49.87.87-.49.49.87-.27.15c.05.13.04.3-.03.53h.01Zm-13.45-42.28.42-.24 1.43 2.63-.84.45-.46-.82c0 .17-.01.35-.04.55-.26-.74-.48-1.35-.7-1.96l-.22-.39.07-.04c-.03-.1-.06-.19-.11-.29.18.02.32.06.45.11Zm-1.25 7.01c1.08-.02 1.07-.01 2.16-.03.17.35.44.55.46.76.27 2.03 1.17 3.81 2.13 5.56l.42.75c.33.6.27 1.03-.09 1.66-.4.7-.43 1.59-.62 2.4-.06.28-.07.56-.11.83-.11.91.29 1.33 1.15 1.08.56-.15.86-.02 1.25.4 1.3 1.39 2.28 2.91 2.84 4.77.35 1.17 1.13 2.21 1.51 3.38.7 2.07 1.7 3.99 2.69 5.93.52 1.02.76 2.16 1.07 3.28.15.56-.19 1.06-.77 1.02-.7-.04-1.14-.45-1.47-.98-.27-.43-.47-.88-1.01-1.13-.46-.22-.6-.71-.34-1.25.15-.32.2-.69.3-1.05-.26-.28-.51-.53-.91-.96.11.52.17.81.29 1.37-.38-.28-.68-.39-.74-.57-.35-1.12-.82-2.18-1.65-3.04-.13-.14-.17-.39-.19-.62.09.15.22.31.39.5.08-.61.21-1.01-.32-1.32-.06.08-.09.15-.13.22-.05-.65-.11-1.29-.17-1.94h.03c-.19.03-.34.02-.49-.02.02.05.02.1.03.14l.03.09h-.04c-.32-.02-.64-.04-.65-.54 0-.15-.03-.32-.07-.49.04.08.07.16.1.24.13.33.32.48.55.54-.11-.48-.1-1.03-.8-1.28 0 .05.02.09.03.13-.43-1.01-.88-2.01-1.33-3.03.26.1.52.21.84.34.03-.2.1-.35.06-.41-.34-.44-.68-.87-1.05-1.28-.47-.51-.7-1.14-.91-1.79-.08-.26-.41-.46-.78-.86-.06-.67-.1-1.62-.24-2.56-.07-.48-.1-1.06-.76-1.26-.24-.07-.4-.37-.64-.59.46-1.3-.15-2.1-1.27-2.63v-.02c.18-.35.38-.63.45-.94.08-.4-.28-.47-.57-.63-.55-.3-.95-1.31-.5-1.74.96-.93-.47-1.3-.15-2.44h-.01Zm-5.81 11.91 4.35-2.36.39.69s.11-.06.18-.08c.21-.04.58.1.69.27.29.5.49 1.05.78 1.7-.53.15-1.01.28-1.46.41l-3.53 1.92-1.39-2.56h-.01Z" style="fill:#fff"/><path d="M283.9 114.39c.09-.08.12-.43.03-.5-.34-.32-.61-.11-.9.22.24.31.48.58.86.28h.01ZM282.44 94.9c.16-1.15-.53-1.76-.88-2.49-.35-.74-.27-1.69-1.01-2.41-.24 1.62 1.23 2.75.76 4.23.36.21.66.39 1.12.66h.01ZM287.4 110.33c-.36.2-.27.56-.1.85.19.33.44.44.8.21.16-.09.35-.13.51-.18.29.45.67.74 1.13.86-.03-.12-.06-.24-.11-.35-1-1.91-1.81-3.87-2.34-5.97-.14-.57-.56-1.07-.85-1.61l-.16.06c0 .15-.02.3.01.43.45 1.4.86 2.82 1.39 4.19.24.64.44 1.11-.28 1.52ZM265.63 68.21c-.04-.27-.07-.53-.15-1.09-.19.37-.28.55-.35.68h-.02c.12.16.24.31.36.46a.88.88 0 0 1 .15-.05h.01ZM255 36.5c1.16.33 2.32.65 3.48.98.03-.12.08-.25.11-.37.15-.55-.33-1.01-1.05-1.08 0-.21-.02-.42-.03-.63-.99-.28-2-.53-3-.81.02.08.06.16.08.24.2.52.31 1.09.41 1.67ZM209.62 32.88l.07-.25-.81-.31c-.04.11-.09.21-.13.32.29.08.58.15.87.23ZM231.39 40.49c.37.09.73.18 1.11.27.03-.12.05-.24.08-.35-.37-.08-.73-.17-1.1-.25-.03.11-.06.22-.08.34ZM202.86 29.8c.44.25.88.52 1.33.78l.19-.31c-.46-.25-.91-.5-1.37-.73-.05.09-.09.18-.15.27ZM170.87 13.36c-.15-.1-.31-.19-.46-.29-.04.06-.07.12-.1.17.21.08.42.44.56.12ZM238.12 42.17c-.53-.15-.86-.24-1.17-.33-.04.11-.08.23-.12.34.29.31.62.42 1.29-.02ZM193.35 25.67c.03-.11.07-.21.1-.32-.29-.06-.58-.11-.86-.16l-.05.18.81.3ZM176.73 16.98c.56.26.89.41 1.47.67-.43-.61-.6-1.1-1.47-.67ZM265.07 46.37c.02-.4-.05-.81-.15-1.22-.89-.24-1.79-.47-2.69-.71.18.62.33 1.24.46 1.87.8.22 1.61.45 2.41.67-.01-.2-.04-.39-.03-.6ZM249.19 41.06C216.1 32.9 185.07 18.36 156.33.07h-2.64c9.68 6.16 19.55 12.02 29.5 17.63 20.93 10.97 43.38 19.19 66.27 25.23-.04-.63-.1-1.26-.27-1.87ZM266.31 52.42c-.16-.71-.32-1.43-.49-2.13-.84-.14-1.66-.37-2.48-.63.26 1.03.55 2.05.82 3.07.75.1 1.49.25 2.24.41-.02-.24-.03-.5-.09-.72ZM252.51 24.97c1 .27 2.02.52 3.03.78-.28-.57-.42-1.27-.36-1.93.04-.44.16-.85-.18-1.25-.11-.14-.06-.46-.02-.69.1-.54.09-1.03-.31-1.46-.08-.08-.19-.21-.17-.3.06-.46-.02-.91-.12-1.36l-.13-.54c-.13-.54-.22-1.07-.1-1.62.11-.49.5-.97.45-1.42-.05-.43-.52-.81-.76-1.24-.11-.19-.09-.46-.14-.69-.15-.7-.31-1.4-.47-2.09-.06-.27-.24-.53-.25-.79-.02-1.1 0-2.22 0-3.32 0-.04.02-.08 0-.12-.48-1.13-.11-2.36-.44-3.5-.18-.63-.32-1.22.02-1.86.14-.26.12-.64.08-.95-.02-.22-.03-.4.06-.55h-2.66c.04.89.09 1.78.09 2.68 0 1.31-.09 2.62-.07 3.94 0 .47.14.96.29 1.41.25.73.29 1.49.3 2.24v.75c.02.5.04 1.01.12 1.5.04.24 0 .51.13.71.8 1.28.55 2.69.55 4.08 0 .23.09.47.12.69.08.82.63 1.58.35 2.45-.04.14 0 .34.09.46.84 1.08.6 2.32.49 3.5-.02.17 0 .34 0 .5ZM165.6 10.56c-.44-.29-.7-.45-.96-.62.15.37.47.57.96.62ZM177.59 26.08c.32-.04.6-.08.95-.15-.47-.46-.79-.41-.95.15ZM143.48 6.44c.22-.67.43-1.33.69-2.11-.69.12-.73.63-1.09 1.05-.85.29-.41 1.35.41 1.06h-.01ZM299.43 161.49c-.12.4.07.79.57 1.14v-1.48c-.23-.03-.46-.02-.57.35ZM300 138.58v-.52c-.01.06-.04.12-.04.19 0 .12.01.23.04.33ZM273.56 69.72c.22.77.59 1.53.64 2.3.08 1.38.46 2.64 1.07 3.85.11.19.26.35.39.53.07-.03.15-.06.22-.09-.64-2.42-1.27-4.83-1.93-7.24-.04-.16-.26-.27-.39-.41l-.22.12c.07.31.13.63.21.93ZM157.74 14c-.7.12-.81.37-.61.73.55.34.46-.24.61-.73ZM153.8 7.4c-.52-.22-1.01-.32-1.26.1-.56 1.51 1.95 1.48 1.26-.1ZM272.38 65.31l.15.72c.08-.02.16-.04.23-.05l-.14-.7c-.08.01-.17.03-.24.03ZM268.89 52.23c.1-.02.2-.03.29-.04-.05-.36-.08-.73-.13-1.1-.1-.02-.21-.05-.32-.07l.15 1.21h.01ZM269.43 34.41c-.12-.53-.21-1.06-.26-1.59v-.02c-.3-.08-.6-.16-.9-.23.05.52.12 1.05.18 1.58.33.11.66.2.99.27ZM273.05 55.02c.48.14.95.28 1.43.41l-.39-1.61c-.13-.53-.42-1.01-.65-1.52-.33-.1-.65-.2-.98-.29.13.42.27.84.35 1.27.12.56.16 1.15.23 1.73h.01ZM270.71 40.78c-.11-.66-.22-1.33-.33-2-.45-.11-.9-.23-1.35-.34.13.68.3 1.36.49 2.03.39.1.79.21 1.18.31h.01ZM267.18 42.67c-.03-.11-.05-.23-.08-.35-.2 0-.41-.04-.61-.05.02.1.05.2.09.3l.6.09ZM160.83 14.6c.97-.13.46-1.75-.34-1.43-1.14.18-.6 1.76.34 1.43ZM271.37 61.34c-.1-.02-.2-.06-.31-.08.12.34.26.66.47.97-.04-.3-.1-.59-.15-.89h-.01ZM270.31 42.8h-.01l.01.01v-.01zM266.48 39.68c-.15-.66-.29-1.32-.42-1.99-.19-.04-.36-.09-.55-.14.08.62.19 1.28.32 1.95.22.06.44.12.65.18ZM271.73 43.95c-.08-.29-.16-.57-.27-.86-.39-.1-.76-.2-1.15-.28.08.25.18.49.23.76.39.12.79.26 1.18.39ZM280.15 126.74c.48.24.86.42 1.3.63.05-.21.11-.36.12-.5.08-.76-.16-1.32-.64-1.33-.73 0-.68.61-.78 1.2ZM284.92 137.46c-.5.17-.94.49-1.52.79l.41.77c.6-.13 1.11-.2 1.6-.39.27-.09.51-.34.69-.56.05-.07-.08-.43-.2-.47-.31-.11-.7-.22-.98-.13ZM294.94 152.75c.47-.41.51-.81.15-1.19-.09-.1-.53-.08-.61.04-.13.17-.19.32-.17.47.1.09.21.24.37.42.08.09.17.18.26.27ZM213.84 41.88c-.9.43-.37 1.81.64 1.46.86-.34.35-1.85-.64-1.46ZM277.59 113.18c-.43-.37-.78-.54-1.1-.11-.08.11-.04.45.07.53.46.34.71 0 1.04-.42h-.01ZM291.21 151.34c-.23.18-.29.57-.42.88.35.13.69.27 1.05.41.12-.34.22-.68.41-1.21-.49-.06-.88-.21-1.03-.08ZM277.02 122.86h.01v-.01l-.01.01z" style="fill:#fff"/><path d="M278.07 123.9c.03-.18.17-.5.1-.77-.09-.35-.78-.48-1.14-.28-.42.24-.32.57-.13.91.24.43.58.48 1.18.14ZM268.9 101.8l.84-.47s.02-.11.01-.16v-.08h.42l.22-.12.79 1.4c.13-.54.25-1.1.39-1.68-.54-.1-1.12-.29-1.69-.27-.42 0-.45.32-.22.62l.03.05c-.24.19-.51.35-.7.59-.04.05-.08.09-.1.14v-.02ZM261.2 78.62c-.02.55.17.81.64.9.02-.48.03-.88-.64-.9ZM197.8 32.38c-.11.33-.23.71-.37 1.12-.54.08-1.07.14-1.65.22.26 2.08 2.42 3.58 3.48 1.1 4.13 2.71 1.28-3.57-1.46-2.44Zm.92 1.91-.69.18-.16-.63.69-.18.16.63ZM296.75 143.68c.26-.23.5-.43.8-.68-.27-.18-.5-.33-.75-.49-.49.39-.63.75-.05 1.18ZM298.11 159.18c.07.06.32-.07.55-.13-.31-.45-.56-.83-.88-1.29-.31.68-.07 1.1.33 1.42ZM267.77 75.7c-.09.05-.18.08-.28.13.06.39 0 .84.73.91-.15-.34-.3-.69-.45-1.03ZM295.92 153.83c-.05-.14-.16-.27-.27-.38-.24-.24-.5-.48-.73-.71-.03 0-.02.04-.05.05-.32-.24-.56-.48-.57-.75-.29-.27-.5-.19-1.32.19.08.4.17.82.25 1.24-.31.46-.63.93-1.05 1.55.61.11.99.19 1.35.25-.23.19-.47.38-.72.58 2.14.92 3.62-.47 3.11-2.02ZM160.26 15.47l.12-.21c-.27-.16-.54-.3-.8-.46-.04.07-.09.15-.13.22l.81.45ZM262.28 18.47l.26-.03-.58-4.56c-.54 1.6-.15 3.11.32 4.6ZM274.51 8.83c0 .08 0 .17.02.24.92 3.02.56 6.25 1.58 9.26.29.85.18 1.83.27 2.74.02.29 0 .6.12.83 1.06 1.87.83 3.99 1.15 6 .08.46.29.89.41 1.34.1.34.23.69.28 1.04.06.47.11.94.17 1.41 7.12 1.8 14.29 3.44 21.49 4.94V.07h-26.08s.02.08.02.12c0 .08.06.16.05.23-.29 2.83.28 5.61.52 8.41ZM260.29 4.64c-.07.67-.12 1.42.1 2.04.48 1.35.48 2.76.71 4.15.11.64.27 1.27.4 1.91.09 0 .18 0 .27-.01.05-.37.19-.76.14-1.12-.21-1.45-.54-2.9-.72-4.36-.18-1.49-.23-2.96-.33-4.44-.06-.91-.14-1.82-.2-2.73h-.41c.15 1.52.22 3.04.05 4.57ZM261.87 32.11c-.07-.4-.13-.79-.19-1.19-.73-.18-1.47-.36-2.21-.55.08.42.16.84.26 1.25.71.16 1.43.32 2.14.49ZM277.59 45.77c-.05-.29-.1-.57-.13-.85-.51-.16-1.01-.32-1.52-.49.04.32.1.64.15.95.5.14 1 .27 1.51.39h-.01ZM282.82 51.3l.03.24c5.69 1.34 11.4 2.56 17.14 3.61v-1.84c-5.88-1.09-11.72-2.36-17.53-3.74.15.57.29 1.14.35 1.72h.01ZM300 41.44v-1.22c-7.06-1.42-14.07-3.13-21.04-4.9.07.51.12 1.02.2 1.54 0 .05.03.11.04.16 2.32.48 4.68.75 6.93 1.31 4.59 1.14 9.22 2.18 13.86 3.11h.01ZM278.02 54.53c.09.41.22.81.34 1.21l.2.59c.54.08 1.1.14 1.66.19l-.51-2.85c-.59-.05-1.17-.14-1.75-.24v.51c0 .21.01.41.05.6h.01ZM275.55 35.96c-.11-.55-.23-1.09-.35-1.63-.47-.12-.94-.25-1.42-.37.05.45.09.88.15 1.32.14.06.28.11.42.17.39.2.8.37 1.2.52ZM264.05 25.92c-.05-1.15-.45-2.15-.74-3.36-.62 1.03-.53 1.4.74 3.36ZM263.47 59.28c-.17-.05-.33-.12-.51-.15s-.09.18-.12.28c.16.07.32.13.53.22.05-.17.09-.26.11-.35ZM253 1.85l.15 1.3c.71-.53.24-.9-.15-1.3ZM287.8 47.29c-1.35-.56-2.76-.86-4.2-1.06l-.06.28c1.35.59 2.73.97 4.21 1.03l.04-.25h.01ZM253.63 5.55c-.03-.23-.05-.46-.08-.7-.11.01-.21.03-.33.03l.2.7.19-.04h.02ZM255.49 5.83c.07 1.08.39 2.13.52 3.2l.22 1.75.43 3.49c.14 1.16.29 2.33.47 3.49.25 1.71.68 3.38 1.01 5.08.07.35.02.72.07 1.08.08.59.12 1.2.31 1.74.1.28.19.56.28.84.82.18 1.64.37 2.45.53-.71-2.85-1.35-5.73-1.74-8.63-.2-1.51-.33-3.03-.68-4.52-.05-.21.08-.46.1-.69.09-.84 0-1.64-.22-2.48-.2-.74-.29-1.5-.35-2.27l-.09-.93c-.02-.15-.03-.3-.05-.45v-.21l.03-.42v-.21c-.17-1.39-.34-2.78-.52-4.16v-.37c.09-.55.09-1.09.04-1.62h-2.36c.03.64.07 1.27.09 1.92.05 1.28-.1 2.57-.02 3.85ZM263.97 27.76c.16.05.33.09.49.14 0-.01.02-.03.02-.05 0-.46-.15-.92-.25-1.38-.07.02-.14.03-.22.04l-.03.94v.31ZM272.77 30.25c.54.14 1.08.27 1.62.41-.11-.58-.22-1.16-.29-1.75-.11-.86-.57-1.7-.19-2.61.08-.2 0-.49-.08-.71-.46-1.24-.52-2.58-1.02-3.83-.41-1.02-.46-2.2-.62-3.3-.27-1.86-.51-3.73-.73-5.6-.07-.63.05-1.27 0-1.9-.08-.7-.32-1.39-.39-2.11-.26-2.43-.49-4.86-.71-7.29-.05-.49-.08-.99-.13-1.48h-1.31c.09 1.12.09 2.25.07 3.38-.01 1.13-.04 2.23.27 3.35.27 1 .23 2.07.33 3.11.02.24-.08.54.03.71.83 1.33.39 2.84.64 4.24.19 1.07.43 2.12.67 3.18.27 1.18.46 2.35.38 3.59-.03.48.11.96.28 1.45l.17.49c.06.16.12.33.16.48.07.22.3.41.32.63.15 1.4.3 2.8.38 4.21.02.47-.06.94.14 1.36ZM253.97 30.33c.79.17 1.59.35 2.38.54 0-.16-.02-.31-.05-.45-.05-.29-.09-.59-.14-.88-.88-.23-1.75-.45-2.62-.68.1.37.22.73.35 1.1.04.11.06.25.09.38h-.01ZM257.74 50.28l.09.44c.01 0 .04 0 .05.02.06.3.11.59.15.86 1.07-.11 2.09-.03 3.06.2.01-.61-.12-1.17-.53-1.67h-.02c-.36-.44-.57-.9-.66-1.39-.5-.1-1.01-.16-1.53-.18.04-.66-.5-1.02-1.16-1.16.1.48.2.96.29 1.44l.26 1.45ZM289.89 47.78c-.02.09-.05.18-.07.27 2.43.6 4.87 1.93 7.38 1.61-2.12-1.28-4.91-1.14-7.31-1.87ZM281.41 46.17c.15 0 .29 0 .44-.02-.16-.03-.32-.08-.47-.12.02.05.02.09.03.14ZM256.46 44.69c.96.23 1.91.47 2.87.7 0-.13 0-.26.03-.4.1-.54-.06-.96-.28-1.37-1.04-.28-2.08-.55-3.12-.83.04.16.07.33.11.49.13.47.25.94.38 1.4h.01ZM265.65 49.59c-.39-.12-.78-.25-1.2-.38.48.52.82.73 1.29.72-.03-.11-.06-.22-.09-.34ZM263.84 41.81c-.06-.23-.12-.46-.17-.69-.77-.2-1.58-.28-2.38-.38.02.07.02.14.04.21.82.35 1.65.65 2.52.86ZM263.04 38.35c-.08-.33-.04-.71-.02-1.07l.03-.37c-.83-.22-1.66-.45-2.48-.67.1.64.18 1.28.28 1.92.76.21 1.52.41 2.28.63l-.09-.43ZM292.78 56.45c1.06.46 1.59.47 2.36-.05-.89-.09-1.62-.16-2.34-.23 0 .09 0 .19-.01.28ZM300 50.13v-.07l-.44-.06c.14.05.29.09.44.13ZM297.53 49.53c-.01.08-.03.15-.05.22.27.05.53.11.81.16.01-.08.03-.15.05-.22-.27-.05-.53-.11-.81-.16ZM288.73 73.21c.17.4.16.87.28 1.28.21.69.44 1.37.7 2.04.4 1.01.85 2 1.24 3.02.21.56.33 1.15.48 1.72.06.23.03.52.16.68.9 1.09 1.11 2.44 1.51 3.73.49 1.56.93 3.14 1.89 4.55.58.83.9 1.89 1.16 2.89.28 1.06.62 2.07 1.18 3.02.73 1.22 1.21 2.51 1.54 3.91.24 1.03.68 2.02 1.12 3V67.61c-4.57-.78-9.13-1.67-13.67-2.67.22.68.43 1.35.58 2.05.46 2.13.94 4.22 1.81 6.23h.02ZM290.22 55.71c.22.49.36.34.84.11-.2-.19-.3-.36-.4-.35-.15.02-.29.15-.44.24ZM300 47.25v-1.82c-6.58-1.3-13.13-2.71-19.66-4.24.16.69.32 1.37.47 2.07 6.37 1.49 12.76 2.83 19.2 3.99H300Z" style="fill:#fff"/><path d="M283.72 55.98c.09.5.22.98.37 1.45 5.3 1.32 10.58 2.47 15.9 3.46v-3.64c-.17-.03-.39.1-.62.23.09.25.17.49.26.73-1 .23-2.01-1.55-2.95-.7-.04.06-.26.05-.32 0-.93-.7-2.1-.16-3.12-.56-1.27-.75-2.7-.33-3.97-1.11l-.02.04a.995.995 0 0 0-.22-.36l.11.43-1.87.49-.11-.41-.02-.1 1.82-.46c-.59-.56-1.77-.45-2.54-.38.02.17.04.31.05.45-1 .02-1.08-1.49-2.27-1.28.02.22.05.45.07.78-.26-.1-.53-.21-.79-.31.09.41.18.83.26 1.25h-.02Z" style="fill:#fff"/></svg>