<?xml version="1.0" encoding="utf-8"?>
<!-- Generator: Adobe Illustrator 26.5.0, SVG Export Plug-In . SVG Version: 6.00 Build 0)  -->
<svg version="1.1" id="a" xmlns="http://www.w3.org/2000/svg" xmlns:xlink="http://www.w3.org/1999/xlink" x="0px" y="0px"
	 viewBox="0 0 300 243.3" style="enable-background:new 0 0 300 243.3;" xml:space="preserve">
<style type="text/css">
	.st0{fill:#FFFFFF;}
</style>
<path class="st0" d="M288.2,221.3c-0.8-0.3-1.7-1.5-2.1-1C286.5,221,286.9,221.6,288.2,221.3z M293,224.4c-0.5-0.9-0.8-1.1-1.7-1.1
	C292,223.7,292.4,224,293,224.4z M296.2,226c-0.2-0.7-0.8-0.7-1.4-0.7C295.2,225.5,295.9,226.6,296.2,226z M281.7,217.8
	c0.3,0.3,0.5,0.6,0.7,0.2C282.2,217.8,281.8,217.4,281.7,217.8z M271.5,212C271.7,211,270.8,211.6,271.5,212z M259.3,205.7
	c-0.4-0.2-0.8-0.3-1.2-0.5C258.2,206.1,258.8,205.9,259.3,205.7z M255.8,204.5c0.8,0.5,1-0.1,0.1-0.2
	C255.8,204.3,255.8,204.5,255.8,204.5z M269.2,211c0.2,0.5,0.3,0.5,0.8,0.3C269.9,210.8,269.8,210.9,269.2,211z M267.8,209.9
	c-0.9-0.7-1.4-0.9-2.3-0.6C266.2,209.4,267.4,210.5,267.8,209.9z"/>
<g>
	<path class="st0" d="M125.5,177.3C125.5,177.3,125.5,177.3,125.5,177.3C125.6,177.3,125.6,177.3,125.5,177.3
		C125.6,177.3,125.5,177.3,125.5,177.3z"/>
	<path class="st0" d="M82.7,170.6c-0.3-0.4-0.7-0.4-1.1-0.2C81.9,171,82.2,171.1,82.7,170.6z"/>
	<path class="st0" d="M51.7,173.4l0.2-0.2C50.1,173,50.5,174.1,51.7,173.4z"/>
	<path class="st0" d="M105.4,176.2c-0.9-0.8-1.4,0.6-0.6,1.2C105.7,176.8,105.8,176.6,105.4,176.2z"/>
	<path class="st0" d="M106.6,172.4c0.7-0.7-0.3-1.1-0.7-1.4C104.6,171.6,105.5,173.4,106.6,172.4z"/>
	<path class="st0" d="M18,179.9c-0.4-0.2-0.7-0.1-1.1,0.4C17.4,180.1,18.1,180.4,18,179.9z"/>
	<path class="st0" d="M94.9,178c1.6,0.3,3,0.2,4.5,0.5c3.9-0.3,9.6,0.9,12.6-0.2C106.4,178,100.4,177.4,94.9,178z"/>
	<path class="st0" d="M218.1,196.6c0.1-0.3,0.6-0.6,0-0.6C218,196.3,217.6,196.6,218.1,196.6z"/>
	<path class="st0" d="M208.7,193.3C208.7,194.3,210.8,193.8,208.7,193.3L208.7,193.3z"/>
	<path class="st0" d="M254.4,194.1c-0.5-0.6-1-0.7-1.8-0.5C253.2,194.1,253.7,194.4,254.4,194.1z"/>
	<path class="st0" d="M214.7,195.2c-0.5-0.4-1-0.7-1.6-0.5c-0.1-0.1-0.1,0,0,0h0C213.6,195.3,213.9,195.5,214.7,195.2z"/>
	<path class="st0" d="M189.5,173.6c-0.5-0.3-0.8-0.2-1.1,0.1C188.8,173.9,189.1,174.1,189.5,173.6z"/>
	<path class="st0" d="M259,196.1c-0.6-0.3-1-0.5-1.5-0.8C258,195.9,258.5,196.1,259,196.1z"/>
	<path class="st0" d="M163.9,170.5c0.8,1.9,3.3,0,1.9-0.7h-0.1c0-0.4-0.1-0.8-0.2-1.1C165.7,170.5,165.8,170.6,163.9,170.5z"/>
	<path class="st0" d="M286.5,210.3c-0.4-0.2-0.6-0.3-1.1-0.6C285.8,210.2,286.2,210.3,286.5,210.3z"/>
	<polygon class="st0" points="163.9,170.5 163.9,170.5 163.9,170.5 	"/>
	<path class="st0" d="M191.5,189.4c1.1-0.1,0.3-0.6-0.4-0.7C183.3,186.1,184.2,187.9,191.5,189.4z"/>
	<path class="st0" d="M164.9,184c1.8,0.7,3.3,0.6,5.2,0.8C168.2,184.2,166.3,183.1,164.9,184z"/>
	<path class="st0" d="M194.8,189.8l0.7,0.2C195.8,189.8,194.7,189.5,194.8,189.8z"/>
	<path class="st0" d="M155.9,183.1c3.3,0.7,8.4,0.8,4-1.4C160,184,157.1,182,155.9,183.1z"/>
	<path class="st0" d="M148.9,180.6c-0.8-1.5-1.5,1.1-2.6,1.2c4.2,0.6,12.7,1.6,3.8-0.2C149.4,181.5,148.9,181.4,148.9,180.6z"/>
	<path class="st0" d="M199.7,190.7c-0.4-0.1-0.7-0.1-1.1-0.1C199,190.7,199.5,191.1,199.7,190.7z"/>
	<path class="st0" d="M220.8,197.4C223.9,199,222.7,196.1,220.8,197.4L220.8,197.4z"/>
	<path class="st0" d="M187.7,180.6c0.4,0,1.2,0.4,1.2-0.2C188.5,180.3,188.1,180,187.7,180.6z"/>
	<path class="st0" d="M207.9,207.2c-0.2-0.1-0.2,0.2-0.4,0.4C207.6,207.4,207.8,207.3,207.9,207.2z"/>
	<path class="st0" d="M261.6,213.4c0.3,0.1,0.7,0.6,0.8,0.2C262.2,213.5,261.7,213,261.6,213.4z"/>
	<path class="st0" d="M269.2,217.6c-1.2-1.5-4.3-3.3-6.5-3.8C264.4,215.6,267.1,216.2,269.2,217.6z"/>
	<path class="st0" d="M291.8,213.7C291.1,212.9,291.1,214.2,291.8,213.7L291.8,213.7z"/>
	<path class="st0" d="M301,235.6v-0.4c-0.3-0.1-0.6-0.1-1-0.1C300.2,235.2,300.5,235.4,301,235.6z"/>
	<path class="st0" d="M237.2,203.1c-0.6-1.1-1-1.2-3.3-1C234.9,202.6,236,202.8,237.2,203.1z"/>
	<path class="st0" d="M245.4,206.2c-1.1-1.2-2.6-1.7-4.2-2C240.6,204.6,245.4,206,245.4,206.2z"/>
	<path class="st0" d="M295.3,232.3c-1.3-1.2-2.8-2.2-4.5-2.8C292,231.1,293.7,231.6,295.3,232.3z"/>
	<path class="st0" d="M280,223.5c1.8,1.4,13,7.9,8.6,4.4C285.5,226,272.1,218.1,280,223.5z"/>
	<path class="st0" d="M274.9,220.5C270.2,216.7,271,220.1,274.9,220.5L274.9,220.5z"/>
	<path class="st0" d="M251.6,208.8c2.8,0.8,6.8,4.1,8.9,3.7C256.4,209.7,240.5,204,251.6,208.8z"/>
	<path class="st0" d="M1.6,192.2c1.4-0.2,2.6-0.7,3.5-1.5C3.9,190.8,2.7,190.9,1.6,192.2z"/>
	<path class="st0" d="M50.1,181.4c1.3-0.1,2.6-0.2,3.8-0.8C52.5,180.2,51.2,180.4,50.1,181.4z"/>
	<path class="st0" d="M39.4,183.3c2.2-1,5.1-0.4,7-1.8C43.3,181.3,31.5,184.5,39.4,183.3z"/>
	<path class="st0" d="M29.1,196.8c-0.5,0.5-0.1,0.8,0.2,1.3C30.7,198.1,30.2,196.4,29.1,196.8z"/>
	<path class="st0" d="M29.9,185.2c1.5-0.4,3,0,4.1-1C32.8,184,30.6,184.6,29.9,185.2z"/>
	<path class="st0" d="M26.5,185.6c-1.1,0.1-2.2,0.2-3.1,0.8C24.5,186.3,25.6,186.4,26.5,185.6z"/>
	<path class="st0" d="M139,167.5C139.2,164.4,134.9,168.5,139,167.5L139,167.5z"/>
	<path class="st0" d="M233.4,201.7c-0.2-0.1-0.9-0.5-1.1-0.7C231.4,201.5,233.3,202.1,233.4,201.7z"/>
	<path class="st0" d="M143.2,165.5C141.3,162.9,141.7,168.5,143.2,165.5L143.2,165.5z"/>
	<path class="st0" d="M61.5,191.5C61.5,192.2,63,191.2,61.5,191.5L61.5,191.5z"/>
	<path class="st0" d="M62.4,186.7c-0.3-1.2-1.2-0.6-1.9,0.2C61.4,187.6,62.3,188,62.4,186.7z"/>
	<path class="st0" d="M106.5,184.2c0.1,0.5,0.1,0.8,0.2,1.2C107.2,184.9,107.1,184.5,106.5,184.2z"/>
	<path class="st0" d="M113.2,190.1C112.6,189.6,112.6,191.3,113.2,190.1L113.2,190.1z"/>
	<path class="st0" d="M152,169.8c-0.6-0.6-1.1,0.3-0.6,0.9C151.9,170.6,152.2,170.3,152,169.8z"/>
	<path class="st0" d="M23.6,197.8c-0.5,0.4-0.2,1.5,0.6,1.4C24.7,198.4,24.7,197.6,23.6,197.8z"/>
	<path class="st0" d="M147.2,175.6c0.4,0.7,1,0,0.7-0.6C147.5,175.1,147.1,175.2,147.2,175.6z"/>
	<path class="st0" d="M13.8,188.6c-1.4,0.1-2.8,0.3-4,1C11.2,189.6,12.6,189.6,13.8,188.6z"/>
	<path class="st0" d="M14.3,188.3c2.6,0,5.1-0.8,7.6-1.6c0.2-0.1,0.3-0.1,0.5-0.2C19.5,186.4,16.9,187.3,14.3,188.3z"/>
	<path class="st0" d="M8,190.4c0.6-0.3,1-0.4,1.5-0.7C8.7,189.6,8.2,189.8,8,190.4z"/>
	<path class="st0" d="M56.5,180c0.5,0.1,0.8,0.2,1,0.2C76.4,178.2,72.3,177.1,56.5,180z"/>
	<path class="st0" d="M116.4,172.9c-0.1-0.6-0.3-0.9-1-0.6C115.5,173.2,115.5,173.5,116.4,172.9z"/>
	<path class="st0" d="M111.5,163.7c-0.5-1.5-2.1,0-0.6,0.9C111.2,164.2,111.5,163.9,111.5,163.7z"/>
	<path class="st0" d="M9,175.4c-0.5-0.4-0.9-0.4-1.2,0C7.8,176,8.5,175.4,9,175.4z"/>
	<path class="st0" d="M107,163.8c-0.9-2.3-2.5,3,0,2.8c0.6,0,1.1,0,1.5-0.2c0.2,0.7,1.2,0.8,1.2,0c-0.1-0.3-0.3-0.4-0.5-0.3
		C110.6,165,107.6,162.3,107,163.8z"/>
	<path class="st0" d="M14.3,173.6c1,0.3,1.4,0.2,2-0.5C15.5,173.3,14.9,173.4,14.3,173.6z"/>
	<path class="st0" d="M126.7,163.4c-1.3-0.6-2,2.7-0.7,2.5C126.9,165.3,126.6,164.4,126.7,163.4z"/>
	<path class="st0" d="M77.8,170.5c-0.4,0-0.9-0.2-1.4,0.5C77.1,170.8,78,171.1,77.8,170.5z"/>
	<path class="st0" d="M96.8,184.1c-1-0.1-0.9,1.7,0,1.5C97.8,185.5,97.8,184,96.8,184.1z"/>
	<path class="st0" d="M110.2,176.3c-1.2,0.4-0.6,1.2,0.1,1.9C110.8,177.4,111.4,176.4,110.2,176.3z"/>
	<path class="st0" d="M102.6,166.3c-0.4-0.6-0.9-0.6-1.4-0.4C100.7,166.7,102,166.2,102.6,166.3z"/>
	<path class="st0" d="M113.5,179.1v-0.2C112.9,178.7,112.9,179.3,113.5,179.1z"/>
	<path class="st0" d="M90.3,178.3l3,0.1C92.4,177.9,91.5,177.7,90.3,178.3z"/>
	<path class="st0" d="M38.2,167.5C40.8,167.2,36.5,164.7,38.2,167.5L38.2,167.5z"/>
	<path class="st0" d="M41.3,166.3c-0.5-0.3-0.8-0.5-1.1-0.6C39.7,166.3,40.5,166.6,41.3,166.3z"/>
	<path class="st0" d="M240.6,186.5c0.2,0,0.3-0.1,0.5-0.2l6.4,2.1c0.5,0.9,1.8,1.6,4.2,2.2c14.6,5.8,28.7,13.1,42,21.3
		c2.4,1.4,5,2.8,7.5,4.3v-59l-0.3-70.7l0,0V-1.2C230.4-2.2,133.4-3.4,1-1.5v176.2c9.1-2.5,17.7-4.5,23.5-5.9c3.6,0.2,1.4,5.5,6,2.3
		c2.8-0.6,2.3-2.9-0.4-2.1c1.1-3.6,15.9-3.5,21.7-5.2c9.1-0.4,42.9-7.6,43,1.8c1.4,2.6,2.5-1.3,1.7-2.8c9.7-2.7,22.2,0,33.2,0.2
		c8.4,1.7,14.5,0.9,23.5,2.5c-6,4-0.7,1.8-0.5,3.4c-0.5,1,0.5,3.3-1,2.8c-3.6-0.4-7.5-0.9-11.1-1.1c-3-0.2-5.9-0.4-8.1-1.6
		c-2.4,1.7-4-2.6-5.9-0.8c-0.8,1.2-2.2-0.7-3,0.7c-0.5,0.6-0.6,0.6-1.2,0c1.7-1.2,1-3.5-0.9-1.8c0.2,0.8,0.2,1.2-0.9,1
		c0-0.5-0.2-0.9-0.3-1.4c0-1.2-1.3-1.2-2.1-0.6c1.1,0.8,0.7,1.9-0.3,2.5c-4,0.1-8-0.1-12.1-0.8c0.3-1.8-1.6,1.2-2.6,0
		c-2,0.1-5.5,1.4-4.6-2.2c-3.1-0.8-0.3,1-0.8,2.5c-3.2-1-6.3-0.1-9.4-0.3c-1.9-1-4.1-0.3-6.2,0.1c-20.6-0.5-40.8,3.5-60.7,8.4
		c-6.8,1.4-13.7,3-20.5,4.8v2.3c7.1-1.4,14.2-4.6,22-4.8c-0.4-0.1-0.7-0.2-1.1-0.3c1.8-0.4,2.7-0.6,4.7-0.4c-1-1.2,3.8-1.8,1.3-0.4
		c5.7-0.6-0.9-3,6.6-2.5c-0.7,1.3,3.4,1.3,2.8,0c0.9-0.6,1.5,0.1,2.3,0.3c0.3-0.5,1.8-2.4,2.6-0.9c-0.1,0-0.3,0.1-0.4,0.1
		c0,0.3,0.5,0.2,0.6,0c2.4,0.2,2.7-1.5,5.4-1.4c2.1,0.9,5.7-2.2,8.3-0.9c0.7,0.2,2.3,0.6,1.8-0.7c1-0.2,7.2-0.8,4.7,0
		c1,0.6,1.7,0.2,2.1-0.8c0.8-0.2,4.4-0.9,3,0.5c1-0.1,3.1-0.1,1.3-0.8c2-1.2,4.5-0.1,6.3-0.2c2.1-0.5,8.3-0.9,8.7,0
		c1,0.8,1.7-0.7,2.7-0.7c1.3,0.1,1.2,1.6,2.7,0.4c-0.5-0.2-0.9-0.3-1.2-0.4c0.6,0,1.3-0.4,1.5,0.5c1.2,0.5,1.9-0.9,2.8,0.7
		c1.3-1,2.4-1.1,4.1-0.8c-1.1,1,2.2,1,3.4,0.4c-0.2,1.7,2.8,0.6,4,0.5c-0.6-0.6-1.2-0.2-1.8-0.5c0.9-0.1,4.3-0.5,2,0
		c1.2,1.1,1.6-0.4,2.5,0.1c1,1.2,4.2,0.6,1.6-0.1c1.3,0.2,2.5,0.1,3.8,0c-0.2,0.2-0.5,0.3-0.8,0.5c1.1,0.2,2.2,0.3,3.3,0.5
		c-0.2-0.2-0.3-0.4-0.5-0.7c1.4,0.9,3.7-0.7,4.1,1.4c0.1,1.1,1.9,0.5,1.4-0.5c-0.2-2.8,3.8,1.9,4.4,0.2c3.1,4.6-6.4,1.3-8.7,1.8
		c-26.6-1.7-56.1-1.1-79,4.4c-11.8,2.6-23.7,5.3-35.3,8.7v1.9c29.9-9.5,61.7-14.2,92.8-13.8c10.3,1.1,24.5-1.2,31.8,2.6
		c-0.4-1.2,1.3-1.4,1,0.1c-0.2,0-1-0.1-0.9,0.2c0-0.1-0.1-0.2-0.1-0.3c-0.5,1.4-0.8,1.2-2,0.5c0.2,0.6,0.3,1.1,0.4,1.7
		c-2.1,0.6-4.7,0.9-7.7,1.2c0.9-0.7,2.2-0.8,2.7-1.6c0.4-3.4-5.5,0.8-3.7,1.6c-10.7,0.7-25.7-0.1-37-0.1C52.4,182.7,26,187,1,195.1
		v1.6c12.9-3.9,25.3-6.5,28-6.1c1.8-1,12.3-5,12.9-1.7c2.2-1.1,0.3-2.9,5.2-2.9c22.3-4.8,49.7-3.5,68.4-1.9
		c6.2,6.8-15.7,1.7-19.7,2.6c-16-0.5-32.3,0.5-47.9,3.2c-15,3.3-31.1,6.4-46.8,11.3v1c14-4.4,27.9-7.4,30.6-6.5
		c1.1,3.2,2.3-3.4,6.8-1.9c3.8-2.9,10.1,2.6,2.5,2.5c-13.4,2.7-26.8,5.8-39.9,10V242h284.6c-9.5-5.8-19.1-11.5-28.4-15.9
		c-11.7-4.7-19.6-10-26.5-11.8l-14.1-4c0.1-0.1,0.2-0.3,0.3-0.4l-0.4,0.4l-4.3-1.2l0.3-0.3c-0.1,0.1-0.2,0.2-0.4,0.3l-8.3-2.3
		l-4.8-1.4c0-0.2,0.1-0.3,0.2-0.6c-0.3,0.1-0.7,0.2-1,0.3l-9.5-2.7l0.2-0.2c-7-2.3-34.2-5.8-48.4-8.1c0.9-0.3,1.5-1,0.5-1.6
		c-1.8-1.3-0.9,0.3-1,1.5c-11-1.8-13.6-3,8.5-2.3c13.1,1.7,26.1,3.5,38.9,6.3c0.1,0.1,0.2,0.3,0.3,0.3c0.7,0.3,1.4,0.5,2.1,0.6
		c0.1,0.1,0.2,0.1,0.4,0.2c3.5,0.8,7.1,1.7,10.6,2.6c0.1,0,0.2,0.1,0.3,0.1c4.2,1.1,8.3,2.3,12.4,3.5c0.2,0.1,0.3,0.1,0.5,0.1
		c1.9,0.6,3.8,1.2,5.6,1.8c0.2,0.1,0.4,0.1,0.5,0.2c2.8,0.9,5.5,1.9,8.2,2.9c0.2,0.1,0.3,0.1,0.4,0.1c5.1,2.1,14.5,5,16.3,6.2h0
		c14.1,5.8,27,13.9,40.2,21c1.7,1.4,4,2.8,6.7,4.3h3.5c-21.2-12.8-42.8-24.8-66.1-33c-0.1-0.2-0.3-0.4-0.5-0.5
		c-12.4-4.5-25.2-8.2-38.1-11.1c-0.1-0.1-0.2-0.1-0.3-0.2c-0.7-0.1-1.4-0.3-2-0.6c0.1,0,0.1,0.1,0.2,0.1c-0.1-0.1-0.2-0.1-0.4-0.1
		c-0.1,0-0.3,0-0.4,0c-0.1,0-0.3,0.1-0.4,0.3c-11-4.4-30-4.3-42.6-7c2.4-1.7-29.5-0.7-23.7-3.1c-4.5-6.5,11.1-1.5,12.8-0.1
		c4-3.4,14,0.1,20.7,0.6c13.7,0.4,28,5.5,41.1,6.6c-0.1,0.3,0.1,0.8,0.6,0.7c1.4-0.4,2.8,0.5,4.1,1.1c1.4,0.7,2.7,1.3,4.1,2
		c0.3,0.2,0.6,0,0.7-0.3c3.1,0.7,6.2,1.5,9.2,2.3c-0.1,0.1-0.2,0.2-0.3,0.3c0.5,0.2,0.8,0.1,1.1-0.1c0.7,0.2,1.5,0.4,2.2,0.6
		c0,0,0,0.1-0.1,0.1c0.8,0.3,1.4,0.6,2,0.5c1.4,0.5,2.8,1,4.2,1.5c0,0,0,0,0,0c0.5,0.3,0.8,0.4,1.1,0.4c2.4,1,4.8,2.1,7.2,3.2
		c0.2,0.1,0.4,0,0.6-0.1c21.2,6.5,40.5,18.5,59.6,29.5c2.3,1.6,5.3,3.4,8.6,5.2v-1.5c-23.8-14.9-50.2-30.3-68.1-33.5
		c0-0.2,0-0.4-0.2-0.5c-2.4-1.1-4.9-2.2-7.4-3.3c0,0,0,0-0.1,0c-1.5-0.6-3.1-1.2-4.7-1.7c0,0,0,0,0,0c-0.5-0.2-1-0.4-1.5-0.4
		c-0.1,0-0.3-0.1-0.4-0.1c-2.1-0.6-4.2-1.2-6.3-1.7c0,0,0,0,0,0c-0.6-0.2-1.3-0.5-1.9-0.4c-1.2-0.3-2.4-0.6-3.6-0.9
		c0.1,0,0.1-0.1,0.2-0.1c-1.2-0.1-2.3-1.1-3.3-0.6c0,0,0,0-0.1,0c-0.1,0-0.2,0-0.3,0c-0.9-0.5-1.9-0.9-2.8-1.4
		c-1.4-0.7-2.8-1.3-4.4-1c0,0,0,0-0.1,0c-10.1-4.7-96.4-13.1-66.3-11.9c4-1.4,9,1.2,13.5,0.4c-3.4-2.1-9.6,0.3-13-2.7
		c-2.6,2.5-6.3-2.1-1.2-2c6.9,1.7,16.6-0.3,21.8,3.3c3.6-2.3,9.6,1.2,12.6,0.6c-1.6,2.2,2.4-0.2,3.5,0.5c-2.4,1.9,2.3,2.6,3.7,3
		c-0.1,0.1-0.2,0.3-0.3,0.3c0.7,0.5,1.9,0.2,2,1.7c1-1.9,2.7-1.4-0.2-1.8c2.3-1.8-0.6-2-1.2-0.3c0,0,0,0-0.1-0.1
		c0.1-3.9,4.8-1,7.7-1c-0.5,0.2-1.1,0.8-1.3,1.7c-5.1-0.1,2.2,2,4.2,0.8c-1-0.2-1.9-0.3-3-0.5c1.4-1.2,1.4-1.9,0.9-2.1
		c0.1,0,0.2,0,0.3-0.1c5.7,0.6,14.5,5.3,20.6,4.7c0,0.9,0.7,1.4,1.5,1.5c3.6,0.3,7.1,1.1,10.4,2.4c0.2,0.1,0.5,0.1,0.7,0
		c0.1,0,0.2,0.1,0.2,0.1c0.1,0.1,0.1,0.2,0.2,0.3c0.3,0.3,0.6,0.4,1.1,0.4c0.2,0,0.3,0,0.5,0c0.7,0.1,1.3,0.3,2,0.5
		c0.1,0.1,0.3,0.1,0.4,0.1c0.1,0,0.2,0,0.3,0c0.2,0.2,0.4,0.4,0.8,0.5c3.2,0.5,6.2,1.8,9.3,2.8c3.1,1.1,6.3,2.2,9.4,3.2
		c0.3,0.1,0.5,0.1,0.7,0.1c8.8,2.9,17,7.1,25.3,10.8c12.9,6.4,25.5,13.3,37.6,20.7v-2.9c-14.9-8.9-31.4-17.5-50.1-26
		c-3.4-0.8-8.1-4.2-12-4.9c-0.2-0.3-0.4-0.5-0.8-0.6c-3.1-1.1-6.3-2.2-9.4-3.2c-3-1-6.1-2.3-9.3-2.8c-0.2,0-0.3,0-0.5,0
		c-0.1-0.2-0.3-0.3-0.4-0.4c-0.6-0.3-1.2-0.5-1.9-0.7c-0.5-0.1-1.1-0.2-1.6-0.2c-0.2-0.4-0.6-0.7-1.3-0.7c-0.1,0-0.2,0-0.4,0
		c-0.1,0-0.1-0.1-0.2-0.1c-3.6-1.4-7.4-2.2-11.2-2.5c-0.1,0-0.1,0-0.2,0c-11-2.6-20.7-5.5-31.7-6.6c-2.1-1-1.5-4.6,0.2-1
		c1.5-0.1,3.3-2.5,5.4-1.1c-1.7,1,4.4,1.6,5.1,1.6c1.5,0.3,3-2.3,3.6,0.3c1.2,0,3.8,0,5.2,0.6c0.3,1.4,2.6,0,3.4,1.5
		c1.2,0.1,2.4,0.2,3.6,0.4c-0.2,0.1,0.2,0.4,0.9,0.6c-0.1-0.3-0.2-0.4-0.3-0.5c2.3,0.4,4.6,1,7,2.1c-0.8-0.2-0.7,0.6,0.5,0.2
		c0.1,0,0.2-0.1,0.4-0.1c0,0,0,0,0.1,0.1c0,0,0,0,0,0c0.1,0.2,0.2,0.2,0.3,0.2c0.2,0.1,0.4,0.2,0.7,0.2c2.5,0.2,5,1,7.4,1.8
		c0.1,0.1,0.3,0.2,0.6,0.2c0.6,0.2,1.2,0.4,1.8,0.6c3.4,1.1,6.7,2.1,10.1,3.2c0.6,0.2,1.1,0.3,1.7,0.5c0.2,0.2,0.5,0.4,0.9,0.3
		c3.5,1.1,7,2.1,10.5,3.3c7.6,3.3,16.5,5.1,23.2,10.3c0.5,1.4,0.8-0.4,1-0.4c2.6,2.4,6.3,2.8,9.1,5c0,0,0.1,0,0.1,0.1
		c0.1-0.4,1.6-0.3,2.2-0.3c0.5,1.5-1.1,0.9-2,1c2.4,1.2,2.1,0.1,4.1,2.2c0-1.6,1.8,0.7,2.6,1c3.7,1.4,13.5,7.6,21.8,12.4v-3.1
		c-1.9-1.1-3.7-2.3-5.5-3.5c-10.6-4.3-33.8-20.5-48.3-24.6c-0.1-0.1-0.2-0.2-0.4-0.2c-6.5-2.9-13.5-4.7-20.2-6.8
		c-1.2-0.4-2.4-0.8-3.6-1.1c0.1-0.1,0.1-0.1,0.2-0.2c-0.5-0.4-1.1-0.4-1.7-0.3c-1.2-0.4-2.5-0.8-3.7-1.2c-0.3-0.3-0.9-0.5-2-0.7
		c-0.2-0.2-0.5-0.2-0.8-0.2c-2.8-0.9-5.6-1.9-8.6-2.1c-6.5-3.4-42-7.1-31.6-9.4c-1.4-5.6-10.1,2.4-14.5,0.1c1.1-1.9,1.9,1,3.1-1.5
		c-0.2-0.4-0.8-1.7,0.2-0.8c-0.5-3.2,2-0.1,1.9-3c2.3-0.1,10.8-0.3,9.4,2.4c5.6-1.5,12.7,0.4,17.7,2.5c6.8,0.5,13.9,3.3,20.7,5
		l0.2-0.2l27.2,8.9C240.7,186.4,240.7,186.5,240.6,186.5z M28.5,169.2c-0.9,0.1-1.1-0.1-1-1C28.6,168.2,29,168.4,28.5,169.2z
		 M126.7,190.9c-1.4,0-1.7,0.2-2.2,1.5c-1,0.1-1.5-0.4-0.4-0.9C113.5,188.1,135.2,188.9,126.7,190.9z M49.3,190.9
		c0.4,0.2,0.2-0.4,0.3-0.6c1-0.2,1.1,0.3,1.1,1.1C50,191.7,49.6,191.3,49.3,190.9z M59.2,190.3c-6.8-0.2,6.7,3.2-7.7,4.1
		c0.8-1.2,2.2-0.6,2.6-2.5c-0.5-0.4-1.5,0.1-1.5-1C53.9,190.1,61.2,189.1,59.2,190.3z M93.8,191.7c-11-0.5-21.9-0.6-32.7,1
		c-5.1-8.7,54.5-4.2,57.9-2.6C120.2,195,98.5,190,93.8,191.7z M168.5,181.5c-0.1-0.1-0.3-0.2-0.4-0.3c1.1,0.2,1.9,0.3,2.8,0.5
		c-0.1,1.2-2.4,0.7-3.3,0.8C167.4,181.6,167.7,181.3,168.5,181.5z M157.6,166.5c1.1,7-4.2,6.6-3,4
		C154.7,167.8,153.9,165.8,157.6,166.5z M128.6,172.4c0.3,1.4-0.8,1.2-1.5,0.4c0.1-0.3,0.4-0.2,0.5-0.4c-0.9,0.1-1.1-0.1-1-1h3
		C129.7,172.3,129.5,172.6,128.6,172.4z M162.9,176.4c1.1,1.5,3.2,0.1,1.2,3c-4.4-0.8-8.5-0.2-11.5-4c-5.6,3-14.5,0.8-21.6-0.2
		c-2.2-1.6,1.5-2,2.5-2.3c1.4-0.6,1.6,1.9,3.3,0.8c-0.5-0.2-0.8-0.2-1.3-0.4c1.4-0.3,3.1-0.4,4.6-0.1h-0.2c0.5,0.4,0.8,0.7,1.3,0.4
		c0-0.1-0.1-0.1-0.1-0.2c0.6,0.2,1.2,0.5,1.8,0.8c0.1-0.2,0.2-0.3,0.2-0.4c0.5,0.1,0.9,0.3,1.4-0.1c-0.4-0.2-1.1-0.3-1.4,0
		c0-0.9,3.5,0.6,4.7,0.3c-1.9,1.4,3.3,0.4,4.4,0.4c2.3,1.1,5.3,1.8,7.6,1C160.2,177.3,162.1,174.8,162.9,176.4z"/>
	<path class="st0" d="M85.2,179.3c-3.2-2.8-8.2-1.4-11.9-1c2,0.2,3.9,0.1,5.9,0C80.3,179.4,83.7,179.4,85.2,179.3z"/>
	<path class="st0" d="M32.5,171.9c-0.9,0-1.1,1.2-0.1,1.1C32.9,172.7,32.8,172.3,32.5,171.9z"/>
	<path class="st0" d="M41,169.5c1.3-2-1.5-0.2-2.4-0.3C37.4,170.5,40.5,170.6,41,169.5z"/>
	<path class="st0" d="M20.7,171.8c-1-0.2-1.1,1.5-0.1,1.4C21.5,173.4,21.6,171.8,20.7,171.8z"/>
	<path class="st0" d="M44.4,167.4c-1.4-0.1-1.8,0.5-1.6,2.4c0.3-0.4,0.5-0.8,0.8-1.2L44.4,167.4z"/>
	<path class="st0" d="M56,165.5c-1.7-1.1-1.6,1-0.6,1.8C56.6,168.9,57,166.2,56,165.5z"/>
</g>
<path class="st0" d="M201.1,192.7C201.1,192.7,201.1,192.7,201.1,192.7C201.1,192.7,201.1,192.7,201.1,192.7c0-0.1,0-0.1-0.1-0.1
	c0,0,0,0,0,0c0,0-0.1-0.1-0.1-0.1c0,0,0,0,0,0c0,0-0.1-0.1-0.1-0.1c0,0,0,0,0,0c0,0-0.1,0-0.1-0.1c0,0,0,0,0,0c0,0-0.1,0-0.1,0
	c0,0,0,0,0,0c0,0-0.1,0-0.1,0c0,0,0,0,0,0c0,0-0.1,0-0.1,0.1c0,0,0,0,0,0c0,0-0.1,0.1-0.1,0.1c0,0-0.1,0.1-0.1,0.2
	c0,0.1,0,0.1,0,0.2c0,0.1,0,0.1,0,0.2c0,0.1,0.1,0.1,0.1,0.2c0,0,0.1,0.1,0.1,0.1c0.1,0,0.1,0,0.2,0c0,0,0,0,0.1,0
	c0.1,0,0.1,0,0.2,0c0,0,0.1,0,0.1,0c0.1,0,0.2-0.1,0.2-0.1c0,0,0.1-0.1,0.1-0.1c0-0.1,0.1-0.2,0.1-0.3
	C201.1,192.8,201.1,192.8,201.1,192.7z"/>
<path class="st0" d="M203.8,193.6c0,0-0.1-0.1-0.1-0.1c-0.1-0.1-0.1-0.1-0.2-0.1c0,0,0,0,0,0c-0.1,0-0.1-0.1-0.2-0.1
	c0,0-0.1-0.1-0.1-0.1c0,0,0,0,0-0.1c0-0.1-0.1-0.1-0.1-0.1c0,0-0.1-0.1-0.2-0.1c-0.1,0-0.1,0-0.2,0c-0.1,0-0.1,0-0.2,0.1
	c-0.1,0.1-0.2,0.2-0.2,0.3c0,0,0,0.1,0,0.1c0,0.1,0,0.2,0.1,0.3c0,0.1,0.1,0.2,0.2,0.2c0,0,0.1,0.1,0.1,0.1c0.1,0.1,0.2,0.1,0.2,0.2
	c0.1,0.1,0.2,0.1,0.3,0.1c0.1,0,0.1,0,0.2,0c0.1,0,0.1,0,0.2-0.1c0.1,0,0.1-0.1,0.1-0.1c0,0,0.1-0.1,0.1-0.2c0,0,0-0.1,0-0.1
	C203.8,193.8,203.8,193.7,203.8,193.6z"/>
<path class="st0" d="M206.5,194.3c0-0.1-0.1-0.2-0.2-0.3c-0.3-0.1-0.5-0.3-0.8-0.4c-0.1,0-0.1-0.1-0.2-0.1c-0.1,0-0.1,0-0.2,0
	c-0.1,0-0.2,0.1-0.3,0.2c-0.1,0.1-0.1,0.3-0.1,0.4c0,0.1,0.1,0.2,0.2,0.3c0.3,0.1,0.5,0.3,0.8,0.4c0.1,0,0.1,0.1,0.2,0.1
	c0.1,0,0.1,0,0.2,0c0.1,0,0.2-0.1,0.3-0.2C206.5,194.6,206.5,194.4,206.5,194.3z"/>
<path class="st0" d="M224.8,199.5c0,0-0.1-0.1-0.1-0.1c-0.1-0.1-0.1-0.1-0.2-0.1c-0.1,0-0.2,0-0.3-0.1c-0.1,0-0.1,0-0.2,0
	c-0.1,0-0.1,0-0.2,0.1c-0.1,0-0.1,0.1-0.1,0.1c0,0-0.1,0.1-0.1,0.2c0,0,0,0.1,0,0.1c0,0.1,0,0.2,0.1,0.3c0,0,0.1,0.1,0.1,0.1
	c0.1,0.1,0.1,0.1,0.2,0.1c0.1,0,0.2,0,0.3,0.1c0.1,0,0.1,0,0.2,0c0.1,0,0.1,0,0.2-0.1c0.1,0,0.1-0.1,0.1-0.1c0,0,0.1-0.1,0.1-0.2
	c0,0,0-0.1,0-0.1C224.9,199.7,224.9,199.6,224.8,199.5z"/>
<path class="st0" d="M229.4,201.5c-0.5-0.6-1.3-1-2.1-1.1c-0.1,0-0.3,0-0.4,0.1c-0.1,0.1-0.2,0.2-0.2,0.3c0,0.1,0,0.3,0.1,0.4
	c0.1,0.1,0.2,0.2,0.3,0.2c0.2,0,0.3,0.1,0.5,0.1c0.1,0,0.2,0.1,0.2,0.1c0,0,0,0,0,0c0,0,0.1,0,0.1,0.1c0.2,0.1,0.3,0.2,0.4,0.3
	c0,0,0,0,0,0c0,0,0.1,0.1,0.1,0.1c0.1,0.1,0.1,0.1,0.2,0.2c0.2,0.2,0.5,0.2,0.7,0C229.5,202,229.5,201.7,229.4,201.5z"/>
</svg>
