<svg xmlns="http://www.w3.org/2000/svg" viewBox="0 0 300 250"><path d="M68.83 32.37c.76-.97 1.52-1.94 2.29-2.91-.12-.08-.24-.16-.37-.24-.77.96-1.54 1.93-2.31 2.89.13.08.26.17.39.26ZM73.11 26.29l-.81.68.42.33 1.2-1.69-.81.68ZM35.29 99.49l1.12-2c-.13-.05-.26-.11-.39-.16-.38.66-.77 1.32-1.15 1.98l.42.18ZM76.21 23.22zM74.1 25.41c.7-.73 1.41-1.46 2.11-2.19-.17-.11-.35-.21-.52-.32l-1.59 2.51ZM72.72 27.3l-.01.01.01-.01zM42.18 86.16c.72-1.23 1.44-2.44 2.17-3.65-.19-.09-.39-.17-.58-.25-.71 1.23-1.42 2.47-2.13 3.71.18.06.36.12.54.19ZM51.69 64.46c-.45.97-.9 1.93-1.35 2.9.13.04.27.08.4.13l1.44-2.87c-.16-.05-.32-.11-.49-.16ZM40.67 89.07l-.45-.15c-.91 1.86-1.83 3.72-2.74 5.59.22.08.45.15.67.23.84-1.88 1.68-3.77 2.52-5.67ZM48.45 71.35c-.3.69-.59 1.38-.88 2.07l.42.12c.31-.68.62-1.37.94-2.05-.16-.05-.32-.09-.48-.14ZM48 73.54h-.01.01zM133.26 57.56c.1.11.2.21.3.32.47-.46.94-.91 1.41-1.37-.08-.07-.16-.15-.23-.22-.49.42-.98.85-1.48 1.27ZM121.96 63.01c.04.11.07.22.11.34.99-.35 1.99-.7 2.98-1.05-.03-.14-.05-.28-.08-.42s-3.01 1.13-3.01 1.13ZM110.03 63.19c.79.15 1.58.31 2.37.46 0-.04.02-.09.02-.13-.76-.23-1.52-.45-2.28-.68-.04.12-.08.23-.11.35ZM83.07 17.24c-1.34.94-2.65 1.87-4.21 2.97 2.24-.68 4.27-2.15 4.21-2.97ZM99.42 56.53c.12-.11.25-.21.37-.32-.36-.4-.72-.8-1.08-1.19-.08.06-.15.12-.23.18l.94 1.33ZM158.64 3.97c.79-.57 1.42-1.19 2.16-1.52 2.13-.95 3.81-.08 5.3 1.03 2.19 1.65 4.23 3.44 5.67 5.78.45.74 1.18 1.31 1.77 1.97 1.92 2.15 3.68 4.46 5.82 6.4 1.49 1.36 3.43 2.33 5.31 3.24 1.58.76 3.55.91 5.02 1.79 1.96 1.17 4.3.44 6.36 1 1.04.29 2.4-.29 3.53-.14 2.02.27 3.85-.79 5.79-1 .68-.07 1.39-.03 2.03-.24 1.88-.62 3.74-1.33 5.6-2.04.64-.24 1.26-.53 1.88-.83.72-.35 1.42-.73 2.13-1.09.95-.44 1.96-1.79 2.59-1.71.94.13 1.6-.29 2.22-.77l.33-.26c.55-.44 1.11-.84 1.83-.83 2.47-2.31 5.87-3.69 7.55-6.81a.78.78 0 0 1 .29-.28c2.3-1.31 3.83-3.28 5.32-5.31.58-.79 1.16-1.57 1.75-2.35h-2.48c-1.38 1.76-2.8 3.52-4.31 5.18-.84.93-1.96 1.63-2.84 2.53-.54.56-.86 1.29-1.28 1.95-.1-.12-.2-.23-.31-.35-.42.27-.89.5-1.25.82-1.13 1.02-1.92 2.42-3.61 2.83-.81.2-1.59.64-2.47 1 .3.21.44.31.72.51-.84.2-1.62.4-2.4.59l-1.54.38-.78.19.38.66-1.33.77c-.03-.25-.06-.41-.09-.67-.59.22-1.15.43-1.71.65.02.07.05.14.07.21.25-.05.49-.09.74-.14.04.12.08.24.13.35-2.22.96-4.45 1.91-6.48 2.78-.55-.2-.93-.34-1.31-.48-.05.09-.1.17-.15.26l.53.92c-.97-.17-1.72-.3-2.46-.42-.09.06-.18.1-.24.16l-.75.66a.902.902 0 0 0-.09-.1c.15-.13.29-.25.71-.62-1.2.11-2.05.18-2.9.26v.26c.24.08.49.17 1.04.36-2.67.12-4.95.22-7.38.33.4-.27.63-.43 1.07-.74-.79-.08-1.47-.35-1.79-.13-1.78 1.24-2.72.35-3.61-.77-.68.68-1.25.71-1.82.09-.23-.25-.73-.62-.88-.53-.75.42-1.18.19-1.59-.13l-.17-.14a2.99 2.99 0 0 0-.55-.38c.29-.1.49-.18.81-.29-.71-.46-1.27-.83-2.03-1.34.03.45.04.72.06 1.13-1.15-.82-2.23-1.58-3.35-2.38.21-.68-1.37-2.73-2.58-2.99l.97 1.29c-.61-.23-1.03-.59-1.35-1.03-.46-.64-.87-1.32-1.23-2.02-.28-.56-.79-.94-1.32-1.31l-.32-.22c-.79-.56-1.54-1.15-1.56-2.3 0-.21-.5-.38-.79-.54-.36-.19-.75-.35-1.14-.53.29-.85.29-1.44-.82-1.43-.34 0-.75-.27-.94-.54-1.28-1.75-3.18-2.63-5.43-2.89-1.17-.14-2.62-.29-3.61.22-1.55.8-3.05 2-4.14 3.32-1.54 1.86-2.69 3.97-3.99 5.99-.39.6-.81 1.2-1.06 1.83-.43 1.1-.71 2.23-1.12 3.33-.4 1.08-.88 2.14-1.31 3.17 0 0-.18-.15-.45-.37-.15.53-.27.92-.37 1.27.3.1.52.18.78.27-1.27 2.31-1.28 4.95-3.23 6.84-.06.4-.03.77-.19 1.07-.31.58-.94 1.1-1.05 1.67-.42 2.08-1.24 3.96-2.92 5.55-.23.21-.35.59-.39.89-.04.31.21.67.1.94-.37.87-.86 1.7-1.27 2.56-.3.63-.52 1.29-.83 1.92-.47.94-1.01 1.86-1.49 2.8-.09.17-.09.37-.13.58-.14-.16-.26-.29-.29-.34-.68.82-1.29 1.59-1.94 2.33-1.05 1.21-1.38 2.74-2.93 3.81-.86.6-1.59 1.6-2.63 2.23-1.22.73-2.36 1.61-3.57 2.36-.67.41-1.57 1.08-2.12.95-1.13-.25-2.01-.02-2.95.6-.86.57-1.74 1.12-2.69 1.73-.53-.92-1.12-1.38-1.78-.65-2-.41-3.81-.79-5.61-1.16-.05.12-.11.24-.16.35-.23-.24-.47-.48-.54-.56-.41.11-.66.25-.75.19-.74-.46-1.5-.92-2.16-1.46-.85-.69-1.63-1.45-2.41-2.2-.53-.52-1-1.09-1.65-1.81.53.21.82.32 1.11.44.15-.1.31-.19.46-.29-3.15-1.76-3.15-5.07-3.86-8.02-.15.07-.29.13-.44.2.14.35.28.71.42 1.06-.49-.3-1.01-.64-1.11-1.1-.45-2.04-.21-4.28-1.42-6.09-.1-.15-.17-.42-.1-.58.7-1.48-.84-2.51-.29-4.12.34-.98-.65-2.22-1.1-3.53-.04.03-.07.06-.11.09-.03-.07-.06-.15-.1-.22l-.11-.55s-.03-.08-.05-.11c-.13-.54-.29-1.07-.49-1.59-.02-.49-.11-.96-.31-1.43.15-1.57-1.6-2.12-2.79-2.61-.34-.21-.71-.24-1.16-.15.24 0 .47-.01.74 0 .25.36.5.72.82 1-.02.05-.03.11 0 .18.47 1.21.62 2.48.79 3.76-.05.72-.03 1.44.27 2.09.14 1.15.26 2.46.49 3.74.38 2.02 1.02 3.99 1.26 6.03.21 1.83-.16 3.79 1.7 4.97.11.07.08.31.14.46.7 1.68 1.38 3.37 2.11 5.04.2.46.8.81.84 1.27.15 1.84 1.31 2.94 2.57 3.86.11.5.06 1.08.32 1.28.82.62 1.8 1.07 2.66 1.65.39.26.64.69.96 1.04l-.18.39c.59-.2 1.18-.42 1.77-.58.24-.07.67-.11.75 0 .46.71 1.18.78 1.93.8h.52c.34.01.68.04.98.13 1 .3 2.29 1.25 3.63.04.11-.1.53.11.82.17.41.08.86.31 1.23.2 1.28-.36 2.6-.71 3.8-1.29 2.27-1.1 4.45-2.4 6.7-3.55 1.51-.77 2.62-1.83 3.7-3.13 1.16-1.4 2.88-2.38 3.65-4.15.32-.74.88-1.34 1.45-1.94l.39-.4c.77-.8 1.5-1.64 1.69-2.83.14-.83.55-1.65.99-2.46l.34-.61c.17-.3.34-.61.49-.91 1.02-2.03 2.09-4.04 3.11-6.06.49-.97.92-1.96 1.38-2.93.95-2.47 2.19-4.84 3.13-7.29 1.07-2.75 1.85-5.58 2.8-8.36.47-1.35.95-2.71 1.62-3.99 1.26-2.41 2.65-4.76 3.9-6.98Z" style="fill:#fff"/><path d="m153.24 25.47.54-1.77c-.03-.02-.06-.03-.09-.04l-.66 1.74c.07.03.14.05.21.07ZM101.79 18.77l2.8 4.85c-.15-.33-.27-.68-.38-1.04l-.13-.43c-.4-1.28-.82-2.58-2.28-3.38ZM92.4 13.81c1.49.17 2.68.3 3.87.43.05-.23.11-.46.16-.69-1.34.58-2.23-1.05-4.03.26Z" style="fill:#fff"/><path d="M111.62 40.51c.84 1.71 1.59 3.46 2.38 5.2.48 1.06 1.85 1.51 3.56 1.17-.62-.54-1.28-1.05-1.85-1.63-.57-.59-1.21-1.17-1.51-1.9-.52-1.26-.43-2.89-1.23-3.9-2-2.53-1.35-5.86-2.46-8.65-.48-1.2-.22-2.72-.37-4.07-.06-.56-.34-1.08-.49-1.62-.12-.43-.23-.87-.34-1.31l-.22-.88c-.37-1.46-.77-2.9-1.55-4.2-.62-1.03-1.43-1.95-2.17-2.91-.49-.64-1.16-1.19-1.48-1.91-.63-1.42-1.87-2.08-3.29-2.61-.33-.13-.57-.43-.88-.6-.67-.38-1.32-.79-2.05-1.06-.46-.17-1.09-.02-1.55-.19-1.44-.53-2.87-.46-4.41.18-.41.17-1.02-.29-1.48-.17-1.12.3-2.28.65-3.31 1.19-2 1.04-3.9 2.3-5.89 3.35-2.49 1.31-4.41 3.24-6.48 5.05-1.61 1.4-2.87 3.08-4.38 4.42-1.42 1.26-1.85 2.85-3.09 4.11-1.2 1.21-1.93 2.83-2.82 4.28-1.23 2.02-2.4 4.06-3.64 6.08-1.16 1.89-2.58 3.7-3.48 5.67-.39.85-.73 1.74-1.16 2.62-1.25 2.57-2.29 5.2-3.49 7.79-.55 1.2-1.31 2.33-1.9 3.52-.25.5-.24 1.09-.5 1.58-1.22 2.35-2.49 4.68-3.75 7.02-.04.08-.13.15-.14.22-.33 2-1.87 3.61-2.61 5.46-.73 1.86-1.26 3.77-2.05 5.6-.75 1.74-1.74 3.41-2.6 5.12-.62 1.23-1.08 2.52-1.82 3.69-2.39 3.77-3.71 7.92-6.14 11.7a60.16 60.16 0 0 1-6.06 7.94c-1.61 1.79-2.99 3.75-4.54 5.58-.75.89-1.7 1.63-2.51 2.47-1.55 1.62-2.96 3.37-4.62 4.89-2.73 2.52-5.55 4.96-8.44 7.29-1.26 1.01-2.79 1.71-4.23 2.51-.19.11-.39.21-.58.32v1.9c4.52-2.66 8.61-5.88 12.51-9.29 2.29-2.01 4.21-4.41 6.28-6.66 2.99-3.25 6.02-6.47 8.91-9.79.65-.74 1.22-1.55 1.77-2.36l.83-1.22c.28-.41.56-.81.85-1.2 1.37-1.82 2.37-3.81 3.58-5.69 1.76-2.72 2.64-5.69 4.15-8.47.83-1.54 1.79-3.04 2.51-4.61 1.31-2.84 2.42-5.74 3.71-8.58 1.23-2.7 2.6-5.36 3.86-8.05.3-.64.6-1.29.9-1.94l1.77-3.88a223.9 223.9 0 0 1 1.81-3.87c1.45-2.99 3.04-5.94 4.54-8.92.75-1.5 1.37-3.04 2.15-4.53.76-1.43 1.68-2.8 2.47-4.22.64-1.16 1.03-2.45 1.8-3.53 2.53-3.53 5.16-6.99 7.79-10.46.89-1.17 1.76-2.43 2.89-3.36 2.01-1.64 4.18-3.14 6.37-4.56 2.11-1.37 4.3-2.66 6.53-3.83 1.39-.73 2.9-1.01 4.46-.77s3.24.07 4.76.4c1.21.26 2.37.86 3.33 1.55 2.03 1.45 3.59 3.33 4.8 5.45 1.91 3.36 2.88 7.06 3.42 10.93.53 3.85 1.15 7.68 2.87 11.15Z" style="fill:#fff"/><path d="M106.71 36.03c.13-.04.26-.07.39-.11-.12-.63-.25-1.26-.37-1.89-.14.04-.28.08-.43.11.13.63.27 1.26.4 1.89ZM51.9 90.06c.1-.14.2-.29.29-.44.58-.99 1.04-2.03 1.54-3.06 1.29-2.63 2.64-5.25 3.85-7.91.53-1.17.66-2.46 1.12-3.65.59-1.53 1.33-3.01 2.03-4.51.27-.58.62-1.13.89-1.7.92-1.96 1.8-3.93 2.74-5.89 1.03-2.16 2.11-4.31 3.15-6.46.62-1.29 1.18-2.61 1.82-3.89 1.19-2.37 2.41-4.72 3.63-7.08.19-.37.39-.75.58-1.12l1.15-2.24c.77-1.49 1.56-2.98 2.42-4.44.89-1.5 2.14-2.84 3.25-4.24 1.08-1.37 2.18-2.73 3.3-4.07.46-.54 1.01-1.01 1.61-1.6-.05-.11-.08-.24-.1-.39-.18.16-.36.32-.53.5-.01.01-.02.03-.02.04-1.18.9-2.56 1.9-3.18 2.88-.26.41-.6.76-.95 1.12l-.35.35c-.64.65-1.24 1.32-1.35 2.27-.04.32-.76.61-1.06.98-1.44 1.78-3.14 3.48-4.15 5.42-.55 1.06-.83 2.31-1.56 3.38-.19.27-.54.45-.78.71-.17.18-.43.44-.41.63.16 1.63-.73 2.91-1.69 4.21l-.3.41-.15.21c-.55.76-.73 1.72-1.09 2.63-.02 0-.1 0-.14-.01-.52 1.29-.9 2.47-1.46 3.58-.61 1.2-1.57 2.16-1.67 3.65-.08 1.15-1.23 2.33-1.81 3.53-.33.67-.44 1.41-.7 2.1-.18.48-.45.95-.68 1.42-.11-.01-.22-.03-.33-.04-.05-.21-.09-.42-.16-.71-.2.18-.37.26-.37.35-.13 1.18-1.04 2.14-1.15 3.44-.11 1.33-1.3 2.69-2.03 4.04-.05.09-.18.15-.28.21-.22.14-.45.28-.67.41.17.19.34.39.64.73l-.76 1.38c-.36.64-.73 1.32-1.12 2.02.08 0 .28.03.56.05-.09.21-.18.62-.29.64-1.01.15-1.15.89-1.4 1.57-.8 2.16-1.55 4.32-2.44 6.45-.37.88-1.1 1.66-1.56 2.53-.34.64-.42 1.37-.77 2.01-.19.36-.68.61-.8.92-.85 1.96-1.69 3.92-2.57 5.95-.04 0-.07.02-.11.03l-.22.05c-.72.18-1.38.42-1.2 1.53.04.24-.2.56-.48.88l-.21.24c-.1.12-.21.24-.29.36.11.03.29.09.69.21-.86.97-1.69 1.84-2.44 2.75-.36.44-.67.96-.87 1.47-.38.95-.63 1.96-1.87 1.94 0 .45.13.87-.02 1.19-.32.65-.75 1.27-1.22 1.85-.12.15-.51.12-.93.2-.23.55-.51 1.23-.8 1.92-.13-.1-.25-.2-.38-.3-.47.37-1.27.72-1.35 1.13-.52 2.52-3.07 3.71-4.37 5.69-.61.94-1.31 1.7-2.27 2.29-.4.24-.82.43-1.25.66.38.71-.06 1.1-.55 1.48l-.18.14c-.15.12-.3.24-.42.37-.54.59-1.19 1.09-1.75 1.67-.97 1-1.91 2.03-2.93 3.13l-.39-.67c-.72.7-1.4 1.35-2.06 2.01-.58.59-1.12 1.21-1.68 1.81l.3.3c-.28.15-.59.28-.9.41l-.47.19c-.69.29-1.35.61-1.72 1.1-.75 1-1.61 1.66-2.64 2.22-.39.21-.9.21-1.4.15-.98.9-1.65 2.22-3.13 2.77-.34.13-.62.44-.96.54-1.77.5-1.77.48-2.7 1.32-.8.42-1.6.84-2.47 1.31v2.09c1.1-.48 2.2-.95 3.27-1.48.85-.42 1.62-1.03 2.46-1.47 1.08-.57 1.96-1.44 3.28-1.7.8-.15 1.53-.97 2.26-1.53 1.88-1.44 3.77-2.86 5.59-4.36 1.53-1.26 2.84-2.79 4.48-3.87.88-.58 1.23-1.27 1.82-1.95.9-1.04 2.16-1.81 3.14-2.8 1.22-1.23 2.28-2.58 3.46-3.85.61-.66 1.38-1.2 1.96-1.88.5-.58.76-1.32 1.26-1.89.39-.43.99-.7 1.29-1.15 1.32-1.39 2.63-2.77 3.95-4.15.16-.16.43-.28.49-.46.61-1.72 1.99-2.95 3.13-4.35.97-1.19 1.54-2.65 2.4-3.93 2.17-3.25 4.05-6.6 5.33-10.19.18-.51.66-.96.98-1.44.2-.29.56-.66.5-.88-.22-.84.2-1.46.64-2.08l.21-.29ZM3.64 131.56l3.85-2.22c-.05-.08-.1-.17-.15-.25l-3.85 2.22c.05.08.1.17.15.25ZM144.65 8.38c-.14-.04-.28-.09-.43-.13-.81.83-1.22 1.76-1.01 2.85.48-.91.96-1.81 1.43-2.72h.01ZM143.07 11.37c-1.1 1.41-1.82 3.54-1.55 4.18.21-.45.5-1.1.81-1.74.33-.67.7-1.32.99-1.99.07-.17-.06-.41-.11-.62l-.14.17ZM132.94 35.95c.33-.74.67-1.49 1.01-2.23-.13-.04-.26-.09-.39-.14-.35.75-.7 1.49-1.06 2.23.15.04.29.09.44.14ZM140.34 18.03l-1.58 4.55.42.09c.76-1.46 1.93-2.83 1.58-4.56h-.01c-.14-.02-.27-.05-.41-.08ZM144.03 0c-1.49 2.19-2.48 4.6-3.75 6.89-1.01 1.81-1.64 3.79-2.35 5.71-.41 1.1-.6 2.26-.98 3.36-.68 1.96-1.42 3.91-2.16 5.86-.23.6-.55 1.18-.83 1.77-.87 1.84-1.75 3.68-2.61 5.53-.32.69-.51 1.44-.9 2.1-.35.6-1.03 1.08-1.31 1.69-.77 1.63-1.34 3.31-2.12 4.94-.35.72-.93 1.4-1.55 1.97-1.07 1.01-1.25 2.07-.12 2.99 1.4-2.04 2.96-3.97 4.09-6.07 1.49-2.79 2.59-5.72 3.95-8.56 1.27-2.67 2.71-5.28 3.97-7.95.36-.76.27-1.65.53-2.45.34-1.07.83-2.12 1.24-3.18 1.03-2.65 1.95-5.33 3.09-7.94.74-1.7 1.72-3.34 2.75-4.92.38-.58.76-1.16 1.15-1.74h-2.09ZM145.01 6.87c.12.05.23.09.35.14.24-.44.48-.87.72-1.3-.15-.03-.29-.07-.43-.1-.21.41-.43.84-.64 1.26ZM130.18 53.54c.71-.71 1.42-1.41 2.13-2.11-.12-.1-.23-.2-.35-.31l-2.01 2.22c.07.07.15.14.23.2Z" style="fill:#fff"/><path d="M0 119.09c.18-.14.37-.27.55-.41 1.28-.95 2.56-1.93 3.72-3.01 2.27-2.12 4.54-4.27 6.66-6.52 2.1-2.23 4.05-4.58 6-6.92 1.83-2.2 3.62-4.42 5.35-6.69 2.26-2.97 3.89-6.21 5.43-9.51 1.72-3.66 3.76-7.23 5.55-10.88.64-1.31.88-2.76 1.45-4.1 1.12-2.61 2.37-5.18 3.55-7.78.61-1.34 1.17-2.7 1.81-4.03.74-1.54 1.55-3.06 2.3-4.59.66-1.33 1.26-2.68 1.94-4.01 1.57-3.05 3.18-6.09 4.74-9.15.96-1.88 1.77-3.82 2.81-5.67 1.87-3.3 3.65-6.67 5.84-9.79 2.33-3.33 5.23-6.33 7.66-9.61 2.6-3.51 6.14-5.87 9.8-8.19 1.2-.76 2.2-1.87 3.45-2.49 1.18-.58 2.39-1.11 3.6-1.63l2.43-1.03c.81-.35 1.61-.7 2.41-1.07C90.41.46 93.67.89 96.9 1.35c2.6.37 5.15.96 7.68 1.56.63.15 1.21.61 1.65 1.07 1.38 1.42 3.65 1.86 4.65 3.68.45.82 1 1.6 1.58 2.34.46.59 1.18 1.01 1.54 1.65 1.23 2.17 2.59 4.3 3.46 6.64.89 2.4 1.3 5.01 1.84 7.55.39 1.84.66 3.71 1.23 5.59.75-1.73 1.43-3.48 2.26-5.18 1.5-3.12 3.25-6.17 4.59-9.33 1.18-2.76 1.87-5.66 2.94-8.46.72-1.89 1.71-3.72 2.62-5.56.48-.97.96-1.94 1.45-2.91H0v119.1Z" style="fill:#fff"/><path d="M246.67.74c-1.69 2.18-3.45 4.33-5.28 6.41-1.82 2.06-3.69 4.09-5.68 6-1.41 1.35-3.04 2.5-4.59 3.72-1.14.9-2.31 1.77-3.49 2.63-.63.46-1.25.95-1.93 1.33-2.15 1.18-4.26 2.5-6.51 3.43-3.1 1.29-6.02 3.12-9.37 3.76-3.47.67-6.94 1.49-10.42 2.05-1.32.21-2.69-.15-4.04-.23l-1.06-.06-2.12-.1c-1.06-.05-2.12-.12-3.16-.24-1.17-.13-2.28-.58-3.4-.92-2.23-.68-4.27-1.63-6.06-3.03-.7-.55-1.72-.73-2.52-1.19-.67-.39-1.28-.9-1.84-1.43-2.56-2.49-5.14-4.97-7.62-7.54-.97-1-1.64-2.26-2.54-3.33-.64-.76-1.42-1.41-2.25-2.22-1.25 2.44-2.53 4.64-3.5 6.93-.95 2.27-1.65 4.63-2.33 6.98-1.01 3.45-2.62 6.7-4.2 9.99-.91 1.9-1.85 3.79-2.74 5.67-.86 1.81-1.97 3.58-2.6 5.41-.77 2.25-2.26 3.88-3.69 5.71-1.21 1.56-2.21 3.27-3.64 4.71-.85.86-1.81 1.64-2.57 2.56-2.78 3.36-6.78 4.77-10.54 6.55-1.65.78-3.34 1.63-5.08 1.99-2.28.47-4.64.72-6.91.65-2.39-.08-4.78-.49-7.05-1.08-1.24-.32-2.39-.89-3.52-1.48l-.85-.45-.42-.22c-1.19-.61-2.57-1.14-3.36-2.1-2.03-2.44-4.31-4.74-5.36-7.86-.49-1.46-1.37-2.77-2.01-4.18-.59-1.3-1.18-2.61-1.63-3.97-.53-1.59-.95-3.23-1.31-4.87-.44-2.01-.77-4.04-1.14-6.07-.14-.06-.28-.12-.41-.18-.78.92-1.62 1.81-2.33 2.78-1.34 1.85-2.6 3.74-3.87 5.63-.24.35-.35.78-.5 1.17-.03.08-.06.16-.08.24l-.15.49c-.08.25-.17.49-.3.7-1.19 1.87-2.44 3.71-3.65 5.57-.14.21-.17.48-.28.71-.51 1.1-1.04 2.19-1.53 3.29-.57 1.28-1.1 2.56-1.64 3.84-.73 1.72-1.4 3.46-2.2 5.16-1.57 3.35-3.02 6.76-4.86 10-2.06 3.63-3.02 7.52-4.66 11.24-.94 2.11-2.35 4.07-3.39 6.15-2.09 4.19-4.04 8.44-6.12 12.64-.49.98-1.28 1.84-1.86 2.79-.99 1.63-1.77 3.39-2.91 4.92-1.88 2.5-3.98 4.85-5.99 7.27-1.38 1.66-2.62 3.45-4.18 4.94-2.2 2.09-4 4.45-6.04 6.64-.67.72-1.58 1.23-2.31 1.91-2.85 2.65-5.59 5.4-8.53 7.95-1.61 1.4-3.5 2.54-5.34 3.68-3.3 2.04-6.63 4.02-9.98 5.96-1.1.64-2.34 1.05-3.51 1.57-.34.15-.73.27-.97.52-.07.07-.14.13-.22.2l.97 1.21-.19.14c-.28-.29-.55-.15-.87-.03-.15.05-.29.1-.44.15V250h300V0h-52.78c-.18.25-.36.5-.55.74ZM178.73.21l1.95 2.52.31-.22c-.63-.83-1.26-1.68-1.88-2.51h-.05c-.11.07-.22.15-.33.21Z" style="fill:#fff"/><path d="M226.18 2.73c-.43.45-.67 1.1-1.16 1.45-1.82 1.34-3.67 2.66-5.58 3.87-1.19.75-2.72 1.07-3.73 1.97-1.65 1.46-3.62 2.22-5.53 3-2.12.86-4.22 1.93-6.6 2.06-1.82.1-3.66.69-5.5.97-.52.08-1.05-.18-1.58-.3-.25-.05-.5-.23-.74-.19-2.78.5-5.1-.6-7.33-1.49-1.88-.75-3.29-2.35-4.88-3.61-.76-.61-1.49-1.25-2.14-1.96-1.27-1.39-2.5-2.82-3.69-4.28-.29-.36-.35-.89-.76-1.15-.73-.74-1.54-1.42-2.16-2.24-.22-.29-.45-.56-.69-.83h-5.1c1 .55 1.99 1.13 2.93 1.76 2.1 1.42 3.64 3.32 5.14 5.25l.69.89c.92 1.19 1.86 2.37 2.93 3.43 3.3 3.27 6.78 6.35 11.85 7.2 3.24.54 6.57.96 10.05-.09 2.85-.86 5.75-1.54 8.62-2.36.54-.15 1.02-.57 1.54-.86.63-.36 1.26-.71 1.89-1.08 3.16-1.87 6.71-3 9.56-5.5 1.44-1.26 2.74-2.58 4-3.97.77-.85 1.91-1.43 2.62-2.31.64-.78 1.26-1.57 1.89-2.36h-3.81c-.91.91-1.83 1.81-2.73 2.73ZM125.06 46.43l-4.69 2.71c1.79-.51 3.54-1.09 4.69-2.71Z" style="fill:#fff"/><path d="M198.27 12.73c.03.15.06.3.09.46l4.46-.84c-.01-.14-.03-.28-.04-.42-1.5.26-3.01.53-4.51.8ZM69.94 48.11l-.24-.27c-.41.33-.82.66-1.23 1l.28.31c.4-.35.79-.7 1.18-1.04Z" style="fill:#fff"/><path d="M91.59 20.08c2.62-.86 4.58.14 5.83 1.95 1.31 1.9 2.56 3.94 3.22 6.14.83 2.75.95 5.76 1.54 8.61.45 2.17 1.01 4.33 1.78 6.39.78 2.11 1.88 4.09 2.84 6.12.16.33.42.62.5.98.7 3.07 3.12 4.44 6.01 5.34 3.5 1.09 7.17.34 10.5-1.2 2.11-.97 4.24-2.3 6.09-4.06 2.1-1.99 3.67-4.28 5.48-6.41 1.38-1.62 1.96-3.8 2.86-5.75 1.76-3.79 3.48-7.6 5.25-11.39.37-.78 1.02-1.49 1.31-2.29.99-2.71 1.86-5.45 2.81-8.17 1.45-4.14 3.38-8.15 5.71-11.98 1.04-1.7 2.66-3.08 4.5-4.36h-4.54c-.61.68-1.19 1.42-1.75 2.19-1.31 1.81-2.73 3.53-3.25 5.7-.15.64-.95 1.19-1.19 1.84-.4 1.05-.77 2.09-1.14 3.15l-1.1 3.15-.56 1.58c-.94 2.64-1.86 5.29-2.9 7.91-.5 1.26-1.31 2.44-1.93 3.67-.5 1.01-.89 2.06-1.39 3.07-.35.71-.08 1.76-1.37 2.02-.15.03-.23.54-.36.82-1.06 2.34-1.82 4.84-3.28 6.96-.97 1.42-2.08 2.91-3.3 4.17-1.59 1.65-3.5 3.14-5.51 4.31-1.83 1.07-3.93 1.91-5.96 2.3-1.64.31-3.34-.34-5.03-.32-2.12.04-3.13-1.2-3.98-2.48l-.21-.32-.42-.63c-1.23-1.79-1.69-4.08-2.84-5.94-2.25-3.65-2.24-7.98-3.25-12.01-.72-2.87-1.4-5.75-2.18-8.6-.14-.51-.64-.91-1-1.34-.7-.84-1.49-1.62-2.1-2.51-.79-1.14-3.33-1.97-4.86-1.94-2.15.05-3.85 1.07-5.54 2.13l-.56.35c-.47.29-.94.58-1.42.85-1.23.68-2.49 1.41-3.51 2.34-1.8 1.62-3.47 3.38-5.1 5.15-1.36 1.46-2.62 3-3.85 4.55-.52.66-.88 1.42-1.28 2.15-1.45 2.66-2.86 5.34-4.33 7.99-1.7 3.07-3.56 6.08-5.14 9.19-.97 1.91-1.52 3.97-2.31 5.95-.23.59-.62 1.14-.98 1.69-.31.48-.76.91-1 1.4-.99 2.02-1.93 4.05-2.86 6.09-.75 1.62-1.29 3.33-2.22 4.87-1.95 3.22-2.65 6.77-4.24 10.07-.74 1.52-1.91 2.89-2.74 4.39-.66 1.18-1.07 2.46-1.64 3.67-1.11 2.36-2.72 4.53-3.31 7.08-.25 1.06-1.11 2.07-1.76 3.07-1.3 2.01-2.49 4.09-4 5.97-2.86 3.56-5.84 7.04-8.9 10.46-2.44 2.72-4.98 5.38-7.64 7.92-2.59 2.46-5.39 4.73-8.1 7.08-.07.06-.15.11-.23.16-3.25 1.97-6.47 4.01-9.76 5.89v3.33c1.83-1.05 3.65-2.14 5.48-3.2.4-.23.77-.55 1.2-.71 2.15-.82 3.78-2.31 5.49-3.74 1.78-1.49 3.77-2.77 5.46-4.33 2.32-2.17 4.45-4.52 6.66-6.79.79-.81 1.66-1.54 2.41-2.37 1.55-1.71 3.04-3.46 4.56-5.2 1.51-1.72 3.1-3.38 4.51-5.16 1.12-1.43 2.03-3.01 3.01-4.53.2-.31.4-.62.61-.93l1.22-1.85c1.02-1.54 2.02-3.1 2.92-4.69 1.05-1.86 1.7-3.89 2.61-5.82.48-1.01 1.15-1.97 1.67-2.97.9-1.71 1.86-3.41 2.61-5.17 1.62-3.8 3.05-7.65 4.73-11.43 1.02-2.29 2.43-4.46 3.56-6.72 1.07-2.13 1.97-4.32 3-6.47 1.48-3.08 2.96-6.16 4.54-9.2 1.96-3.78 3.88-7.59 6.09-11.27 1.45-2.42 3.33-4.67 5.11-6.93 1.13-1.44 2.36-2.81 3.67-4.12.98-.98 2.09-1.86 3.22-2.69 1.22-.89 2.49-1.71 3.79-2.47 1.11-.64 2.26-1.3 3.46-1.7Z" style="fill:#fff"/><path d="M12.1 125.49c.89-.77 1.78-1.55 2.68-2.32l-.27-.27c-.89.78-1.77 1.56-2.66 2.34l.25.25ZM20.64 117.2l-.41-.29c-1.01 1.21-2.01 2.43-3.02 3.64.12.09.23.18.35.27l3.08-3.62ZM113.17 17.43c-.76-1.6-1.83-2.97-2.92-4.3l-.82-1c-.96-1.17-1.88-2.35-2.59-3.69a.196.196 0 0 0-.09-.09c-.68-.32-1.32-.7-1.96-1.1l-.54-.34c-1.81-1.15-3.61-2.29-6.11-2.28-.5 0-.98-.28-1.46-.44-1.09-.36-2.17-.21-3.28-.01l-.61.11c-.3.06-.61.11-.92.16-2.28.32-4.52.47-6.66 1.55-.68.34-1.29.82-1.95 1.18-2.16 1.18-4.36 2.31-6.5 3.53-.56.32-.95.92-1.46 1.35-1.34 1.15-2.71 2.28-4.06 3.42-.98.82-2.08 1.54-2.9 2.48-1.51 1.74-2.85 3.6-4.28 5.41-1.03 1.29-2.16 2.53-3.11 3.86-.98 1.38-2.18 2.79-2.58 4.28-.65 2.42-2.6 4.17-3.53 6.44-1.14 2.79-2.88 5.41-4.23 8.15-1.2 2.44-2.12 4.98-3.32 7.42-1.2 2.42-2.63 4.75-3.89 7.15-.82 1.56-1.49 3.18-2.26 4.77-.53 1.08-1.17 2.13-1.64 3.23-.49 1.16-.8 2.37-1.24 3.54-1.22 3.33-2.8 6.52-4.66 9.64-1.09 1.84-1.96 3.79-2.85 5.71l-.7 1.5c-1.41 3-2.87 5.99-4.77 8.79-.8 1.17-1.73 2.28-2.65 3.38-1.98 2.38-3.95 4.77-5.99 7.1-.76.87-1.72 1.61-2.58 2.41-.53.5-1.17.95-1.53 1.53-.92 1.46-2.17 2.64-3.44 3.8l-.77.69c-.38.35-.76.7-1.13 1.06-2.2 2.13-4.57 4.02-7.19 5.61v1.22c.96-.58 1.89-1.21 2.74-1.9 2.3-1.87 4.39-3.97 6.61-5.94.71-.63 1.59-1.1 2.25-1.77 1.51-1.53 2.95-3.13 4.38-4.73.77-.86 1.43-1.79 2.18-2.66 1.01-1.17 2.11-2.28 3.06-3.49 1.7-2.16 4.02-3.94 5.03-6.54.16-.42.63-.76.95-1.13.35-.41.76-.8 1.04-1.24.67-1.07 1.38-2.14 1.91-3.27 1-2.13 1.87-4.31 2.81-6.46.03-.08.07-.16.1-.24l.19-.49c.16-.41.34-.82.61-1.17 2.62-3.38 3.65-7.27 5.23-10.98 1.36-3.2 2.98-6.32 4.48-9.48.99-2.08 1.88-4.21 2.98-6.25 2.18-4.04 3.28-8.45 5.99-12.32.78-1.12 1.11-2.48 1.75-3.69.84-1.57 1.83-3.09 2.7-4.65.33-.6.65-1.21.96-1.82l.62-1.22c.62-1.22 1.27-2.42 2.07-3.54 2.32-3.23 4.98-6.27 7.49-9.4.84-1.05 1.6-2.18 2.53-3.16 1.83-1.91 4.01-3.43 6.3-4.8.39-.23.73-.54 1.11-.79 1.58-1.06 3.08-2.28 4.76-3.12 2.19-1.09 4.5-1.92 6.79-2.73.78-.28 1.71-.27 2.52-.18 2.17.23 4.31.55 6.45.89 1.3.2 2.58.47 3.84.78.35.08.64.36.91.6.36.32.6.89 1.03 1.01 2.97.82 3.02 4.21 5.54 5.5.88.45 1.05 1.94 1.57 2.96 1.5 2.93 2.4 6.1 3.09 9.34.53 2.49.84 5.05 1.33 7.55.17.87.61 1.66.99 2.67.15-.27.42-.53.39-.72-.63-3.94-.98-7.99-2.07-11.78-.65-2.27-.98-4.66-2.04-6.86ZM119.79 46.56l3.48-2.01c.02-.16.05-.32.08-.48-.56-.02-1.2-.23-1.67-.03-1.07.45-2.12 1.08-1.89 2.52ZM216.11 6.8l3.85-2.22s-.05-.1-.08-.15l-3.85 2.22s.06.1.08.15ZM205.82 11.22l.09.48c1.34-.48 2.69-.97 4.03-1.45l-.1-.34c-1.34.44-2.68.87-4.02 1.31ZM220.7 0h-1.83c-.92.84-1.9 1.59-3.07 2.18-1.95.97-3.88 2-5.8 3.06-2.5 1.37-5.07 2.45-7.87 2.8-2.03.26-4.05.78-6.06.4-2.84-.54-5.3-1.58-7.09-3.72-1.25-1.5-2.82-2.74-4.01-4.27l-.36-.45h-2.1c.7.83 1.4 1.67 2.12 2.48.11.12.21.24.32.36l.64.72c1.7 1.92 3.43 3.81 5.82 5.12 2.23 1.21 4.78 1.56 7.32 1.47 2.44-.09 4.94-.87 7.4-1.43.73-.17 1.44-.58 2.13-.93 2.34-1.21 4.68-2.44 7.01-3.68.98-.52 2.01-1.01 2.87-1.69.92-.73 1.72-1.59 2.55-2.42Z" style="fill:#fff"/><path d="M192.64 1.96c2.06 2.36 4.94 2.99 8.03 2.33 2.46-.52 5.07-.71 7.37-2.53.88-.7 1.89-1.24 2.93-1.76h-1.23c-2.04 1.14-4.12 2.17-6.38 2.82-1.12.32-2.29.46-3.43.57-1.02.1-2.09.2-3.04 0-2.31-.48-3.95-1.83-5.28-3.39h-1.04c.73.62 1.45 1.25 2.07 1.96ZM133.94 8.62c-.09.33-.19.66-.32.98-.43 1.09-1.06 2.14-1.45 3.24-1.01 2.82-1.81 5.69-2.92 8.49-.74 1.87-1.63 3.7-2.53 5.53l-.9 1.83c-.58 1.18-1.35 2.3-1.94 3.48s-1.1 2.39-1.58 3.61c-.16.42-.1.89-.14 1.33h.47c.63-1.2 1.29-2.38 1.87-3.6.74-1.56 1.34-3.17 2.12-4.72 1.47-2.9 3.12-5.74 4.51-8.67.68-1.44.93-3.03 1.37-4.54.06-.2.12-.39.2-.58.65-1.7 1.25-3.41 1.96-5.1.69-1.64 1.45-3.26 2.24-4.87.52-1.05 1.52-2.07 1.66-3.1.11-.87.39-1.35.97-1.93h-1.52c-1.08 2.01-1.81 4.16-3.13 6.08-.38.56-.59 1.21-.77 1.87l-.18.67Z" style="fill:#fff"/></svg>