<svg xmlns="http://www.w3.org/2000/svg" viewBox="0 0 300.02 244.49"><path d="M204.58 187.23c-.15-.37-.36-.11-.63.11.25.42.41.15.63-.11ZM176.73 222.25c.68-.33 1.05-.73 1.11-1.22-.44.48-.77.85-1.11 1.22ZM202.11 199.08c1.06.33 2.13.62 3.23.65.24-.24.49-.47.73-.71-1.55-.15-2.92-1.69-3.96.06ZM207.22 204.7c-.7 0-1.16-.64-1.8-.73-2.21 1.37.96 2.32 1.8.73ZM232.22 172.88c-.41.1-.67.33-.62 1.13.39-.51 1.12-.74.62-1.13ZM234.31 171.16c1.36-1.15-.26-1.56 0 0ZM236.64 169.24c-.22-.54-1.38.63-.77.83.26-.28.51-.57.77-.83ZM206.81 199.18s-.06 0-.09-.02c.03.04.04.04.1.02h-.01ZM251.52 155.27c-.18.11-.21.77-.32 1 .68-.38.56-.7.4-.99s-.1-.05-.08 0ZM225.34 183.5c8.43-6.97 17.48-14.41 26.99-21.87.82 1.71 2.55.18 1.1-.63-.1-.02-.22 0-.35.04 14.72-11.53 30.54-23.08 46.93-33.04v-1.53c-27.36 14.92-52.92 33.44-74.67 57.03ZM165.94 244.45h3.35c1.38-2.21 2.72-4.34 4.46-6.71 6.89-10.26 13.08-17.78 20.68-26.03.15.03.29.02.42 0-.77.25-.04-2.46.48-1.88.27-.11-.44 1.81-.39 1.84.59-.16 2.12-1.97 1.16-2.21 2.06-.96 1.7-.75 2.18-2.21-12.98 3.96-22.38 24.12-30.89 35.48-.48.54-.96 1.12-1.44 1.72h-.01ZM272.58 149.24h-.01.01ZM137.97 170.05h-.01v.01l.01-.01zM125.03 168.43c.88-.63.62-1.49.66-2.5-1.26-.61-1.96 2.66-.66 2.5ZM110.46 166.26c-.47-1.5-2.14-.04-.59.86.3-.4.6-.67.59-.86ZM105.89 166.34c-.77-2.29-2.39 3.04.07 2.79.61 0 1.09-.05 1.46-.15.18.74 1.21.83 1.19.02-.09-.29-.27-.36-.48-.35 1.41-1.14-1.56-3.79-2.24-2.3ZM142.23 167.99l-.01.01h.01v-.01zM142.22 168c-1.9-2.56-1.48 3.03 0 0ZM137.96 170.05c.27-3.09-4.03.96 0 0ZM151 172.36c-.64-.61-1.08.28-.64.91.54-.19.85-.41.64-.91ZM173.92 226.69c.66-.41.99-.86.97-1.65-.74.33-1 .82-.97 1.65ZM252.2 165.1c-.19-.53-.69.14-1.08.25.62.4.89.14 1.08-.25ZM241.78 174.3c1.79-1.09 4.35-2.9 4.96-4.84-1.52 1.78-3.41 3.09-4.96 4.84Z" style="fill:#fff"/><path d="M260.35 165.66c1.8 1.13-.73-2.37 4.84-5.93.45 1.4 2.58.21 1.55 1.81 2.31 1.24 1.93-2.18 0-2.06 9.96-8.1 21.42-15.57 33.27-22.31v-1.15c-14.89 8.81-29.31 17.89-43.15 25.68 1.3-1.73 3.26-2.6 4.65-4.3-1.96.34-3.8 4.67-4.77 1.5-1.5 1.37-1.83 4.81 1.38 4.49-7.25 5.35-16.17 15.43-24.45 22.75 9.31-1.14 16.63-19.09 26.68-20.48Z" style="fill:#fff"/><path d="M253.62 163.63c.51.59 1.08.63 1.72.11-.73-1.14-1.09-1.15-1.72-.11ZM235.37 180.63c2.07-1.96 4.77-3.79 6.28-6.18-1.85 1.77-5.56 4.09-6.28 6.18ZM267.76 151.3c-.36-.98-.62.47 0 0ZM229.84 207.99c21.96 6.22 41.85 18.62 61.61 30.02 2.33 1.64 5.3 3.39 8.57 5.22v-1.47c-24.75-15.49-52.35-31.54-70.17-33.76h-.01ZM259.93 149.73c-.26-.56-1.02.38-1.49.51.24.69 1.01-.35 1.49-.51ZM267.77 151.3h-.01l.01.01v-.01zM264.12 155.63c.77-.17 2.72-1.74 3.5-2.78-1.6.41-2.66 1.42-3.5 2.78ZM268.73 152.15c-.14-.27-.55.05-.8.06.2.54.46.17.8-.06ZM228.62 199.63c1.21 1.07 3.81-1.57 1.48-1.62-.49.54-.98 1.09-1.48 1.62ZM294.9 126.56c.47-.24.74-.39 1.01-.53-.39-.05-.73.12-1.01.53ZM268.85 142.8c-.86-.21-.89 1.39 0 0ZM282.5 134.02c.74-.07 1.25.02 1.31-.95-.5.36-.79.57-1.31.95ZM244.3 219.12c14.09 5.77 26.96 13.89 40.15 21.02 1.7 1.37 4.02 2.81 6.66 4.31h3.49c-21.93-13.15-44.26-25.72-68.51-33.87-7.27.22 15.29 6.51 18.2 8.54h.01ZM290.34 129.51c-.03-.06-.07-.12-.1-.17-.67.24-.42.58.1.17ZM232.43 204.26c-.19-.12-.88-.55-1.07-.65-.95.44.94 1.07 1.07.65ZM230.06 185.01c.92.54 1.36-.18 1.85-.92-.28-.2-1 .22-1.85.92ZM230.09 192.01c-.08-.02-.17-.03-.25-.05-5.53-.82-3.78 5.58.24.05ZM222.88 205.07c3.08 1.7 1.68-2.02 0 0ZM101.62 168.8c-.44-.61-.92-.6-1.4-.41-.56.88.81.38 1.4.41ZM105.55 186.7c.08.45.14.78.23 1.24.38-.49.3-.9-.23-1.24ZM25.52 188.16c-1.09.09-2.18.16-3.11.83 1.07-.18 2.22-.06 3.11-.83ZM89.33 180.87l3.01.06c-.9-.45-1.8-.7-3.01-.06ZM8.82 192.08c1.41.03 2.8 0 3.95-1.03-1.37.15-2.72.36-3.95 1.03ZM13.33 190.84c2.64.03 5.12-.76 7.57-1.56.16-.05.33-.11.49-.16-2.86-.21-5.48.68-8.06 1.72ZM84.22 181.85c-3.2-2.78-8.15-1.39-11.93-.98 1.98.16 3.92.1 5.86-.03 1.21 1.12 4.55 1.1 6.07 1.01ZM55.52 182.53c.53.08.8.18 1.05.15 18.88-1.95 14.77-3.07-1.04-.15ZM49.12 183.88c1.28-.13 2.56-.25 3.75-.8-1.39-.37-2.64-.12-3.75.8ZM38.43 185.85c2.2-.99 5.09-.43 7.01-1.77-3.11-.25-14.9 2.95-7.01 1.77ZM6.96 192.93c.56-.26.95-.43 1.52-.69-.73-.13-1.24.09-1.52.69ZM143.54 176.21c-.45-.14-1.19-.29-1.51.07.47.14.95.42 1.51-.07ZM60.5 194c.06.76 1.51-.3 0 0ZM146.86 177.55c-.4.05-.74.14-.67.62.4.65 1.04-.03.67-.62ZM112.18 192.67h-.01c-.53-.49-.55 1.17.01 0ZM95.83 186.58c-1.04-.08-.9 1.69.03 1.5.97-.05.94-1.59-.03-1.5ZM61.45 189.23c-.33-1.16-1.21-.61-1.86.15.78.72 1.69 1.16 1.86-.15ZM28.14 199.38c-.46.47-.06.85.18 1.34 1.39-.11.91-1.8-.18-1.34Z" style="fill:#fff"/><path d="M187.99 204.69c-6.96-2.33-34.21-5.77-48.43-8.12.88-.27 1.48-.98.45-1.58-1.83-1.35-.91.33-.96 1.5-10.96-1.83-13.57-2.97 8.49-2.34 14.62 1.92 29.19 3.89 43.41 7.33-9.58-6.67-32.54-6.14-46.9-9.22 2.36-1.72-29.45-.66-23.66-3.1-4.53-6.49 11.09-1.54 12.84-.13 4.03-3.4 14.05.12 20.69.56 14.01.38 28.63 5.66 41.86 6.65-6.77-4.57-97.63-13.38-66.93-12.16 3.97-1.41 9.02 1.19 13.5.38-3.39-2.13-9.59.29-12.98-2.69-2.58 2.53-6.26-2.1-1.24-2.05 6.93 1.73 16.58-.27 21.81 3.33 3.58-2.34 9.56 1.16 12.58.56-1.65 2.25 2.36-.16 3.51.46-2.47 1.98 2.77 2.74 3.9 2.98-.05-4.7 6.22-.2 8.76-1.31 6.84.72 18.06 7.28 23.8 3.56-11.79-2.66-21.99-5.94-33.63-7.03-2.12-1.03-1.54-4.58.2-1.04 1.49-.12 3.34-2.5 5.41-1.15-1.67 1.03 4.37 1.65 5.06 1.61 1.5.3 3.01-2.3 3.61.31 1.21.03 3.84.03 5.16.61.34 1.42 2.63-.04 3.42 1.45 3.63.28 7.34.8 11.17 2.59-.77-.19-.7.61.49.23h.08s-.02 0-.03-.02c16.44-3.95-42.82-9.05-29.74-11.89-1.44-5.62-10.12 2.39-14.51.1 1.07-1.86 1.94 1.01 3.1-1.54-.23-.41-.77-1.69.16-.85-.47-3.24 2-.1 1.94-3.04 2.31-.14 10.75-.33 9.4 2.38 5.58-1.49 12.66.35 17.72 2.5 6.81.52 13.87 3.28 20.71 4.98 13.09-14.91 33.59-31.29 45.32-40.78 7.62-6.66 2.5 1.33 7.51-1.07-2.84-3.08 1.27-1.61 1.15.98-3.39 7.09-25.24 19.89-34.03 30.23-2.45 3.47-17.17 12.78-9.95 13.45 1.36 1.41.85-1.55 2-2.29-.06 2.05 2.99-1.53.96-.42 2.56-3.18 5.39-5.76 8.45-8.12-.16-1.31 1.2-1.25 1.82-1.98 1-.36 1.14-2.56 2.41-1.84.89-2.62 7-4.5 5.53-5.62 3.33-2.47 5.48-3.81 7.98-6.89.77-.41 1.68-1.04 2.66-1.76-.19.19-.32.46-.12.55l.67-.55c-.05-.21-.21-.22-.37-.13 2.23-1.67 4.8-3.87 6.96-5.5-.36 2.01 1.29-.53 2.27-.94-.46 0-.7-.02-1.16-.03.96-.81 1.62-2 2.92-2.03 1.78.5 1.43-2.99 4.01-2.49 1.05-1.14 2.18-2.9 4.08-1.78-1.88-3.26 2.91-.47 2.75-2.75 3.57-2.64 6.86-4.38 10.4-6.93h.02c-.34.37-.85.61-.75 1.42.64-.43.75-.77.8-1.44 2.09-.53 3.5-2 5.36-2.95-.32 1.45 2.75-.34 1.3-.82 2.56-2.28 3.98-1.57 5.82-3.48-.93 1.57 0 .93.99.41v-.31c-.06.02-.12.04-.19.05.06-.07.12-.12.19-.19v-.11c-.21-.04-.14-.45 0-.91v-2.56c-10.79 5.86-20.95 11.93-30.25 17.97-1.23-.13-1.81-1.5-2.88-.38-1.18-1.58 1.47-1.57.86-2.82-1.82.34-.49-.29.59-.81-4.92-1.4 4.69-5.27 6.09-6.11 8.47-5.48 16.96-10.5 25.58-15.18V1.28C229.36.33 132.44-.92 0 1.01v176.24c9.14-2.49 17.7-4.47 23.47-5.88 3.55.21 1.38 5.48 6.01 2.3 2.78-.59 2.27-2.89-.39-2.09 1.13-3.62 15.91-3.52 21.67-5.22 9.1-.4 42.9-7.57 42.95 1.84 1.44 2.57 2.48-1.34 1.72-2.78 9.71-2.74 22.15 0 33.18.23 8.36 1.68 14.47.94 23.49 2.53-6.05 3.99-.74 1.75-.48 3.44-.47.98.46 3.34-.99 2.84-3.64-.43-7.48-.91-11.11-1.08-3.03-.2-5.93-.4-8.09-1.55-2.39 1.74-3.98-2.62-5.89-.77-.84 1.2-2.18-.68-2.97.69-.46.57-.62.56-1.16.02 1.7-1.16 1.05-3.49-.92-1.81.19.78.16 1.17-.92 1 .04-.51-.21-.87-.31-1.4.02-1.19-1.34-1.17-2.09-.64 1.1.84.69 1.86-.34 2.45-4.04.07-8.05-.12-12.13-.82.3-1.78-1.59 1.16-2.59.02-2.04.14-5.46 1.36-4.56-2.15-3.08-.84-.31.95-.76 2.53-3.19-1.03-6.3-.1-9.4-.3-1.94-.98-4.06-.35-6.19.05-20.56-.49-40.82 3.46-60.71 8.39-6.79 1.42-13.68 2.98-20.49 4.84v2.27c7.14-1.38 14.25-4.6 22.05-4.81-.41-.11-.66-.18-1.14-.31 1.78-.4 2.72-.57 4.69-.38-1.01-1.24 3.85-1.82 1.34-.43 5.69-.64-.91-3.04 6.61-2.45-.73 1.3 3.43 1.28 2.8-.05.87-.58 1.47.14 2.27.35.28-.45 1.82-2.36 2.65-.88-.13 0-.26.07-.41.1.03.35.51.15.64-.04h-.02c2.45.17 2.67-1.54 5.46-1.42 2.13.92 5.66-2.21 8.26-.91.67.25 2.26.61 1.75-.67.98-.24 7.25-.75 4.7.04 1.02.59 1.67.21 2.09-.78.82-.18 4.37-.9 3.04.5 1.01-.11 3.07-.12 1.31-.76 2.03-1.18 4.45-.11 6.3-.2 2.13-.49 8.33-.91 8.71.02.97.78 1.69-.66 2.68-.7 1.3.09 1.2 1.57 2.73.41-.49-.16-.86-.27-1.22-.39.58 0 1.29-.42 1.52.52 1.16.48 1.94-.91 2.76.66 1.26-.95 2.38-1.05 4.09-.84-1.08.98 2.17 1.01 3.38.36-.24 1.7 2.85.59 4.04.54-.59-.57-1.21-.25-1.76-.48.91-.12 4.27-.48 1.96.02 1.17 1.08 1.56-.44 2.47.1.98 1.21 4.22.63 1.57-.07 1.27.23 2.51.13 3.8-.02l-.77.52c1.13.17 2.16.32 3.31.5-.15-.2-.27-.35-.51-.65 1.42.87 3.68-.7 4.07 1.38.14 1.12 1.94.46 1.38-.46-.19-2.77 3.85 1.88 4.4.2 3.14 4.64-6.41 1.27-8.68 1.81-26.6-1.71-56.12-1.09-79.05 4.35-11.84 2.6-23.67 5.28-35.28 8.66v1.86c29.91-9.52 61.7-14.23 92.78-13.84 10.27 1.08 24.55-1.16 31.8 2.65-.48 1.45-.75 1.16-2.01.46.16.62.27 1.14.43 1.73-9.44 2.62-30.66 1.06-45.71 1.05-25.89 1.81-52.26 6.1-77.28 14.13v1.58c12.9-3.9 25.28-6.51 27.96-6.06 1.79-.97 12.35-5.04 12.91-1.66 2.19-1.14.33-2.88 5.22-2.85 22.34-4.85 49.66-3.5 68.37-1.95 6.15 6.83-15.71 1.69-19.73 2.63-15.95-.46-32.31.5-47.9 3.17-15.05 3.31-31.11 6.43-46.83 11.27v1.02c14.03-4.41 27.85-7.41 30.56-6.5 1.12 3.23 2.3-3.44 6.75-1.94 3.8-2.94 10.1 2.59 2.54 2.52l.02-.03c-13.43 2.7-26.84 5.82-39.87 10.03v35.68h157.68c9.36-13.95 19.89-27.27 30.31-39.76v-.04Zm-20.48-20.68c-.14-.09-.3-.18-.46-.31 1.07.22 1.94.29 2.81.49-.1 1.21-2.42.71-3.31.76-.1-.83.12-1.08.96-.95Zm125.38-56.91c-.1.7-.29.92-.98.62.1-.69.29-.96.98-.62ZM267.82 139c-.21.69-.19 1.56-1.14 1.01.21-.69.19-1.56 1.14-1.01ZM27.56 171.78c-.88.14-1.15-.14-.99-1 1.04-.07 1.43.1.99 1Zm129.02-2.72c1.07 7.02-4.22 6.6-2.99 3.96.07-2.69-.68-4.72 2.99-3.96Zm-24.07 6.39c1.38-.63 1.64 1.87 3.31.79-.51-.16-.79-.25-1.34-.42 1.45-.34 3.06-.4 4.57-.11-.08 0-.16.02-.24.04.49.37.77.68 1.31.37-.03-.08-.09-.12-.13-.18.62.19 1.22.46 1.76.8.06-.18.15-.31.25-.42-.16-1.07 3.51.46 4.72.2-1.89 1.36 3.32.39 4.39.36 2.26 1.13 5.29 1.8 7.57.96.53 1.96 2.42-.51 3.19 1.08 1.14 1.53 3.19.07 1.15 2.96-4.35-.82-8.51-.2-11.49-3.98-5.6 3.04-14.48.82-21.57-.17-2.15-1.57 1.51-1.96 2.55-2.29Zm-6.93-1.48h3c.12.89-.11 1.13-1 1 .26 1.38-.82 1.2-1.45.4.13-.26.42-.25.45-.4-.89.13-1.13-.12-1-1Zm0 6c-.18.04-.99-.14-.93.23h-.01c-.76-1.58 1.27-1.84.94-.23ZM49.63 193.9c-.6.3-1.01-.08-1.34-.45.43.19.21-.42.26-.61.98-.19 1.1.3 1.08 1.06Zm8.63-1.01c-6.79-.16 6.67 3.17-7.72 4.12.83-1.2 2.16-.62 2.6-2.52-.49-.4-1.47.07-1.48-.99 1.21-.9 8.59-1.84 6.59-.61h.01Zm34.58 1.38c-10.95-.48-21.91-.62-32.65 1.02-5.15-8.66 54.55-4.21 57.92-2.6 1.13 4.88-20.61-.14-25.27 1.58Zm32.9-.82h.01c-1.37 0-1.73.23-2.23 1.53-1 .13-1.53-.36-.42-.91-10.59-3.38 11.16-2.65 2.64-.62Z" style="fill:#fff"/><path d="M22.57 200.36c-.48.39-.24 1.45.56 1.4.55-.82.59-1.58-.56-1.4ZM28.87 187.72c1.54-.39 2.98-.02 4.1-1.03-1.16-.15-3.37.39-4.1 1.03ZM39.98 172.06c1.28-2.02-1.53-.2-2.37-.28-1.18 1.22 1.85 1.3 2.37.28ZM115.37 175.48c-.1-.62-.34-.92-1-.62.1.84.18 1.21 1 .62ZM19.66 174.35c-.96-.18-1.07 1.49-.08 1.43.98.16 1.07-1.49.08-1.43ZM15.28 175.65c-.75.18-1.38.32-2.02.47 1.08.31 1.48.18 2.02-.47ZM7.97 177.95c-.49-.36-.9-.39-1.23 0 .07.61.8 0 1.23 0ZM31.54 174.4c-.91.04-1.08 1.23-.09 1.09.5-.23.38-.62.09-1.09ZM41.77 172.3c.29-.44.55-.84.81-1.23.19-.28.58-.89.77-1.17-1.28-.04-1.72.56-1.57 2.4ZM55 168.06c-1.74-1.11-1.65.98-.56 1.78 1.14 1.59 1.52-1.09.56-1.78ZM40.32 168.84c-.54-.3-.82-.49-1.14-.63-.44.6.33.9 1.14.63ZM37.21 170c2.55-.23-1.75-2.73 0 0ZM76.86 173c-.4 0-.86-.25-1.36.51.65-.19 1.53.13 1.36-.51ZM118.02 181.61c.42-3.74-6.59 1.57-2.95 1.77.79-.87 2.35-.89 2.95-1.77ZM112.53 181.42c-.63-.22-.64.38 0 .18 0 0 .01-.2 0-.18ZM109.26 178.8c-1.23.36-.6 1.15.12 1.9.46-.82 1.05-1.73-.12-1.9ZM93.92 180.56c1.58.32 2.96.18 4.52.46 3.89-.33 9.56.9 12.58-.15-5.66-.31-11.58-.94-17.1-.31ZM104.45 178.77c-.91-.78-1.43.64-.64 1.21.88-.6.96-.8.64-1.21ZM50.68 175.89l.18-.17c-1.75-.2-1.31.96-.18.17ZM16.99 182.41c-.38-.21-.7-.15-1.15.36.55-.12 1.28.18 1.15-.36ZM81.72 173.12c-.32-.43-.66-.36-1.1-.18.3.62.62.67 1.1.18ZM104.9 173.52c-1.26.61-.42 2.39.69 1.43.66-.68-.29-1.13-.69-1.43ZM.65 194.71c1.44-.24 2.56-.68 3.53-1.46-1.28.07-2.52.21-3.53 1.46ZM202.4 214.53c1.2-.02 2.29-2.05 3.21-2.96-1.2-.11-2.4 1.98-3.21 2.96ZM195.86 222.03c-.27-.33-.46.28-.71.47.27.33.46-.28.71-.47ZM195.91 221.68c1.83-1.24 4.26-3.9 5.04-5.62-1.72 1.82-4.09 3.28-5.04 5.62ZM184.82 235.48c3.35-2.82 6.52-8.17 9.63-11.9-3.56 3.27-7.03 7.59-9.63 11.9ZM184.36 236.62c-1.5.79-2.24 2.14-2.93 3.55.21.7 2.79-3.6 2.93-3.55ZM178.19 244.45h.75c.12-.22.23-.44.36-.67-.55.15-.87.31-1.11.67ZM212.07 197.23c-.04-.07-.04-.03-.09 0h.09ZM183.84 224.69c.79.17.5-1.37 0 0ZM206.52 210.09c.11-.13.24-.25.36-.37-.23-.13-.24.25-.36.37ZM172.05 244.45h2.91c10.95-15.41 22.14-29.26 28.29-35.53-11.72 9.06-22.05 21.65-31.2 35.53ZM202.13 203.08c-.28-.14-.72-.46-.99-.48-5.09-1.63-.77 4.25.99.48ZM214.85 187.07c-1.58-1.23-4.25 3.35-1.24 2.52 2.63-.24 5.51-1.75 1.24-2.52ZM215.16 201.68l-.01.01h.01v-.01zM213.71 197.78c-.47-.43-.98-.71-1.59-.53.48.61.8.81 1.59.53ZM215.15 201.69c-.76-.34-1.16.15-1.69.67.78.38 1.23-.06 1.69-.67ZM181.4 244.45h2.63c8.36-11.86 17.54-23.08 27.58-33.24-11.21 9.41-21.23 20.73-30.2 33.24h-.01ZM208.98 206.56c2.41.87 1.84-2.71 0 0ZM211.36 200.41c-1.02-.34-2.05-.92-2.71.23 1.02.3 2.05.93 2.71-.23ZM210.86 194.08c.53-.66 1.14-1.26 1.77-1.85-3.04-1.78-6.51 1.22-1.77 1.85ZM215.48 207.04c-1.37-.4-2.42-.67-3.24.71 1.39.46 2.4.69 3.24-.71ZM207.67 195.8c0 1.03 2.17.58 0 0ZM186.12 221.68c-.26.35-.53.7-.79 1.05.88.11.79-.49.79-1.05ZM190.5 191.88c1.07-.08.26-.62-.37-.66-7.85-2.54-6.87-.82.37.66ZM186.68 183.12c.42-.05 1.19.4 1.15-.19-.37-.14-.73-.42-1.15.19ZM193.8 192.38l.67.22c.34-.3-.79-.61-.67-.22ZM196.39 185.49c-.25-.36-.33-.53-.44-.66-.89.08-.45.38.44.66ZM162.94 173.04c.75 1.92 3.26.04 1.91-.66-.04 0-.07 0-.06.05-.04-.37-.06-.77-.24-1.1.15 1.67.21 1.85-1.61 1.71ZM154.93 185.58c3.3.7 8.4.85 3.98-1.4.14 2.34-2.76.39-3.98 1.4ZM147.99 183.2c-.86-1.59-1.55 1.04-2.66 1.18 4.17.56 12.67 1.63 3.84-.18-.67-.1-1.18-.16-1.18-.99ZM188.5 176.08c-.47-.29-.79-.25-1.1.11.41.26.75.46 1.1-.11ZM176.41 187.94c-5.14-.09 2.21 2.04 4.2.81-1.02-.17-1.9-.32-2.97-.51 2.92-2.53-.45-3.16-1.23-.3ZM163.86 186.51c1.84.74 3.27.65 5.19.78-1.79-.58-3.71-1.7-5.19-.78ZM170.11 187.27c.03-.05-.13-.08-.15-.1-.14.15-.25.35-.41.48.72.5 1.86.23 1.97 1.72.97-1.94 2.69-1.4-.17-1.77 2.29-1.9-.67-2.02-1.24-.33ZM194.1 212.63c-.53-.05-.47.15-.51.68.57-.09.56-.22.51-.68ZM188.86 244.45h2.32c8.26-11.55 16.72-22.35 24.77-32.11-9.86 9.52-18.87 20.43-27.09 32.11ZM256.19 228.55c-25.74-10.39-33.1-23.59-52.01 3.92-3.2 3.9-6.27 7.9-9.25 11.98h89.68c-9.49-5.83-19.11-11.49-28.42-15.89ZM198.73 193.22c-.35-.06-.7-.1-1.07-.07.37.08.84.52 1.07.07ZM192.19 214.49c-.91.69-1.22 1.17-1.11 2.08.3-.73 1.62-1.64 1.11-2.08ZM260.02 143.78c-.11-3.25-4.36-3.91-2.84.08-4.4 2.26 2.5 2.87 2.84-.08Zm-1.93-.82c.64.06.66.32.45.86-.64-.06-.66-.32-.45-.86ZM198.32 197.66l.03-.03s0 .04-.02.03ZM295.79 118.03c.24-.67.08-.89-.33-.89-.57.31-.02.52.33.89ZM243.84 153.05c.07-.99-1.39-1.21-1.59-.16-.13.92 1.44 1.22 1.59.16ZM275.48 129.32c-.12.3-.22.56-.34.9.63-.18.75-.48.34-.9ZM294.19 119.24c-.6-.55-1.47 1.12 0 0ZM295.15 120.83c.4-1.08-1.24-1.39-1.41-.41-.37.91 1.3 1.26 1.41.41ZM287.56 230.39c-3.07-1.85-16.44-9.74-8.56-4.4 1.81 1.43 12.95 7.86 8.56 4.4ZM273.93 223.06c-4.73-3.82-3.9-.42 0 0ZM250.59 211.33c2.75.79 6.76 4.09 8.86 3.72-4.06-2.79-19.96-8.49-8.86-3.72ZM244.43 208.71c-1.12-1.25-2.65-1.69-4.16-1.99-.65.37 4.17 1.84 4.16 1.99ZM268.27 220.09h-.02.02ZM261.73 216.32c1.69 1.8 4.41 2.42 6.52 3.76-1.16-1.52-4.34-3.27-6.52-3.76ZM232.92 204.58c1.03.52 2.09.67 3.29 1.02-.59-1.05-.96-1.15-3.29-1.02ZM260.63 215.98c.28.07.73.59.83.16-.28-.07-.73-.59-.83-.16ZM258 198.62c-.57-.31-1.01-.54-1.45-.78.48.58.96.84 1.45.78ZM284.46 212.29c.36.4.72.58 1.09.55-.35-.17-.6-.3-1.09-.55ZM251.58 196.17c.56.54 1.07.75 1.83.54-.5-.64-1.04-.77-1.83-.54ZM239.35 188.5c6.06-1.7 12.69-12.31 17.95-13.08-5.28 1.14 6.86-8.71 8.16-7.3-2.51 1.75-1.52 3.73-4.43 5.35 1.28 5.81-25.32 15.59-10.55 19.15 14.58 5.76 28.72 13.08 42.01 21.34 2.44 1.4 4.95 2.84 7.52 4.31v-70.02c-8.2 4.55-16.17 8.69-23.83 11.74.52-.67 1.43-1.53 2.64-2.53-.05.11-.08.22-.08.34.26 1.31 1.83.15 2.18-.56-.2-.57-.67-.69-1.12-.57 4.31-3.37 11.6-8.11 20.21-13.23v-1.23c-16.26 9.53-31.41 19.79-43.69 29.67 5.69-5-5.33-1.96-2.38 1.88-2.72 5.14-10.41 9.84-14.59 14.72v.02Zm35.7-29.28c.16 1.68.19 2.62 1.83 2.96-9.95 10.16-14.26 4.36-1.83-2.96ZM290.79 216.25c-.65-.85-.64.44 0 0ZM286.95 139.93c.59.09.97-.15 1.47-.56-.79-.4-1.13-.05-1.47.56ZM281.95 143.13c1.21-.43 2.08-1 2.86-1.74-1.16.06-2.17.41-2.86 1.74ZM274.2 148.36c-.16-.52-.51-.05-.85.1.15.52.52 0 .85-.1ZM278.25 145.7c.7-.42 1.48-.41 1.45-1.51-.8.25-1.26.59-1.45 1.51ZM292.63 136.69c.92-.66 2.17-.83 2.76-1.94-.91.66-2.16.86-2.76 1.94ZM212.47 193.42c-.69.16-1.04.35-1.26.77.53.25.83-.48 1.26-.77ZM294.35 234.83c-1.34-1.15-2.76-2.15-4.45-2.75 1.08 1.58 2.85 2.02 4.45 2.75ZM273.95 223.07h-.02.02ZM300.01 231.27c-14.91-8.92-31.37-17.48-50.06-26.01-5.04-1-12.75-7.85-16.61-3.67 10.19 2.77 19.45 7.73 29.05 11.95 12.93 6.42 25.49 13.3 37.62 20.68v-2.95ZM296.95 134.22c-.5-.74-1.34 1.08 0 0ZM296.96 134.21l-.01.01h.01v-.01zM272.57 149.25c-3.6.36-4.17 4.05 0 0ZM219.98 191.53l2.25-2.31c-1.85-1.52-5.57 2.23-2.25 2.31ZM219.54 208.83c-.36.25-.7.52-1.03.8 1.88 1.42 3.59-1.47 1.03-.8ZM219.76 199.91c3.14 1.59 1.98-1.23 0 0ZM222.19 197.44c1.66 1.08 2.28.45 3.48-.97-1.56-1.02-2.42-.35-3.48.97ZM233.38 182.49c.24.4.67-.36.97-.51-.23-.57-.64.31-.97.51ZM235.56 193.99c-.49-.14-1.01-.18-1.5-.35-2.93 2.52 0 2.81 1.49.35ZM297.52 133.86c.84-.45 1.67-.89 2.49-1.33v-1.01c-.99.58-1.86 1.3-2.49 2.34ZM217.72 193.85c-.63-.15-1.24-.32-1.85-.52-3.3 2.46.31 3.25 1.85.52ZM261.06 207.84c.46 1.37.75-.39 1.01-.42 2.56 2.35 6.29 2.83 9.13 5.02-.03.05.08.05.11.06.09-.4 1.61-.35 2.2-.34.47 1.47-1.14.88-1.95 1 2.36 1.17 2.13.15 4.08 2.21 0-1.64 1.77.71 2.56 1.03 3.69 1.43 13.5 7.65 21.81 12.36v-3.09c-1.88-1.14-3.73-2.29-5.55-3.45-13.2-5.41-46.29-29.53-57.19-24.95 7.72 3.53 17.05 5.2 23.79 10.57ZM216.71 203.04c1.17.49 2.09 1.01 2.86-.31-1.11-.37-2.15-.92-2.86.31ZM219.21 196.56c.23.06.46.12.69.19 2.11-2.21.99-2.09-.69-.19ZM217.19 198.55c-.2.28-.57.55-.04.57.15-.27.57-.56.04-.57ZM300.01 237.7c-.31-.06-.62-.09-.95-.07.22.1.55.29.95.54v-.47Z" style="fill:#fff"/><path d="M288.17 222.42c-.8-.31-1.67-1.55-2.14-.99.51.67.91 1.29 2.14.99ZM293.04 225.56c-.45-.88-.79-1.11-1.69-1.1.63.41 1.1.72 1.69 1.1ZM296.23 227.14c-.21-.67-.83-.65-1.44-.65.47.19 1.09 1.23 1.44.65ZM281.74 218.89c.27.31.45.65.73.17-.23-.08-.63-.52-.73-.17ZM271.52 213.15c.17-1-.73-.46 0 0ZM259.31 206.87c-.4-.17-.81-.34-1.21-.51.11.88.67.65 1.21.51ZM255.77 205.58c.82.52 1.02-.13.07-.19 0 0-.05.21-.07.19ZM269.24 212.09c.23.54.34.49.78.33-.08-.53-.26-.42-.78-.33ZM267.76 211.02c-.9-.72-1.4-.87-2.29-.58.78.12 1.98 1.16 2.29.58Z" style="fill:#fff"/></svg>