<svg version="1.1" id="a" xmlns="http://www.w3.org/2000/svg" x="0" y="0" viewBox="0 0 300 600.3" style="enable-background:new 0 0 300 600.3" xml:space="preserve"><style>.st0{fill:#fff}</style><path class="st0" d="m218.9 51.1.3-.1-1.1-5c-.5 1.8.1 3.5.8 5.1zM213.4 16.9zM214.4 26.5c0-.3-.1-.6-.1-.9h-.3c0 .3.1.6.1.9.2.1.3.1.3 0zM205.4 21.1c.4-.5.2-.6-.2-.9-.4.4-.2.5.2.9zM206.3 25.6c-.2-1-.4-1.8-.6-2.6-.9.7-.1 2.2.6 2.6zM210.9 0c.1 2.8.3 5.5 1.4 7.9.2-1.6-.3-3-.3-4.6-.2-1-.2-2.2-.2-3.3h-.9zM212.9 14.6c.9-1 0-3.4-.1-4.9h-.3c-.2 1.8-.1 3.3.4 4.9zM204.5 19c.3-.2.5-.4.4-.7-.2.2-.6.4-.4.7zM212.4 9.8h.1zM204.9 18.3zM206.9 33.5c.1.5.2 1 .3 1.4.8-.6.2-1-.3-1.4zM218.6 60.7C212.4 41 210.1 20.4 208.4 0h-2.7c1.7 11.8 4.4 59.6 12.9 60.7zM203.7 5.3c.1-.2.1-.5.1-.7l-.5-.1c.1.3 0 1 .4.8zM216.6 38.7c-.8-3.5-.9-7.3-2-10.8-.9 5 5 24.6 2 10.8zM195.7 5.7c.1.4.1.7.2 1.3.1-.5.1-1-.2-1.3zM213.4 16.9h-.3c.3 2.8-.2 5.8 1 8.4.5-2.7-.6-5.6-.7-8.4zM150.7 61.2zM150.9 61.7c0-.3.1-.6-.2-.6-.1.1-.1.3-.2.4.1.1.2.2.4.2zM151.4 60.4c.1-.2.1-.3.2-.4-.2-.1-.5-.2-.7-.3-.2.3.3.5.5.7zM168.7 68.1c.1.3.6.5 1.1.9 1.4-2-1.3-2.8-1.1-.9zM149.8 59.4l-4.1-1.3c0 1.1 3.6 2.2 4.1 1.3zM157 61.8c-.6-.6-3.3-1.4-4.8-1.4 1.4 1.1 3 1.5 4.8 1.4zM144.5 57.9c.1-.1.1-.2.2-.3-.3-.1-.5-.2-.8-.4-.1.1-.1.2-.2.4.3 0 .5.1.8.3zM145.7 58.1zM128.1 50.8c-.3-.6-.8-.8-1.4-1 0 1 .6 1.1 1.4 1zM219.9 66.2c0-1.7-1.5-1.4-2.8-1.7.1.5.3.9.4 1.4.7.1 1.6.2 2.4.3zM138.9 55.1c-.8-.4-1.3-1.1-2.3-.4.7.6 1.3.8 2.3.4zM171 66.3c.2-.8-.1-1.4-1-1.7-.6 1.4-.4 1.7 1 1.7zM134.2 53.4c-1.2-.8-2.2-1.3-3.4-1.5.7 1 1.7 1.7 3.4 1.5zM233.6 63.4c-6.1-20.6-9.3-41.9-11.3-63.4h-1.6c1.1 12.5 2.9 25 4.8 37.4 1.6 4.1 4.7 26.6 8.1 26zM221.9 59.7c-.5 0-.1 1.2-.1 1.5.2 0 .4.1.6.1-.1-.5-.3-1.1-.5-1.6zM200.2 40c.1.7.1 1.3.2 1.8.3-.8.2-1.4-.2-1.8zM201.4 45.4c-.3.9-.1 1.4.7 2 .1-.8 0-1.4-.7-2zM221.9 73.5c-.1-2.2-1-2.4-3.1-2.6.1 2.1 1.3 2.5 3.1 2.6zM220.5 55.5c-.6 1.2-.4 1.6 1.2 3.7-.2-1.3-.8-2.4-1.2-3.7z"/><path class="st0" d="M168.5 58.8c.2-2-1.6-.4-1.8.6-2.4.2-4.4-1.1-6.7-1.2 1-1.3-1.4-2.5.7-2.6-.3-.6-.5-1.1-.8-1.8-1 1.2-2.2 1.6-1.1 3.1-36.3-10.8-71.9-31-101.3-50.4 1-4-3.6-8.6-.9-.6-3.3-1.8-6.4-3.8-9.5-5.8h-3.2c2.9 2 5.5 4.2 3.5 5.7C45.6 4.6 44 3 41.8 2.6 43 4.3 46.3 5 46.6 7.1c3.5.3 1 2.2 3 3.7C50.6 9 50.7 7 51 5c34.7 25.6 79.5 41.8 116.1 59.5-2.4-.1-4.5-1.3-6.9-1.5 1.6 1.1 3.6 1.1 5.2 1.8-.3.5-.5 1-.8 1.6 1.4.7 1.7.3 2.3-.9 2.8.9 1.8-1.7 1-3.2 8.8 3.1 24.8 5.1 36.4 7.9-5.6-7.4-29.3-3.4-35.8-11.4zM188.3 70.3c-2.1-.9-5.4-2.1-7.6-1.5 2.6.3 5 1.2 7.6 1.5zM198.1 72.2c-3.1-.7-6.5-2-9.7-1.8 2.9.5 7.4 2.4 9.7 1.8zM205.6 74.2c-.1-1.2-1-1.1-2-1.1-.1.4.8.8 2 1.1zM121.5 47.7c-1.2-.4-2.1-1.5-3.5-1.3 1.1.4 2.1 1.4 3.5 1.3z"/><path class="st0" d="M174.1 67.5c0-.8-.4-.9-.9-.8-.1.1-.1.2-.1.3.3.1.7.3 1 .5zM201.2 72.6c-.4-.1-.8-.2-1.1-.3 0 .1-.1.2-.1.3.3-.1 1.1.5 1.2 0zM228.2 83zM234.9 102.1l.2.8c.1 0 .2-.1.3-.1l-.2-.8c-.1 0-.2 0-.3.1zM227.6 81.1c-.1.7 0 1.3.5 1.8.3-.9.3-1.3-.5-1.8zM229.7 87.9c.1 0 .2-.1.3-.1-.2-.4 0-1.3-.6-1.3.1.5.2.9.3 1.4zM228.4 72.6c.4 1.2.5 2.6 2.1 2.4-.3-1.4-.4-2.6-2.1-2.4zM228.5 68c-.3-.9-.2-2-1.5-1.9.2 1 .2 2.1 1.5 1.9zM224.2 97.4c.1.4.1.9.6 1.3.4-.7-.4-.9-.6-1.3zM227 89.2c-.2-1.1-.6-2.1-.9-3.1-.9-.1-1.9-.2-2.8-.4.6 2.1 1.1 3.8 3.7 3.5zM222.2 81.9zM226.1 86.1zM224.4 96.3c-.2 0-.4-.1-.6-.1-.2.4.1.4.5.5 0-.2.1-.3.1-.4zM245.7 127.7v.2c.2 0 .5 0 .7.1 0-1-1-1.8.3-2.9-1.2 0-1.9.4-2.3-.7-.1 0-.1.1-.2.1.3.6.6 1.2 1 1.9-3.1-.9-1.4 1.8.5 1.3zM273.6 99.4c-.7-.4-1.3-.5-1.8-.2.7 0 1.2.1 1.8.2zM300 80.9v-2.5c-19.6.3-39.3-.9-58.7-4 18.5 5.1 38.4 6.9 58.7 6.5zM279.5 99.1c-.8-.3-1.4-.4-2.1.2.7.5 1.3.4 2.1-.2zM236.2 90.9c-.4-1.2-.8-2.3-1.5-3.4-.4-.1-.7-.2-1.1-.2.9 1.5.4 3.7 2.6 3.6zM243.5 79.8c-.2 0-.4-.1-.6-.1.1.3.4.1.6.1zM300 95.6v-3.3c-1.1.2-2.3.2-3.5 0-.2-1.9-3.1 1.2-4.6.1-.8-.4-1.4.2-2.2-.1-7.4-.3-15.1.5-22.8-.8-.5-.5-1.6.1-1.8-.8-.4-1-1.3.1-.6.7-3.8-1.1-7.7-.4-11.7-1.6-.1-.2-.2-.3-.3-.4l.2.5-2 .7c0-.1-.2-.5-.2-.6l2-.7c-.7-.6-2-.3-2.9-.2 0 .2.1.3.1.5-.8.2-3-2.7-2.5-.3l-.9-.3c9 6.4 30.7 7.5 53.7 6.6zM249.1 133.9c-.5-2.1-1.5-3.4-2.6-5.2.6 2 .8 4.4 2.6 5.2zM236.6 106.8c1.3 2.1 1 6.1 3.2 7.1-.4-1.3-3.4-10.6-3.2-7.1zM242.4 121.5c.4.8.5 1.6 1.6 1.8.1-.6.1-1.2.1-1.9-2.3 0-1.6-3.7-3.7-4.2.5 1 .9 1.9 1.4 3-4.3-1-2.5 2.4.6 1.3zM221.5 79.9c.3.7.5 1.3.7 2 .9.2 1.8.3 2.8.5.2-2.3-1.7-2.2-3.5-2.5zM190.1 79.2c-1.9-.5-1.2 1.2 0 0zM38.7 9.9c-.1-.1-.3-.1-.5-.2-.2.5.3.7.5.2zM239.2 68.1c18.3 6 39.5 6.8 60.8 5.8v-1.4c-20.9.1-41.7-1.5-60.8-4.4zM64.6 9.5C84.2 13.2 102 30.8 122 37.6c14.5 6.3 29.2 13.3 44.2 17.2-.7 2 1.7 3.2 1.6.5 2.9 1.2 6.6.9 8.9 3.2-1.1-.2-2.1-.3-3.2-.5-.6 3 5.7 4.4 6.4 1.5 6.4-.8 15.6 3.3 22.8 4-4.4-5.8-19.2-1.1-22.3-8.8-.7-.2-.8.3-1.1.7 4.1 3.7-6.5.2-7.8-.3-4.8-.8-5.4-4.7-1.3-1.4 1.7-1.6 2.8-1.7 4.9-.5-.1-.5-.1-.8-.2-1.2 8.6 1.8 17.2 4 25.9 5.8-4.6-19-7.1-38.3-8.7-57.8H62.9c-.9 1.7 3.3 4 2.8.9 27.6 16.8 56.1 32.1 86 43.7-1.4 2.5-.1 2.1 1.6 3.3-1.2-.3-2.4-.6-3.6-1 1-1.1-1-1.8-1.9-1.6-.3.4-.3.8-.1 1.1-28.5-8.2-55.4-25.9-81.2-40.7-2.6-2.2-6-3.8-9-5.7H56c3.4 2.1 6.9 5.6 9.6 7.3-1.9-.7-3 1.5-1 2.2zm90.2 36.4c15.9 2.8 13.7 10.4-1.6 3.6 1.5-1.3 2.4-1.9 1.6-3.6z"/><path class="st0" d="M70.5 5.6c.5.5.6 1.2 1.3 1.1V5.2c-.4.1-.8.2-1.3.4zM235.1 53.4c1.1 16.2 18.1 11.6 30.4 14.3 10.7 1.5 22.4 1.8 34.5 1.2V0h-73.7c1.7 18 4 36 8.8 53.4zM298.1 83.6c.6-.1 1.2-.2 1.9-.3-.9-.4-1.4-.3-1.9.3zM224.4 71.9c.3.8.1 2.3 1.3 2.3-.4-.8-.2-2.3-1.3-2.3zM225.9 85.7c-.1-.7-1-.4-1.5-.7.6.5 1 .7 1.5.7zM216 0h-.9c1.8 21.1 3.6 44.1 11.9 62.2-5.7-20.2-9-41.1-11-62.2zM226 77.1c.1.4.5.3.8.4 0-.1-.1-.3-.1-.4h-.7zM208 37.6c-.1-.3-.1-.5-.2-.8-.1 0-.2 0-.4.1.2.1.3 1 .6.7zM216.6 72.6c.3-2.2-2.8-2.5-4.7-2.8 0 .1.1.2.1.3.4 2.4 2.7 2 4.6 2.5zM110.7 52.1c-.5-.3-.8-.4-1.1-.6.2.4.6.6 1.1.6zM194.5 79.8c-.6-.1-1-.2-1.3-.2 0 .1-.1.3-.1.4.3.3.7.4 1.4-.2zM41.2 6c1.4-1.8-2.2-2.8-.2-4.3-2.7-2.4-2 .6-3.7 2.2-.5-.5-2.2-1.9-4.5-3.9H30c2.6 2.2 5.2 4.4 7.8 6.5 46.2 31.9 108.7 64.4 169.4 73C150.6 65.7 90 42.7 41.2 6zM160.9 72.2c.3.1.7.1 1 .2.3-.4-.7-.4-.9-.5 0 .1-.1.2-.1.3zM188.1 78.8c0-.1 0-.3.1-.4-.4-.1-.8-.1-1.2-.2 0 .1 0 .3-.1.4.4.1.8.2 1.2.2z"/><path class="st0" d="M116.2 54.6c.6.5.8 0 .1-.2 0 0 0 .1-.1.2zM123.8 58.1c.7.2 1 .4 1.7.6-.6-.7-.8-1.2-1.7-.6zM143.1 66c0-.1.1-.2.1-.4-.3 0-.6-.1-1-.1-.1.5.6.4.9.5zM155.6 70.4l.2-.4c-.5-.2-1.1-.5-1.6-.7-.1.1-.1.2-.1.3.5.3 1 .5 1.5.8zM222.8 76.1c-.9-.1-1.8-.2-2.7-.2.6.7 2 .7 2.9.9-.1-.2-.2-.5-.2-.7zM234.7 142.9c.1-.1 1.1-.6.9-.9.2 0 .5 0 .7-.2l1 1.5c.1-.6.2-1.2.3-1.9-.6 0-2.9-.6-2.1.6v.1h.1c-.3.2-.7.5-.9.8zM230.8 114.1c-.6.2-.2 1.2.6 1.1-.2-.4-.4-.8-.6-1.1zM227.4 104.8c-.2.4-.2.7-.3.8.7.9.6.1.3-.8zM292.4 196.2c.6 1 2.1-.3 1.4-1-.7-.9-2.1.1-1.4 1zM223.8 118c0 .6.3.9.8.9 0-.5 0-1-.8-.9zM256.1 150.6c-1 1.6 1.7.8 2.8 1.7-1.9-2.5-2.6-6.4-4.6-8.4.4 1.7 1.3 3.4 2 5 .3.6.6 1.1-.2 1.7zM287.6 177.3v.4c.8-.2.8-.5 0-.4zM274.2 150.2c-.8-1-2.3-1.4-2.2.2-.1 2.6 1 .3 2.2-.2zM167.5 82c-.9.6-.2 2 .9 1.6.9-.6.2-2.2-.9-1.6zM250.1 139.9c2.1-1.6 2.1 2.3 3.8 2.8-1.3-1.6-1.9-5-3.5-5.8.1.4.3.7.4 1.1-1.6.3-1.7.6-.7 1.9zM148.7 73.1c0 1.3-.9 1.5-2.1 1.7.5 2.3 3.1 3.7 4 .9 4.9 2.5 1-4.2-1.9-2.6zm.5 2.2-.2-.7.8-.3.2.7-.8.3zM51.5 26c.5-.1.9-.3 1.5-.5-1.2-.9-1.3-.8-1.5.5zM86.3 47.3c-.8.2-.8.8-1.1 1.3-1.3 2.1 1.3 1.2 1.1-1.3zM70.2 40.8c-.2.2-.3.5-.4.7 1.2 1.8 2.6-1.3.4-.7zM246.7 147.4c-.1-.4.1-.6-.2-.7-.2.4-.3.5.2.7z"/><path class="st0" d="M300 600.3V247.8c-9.6-10.3-18.3-21.5-24.6-33.2-4.2-.7.9-3.5 1.5-4.7 1.4-3-2.8-1.4-3.6.2-3-.6-4.9-6.2-7.2-8.7-5.8-6.9-10.8-17.2-15.7-25.6-1.9-1.3-.4-6.6-2.9-4.8-2.3-5-5.7-9.5-7.8-14.5 1.9 1.4 6.4 1.6 2.8-1 .8-1.4 2.4-1.3 3.4-2.5 3 6.4 7.5 12.4 10.2 18.6-1.4 1.4 2.3 2.2 1.8 4.6 0 1.2-.4 2.7 1.3 2.8 1.6 0 .8 2.4 2.5 2.3.8.1.9.2.8 1.1-.8.1-2.3-.6-2.5.4-.1.9.6 1.5 1.5 1.6v-.1l.9-.6s.2.4.3.3c-.1.1.3.5.3.6-1.2.9-2.5 2.7-.4 3.5 1.3-4.6 4.9 2 5.7 3.7.8 2.4 3.1 3.9 3.7 6.6-1.5.6.4.8.9 1 .6 2.2 3.8 3.2 3.4 5.6-.6 1.2-3.5 1.2-.3 2.8 1-5.6 2.8 1.6 4.7 3.1.4 1.4 2.2 1.7 2.4 3.2.1.1.3.3.3.4-.6 1.2.9 1.6.9 2.6 3.9 2.8 5.3 8.2 9.2 11.3 1.3 3.2 3.9 5.6 6.4 8.1V233c-.7-.7-1.3-1.4-1.4-2.3.1 0 .3 0 .8.1-.8-.9-2.1-2.7-1.5-.7-1.6-1-3-2.8-3.5-4.5-2.1-2.8-4.8-6.1-6.8-9.2h.6c.1-1.4-1.7-1.1-2.4-2-.8-1.2.7-2.1-1.4-2.8.2.6.3 1 .4 1.4-.4-.5-1.2-.9-.5-1.7-.3-1.4-2.1-1.2-1.2-2.9-1.7-.6-2.5-1.5-3.4-3.2.2.1.3.1.6.2.3-.8 0-.9-.8-1.1.9-1.2-.7-1.6-1.6-2.5 1.7-.9-1.3-3-2.1-4-.1.9.5 1.3.7 1.9-.8-.9-1.4-1.7-2.1-2.4.3-.2.5.3.9.6-.1-.7-.1-1.4-.6-1.6-1.5-.1-.7-2.8-1.8-3.7-.9.5-.2 1-.1 1.6-.6-1.3-1.5-2.4-2.4-3.5.3.1.6.2 1 .4-.6-1.1-1.1-2.2-1.6-3.4-.1.3-.1.5-.3.9-.8-.8 0-1.7-1.1-2.3-1.5-.9-.7-1.9.1-2.9-.8-1.1-1-1.2-1.7-.4-1.3 1.5-1.2-1-1.5-1.6-.5-.5-.6-1-.3-1.7.3-.6.1-.8-.9-.8 1.7-7.9 12.4 17.7 15.3 19.5 6.1 9.9 13.2 19.7 20.5 29v-3c-6.5-8.1-12.4-16.6-17.6-25.6-2.2-4.4-16.5-21.2-13.2-23.1-.4-.6-.6-1.1-.9-1.6l1.5-.3c.1.6.1 1.1.2 1.9.5-.5.9-1 1.3-1.5-.1.8-.1 1.4-.1 2.1 1 0 .9-1.1 1.8-1.3.4 3.9 4 2.9 5.8 5.9 6.1 11.1 14.2 21.6 21.4 32.5v-3.2c-.3-.4-.6-.9-.9-1.3-6.3-9.4-14.5-19.4-16-28.3-1.4.5-1.7-.6-2.5-1.2 2-7.6 5 1.4 7.3 4.3 1.8 4.6 5.8 7.6 7.7 12.1 1.5 2.2 2.9 4.4 4.5 6.6v-2c-6.5-9.5-11.9-18.6-12.4-20.7-1.7-1-2.5-2.6-3.5-4.1 1.9-.7 1.8-3.1-.2-3.3 4.2-3.2 3.8 4.3 6.2 5.2 3.3 5.2 6.3 10.3 10 15.1V103c-16.7 0-33.5-1.1-49.6-2.5 6 16.9 14.7 32.4 23.2 48.2 1.4 3.8 5.3 7.2 4.9 11.4-1.2.3-1.2.2-1.4-1.6-3.5 1.7-7-7.3-6.8-9.6-3.9-1.6-4.5-7.7-7-11-4.7-9.3-9.9-18.2-13.6-27.9-1.6-3.3-2-9.5-5.7-10.3 5.6 17.9 17.6 35.3 23.1 51.4 3.2.9 4.6 7.4 7.2 10.5.9 4.1 6.7 7.8 5.6 11.6-.2-.3-.4-.5-.7-.9 0 1.9-1.7 1.2-2 3-1.9-3.8-8.1-9.5-5.3-13.2-.6-1.9-2.5-.7-2.5-2.9-2.5 2.1-9.3-15.3-11.1-17.9-8.6-13.1-13.1-29.8-20.6-42.6 9.7 26.6 23.1 51.8 37.8 75.7-1.7.5-7.8-4.7-6.4-6.7-2.4-.4-2.5-3.7-3.7-5.4-1-2.7-3.2-4.6-4.6-7.2.1 4.2 6.5 8.9 5.8 13.6 2.5 0 1.7 2.5 2.5 4.1-6.3-1.1-7.2-10.9-11.2-15.4-1.5-2.1-2.4-4.6-3.9-6.7.2-.6 1.3-.8.7-1.7-3-1.6-6.1-7.2-6-10.7 0-1.2-1.5.2-1.5-1.2 3.1.1-1.6-2.1-1.8-3.5 3.4 1 .7-4.3.2-5.5-4.3 3-4.1-5.6-6.8-7.2-2.6-5.1-6.5-24-11.9-24.1 2.5 8 7.8 16.2 8.4 24.3 2.4 1.3 9.9 13.6 4.4 13.8 3.7-3.8-3.4-2.7-3.4-6.6.3.1.4.2.6.2.2-.7-.7-1.6-.5-2.4.6-1.7-1.8-2-1.9-3.5-.8-1.8-2.4-.3-2.7-2.7.9-.6.5-2.1-.6-2.3L230 114c.9-.7.1-1-.3-1.5-.4-2.2-2.1-3.2-1.5-5.4-1.6-.4-.7-1.7-2.1-2.4.2-.7.6-1.6-.3-2-2.1-2.8-.8-7.5-5.6-7.1 3.4 10.3 7.6 20.6 11.8 30.6.9 1.9 1.7 4.2 3.1 5.8-.7 2.3-1.6 2.7-1.8-.1-4.1.6-.9 5.6 1.6 5.6-.3.8-.6 1.4-.9 2.2 4.1.2 6.4 1.8 7.6 5.8-.6 0-.9-.1-1.3-.1 0-1.6-.2-1.8-2.1-1.8-.4.2-.1 1.2-1 1 0-.2.1-.4.1-.6l-1.5 1-1.2-1.7c-2.9 3-5.2-7-6.7-9 .5-.1.9-.1 1.6-.2-5.2-3.8-6.1-10.6-8.9-16.1-.1-3.6-3.2-6.4-4-10.4-3.5-10.3-2.7-15.1-15.3-15.4-18.4-2.8-41.4-7.9-54.9-14.6-.2.3-.4.6-.7.9-10.9-2.7-.4-3.1-5.8-6.2-.2.8-.4 1.5-.5 2.2-2.4-.8.2-2.8.7-3.9l-.9.3-.2-.6.9-.3c21.6 4.1 46.3 13.7 69.6 16.3-.6-1-.6-2.6-1.4-3.3l.2-.1c-.5-2.1-1.9.4-3.6-.3.2-.3.4-.5.6-.8-.9-.2-3.3-.9-1.6.2-2-.2-4.1.1-5.5-1.4-1.5 1.4-2.8-.2-4.6-.1-1.2.2-1.7-1.8-2.7-1-1.1 1-1.9-.3-3-.4-3.7-.6-6.9-1.7-10.9-2.7.6-.8-.6-1-1.4-.2.1.1.3.2.4.3-2.2-.6-4.1-1.7-6.5-1.9.9-1.6-3.6-.1-4.9-1l.1-.1c.3-.1.7-.3 1-.3-.6-.3-.9-.2-1.1.1 0-.1-.1-.3-.1-.4-4.6.4-8.3-2.9-12.9-3.5.3-.1.5-.3.9-.4-.9-.8-1.9-.3-3.1-1.1.3.4.4.7.7 1.1-1.4-.4-2.9-.2-3.7-1.4-.7-1.9-3.6.6-4.8-2.1-.7-.1-1.6.4-1.9-.6-1.3.4-2.2-.4-2.3-2-1.8 3.8-2.3-2.4-4.3-.8-2-.6-4.2-1-5.6-2.6-2.5-.3-4.9-1.6-7.4-2.5.6.1 1.1.4 1.8-.2-.8-.3-1.2-.2-1.8.2-1-1.2-2.4-1.3-3.7-1.7-.6-.9-1.6-.9-2.4-1.3 1.5-.6-2.1-2.3-1.6-.7-2-.3-3.7-1.1-4.6-3.1-.4.2-.2.5-.3 1l-2-1c.6-.2 1.2.1 1.2-.4-.7-.2-1.6-.8-2.4-1.3.1.4.5.6.8.9-.2 0-.3-.1-.5-.1l.1.3-2.3.8-.9-2.6.2-.1h-.1c-.6 0-1.2-.1-1.8-.2-1.2-2.6-6.2-2.1-8.3-4.8.3 0 .7 0 1.2.1-2-1.7-5.8-.5-5.9-3.9-.4.5-.7.7-.9 1-2.7-2.1-6.5-2.7-8.7-5.4.9-.5-1.6-2.2-1.3-.8l.6-.2.4 1-.9.3-.4-1h.1c-.8 0-1.3-.8-2.1-1 .4-1.1-.7-1.5-1-.2-.5-.4-.9-.7-1.3-1 .2 0 .3 0 .7-.1-.7-.5-1.6-1.1-1 0-.9-.2-2.1-.9-3.2-1.5l.8-.3c-.3-.6-1.4-1.2-2.1-.5-.2-.3-.4-.5-.7-.9-1.9.5-1.5-2.8-3.5-2.1-.4.1-.9-.4-1.5-.6 1.6-.9-1-1.8-1.7-1.7-1.6 0-2.7-1.2-3.9-2 .6.1.7 1 1.5.5-.6-.5-1.1-.7-1.6-.6-.6-.4-1.3-.7-2.1-.5 1.3-1.8-3.9-2-3.4-3.8-.3 0-.6.1-1 .2.2-.2.2-.4.3-.5-2.4-.9-3.3-1.6-3.7-2.8-2.5 1-3-2.3-5.1-2.4l-.5-1.5c-1.2 1.4-8.3-5.1-9.8-6.5 1.3.6.8-.6-.2-.9-.9 1.8-1.6-1.9-2.8-2v.8c-.7-.7-1.3-1.2-2.2-1.7h-5c2.2 1.9 4.4 3.6 6.7 5.2 32.1 25.5 71.1 44.9 108 61.4-.2.2-.5.5-.9.8 1.1 1.2 2.8 2.5 3.7.4.7 1.2-.2 2.6 1.5 2.9-.7 2.1-2.4-.3-3.1 1 1.5 1.4.1.6-1.1 0 4.1 7.9-37.2-15-40.6-16 1.4-1.7-.8-2.6-1.3-.5C62.6 39.9 34.1 21.8 8.7 0H0v600.3h300zm-20.3-435.9c.6 2.1 3.7.1 3.2 2.4-.3-.1-.6-.2-1-.4.2 1.1 1.4 2 1 3.1-3.5 2.7-7.7-10.4-3.2-5.1zm-12.3 8.7c.1.1.5 1 .8.7 0 .1-.2.1-.2.2-.3.2-.5.5-.8.7 0 0-.1-.1-.2-.1-.1-.1-.5-.8-.6-.9l1-.6zm-4.5 2.5c-.3 0-.5-.2-.6-.2l.6.9-.9.6-1.9-2.8.9-.6.6.9.9-.6.6.9c-.4.3-.1.4-.2.9zm-18.8-45.9 1.9 2.8-.9.6-.6-.9v.6c-.5-1-.7-1.8-1.3-2.5.1-.1 0-.2-.1-.4.4.1.7 0 1-.2zm-1.1 8.2c4.1-1.4 3.5 4.4 5.9 6.5 1.8 1.8-.2 4.1.1 6.3-.1 2.2 1.9.3 2.8 1.4 4.7 5.3 7.6 12.2 10.8 18.5-.1 3-2.8-.1-3.7-.9-1.5-.9.7-2.7-1.4-3.5l.5 1.5c-1.4-1.1-2.1-2.8-3.1-4.2l.3.3c0-.7.1-1.1-.5-1.4-.1.1-.1.2-.1.3-.1-.7-.2-1.5-.4-2.2-.2.1-.4.1-.5 0 0 .1.1.2.1.2-1.5-.4-1.7-3.4-2.9-4.7.3.1.6.2 1 .3-1.2-2.5-3.9-4-4-7.4 0-1.1-1-1.2-1.8-1.9.4-1.5-.4-2.3-1.7-2.8 1.5-1.7-2-1.9-1-3.6 1-1.1-.7-1.4-.4-2.7zm-.7 10.7.5.7c1.2-.5 1.4 1.1 2 1.9-.6.2-1.1.4-1.6.6l-3.7 2.5-1.8-2.7 4.6-3zM140.7 68.5l.3.9-1.3.5-.3-.9 1.3-.5zm-27.9-14.1-.3-.8.9-.3.3.8-.9.3z"/><path class="st0" d="m105.3 58 .1-.2c-.3-.2-.6-.3-.9-.4 0 .1-.1.2-.1.3l.9.3zM97.3 49.8c-.6-.2-1.2-.2-1.4.2-.5 1.7 2.3 1.4 1.4-.2zM125.6 68.1c.3-.1.7-.2 1-.3-.5-.4-.8-.4-1 .3zM105.8 57c1.1-.2.3-2-.5-1.5-1.2.3-.5 2 .5 1.5zM102.3 56.7c-.8.2-.9.5-.6.9.7.3.5-.4.6-.9zM27 10.7c-.5-.3-.8-.5-1.2-.7 0 .1-.1.2-.1.3.3.3.4.8 1.3.4zM270.7 185.8c-.3-.2-.6-.3-.9-.5-1 1.1.3 1.7.9.5zM270 198c-.5-.5-.9-.8-1.2-1.1.8-.6.2-1.8-.6-1.2-.3.4-.1.7.2.9-1.7-1.3-1.2.5-2.4 3.1.7.1 1.1.1 1.5.1l-.7.7c2.4.9 3.9-.8 3.2-2.5zm-1.2-1.1c-.1-.1-.2-.1-.3-.2.1 0 .2.1.3.2zM254.5 182c.2 1.5 3.7.1 2.7-1-1.1-.4-1.7.4-2.7 1zM287.3 186.2c-.7 0-1 .3-1 1 .4-.4.7-.6 1-1zM273 203.7c.1.1.4-.1.6-.2-.4-.5-.7-.9-1.1-1.4-.3.9 0 1.3.5 1.6zM264.5 195.7c-.2.2-.3.7-.4 1 .4.1.8.2 1.2.4.1-.4.2-.8.3-1.4-.5 0-.9-.1-1.1 0zM244.3 154.7c-.1 1 .9.8 1.2 0-.5-.4-.9-.5-1.2 0zM245.9 165.5c-1 3.4 3.6-.5 0 0zM245.9 165.5zM251.2 170.1c.2-.8 0-2.1-.8-2-1.5.5-.3 1.9.8 2zM270 198zM277.3 180.6c-1.5-.2-3.9-3.1-4.4-.3.2 1.5 6.2 3.1 4.4.3zM285.7 197.3c-2.8-3.4-5.3-9.3-8.1-11.4 3.3 5.4 6.5 11.2 10.6 15.9-.8-1.7-1.8-2.9-2.5-4.5zM279.8 193.2c-.1 1.3 1.5.9 1.5-.2-1.1-.4-1.3-.3-1.5.2zM285.7 197.3zM291.3 205.8l-1.9-2.8c.2 1.1.6 2.1 1.9 2.8zM277.1 184.1c.1.2.2.3.2.5.1-.1.2-.1.3-.2-.2-.1-.3-.5-.5-.3zM289.6 218.8c.4-.7.2-1-.5-1.1-.2.5.1.8.5 1.1zM292.1 222.2c.2.4.3.9 1.3.9-.5-.5-.8-.9-1-1.2l-.3.3zM278.4 187.5c-1 .1-2.2.1-1.7 1.3 1.2.9 1.5-.1 1.7-1.3zM275.6 194.6c-1-.1-.9.9-.8 1.5 1.3.9 2.4-1 .8-1.5zM233.4 86.6c0-.1 0-.1 0 0-.1-.1-.1 0 0 0zM232 78.4c-.1-1-.8-1.1-1.7-1.1.2.9.9.9 1.7 1.1zM230.3 77.3zM252.7 155.4c.3-.8-.7-.9-1-.2.3.3.6.6 1 .2zM233.5 83.9c-.4-1.1-.4-2.5-1.9-2.3.3 1.1.4 2.4 1.9 2.3zM221 88.2c-.1-.7-.2-1.3-.8-1.8-.8-1.1-1.1-1.8-2.6-1.5 0-.7-.6-1.1-1.4-1.2.4 1.5.9 3.2 1.4 4.6 1.1-.2 2.3-.3 3.4-.1zM237.3 95.3zM210.9 65.1c.9.1 1.8.2 2.7.4.1-2-1.9-1.6-3.3-2 .1.5.4 1 .6 1.6zM116.4 45.3zM237.7 76.1c-.5-1.6-.9-2.6-2.7-2.5.5 1.5.9 2.6 2.7 2.5zM233 97.7c.2.4.4.7.6 1-.1-.4 0-1.1-.6-1zM234.1 68.7c.5.2.9.3 1.4.4-.2-1.4-.7-2.1-2.2-2 .2.6 0 1.5.8 1.6zM95.1 35.1c.3.1.9.3 1.3.4-.2-.7-.7-.7-1.3-.4zM94.5 34.5c-1-1-5.6-3.8-6.6-4 .8 1.4 4.3 3.5 6.6 4zM101.2 37.9c-1.3-1.1-3.1-2-4.8-2.4 1.2 1.5 2.8 2.3 4.8 2.4zM212.2 59.8c-.7-3.9-2.9-7.7-2.1-11.7-2.8-3.6-2.3-8.6-3.4-12.8-.4-1.2-.4-3 .1-4 .8-.7-.4-1.2-.9-.4.1-4.2-1.4-7.3-1.4-11.8.1 0 0-.1 0-.1 0-.1-.1-.1-.1-.2l-.4.2-1.3-1.8.9-.6 1.2 1.8c-.1-.7-.1-2.9-1.1-2.3-.4-.8 1.9-3.5-.3-2.5 0-1.2.1-2.3.1-3.4.5 1.5.9 1.2.6-.2-1.9-2.3-1.8-6.2-1.8-9.9h-2.7c2.1 19.3 4.9 59.8 12.6 59.7zM117.1 46c.1-.1.1-.2.2-.3-.3-.1-.5-.2-.8-.3-.1.1-.1.2-.1.3.2 0 .4.2.7.3zM104.5 40c4 1.2 6.9 5.2 11.3 5-4.3-2.2-8.3-4.3-12.6-5.8.3.5.8.7 1.3.8zM71.3 21.6c-.8-.5-1.3-1.5-2.4-1.5.6.9 1.4 1.3 2.4 1.5zM86.1 29.9c-1.8-1.1-3.4-2.1-5.5-3 1 1.3 4.2 3 5.5 3zM61.6 14.2c-3.7.6-5.8-4.2-9.2-4.8 4.8 4.3 10.1 7.3 15.6 9.9-1.8-2.2-6-2.3-6.4-5.1zM78 25.5c-.3-1.4-3.1-1.8-4.4-2.9.4 2.1 2.9 2 4.4 2.9zM218.4 81.3c0-.7 0-1.4-.5-1.9l-3.6-.6c.3 2.3 2.1 2.2 4.1 2.5zM267.1 91.1c.5 0 1 0 1.5.1-.5-.9-1-.4-1.5-.1zM270.5 91.1v.4l.8-.1v-.2c-.3-.1-.5-.1-.8-.1zM300 89v-2c-18.5.5-37.1-.5-55.5-3.4 16.6 6.2 35.9 6.6 55.5 5.4zM271.3 91.3zM250.2 80.8c-.8-1.1-3.3-.8-4.8-1.1.7 1.2 3.4 1 4.8 1.1zM259.3 89.9h-2.6c.3 1 2 .5 2.6 0zM254.7 89.6c-.4-.5-.6-.4-.9 0 .2.5.4.3.9 0zM253.6 160.4c-.2-.5-.2-1.1-1-1.3.1.5.5 1.3 1 1.3zM75.9 33.6l-.2.1c.1 0 .1 0 .2-.1zM295.5 209.8c-.4 3.6 2.1 6.5 4.5 9.2v-.9c-.5-.7-1-1.4-1.6-2.1.3-1.8-1.9-4.8-2.9-6.2zM262.1 82.3v-.2c-.3 0-.6-.1-.9-.1v.2c.3.1.6.1.9.1zM295.5 83.1c-1.3-.1-2.5.1-3.8.2 1 .9 1.4.8 3.8-.2zM296 83c.1.6 1.6.4 2.1.6-.3-1-1.2-.7-2.1-.6zM240.1 89.5c.3 1.6 1 2.3 2.6 2-.5-1.8-.5-3.6-2.8-3.2 0 .4 0 .9.2 1.2zM238.7 79.8c0-1.2-1.1-1.1-2-1.3 0 1.3 1 1.2 2 1.3zM240.3 85c-.4-1.3-.6-2.5-2.2-2.4.4.7.1 1.5.5 2.1.6.1 1.1.2 1.7.3zM287 83.7zM280.6 83.6v-.3c-5.6-.5-11.4-.8-17.1-.9 5.3 1.1 11.5 1.5 17.1 1.2zM237.3 95.2zM260.9 82.2c-2.5-1.2-5.6-.8-8.3-1.3 0 .1 0 .2-.1.3 2.8.4 5.6 1.6 8.4 1zM281.9 83.2c1.7.9 3.4.7 5.1.4v-.3l-5.1-.1z"/></svg>