<svg version="1.1" id="a" xmlns="http://www.w3.org/2000/svg" x="0" y="0" viewBox="0 0 300.2 599.8" style="enable-background:new 0 0 300.2 599.8" xml:space="preserve"><style>.st0{fill:#fff}</style><path class="st0" d="M283 537.4c.2 1.9 2.6.4.9-1-.4.5-.8.7-.9 1zM292.1 547.5c.3.8 2.3 2.5 3.5 3-.6-1.5-1.9-2.4-3.5-3zM282.1 540.1c1-1 1-1.3-.2-1.8-.5.6-.4 1.2.2 1.8zM231.8 494.4c.1.2.3.4.4.5l.3-.3c-.2 0-.5-.5-.7-.2zM269.9 529.1c-.4-.3-.9-.6-1.4-.8 1.5 1.6 3.9 3.9 6 4.2-1.6-1.2-3.2-2-4.6-3.4zM280.1 537.2c.1-.1.2-.1.2-.2-.2-.3-.5-.6-.7-.8-.3.6 0 .8.5 1zM268.5 528.2zM266.7 400c1.6-.3 3.3-1.1 4.5-2.2-1.8.1-3.3.9-4.5 2.2zM286.7 391.2c-1.5 0-4.6 1.4-5.4 2.4 1.9-.7 3.6-1.4 5.4-2.4zM273.1 397.1c1.3-.1 6-1.9 6.7-2.6-1.5-.2-5 1.1-6.7 2.6zM272.3 397.1c-.2.2-.8.5-1 .7.6.3.9 0 1-.7zM296.1 551c.2.2.4.3.5.5l.1-.1c-.1-.2-.2-.5-.3-.7l-.3.3zM268.4 528.2c-7-6.1-10.3-6.7-.7-.2.2.1.4.1.7.2zM289.2 390c1.2.6 3.1-1.2 4.7-1.5-1.8-.9-3.2.9-4.7 1.5z"/><path class="st0" d="M300 550.1s.1.1 0 0c.6-10.6-110.1-84.7-117.6-76.4 19.9 7.4 37.9 18.9 55.4 30.5 22 13.6 43.2 28.4 62.2 45.9zM295.9 387.4c.9-.3 1.9-.1 2.5-1-1 0-1.8.3-2.5 1zM185.2 478c-.6-1.1-.9-1.2-3.4-1.2 1 .6 2.1.8 3.4 1.2zM296.3 540.9c.4.4.7.8 1.1 1.2.7-.2-.8-1.2-.8-1.4l-.3.2z"/><path class="st0" d="M186.7 469.4c3.2 1.7 7.3 2.3 9.8 5.1 4.3 0 7.7 3.2 11.5 4.8 1.1.4 2.4 1.4 2.9 2.4 0 1 1.2.4.8-.4 2.8 2.3 6.5 3.4 9.5 5.8 0 .1.2.1.3.1v-.4l2.1.1-.1 1-2-.1c.5.3 2.2 1.6 2.3.5.8.2 1.5 3.4 2 1.2.8.7 1.6 1.4 2.4 2-1.4-.5-1.4 0-.2.6 3.9-.1 8 4.8 11.9 6.6-.1.2-.2.3-.4.6 3.8.5 6.1 3.8 9.7 5.2-.1 2.4 5.8 3.1 7.6 5.1-3.9 0 1.8 1.3 2.7 1.7-.3.2-.5.3-.8.5.6.5 2.5 2 1.4.4 2.6 1.3 4.2 2.8 6.6 4.2.6.8 2.3.9 2.5 2.2.1.5.5.7.9.6 1.3-.4 1.5 1 2.4 1.5 2.9 1.9 5.3 4.1 8.3 6.4-.9.5.1 1.1 1.1.7-.1-.2-.1-.3-.2-.4 1 .2 1 1.3 1.8 1.8.8 1.1 2.1 1.2 3 2.3-1.4 1.4 3.5 1.1 3.6 2.9h.2c0 .2-.1.5-.1.7 4.1 1.5 6 5.6 9.7 7.8h-.9c0 .7.6.6.9.8.8-4.1-1.6-5.8-4.4-8.3-5-4.2-9.9-8.2-15.2-12.1-9.4-8.2-21.8-14.3-30.4-21.9-8.4-3.1-58.7-39.8-63.2-32z"/><path class="st0" d="m291.9 536.7.7.6c.1-.1.2-.2.2-.3-.3-.2-.5-.3-.8-.5l-.1.2zM236.2 488.3c-.4-.2-.6-.4-1.1-.6.3.4.7.6 1.1.6zM289.6 534.4h-.6c.6.7.9.3 1.2.1-.2-.1-.4-.1-.6-.1zM240.9 491.9c-.1.2.3.3.4.5.3-.3-.2-.6-.4-.5zM201.7 469c.6.6 1.1.8 1.9.7-.5-.7-1.1-.8-1.9-.7zM208.3 472c-.6-.4-1-.6-1.5-.9.5.6.9.9 1.5.9zM241.5 500.8c.6.5 1.1.8 1.7 1.2-.4-.9-.7-1.2-1.7-1.2zM236.4 497.6c.4.6.9 1.1 2 .9-.8-.6-1.4-1-2-1.4-.2.1-.2.3 0 .5zM258.4 521.5c.4.2.8 1 1.1.5-.3-.2-.6-.4-1-.7 0 0-.1.1-.1.2zM267 517.8c.5.3.8.5 1.1.7.5-.5-.2-.9-1.1-.7zM271.9 521.4c.3.2.7.4 1 .6.1-.1.1-.2.2-.3-.3-.2-.7-.4-1-.6-.1.1-.1.2-.2.3zM270.4 520c.5.2 1 .8 1.2.3-.1-.4-.7-.6-1.2-.3zM246.2 504.1c.7-.7-.6-1.1-1.2-1 .4.3.8.7 1.2 1zM219.7 495.9c.2 1.2 2.6 2 3.7 2.7-.2-1.3-2.6-2.1-3.7-2.7zM223.5 498.3zM212.1 490.8c-.2-.1-.5-.1-1-.2 1.6 1.6 4.8 3.6 6.8 4.1-1.8-1.5-3.8-2.7-5.8-3.9zM217.8 494.9zM254.5 517.9c-1.9-.9-3.4-3.2-5.6-3 2.7 1.6 4.9 3.9 7.8 5.2.1-.6-.2-1-.6-1.2-.6-.4-1.1-.7-1.6-1zM241.4 492.2zM244.1 511.7c-1.3-1.3-2.8-2.4-4.5-3.1 1 1.7 2.9 2.3 4.5 3.1zM231.4 503.5c1.9 1.7 5.4 4.5 7.7 4.4-4.8-2.4-8.9-7.4-14-8.7 1 1.1 2.4 1.5 3.5 2.4.9.7 2 1 2.8 1.9zM232.2 430.6c.2 1.4 1.9.3 2.3-.5-.4-1.3-2.3-.5-2.3.5zM290 525.4c0 1 1.6 1.1 1.6 0 .2-1-1.5-1.2-1.6 0z"/><path class="st0" d="M198.6 451.9c-2.6 3.1-5.9 5.8-9.2 8.5 6.8.1 11.8-13.6 19.4-11.4.5-.4.2-.8.1-1.2-5.1.9 3.6-5 4.7-5.5 3.3-3.1 6.6-1.3 1.8-.2.2 2.2-.3 3-2.5 3.9.4.2.7.4 1 .6-6.3 5.3-12.8 10.4-19.1 15.8 37.6 18.1 72.9 41.8 105.4 68V400.7c-23.3 9.4-46 20-67.4 32.8-1-2.5-1.5-1.3-3.3-.8 19.2-17.5 49.8-24.2 70.7-37.2-29 11.4-58.2 24.9-83.3 42.8-1.1-1.7-3.3-.6-1.3.9-2.6 1.4-4.4 4.3-7.5 4.8.7-.7 1.5-1.4 2.2-2.1-1.9-2.2-6.5 1.7-4.8 3.9.7 1.1-5.6 6.1-6.9 6.1zm29.7-20c.1 1.8.1 2.7 1.7 3.2-11.2 10.1-15.5 4.1-1.7-3.2zM263.2 401.2c-3.2 2.3-7.8 2.1-10.1 5.5 4.1-1.9 8-3.6 11.5-5.9-.5 0-.9.2-1.4.4zM202.6 485.4c-2.3-1.2-5.6-3.1-7.9-3.3 4.6 2.5 9.5 5 14.2 7.3-1.5-1.7-4.6-2.2-6.3-4zM210.8 490.6c.3-.3-.4-.4-.6-.6 0 .1-.1.1-.1.2.2.1.4.3.7.4zM189.3 479.4l-.1.2 4.3 2.1c-1.1-1.4-2.6-1.9-4.2-2.3zM268.5 528.2zM129.4 507.4c-1.3.7-3.2 2.4-3.1 3.7l3.1-3.7zM121.5 518c-.4-.3-1.2 1-1.7 1.2 1 .3 1.2-.6 1.7-1.2zM126.1 510.9z"/><path class="st0" d="M118.9 520.7c.8-.4 1.1-.9.9-1.6-.3.5-.5 1-.9 1.6zM121.7 517.5c.8-.9 1.3-1.9 2-3-1.2.3-1.4.7-2 3zM118.7 521c-.5-.1-.4.7-.1.6 0-.1.1-.3.1-.6zM109.5 534.6c2.3-3.5 4.3-6.5 6.7-9.8-2.2 1.5-6.5 8-6.7 9.8zM118.4 521.7zM153.2 474.5c-.4.4-.8.7-1.2 1.1 1.2.5 2.2 1 3-.2-.7 0-1.2-.7-1.8-.9zM108.1 536c.8-.3 1-.5 1-1.4-.6.3-1 .7-1 1.4zM154.9 469.6s-.1 0 0 0c-.1.1-.1.1 0 0zM153.2 457.1c-.1-.4-.4-.1-.7.1.1.1.2.2.2.3.3-.2.4-.3.5-.4zM129.9 506.2l.2.2c3.6-3.8 7.1-8 10.5-12-3.9 3.2-7.7 7.5-10.7 11.8zM150 469.3c1.1.4 2.2.8 3.3.9.3-.2.5-.5.8-.7-1.6-.3-2.9-2-4.1-.2zM154.4 480.6c-.2-.1-.3.2-.4.3.1 0 .2-.2.4-.3zM148 487.1l-.2-.2c-1.9 1.8-4.4 3.2-5.6 5.6 2.4-1.2 3.8-3.7 5.8-5.4zM142 492.7l-.6.6.2.2.6-.6c-.1-.1-.1-.2-.2-.2zM89.9 564.8l-1.4 2.8c-1.8-3.8-3.3-.7-.7 1.1-.3.7-.9 1.3-.4 2.2.5-.3.9-.6 1.5-1-1.3-1.6 1.9-3.2 1-5.1zM86.3 565.7z"/><path class="st0" d="M98.6 559.8c16.8-28.2 36.4-55 60.7-77.4-36.7 26.5-62.7 75-82.2 117.3h2c5.7-13.7 11.9-27 19.5-39.9z"/><path class="st0" d="M108 536.1c-.8.5-1 1.3-1.3 2.2 1-.9 1.2-1.2 1.3-2.2zM74.6 598.7c.7-2.8 3.2-5.6 3.5-8.3-1.6 1.3-1.7 5.2-3.8 5.2-1.2 0-.9 1.3.2 1.5-.2.6-.1 1.1.1 1.6zM9.2 443.2c12.5-.8-4.1-.5-9.2.1v.6c3.2-.2 6.2-.5 9.2-.7zM57.4 596.8c-1-.2-1.2 1.4 0 1.5.8-.2.9-1.2 0-1.5zM78.8 589.5c.4-1.2 3.6-7.5 1.7-5-1.4-1.8-2.6.8-.8 1.2-.2 1.2-1.2 2.5-.9 3.8zM97.8 552c-.1.2-.7.7-.2.8l.4-.6-.2-.2zM104.4 541.9c-2.2 2.2-3.6 4.5-4.8 7.2 1.5-2.3 4.1-4.5 4.8-7.2zM106.3 538.7c-.4.4-.7.9-1.1 1.3.1.1.2.1.2.2.4-.4.7-.8 1.1-1.3l-.2-.2zM252.5 407zM84.9 572.3c-1.5.5-.1 2.3.3 3.2.7-.6.8-1.8 2.3-1.4-.7-.9-1.3-1.2-.8-2.1-.1 0-.1-.1-.2-.1-.2.6-.5 1.1-.8 1.8-.3-.6-.5-1-.8-1.4zM83.8 578.3c.3-.8 1.1-1.4 1.1-2.5-1.4 1-1.2 2.9-2.7 3.6.1.4.2.8.3 1.3 1-.7.9-1.6 1.3-2.4zM95.8 555.2c-1 2.4-4.3 4.8-3.9 7.3 1.2-2.4 3.4-4.7 4.2-7.2l-.3-.1zM226.2 421.3zM221.1 423.2zM222 424c-.2 0-.5.1-.8.2.1.1.1.2.2.4.2-.1.4-.3.6-.4.1-.1 0-.1 0-.2zM154 481zM205.6 432.5c-.3-.1-.7.2-1.3.3.7 2.3 2.9.7 1.3-.3zM217.1 427.5c.8-.1 2.9-1.6 3.8-2.7-1.7.3-2.9 1.3-3.8 2.7zM207.5 435.5c-.7-1.2-1.1-1.3-1.8-.2.5.6 1.1.7 1.8.2zM228 420.5c-.1-.1-.1-.2-.2-.3-.2.1-.5.3-.7.4.1.1.1.2.1.3.3-.2.5-.3.8-.4zM241.7 412.4c.6.1 1-.1 1.6-.5-.8-.4-1.2-.1-1.6.5zM247.8 409.4c1-.6 2.3-.7 3-1.9-1 .7-2.3.8-3 1.9zM252.4 406.8c-.2.1-.5.2-.7.4.1.1.1.2.1.3.2-.1.5-.2.7-.4-.1-.2-.1-.2-.1-.3zM232.3 418c.8-.4 1.6-.3 1.6-1.5-.8.2-1.3.5-1.6 1.5zM204.1 436.7c-.1-.1-.1-.2-.1-.3-.3.2-.7.3-1 .5.6.5.9.2 1.1-.2zM236.4 415.5c1.3-.4 2.2-.9 3.1-1.6-1.3-.1-2.3.2-3.1 1.6zM226.2 421.3c-.9-.7-3.7 1.4-3.3 2.2l3.3-2.2zM221.1 423.2c0-.1-.1-.3-.2-.4-.1 0-.2.1-.4.2.3.2.4.5.6.2zM182.1 444.8c.4-.4.7-.6.9-.9-.3-.6-.9 0-.9.9zM187.7 440.1l-.3-.3c-.3.3-.6.5-.9.8l.3.3c.3-.2.6-.5.9-.8zM207.1 424.4c-.2.2-.5.4-.7.6.1.5.7-.3.9-.3-.1-.1-.2-.2-.2-.3zM156.9 467l.2-.2c-.4-.2-.8-.4-1.1-.6 0 .1-.1.2-.1.3.3.1.6.3 1 .5zM149.4 485.4c1.2 0 2.5-2 3.5-2.9-1.2-.2-2.6 1.9-3.5 2.9z"/><path class="st0" d="M176.9 455.2c33.8-34.9 82.6-54.5 123.2-74.8-45.7 17.2-89.4 40.1-125 74 .6.3 1.1.6 1.8.8z"/><path class="st0" d="M192.7 445.7c1.9-1 4.7-2.8 5.4-4.8-1.6 1.8-3.7 3.1-5.4 4.8zM212.9 420.8c-.5.2-1 .5-1.4.7l.2.3c.5-.3.9-.5 1.4-.8-.1 0-.2-.1-.2-.2zM183.7 457.6c9.4-.7 18.6-19.2 28.8-19.9 1.4 1.3 1.2-.9.6-1.7 1.2-1.8 3.3-2.6 4.8-4.2.4 1.5 2.7.4 1.5 2 .6.2 1.1.3 1.7.5-.3-1.4.1-2.6-1.6-2.6 23.1-19.2 57.4-27.8 80.5-42.7-32.1 10.2-62.5 31.4-90.9 44.5 1.5-1.7 3.6-2.5 5.1-4.2-1.7.5-2.8 2-4.3 2.8-.2-.5-.4-1-.7-1.5-1.3.6-1.2 1.1-.6 2.2-2.2 1.5.2 2.3 1.8 2.5-.6 1.9-1.8-1-2.8 1.7-6.6 6.1-16.1 13.9-23.9 20.6-.1 0 0 0 0 0zM290.8 552.1c3.2 2.7 6.4 5.4 9.3 8.5-.2-3.7-4.8-6-7.2-8.1-3.8-3.4-7.7-5.8-8.3-10.6 2 1 3.3 2.8 5.3 3.9-.9-1.5-2.6-2.3-3.8-3.5.4-.3.8-.7 1.3-1.1-.9-1.2-1.3-.9-2.3 0-2-1.8-2.2.8-2 2.3-12.9-10.8-31.6-23-47.5-33.4-18.3-11.7-38.6-26.2-59.1-31.1 34.9 14.2 66.3 36.5 97.1 58.7 2.3 2.6 9.2 4.4 7.5 8.5 0 .5.4.7.8.5 2.3-2.1 4.3 2 6.5 2.8-1.3.7.3 2.7-1.5 1.9v1.8c1.3-.7 2.5-.5 2.1-2.2.7.1 1.1.6 1.8 1.1zM222.7 414.4c-.2-.3-.6.3-.9.4.1.1.1.2.2.3l.7-.7zM192.6 445.9c-9.1 6.3-7.2 7.7 0 0zM237.4 406c.8 0 1.3.1 1.4-.9-.5.4-.8.6-1.4.9zM250.8 399c.5-.2.8-.4 1.1-.5-.5-.1-.8.1-1.1.5zM245.8 401.6c-.7.2-.5.6.1.2-.1-.1-.1-.2-.1-.2zM167.9 467.6c1.1.6 1.6-1 2.4-1.6-.8 0-1.6 1.1-2.4 1.6zM129.7 495c.2-.2.3-.4.5-.6-.1-.1-.2-.1-.3-.2 0 .2-.6.8-.2.8zM129.5 494.9zM132.1 491.9c-.3.4-.6.7-.9 1 .9.2.8-.4.9-1zM95.4 540.6c.1.2.1.3.2.6.2-.1.3-.1.3-.2-.1-.3-.1-.7-.5-.4zM79.4 554.2c.4-.3.7-.6.2-1.1-.4.4-.5.7-.2 1.1zM137.5 486.9c.6-.7 1.1-1.3 1.5-1.9-1-.3-1.6 1.1-1.5 1.9zM120.2 494.8c-.8.3-1.1.8-1.1 1.7.7-.5 1-.9 1.1-1.7zM140.3 483.6c.6-.1.6-.2.6-.7-.6 0-.5.2-.6.7zM90.5 548.9c.3.2.4-.4.9-.8-.4.1-.6.2-.8.2 0 .2 0 .4-.1.6zM90.6 548.3zM94.4 542.6c.7-.2.5-.6.6-1-.4.3-.6.6-.6 1zM95.1 541.6c-.1-.1-.1 0 0 0-.1 0-.1 0 0 0zM95.1 541.4zM95 541.5s0-.1 0 0c0-.1 0-.1 0 0zM123.5 490.8l-1.2 1.2c.7-.3 1.1-.7 1.2-1.2zM146.1 467.6zM149.8 473.5c-.3-.2-.7-.5-1-.6-1.3-.6-2.2-.6-3 .8 1.7.7 3 1.7 4-.2zM146.2 467.5zM134.8 451.8c.4.1.8.1 1.2.2.2-.6-.7-.9-1.2-.2zM146.8 463c-.3-.1-.7-.1-1.1-.1.4 0 .8.5 1.1.1zM141.7 461.8l.7.3c0-.1.1-.2.1-.2l-.7-.3c0 .1-.1.2-.1.2zM95.7 450.8c-.7-.1-1.2-.2-1.2-1.1-.6-1.7-1.6.8-2.8 1.1 3.7.6 14.3 2.6 4 0zM138 460.4c-2.4-.4-4.5-2.2-7.1-1.9.5.8 10 3.5 7.1 1.9zM85.9 462.9c.4-.7 0-1.1-.4-1.4-1.9-1.6-.9.5-1.1 1.7.6-.1 1-.2 1.5-.3zM105.8 451.3c0 2.5-2.9.3-4.2 1.2 2 0 4.8 1.4 6.3.7-.3-.1-.7-.2-1.1-.3.7-1.3.6-1.5-1-1.6zM86.1 557.1c.2-.4.3-.7.5-1.1-.5-.3-1.1.5-.5 1.1zM143.8 454.3c.2.1.5.2 1 .5-.2-.4-.3-.5-.4-.7-.2 0-.6-.1-.6.2zM116.7 455.5c.7.6 1.9.4 1.9 1.9.7-.9.8-1.6 1.9-1.3v-.2c-.6-.1-1.2-.2-2-.3 2.5-1.8-.5-2.1-1.3-.5-.1-.2-.3.3-.5.4zM110.8 454c1.9.9 3.4.9 5.4 1.1-1.8-.7-3.8-2-5.4-1.1zM56.3 429.9c0-.3-.3-.6-.5-.9-.3.2-.6.5-1 .7.2.3.5.6.8 1 .4-.3.8-.6.7-.8zM45.6 431.5c-.1 0-.1.3-.2.5H47c-.4-.6-.9-.6-1.4-.5zM26 435.4c-.3-.5-.7-.4-1.1-.2.3.6.6.7 1.1.2zM53.3 430.5c-.2-.5-.5-1.1-.8-1.8-.4.5-.7.8-1 1 0-.3-.1-.6-.1-1-2 1.4-1.6 3.4 0 3.9 1.6.1 4.9-1.2 1.9-2.1zM59.9 439.1c0 .4.1.7.2 1.1 1.1-.2 1-1.6-.2-1.1zM49.2 438c.3.7.9 1.3 1.5.7.7-.6-.1-1.2-.7-1.5l-.8.8z"/><path class="st0" d="M54 432.2c-1.2-.2-1.1 1.1 0 1 .4-.2.3-.8 0-1zM89.3 433.5c0-1-1.7-.9-1.5.3.4.7 1.4.7 1.5-.3zM89.3 433.5zM72.1 432.2c.1-.5.1-1.1.2-1.8-1.3-.7-2.2 2.7-.8 2.6.2-.2.5-.5.6-.8zM97.8 438.3c-.6.2-.4.6-.2 1.1.8 0 1-1.1.2-1.1zM84.2 434c-.5.3-.8.5-1.3.8 1.1 1.7 3.1.4 1.3-.8zM84.8 435.4zM39.9 451.8c1 0 1.1-1.6.1-1.6-1.1-.1-1.1 1.7-.1 1.6zM69.2 595.6c0-.5-.4-.5-.8-.5-.2.6.5 1.2.8.5zM4 451.1c-.3-1.2-1.2-.7-1.9 0 .7.8 1.6 1.3 1.9 0zM50.1 450.9c.1.5.1.8.2 1.3.4-.5.3-.9-.2-1.3zM65.1 589.7c-.2-.5-.8-.6-1 0 .1.8.9.7 1 0zM71.6 586.6v-.2c-.4.1-.4.1-.4.6l.4-.4zM21.9 443.3c1.2 1.2 4.7 1.4 6.3 1.4-3.2-3.1-8.4-1.9-12.4-1.7 2 .2 4 .3 6.1.3zM60.2 448c1-1 4.6-1.1 2.7-3-1.1-.8-6 2.7-2.7 3zM33.5 443.9l3.1.2c-.9-.5-1.8-.8-3.1-.2zM19.5 435.5c.6 0 1.1-.1 1.5-.1v-.4c-.5 0-.9-.3-1.5.5zM55.1 443.6c-.5-1.8-2.4.1-.7 1.2.3-.5.6-.8.7-1.2zM57.7 445.8c-.2 0-.3-.1-.5-.1v.3c.1 0 .5.1.5-.2zM39.1 443.5c-.2 0-.4.1-.8.3 1.6.4 3.1.4 4.7.7 4.1-.1 9.9 1.5 13.1.6-5.7-.9-11.3-.9-17-1.6zM48.5 442.5c-.6.4-.1.9.1 1.4 1.6-.7.8-1.9-.1-1.4zM172.9 477.4c.2-.2.5-.4.7-.6-.9-.5-1.6-1.1-2.3 0 .5.1 1.1.3 1.6.6zM164.7 464.1zM175 465.6c1.6.7 3.2-.9 4.5-2.2-.1 0-.2 0-.3-.1-2-1.2-3 .7-4.5 1.9.2.2.2.3.3.4zM156.7 477.5c.9.7 1.4-.1 2.1-.7-.9-.8-1.4 0-2.1.7zM173.1 482c-.4.4-.9.8-1.3 1.2 34.7 13.7 65.6 35.9 96 57.1 1.9.3 1.3 5.5 2.5 4.4.6-.3-.9-2.9 1.1-1.7 2.5 2.7 7.9 4.8 8.3 8.4-2.3-2.2-4.1-.8-6.4-3.5-.1.5-.1 1.3-.7 1.1-6-4.8-12.3-9.3-18.5-14-26.9-17.6-53.6-37.4-84.3-48.2-35.5 26.5-62 71.6-80.8 112.9h210.9v-25.3c-3.3-3.5-6.6-6.7-9.9-10.3 2.2-1.6.9-1.7-.1-3.4 4.6.8 6.8 5.3 10 8.2.5-3-2.9-4.6-4.7-6.7-4.2-4.7-9.2-8.5-13.7-12.5 1.4-1.5-.2-3.3-1.2-1.1-2-2.2-5.3-3.3-6.4-6.1.9.5 1.7 1.1 2.6 1.6 1.7-2.4-3.2-5.9-5-3.7-2.2.2-4.9-2.7-6.8-4.1-28.4-20.3-58.7-40.9-91.6-54.3zm108.4 69.5c3.4 2.4 5.7 5.4 9.1 7.9-3.2.1-2 4-4.3 1.4-2-2.7-8.7-5.5-4.8-9.3zM157.6 470.5c-.3.3-.6.5-.8.8 1.1.4 2.1 1.1 2.8-.1-.7-.3-1.4-.5-2-.7zM165.7 470.2c.1-.2.3-.3.4-.5-.4-.2-.5.1-.7.4 0 0 .2 0 .3.1z"/><path class="st0" d="M292.8 562.8c-1.3.5.2 1.9 1 2.1 1.2-.6 0-2.2-1-2.1zM163.3 466.1c1.3 1.3 2.2-.6 3.3-1.4-1.7-1-2.6-.2-3.8 1.1.1.1.3.2.5.3zM161.6 473.3c.8.4 1.3 0 1.8-.6-.7-.4-1.2.1-1.8.6zM138.1 510.3c-21.9 27.3-40.7 57.1-54.6 89.4 21.4-39.8 45.4-84.3 81.7-115.1-9.7 3.6-18.6 17.7-27.1 25.7zM160.1 478.9c1.4.6 2.5.9 3.4-.6-1.4-.5-2.5-.8-3.4.6zM159.8 464.7c.5.3.9-.5 1.4-.7-.8.1-1.2.3-1.4.7zM160.4 467.9zM163.4 472.7zM160.5 467.9c.5.7.8.9 1.6.6-.4-.4-.9-.7-1.6-.6zM215.4 484.7c.9.4 1.6.7 2.2 1 0-1-1.5-1.3-2.2-1zM177.6 471.3c1.3 1 1.9-.3 2.9-1.1-1.3-.9-2 .3-2.9 1.1zM205.5 479.1c.2.1.4.2.7.3.1-.1.1-.2.1-.3-.1 0-.8-.4-.8 0zM297.3 550.4c.1-.1.2-.2.4-.3l-.3-.3c-.2.3-.4.5-.1.6zM221.4 487.2h-.1c0 .3 0 .6.3.7-.1-.2 0-.7-.2-.7zM219.2 486.6c.2.6.3.5.8.4-.1-.5-.2-.4-.8-.4zM112.3 439.8v.3l-1.7-.1 1.3 1.3c.3-.4 2.1-1.8.8-1.9h-.1c0-.4 0-.8-.2-1.1 0 .2-.2 1.1.2 1.1-.1.1-.2.2-.3.4zM179.9 456.2c.9.6 1.4-.1 2-.9-.3-.2-1.1.2-2 .9zM180.2 475.6c-.1.1-.3.2-.4.4.4.3.9.4 1.4.6.3-.4-.8-.7-1-1zM300.1 553.9c-.6-.6-2-2.3-2.7-1.7l2.7 2.4v-.7zM182.2 467.4c1.2.9 2-.9 2.9-1.5-.5-.2-1-.2-1.5-.5l-1.8 1.8c.1.1.3.2.4.2zM300.1 386.2v-.2l-.6.3c.2-.1.4-.1.6-.1zM183.5 453.8c.1.1.1.1.1.2.3-.3 1.1-.5.7-1-.2.3-.5.5-.8.8zM209.1 480.6l-1.2-.6c.1.9.7.7 1.2.6zM266.9 381.9c.5.6.9 1.1 1.5 1.8.2-.9-.7-3.6-1.5-1.8zM260.2 390.4c.5-.3.8-.7.6-1.2-1-1.3-2.4.9-.6 1.2zM282.4 375.5c0-.3-.2-.5-.3-.7-2-.2-.5 2.7.3.7z"/><path class="st0" d="M.1 426c11.8-.1 25-1.8 36.1 1.1 3.2-2.8 2 3.1 2.8 4.4 2.1 1.5 2.1-2 1.8-3.4 2.2-1.9 7.4-.1 10.6-.3 8.4-.3 18.9 1.9 27.9 3.2 2.1-.6 5 3.5 5.2.6 5 1.1 10.3 1.2 15.2 2.6-2.1.6-4.9 3.8-.9 2.6.6 1.3-.5 2.5-.1 4-6.4-1.3-13.2-1.8-19.5-3.1-.5-2.1-2.9.3-4.5-1.4-.9-.7-1.7-1.9-2.8-.6-.9 1.2-2.2-.8-3.1.5-1.3 1.2-1.2-.6-.2-1.1 1.1-1.2-1.2-1.9-1.9-.9h.1l-.1 1c-.1 0-.4-.1-.4 0 0-.1-.6-.1-.6-.1.1-1.4-.6-3.4-2.4-2.3 2.7 3.6-4.3 2.4-6.1 2.1-2.2-.8-4.7 0-7-1.1.4-1.5-.8-.2-1.3.1-2-.8-4.6 1-6.1-.7-.5-1.2 1-3.3-1.9-1.9 3.9 4.5-5.2.4-7.4 1.9-1.5-.2-2.8-1-4.3-1.2-1.1.9-2.4 0-3.6.6-7.4-1-15-.7-22.5 0-3.6-.3-3.2 0-2.9 3.3v-1c1-.2 7.6-.4 4.9.3 1.1.7 1.7.3 2.2-.7 1.2-.1 2.6-.5 3.7.2l-.5.5c1.1-.1 3.2 0 1.4-.7 2.2-1.1 4.6.1 6.6.1 3-.9 6.4.3 9.5.1-.2.2-.3.3-.4.5 1 .9 1.8-.6 2.8-.6 1.4.2 1.1 1.7 2.8.6-.5-.2-.9-.3-1.2-.5 1.4-.5 1.2.8 2.3.8 1.3-.4 1.3-.4 2.1.7 1.4-.9 2.5-1 4.3-.6-.2.1-.3.2-.5.3.4.7.7.5 1.2 0 .4 1.4 1.6.4 2.7.2-.3 1.8 2.9.8 4.2.8-.6-.6-1.2-.3-1.8-.6 1.1-.1 2-.1 3-.1 0 .3-.5.1-1 .3.6.3 1.1.8 1.5.4 1-1 2.4 1.1 3.8.8.1-.9-.6-.8-1.1-1 1.3.3 2.6.3 4 .2-.3.2-.5.3-.8.5 1.2.2 2.2.5 3.4.7-.1-.2-.3-.4-.5-.7.3 0 .7 0 .7.1 1 1.4 3.3-.8 3.4 1.6.1 1.2 2 .6 1.5-.4-.3-1.8 1.4-.4 2.1-.1.6-.1 1.1.1 1.4.8.3.6.6.5 1.1-.2 3.8 5.2-11.7.4-14.3.9-18.1-1.8-36.4-3.5-54.6-1.9v2.1c15.4-2.2 30.9-.3 46.4.9 4.2.9 22.6 0 22 3.5.7.1 1.2.2 1.8.3l-.6 1.2c-.5-.3-.9-.5-1.5-.9l.3 1.8c-.6-.5-1-.9-1.4-1.3-.1 2.9-.2 2.2-2.6 1-3 2.6-7.3 1.9-10.8.9-9.7 1-50.7-6.7-53.7.6 13.6-2 27.2-.7 40.8.4 3.7.8 7.2.1 10.9.7.7 3.8 3.9.5 5.3 2.8.4-1.3 1.4-.9 2.3-1.1-.3 1.5 1.5 1.3 1.7 2.5-.7 1.5-3 1.2-4.4 1-5.5-1.1-10.9-1.4-16.4-1.5-13.2-1.2-26.8-2.3-40.2-.8v1.5h1c.1.9-.4.9-1 .6v145.1h53.7c2-4.3 3.3-9 5.6-13.2-.1 1.4 2.1 5.7 2.2 2.3-.1-2.2 2.6.5 3.8.3-1.4 3.1-3 7-4.3 10.6h4.3c-.7-1.5 1.3-3.4 1.6-4.9.1.3.2.5.3.9.7-.4.4-1.3.6-2 .5-3.9 4.5-6.6 4.1-10.4 2.4-.2-.1-2.3 2.1-2.8 1.4.1.7-1.3 1.8-1.9 3.4 2.4-1.6 5.7-1.7 9-.3 1.6-6.6 2.4-4.3 4.5 1.4 2.3-.1 5.1-1.4 7.7 3 .8 3.5-4.9 4.1-5.8 1.1.2 2.6-.3 1.1-1.8 1.5-2.9 2.1-7.6 4.9-9.3.8-.7-1-1 0-1.8 1.7 2.5.6-2.5 1.5-3.4 1.4 3.2 3.1-2 4.4-2.9-7-.2 13.3-28.3 15.4-32.3 14.2-22.6 30.8-44.4 50.7-62.9-28.6 17.6-46.2 56.8-66.6 83.9.4 2.4-4.3 15.1-7.6 11.2 5 .5.1-4 2.9-6.3.1.3.1.4.2.6.7-.2.8-1.4 1.5-1.7 1.6-.6.4-2.5 1.5-3.4 1.1-1.9-1.4-1.4.4-3.6 1 .4 1.8-.8 1.3-1.8l1.8-3.1c1.5.2 1.9-5.1 4.1-5.3-.7-1.5.8-1.5.6-3 .6-.3 1.5-.5 1.3-1.4.2-1.4 1.4-2.7 2.5-3.8.1-2.2 3.5-2.4 3.2-4.4-.2.2-.3.5-.6.8-.2-1.2 1.2-1 1.4-2-.2 0-.4-.1-.8-.1.6-1.8 2.9-2 3.1-3.9.1-1 .6-1.8 1.4-2.4 0 .1-.1.3-.1.6 2.1-2 2.7-5.3 4.8-7.9 4-1.4 4-6.7 7.5-9.8 5-5.7 10.8-15.2 17.6-21.4.6-.1.8-1.2 1.6-.9 1 .2.6-1-.2-.9 3-2.1 4.8-5.5 7.9-7.8h.4l-.4-.1.6-1.9c.1 0 .5.1.5.2l-.6 1.9c.8-.2 1.4-1.3 1.8-2-.2-.1-.3-.1-.4-.2.3-.7 3.7-.6 1.7-1.6.2-.2.5-.4.7-.5-21.3 7.4-55.9 66.2-68.3 88.4-.2 2.6-5.9 6.2-2.4 2-2.9-2.7-4.6 2.6-3.2 4.5l-2.1.6c2.2 3.1 2.3 5.7.1 8.9-.3-.5-.5-.7-.7-1 1.2-.9 1.2-1.2.1-2.6-.4-.2-.9.6-1.3-.1.8-.5 1.6-1 2.6-1.5-.3-.5-1.3-2.5-1.7-1.1l.6.2-.6 1.8-1.5-.5.5-1.6c-4.8-.3 1.5-7.5 2.2-10.1.3.3.7.6 1.1 1 12.8-33.9 38.8-65 64-92.1-15.4-5-31.2-7.8-47.2-10.2-4.2-1.5-9.6-.4-13-3.3.5-1 .6-1 1.9-.1.7-3.5 9.4-1 11 .5 3.5-1.9 8.3 1.1 12.2 1.1 9.5 1.9 19.1 3.2 28.4 6 3.4.7 8.1 4 10.9 1.8-16.4-6.2-36.2-7.3-51.2-12.5-3.3 1.7-10.1-.9-14.6-1.4-2.5-.7-8.1.6-9.1-1.9h1.1c-1.4-1.1.1-2-1.1-3.2 3.9.8 11.7-.6 12.8 3.7 1.8.6 2-1.4 3.6-.2-.1-3 16.6 1.9 19.6 2.1 14.6 1.2 29.5 7.5 43.2 9.3-25.2-8.2-51.5-12.8-77.7-15.6.7-1.6 8-3.1 8.6-.8 1.7-1.5 4.2.3 6.1.4 2.6.8 5.2.3 7.9.7-3.3-2.4-10.2-.3-13.4-3.5-1.4 1.9-2.8-.2-4.5-.5 4.4-4 12.2.9 17.8.6 2.4.1 4.8.8 7.2.9.4.5-.1 1.4.9 1.5 2.9-1.3 8.8-.4 11.4 1.7.9.6.8-1.2 1.7-.4-1.8 2.2 2.5 0 3.6.7-2.7 1.9 2.7 3 3.9 3.3.1-4.6 6.1-.5 8.7-.7-.9.3-1.7 1-2 2-.8-.1-1.5-.5-2.2.2.4.4.8.8 1.3 1.2 1.3-1.7 3.6 1 5.3-.3-1.1-.2-2-.4-3.1-.7.5-.8 1.5-1.1 1.5-2 7.7 0 18.3 8.6 24.3 4.5-7.4-2.8-16.4-3.5-22.8-7.8-2.4 1-15.7-.5-12.7-4.7.7 4.9 4-.9 6.8 1.3-.2.1-.4.2-.5.3.4.6 1.6.4 2 1 1 1.4 2.6-.2 3.7.7 1.8.5 1.7-1.6 3.6-.4-.1 1 1.2 1.6 2.1.9l3.5 1c0 1 .7.6 1.2.6 1.8.9 3.6.2 4.9 2 .8-.6 1.1-.5 1.6 0 .5 0 1.4-.5 1.7.2 1.5 1.2 4.4.5 6 2.4-.4-.2-.7-.4-1.2-.3.4.7.9.2 1.3.3h.1c1.7 0 2.5-.6 3.7-1.9-10.4-3.5-21.1-7-31.8-9.3-2.6.5-7.4-4.2-2.5-1.9 1.9-3.4-3.7-3.9-5.1-2-.4-.7-.7-1.2-1.1-1.9-2.5 2.9-5 3.6-8.6 2.2.4-.4.6-.6.8-.9 1.2 1 1.4.9 2.5-.5.1-.4-.8-.8-.2-1.3l.4.4.1-1.7 2 .1c-.2-4 8 .2 10.5.2-.2.4-.4.8-.7 1.3 5.8-1.7 11.3 1.6 17 2.7 2.7 2 6.6 1.3 10 3 9.6 3.3 12.7 6.7 20.2-2.4 12.6-12 29.7-26 42.3-32.1-.1-.4-.2-.6-.3-1 8.3-6.5 2.5 1.5 7.9-.7-.5-.6-.9-1.1-1.3-1.6 2-1.3 1.9 1.8 2.4 2.7l.3-.9.5.2-.3.9c-15.4 13.6-36.7 26.3-52.1 42 1.1.2 2.2 1 3.2.9l-.1.2c1.8.9.8-1.6 2.3-2.5l.3.9c.7-.5 2.6-1.9.8-1.3 1.2-1.4 2.2-3.1 4.2-3.2-.1-1.9 1.8-1.9 2.7-3.3.5-1 2.3-.2 2.3-1.4-.1-.9.6-1.2 1.1-1.4-.4.2-.5.5-.4 1.1.3-.5 1.1-.8.6-1.1 3.1-2.4 5.6-4.5 8.9-7 .2.9 1.1.2.9-.9-.2 0-.3.1-.5.1 1.6-1.3 3.6-2.1 5.2-3.7.8 1.5 2.1-2.6 3.5-3 .1.3-.2.8-.3 1.1.6-.3.6-.6.6-.8.1 0 .2.1.3.1 2.4-3.6 6.9-4.5 10-7.6-.1.3-.1.5-.2.9 1.1-.2 1.3-1.2 2.6-1.7-.5 0-.7-.1-1.2-.1 1.1-.8 1.8-2 3.2-2 1.8.6 1.6-3 4.3-2.4.5-.5.6-1.4 1.5-1 .5-1.2 1.6-1.4 2.8-.6-1.8-3.5 3.1-.3 3-2.7 1.6-1.1 3.2-2.5 5.1-2.6 1.7-1.7 4-2.7 6.1-4-.4.4-.9.6-.9 1.4.7-.4.8-.7.9-1.5 1.4-.1 2.4-.8 3.2-1.8 1.1.2 1.7-.6 2.5-1-.4 1.5 2.9-.2 1.4-.8 1.4-1.3 2.9-2 4.9-1.6.1-.4-.2-.4-.5-.8.6-.3 1.3-.6 1.9-1-.2.6-.7.8-.4 1.2.6-.4 1.5-.7 2.3-1-.4-.2-.7 0-1.1.1l.3-.3-.3-.1.7-2.2 2.5.8-.1.2 1.2-1.2c2.6.6 5.1-3.4 8.4-3.4-.2.2-.4.5-.8.9 2.4-.5 3.7-4 6.3-2.1-.1-.6-.2-.9-.2-1.2 3.1-.8 5.7-3.3 8.9-3.3-.2 1 2.6.1 1.4-.5l-.2.5-1-.3.3-.8 1 .3v.1c.5-.6 1.3-.5 1.9-1 .6.9 1.5.3.7-.6.5-.1 1-.2 1.5-.4-.1.1-.1.3-.3.6.8-.2 1.7-.5.6-.8.7-.5 1.9-1 2.9-1.5l-.3.8c.6.1 1.7-.3 1.6-1.3h1.1c.7-1.7 2.9.5 3.6-1.4.1-.3.8-.5 1.3-.8 1.1 3.1 1.1-2.7 1-3.3-25.8 9.2-50.2 21.4-73.7 33.9 0-.3 0-.7-.1-1.1-1.5.1-3.4.6-2.4 2.5-1.3-.2-1.8-1.7-3-.5-1.1-1.7 1.6-1.5 1.1-2.9-1.9.2-.5-.3.6-.8-8.1-1.6 32.3-18.7 35.1-20.8.4 2 2.4.9 1.1-.7 13.6-6 27.2-11.7 41.1-16.8V0L.1.2V426zm81.5 148 1 .3-.9 2.8-1-.3.9-2.8zm-22-114.1c-7.4-1.2-15.4-1.8-23.2-1.9-11.4-1.1-22.8-1.9-34.1-.8-6.7-7.7 48.2-2.9 52.8-1 1.7-.6 3.3-.4 5.1-.2-.6 1.8 1.3 3.1 2.6 1.8-.1 2.1-1.1 2.8-3.2 2.1zm6.5-3.3c2 .1 10.6 1.7 4.7 2.5-1.9-.8-2.2 2.6-3.6 1 .3-.2.5-.3.8-.5-2.2-.4-3.6-.9-1.9-3zm2.3 128.2-1 3L62 586l1-3c0 .1 5.4 1.8 5.4 1.8zm58-130.7c0 .1.1.2.1.4-.2-.1-.3-.3-.5-.3.1-.1.3-.2.4-.1zm-12.6-2.6h1c-.1-.1-.3-.2-.5-.4 1 .2 1.7.5 2.6.5 0 .1.2.1.3.1-.3.2-.4.5-.4.8l-3.1-.2.1-.8zm134.1-52.4c.8.2.8.4.5 1.1 0 0-.8-.3-.8-.2l.3-.9zm-26.1 11.3-.4 1.3-.8-.3.4-1.3.8.3zM86.4 441.5s-.1 0-.2-.1c.1 0 .1 0 .2.1zM71.3 445c-.2 0-1-.2-1 .2-.1-.1 0-.2-.1-.2 0-.3-.1-.6-.1-1 0 0 .2 0 .2-.1.2 0 .9.1 1.1.1l-.1 1zm3.4-5-1-.1-.1 1-1-.1c0-.5-.8-.7.1-1l-1-.1.1-1 3.1.2-.2 1.1zm31.2 4.6c.4 2.1 2.6-.4 3.3 1.3.3 1.4 1.4.3 2.2 1.2-1.5 3.9-5.9-.2-9.1.6-1.7-.4-2.2-2.6-3.8-3.5-6 2.9-15.1 0-22.5-1.4-2.2-1.8 1.7-2 2.8-2.2 1.5-.6 1.6 2 3.4 1-.5-.2-.8-.3-1.4-.5 1.7-.5 3.4.1 5.2.1-.2 0-.4 0-.7.1.5.4.8.8 1.3.5 0-.1-.1-.2-.1-.2.6.3 1.3.6 1.8 1 .1-.2.2-.3.3-.4-.1 0-.2-.1-.2-.1.3-.6.8-.4 1.3-.1-.4-.1-.8-.1-1.1.1.5.2 1 .5 1.6 0h-.1c1.1.2 2.3.4 3.4.5-.2.2-.5.3-.8.5 2.6.6 5.2-.6 7.7 1.3.8.6 1.5 0 2.4-.2 1 1.2 2 1.1 3.1.4zm-5-5.2.3-4.2 3 .2-.4 5.1h-.8c-.3 1.2-1.7.4-2.6.4.2-.6.4-1.1.5-1.5z"/><path class="st0" d="M102.2 444.5c.3.2.4.4.7.2-.2-.3-.2-.4-.7-.2zM252.2 390.1c.3-.7.1-.9-.3-1-.6.3 0 .6.3 1zM230.4 400.7c-.1.3-.3.6-.4.9.6-.1.8-.4.4-.9zM213.5 414.9c-1-.8-.6-1.5 0-2.5-2-1-4.5.1-2.9 2.4-4.8 2.1 2.3 3.2 2.9.1zm-2-1 .6.2-.2.7-.6-.2.2-.7zM137.1 444.5c-.5-.3-.8-.3-1.1 0 .4.4.7.6 1.1 0zM196.1 423.7c.1-1-1.4-1.3-1.6-.3-.3 1 1.4 1.4 1.6.3zM92.9 444.3c.3.7 1.1 0 .7-.6-.4 0-.7.1-.7.6zM250.5 391.3c0-.1-.1-.2-.1-.2-.3.1-.6.3-.9.5l.1.2c.3-.2.6-.4.9-.5zM251.4 393c.5-1.1-1.2-1.5-1.4-.5-.5.9 1.2 1.4 1.4.5zM65.6 599.7s0-.1 0 0c0-.1-.1 0 0 0-.1 0 0 0 0 0zM171 468.7c1.7 1.2 2.3.6 3.7-.8-1.6-1.2-2.5-.5-3.7.8zM163.9 457.5c-.4-.2-.9-.3-1.3-.5-.5 1-1.1 1.9-1.9 2.6 1.4.7 3.7 1.1 4.4-.6.6.4 1.2.1 1.7-.4-.8-.3-2-.8-2.9-1.1zM165 474.2c1.2.6 2.1 1.2 3-.2-1.1-.4-2.2-1-3 .2zM56.4 457.3c-.3.6-.1.8.3.2-.1 0-.2-.1-.3-.2zM167.6 480.4c-.4.2-.8.5-1.1.8 1.1.6 1.9.7 2.8-.4-.6-.3-1.2-.9-1.7-.4zM221.5 487.9zM169.6 459.5c-.7.7-1.5 1.4-2.2 2.1.5.4 1.1.8 1.7.8.8-.8 1.6-1.5 2.5-2.3-.7-.2-1.4-.4-2-.6zM159.4 464.6zM66 598c-.3.6-1 1-.4 1.6.3-.5.8-.8.4-1.6zM2.7 456v.3c1 0 .9-.4 0-.3zM284.4 383.8l.1-.2c-.1.1-.1.2-.1.2zM168.3 471.1c.8.1 1.8 1.2 2.4.3-.7-.2-1.7-1.2-2.4-.3zM156.6 463.5c2 1.3 3.3 1.1 4.8-.7-2.1-.9-3.5-1.5-4.8.7z"/></svg>