<?xml version="1.0" encoding="utf-8"?>
<!-- Generator: Adobe Illustrator 28.0.0, SVG Export Plug-In . SVG Version: 6.00 Build 0)  -->
<svg version="1.1" id="a" xmlns="http://www.w3.org/2000/svg" xmlns:xlink="http://www.w3.org/1999/xlink" x="0px" y="0px"
	 viewBox="0 0 300.2 599.8" style="enable-background:new 0 0 300.2 599.8;" xml:space="preserve">
<style type="text/css">
	.st0{fill:#FFFFFF;}
</style>
<g>
	<path class="st0" d="M283.9,536.4c-0.4,0.4-0.8,0.7-0.9,1C283.2,539.3,285.6,537.8,283.9,536.4z M295.7,550.5c-0.7-1.6-2-2.5-3.5-3
		C292.5,548.2,294.5,549.9,295.7,550.5z M281.9,538.3c-0.5,0.6-0.4,1.2,0.2,1.8C283.1,539.1,283,538.7,281.9,538.3z M231.8,494.4
		c0.1,0.2,0.3,0.4,0.5,0.5l0.3-0.3C232.3,494.5,232,494.1,231.8,494.4z M274.5,532.4c-1.6-1.1-3.2-1.9-4.6-3.3
		c-0.4-0.3-0.9-0.6-1.4-0.8C270,529.8,272.4,532.1,274.5,532.4z M280.3,536.9c-0.2-0.3-0.5-0.6-0.7-0.8c-0.3,0.7,0,0.9,0.5,1.1
		C280.1,537.1,280.2,537,280.3,536.9z M296.4,550.7l-0.3,0.3c0.2,0.2,0.4,0.3,0.5,0.5l0.1-0.1C296.6,551.2,296.5,551,296.4,550.7
		L296.4,550.7z M268.4,528.2c-7-6.1-10.3-6.7-0.7-0.2C267.9,528.1,268.1,528.1,268.4,528.2z"/>
	<path class="st0" d="M182.4,473.7c19.9,7.4,37.9,18.9,55.4,30.5c21.9,13.7,43.2,28.5,62.2,46l0.1,0.1
		C300.6,539.5,189.9,465.4,182.4,473.7L182.4,473.7z M181.8,476.8c1,0.6,2.1,0.8,3.4,1.2C184.6,476.9,184.2,476.7,181.8,476.8z
		 M296.6,540.6l-0.3,0.2c0.4,0.4,0.7,0.8,1.1,1.2C298.1,541.9,296.7,540.8,296.6,540.6L296.6,540.6z M186.8,469.4
		C186.7,469.4,186.7,469.4,186.8,469.4z"/>
	<g>
		<path class="st0" d="M151.6,456.7L151.6,456.7L151.6,456.7L151.6,456.7z"/>
		<path class="st0" d="M150.4,456.4c0.4,0.6,0.8,0.3,1.2,0.3C151.2,456.5,150.9,456.3,150.4,456.4z"/>
		<path class="st0" d="M219.7,495.9c0.2,1.2,2.5,2,3.7,2.7C223.2,497.3,220.8,496.5,219.7,495.9z"/>
		<path class="st0" d="M292.1,536.5l-0.2,0.2l0.7,0.6c0.1-0.1,0.2-0.2,0.2-0.3C292.6,536.8,292.4,536.6,292.1,536.5z"/>
		<path class="st0" d="M290.1,534.5h-0.6l-0.6-0.1C289.5,535.1,289.8,534.7,290.1,534.5z"/>
		<path class="st0" d="M155.9,466.5c0.3,0.2,0.7,0.3,1,0.5l0.2-0.2c-0.4-0.3-0.7-0.5-1.1-0.6l0,0C156,466.3,155.9,466.4,155.9,466.5
			z"/>
		<path class="st0" d="M271.6,520.3c-0.1-0.4-0.7-0.6-1.2-0.3C270.9,520.1,271.3,520.8,271.6,520.3z"/>
		<path class="st0" d="M256.1,519c-0.6-0.5-1.1-0.8-1.6-1.1c-1.9-0.9-3.4-3.2-5.6-2.9c2.7,1.6,4.9,3.9,7.8,5.2
			C256.8,519.6,256.5,519.2,256.1,519z"/>
		<path class="st0" d="M245,503.1c0.4,0.3,0.8,0.7,1.2,1C246.9,503.4,245.6,503,245,503.1z"/>
		<path class="st0" d="M259.5,521.9c-0.3-0.2-0.6-0.4-1-0.7c0,0.1-0.1,0.1-0.2,0.2C258.8,521.7,259.2,522.4,259.5,521.9z"/>
		<path class="st0" d="M267,517.8c0.5,0.3,0.8,0.5,1.1,0.7C268.6,518,267.9,517.6,267,517.8z"/>
		<path class="st0" d="M117.3,455.1c-0.3-0.2-0.4,0.3-0.6,0.4c0.7,0.6,1.9,0.4,2,1.9c0.7-0.9,0.8-1.6,1.9-1.3v-0.2
			c-0.6-0.1-1.2-0.2-2-0.3C121,453.7,118.1,453.4,117.3,455.1z"/>
		<path class="st0" d="M110.8,454c1.9,0.9,3.4,0.9,5.4,1.1C114.4,454.4,112.4,453.1,110.8,454z"/>
		<path class="st0" d="M134.8,451.8c0.4,0.1,0.8,0.1,1.2,0.2C136.2,451.4,135.3,451.1,134.8,451.8z"/>
		<path class="st0" d="M105.8,451.2c0,2.5-2.9,0.4-4.2,1.3c2,0,4.8,1.4,6.3,0.7c-0.3-0.1-0.7-0.2-1.1-0.3
			C107.5,451.6,107.3,451.3,105.8,451.2z"/>
		<path class="st0" d="M94.5,449.7c-0.6-1.7-1.6,0.8-2.8,1.1c3.8,0.7,14.3,2.7,4,0C95,450.6,94.5,450.5,94.5,449.7z"/>
		<path class="st0" d="M130.9,458.5c0.5,0.8,10,3.6,7,1.9C135.5,460,133.5,458.2,130.9,458.5z"/>
		<path class="st0" d="M142.4,462.1c0-0.1,0.1-0.2,0.1-0.2l-0.7-0.3c0,0.1-0.1,0.2-0.1,0.2L142.4,462.1z"/>
		<path class="st0" d="M149.8,473.5L149.8,473.5L149.8,473.5z"/>
		<path class="st0" d="M146.8,463c-0.3-0.1-0.7-0.1-1.1-0.1C146.1,462.9,146.5,463.4,146.8,463z"/>
		<path class="st0" d="M241.5,500.8c0.6,0.5,1.1,0.8,1.7,1.2C242.8,501.1,242.5,500.8,241.5,500.8z"/>
		<path class="st0" d="M272.1,521.1c-0.1,0.1-0.1,0.2-0.2,0.3c0.3,0.2,0.7,0.4,1,0.6c0.1-0.1,0.1-0.2,0.2-0.3
			C272.8,521.5,272.4,521.3,272.1,521.1z"/>
		<path class="st0" d="M290.1,525.3c-0.1,1.1,1.6,1.2,1.6,0C291.8,524.4,290.1,524.1,290.1,525.3z"/>
		<path class="st0" d="M56.3,429.9L56.3,429.9c0-0.3-0.3-0.6-0.5-0.9c-0.3,0.2-0.6,0.5-1,0.7c0.2,0.3,0.5,0.6,0.8,1
			C56,430.4,56.4,430.1,56.3,429.9z"/>
		<path class="st0" d="M240.9,491.9c-0.1,0.2,0.3,0.3,0.4,0.5C241.6,492.1,241.1,491.8,240.9,491.9z"/>
		<path class="st0" d="M51.4,432.6c1.6,0.1,4.9-1.2,1.9-2.1c-0.2-0.5-0.5-1.1-0.8-1.8c-0.4,0.5-0.7,0.8-1,1c0-0.3-0.1-0.6-0.1-1
			C49.4,430.1,49.8,432.1,51.4,432.6z"/>
		<path class="st0" d="M236.2,488.3c-0.4-0.2-0.7-0.3-1.1-0.6C235.5,488.1,235.8,488.4,236.2,488.3z"/>
		<path class="st0" d="M45.6,431.5c-0.1,0-0.1,0.3-0.2,0.5H47C46.6,431.4,46.1,431.4,45.6,431.5z"/>
		<path class="st0" d="M0.1,443.3v0.6c3.1-0.2,6.1-0.5,9.2-0.7C21.8,442.4,5.1,442.7,0.1,443.3z"/>
		<path class="st0" d="M26,435.4c-0.3-0.5-0.7-0.4-1.1-0.2C25.2,435.8,25.5,435.9,26,435.4z"/>
		<path class="st0" d="M50.8,438.7c0.7-0.6-0.1-1.2-0.7-1.5c-0.3,0.2-0.6,0.5-0.9,0.8C49.5,438.7,50.1,439.3,50.8,438.7z"/>
		<path class="st0" d="M59.9,439.1c0,0.4,0.1,0.7,0.2,1.1C61.2,440,61.1,438.6,59.9,439.1z"/>
		<path class="st0" d="M208.3,471.9c-0.6-0.3-1.1-0.6-1.5-0.9C207.3,471.6,207.8,471.9,208.3,471.9z"/>
		<path class="st0" d="M210.7,490.6c0.4-0.3-0.3-0.4-0.6-0.6c0,0.1-0.1,0.1-0.1,0.2C210.2,490.3,210.5,490.5,210.7,490.6z"/>
		<path class="st0" d="M211.1,490.6c1.6,1.6,4.8,3.6,6.8,4.1c-1.8-1.5-3.8-2.7-5.8-3.9C211.9,490.7,211.6,490.7,211.1,490.6z"/>
		<path class="st0" d="M244.1,511.7c-1.3-1.2-2.8-2.4-4.5-3.1C240.6,510.3,242.5,510.9,244.1,511.7z"/>
		<path class="st0" d="M238.4,498.5c-0.8-0.6-1.4-1-2-1.4c-0.2,0.2-0.2,0.4,0,0.6C236.8,498.2,237.2,498.7,238.4,498.5z"/>
		<path class="st0" d="M201.7,469c0.5,0.6,1.1,0.8,1.9,0.7C203.1,469,202.5,468.9,201.7,469z"/>
		<path class="st0" d="M228.6,501.6c0.9,0.7,2,1,2.8,1.9l0,0c1.9,1.7,5.4,4.5,7.7,4.4c-4.8-2.4-8.9-7.4-14-8.7
			C226.1,500.3,227.5,500.7,228.6,501.6z"/>
		<path class="st0" d="M210.1,490L210.1,490L210.1,490z"/>
		<path class="st0" d="M295.4,562.3L295.4,562.3c-4.2-4.7-9.2-8.5-13.7-12.5c1.4-1.5-0.2-3.3-1.2-1.1c-2-2.2-5.3-3.3-6.4-6.1
			c0.8,0.5,1.7,1.1,2.6,1.6c1.7-2.4-3.2-5.9-5-3.7c-2.2,0.2-4.9-2.7-6.8-4.1c-28.4-20.2-58.4-40.7-91-54.2l0,0
			c-4.5-2-9-3.9-13.6-5.7c-2.3-0.9-4.7-1.8-7-2.5c-2.1-0.7-4.3-1-6.4-1.5c-0.3-0.1-0.5-0.2-0.8-0.3c-0.5-0.2-1.1-0.3-1.6-0.4
			c-1.9-0.6-3.7-1.3-5.6-1.7l0,0c0.1,0,0.1-0.1,0.2-0.1c-16.4-6.2-36.2-7.3-51.2-12.5c-3.3,1.7-10.1-0.9-14.6-1.4
			c-2.5-0.7-8.1,0.6-9.1-1.9h1.1c-1.4-1.1,0.1-2-1.1-3.2c3.9,0.8,11.7-0.6,12.8,3.7c1.8,0.6,2-1.4,3.6-0.2c-0.1-3,16.6,1.9,19.6,2.1
			c12.7,1,25.6,6,37.8,8.4c5.2,1.6,10.3,3.5,15.5,5.3c5.6,2,11.3,4,16.9,6c1.5,0.5,2.9,1,4.2,1.9c1.2,0.8,2.2,1.6,3.6,2.1
			c0.3,0.1,0.5-0.1,0.6-0.3c34,14.2,64.8,36,94.9,57.8c2.3,2.6,9.2,4.4,7.5,8.5c0,0.5,0.4,0.7,0.8,0.5c2.3-2.1,4.3,2,6.5,2.8
			c-1.3,0.7,0.3,2.7-1.5,1.9v1.8c1.3-0.7,2.5-0.5,2.1-2.2c0.7,0.1,1.1,0.6,1.8,1.1l0,0c3.2,2.7,6.4,5.4,9.3,8.5
			c-0.2-3.7-4.8-6-7.2-8.1c-3.8-3.4-7.7-5.8-8.3-10.6c2,1,3.3,2.8,5.3,3.9c-0.9-1.5-2.6-2.3-3.8-3.5c0.4-0.3,0.8-0.7,1.3-1.1
			c-0.9-1.2-1.3-0.9-2.3,0c-2-1.8-2.2,0.8-2,2.3c-12.8-10.8-31.6-23-47.5-33.4c-17.6-11.3-37.2-25.1-56.9-30.5
			c0-0.1-0.1-0.2-0.3-0.3c-1.2-0.4-2.2-1.2-3.2-1.9c-1.1-0.7-2.3-1.2-3.5-1.7c-2.8-1-5.6-2-8.5-3c-5.6-2-11.2-4-16.7-5.9
			c-3.2-1.1-6.3-2.2-9.5-3.2c-0.2-0.1-0.4,0-0.5,0.1c-23.1-6.9-47-10.9-70.8-13.5c0.6-1.6,8-3.1,8.6-0.8c1.7-1.5,4.2,0.3,6.1,0.4
			c2.5,0.8,5.2,0.3,7.9,0.7c-3.3-2.4-10.2-0.3-13.4-3.5c-1.4,1.9-2.8-0.2-4.5-0.5c4.4-4,12.2,0.9,17.8,0.6c2.4,0.1,4.8,0.8,7.2,0.9
			c0.4,0.5-0.1,1.4,0.9,1.5c2.9-1.3,8.8-0.4,11.4,1.7c0.9,0.7,0.8-1.2,1.7-0.4c-1.8,2.2,2.5,0,3.6,0.7c-2.7,1.9,2.7,3,3.9,3.3
			c0.1-4.6,6.1-0.5,8.7-0.7c-0.9,0.3-1.7,1-2,2c-0.8-0.2-1.5-0.5-2.2,0.2c0.4,0.4,0.8,0.8,1.3,1.2c1.3-1.7,3.6,1,5.2-0.3
			c-1-0.2-2-0.4-3.1-0.7c0.5-0.8,1.5-1.1,1.5-2c6.1,0,14.1,5.4,20.1,5.5h0.1c0.1,0,0.3,0,0.4,0.1c0.1,0.1,0.2,0.1,0.3,0.1h0.1
			c0.1,0.1,0.2,0.2,0.3,0.2c0,0,0,0,0.1,0s0.2,0.1,0.3,0.1s0.1,0,0.2,0c0.1,0.1,0.2,0.1,0.3,0.1s0.2,0,0.3-0.1c0.1,0,0.1,0,0.2,0
			l0,0c0.1,0,0.2,0.1,0.2,0.1c0.2,0.1,0.5,0.3,0.7,0.5c0.2,0.1,0.5,0.1,0.7-0.2c1,0.3,2,0.6,3.1,1c1,0.3,2,0.6,3,0.9
			s2.1,0.5,3.1,0.7c2,0.5,4,1.5,5.9,2.2c2,0.8,3.9,1.6,5.9,2.4c0,0.1,0.1,0.1,0.2,0.2c2.1,0.9,4.2,1.7,6.3,2.4
			c2.2,0.8,4.3,2,6.4,2.9c0.4,0.2,0.7-0.2,0.8-0.5c0.2,0.1,0.4,0.2,0.6,0.3v0.1c0.1,0.1,0.2,0.2,0.3,0.2h0.1c0,0.1,0.1,0.2,0.2,0.2
			c0,0,0.1,0,0.1,0.1h0.1l0,0c0,0,0,0,0.1,0c0,0,0,0,0.1,0c0,0,0.1,0,0.1-0.1c0.1-0.1,0.2-0.2,0.3-0.4c0-0.2,0-0.3-0.1-0.4l-0.1-0.1
			l0,0l-0.1-0.1H187h-0.1h-0.1l0,0c0-0.1-0.1-0.2-0.2-0.2c-9.2-4.6-18.8-8.2-28.6-11.1c-2.3-0.7-4.7-1.3-7.1-1.8c0,0,0,0,0-0.1v-0.1
			c0-0.1,0-0.1,0-0.2s-0.1-0.1-0.1-0.2c0,0-0.1-0.1-0.2-0.1c0,0-0.1,0-0.2,0c0.1,0,0.2-0.1,0.3-0.1c-7.4-2.8-16.4-3.5-22.8-7.8
			c-2.4,1-15.7-0.5-12.7-4.7c0.7,4.9,4-0.9,6.8,1.3c-0.2,0.1-0.4,0.2-0.5,0.3c0.4,0.6,1.6,0.4,2,1c1,1.4,2.5-0.2,3.7,0.7
			c1.8,0.5,1.7-1.6,3.6-0.4c-0.1,1,1.2,1.6,2.1,0.9l3.5,1c0,1,0.7,0.6,1.2,0.7c1.8,0.9,3.6,0.2,4.9,2c0.8-0.6,1.1-0.5,1.6,0h0.1
			c-0.1,0-0.2,0.1-0.2,0.2c0.2,0.1,0.5,0.2,1,0.5c-0.2-0.4-0.3-0.5-0.4-0.7c-0.1,0-0.2,0-0.4,0c0.5-0.1,1.3-0.4,1.6,0.2
			c1.5,1.2,4.4,0.5,6,2.4h0.1h0.1c0.3,0,0.6,0,0.8-0.1c0.1,0.1,0.2,0.2,0.3,0.3c-0.1,0-0.3,0.2-0.4,0.3c0.1,0.1,0.2,0.2,0.2,0.3
			c0.3-0.2,0.4-0.3,0.5-0.4l0,0c0.2,0.1,0.3,0.1,0.5,0.1c3.6,0.3,7,2.4,10.4,3.5c0.8,0.2,1.5,0.5,2.3,0.8c0.3,0.1,0.6,0.3,0.9,0.4
			c2.2,1.1,4.4,2.1,6.6,3c2.3,0.9,4.6,1.8,6.9,2.5c2,0.6,4.1,1.1,6.1,1.8c0,0,0,0.1-0.1,0.1c3.2,1.7,7.3,2.3,9.8,5.1
			c4.3,0,7.7,3.2,11.5,4.8c1.1,0.4,2.4,1.4,2.9,2.4c0,1,1.2,0.4,0.8-0.4c2.8,2.3,6.5,3.4,9.5,5.8c0,0.1,0.2,0.1,0.3,0.1v-0.4
			l2.1,0.1l-0.1,1l-2-0.1c0.5,0.3,2.2,1.6,2.3,0.5c0.8,0.2,1.5,3.4,2,1.2c0.8,0.7,1.6,1.4,2.4,2c-1.4-0.5-1.4,0-0.2,0.6
			c3.9-0.2,8,4.8,11.9,6.6c-0.2,0.2-0.2,0.3-0.4,0.6c3.8,0.5,6.1,3.8,9.7,5.2c-0.1,2.4,5.8,3.1,7.6,5.1c-3.8,0,1.8,1.3,2.7,1.7
			c-0.3,0.2-0.5,0.3-0.8,0.5c0.6,0.5,2.5,2,1.4,0.4c2.6,1.3,4.2,2.8,6.6,4.2c0.6,0.8,2.3,0.9,2.5,2.2c0.1,0.5,0.5,0.7,0.9,0.6
			c1.3-0.4,1.5,1,2.4,1.5c2.9,1.9,5.3,4.1,8.3,6.4c-0.8,0.5,0.1,1.1,1.2,0.7c-0.1-0.2-0.2-0.3-0.2-0.4c1,0.2,1,1.3,1.8,1.8
			c0.8,1.1,2.1,1.2,3,2.3c-1.4,1.4,3.5,1.1,3.6,2.9h0.2c0,0.2-0.1,0.5-0.1,0.7c4.1,1.5,6,5.6,9.7,7.8h-0.9c0,0.7,0.6,0.6,0.9,0.8
			c0.8-3.8-1.6-5.5-4.4-8l0,0c-5-4.2-9.9-8.2-15.2-12.1c-9.4-8.2-21.8-14.3-30.4-21.9C243.6,499,212,476.5,196,470
			c-5.7-4.2-12.8-5.2-19.3-7.8c-2-0.8-3.9-1.7-5.9-2.4c-1.1-0.5-2.3-0.8-3.5-1.2c-1.8-0.9-3.6-1.8-5.6-2.2c-0.2,0-0.4,0-0.6,0
			c-2.3-0.9-4.7-1.8-7.2-2.1c-9.9-3.3-20-6.6-30.2-8.8c-2.6,0.5-7.4-4.2-2.5-1.9c1.9-3.4-3.6-3.9-5.1-2c-0.4-0.7-0.7-1.2-1.1-1.9
			c-2.5,2.9-5,3.6-8.6,2.2c0.4-0.4,0.6-0.6,0.8-0.9c1.2,1,1.4,0.9,2.5-0.5c0.1-0.4-0.8-0.8-0.2-1.3l0.4,0.4l0.1-1.7l2,0.1
			c-0.2-4,8,0.2,10.5,0.2c-0.2,0.4-0.4,0.8-0.7,1.3c5.8-1.7,11.3,1.6,17,2.7c2.7,2,6.6,1.3,10,3c5.3,1.8,8.6,3.6,11.7,3.4
			c2.9,1,5.7,2,8.5,3l-0.5,0.5c1.1,0.2,2.2,1,3.2,0.9l-0.1,0.2c0.7,0.3,0.9,0.2,1.1-0.1c0.8,0.3,1.7,0.6,2.5,1l-0.4,0.4
			c0.6,0.3,1.2,0.6,1.8,0.8l0.5-0.5l3,1.2c-0.1,0.1-0.3,0.2-0.5,0.3c0.5,0.3,0.9,0.3,1.2,0c0.9,0.4,1.8,0.7,2.8,1.1l-0.3,0.3h0.1
			c0.2,0,0.5-0.1,0.7-0.1c1.9,0.8,3.7,1.6,5.6,2.3c-0.2,0.2-0.4,0.3-0.6,0.5c0.4,0,0.9-0.1,1.3-0.2c1.4,0.6,2.8,1.2,4.3,1.9
			c-0.1,0.1-0.2,0.1-0.2,0.2c37.6,18.1,72.9,41.8,105.4,68V376.8c0.1-1.1,0.1-2.4,0-2.7V0L0.1,0.2V426c3.9,0,7.9-0.2,12-0.4
			c4-0.1,8-0.1,12-0.1c4.2,0.2,8.3,0.6,12.1,1.6c3.2-2.8,2,3.1,2.8,4.4c2.1,1.5,2.1-2,1.8-3.3c2.2-1.9,7.4-0.1,10.6-0.3
			c8.4-0.3,18.9,1.9,27.9,3.2c2.1-0.6,5,3.5,5.2,0.7c5,1.1,10.3,1.2,15.2,2.6c-2.1,0.6-4.9,3.8-0.9,2.6c0.6,1.3-0.5,2.5-0.1,4
			c-6.4-1.3-13.2-1.8-19.5-3.1c-0.5-2.1-2.9,0.3-4.5-1.4c-0.9-0.7-1.7-1.9-2.8-0.6c-0.9,1.2-2.2-0.8-3.1,0.5
			c-1.3,1.2-1.2-0.6-0.2-1.1c1.1-1.2-1.2-1.9-1.9-0.8h0.1l-0.1,1c-0.1,0-0.4-0.1-0.4,0c0-0.1-0.6-0.1-0.6-0.1
			c0.1-1.4-0.6-3.4-2.4-2.3c2.7,3.6-4.3,2.4-6.1,2.1c-2.2-0.8-4.7,0-7-1.1c0.4-1.5-0.8-0.2-1.3,0.1c-2-0.8-4.6,1-6.1-0.7
			c-0.5-1.2,1-3.3-1.9-1.8c3.9,4.5-5.2,0.4-7.4,1.9c-1.6-0.2-2.8-1-4.3-1.2c-1.1,0.9-2.4,0-3.6,0.6c-7.4-1-15-0.7-22.5,0
			c-3.6-0.3-3.2,0-2.9,3.3v-1c1-0.2,7.6-0.4,4.9,0.3c1,0.7,1.7,0.3,2.2-0.7c1.2-0.1,2.6-0.5,3.7,0.2l-0.5,0.5c1.1-0.1,3.2,0,1.4-0.7
			c2.2-1.1,4.6,0.1,6.6,0.1c3.1-0.9,6.4,0.3,9.5,0.1c-0.2,0.2-0.3,0.3-0.4,0.5c1,0.9,1.8-0.6,2.8-0.6c1.3,0.2,1.1,1.7,2.8,0.6
			c-0.5-0.2-0.9-0.3-1.2-0.5c1.4-0.5,1.2,0.8,2.3,0.8c1.3-0.4,1.3-0.4,2.1,0.7c1.4-0.9,2.5-1,4.3-0.7c-0.2,0.1-0.3,0.2-0.5,0.3
			c0.4,0.7,0.7,0.5,1.2,0c0.4,1.4,1.6,0.4,2.7,0.2c-0.3,1.8,2.9,0.8,4.2,0.8c-0.6-0.6-1.2-0.3-1.8-0.6c1.1-0.1,2-0.1,3-0.1
			c0,0.3-0.5,0.1-1,0.3c0.6,0.3,1.1,0.8,1.5,0.4c1-1,2.4,1.1,3.8,0.8c0.1-0.9-0.6-0.8-1.1-1c1.3,0.3,2.6,0.3,4,0.2
			c-0.3,0.2-0.5,0.3-0.8,0.5c1.2,0.2,2.2,0.5,3.4,0.7c-0.1-0.2-0.3-0.4-0.5-0.7c0.3,0,0.7,0,0.7,0.1c1,1.4,3.3-0.8,3.4,1.6
			c0.1,1.2,2,0.6,1.5-0.4c-0.4-1.8,1.4-0.3,2-0.1c0.6-0.1,1.1,0.1,1.4,0.8c0.3,0.6,0.6,0.5,1.1-0.2c3.8,5.2-11.7,0.4-14.3,0.9
			c-18.1-1.8-36.4-3.5-54.6-1.9v2.1c15.4-2.2,30.9-0.3,46.4,0.9c4.2,0.9,22.6,0,22,3.5c0.7,0.1,1.2,0.2,1.8,0.3l-0.6,1.2
			c-0.5-0.3-0.9-0.5-1.5-0.9l0.3,1.8c-0.6-0.5-1-0.9-1.4-1.3c-0.1,2.9-0.2,2.2-2.5,1c-3,2.6-7.3,1.9-10.8,0.9
			C44,449,3,441.3,0,448.6c13.6-2,27.2-0.7,40.8,0.4c3.7,0.8,7.2,0.1,10.9,0.7c0.7,3.8,3.9,0.5,5.3,2.8c0.4-1.3,1.4-0.9,2.3-1.1
			c-0.3,1.5,1.5,1.3,1.7,2.5c-0.7,1.5-3,1.2-4.4,1c-5.5-1.1-10.9-1.4-16.4-1.5c-13.2-1.2-26.8-2.3-40.2-0.8v1.5h1
			c0.1,0.9-0.4,0.9-1,0.6v3.3h-0.1L0,599.8h68.5c0.4,0.1,0.8,0.1,1.2,0h230.4v-25.3c-3.3-3.5-6.6-6.7-9.9-10.3
			c2.2-1.6,0.9-1.7-0.1-3.4c4.6,0.8,6.8,5.3,10,8.2C300.6,566,297.2,564.3,295.4,562.3z M113.8,451.6h1c-0.1-0.1-0.3-0.2-0.5-0.3
			c1,0.2,1.7,0.5,2.6,0.5c0,0.2,0.2,0.1,0.3,0.2c-0.3,0.2-0.4,0.5-0.4,0.8l-3.1-0.2L113.8,451.6z M100.9,439.4l0.3-4.2l3,0.2
			l-0.4,5.2H103c-0.3,1.2-1.7,0.4-2.6,0.4C100.6,440.3,100.8,439.8,100.9,439.4z M78.8,440.7c1.5-0.6,1.6,2,3.4,1
			c-0.5-0.2-0.8-0.3-1.4-0.5c1.7-0.5,3.4,0.1,5.2,0.1c-0.2,0-0.4,0-0.7,0.1c0.5,0.4,0.8,0.8,1.3,0.5c0-0.1-0.1-0.2-0.1-0.2
			c0.6,0.3,1.3,0.6,1.8,1c0.1-0.2,0.2-0.3,0.3-0.4c-0.1,0-0.2-0.1-0.2-0.1c0.3-0.6,0.8-0.3,1.3-0.1c-0.4-0.1-0.8-0.1-1.1,0.1
			c0.5,0.2,1,0.5,1.6,0c1.1,0.2,2.2,0.4,3.3,0.5c-0.2,0.2-0.5,0.3-0.8,0.5c2.6,0.6,5.2-0.6,7.7,1.3c0.8,0.6,1.5,0,2.4-0.2
			c0.9,1.1,1.9,1,3,0.4c0.4,2.1,2.6-0.4,3.3,1.3c0.3,1.4,1.4,0.3,2.2,1.2c-1.5,3.9-5.9-0.2-9.1,0.6c-1.7-0.4-2.2-2.7-3.8-3.5
			c-6,2.9-15.1,0-22.5-1.4C73.9,441.2,77.7,441,78.8,440.7z M71.7,438.7l3.1,0.2l-0.1,1l-1-0.1l-0.1,1l-1-0.1c0-0.5-0.8-0.7,0.1-1
			l-1-0.1V438.7z M70.4,443.9c0.2,0,0.9,0.1,1,0.1l-0.1,1c-0.2,0-1-0.2-1,0.2V445c0-0.3-0.1-0.6-0.1-1C70.2,444,70.4,444,70.4,443.9
			z M62.6,459.1c-18-2-32.9-2.4-43.7-2.2c-5.6-0.3-11.1-0.2-16.6,0.4l0,0c-6.7-7.7,48.2-2.9,52.8-1c1.7-0.6,3.3-0.3,5.1-0.2
			c-0.6,1.8,1.3,3.1,2.6,1.8C62.8,458.4,62.7,458.8,62.6,459.1z M70.8,459c-0.9-0.4-1.4,0.2-1.9,0.7c-0.4,0-0.7-0.1-1.1-0.1
			c0.1,0,0.1-0.1,0.2-0.1c-2.2-0.3-3.6-0.8-1.9-2.9C68.1,456.7,76.7,458.3,70.8,459z M273.3,547.8c-0.2,0.5-0.1,1.3-0.7,1.1
			c-6-4.8-12.3-9.3-18.5-14c-0.2-0.1-0.4-0.3-0.6-0.4c-12.3-9.1-24.6-17.1-36.8-24.2c-14.9-9.3-30.3-17.8-46.9-23.6
			c-0.1,0-0.1,0.1-0.2,0.1c-1.7-0.7-3.4-1.4-5-2.1l0.4-0.4c-0.2,0.1-0.4,0.2-0.7,0.3c-1.8-0.7-3.7-1.5-5.5-2.2
			c0.1-0.1,0.2-0.1,0.2-0.2c-0.1,0.1-0.2,0.1-0.3,0.2l-4.8-1.8c0.1-0.1,0.2-0.1,0.2-0.2c-0.2-0.1-0.2,0-0.3,0.2
			c-2.9-1.1-5.8-2.1-8.7-3.1l0.2-0.2c-0.1,0-0.2,0.1-0.3,0.1c-3.5-1.2-6.9-2.3-10.3-3.4c-0.6-0.2-1.2-0.4-1.8-0.5
			c-0.6-0.2-1.2-0.4-1.8-0.5c-1-0.3-1.9-0.6-2.9-0.9c-15-4.4-29.3-7.6-42.5-9.9c0.1-0.4-0.2-0.7-0.5-0.9c-1.4-1.2-1.2-0.3-1.1,0.7
			c-3.2-0.6-6.4-1.1-9.5-1.5c0.4-0.9,0.6-0.8,1.9,0.1c0.7-3.5,9.4-1,11,0.5c3.5-1.9,8.3,1.1,12.2,1.1c9.5,1.9,19.1,3.2,28.4,6
			c2.8,0.6,6.5,2.9,9.3,2.5c0,0.1,0.1,0.2,0.3,0.3c2.1,0.8,4.4,1.2,6.6,1.8c0.3,0.1,0.6,0.2,0.9,0.3c0.4,0.1,0.8,0.2,1.2,0.3
			c1.8,0.7,3.6,1.5,5.4,2.2c2.4,0.9,4.9,1.6,7.3,2.4c2.5,0.8,4.9,1.8,7.3,2.7c1.5,0.6,3.1,1.2,4.6,1.8c0,0.1,0,0.2,0.1,0.3
			c0.1,0.1,0.2,0.2,0.3,0.2c0.2,0,0.3,0.1,0.5,0.1l0,0c34.7,13.7,65.6,35.9,96,57.1c1.9,0.3,1.3,5.5,2.5,4.4
			c0.7-0.3-0.9-2.9,1.1-1.7c2.5,2.7,7.9,4.8,8.3,8.4C277.4,549.1,275.6,550.5,273.3,547.8z M286.4,560.8L286.4,560.8
			c-2.1-2.7-8.8-5.5-4.9-9.3c3.4,2.4,5.7,5.4,9.2,7.9C287.5,559.5,288.7,563.4,286.4,560.8z"/>
		<path class="st0" d="M189.3,479.4l-0.1,0.3l4.3,2.1C192.5,480.3,190.9,479.8,189.3,479.4z"/>
		<path class="st0" d="M194.7,482.2c4.6,2.5,9.5,5,14.2,7.3c-1.5-1.7-4.5-2.2-6.3-4C200.2,484.2,197,482.4,194.7,482.2z"/>
	</g>
	<path class="st0" d="M165.3,470c0.1,0,0.2,0.1,0.4,0.1c0.1-0.2,0.3-0.3,0.4-0.5C165.7,469.4,165.5,469.8,165.3,470L165.3,470z
		 M293.8,565c1.2-0.7,0-2.3-1-2.1C291.5,563.3,293,564.7,293.8,565z M160.5,467.9C160.4,467.8,160.4,467.9,160.5,467.9z
		 M160.5,467.9c0.5,0.7,0.8,0.9,1.6,0.7C161.7,468.1,161.2,467.8,160.5,467.9z M215.4,484.7c0.9,0.4,1.5,0.7,2.2,1
		C217.6,484.7,216.1,484.4,215.4,484.7z M206.3,479.1c-0.2,0-0.8-0.4-0.8,0c0.2,0.1,0.4,0.2,0.7,0.3
		C206.2,479.3,206.3,479.2,206.3,479.1z M297.3,549.8c-0.1,0.2-0.4,0.5-0.1,0.5l0.3-0.3C297.6,550,297.5,550,297.3,549.8
		L297.3,549.8z M221.4,487.2h-0.1c0,0.3,0,0.6,0.3,0.7C221.5,487.7,221.7,487.2,221.4,487.2z M220,487c0-0.6-0.2-0.5-0.8-0.4
		C219.4,487.2,219.5,487.1,220,487z M112.3,439.8v0.3l-1.7-0.1l1.3,1.3c0.3-0.4,2.1-1.8,0.8-1.9h-0.1c0-0.4,0-0.8-0.2-1.1
		c0,0.2-0.2,1.1,0.2,1.1C112.5,439.5,112.4,439.6,112.3,439.8L112.3,439.8z M181.2,476.6c0.3-0.4-0.8-0.7-1-1
		c-0.1,0.1-0.3,0.2-0.4,0.3C180.2,476.3,180.7,476.4,181.2,476.6z M300.1,553.9c-0.6-0.6-2-2.3-2.7-1.7l2.7,2.4V553.9z M209.2,480.6
		L208,480C208,480.9,208.6,480.7,209.2,480.6z M102.9,444.7c-0.2-0.3-0.2-0.4-0.6-0.2C102.5,444.7,102.6,444.9,102.9,444.7z
		 M137.1,444.5c-0.5-0.3-0.8-0.3-1.1,0C136.4,444.9,136.7,445.1,137.1,444.5z M93.6,443.7c-0.4,0-0.8,0.1-0.7,0.6
		C93.3,445,94,444.3,93.6,443.7z M56.7,457.5c-0.1,0-0.2-0.1-0.3-0.2C56.1,457.9,56.3,458.1,56.7,457.5z M2.7,456v0.3
		C3.7,456.3,3.6,455.9,2.7,456z M170.8,471.5c-0.8-0.2-1.8-1.3-2.4-0.3C169.2,471.3,170.2,472.3,170.8,471.5z"/>
</g>
</svg>
