<?xml version="1.0" encoding="utf-8"?>
<!-- Generator: Adobe Illustrator 26.5.0, SVG Export Plug-In . SVG Version: 6.00 Build 0)  -->
<svg version="1.1" id="a" xmlns="http://www.w3.org/2000/svg" xmlns:xlink="http://www.w3.org/1999/xlink" x="0px" y="0px"
	 viewBox="0 0 160 600" style="enable-background:new 0 0 160 600;" xml:space="preserve">
<style type="text/css">
	.st0{fill:#FFFFFF;}
</style>
<path class="st0" d="M85.5,2.4c0.1,0.4,0.1,0.7,0.2,1.2C85.9,3.1,85.8,2.7,85.5,2.4z"/>
<polygon class="st0" points="102,11.3 102,11.3 102,11.3 "/>
<path class="st0" d="M103.2,18.8c0.3-2.5-0.9-5-1.2-7.4c-0.1,0-0.2,0-0.3,0C102.1,13.9,101.9,16.6,103.2,18.8z"/>
<path class="st0" d="M101.5,9.3c0.6-0.7,0.1-3.9-0.7-4.3C100.8,6.5,101,7.9,101.5,9.3z"/>
<path class="st0" d="M103.4,19.1c-0.1,0-0.2,0-0.2,0c0.1,0.3,0.1,0.5,0.2,0.8C103.8,19.9,103.4,19.3,103.4,19.1z"/>
<path class="st0" d="M106.2,30.6c-1-3.1-1.2-6.5-2.4-9.5C103.4,25.8,109.7,42.4,106.2,30.6z"/>
<path class="st0" d="M109.4,41.5l-1.3-4.4c-0.3,1.7,0.3,3.1,1.1,4.5l0,0C109.1,41.5,109.4,41.4,109.4,41.5z"/>
<path class="st0" d="M100.4,3.3c0.1-1.2-0.3-2.2-0.5-3.3h-0.7C99.5,1.2,99.9,2.3,100.4,3.3z"/>
<path class="st0" d="M100.8,5L100.8,5C100.8,5,100.8,5,100.8,5L100.8,5L100.8,5z"/>
<path class="st0" d="M97.7,27.9c0.6-0.6,0.1-0.9-0.4-1.3C97.4,27,97.5,27.4,97.7,27.9z"/>
<path class="st0" d="M98.5,30.2c-0.1-0.2-0.1-0.5-0.2-0.7c-0.1,0-0.2,0.1-0.3,0.1C98.1,29.7,98.2,30.4,98.5,30.2L98.5,30.2z"/>
<path class="st0" d="M96.2,19.6c-0.3-0.9-0.5-1.5-0.7-2.2C94.8,17.9,95.6,19.2,96.2,19.6z"/>
<path class="st0" d="M109.5,50.2C103,34,99.8,17,97,0h-2.3C97.4,14.2,102.1,48.9,109.5,50.2z"/>
<path class="st0" d="M94.6,13.1C94.6,13.1,94.6,13.1,94.6,13.1L94.6,13.1L94.6,13.1L94.6,13.1z"/>
<path class="st0" d="M94.2,13.8c0.2-0.2,0.4-0.4,0.3-0.6C94.4,13.3,94,13.5,94.2,13.8z"/>
<path class="st0" d="M94.9,14.8c-0.4,0.4-0.2,0.5,0.2,0.8C95.4,15.1,95.3,15,94.9,14.8z"/>
<path class="st0" d="M92.6,1.6c0.1-0.2,0.1-0.4,0.1-0.6l-0.4,0C92.4,1.1,92.3,1.7,92.6,1.6L92.6,1.6z"/>
<path class="st0" d="M160,134.9c-2.9-1.3-8.3-13.1-10.1-15.3c-8.5-11.2-13.5-25.9-21-36.8c8.6,19.3,19.3,37.5,31.2,54.8V134.9
	L160,134.9z"/>
<path class="st0" d="M91.8,61.7c-2.8-0.4-5.9-1.3-8.8-1C85.6,61,89.8,62.4,91.8,61.7z"/>
<path class="st0" d="M93.1,37.6c-0.2,0.8,0.1,1.3,0.7,1.8C93.9,38.6,93.7,38,93.1,37.6z"/>
<path class="st0" d="M98.6,63.1c-0.2-1.1-1-1-1.9-0.9C96.7,62.6,97.5,62.9,98.6,63.1z"/>
<path class="st0" d="M56.9,51.5c0.8-1.2-1.5-2.2,0.4-2.3c-0.3-0.5-0.5-0.9-0.8-1.5c-0.8,1.1-1.9,1.6-0.8,2.8
	C36.8,46.2,17.9,39.2,0,31.1v1.6c21.6,8.8,43.9,16.1,63.6,24c-2.2,0.1-4.1-0.9-6.3-0.9c1.5,0.9,3.3,0.7,4.8,1.3
	c-0.2,0.5-0.4,0.9-0.6,1.5c1.3,0.6,1.5,0.2,2-1c2.5,0.6,1.5-1.7,0.7-2.9c8.7,2.3,22.2,2.9,33,4.8c-6.7-6.5-25.3-1-32.7-8
	C64,49,64.6,53.8,56.9,51.5L56.9,51.5z"/>
<path class="st0" d="M94.6,61.8c-0.3-0.1-0.7-0.2-1.1-0.2c0,0.1-0.1,0.2-0.1,0.3C93.8,61.9,94.5,62.3,94.6,61.8z"/>
<path class="st0" d="M82.9,60.7c-2-0.7-5-1.6-6.9-0.8C78.4,59.9,80.6,60.5,82.9,60.7z"/>
<path class="st0" d="M67.2,58.1c0.1-0.8-0.2-1.2-1-1.4C65.7,58,66,58.3,67.2,58.1z"/>
<path class="st0" d="M70.1,59c-0.1-0.7-0.4-0.8-0.9-0.7l0,0c0,0.1-0.1,0.2-0.1,0.3C69.4,58.7,69.8,58.9,70.1,59z"/>
<path class="st0" d="M110.9,55c-0.1-1.5-1.4-1.2-2.7-1.3c0.1,0.4,0.3,0.8,0.5,1.2C109.4,55,110.2,55,110.9,55z"/>
<path class="st0" d="M113.2,61.4c-0.2-2-1.1-2.1-2.9-2.1C110.5,61.2,111.5,61.4,113.2,61.4z"/>
<path class="st0" d="M110.8,45.4c-0.4,1.1-0.3,1.5,1.3,3.2C111.8,47.5,111.3,46.6,110.8,45.4z"/>
<path class="st0" d="M112.3,49.1c-0.4,0,0,1-0.1,1.3c0.2,0,0.3,0,0.5,0.1C112.8,50,112.5,49.6,112.3,49.1L112.3,49.1z"/>
<path class="st0" d="M91.7,32.8c0.1,0.6,0.2,1.1,0.3,1.6C92.2,33.7,92.1,33.1,91.7,32.8z"/>
<path class="st0" d="M114.1,63.7c-0.8-0.1-1.6,0-2.4,0c0.6,0.6,1.9,0.5,2.7,0.7C114.3,64.1,114.2,63.9,114.1,63.7L114.1,63.7z"/>
<path class="st0" d="M148.6,128.2c-0.8,1.6,1.8,0.6,2.6,1.3c-1.8-2.3-2.8-5.1-4.5-7.3c-0.2,1.3,1.4,3.1,2,4.4
	C149,127.2,149.2,127.7,148.6,128.2L148.6,128.2z"/>
<path class="st0" d="M115.4,59.8c0.3,0.7,0.2,2.1,1.3,1.9l0,0C116.2,61.1,116.3,59.7,115.4,59.8z"/>
<path class="st0" d="M117.8,64.6c-0.1-0.1-0.1-0.2-0.1-0.3l0,0c-0.2,0-0.4,0-0.6,0.1C117.2,64.8,117.5,64.6,117.8,64.6L117.8,64.6z"
	/>
<path class="st0" d="M130.4,70.6c-0.4-1.1-0.7-2.2-2.1-2c0.4,0.6,0.2,1.3,0.6,1.9C129.3,70.5,129.8,70.5,130.4,70.6z"/>
<path class="st0" d="M134.5,103.1c0.4,0.7,0.6,1.4,1.6,1.5c0-0.5,0-1.1,0-1.7c-2.1,0.2-1.6-3.2-3.6-3.6c0.5,0.9,0.9,1.7,1.5,2.6
	C130.2,101.2,131.8,104.3,134.5,103.1L134.5,103.1z"/>
<path class="st0" d="M117.3,83.8c0.3-0.7-0.4-0.8-0.6-1.1l0,0l0-0.1C116.8,83,116.9,83.5,117.3,83.8L117.3,83.8z"/>
<path class="st0" d="M116.8,81.6c-0.2,0-0.4-0.1-0.5-0.1c-0.2,0.3,0.1,0.3,0.5,0.4C116.8,81.8,116.8,81.7,116.8,81.6z"/>
<path class="st0" d="M65.2,59.9c0.1,0.3,0.6,0.4,1.1,0.7C67.5,58.7,64.9,58.2,65.2,59.9z"/>
<path class="st0" d="M136.5,105.5c0,0-0.1,0.1-0.2,0.1c0.3,0.5,0.6,1,1,1.6c-2.9-0.6-1.2,1.7,0.5,1.2l0,0c-0.1,0,0,0.2,0,0.2
	c0.2,0,0.4,0,0.6,0c-0.1-0.9-1-1.6,0.1-2.6C137.6,106.1,137,106.4,136.5,105.5L136.5,105.5z"/>
<path class="st0" d="M118.7,75.1c-0.2-0.9-0.7-1.8-1-2.7c-0.8,0-1.7-0.1-2.6-0.2C115.9,74.1,116.4,75.5,118.7,75.1z"/>
<polygon class="st0" points="117.7,72.4 117.7,72.4 117.7,72.4 "/>
<path class="st0" d="M141.2,113.8L141.2,113.8c-0.6-1.9-1.5-2.9-2.6-4.5C139.2,111,139.6,113.2,141.2,113.8z"/>
<path class="st0" d="M119.4,69.5L119.4,69.5L119.4,69.5C119.4,69.5,119.4,69.5,119.4,69.5L119.4,69.5z"/>
<path class="st0" d="M124.6,82.4c0.2,0.3,0.4,0.6,0.6,0.9C125.1,82.9,125.1,82.3,124.6,82.4z"/>
<path class="st0" d="M128.3,79.9C128.3,79.9,128.3,79.9,128.3,79.9C128.3,79.9,128.3,79.9,128.3,79.9
	C128.3,79.9,128.3,79.9,128.3,79.9L128.3,79.9z"/>
<path class="st0" d="M125.5,73.2c-0.3,0-0.7-0.1-1-0.1c0.8,1.3,0.5,3.3,2.5,3.1C126.7,75,126.2,74,125.5,73.2z"/>
<path class="st0" d="M126.6,86.2l0.3,0.7c0.1,0,0.2-0.1,0.2-0.1l0,0l-0.2-0.7C126.7,86.1,126.6,86.1,126.6,86.2L126.6,86.2z"/>
<path class="st0" d="M118.8,67.8c0,0.6,0.1,1.2,0.6,1.6C119.5,68.7,119.5,68.3,118.8,67.8z"/>
<path class="st0" d="M122.9,55c0.2,0.5,0.1,1.4,0.8,1.4c0.4,0.1,0.8,0.2,1.3,0.3C124.7,55.5,124.3,54.8,122.9,55z"/>
<path class="st0" d="M124.2,72.3C124.2,72.3,124.2,72.4,124.2,72.3C124.2,72.4,124.2,72.4,124.2,72.3L124.2,72.3L124.2,72.3z"/>
<polygon class="st0" points="114,68.9 114,68.9 114,68.9 "/>
<path class="st0" d="M24.4,53.7c0.6,0.2,0.9,0.3,1.6,0.4C25.5,53.6,25.2,53.2,24.4,53.7z"/>
<path class="st0" d="M42.2,59.6c0-0.1,0-0.2,0-0.3c-0.3,0-0.6,0-0.9,0l0,0C41.3,59.6,42,59.5,42.2,59.6z"/>
<path class="st0" d="M53.7,62.8l0.1-0.3c-0.5-0.2-1-0.3-1.5-0.5c0,0.1-0.1,0.2-0.1,0.3C52.8,62.4,53.2,62.6,53.7,62.8L53.7,62.8z"/>
<path class="st0" d="M17.5,51c0.6,0.4,0.7,0,0.1-0.2C17.5,50.9,17.5,51,17.5,51z"/>
<path class="st0" d="M117.6,72c-0.1-0.6-0.9-0.3-1.4-0.5C116.7,72,117.1,72.1,117.6,72z"/>
<path class="st0" d="M128.3,79.9C128.3,79.9,128.3,79.9,128.3,79.9L128.3,79.9L128.3,79.9L128.3,79.9z"/>
<path class="st0" d="M12.4,49.2c-0.5-0.2-0.8-0.3-1-0.5C11.6,49,11.9,49.2,12.4,49.2z"/>
<path class="st0" d="M59.4,64.2c0.2-0.4-0.7-0.3-0.8-0.4c0,0.1,0,0.2-0.1,0.3C58.8,64.1,59.1,64.1,59.4,64.2z"/>
<path class="st0" d="M108.4,60.9c0.1-2-2.7-2-4.4-2.2c0,0.1,0.1,0.2,0.1,0.2l0,0C104.6,61.1,106.6,60.6,108.4,60.9L108.4,60.9z"/>
<path class="st0" d="M113.2,67.2c0.3,0.6,0.5,1.2,0.8,1.8c0.8,0.1,1.7,0.2,2.5,0.3C116.5,67.1,114.9,67.3,113.2,67.2L113.2,67.2z"/>
<path class="st0" d="M142.5,119.1L142.5,119.1c1.7-1.6,2,1.9,3.6,2.2c-1.3-1.4-2-4.3-3.5-5c0.1,0.3,0.3,0.6,0.5,1
	C141.6,117.6,141.6,117.9,142.5,119.1L142.5,119.1z"/>
<path class="st0" d="M103.1,0c2.8,17.6,5.9,36.4,13.9,51c-5.9-16.5-9.9-33.6-13-51H103.1z"/>
<path class="st0" d="M0,39.6v1.7c31.9,13.6,66.8,24.1,100.4,26.5C67.4,62.1,32.8,53.1,0,39.6z"/>
<path class="st0" d="M83.3,68.3c0-0.1,0-0.2,0-0.4c-0.4,0-0.8,0-1.1-0.1c0,0.1,0,0.2,0,0.3C82.5,68.2,82.9,68.2,83.3,68.3L83.3,68.3
	z"/>
<path class="st0" d="M87.8,69c0.3,0.3,0.7,0.3,1.3-0.2C88.4,68.8,87.8,68.4,87.8,69z"/>
<path class="st0" d="M0,21.3c15.9,7.2,32.1,13.6,48.6,18.7c-1.1,2.3,0,1.9,1.6,2.9c-1.1-0.2-2.2-0.4-3.3-0.6l0,0
	c0.9-1-1-1.5-1.8-1.3c-0.2,0.4-0.2,0.7,0,1C29.7,38.5,14.7,32.2,0,25.2v1.1c7.1,3.7,14.2,7.2,21.6,9.1C35,40.3,48.6,45.6,62.2,48.2
	c-0.5,1.8,1.7,2.7,1.5,0.4c2.7,0.9,5.9,0.4,8.2,2.3c-1-0.1-1.9-0.2-2.9-0.2c-0.3,2.7,5.4,3.6,5.8,0.9c5.7-1.1,14.2,2,20.6,2.2
	c-4.3-4.9-17.3,0.2-20.5-6.5c-0.6-0.1-0.7,0.3-0.9,0.7c3.9,3.1-5.8,0.6-7,0.2c-8.7-2,0-2.6,3.1-1.9c-0.1-0.4-0.2-0.7-0.3-1.1
	c7.8,1.1,15.6,2.5,23.5,3.6c-5-15.9-8.4-32.2-11-48.7H0V21.3z M51.5,40.9c14.4,1.5,12.9,8.5-1.2,3.3C51.5,43,52.2,42.4,51.5,40.9z"
	/>
<path class="st0" d="M131.6,96.6c0.3-0.9-3.9-9.4-3.1-6.3C129.7,92.3,129.7,94.9,131.6,96.6z"/>
<path class="st0" d="M160,143.7v-2c-2.3-2.4-4.6-8.9-7.1-9.7c1.6,4.1,6.1,7.1,6.3,11.6C159.5,143.6,159.8,143.6,160,143.7z"/>
<path class="st0" d="M128.3,55.5c9.9,2.5,20.7,3.3,31.7,3.1v-2C149.1,56.7,138.5,56.3,128.3,55.5L128.3,55.5z"/>
<path class="st0" d="M160,128.8V125c-2.7-1.8-3.7-6.3-5.9-8.8c-4.7-8-10-15.7-13.9-24.1c-1.7-2.8-2.4-8.3-5.7-8.9
	c6.1,15.7,18,30.5,23.8,44.6C158.9,127.9,159.5,128.3,160,128.8L160,128.8z"/>
<path class="st0" d="M123.7,42.6c2,14.4,16.9,9.2,28.1,10.9c2.7,0.2,5.4,0.3,8.2,0.3V0h-46.7C115.8,14.5,118.9,28.8,123.7,42.6
	L123.7,42.6z"/>
<path class="st0" d="M145.8,132.8c0.2-0.7-0.7-0.8-0.9-0.1C145.2,132.9,145.5,133.1,145.8,132.8z"/>
<path class="st0" d="M160,72.3v-2.3c-8.6,0.2-17.3-0.1-26-0.9C142.2,71.4,150.9,72.3,160,72.3z"/>
<path class="st0" d="M146.9,137.2c-0.2-0.4-0.3-1-1-1.1C146.1,136.5,146.4,137.2,146.9,137.2z"/>
<path class="st0" d="M160,600V172.2c-5.3-5.8-10.2-14.2-15-21.2c-1.8-1.1-0.7-5.8-2.9-4.1c-2.4-4.3-5.7-8.1-7.9-12.5
	c1.8,1.1,5.8,1.1,2.4-1.1c0.6-1.2,2.1-1.3,2.9-2.4c3.1,5.5,7.4,10.6,10.3,16c-1.1,1.4,2.2,2,1.9,4c0.1,1.1-0.2,2.4,1.3,2.4
	c1.4-0.1,0.8,2.1,2.4,1.9c0.7,0,0.8,0.1,0.7,0.9c-0.7,0.1-2.1-0.4-2.2,0.5c-0.1,0.9,0.6,1.3,1.4,1.4l-0.1-0.1l0.8-0.6
	c0,0,0.2,0.3,0.3,0.3c-0.1,0.1,0.3,0.4,0.3,0.5c-1.1,0.9-2.1,2.6-0.1,3.1c0.6-2.4,2-1.5,3.3,0v-4.4c-0.9,0.9-1-1-1.2-1.6
	c-0.5-0.4-0.6-0.8-0.4-1.5c0.2-0.6,0-0.7-0.8-0.7c0.4-1.6,1.3-1.6,2.4-0.7v-3.2c0,0,0,0-0.1,0c-0.1-0.1-0.5-0.6-0.6-0.8l0.7-0.6
	v-1.1c-4.4-1.9-5.9-9.2-9.3-12.6c-1.6-2.5-4.2-4.8-3.4-7.3c-2.8-1.2-5.9-6-6.1-9.2c-0.1-1-1.4,0.2-1.4-0.9c2.8-0.1-1.6-1.7-1.8-3
	c3.1,0.7,0.4-3.9-0.1-4.9c-3.6,3-4.1-4.7-6.5-6c-3-4.7-6.8-20.4-12.1-20.8c2.7,7,8,14,9,21.2c2.3,1.3,9.7,11.1,4.8,12.1
	c3.1-3.7-3.2-2.2-3.4-5.7c0.2,0.1,0.4,0.1,0.6,0.2c0.2-0.7-0.7-1.4-0.6-2.1c0.4-1.6-1.8-1.7-1.9-3c-0.8-1.6-2.2-0.2-2.6-2.3
	c0.8-0.6,0.3-1.9-0.7-2l-1.5-3.1c0.8-0.7,0-0.9-0.3-1.3c-0.5-1.9-2.1-2.7-1.7-4.7c-1.5-0.3-0.7-1.5-2-2.1c0.1-0.7,0.5-1.5-0.4-1.8
	c-2.1-2.4-1.1-6.6-5.5-6c4.2,9.7,8.5,19.5,13.7,28.7c2,1.6,1.7,7.8,0.3,3c-3.6,0.8-0.4,5.1,1.8,4.9c-0.2,0.7-0.4,1.3-0.6,2
	c3.6-0.1,5.8,1.2,7.1,4.7c-0.5,0-0.8,0-1.2,0c-0.1-1.5-0.3-1.6-2-1.4c-0.4,0.2,0,1.1-0.8,1l0-0.6l-1.3,1l-1.2-1.5
	c-2.7,2.7-4.9-5.8-6.6-7.7c0.5-0.1,0.8-0.2,1.4-0.3c-3.6-2.1-5-5.8-6.7-9.5c-0.8-1.8-2.7-4-2.4-5.9c-3.4-5.3-6-11.8-8.4-17.9
	c-14.4-5.1-33.7-3.2-49.3-8.5c-4.9,0.6-8.9-5.7-9.1-2.4c-13.7-1.9-2.7-2.8-8-5.4c-0.1,0.7-0.2,1.3-0.3,2c-2.2-0.6,0-2.5,0.4-3.5
	L39,64.3l-0.2-0.5l0.8-0.4c19.5,2.3,42.2,9.4,63.2,10.3c-0.6-0.9-0.7-2.3-1.5-2.9l0.2-0.1c-0.6-1.9-1.7,0.4-3.2-0.1
	c0.2-0.2,0.3-0.5,0.5-0.8c-0.8-0.2-3-0.6-1.4,0.3c-1.8,0-3.6,0.4-5-0.9c-1.3,1.3-2.5,0-4.1,0.2c-1,0.3-1.6-1.5-2.5-0.8
	c-0.4,0-0.7,0-1.1,0c0.1-0.1,0.2-0.2,0.4-0.3l0,0c-0.9-0.2-1.1,0.1-1,0.3c-3.5-0.1-7-1.5-10.8-1.9c0.5-0.8-0.6-0.9-1.3-0.1
	c0.1,0.1,0.3,0.2,0.4,0.3c-2-0.4-3.8-1.2-6-1.3c0.6-1.5-3.2,0.2-4.4-0.6c0,0,0-0.1,0-0.1c0.3-0.1,0.7-0.3,0.9-0.4
	c-0.6-0.2-0.8-0.1-0.9,0.1c0-0.1-0.1-0.2-0.1-0.3c-4.1,0.6-7.6-2-11.8-2.3c0.2-0.1,0.5-0.3,0.7-0.4c-0.9-0.7-1.7-0.2-2.9-0.8
	c0.3,0.4,0.4,0.6,0.7,0.9c-1.2-0.2-2.6,0-3.4-1c-0.7-1.7-3.2,0.8-4.5-1.6c-0.7-0.1-1.4,0.5-1.7-0.4c-1.2,0.4-2-0.3-2.2-1.6
	c-1.4,3.5-2.2-2-3.9-0.4c-1.8-0.5-3.8-0.7-5.1-2c-2.3-0.1-4.5-1.1-6.8-1.8c0,0,0,0,0,0c0.5,0,1,0.3,1.6-0.3
	c-0.7-0.2-1.1-0.1-1.6,0.3c-1.5-1.2-3.8-1.5-5.7-2.3c1.3-0.7-2-1.9-1.4-0.5c-1.8-0.2-3.3-0.8-4.3-2.5c-0.3,0.2-0.1,0.4-0.2,0.9
	c-0.6-0.2-1.3-0.5-1.9-0.7c0.5-0.2,1.1,0,1.1-0.5c-0.7-0.1-1.4-0.6-2.2-1c0.1,0.4,0.5,0.5,0.7,0.7c-0.2,0-0.3,0-0.4,0l0.1,0.3
	l-2,0.9l-1-2.3L4,45.8c0,0,0,0,0,0l0,0c-0.5,0-1.1,0-1.6,0C1.9,44.9,1,44.5,0,44.2v3.1c11.5,4.8,23.1,9.3,34.5,13.5
	c-0.2,0.2-0.5,0.5-0.8,0.7c1,1,2.7,2,3.3,0.1c0.7,1,0,2.3,1.5,2.5c-0.5,1.9-2.1-0.2-2.7,1.1c1.4,1.2,0.1,0.6-1,0.1
	C38.1,71.2,9.2,58,0,54.3V600h135.7H160z M40.2,62l0.3,0.8l-1.2,0.5l-0.3-0.8L40.2,62z M14.4,51.1c0,0-0.3-0.7-0.3-0.7l0.8-0.3
	c0,0,0.3,0.7,0.3,0.7L14.4,51.1L14.4,51.1z M156.4,149.4c-0.4,0.2-0.1,0.3-0.2,0.7c-0.3,0.1-0.4-0.2-0.6-0.1l0.6,0.8l-0.8,0.6
	l-1.9-2.3l0.8-0.6l0.6,0.8l0.8-0.6L156.4,149.4L156.4,149.4z M142.3,123.8c0.8,1.4-0.4,3.3,0,5c5.9,2.5,9.7,10.8,13.4,16.9
	c0.1,2.7-2.5,0.1-3.4-0.6c-1.4-0.7,0.4-2.4-1.5-3.1c0.2,0.5,0.3,0.8,0.5,1.3c-1.3-0.9-2.1-2.3-3.1-3.6c0.1,0.1,0.2,0.2,0.3,0.3
	c0-0.6,0.1-1-0.5-1.2l0,0c-0.1,0.1-0.1,0.2-0.1,0.3c-0.2-0.6-0.3-1.3-0.5-1.9h0c-0.2,0.1-0.3,0.1-0.5,0.1c0,0.1,0.1,0.1,0.1,0.2
	c-1.3-0.3-1.8-2.9-2.9-4c0.3,0.1,0.6,0.1,0.9,0.2c-0.8-1.4-2.1-2.6-3.4-3.9c-0.4-0.9-0.2-3.2-1.6-3.6c-0.1-0.1-0.2-0.1-0.3-0.2
	c0.1,0,0.1,0.1,0.1,0.1l0,0c-0.1-0.3,0.1-0.5-0.3-0.6c0,0.1-0.1,0.2-0.1,0.3c-0.6-0.8-0.3-2.3-1.9-2.4v0c1.2-1.7-1.9-1.6-1.1-3.2
	c0.8-1.1-0.7-1.2-0.5-2.4C139.8,116.2,139.7,122,142.3,123.8L142.3,123.8z M136.5,110.3l1.8,2.4l-0.8,0.6l-0.6-0.7
	c0,0.2,0,0.3,0.1,0.6c-0.5-0.8-0.8-1.5-1.3-2.2c0.1-0.1-0.1-0.2-0.1-0.3C136.1,110.6,136.3,110.5,136.5,110.3L136.5,110.3z
	 M132.2,130.4l3.9-3l0.5,0.6c1-0.6,1.4,0.9,1.9,1.6c-0.5,0.2-1,0.4-1.4,0.6l-3.2,2.5L132.2,130.4L132.2,130.4z"/>
<path class="st0" d="M134.6,65.5c0.7,1,3.1,0.6,4.3,0.6C138.2,65.2,135.9,65.6,134.6,65.5z"/>
<polygon class="st0" points="158.5,74.3 158.5,74.3 158.5,74.3 "/>
<path class="st0" d="M157.8,74.1c0,0.1,0,0.2,0,0.3l0.7-0.1C158.5,73.9,158,74.1,157.8,74.1z"/>
<path class="st0" d="M154.7,74.4c0.4,0,0.9,0,1.3,0C155.5,73.6,155.1,74,154.7,74.4z"/>
<path class="st0" d="M160,81.3v-0.2c-0.2,0-0.4,0.1-0.6,0.2C159.6,81.2,159.8,81.3,160,81.3z"/>
<path class="st0" d="M141.1,66.1c0,0.1,0,0.2,0,0.3c2.5,0.2,5.1,1.1,7.5,0.4C146.3,65.8,143.5,66.4,141.1,66.1L141.1,66.1z"/>
<path class="st0" d="M149.7,66.8c0-0.1,0-0.2,0-0.2c-0.3,0-0.6,0-0.8,0c0,0.1,0,0.2,0,0.2C149.1,66.8,149.4,66.8,149.7,66.8z"/>
<path class="st0" d="M160,67.2v-0.7c-3,0-6.1,0.1-9,0.2C153.8,67.1,156.9,67.3,160,67.2z"/>
<path class="st0" d="M158.9,168.1L158.9,168.1c-0.2,0.2-0.2,0.6-0.3,0.9c0.4,0.1,0.7,0.2,1.1,0.2c0.1-0.4,0.1-0.7,0.2-1.3
	C159.4,168,159,167.9,158.9,168.1L158.9,168.1z"/>
<path class="st0" d="M145.4,146c0.1-0.7-0.2-1.9-0.8-1.7h0C143.2,144.8,144.4,146,145.4,146L145.4,146z"/>
<polygon class="st0" points="151.5,155.4 151.5,155.4 151.5,155.4 "/>
<path class="st0" d="M149.1,156.4c0.3,1.4,3.3-0.1,2.4-1.1C150.4,155.1,149.9,155.8,149.1,156.4z"/>
<path class="st0" d="M147.6,73.7c-0.9,0.1-1.6,0.1-2.4,0.2C145.7,74.7,147.2,74.2,147.6,73.7z"/>
<path class="st0" d="M5.2,53.8c-0.7,0.2-0.7,0.5-0.5,0.8C5.3,54.9,5.1,54.3,5.2,53.8z"/>
<path class="st0" d="M123.7,97.1c-0.5,0.2-0.1,1,0.6,0.9C124.1,97.8,123.9,97.4,123.7,97.1z"/>
<path class="st0" d="M138.2,132.6c-0.1,0.9,0.9,0.7,1.1-0.1C138.9,132.3,138.5,132.2,138.2,132.6z"/>
<path class="st0" d="M140.4,142.2C139.6,145.3,143.6,141.5,140.4,142.2L140.4,142.2z"/>
<polygon class="st0" points="140.3,142.2 140.4,142.2 140.4,142.2 "/>
<path class="st0" d="M26.7,62.6c0.3-0.1,0.6-0.2,0.9-0.3C27.1,61.9,26.8,62,26.7,62.6z"/>
<path class="st0" d="M8.4,53.9c0.9-0.3,0.2-1.8-0.6-1.4C6.7,52.9,7.5,54.4,8.4,53.9z"/>
<path class="st0" d="M54.4,54.9c-0.6-0.5-3.1-1-4.4-1C51.3,54.9,52.8,55.1,54.4,54.9z"/>
<path class="st0" d="M7.9,54.8L8,54.6c-0.3-0.1-0.6-0.2-0.9-0.3l0,0c0,0.1-0.1,0.2-0.1,0.2C7.3,54.6,7.6,54.7,7.9,54.8L7.9,54.8z"/>
<path class="st0" d="M129,122.7c0.1-0.2,0.9-0.6,0.7-0.8c0.2,0,0.5-0.1,0.6-0.2l1,1.3c0-0.6,0.1-1.1,0.1-1.7c-0.5,0-2.6-0.3-1.8,0.6
	l0,0.1c0,0,0,0,0,0l0,0C129.4,122.2,129.1,122.4,129,122.7L129,122.7z"/>
<path class="st0" d="M120.1,89c-0.1,0.4-0.2,0.6-0.2,0.7C120.5,90.5,120.4,89.9,120.1,89z"/>
<path class="st0" d="M117.7,101.1c0.1,0.6,0.3,0.8,0.8,0.8C118.4,101.4,118.3,101,117.7,101.1z"/>
<path class="st0" d="M47.7,65.6c0.1,1.2-0.7,1.4-1.8,1.6c0.6,2,3,3.2,3.6,0.5C54,69.7,50.2,64,47.7,65.6L47.7,65.6z M48.2,67.6
	L48,67l0.7-0.3l0.3,0.6L48.2,67.6z"/>
<path class="st0" d="M65,72.4c-0.8,0.6-0.1,1.8,0.9,1.3C66.7,73.2,66,71.8,65,72.4z"/>
<path class="st0" d="M102.8,54.5c0.8,0,1.6,0.1,2.4,0.2c-0.1-1.8-1.8-1.3-3.1-1.5C102.4,53.6,102.7,54.1,102.8,54.5L102.8,54.5
	L102.8,54.5z"/>
<polygon class="st0" points="17.1,42.8 17.1,42.8 17.1,42.8 "/>
<path class="st0" d="M17.7,43.3c0-0.1,0.1-0.2,0.1-0.3c-0.2-0.1-0.5-0.2-0.7-0.3c0,0.1-0.1,0.2-0.1,0.3
	C17.2,43.1,17.5,43.2,17.7,43.3z"/>
<path class="st0" d="M21.7,44.6c-1.1-0.3-2-1.2-3.2-0.9C19.6,43.9,20.5,44.8,21.7,44.6z"/>
<path class="st0" d="M103.6,49.8c-0.8-3.4-3.1-6.7-2.6-10.3c-2.7-3.1-2.6-7.5-3.9-11.3c-1.1-1,0.9-5.9-0.9-3.9
	c-0.2-3.4-1.7-6.8-2-10.5c0.1,0,0-0.1,0-0.1c0-0.1-0.1-0.1-0.1-0.2l-0.3,0.2l-1.2-1.6l0.8-0.6l1.2,1.5c-0.1-0.6-0.3-2.6-1.1-2
	C93,10.5,94.9,7.8,93,8.9c0-1-0.1-2-0.1-3c0.5,1.3,0.8,1,0.5-0.2C92.8,5.7,92,3,91.4,0h-2.1C92.3,17.9,96.9,49.7,103.6,49.8
	L103.6,49.8z"/>
<path class="st0" d="M27.8,47c-0.3-0.5-0.7-0.7-1.4-0.8C26.6,47,27.1,47.1,27.8,47z"/>
<path class="st0" d="M0.3,47.9c-0.1,0-0.2,0-0.3,0v1.3C0.4,49,0.7,48.6,0.3,47.9z"/>
<path class="st0" d="M0,35.6v0.8c0.9,0.5,1.9,0.7,3,0.7C2.1,36.5,1.1,35.9,0,35.6z"/>
<path class="st0" d="M16.5,42.5c-4-1.7-7.7-3.3-11.6-4.5c0.3,0.4,0.8,0.6,1.2,0.7C9.7,39.6,12.6,43,16.5,42.5L16.5,42.5z"/>
<path class="st0" d="M49.4,53.7c-0.2-0.1-0.5-0.1-0.7-0.2c-0.1,0.3,0.4,0.4,0.5,0.6C49.3,54,49.4,53.9,49.4,53.7z"/>
<path class="st0" d="M33.5,48.9c-1.1-0.7-2.1-1-3.1-1.2C31.1,48.6,32,49.2,33.5,48.9z"/>
<polygon class="st0" points="48.7,54.8 48.7,54.8 48.7,54.8 "/>
<path class="st0" d="M47.8,53.3l-3.7-0.9C44.2,53.4,47.5,54.1,47.8,53.3z"/>
<path class="st0" d="M48.9,55.3c0-0.2,0.1-0.6-0.2-0.5c-0.1,0.1-0.1,0.2-0.2,0.4C48.6,55.2,48.7,55.2,48.9,55.3L48.9,55.3z"/>
<path class="st0" d="M37.8,50.2c-0.8-0.3-1.2-0.9-2.1-0.2C36.4,50.4,36.9,50.6,37.8,50.2z"/>
<polygon class="st0" points="44.1,52.3 44.1,52.3 44.1,52.3 "/>
<path class="st0" d="M43,52.2c0-0.1,0.1-0.2,0.1-0.3c-0.2-0.1-0.5-0.2-0.7-0.3c0,0.1-0.1,0.2-0.1,0.3C42.5,52.1,42.7,52.1,43,52.2z"
	/>
<path class="st0" d="M160,77.9v-3c-1.9,0-3.7,0-5.5-0.2c-0.5-0.4-1.4,0.2-1.7-0.6c-0.4-0.8-1.2,0.2-0.5,0.7
	c-3.4-0.8-6.9,0.1-10.6-0.7l0,0c-0.1-0.1-0.2-0.2-0.3-0.3l0.2,0.4l-1.8,0.8c0-0.1-0.2-0.4-0.2-0.5l1.7-0.8c-0.7-0.5-1.8-0.2-2.6,0
	c0.1,0.2,0.1,0.3,0.1,0.4c-0.7,0.2-2.8-2.2-2.2-0.1c-0.3-0.1-0.6-0.1-0.8-0.2C141.5,76.8,150,77.9,160,77.9L160,77.9z"/>
<path class="st0" d="M132.9,65.7c-0.2,0-0.4,0-0.5-0.1C132.4,65.9,132.7,65.7,132.9,65.7z"/>
<path class="st0" d="M128.6,66c-0.1-1.1-1-0.9-1.8-1.1C126.8,66.1,127.7,66,128.6,66L128.6,66L128.6,66z"/>
<path class="st0" d="M130.2,73.5c0.1,0.3,0.1,0.8,0.2,1.1h0c0.4,1.4,1,2,2.5,1.6C132.3,74.6,132.3,73,130.2,73.5L130.2,73.5z"/>
<path class="st0" d="M124.2,70c-0.4-1-0.6-2.2-1.9-2C122.7,69,122.9,70.2,124.2,70z"/>
<path class="st0" d="M127.5,62.7L127.5,62.7c-0.5-1.4-1-2.3-2.6-2.1C125.5,62,125.9,63,127.5,62.7z"/>
<path class="st0" d="M143.5,73.8c-0.4-0.4-0.5-0.3-0.9,0C142.9,74.3,143.1,74.1,143.5,73.8z"/>
<path class="st0" d="M140.3,83.6c5.4,12.4,12.5,23.9,19.7,35.3V83.7C153.4,83.7,146.8,83.7,140.3,83.6z"/>
<path class="st0" d="M160,62c-10,0.1-19.8-0.2-29.4-0.9c9.5,1.9,19.4,2.8,29.4,3V62L160,62z"/>
<path class="st0" d="M123,51.6c-6.3-16.6-10.3-34-13.3-51.6h-1.5c1.7,9.7,3.7,19.3,5.9,28.9C116,32.9,119.7,51.8,123,51.6z"/>
<path class="st0" d="M118.7,56.1c-0.4-0.8-0.3-1.8-1.4-1.6C117.5,55.4,117.6,56.3,118.7,56.1L118.7,56.1L118.7,56.1z"/>
<path class="st0" d="M113.3,74.6c-0.1-0.6-0.3-1.2-0.8-1.6c-0.8-1-1.1-1.6-2.4-1.2c-0.1-0.7-0.7-0.9-1.3-1
	C109.6,73.8,110,75.3,113.3,74.6z"/>
<path class="st0" d="M110.5,68.6c0-0.6-0.1-1.3-0.5-1.7l0,0c-1.1-0.1-2.1-0.2-3.2-0.3C107.1,68.7,108.7,68.5,110.5,68.6L110.5,68.6z
	"/>
<path class="st0" d="M121,62.2c-0.3-1.2-0.5-2.3-2-2C119.4,61.2,119.6,62.4,121,62.2z"/>
<path class="st0" d="M120.7,72.6c0.1,0.4,0.2,0.8,0.3,1.2l0,0c0.1,0,0.2-0.1,0.3-0.1C121.1,73.3,121.2,72.5,120.7,72.6z"/>
<path class="st0" d="M120.9,64.3c0.2,0.8,0.8,0.8,1.6,0.9C122.3,64.3,121.7,64.2,120.9,64.3z"/>
<polygon class="st0" points="120.9,64.3 120.9,64.3 120.9,64.3 "/>
</svg>
