<?xml version="1.0" encoding="utf-8"?>
<!-- Generator: Adobe Illustrator 26.5.0, SVG Export Plug-In . SVG Version: 6.00 Build 0)  -->
<svg version="1.1" id="a" xmlns="http://www.w3.org/2000/svg" xmlns:xlink="http://www.w3.org/1999/xlink" x="0px" y="0px"
	 viewBox="0 0 160 599.6" style="enable-background:new 0 0 160 599.6;" xml:space="preserve">
<style type="text/css">
	.st0{fill:#FFFFFF;}
</style>
<path class="st0" d="M23,556c0.1,0.4,0.2,0.7,0.4,1.3c1.1-1.6,1.4-3,2-4.8C24,553.5,24.3,555.3,23,556L23,556z"/>
<path class="st0" d="M29.6,541.6L29.6,541.6c-0.4,1-0.8,1.8-1.2,2.8c-0.8-0.8-1-2.1-2.2-1.8c0,1.2,0.5,2.2,1.6,2.9
	c-0.3,0.7-0.8,1.3-0.2,2.1c0.4-0.3,0.9-0.6,1.4-1C27.5,545.1,30.5,543.4,29.6,541.6z"/>
<path class="st0" d="M88.4,444.4c0.1-0.1,0.2-0.2,0.2-0.2c-0.4-0.2-0.8-0.3-1.1-0.5h0c0,0.1-0.1,0.2-0.1,0.3
	C87.7,444.1,88,444.3,88.4,444.4z"/>
<path class="st0" d="M20.2,565.8c0.6-2,1.5-3.8,2.1-5.7c-0.1,0-0.2-0.1-0.2-0.1c-0.2,0.3-0.3,0.6-0.5,1c-1.1-0.9-1.4-0.8-1.8,0.7
	c0.3,0.2,0.7,0.3,1.1,0.5C20.8,563.3,19.9,564.7,20.2,565.8L20.2,565.8z"/>
<path class="st0" d="M91.9,445.1L91.9,445.1C91.8,445.1,91.8,445.1,91.9,445.1C91.8,445.1,91.9,445.1,91.9,445.1z"/>
<path class="st0" d="M16.8,574.8c0.7-2.8,2.4-5.2,3.1-8c-1.7,0.7-1.4,5.1-3.6,5.2c-1.1,0.1-0.8,1.3,0.3,1.5
	C16.4,574,16.5,574.4,16.8,574.8L16.8,574.8z"/>
<path class="st0" d="M26.7,548.5c-0.2,0.5-0.4,1.1-0.7,1.8c-0.4-0.5-0.6-0.9-0.9-1.3c-1.4,0.6,0,2.2,0.5,3.1
	c0.7-0.6,0.7-1.8,2.1-1.5c-0.7-0.8-1.4-1-0.9-2C26.8,548.6,26.8,548.6,26.7,548.5z"/>
<path class="st0" d="M45.4,513.1c0.7-0.3,1-0.6,0.9-1.4C45.7,512,45.4,512.5,45.4,513.1z"/>
<path class="st0" d="M52.5,501.9c-2,1.6-5.8,8-5.8,9.8C48.7,508.2,50.5,505.2,52.5,501.9z"/>
<path class="st0" d="M54.7,498.2c-0.5,0-0.3,0.3-0.2,0.6h0.2C54.7,498.6,54.7,498.4,54.7,498.2z"/>
<path class="st0" d="M101.9,448c-0.8-0.2-1.8-1.1-2.3-0.2l0,0C100.3,447.9,101.4,448.8,101.9,448z"/>
<path class="st0" d="M26.2,542.7L26.2,542.7C26.2,542.7,26.2,542.6,26.2,542.7L26.2,542.7z"/>
<path class="st0" d="M54.9,497.9c0.8-0.4,1-0.9,0.8-1.5h0C55.4,496.9,55.2,497.3,54.9,497.9z"/>
<path class="st0" d="M31.4,539.3c1.1-2.4,3-4.7,3.6-7.1l-0.2,0c-1.1,2.5-3.2,4.4-3.6,7.1C31.2,539.3,31.3,539.3,31.4,539.3z"/>
<path class="st0" d="M36.2,529.7l0.4-0.6c-0.1,0-0.1-0.1-0.2-0.1l-0.4,0.6C36.1,529.6,36.1,529.6,36.2,529.7z"/>
<path class="st0" d="M42.2,519c-2,2.2-3.2,4.5-4.2,7.2C39.3,523.8,41.7,521.6,42.2,519z"/>
<path class="st0" d="M43.2,517.3c0.3-0.4,0.6-0.8,1-1.3c-0.1-0.1-0.2-0.1-0.2-0.2c-0.3,0.4-0.6,0.9-1,1.3
	C43,517.2,43.1,517.2,43.2,517.3L43.2,517.3z"/>
<path class="st0" d="M93.3,450.3c0.8,0.4,1.2-0.1,1.7-0.7C94.2,449.2,93.8,449.7,93.3,450.3z"/>
<polygon class="st0" points="95,449.6 95,449.6 95,449.6 "/>
<path class="st0" d="M0.2,574c-0.1,0-0.1,0-0.2,0v1.4c0.1,0,0.1,0,0.2,0.1C1,575.2,1.1,574.3,0.2,574z"/>
<path class="st0" d="M105.1,431.4c16.8-14.9,35.2-29.4,54.9-42.6v-2.6C140.1,399.1,121.6,414,105.1,431.4z"/>
<path class="st0" d="M148.6,390.6l-0.1-0.1c-0.2,0.2-0.4,0.4-0.7,0.6c0.1,0.1,0.1,0.2,0.2,0.2C148.2,391.1,148.4,390.8,148.6,390.6
	L148.6,390.6L148.6,390.6z"/>
<path class="st0" d="M88.8,454.5L88.8,454.5c0.9,0.6,1.3-0.2,2-0.8C89.9,453,89.4,453.8,88.8,454.5L88.8,454.5z"/>
<path class="st0" d="M139.5,397.3c-0.4,0.3-0.9,0.5-1.3,0.8l0.2,0.3c0.4-0.3,0.9-0.5,1.3-0.8C139.6,397.5,139.5,397.4,139.5,397.3
	L139.5,397.3z"/>
<path class="st0" d="M160,599.6V489.4c-17.8-10.3-36.2-19.5-55.7-26c-8.5-2.1-13.7,12.1-20.3,17.1c-24.9,26.9-43.9,73.2-57,102.2
	c-0.6-0.8-2.6,0.2-1.7,1.3l0,0c0.4-0.3,0.8-0.3,1.2-0.2c-1.1,2.4-2.2,4.8-3.2,6.9c-0.5-0.4-1-0.7-1.5-0.9c0.6-3.2,1.8-5.9,2.8-8.9
	c14.7-42.4,39.4-86.9,72.5-120.1c-33.6,28.3-56.5,75.1-72.8,117c-0.4,0-0.7-0.1-1.2-0.1c-0.2,0.8-0.6,1.8,0.4,2.2
	c-1.5,4.5-3.5,9.6-4.9,14.4c-0.8,1.2-1,3.7-1.6,5.3h1l1.6-5.9l3.5,0.9l-1.3,5L160,599.6L160,599.6z"/>
<path class="st0" d="M92.3,441.3c-0.7,0.2-1,0.4-1.3,0.8C91.5,442.3,91.8,441.6,92.3,441.3z"/>
<path class="st0" d="M91.2,448.3c-1-0.3-2.1-0.9-2.7,0.2C89.5,448.8,90.5,449.5,91.2,448.3z"/>
<path class="st0" d="M0,578.7v0.8c0.1,0.2,0.2,0.5,0.3,0.7C1.9,579.6,1.2,577.7,0,578.7L0,578.7z"/>
<path class="st0" d="M57.2,495.1c-0.1,0-0.1-0.1-0.2-0.1c-0.3,0.3-1,1-1.3,1.3h0C56.6,496.6,56.8,495.8,57.2,495.1z"/>
<path class="st0" d="M91.9,445.1c0.5,0.6,0.8,0.8,1.6,0.5l0,0C93,445.3,92.5,445,91.9,445.1z"/>
<path class="st0" d="M114.1,419L114.1,419C115.4,417.9,113.8,417.5,114.1,419z"/>
<path class="st0" d="M112,420.8c-0.4,0.1-0.7,0.3-0.6,1.1c0.4-0.4,0.6-0.6,0.9-0.9C112.1,420.9,112.1,420.8,112,420.8L112,420.8z"/>
<path class="st0" d="M92.1,455.7L92.1,455.7c1.4,0.5,2.4,0.7,3.2-0.7C93.9,454.5,92.9,454.3,92.1,455.7z"/>
<path class="st0" d="M116.1,416.9c-0.3,0.3-0.5,0.5-0.8,0.8c0.1,0.1,0.2,0.2,0.3,0.2c0.3-0.3,0.5-0.6,0.8-0.8
	C116.3,417,116.2,416.9,116.1,416.9z"/>
<path class="st0" d="M134.1,401c-0.2,0.2-0.4,0.4-0.6,0.6l0.2,0.2l0.7-0.5C134.3,401.2,134.2,401.1,134.1,401L134.1,401z"/>
<path class="st0" d="M45.4,513.2c-0.7,0.5-0.9,1.3-1.1,2.2C45.1,514.5,45.3,514.2,45.4,513.2z"/>
<path class="st0" d="M84.2,453c1.2,0.4,2.1,0.9,2.9-0.4c-0.7,0-1.2-0.6-1.8-0.7C84.9,452.3,84.5,452.6,84.2,453z"/>
<path class="st0" d="M84.4,435.1c0,0-0.1-0.2-0.2-0.2c-0.1,0.1-0.3,0.2-0.4,0.4c0.1,0.1,0.2,0.2,0.2,0.3
	C84.1,435.4,84.3,435.3,84.4,435.1z"/>
<path class="st0" d="M86.6,447.1C86.6,447.1,86.6,447.1,86.6,447.1L86.6,447.1C86.6,447.1,86.6,447.1,86.6,447.1L86.6,447.1
	L86.6,447.1z"/>
<path class="st0" d="M59.2,491.7c-1.2,0.3-1.3,0.6-1.8,3C58.2,493.8,58.6,492.8,59.2,491.7z"/>
<path class="st0" d="M78.1,445.6L78.1,445.6L78.1,445.6C78.1,445.6,78.1,445.6,78.1,445.6z"/>
<path class="st0" d="M81,450.5c-1.3-0.5-2.2-0.5-2.8,0.9c0.9,0.3,1.8,0.6,2.7,1c0.3-0.5,0.7-1,1.1-1.4
	C81.7,450.8,81.3,450.6,81,450.5L81,450.5L81,450.5z"/>
<path class="st0" d="M18.9,532c0.4-0.3,0.6-0.6,0.2-1.1C18.7,531.3,18.6,531.7,18.9,532z"/>
<path class="st0" d="M86.7,457.6c-0.1,0-0.1,0-0.1,0c-0.1,0.1-0.1,0.3-0.2,0.4C86.5,457.9,86.6,457.8,86.7,457.6z"/>
<path class="st0" d="M82.2,462.5l0.2,0.2c1.2-0.9,2.1-2,3-3.1l-0.2-0.2C84,460.2,83,461.2,82.2,462.5z"/>
<path class="st0" d="M11.4,572.2c0-0.5-0.4-0.5-0.8-0.5C10.4,572.3,11.1,572.9,11.4,572.2z"/>
<path class="st0" d="M6.9,579.2c0.5-0.4,0.8-0.6,0.7-1.2C6.9,578.1,6.9,578.5,6.9,579.2z"/>
<path class="st0" d="M54.8,473c-0.7,0.3-1,0.8-1,1.6C54.4,474.2,54.8,473.8,54.8,473z"/>
<path class="st0" d="M8.5,574.7c-0.3,0.5-0.9,1-0.3,1.6C8.4,575.8,8.8,575.4,8.5,574.7L8.5,574.7L8.5,574.7z"/>
<path class="st0" d="M19.8,443L19.8,443c-0.5-0.3-1-1-1.4,0c0.6,0.4,0.5,1.1,0.4,1.7C20,444.6,21,443.7,19.8,443z"/>
<path class="st0" d="M13.2,563.5c0,0,0-0.1,0-0.2c-0.3,0.1-0.4,0.1-0.3,0.6C13.1,563.7,13.2,563.6,13.2,563.5z"/>
<path class="st0" d="M78.2,445.5L78.2,445.5L78.2,445.5L78.2,445.5z"/>
<path class="st0" d="M57.7,469c-0.4,0.5-0.8,0.9-1.1,1.2C57.3,469.9,57.6,469.5,57.7,469z"/>
<path class="st0" d="M71.7,448.4c-15.8-4.4-31.7-5.9-47.9-8.1c-0.1-0.4-0.1-0.7-0.2-1.2c-0.9,0-1.9-0.2-2.1,0.9
	c-4.7-0.4-10.2-1.1-15.2-1.3c-1.8-0.8-4.8,0.4-6.4-0.5v129.6c0.5-1.3,0.9-2.5,1.5-3.8c0,1.3,2.3,5.3,2.2,2c-0.2-2,2.5,0.3,3.7,0.1
	c-0.2,0.4-0.2,0.7-0.2,1.2c-2.8,4.8-3.6,11.8-6.2,16.7c-1.6-0.2-0.7,1.6-0.8,2.2c-0.1,0.2-0.2,0.4-0.3,0.6v12.7h1.5
	c0.6-2-1-0.8-1.5-1.7c-0.1-0.8,0.8-1,1-1.6c0-0.6,0.3-1,1-1.2c0.6-0.2,0.6-0.4,0-1.1c3.3-1.5,2.2,2,0.9,5.5h1.7
	c0.6-1.6,1.1-3.2,1.7-4.8c0.2,0.2,0.5,0.5,0.8,0.8c0.2-0.5,0.3-0.9,0.5-1.4l-1.2-0.3l0.2-0.6l1.2,0.3c-0.3,0.6,0.6,0.8,0.9,1.2
	c-0.4,0.4-1.1,1.2-1.1,1.2l0.7,0.8c0.5-0.2,0.6-0.9,1.1-0.8c-0.1,0-0.8,0.7-0.9,1l-0.2-0.2c-0.2,0.1-0.3,0.2-0.4,0.3
	c2.7,0.6,2.1,0.5,0.6,2.5h4.2c1.2-3.7,1.6-10.3,5.4-10.6c0.3-0.8,0.6-1.8-0.4-2.2c0.2-0.4,0.5-0.7,0.8-1.2c-0.4-0.2-0.7-0.3-1-0.4
	c15.4-46.6,39.8-90.5,73.8-126.1C52,492.3,27.4,549,11.3,598.9c-1.4-1.2-1.6-7.7,0.8-8.3c-0.4-4.2,3.3-8.5,3.6-13l-0.3-0.1
	c-2.3,3.8-1.9,9.2-5.4,12c1.5,1.7-0.7,2.6-1.3,4.1c-3.1-0.5,5-22.8,7.5-23.8c-0.7-2.8,1.3-8.3,3.7-10.4c0.8-0.7-1-0.9-0.1-1.7
	c0.2,0.2,0.5,0.5,0.7,0.8c0.7-0.3,0.1-1.5,0.1-2.1l0.5-1.9c1.5,3,2.8-2,4-3c-6.9,0.9,11.4-28.3,13-31.7
	c12.4-22.4,27.1-44.2,45.1-62.9c-10,3.5-17.3,18.9-25,27.4c-12.9,17.8-22.6,38.4-34.2,56.4c0.7,2-3.6,15-6.7,11.1
	c4.9,0.1-0.2-3.5,2.4-6.2c0.1,0.2,0.1,0.4,0.2,0.6c0.6-0.3,0.6-1.4,1.3-1.7c1.5-0.7,0.3-2.4,1.3-3.3c0.9-1.3-1.9-3.3,1.2-3.4
	c0.2-0.6,0.7-1.1,0.2-1.8l1.6-3.1c1.3,0.4,0.5-2.3,2.2-3c-0.1-1.1,0-1.9,1.4-2.3c-0.7-1.3,0.7-1.4,0.4-2.9c0.6-0.3,1.4-0.5,1.2-1.4
	c0.2-1.4,1.2-2.7,2.2-3.7c0.1-2.4,3.4-2.5,2.8-4.4c-0.2,0.2-0.3,0.5-0.5,0.8c-0.2-1.2,1.1-1,1.2-1.9c-0.2,0-0.4,0-0.7-0.1
	c0.4-1.7,2.7-2.1,2.7-3.9c0.1-1,0.5-1.7,1.2-2.3c0,0.1,0,0.3-0.1,0.5c0.7-0.2,1-0.6,0.9-1.2c0.7-2.3,2-4.2,3.2-6.6
	c0.8-0.6,3.6-1.1,2.2-2.7c1.8-2.1,2.5-4.8,4.4-7c0.1,0.1,0.2,0.2,0.4,0.3c1.1-0.9,0.4-2.9,1.9-3.8c0.7-0.3,0.6-1.1,1.2-1.5
	c1.4-1.7,2-4.3,4.3-5.1c1.5-5.2,6.7-9.9,9.9-12.9c-0.3,0-0.5-0.1-0.8-0.1c0.3-1,2.3-1,2.1-2.2c1.7-1.8,3.1-4,5.1-5.6l0,0
	c0.2,0,0.3,0,0.4,0l-0.4-0.1l0.5-1.9c0.1,0,0.4,0.1,0.5,0.1l-0.5,1.8c0.8-0.2,1.3-1.3,1.6-2c-0.2-0.1-0.3-0.1-0.4-0.2
	c0.5-0.9,1.8-0.2,2.2-1.4c-0.2-0.1-0.4-0.2-0.7-0.3c0.2-0.2,0.4-0.4,0.7-0.5c-16.5,3.7-54.8,73-61.8,91.5c-0.7,0.2-1.3,0.4-2,0.7
	c-0.4-0.7,0.7-1.3,1-1.9c-2.9-2.4-4.3,2.8-2.8,4.4c-0.7,0.2-1.3,0.5-2,0.7c2.3,2.8,2.5,5.3,0.6,8.5c-0.3-0.4-0.5-0.7-0.7-0.9
	c1.1-1,1.1-1.2-0.1-2.5c-0.4-0.2-0.9,0.6-1.3,0c0.8-0.5,1.5-1,2.4-1.6c-0.3-0.4-1.4-2.3-1.6-1h0l0.6,0.2l-0.5,1.8l-1.4-0.4l0.4-1.6
	c-4.6,0,1.1-7.2,1.6-9.8c0.4,0.3,0.6,0.5,1.1,0.9c-0.2-6.2,3.9-12.8,7.2-17.4c12.2-26.9,29.7-51.9,49-74.2
	c-15.5-4.2-31.4-5.7-47.4-7.5c-3.5-0.9-8.1,0.2-10.9-2.2c0.4-1,0.5-1,1.9-0.2c0.2-0.6,0.4-1.1,0.5-1.7c12.8,0.5,25.2,2.6,38.9,4.3
	C56.3,445.2,68.2,450.9,71.7,448.4L71.7,448.4z M2.2,591.5l0.7-2.6l0.5,0.1l-0.7,2.6l0,0C2.7,591.6,2.3,591.5,2.2,591.5z M3.7,591.4
	c-0.2,0-0.5-0.1-0.6-0.2c0,0,0.3-1.1,0.3-1.1l0.6,0.2C4,590.3,3.7,591.4,3.7,591.4z M22.1,550.9l1,0.3l-0.7,2.7l-1-0.3L22.1,550.9z
	 M10.1,570.4c-0.1-2.9,2.9-4.5,2.4-7.4c1.2-0.6,1.3-1.6,0.9-2.8c2.3-0.3-0.2-2.2,1.8-2.8c1.3,0,0.6-1.3,1.6-1.9
	c3.4,2.1-1.2,5.5-1.1,8.7c-0.2,1.6-6.2,2.6-3.8,4.6c2,2.9-1.2,7-1.8,10c-1.6,2.1-1.9,10-4.9,9.5c-1-1,0-2.1-0.3-3.2
	c-0.3-1.5,2.2-1.1,1.6-3c-0.3,0.5-0.4,0.7-0.7,1.2c0-2.5,0.9-5,2.6-6.8l0,0c0,0-0.1-0.1-0.1-0.2c0,0-0.1,0.1-0.1,0.1
	c-0.9-1.4,1.1-3.4,1.2-4.9c0.1,0.3,0.2,0.5,0.4,0.8C10.3,572,10,571.1,10.1,570.4C10.1,570.4,10.1,570.4,10.1,570.4z M10,561.9
	l-0.8,2.9L4,563.5l0.8-2.9C4.8,560.5,10,561.9,10,561.9z M5.5,441.5c-1.9-0.6-2,2.7-3.4,1.1c0.2-0.2,0.5-0.3,0.7-0.5
	c-7.1-1.8,1.5-3.3,4.6-2C8,441.6,6.5,441.4,5.5,441.5L5.5,441.5z"/>
<path class="st0" d="M81.9,447c1.1,0.3,2.1,0.6,3.2,0.6l0,0c0.2-0.2,0.5-0.5,0.7-0.7C84.3,446.8,83,445.2,81.9,447z"/>
<path class="st0" d="M78.5,441.1c-0.3-0.1-0.7-0.1-1.1-0.1C77.8,441.2,78.3,441.6,78.5,441.1z"/>
<path class="st0" d="M75.2,470.6c0.2-0.2,0.4-0.4,0.5-0.6c-0.1,0-0.1-0.1-0.2-0.1c-0.2,0.2-0.4,0.4-0.5,0.6
	C75.1,470.5,75.1,470.5,75.2,470.6z"/>
<path class="st0" d="M33.1,519.2c-0.3,0.3-0.5,0.5-0.5,1C33.3,520,33.1,519.5,33.1,519.2z"/>
<path class="st0" d="M29.3,526.4c0,0,0.1,0,0.1,0.1c0.2-0.2,0.3-0.4,0.6-0.9c-0.4,0.2-0.6,0.2-0.7,0.3l0,0
	C29.3,526,29.3,526.2,29.3,526.4z"/>
<path class="st0" d="M75.8,469.6c2.2-1.2,3.4-3.7,5.2-5.4c-0.1-0.1-0.1-0.1-0.2-0.2C79.1,465.8,76.7,467.3,75.8,469.6z"/>
<polygon class="st0" points="61.3,488.1 61.3,488.1 61.3,488.1 "/>
<path class="st0" d="M64.9,483.6c3.2-3.9,6.4-8,9.4-12.1c-3.6,3.3-7,7.6-9.6,11.9C64.8,483.5,64.8,483.6,64.9,483.6L64.9,483.6z"/>
<path class="st0" d="M61.5,488.3l2.7-3.7c-1.5,0.8-2.2,2.1-2.9,3.5C61.3,488.1,61.5,488.3,61.5,488.3z"/>
<path class="st0" d="M25.5,534.4c0.1-0.3,0.3-0.7,0.4-1.1c-0.1,0-0.2-0.1-0.3-0.1C25.3,533.6,25,533.9,25.5,534.4z"/>
<path class="st0" d="M63.9,472.8c0.1-0.2,0.3-0.4,0.4-0.6c-0.1-0.1-0.2-0.1-0.3-0.2l-0.3,0.6C63.7,472.7,63.9,472.8,63.9,472.8z"/>
<path class="st0" d="M66,469.6c-0.3,0.4-0.5,0.7-0.8,1C66.1,470.8,66,470.2,66,469.6z"/>
<path class="st0" d="M70.9,464.5L70.9,464.5c0.5-0.7,0.9-1.3,1.4-1.9C71.3,462.4,70.8,463.8,70.9,464.5z"/>
<path class="st0" d="M73.4,461.2c0.6-0.1,0.6-0.2,0.5-0.7C73.4,460.5,73.5,460.7,73.4,461.2z"/>
<polygon class="st0" points="63.7,472.7 63.7,472.6 63.7,472.6 "/>
<path class="st0" d="M33.2,519.1C33.2,519.1,33.2,519.1,33.2,519.1C33.2,519.1,33.2,519.1,33.2,519.1
	C33.2,519.2,33.2,519.2,33.2,519.1z"/>
<path class="st0" d="M33.2,519C33.2,519,33.2,519,33.2,519C33.2,519,33.2,519,33.2,519z"/>
<path class="st0" d="M33.5,518.1L33.5,518.1c0.1,0.2,0.1,0.3,0.2,0.5c0.2-0.1,0.2-0.1,0.3-0.2C33.9,518.2,33.8,517.9,33.5,518.1
	L33.5,518.1z"/>
<path class="st0" d="M87.9,441.1c0.9,0.4,1.8,0.6,2.8,0.9c0.5-0.7,1.1-1.3,1.8-1.9C90.4,439.5,89,439,87.9,441.1z"/>
<path class="st0" d="M91.7,437.1c0.5,0.3,1.1,0.5,1.7,0.3c1.2,0,1.9,0.2,2.4-1.1c0.6,0.4,1.1,0.1,1.6-0.4c-1.3-0.4-2.8-1-4.1-1.3
	C92.9,435.6,92.3,436.4,91.7,437.1z"/>
<polygon class="st0" points="95.7,441.2 95.7,441.2 95.7,441.2 "/>
<path class="st0" d="M7.1,566.8c-0.2-0.4-0.8-0.5-0.9,0.1C6.3,567.6,7.1,567.4,7.1,566.8z"/>
<path class="st0" d="M93.9,443c1.6,1.4,2.5,0,3.6-1.2c-0.6-0.1-1.2-0.3-1.8-0.5C95.1,441.8,94.5,442.4,93.9,443z"/>
<path class="st0" d="M0,413.1c0.6,0.1,1.2,0.1,1.8,0.2c4.5,0.8,11-0.7,14.4,2.5c0.8-0.1,1-0.6,1-1.3c4.8,0.8,9.9,0.6,14.7,1.6
	c-1.9,0.8-4.7,3.9-0.7,2.6c0.6,1.2-0.3,2.4,0.1,3.8c-6.2-0.9-12.8-1-18.8-1.9c-0.3-0.8-0.6-1.1-1.2-0.8c-2.4,1.8-4-2.6-5.9-0.8
	c-0.8,1.2-2.2-0.7-3,0.7c-0.5,0.6-0.6,0.6-1.2,0c1.8-1.3,1.1-3.5-0.9-1.8h0.1v1c0,0-0.2,0-0.3,0v3.2c0.1,0.1,0.2,0.1,0.3,0.1
	c0.6-0.1,1,0,1.4,0.6c0.3,0.5,0.6,0.5,1.1-0.2c1.8,1.7,0.2,2.3-2.8,2.4v1.7c1.1,0.1,2.1,0.2,3.2,0.3c-0.2,0.3-0.3,0.6-0.5,1
	c0.6,0,1.1,0.1,1.7,0.1c-0.2,0.4-0.3,0.8-0.5,1.2c-0.5-0.3-0.9-0.5-1.5-0.8c0.2,0.6,0.3,1.1,0.4,1.7c-0.6-0.5-1-0.8-1.4-1.2
	c-0.5,0.8,0.4,1.3,0,2c-0.5-0.3-1-0.4-1.4-0.5v3.6c3.9,0.2,10.2-0.9,11.4,2.7c0.8,0.1,1.9,0.2,2.1-0.9c0.4,0.1,0.8,0.3,1.3,0.5
	c-1.1-2.8,16.6,0.9,18.9,1c14,0.4,28.6,5.6,41.9,6.6c-24.6-6.5-49.9-9.5-75.2-10.8c0.1-1.4,7.9-3.4,8.2-1.3c1.5-1.5,4,0.1,5.9,0.1
	c2.5,0.6,5,0,7.6,0.3v-0.3c-3.9-1.2-10.1,0.2-13-2.3c-1.3,1.9-2.7-0.1-4.3-0.3c4.1-4.1,11.8,0.2,17-0.4c2.4-0.1,4.6,0.5,7,0.5
	c0.4,0.5,0,1.4,0.9,1.4c2.7-1.4,8.4-0.8,11,1c0.9,0.6,0.7-1.2,1.6-0.5c-0.2,0.3-0.4,0.6-0.5,0.9c0.9,0.5,2.7-0.9,4.1-0.4
	c-2.5,2.2,2.5,2.2,3.8,3.1c0.2-4.9,6.1-0.4,8.9-1.5c0.1,0.1,0.1,0.2,0.1,0.4c-1.1-0.5-2.1,0.8-2.4,1.8c-0.8-0.1-1.5-0.4-2.1,0.3
	c0.4,0.3,0.8,0.7,1.3,1.1c1.2-1.7,3.5,0.7,5-0.6c-1-0.2-1.9-0.3-3-0.5c0.4-0.8,1.4-1.2,1.3-2c6.5-0.4,19.6,7.4,23.5,3
	c-7.2-2.2-15.9-2.5-22.2-6.2c-2.5,1.6-6-0.5-8.8-0.3c-2.3-0.1-4.4-0.6-3.9-3.4c0.1,0,0.2,0,0.3-0.1c1.2,4.9,3.4-1.1,6.6,0.8
	c-0.2,0.1-0.3,0.2-0.5,0.3c0.4,0.5,1.5,0.3,2,0.8c1,1.3,2.4-0.3,3.5,0.4c0.6,0.3,1.2,0,1.4-0.4c0.5-1.1,2.2-0.4,2.2,0.6
	c0.6,0,1.2,0.5,1.8-0.2l3.4,0.8c0,1,0.7,0.6,1.2,0.6c0.9,0,1.6,0.3,2.2,0.9c1.1-0.4,1.8-0.4,2.6,0.8c1.1-1,1.6,0.4,2.9-0.3
	c0.4,0.5,0.9,1.3,1.6,0.8c1.5-0.2,3.2,0.6,4.6,1.5c-0.4-0.2-0.7-0.3-1.2-0.2c0.4,0.6,0.8,0.2,1.2,0.2l0,0c0,0,0,0,0,0l0,0l0,0
	c0,0,0.1,0,0.1,0c0,0,0,0,0,0c0.6-0.3,1-0.4,1.5,0c0.7-0.7,1.3-1.3,2-2c-11.2-2.9-22.9-6.5-34.4-7.6c-1.3-1.7-1.2-2.5,1-1.3
	c1.6-3.3-3.7-3.5-5-1.7c-0.4-0.6-0.8-1.1-1.2-1.7c-2.2,2.9-4.6,3.7-8.1,2.6c0.3-0.4,0.5-0.6,0.7-0.9c1.2,0.9,1.4,0.8,2.4-0.6
	c0.1-0.4-0.8-0.7-0.3-1.2l0.4,0.4v-1.6h1.9c-0.8-3.7,7.8-0.2,10.1-0.3c-0.2,0.4-0.4,0.8-0.6,1.3c5.5-1.9,10.9,0.9,16.4,1.6
	c2.6,0.9,0.3,1.4,4.3,1.1c11,1.1,16.6,9.3,24.5-2.2c11.4-12.1,27-26.5,38.7-33c-0.1-0.3-0.2-0.6-0.3-1c7.6-6.7,2.5,1.3,7.5-1.1
	c-0.5-0.5-0.9-1-1.3-1.5c1.9-1.4,1.9,1.6,2.5,2.5l0.2-0.9l0.5,0.1l-0.2,0.9c0,0-0.5-0.1-0.5-0.1c-2.3,5.7-10.8,9.6-15.7,13.7
	c-10.7,9.7-21.6,18.9-31.3,29.3c1,0.1,2.2,0.9,3.1,0.6l-0.1,0.2c1.8,0.7,0.7-1.6,2.1-2.5c0.1,0.3,0.2,0.5,0.3,0.8
	c0.5-0.5,1-0.9,1.5-1.3l-0.1-0.2l-0.7,0.3c1.1-1.4,2-3,3.9-3.3c-0.2-1.8,1.6-1.9,2.4-3.3c0.4-1,2.2-0.3,2.1-1.5
	c-0.1-0.9,0.5-1,1-1.5c1.5-0.1,1.8-3,3.2-2.4c1.3-2,3.4-3.2,5.1-4.8c0.3,0.9,1,0.1,0.9-1c-0.2,0-0.3,0.1-0.4,0.1
	c1.5-1.3,3.3-2.2,4.7-3.9c0.1,0.2,0.2,0.3,0.3,0.5c1.1-1.1,1.5-2.6,2.9-3.6c0,0,0,0.1,0.1,0.1c-0.1,0.3-0.2,0.7-0.3,0.9
	c0.6-0.3,0.6-0.6,0.5-0.8c0.1,0,0.2,0.1,0.3,0.1c2.1-3.6,6.4-4.7,9.2-7.8c0,0.3-0.1,0.5-0.1,0.8c1.1-0.3,1.2-1.2,2.4-1.8
	c-0.5,0-0.7,0-1.2,0c1-0.8,1.6-2,2.9-2c1.8,0.5,1.4-3,4-2.5c0.5-0.5,0.5-1.3,1.4-1.1c0.4-1.2,1.4-1.4,2.7-0.7
	c-0.3-0.6-0.4-0.9-0.6-1.3c0.6-0.3,1.1-0.6,1.6-0.9c1.7,1.4,2.6-2.2,4.5-2.7c0.4-0.3,1-0.5,1.5-0.6v-3.5c-2.8,1.6-5.5,3.3-8.3,4.9
	c0-0.3-0.1-0.6-0.1-1c-1.4,0.2-3.2,0.8-2.2,2.5c-1.2-0.1-1.8-1.5-2.9-0.4c-1.2-1.6,1.5-1.6,0.9-2.8c-0.4,0-0.7,0.1-1,0.1
	c0,0,0-0.1,0-0.1c0.5-0.2,0.9-0.5,1.6-0.8c-4.1-1.5,1.1-3.2,2.8-4.1c2.9-2,6-4,9.2-6V0H0V413.1z M46.3,432h0.9
	c-0.1-0.1-0.3-0.2-0.5-0.3c1,0.1,1.7,0.4,2.5,0.4v0.1c0.1,0,0.2,0,0.3,0c-0.3,0.2-0.4,0.5-0.3,0.8l-3,0L46.3,432L46.3,432z
	 M147.5,386.8l-0.3,1.2l-0.8-0.2l0.3-1.2L147.5,386.8z M5.3,428c-0.2,0-1-0.1-0.9,0.2h0c0-0.1,0-0.2,0-0.2h0c0-0.3-0.1-0.6-0.2-0.9
	c0,0,0.1,0,0.2,0v0c0.2,0,0.8,0,1,0L5.3,428L5.3,428z M8.3,423h-1v1h-1v-0.3c-0.1,0-0.3-0.1-0.4-0.3c0.2-0.2,0.3-0.3,0.4-0.3V423h-1
	v-1h3V423z M38.4,425.8L38.4,425.8c0.5,2,2.4-0.5,3.2,1.1c0.3,1.3,1.4,0.2,2.2,1.1c-1.1,3.8-5.6,0.2-8.7,1c-1.7,0.1-3.9-5.3-5.4-2.6
	c-0.3,2.4-21.6,0.5-20.6-1.8c0.4-0.7,3.9-1.7,4.3-0.8c0.6,0.9,1,0.8,2.1,0.5c-0.5-0.2-0.8-0.2-1.3-0.4c1.5-0.4,3.1-0.4,4.6-0.1
	c-0.1,0-0.1,0-0.2,0c0.5,0.4,0.8,0.7,1.3,0.4l0,0c0-0.1-0.1-0.1-0.1-0.2c0.6,0.2,1.2,0.4,1.8,0.8v0c0-0.2,0.1-0.3,0.2-0.4
	c-0.1,0-0.1,0-0.2-0.1c1.1-0.9,3.4,0.5,4.9,0.2c-0.2,0.2-0.4,0.4-0.7,0.6c2.5,0.4,4.9-0.8,7.5,0.8c0.8,0.5,1.4-0.1,2.3-0.3
	C36.4,426.7,37.4,426.5,38.4,425.8z M33.3,421l0.1-4l2.9,0l-0.1,5h-0.8c-0.2,1.1-1.6,0.5-2.5,0.5C33.1,422,33.2,421.5,33.3,421z"/>
<path class="st0" d="M34.9,425.9L34.9,425.9c0.3,0.2,0.4,0.4,0.6,0.2C35.3,425.7,35.3,425.6,34.9,425.9z"/>
<path class="st0" d="M0,437.2c0.1,0,0.1,0,0.2,0c-0.1,0-0.1-0.1-0.2-0.1V437.2z"/>
<path class="st0" d="M21.8,424.3c0.5,0.1,1,0.4,1.5-0.1C22.9,424.1,22.1,423.9,21.8,424.3z"/>
<path class="st0" d="M26,426.2c0.4,0.6,1,0,0.7-0.6C26.2,425.6,25.9,425.7,26,426.2z"/>
<path class="st0" d="M110.8,451.8c0.4,0.3,0.9,0.3,1.4,0.5c0-0.1,0-0.1,0.1-0.2c-0.2-0.1-0.9-0.5-1.1-0.6
	C111.1,451.6,110.9,451.7,110.8,451.8z"/>
<path class="st0" d="M109.8,432.9c0.9,0.5,1.4-0.2,1.8-0.9C111.4,431.8,110.7,432.2,109.8,432.9z"/>
<path class="st0" d="M96.6,446.9c0.1,0,0.2,0.1,0.3,0.1l0,0c0.1-0.2,0.2-0.3,0.3-0.5C96.9,446.3,96.8,446.7,96.6,446.9z"/>
<path class="st0" d="M115.4,441.9c-0.5-0.1-1-0.2-1.5-0.4h0c-0.6,0.6-1.1,1.2-1.7,1.8C113.7,444.4,114.3,442.8,115.4,441.9z"/>
<path class="st0" d="M103.5,459.1c19.7,6.4,38.5,15.9,56.5,26.4v-1.7c-10.7-6.3-21.9-12-33.2-17.4c-5.4-2.1-10.8-4.5-16.3-6.2
	C108,460.5,105.3,456.3,103.5,459.1L103.5,459.1z"/>
<path class="st0" d="M102.7,453L102.7,453c0.9,0.2,1.6,0.9,2.2-0.1C104,452.5,103.3,451.9,102.7,453z"/>
<path class="st0" d="M96.5,450.9c1.2,0.5,2.1,1,2.9-0.3C98.3,450.3,97.2,449.7,96.5,450.9z"/>
<path class="st0" d="M98.1,438.8c0.5,0.4,1.1,0.7,1.7,0.6l0,0c0.8-0.8,1.5-1.5,2.2-2.3C100.2,436.1,99.3,437.4,98.1,438.8z"/>
<path class="st0" d="M102,445.3c0.6,0.1,1.2,0.5,1.7,0.9c0.6-0.6,1.2-1.2,1.8-1.8C103.9,443.3,103.1,444,102,445.3L102,445.3z"/>
<path class="st0" d="M63.1,437.7c0,0.1,0,0.2,0,0.2c2.6,0.5,5.2,1.8,7.8,1.7v-0.2c-0.3-0.1-0.6-0.2-0.9-0.3
	C67.6,438.9,65.5,437.3,63.1,437.7z"/>
<path class="st0" d="M43.7,434.5L43.7,434.5c1.8,0.7,3.3,0.6,5.2,0.8c-1.3-1-3-0.3-4.1-1.4C44.4,434.1,44.1,434.2,43.7,434.5
	L43.7,434.5z"/>
<path class="st0" d="M33.6,433.4l0-0.2c-1.5-0.6-3.2-0.7-4.7-1c-0.7-0.1-1.2-0.2-1.2-1c-0.3-1.1-1.5-0.3-1.4,0.6
	c-0.5,0-1,0.2-1.3,0.6C28,432.4,30.8,433.4,33.6,433.4z"/>
<path class="st0" d="M4.6,414c-0.2,0.8-1.1,2.6,0.2,2.5c0.9-0.6,0.6-1.5,0.7-2.5L4.6,414z"/>
<path class="st0" d="M38.7,432.2L38.7,432.2c-0.1,0.4-0.1,0.8-0.2,1.2c-1.2,0.1-2.7-0.4-3.8,0.2c2,0.1,4,0.6,6.1,0.6
	c0-0.1,0-0.2,0-0.3c-0.3-0.1-0.7-0.2-1-0.2C40.4,432.4,40.2,432.2,38.7,432.2L38.7,432.2z"/>
<path class="st0" d="M30.8,420.4c-0.6-0.6-1.1,0.3-0.6,0.9C30.7,421.1,31,420.9,30.8,420.4z"/>
<path class="st0" d="M17.1,416.8c-0.4,0.3-0.8,0.5-1.2,0.8c0.5,0.6,1.6,1,1.9,0.4h0C18.1,417.5,17.5,417.2,17.1,416.8z"/>
<path class="st0" d="M155.2,377.1c-0.1,0.3-0.2,0.6-0.3,0.9C155.5,377.8,155.6,377.5,155.2,377.1z"/>
<polygon class="st0" points="22,416 22,416 22,416 "/>
<path class="st0" d="M22,416c-0.1-1-1.6-0.7-1.4,0.4C21,417.1,21.9,416.9,22,416z"/>
<path class="st0" d="M139.7,391.6c-1-0.7-0.7-1.4-0.2-2.4c-1.9-0.8-4.3,0.3-2.7,2.5C132.5,393.9,139.4,394.5,139.7,391.6z
	 M137.8,390.8l0.6,0.2l-0.2,0.7l-0.6-0.2L137.8,390.8z"/>
<path class="st0" d="M49.9,435.2L49.9,435.2c0,0-0.1,0-0.2-0.1c-0.1,0.2-0.2,0.4-0.4,0.5c0.7,0.5,1.9,0.2,2,1.7
	c0.6-0.9,0.7-1.6,1.7-1.4c0-0.1,0-0.1,0-0.2c-0.6-0.1-1.2-0.1-1.9-0.2c0.4-0.5,0.7-0.8,1-1.2C51.6,433.4,50.2,434.6,49.9,435.2
	L49.9,435.2z"/>
<path class="st0" d="M123.6,400.9c0.1-1-1.4-1.2-1.6-0.2C121.9,401.7,123.4,402,123.6,400.9z"/>
<path class="st0" d="M44,422.2c0.3-0.4,1.9-1.8,0.6-1.8l0,0l-0.1,0l0,0c0-0.4-0.1-0.7-0.2-1c0,0.2-0.2,1.1,0.2,1.1
	c-0.1,0.2-0.2,0.4-0.2,0.6h-1.6C43.1,421.4,43.5,421.8,44,422.2L44,422.2z"/>
<path class="st0" d="M68.3,424c-0.5-0.3-0.8-0.2-1.1,0.1C67.6,424.4,67.9,424.6,68.3,424z"/>
<path class="st0" d="M113.2,430.4c0.1,0.1,0.1,0.1,0.2,0.2c0.3-0.2,0.6-0.5,0.8-0.7c-0.1-0.1-0.1-0.2-0.2-0.3
	C113.7,429.8,113.4,430.1,113.2,430.4L113.2,430.4z"/>
<path class="st0" d="M75.2,433c0.2,0.1,0.5,0.2,1,0.4c-0.2-0.4-0.4-0.5-0.4-0.7c-0.2,0-0.4,0.1-0.6,0.1
	C75.2,432.9,75.2,433,75.2,433z"/>
<path class="st0" d="M73.6,440.3l0.7,0.2c0-0.1,0.1-0.2,0.1-0.2l-0.7-0.2C73.6,440.2,73.6,440.2,73.6,440.3L73.6,440.3L73.6,440.3z"
	/>
<path class="st0" d="M66.5,431.1c0.4,0,0.8,0.1,1.1,0.1c0-0.1,0-0.2,0-0.3C67.2,430.7,66.9,430.5,66.5,431.1z"/>
<path class="st0" d="M99.4,456.7c-0.4,0.2-0.7,0.5-1,0.8c1.1,0.5,1.9,0.5,2.6-0.5C100.4,456.8,99.8,456.2,99.4,456.7L99.4,456.7
	L99.4,456.7z"/>
<path class="st0" d="M149,399c0.1,0.1,0.2,0.2,0.2,0.3l3.1-2.3C151.1,396.4,149.9,398.3,149,399L149,399z"/>
<polygon class="st0" points="152.3,397 152.3,397 152.3,397 "/>
<path class="st0" d="M148.4,399.8c-0.2,0.1-0.5,0.1-0.7,0.2c0.1,0.1,0.1,0.2,0.2,0.4c0.2-0.1,0.4-0.3,0.6-0.4
	C148.5,400,148.4,399.9,148.4,399.8z"/>
<path class="st0" d="M147.5,399.1c-0.1-0.1-0.1-0.2-0.2-0.4c-0.1,0-0.2,0.1-0.3,0.2C147.2,399.1,147.4,399.4,147.5,399.1
	L147.5,399.1z"/>
<path class="st0" d="M153.7,395.9c-0.2,0.1-0.4,0.3-0.7,0.4c0.1,0.1,0.1,0.2,0.2,0.3c0.2-0.1,0.4-0.3,0.7-0.4
	C153.9,396.1,153.8,396,153.7,395.9L153.7,395.9z"/>
<path class="st0" d="M111.1,446.3c-0.4-0.1-0.8-0.3-1.2-0.4c-0.5,0.5-1,1.1-1.5,1.6C109.7,448.4,110.3,447.1,111.1,446.3
	L111.1,446.3z"/>
<path class="st0" d="M160,479v-1c-16.5-9.5-34.5-20-52.2-23.2C125.9,461,143.2,469.5,160,479L160,479z"/>
<path class="st0" d="M158,393.5c0.7-0.4,1.5-0.4,1.4-1.5C158.6,392.2,158.2,392.6,158,393.5z"/>
<polygon class="st0" points="147.5,399.1 147.5,399.1 147.5,399.1 "/>
<path class="st0" d="M105.4,441.9c0.4,0.6,1.2,0.7,1.7-0.1c1.1,0.7,1.8-1.4,2.7-1.9c-0.1,0-0.2,0-0.2,0h0
	C107.7,438.8,106.8,440.7,105.4,441.9z"/>
<path class="st0" d="M127.5,427.8c-2.3,3.1-5.4,5.9-8.4,8.6c6,0,11.1-13.9,17.9-12c0.5-0.4,0.2-0.7,0-1.1c-5.7,1.5,7.2-9,8.1-7.3
	c-0.4,1.2-1.1,1.4-2.3,1.5c0.3,2.1-0.1,2.9-2.1,3.9c0.4,0.2,0.7,0.3,1,0.5c-5.7,5.4-11.7,10.6-17.5,16.1
	c12.3,4.7,24.1,10.5,35.7,16.7v-46.8c-0.3,0.2-0.6,0.4-0.9,0.6c-1.1-2.4-1.5-1.1-3.2-0.5c0.8-0.7,1.7-1.5,2.6-2.2
	c0.2,0.9,0.9,0.6,1.5,0.2v-1.3c0,0-0.1,0-0.1,0c0,0,0.1-0.1,0.1-0.1v-2.2c-5.4,3.7-10.7,7.6-15.8,11.7c-0.5-0.4-0.9-0.7-1.3-1
	c-1,0.9-1,1.1,0.1,2c-2.4,1.5-4,4.4-6.9,5c0.7-0.7,1.3-1.4,2-2.1c-1.9-2-6.2,2-4.4,4C134.5,422.5,128.7,427.7,127.5,427.8
	L127.5,427.8z M154.8,407c0.2,1.7,0.2,2.6,1.8,3C146.2,420.3,141.7,415,154.8,407z"/>
<path class="st0" d="M140.1,413.5c1.4,1.2,1.1-0.9,0.5-1.6c1.1-1.8,3-2.7,4.3-4.3c0.4,1.4,2.6,0.2,1.6,1.8c0.6,0.1,1,0.2,1.7,0.3
	c-0.4-1.4-0.1-2.5-1.7-2.4c4.4-3.4,8.9-6.7,13.5-9.9v-2.1c-6.9,4.6-13.7,9.5-20.2,14.6c-1.1-0.8-1.9-1-3.2-0.3
	c1.3-1.7,3.3-2.6,4.6-4.3c-1.6,0.6-2.6,2.1-4,2.9c-0.2-0.5-0.5-0.9-0.8-1.4c-0.4,0.3-0.8,0.5-1.1,0.8c1.3,2.2-2,3.4,2.5,3.7
	c-0.5,1.9-1.7-0.8-2.6,1.8c-6,6.1-14.7,14.1-21.8,21C119.9,435.1,132.8,412.8,140.1,413.5z"/>
<path class="st0" d="M99,444.5c0.2,0.1,0.5,0.1,0.7,0.2c0.6-0.6,1-1.2,1.5-1.9C100.4,442.8,99.7,443.9,99,444.5z"/>
<path class="st0" d="M115.2,428.5c2.1-2,4.8-3.8,6.3-6.2C119.6,424.1,115.9,426.4,115.2,428.5z"/>
<path class="st0" d="M143.9,403.5c0.8-0.2,2.7-1.7,3.5-2.8C145.8,401.1,144.7,402.1,143.9,403.5z"/>
<path class="st0" d="M135.1,411.6c-0.7-1.1-1.1-1.1-1.7-0.1C133.9,412.1,134.4,412.1,135.1,411.6z"/>
<path class="st0" d="M121.5,422.2c1.8-1.1,4.3-2.9,4.9-4.9C125,419.1,123.1,420.4,121.5,422.2z"/>
<path class="st0" d="M133.2,408.8c-0.3-0.1-0.7,0.2-1.2,0.4C132.7,411.3,134.7,409.7,133.2,408.8z"/>
<path class="st0" d="M131.9,412.9L131.9,412.9c-0.1-0.1-0.1-0.2-0.1-0.3c-0.3,0.2-0.6,0.3-0.9,0.5
	C131.5,413.6,131.8,413.3,131.9,412.9L131.9,412.9z"/>
<path class="st0" d="M151.4,461L151.4,461L151.4,461L151.4,461z"/>
<polygon class="st0" points="148.1,467.9 148.1,467.9 148.1,467.9 "/>
<polygon class="st0" points="153.8,470.9 153.8,470.9 153.8,470.9 "/>
<path class="st0" d="M160,474.4v-0.9c-1.5-0.9-3.1-1.7-4.7-1.9c1,1,2.4,1.3,3.5,2.1l0,0C159.2,474,159.6,474.2,160,474.4L160,474.4z
	"/>
<path class="st0" d="M113.2,449.5c16.6,5.1,31.9,13.1,46.8,21.6v-2.6C143.8,459.5,116.5,444.4,113.2,449.5L113.2,449.5z"/>
<path class="st0" d="M141.6,464.1c1.7,1.8,4.4,2.4,6.5,3.8c0.1-0.1,0.1-0.2,0.1-0.2C146.1,466.4,144.1,464.5,141.6,464.1
	L141.6,464.1z"/>
<path class="st0" d="M135.6,453.4c0.2,0.1,0.4,0.2,0.6,0.3c0-0.1,0.1-0.2,0.1-0.3l-0.7-0.2L135.6,453.4L135.6,453.4L135.6,453.4z"/>
<path class="st0" d="M130.4,459.2c3,1.2,5.8,3.1,8.9,4c-4-2.7-9.1-5-13.9-6.5l-0.1,0.2C126.8,458.2,128.8,458.4,130.4,459.2z"/>
<path class="st0" d="M120,454.8l4.3,1.7c-1.1-1.3-2.6-1.7-4.2-2l0,0C120.1,454.6,120,454.8,120,454.8z"/>
<path class="st0" d="M141.2,464.2c0-0.1,0.1-0.1,0.1-0.2c-0.2-0.1-0.5-0.2-0.7-0.4c0,0.1-0.1,0.1-0.1,0.2
	C140.7,463.9,141,464.1,141.2,464.2z"/>
<path class="st0" d="M149.9,469c1.1,0.9,2.4,1.6,3.8,2.1l0.1-0.2c-1.1-0.9-2.4-1.7-3.8-2.1L149.9,469z"/>
<path class="st0" d="M131.4,444c0.6,0.5,1.1,0.8,1.8,0.5C132.7,443.9,132.2,443.8,131.4,444z"/>
<path class="st0" d="M122.2,447c1.7,0.4,3.5,1.1,4.6,2.5c4.5,0.1,8.9,2.9,12.8,4.9c0.3,0.6,1.4,0.4,1.3,1.2c0,0.6,0.4,0.5,0.8,0.4
	c0-0.3,0-0.5-0.1-0.8c1.2,0.3,1.6,1.9,3,1.5c2,1.4,4.5,1.9,6.4,3.5l0,0v0l0.1,0c0.1,0,0.1,0,0.2,0V460h2v1h-1.9
	c0.6,0.4,1.4,0.7,2.2,0.8c0-0.2,0.1-0.3,0.1-0.5c1,0.2,0.6,1.7,1.9,1.8c0-0.2,0.1-0.4,0.1-0.8c0.8,0.6,1.6,1.2,2.4,1.8
	c-0.4-0.1-0.7-0.1-1.1-0.2l-0.1,0.2c0.4,0.2,0.7,0.4,1,0.6c0.1-0.1,0.1-0.3,0.2-0.4c0.7,0.2,1.3,0.4,1.9,0.7v-3
	c-13.2-7.1-26.7-13.7-40.8-19.2c-0.7,0.7-1.4,1.5-2.2,2.2C118.9,445.2,120.3,446.9,122.2,447L122.2,447z"/>
<path class="st0" d="M137.8,446.5c-0.6-0.3-1-0.5-1.4-0.8C136.8,446.2,137.3,446.5,137.8,446.5z"/>
<path class="st0" d="M151.1,460.3c0,0.3,0.1,0.5,0.3,0.6C151.4,460.7,151.4,460.3,151.1,460.3z"/>
<path class="st0" d="M145.3,458.2c0.8,0.3,1.5,0.6,2.2,0.9C147.5,458.1,146,458,145.3,458.2z"/>
<path class="st0" d="M139.1,454.7c-0.4-0.2-0.8-0.3-1.2-0.5C138,455.1,138.6,454.8,139.1,454.7z"/>
<path class="st0" d="M116,453.5c-0.6-1-1-1.1-3.3-1C113.8,453,114.8,453.1,116,453.5z"/>
<path class="st0" d="M149.1,459.9c0.2,0.5,0.3,0.5,0.8,0.3C149.8,459.7,149.6,459.8,149.1,459.9z"/>
</svg>
