<svg xmlns="http://www.w3.org/2000/svg" xmlns:xlink="http://www.w3.org/1999/xlink" width="330" height="50" viewBox="0 0 330 50">
  <defs>
    <clipPath id="clip-ribbon1">
      <rect width="330" height="50"/>
    </clipPath>
  </defs>
  <g id="ribbon1" clip-path="url(#clip-ribbon1)">
    <g id="ribbon1-2" data-name="ribbon1" transform="translate(0 0.13)">
      <path id="Path_1" data-name="Path 1" d="M278.618,17.19s-.055-.04-.077-.06a.152.152,0,0,0-.1-.05c-.55-.08-1.1-.15-1.639-.22l-.352-.05v.03l-.011.03c.627.15,1.265.27,1.9.37a.3.3,0,0,0,.132-.02h.044a.374.374,0,0,0,.1-.03Z" transform="translate(27.614)" fill="#fff"/>
      <path id="Path_2" data-name="Path 2" d="M274.76,16.57l.2.06a2.525,2.525,0,0,0,.869.14h.187V16.7a5.121,5.121,0,0,0-1.232-.22v.08Z" transform="translate(27.446)" fill="#fff"/>
      <path id="Path_3" data-name="Path 3" d="M278.5,17.21l.1.01.143.02v-.06l-.2-.02-.033-.01Z" transform="translate(27.819)" fill="#fff"/>
      <path id="Path_4" data-name="Path 4" d="M274.14,16.37a4.094,4.094,0,0,1-.594-.1,2.262,2.262,0,0,0-.363-.05,1.744,1.744,0,0,1-.55-.12,3.554,3.554,0,0,0-1.111-.29c-.242-.02-.484-.05-.726-.08-.154-.02-.308-.04-.462-.05h-.077l-.077.02h0v.08a1.683,1.683,0,0,0,.594.11h.154a2.7,2.7,0,0,1,.572.07l.176.05a13.88,13.88,0,0,0,1.936.46c.264.04.539.06.8.08h0l.209.01h0a.149.149,0,0,0,.044-.04.159.159,0,0,1,.044-.04.805.805,0,0,1-.088-.03.679.679,0,0,0-.154-.05c-.11-.02-.22-.03-.33-.05Z" transform="translate(26.988)" fill="#fff"/>
      <path id="Path_5" data-name="Path 5" d="M268.62,15.38a4.462,4.462,0,0,0,1.485.31,2.129,2.129,0,0,0-1.188-.29,2.961,2.961,0,0,1-.3-.02h0Z" transform="translate(26.833)" fill="#fff"/>
      <path id="Path_6" data-name="Path 6" d="M285.751,17.7a.525.525,0,0,0,.6.1c.088-.03.209-.07.385-.14a4.137,4.137,0,0,0-.7,0l-.3.03Z" transform="translate(28.543)" fill="#fff"/>
      <path id="Path_7" data-name="Path 7" d="M282.625,17.49c-.242,0-.484,0-.726-.02-.3-.02-.594-.05-.891-.08-.132-.01-.264-.03-.407-.04l-.209-.02c-.374-.04-.759-.08-1.144-.11a.588.588,0,0,0-.132.01l-.066.02a.142.142,0,0,1,.022.04c0,.01.011.03.022.03l.165.03a8.621,8.621,0,0,1,1.837.25,1.468,1.468,0,0,0,.594.07,3.893,3.893,0,0,1,.836,0c.132,0,.264.02.385.02s.264,0,.4-.01h.176v-.06h0a.654.654,0,0,0-.1-.05.785.785,0,0,0-.22-.06H282.6Z" transform="translate(27.874)" fill="#fff"/>
      <path id="Path_8" data-name="Path 8" d="M287.217,17.65a1.474,1.474,0,0,0-.3,0h-.11v.06h.033c.165.03.33.07.495.1l-.033-.06c-.022-.05-.055-.1-.088-.11Z" transform="translate(28.65)" fill="#fff"/>
      <path id="Path_9" data-name="Path 9" d="M284.752,17.75v-.07l-1.342-.07A2.282,2.282,0,0,0,284.752,17.75Z" transform="translate(28.31)" fill="#fff"/>
      <path id="Path_10" data-name="Path 10" d="M263.538,14.2c-.6-.14-1.221-.28-1.837-.42a.409.409,0,0,0-.154.02l-.055.02h-.011l-.022-.03a.349.349,0,0,0-.088-.06,1.585,1.585,0,0,0-.209-.05,1.65,1.65,0,0,1-.319-.09,4.152,4.152,0,0,0-.99-.22,2.4,2.4,0,0,1-.264-.04h-.011a.44.44,0,0,0-.044.03.158.158,0,0,1-.044.04.173.173,0,0,1,.077.03c.033.01.066.02.11.03a5.159,5.159,0,0,1,1.353.29,1.114,1.114,0,0,0,.319.05.588.588,0,0,1,.132.01h.022c.011,0,.033.02.044.03a.3.3,0,0,0,.11.06c.121.03.264.05.385.08.165.03.33.06.495.1.374.09.781.19,1.32.34a.167.167,0,0,0,.1,0c.033-.01.055-.04.066-.1H264s-.022-.03-.044-.03l-.407-.09Z" transform="translate(25.921)" fill="#fff"/>
      <path id="Path_11" data-name="Path 11" d="M256.742,12.9a.576.576,0,0,0-.121.09.179.179,0,0,0,0,.15.4.4,0,0,0,.165.13c.033.02.077.05.132.08.022-.05.044-.09.066-.13a.565.565,0,0,0,.066-.19.135.135,0,0,0-.066-.11.231.231,0,0,0-.2-.03h-.033Z" transform="translate(25.632)" fill="#fff"/>
      <path id="Path_12" data-name="Path 12" d="M252.564,11.17l.055-.1-.1-.04-.1-.03-.011.02v.01l.077.07Z" transform="translate(25.213)" fill="#fff"/>
      <path id="Path_13" data-name="Path 13" d="M264.87,14.6a.284.284,0,0,0,.275.23c.088.02.187.03.275.05l.242.04.429.08c.264.05.539.1.814.15h.066a.541.541,0,0,0,.308.02.469.469,0,0,0,.154-.09c-.352-.06-.693-.13-1.045-.22a7.07,7.07,0,0,0-1.518-.26Z" transform="translate(26.458)" fill="#fff"/>
      <path id="Path_14" data-name="Path 14" d="M251.21,10.58v.03a1.364,1.364,0,0,0,.825.34,1.389,1.389,0,0,1,.2.04l.022-.05.022-.05h-.044l-1.012-.35v.03Z" transform="translate(25.093)" fill="#fff"/>
      <path id="Path_15" data-name="Path 15" d="M252.384,11.33s-.033.05-.044.07v.03l.055.03.033.02v-.12h-.055Z" transform="translate(25.206)" fill="#fff"/>
      <path id="Path_16" data-name="Path 16" d="M253.973,11.52a3.13,3.13,0,0,0-1.243-.38A1.775,1.775,0,0,0,253.973,11.52Z" transform="translate(25.245)" fill="#fff"/>
      <path id="Path_17" data-name="Path 17" d="M256.958,12.32c-.088.18-.11.28-.066.33s.132.07.308.07C257.288,12.42,257.288,12.42,256.958,12.32Z" transform="translate(25.659)" fill="#fff"/>
      <path id="Path_18" data-name="Path 18" d="M287.455,17.7a.36.36,0,0,0-.165.11h0l.495-.05a.48.48,0,0,0-.33-.06Z" transform="translate(28.698)" fill="#fff"/>
      <path id="Path_19" data-name="Path 19" d="M264.054,14.36l-.022.05-.022.03.319.07.011-.03.011-.03-.154-.05Z" transform="translate(26.372)" fill="#fff"/>
      <path id="Path_20" data-name="Path 20" d="M257.836,12.97l.11.05a.2.2,0,0,0-.066-.17.265.265,0,0,0-.176-.03l-.044.07.165.08Z" transform="translate(25.738)" fill="#fff"/>
      <path id="Path_21" data-name="Path 21" d="M250.121,12.19l-.011.04.121.04.121.03.011-.05.022-.03-.165-.02Z" transform="translate(24.984)" fill="#fff"/>
      <path id="Path_22" data-name="Path 22" d="M287.85,17.76l.022.02a.148.148,0,0,0,.044.04.7.7,0,0,0,.1-.08l.022-.02-.022-.03v-.02l-.165.08Z" transform="translate(28.753)" fill="#fff"/>
      <path id="Path_23" data-name="Path 23" d="M253.326,13.42l.022-.04.022-.04-.088-.04-.319-.14v.01l-.033.07Z" transform="translate(25.265)" fill="#fff"/>
      <path id="Path_24" data-name="Path 24" d="M254.573,13.81l-.033.09.165.03.088.02.011-.03v-.04l-.11-.03-.121-.04Z" transform="translate(25.426)" fill="#fff"/>
      <path id="Path_25" data-name="Path 25" d="M244.04,9.35v.02l.011.02a.46.46,0,0,0,.1.05.143.143,0,0,1,.022-.03h.022l-.088-.06-.055-.03v.02Z" transform="translate(24.377)" fill="#fff"/>
      <path id="Path_26" data-name="Path 26" d="M250.75,10.4l.066.03.132.06.044-.08-.2-.09-.033.05Z" transform="translate(25.048)" fill="#fff"/>
      <path id="Path_27" data-name="Path 27" d="M245.9,10.23h-.011a.572.572,0,0,0-.1.04l.165.06h.011l.264.1-.022-.05c-.088-.11-.154-.19-.3-.14Z" transform="translate(24.552)" fill="#fff"/>
      <path id="Path_28" data-name="Path 28" d="M271.45,17.84l.33.07.022-.08-.033-.02a.579.579,0,0,0-.495-.11h0a.7.7,0,0,0-.154.07l.33.07Z" transform="translate(27.082)" fill="#fff"/>
      <path id="Path_29" data-name="Path 29" d="M269.62,17.4a.466.466,0,0,0,.528.14h.044l-.011-.02h0l-.55-.13Z" transform="translate(26.932)" fill="#fff"/>
      <path id="Path_30" data-name="Path 30" d="M262.173,15.89v.03l-.033.06a.2.2,0,0,0,.22.05.723.723,0,0,0,.154-.08l-.11-.02-.242-.05h0Z" transform="translate(26.185)" fill="#fff"/>
      <path id="Path_31" data-name="Path 31" d="M261.181,15.75a.2.2,0,0,0-.011.06v.03a.269.269,0,0,0,.2.02.337.337,0,0,0,.143-.09h-.077a1.082,1.082,0,0,0-.242-.02h0Z" transform="translate(26.088)" fill="#fff"/>
      <path id="Path_32" data-name="Path 32" d="M260.681,15.55l-.011.07.209.03.121.02.022-.1-.242-.03-.088-.02Z" transform="translate(26.038)" fill="#fff"/>
      <path id="Path_33" data-name="Path 33" d="M292.53,17.69a.768.768,0,0,0,.539-.02l.165-.05a.925.925,0,0,0-.495-.01,1.791,1.791,0,0,0-.209.08Z" transform="translate(29.221)" fill="#fff"/>
      <path id="Path_34" data-name="Path 34" d="M293.341,17.56l-.011.05v.04l.462.02.011-.05v-.03l-.429-.02Z" transform="translate(29.301)" fill="#fff"/>
      <path id="Path_35" data-name="Path 35" d="M292.235,17.61a.424.424,0,0,0-.165.09.568.568,0,0,0,.385.04.46.46,0,0,0,.1-.05h.011c-.143-.08-.22-.11-.319-.08Z" transform="translate(29.175)" fill="#fff"/>
      <path id="Path_36" data-name="Path 36" d="M290.608,17.68l-1.133.03h-.495a8.378,8.378,0,0,0,3.157-.03l.165-.06-.539.02c-.4.01-.77.03-1.155.05Z" transform="translate(28.866)" fill="#fff"/>
      <path id="Path_37" data-name="Path 37" d="M242.47,8.59a.316.316,0,0,0,.286.15l-.165-.09-.11-.06h0Z" transform="translate(24.22)" fill="#fff"/>
      <path id="Path_38" data-name="Path 38" d="M294.445,17.47h-.011l-.066.03a.607.607,0,0,1-.088.06c.143.01.286.03.418.05a1.964,1.964,0,0,0,.836,0,2.79,2.79,0,0,1,.506-.05,2.264,2.264,0,0,0,.583-.07c.033,0,.055-.02.088-.02C295.941,17.44,295.171,17.45,294.445,17.47Z" transform="translate(29.396)" fill="#fff"/>
      <path id="Path_39" data-name="Path 39" d="M229.756,1.1l-.066.02a.249.249,0,0,1,.176.09.207.207,0,0,0,.22.07h.033c-.2-.2-.22-.22-.363-.18Z" transform="translate(22.944)" fill="#fff"/>
      <path id="Path_40" data-name="Path 40" d="M233.663.26c.077.05.154.11.231.16a.825.825,0,0,0,.154.11,1.842,1.842,0,0,0,.242.14c.077.04.165.08.242.12a4.389,4.389,0,0,1,.44.21h.022c.528.32,1.078.63,1.595.96l.165.11a4.839,4.839,0,0,0,1.089.58,5.368,5.368,0,0,1,1.221.65c.187.12.4.25.594.37.187.1.385.19.572.28.143.06.286.13.418.2a.931.931,0,0,1,.209.14,1.471,1.471,0,0,0,.154.11c.088.05.176.09.264.13l.1.05.957.46h.033v.02l.176.08c.132.06.264.12.385.19.154.08.319.17.473.26l.22.12c.066.04.143.08.209.12.154.09.319.18.484.26.132.06.253.12.385.19a3.086,3.086,0,0,0,.935.36.406.406,0,0,1,.154.06l.066.03.572.24c.44.18.891.37,1.331.56.132.06.264.11.4.17a8.856,8.856,0,0,1,1.43.71,2.154,2.154,0,0,0,.594.24c.088.03.187.06.286.09h.066l1.089.5.539.25.033.02a.256.256,0,0,0,.088.03,2.491,2.491,0,0,1,.9.35l.143.08a2,2,0,0,0,.407.16l.11.04c.143.05.286.1.429.14l.264.08.066.03c.033.02.066.04.088.03a.565.565,0,0,1,.077-.03.551.551,0,0,1,.451.11,1.824,1.824,0,0,0,.561.18c.11.02.22.05.33.08a1.64,1.64,0,0,1,.275.12c.088.04.176.08.264.11.341.12.682.23,1.023.34h0l.385.12v.14a.789.789,0,0,0,.055.32.711.711,0,0,0,.231.2c.044.03.1.06.154.1a.518.518,0,0,1-.385-.07.562.562,0,0,0-.22-.07,2.823,2.823,0,0,1-.4-.09,1.161,1.161,0,0,0-.176-.05,4.182,4.182,0,0,0-.616-.13,2.266,2.266,0,0,0,.8.3,3.466,3.466,0,0,1,.55.17l-.1.17v.02l-.132.19.352.13h0l.22-.34.132.02.275.04.143-.22-.121-.26-.154-.33a.313.313,0,0,1,.253,0,.191.191,0,0,1,.066.18c0,.13.132.16.22.17h.319c.11.17.176.23.264.2a.5.5,0,0,0,.209-.18l.638.14c.473.1.968.21,1.441.32.319.08.638.17.946.25.517.14,1.034.29,1.562.39.319.06.627.14.935.22s.594.15.9.21a1.722,1.722,0,0,0,.319.03,1.637,1.637,0,0,1,.319.03,2,2,0,0,0,.242.03,3.115,3.115,0,0,1,.8.19,4.665,4.665,0,0,0,1.265.31q.33.045.66.12a2.661,2.661,0,0,0,.561.05,2.63,2.63,0,0,1,.275.01h.055a.833.833,0,0,1,.22.03l1.21.25c.495.1,1.023.21,1.529.32.132.03.264.04.4.06a1.951,1.951,0,0,1,.22.03,11.574,11.574,0,0,1,1.771.4,5.43,5.43,0,0,0,.8.17c.121.02.242.04.374.06a7.377,7.377,0,0,0,1.331.09,2.122,2.122,0,0,1,.506.07,1.538,1.538,0,0,0,.209.04.28.28,0,0,1,.088.02.367.367,0,0,0,.143.03,3.693,3.693,0,0,1,.935.13c.132.03.275.06.418.09.583.1,1.155.18,1.7.24.418.05.847.09,1.254.14l1.133.12a5.015,5.015,0,0,1,.528.12h.022a1.848,1.848,0,0,0,.7.04,2.631,2.631,0,0,1,.561.01,4.818,4.818,0,0,0,.759.03,5.518,5.518,0,0,1,.7.02,6.256,6.256,0,0,0,1.221.07.743.743,0,0,0,.154-.01,2.329,2.329,0,0,1,.264-.01c.165.01.341.03.506.04l.33.03a.333.333,0,0,1,.1.01.54.54,0,0,0,.253,0h.033a.621.621,0,0,1,.143-.06,1.648,1.648,0,0,1,.627-.03h.132c.275.02.55.02.825.02h.649c.231.01.462.03.693.05l.847.06a8.465,8.465,0,0,0,1.815-.09,3.977,3.977,0,0,1,.77-.04,5.8,5.8,0,0,0,1.441-.06h.352a2.485,2.485,0,0,0,.286-.03c.143-.02.286-.03.429-.04.121,0,.231,0,.352.01a2.879,2.879,0,0,0,.418.01c.495-.03,1-.08,1.485-.12h.011l.495-.05.264-.03c.132-.01.264-.03.4-.04.627-.04,1.3-.09,1.958-.13h.55l.374-.06v-.63c-.385.02-.781.08-1.166.13a1.054,1.054,0,0,1-.176.02,1.541,1.541,0,0,0-1.012.14.2.2,0,0,1-.11.02c-.814-.03-1.606.17-2.431.09a8.45,8.45,0,0,0-1.331.02,2.468,2.468,0,0,0-.473.1.664.664,0,0,1-.132.04c-.341.01-.682.01-1.023.02-.176,0-.352.02-.528.03a.345.345,0,0,1-.143,0,3.436,3.436,0,0,0-1.463.05h-.11l-1.441-.02h-.11a4.206,4.206,0,0,1-1.122.03,4.516,4.516,0,0,1-1.32-.08.369.369,0,0,0-.209-.03,2.483,2.483,0,0,1-.979.02h-.066a1.452,1.452,0,0,1-.847.09,13.081,13.081,0,0,1-1.4-.08,1.343,1.343,0,0,0-.286-.01,2.186,2.186,0,0,1-.8-.06,1.8,1.8,0,0,0-.693-.03,1.822,1.822,0,0,1-.836-.04,2.754,2.754,0,0,0-.495-.04c-.451-.05-.891-.11-1.331-.17a2.6,2.6,0,0,0-.275-.04,5.008,5.008,0,0,1-1.727-.19,3.287,3.287,0,0,0-.7-.05,1.075,1.075,0,0,1-.308-.03,1.653,1.653,0,0,0-.825-.14,1.377,1.377,0,0,1-.286-.02c-.418-.09-.825-.19-1.232-.26a5.965,5.965,0,0,0-.737-.03c-.154-.02-.3-.04-.451-.07a3.121,3.121,0,0,0-.682-.11,2.875,2.875,0,0,1-1.122-.23,3.154,3.154,0,0,0-.6-.16c-.44-.05-.891-.07-1.331-.12a4.765,4.765,0,0,1-.517-.11c-.44-.12-.88-.21-1.331-.29a6.69,6.69,0,0,1-1.342-.22,4.289,4.289,0,0,0-.869-.1.756.756,0,0,1-.3-.07,1.714,1.714,0,0,0-.671-.19c-.385-.04-.77-.07-1.144-.14s-.77-.17-1.155-.26c-.451-.11-.9-.23-1.364-.33-.286-.06-.583-.08-.858-.14-.616-.13-1.232-.31-1.848-.43a11.42,11.42,0,0,1-1.32-.31c-.407-.11-.814-.19-1.232-.26-.088-.02-.165-.07-.264-.1-.132-.04-.264-.06-.4-.09-.1-.02-.2-.05-.3-.08-.132-.05-.253-.11-.385-.16a.361.361,0,0,1-.275-.44.685.685,0,0,0,0-.15.15.15,0,0,0-.165-.09.092.092,0,0,0-.077.06c-.077.1-.154.21-.231.31a14.953,14.953,0,0,1-1.749-.34c.077-.18.132-.3-.022-.44-.121-.11.044-.17.22-.16-.066-.15-.11-.26-.187-.43l-.462.43.143.29a1.172,1.172,0,0,1-.187-.01c-.143-.03-.286-.07-.429-.11a1.848,1.848,0,0,1-.253-.1c-.044-.02-.077-.06-.121-.07a5.561,5.561,0,0,1-1.452-.41c-.66-.2-1.287-.46-1.925-.7a2.151,2.151,0,0,1-.429-.23,1.645,1.645,0,0,0-.737-.28,3.61,3.61,0,0,1-.9-.41c-.2-.09-.407-.16-.6-.24a2.247,2.247,0,0,1-.275-.13,2.752,2.752,0,0,0-.55-.27,9.788,9.788,0,0,1-1.419-.62c-.121-.05-.253-.08-.363-.13a5.363,5.363,0,0,1-.946-.45,5.982,5.982,0,0,0-.924-.46,10.537,10.537,0,0,0-1.188-.56,11.833,11.833,0,0,1-1.155-.53c-.154-.07-.275-.19-.429-.27-.418-.22-.847-.42-1.265-.63-.231-.11-.451-.22-.671-.34s-.451-.26-.671-.39c-.033-.02-.066-.02-.1-.04a6.131,6.131,0,0,0-1.5-.72c-.242-.12-.495-.25-.726-.39a.989.989,0,0,1-.231-.24.254.254,0,0,0-.286-.12.548.548,0,0,1-.341-.11,3.668,3.668,0,0,0-.836-.52,9.863,9.863,0,0,1-.9-.53c-.209-.12-.418-.24-.627-.35h-.572c.143.09.3.17.44.26Z" transform="translate(23.293)" fill="#fff"/>
      <path id="Path_41" data-name="Path 41" d="M297.429,17.42h.121v-.07h-.209l-.011.01v.03h0v.03Z" transform="translate(29.7)" fill="#fff"/>
      <path id="Path_42" data-name="Path 42" d="M300.074,17.08l-1.661.12h-.022a.552.552,0,0,0-.077.05c-.011.01-.033.02-.044.03a.134.134,0,0,0,.022.06h.275a2.125,2.125,0,0,0,.231-.03,1.8,1.8,0,0,1,.462-.03,3.477,3.477,0,0,0,.913-.05v-.15h-.11Z" transform="translate(29.794)" fill="#fff"/>
      <path id="Path_43" data-name="Path 43" d="M268.68,17.28a.332.332,0,0,0,.374.07l.088-.03-.132-.04-.3-.08v.03l-.033.05Z" transform="translate(26.839)" fill="#fff"/>
      <path id="Path_44" data-name="Path 44" d="M228.87,1.85a1.017,1.017,0,0,0-.11.25l.308-.07.11-.03C229.013,1.89,228.925,1.83,228.87,1.85Z" transform="translate(22.851)" fill="#fff"/>
      <path id="Path_45" data-name="Path 45" d="M233.315,6.01h0s.1-.04.121-.09a.155.155,0,0,0,0-.1.253.253,0,0,0-.253-.11h0a.058.058,0,0,0-.033.01.349.349,0,0,0-.088.13.051.051,0,0,1-.022.04.216.216,0,0,0,.253.13h.022Z" transform="translate(23.278)" fill="#fff"/>
      <path id="Path_46" data-name="Path 46" d="M236.793,7.95h.011l.165-.58h0a.186.186,0,0,1-.066.03.46.46,0,0,0-.1.05.451.451,0,0,0-.055.1.734.734,0,0,1-.077.12.191.191,0,0,1-.055.04c-.055.04-.11.07-.066.15a.193.193,0,0,0,.242.08Z" transform="translate(23.628)" fill="#fff"/>
      <path id="Path_47" data-name="Path 47" d="M239.221,8.07a.319.319,0,0,0,.055.26c.033.04.154.04.231.02h.022c.132-.06.11-.16.077-.27,0-.02-.011-.04-.011-.06a.6.6,0,0,0-.264-.03h0a.4.4,0,0,0-.1.07Z" transform="translate(23.895)" fill="#fff"/>
      <path id="Path_48" data-name="Path 48" d="M279.9,19.08a1.045,1.045,0,0,0-.143.07l-.033.02.385.02c-.055-.11-.121-.14-.209-.12h0Z" transform="translate(27.941)" fill="#fff"/>
      <path id="Path_49" data-name="Path 49" d="M295.19,19.33a.2.2,0,0,0,.044.03l.033.02.077-.1.022-.02-.1-.04-.022.03s-.033.06-.055.09Z" transform="translate(29.487)" fill="#fff"/>
      <path id="Path_50" data-name="Path 50" d="M249.061,9.7a.535.535,0,0,0,.539.12l.055-.02s-.1-.05-.143-.08a.419.419,0,0,0-.341-.08h0s-.077.03-.121.05Z" transform="translate(24.878)" fill="#fff"/>
      <path id="Path_51" data-name="Path 51" d="M240.683,9.91a.417.417,0,0,0,.033-.16V9.69l-.044.02h0c-.077.03-.121.05-.132.09a.166.166,0,0,0,.022.1c.011.02.11.02.121.02Z" transform="translate(24.028)" fill="#fff"/>
      <path id="Path_52" data-name="Path 52" d="M297.41,19.06l.176.13.143-.07v-.03l-.011-.01Z" transform="translate(29.708)" fill="#fff"/>
      <path id="Path_53" data-name="Path 53" d="M295.631,19.27a.638.638,0,0,1-.088.04c-.011,0-.022.01-.033.01h.022a.716.716,0,0,0,.253,0,.461.461,0,0,0,.1-.05.183.183,0,0,0-.176-.04.678.678,0,0,0-.088.04Z" transform="translate(29.519)" fill="#fff"/>
      <path id="Path_54" data-name="Path 54" d="M329.912,21.26h-.044a.351.351,0,0,1-.407-.1.152.152,0,0,0-.187-.05.411.411,0,0,0-.1.04h-.033a2.152,2.152,0,0,1-.352.15,1.389,1.389,0,0,1-.2.04c-.176.02-.363.05-.539.08a4.711,4.711,0,0,1-1.056.09,2.755,2.755,0,0,0-.495.04l-.242.03-.132.02a1.829,1.829,0,0,1-.33.02,10.345,10.345,0,0,0-1.364,0c-.242.02-.506.03-.748.03a.938.938,0,0,0-.242.03l-.165.03h0c-.176.02-.352.03-.517.04H322.2a8.909,8.909,0,0,0-1.155.03,9.33,9.33,0,0,1-1.056.05c-.176,0-.352,0-.528.01h-.143a2.536,2.536,0,0,0-.869,0h-.11a5.577,5.577,0,0,0-1,0c-.22.02-.451.03-.671.03h-.022a.717.717,0,0,1-.121-.01,5.886,5.886,0,0,0-1.386-.1h-.682a.506.506,0,0,0-.209.03c-.055.01-.11.02-.176.03h-.154a4.807,4.807,0,0,1-.759,0,5.785,5.785,0,0,0-.583-.02,3.927,3.927,0,0,1-1.133-.11,1.372,1.372,0,0,1-.6,0c-.077,0-.154-.02-.231-.02-.253-.02-.517-.03-.759-.04q-.479-.015-.957-.06a4.439,4.439,0,0,1-.638-.1c-.1-.02-.2-.04-.3-.05a.943.943,0,0,1-.143-.03,1.086,1.086,0,0,0-.308-.04,9.229,9.229,0,0,1-2.409-.21,1.054,1.054,0,0,0-.176-.02h-.132c-.132-.02-.275-.04-.407-.07l-.22-.04-.2-.03c-.132-.02-.264-.04-.4-.07a5.914,5.914,0,0,0-.737-.1,3.589,3.589,0,0,1-1.034-.16.349.349,0,0,0-.1-.02,3.49,3.49,0,0,1-1.067-.11,4.481,4.481,0,0,0-.968-.11.5.5,0,0,1-.176-.03c-.033,0-.066-.02-.1-.02l-.242-.05c-.143-.03-.3-.06-.451-.09l-.352-.09c-.11-.03-.209-.06-.319-.09-.055-.01-.11-.03-.154-.04a1.594,1.594,0,0,0-.495-.08,2.959,2.959,0,0,1-.836-.12,2.74,2.74,0,0,0-.4-.07l-.154-.02-.22-.03-.4-.06c-.1-.02-.2-.05-.286-.07a2.364,2.364,0,0,0-.286-.06c-.3-.05-.583-.1-.836-.14-.11-.02-.22-.03-.319-.04a5.047,5.047,0,0,1-.517-.08c-.253-.05-.495-.1-.737-.16-.165-.04-.33-.08-.495-.11l-.253-.05c-.429-.09-.858-.18-1.3-.26a4.176,4.176,0,0,0-.495-.06c-.165-.01-.363-.04-.55-.07-.759-.15-1.529-.31-2.266-.47l-.209-.04c-.066-.02-.121-.04-.187-.06a.577.577,0,0,0-.187-.06q-.33-.09-.66-.15c-.374-.07-.759-.15-1.133-.25l-.528-.12a5.229,5.229,0,0,1-1.034-.28,1.9,1.9,0,0,0-.528-.11,2.587,2.587,0,0,1-.3-.05,2.849,2.849,0,0,1-.275-.08c-.055-.02-.11-.03-.154-.05-.132-.04-.264-.07-.374-.1h-.11c-.418-.13-.814-.25-1.221-.38-.088-.03-.187-.06-.275-.09s-.143-.05-.22-.08c-.187-.06-.341-.11-.495-.15h-.033a2.268,2.268,0,0,0-.451-.11,1.562,1.562,0,0,1-.726-.25l-.044-.03c-.088-.06-.165-.13-.3-.09a.21.21,0,0,1-.154-.06q-.181-.21-.363-.45l-.121-.15h-.044l-.253-.02-.044.09-.077.18c-.209.05-.286-.06-.363-.18a.567.567,0,0,0-.154-.17l-.088.11-.1.11-.3-.09c-.275-.08-.55-.17-.825-.26a.588.588,0,0,1-.2-.16l-.022-.04a.3.3,0,0,1-.044-.12.15.15,0,0,1,.077-.11l.055-.03c.11-.07.22-.13.209-.27a.472.472,0,0,0-.231-.32.467.467,0,0,0-.077-.05l-.066-.04-.055-.04v.04l-.022.01-.055.19h.022v.02s0-.01-.022-.02h0l-.077.27c-.253-.12-.286-.16-.231-.31h-.055s.055-.03.077-.04c0-.02.022-.04.033-.07l.033-.06a.589.589,0,0,1,.341-.35c.011,0,.022-.03.022-.07v-.03l.187-.08.286-.13.154.04c.165.04.352.08.528.13h.011a.72.72,0,0,1,.154.06.756.756,0,0,0,.682.16c.055-.02.132.02.2.05a2.1,2.1,0,0,1,.209.11,1.772,1.772,0,0,0,.374.17,5.117,5.117,0,0,0,.649.16l.275.06h.055s.077.03.11.04c.11.04.209.09.319.13a3.9,3.9,0,0,0,.682.25,2.648,2.648,0,0,0,.275.05,1.224,1.224,0,0,1,.737.3,2.061,2.061,0,0,1,.693.17c.088.03.176.07.275.1a.788.788,0,0,0,.308.03h.22a.425.425,0,0,1,.22.06,1.335,1.335,0,0,0,.671.26c.077.02.154.03.231.05a2.834,2.834,0,0,0,.495.08c.132.02.264.03.4.06.154.04.308.08.462.13a2.158,2.158,0,0,0,.275.08h.055a1.39,1.39,0,0,0,.352.09,3.4,3.4,0,0,1,1.133.32v.02h.033a.812.812,0,0,0,.143.05c.1.02.2.05.3.06a4.58,4.58,0,0,0,.726.12,1.613,1.613,0,0,1,.484.11,1.651,1.651,0,0,0,.319.09c.132.03.253.06.385.1a1.528,1.528,0,0,0,.847.09.293.293,0,0,1,.132,0,.658.658,0,0,0,.583.17h.044a2.127,2.127,0,0,0,.66.17c.1.01.2.03.3.05l.176.04a3.565,3.565,0,0,0,.473.09h.055a1.028,1.028,0,0,1,.572.17.484.484,0,0,0,.209.04h.033a14.048,14.048,0,0,1,2.057.24v.03l.044.13v.06h.1a2.245,2.245,0,0,1,1.331.11l.187.05a.55.55,0,0,1,.055.02.219.219,0,0,0,.077.02,4.985,4.985,0,0,1,1.023.09c.176.03.352.06.528.08a2.73,2.73,0,0,1,.495.12,2.816,2.816,0,0,0,.418.11l.506.09a11.15,11.15,0,0,0,2,.24h.011a1.063,1.063,0,0,1,.154.01,3.272,3.272,0,0,0,.935.17,3.413,3.413,0,0,1,.715.1l.055.02h0a3.342,3.342,0,0,0,.341.08c.209.04.418.07.616.1l.242.04h.055a2.392,2.392,0,0,0,.286.05l.275.04.176.02h.011c.1.01.2.03.3.04a.22.22,0,0,1,.077.02.215.215,0,0,0,.11.02h0l.066-.03a.537.537,0,0,1,.33.05.585.585,0,0,0,.451.04h.033l.044-.02c.022,0,.055-.01.088-.01l.121.02c.264.03.539.06.8.11.176.03.363.07.539.1.2.04.4.08.594.11a1.946,1.946,0,0,0,.418,0,2.825,2.825,0,0,1,.77.05,4.935,4.935,0,0,0,.539.06h.2l.066-.02a1.724,1.724,0,0,1,.9.03,1.721,1.721,0,0,0,.242.04h.209a2.33,2.33,0,0,0,.264-.01.808.808,0,0,1,.462.04.168.168,0,0,0,.121,0h.022a.708.708,0,0,1,.121-.05,1.465,1.465,0,0,1,.8.06l.11.03a.821.821,0,0,0,.44,0,1.368,1.368,0,0,1,.451-.07,3.318,3.318,0,0,0,.77-.04,1.619,1.619,0,0,1,.539.05l.1.02a2.342,2.342,0,0,0,.792-.02,4.311,4.311,0,0,1,.8-.02h.253a.67.67,0,0,1,.44.08.258.258,0,0,0,.088,0h.044l.561-.03h.132c.066,0,.121-.01.187-.01h.143c.143-.02.3-.03.451-.05a9.016,9.016,0,0,1,1.276-.04h.759a1.258,1.258,0,0,1,.143-.07.482.482,0,0,1,.407.07l.264-.03c.2-.03.363-.05.539-.06.143,0,.286-.01.44-.01h.088a1.463,1.463,0,0,1,.209.01,1.389,1.389,0,0,0,.407-.01h.044a1.273,1.273,0,0,1,.583-.03c.066,0,.132.02.2.02h.066a.123.123,0,0,0,.055-.02h.044a.556.556,0,0,0,.077-.05.8.8,0,0,1,.088-.03h.066a1.256,1.256,0,0,0,.638-.02,1.527,1.527,0,0,1,.374-.05,4.9,4.9,0,0,0,.671-.08c.143-.02.286-.05.44-.06q.346-.03.693-.03h.484a2.37,2.37,0,0,0,.594-.03v-.45l-.352.03c-.044-.11-.11-.15-.187-.13a.46.46,0,0,0-.1.05c-.033.02-.066.03-.1.05h-.022a.928.928,0,0,0-.968.13.523.523,0,0,1-.495-.13c-.077.11-.132.17-.2.19a.368.368,0,0,1-.231-.04l-.33.18H326.9l-.1-.06a.288.288,0,0,0-.286-.07.462.462,0,0,0-.121.07.929.929,0,0,1-.132.08.658.658,0,0,1-.242.01h-.3a2.733,2.733,0,0,1-.286.01,1.12,1.12,0,0,1-.319-.06l-.143-.03a.468.468,0,0,1-.077.06.3.3,0,0,1-.132.09h-.033a.644.644,0,0,1-.385-.09.646.646,0,0,0-.583-.13h-.088l-.022.05-.022.05h.275a.462.462,0,0,1-.121.07.4.4,0,0,1-.264-.04h0a.344.344,0,0,0-.242-.03h-.033c.033.06.055.12.1.19a1.172,1.172,0,0,1-.693-.05.9.9,0,0,0-.583-.04.427.427,0,0,0-.121.05.9.9,0,0,1-.176.07,1.151,1.151,0,0,1-.583,0l.066-.03.088-.04a.39.39,0,0,0-.33-.09.234.234,0,0,0-.11.06.376.376,0,0,1-.176.1.468.468,0,0,1-.308-.02.7.7,0,0,0-.429.01l-.187.05a1.247,1.247,0,0,1-.187.04l-.572.03h-.264l-.165-.07a4.309,4.309,0,0,0-.495-.24.206.206,0,0,0-.154-.01.325.325,0,0,0-.209.23,2.5,2.5,0,0,0-1.122.04l-.055.02a.915.915,0,0,1-.33,0c-.055,0-.11-.01-.165-.01h-.506l-.033-.01h-.209v-.14a.318.318,0,0,1-.077-.01.41.41,0,0,0-.22,0,.771.771,0,0,0-.132.06.633.633,0,0,1-.187.09,1.076,1.076,0,0,1-.616,0l-.055-.02a.47.47,0,0,0-.264-.02.123.123,0,0,0-.055.02h-.011a.341.341,0,0,1-.22-.05.5.5,0,0,0-.341-.03.208.208,0,0,0-.1.04l-.066.03h-.033a1.305,1.305,0,0,0-.484-.03,1.394,1.394,0,0,1-.539-.05.469.469,0,0,1-.154-.09.473.473,0,0,0-.231-.1.333.333,0,0,0-.1.01c-.055.02-.1.04-.143.06a.686.686,0,0,1-.154.06.583.583,0,0,1-.132,0h-.154c-.176,0-.363.01-.55.02a.333.333,0,0,0-.1.01.347.347,0,0,1-.143.01l-.7-.12h0l-.242-.04H309.1a1.506,1.506,0,0,1-.561-.02,1.8,1.8,0,0,0-.462-.03.779.779,0,0,1-.539-.09.5.5,0,0,0-.264-.07c-.1,0-.165-.01-.2-.12a.1.1,0,0,0-.055-.09c-.022,0-.044-.01-.066,0a1.239,1.239,0,0,0-.121.06h-.011l.044.1c.011.03.033.07.044.1h-.022l-.022.01h-.022a.9.9,0,0,1-.176-.07c-.088-.04-.187-.07-.275-.1-.022,0-.044-.02-.066-.03a.285.285,0,0,0-.176-.04.191.191,0,0,0-.088.07h-.1a.6.6,0,0,0-.418-.07h-.264a1,1,0,0,1-.242-.03.886.886,0,0,1-.176-.05,1.263,1.263,0,0,0-.638-.07.477.477,0,0,1-.242-.06c-.033-.02-.077-.03-.121-.05h0a.068.068,0,0,1-.022-.04.123.123,0,0,0-.066-.09,1.361,1.361,0,0,0-.748-.03.4.4,0,0,0,.022.12.371.371,0,0,1-.3-.15.41.41,0,0,0-.385-.15l.022.14v.07l-.429-.13-.4-.12h.022l.3-.04v-.06l-.33-.05h0l-.011.11a3.593,3.593,0,0,1-1.5-.16.554.554,0,0,0-.286,0c-.055,0-.11.01-.165.01h-.077a.5.5,0,0,1-.242-.02,3.312,3.312,0,0,0-1.166-.29l-.187-.02a.973.973,0,0,1-.1-.02l-.066-.02.022-.07.033-.11h-.132a.667.667,0,0,0-.2.02c-.022,0-.033,0-.044.01a.349.349,0,0,1-.11.04.869.869,0,0,1-.528-.05,3.6,3.6,0,0,0-.473-.12c-.363-.07-.66-.12-.935-.16-.143-.02-.286-.03-.44-.04l-.209-.02c.022-.19-.11-.23-.3-.26a1.027,1.027,0,0,0-.55,0,.388.388,0,0,0-.132.06.936.936,0,0,0-.781-.17,1.56,1.56,0,0,1-.77-.12l.319-.1v-.05l-.044-.01-.1-.03c-.165-.01-.33-.03-.484-.03h0l-.066.06a.563.563,0,0,0-.066.08l-.429-.03v-.02l.154-.17-.451-.11-.11-.03v.02l-.033.04.088.06.1.06c-.088,0-.176-.01-.264-.01a1.1,1.1,0,0,1-.506-.08,1.068,1.068,0,0,0-.3-.07c-.055,0-.121-.02-.2-.03l-.066-.08-.1-.12a1.039,1.039,0,0,1-.242.11.525.525,0,0,1-.484-.09.63.63,0,0,0-.308-.07.467.467,0,0,1-.165-.02.492.492,0,0,1-.407-.21.176.176,0,0,0-.22-.09.144.144,0,0,0-.077.04.375.375,0,0,1-.143.07.34.34,0,0,1-.33-.1,1.866,1.866,0,0,1-.22-.07,1.193,1.193,0,0,0-.649-.08c-.066.02-.176-.04-.231-.07-.022-.01-.022-.05-.033-.09v-.06a4.514,4.514,0,0,1-1.551-.34,1.068,1.068,0,0,0-.3-.07.367.367,0,0,1-.143-.03l.033-.04.044-.06c-.077-.08-.132-.1-.22-.07a.921.921,0,0,0-.22.12l.1.08a.433.433,0,0,1-.407-.13.642.642,0,0,0-.264-.13,1.492,1.492,0,0,1-.2-.06.839.839,0,0,0-.495-.08.541.541,0,0,1-.22-.05c-.033-.02-.077-.03-.11-.05l.066-.14h0a.442.442,0,0,0-.429-.04.223.223,0,0,0-.088.03.616.616,0,0,1-.33,0c-.11-.04-.22-.07-.33-.1l-.132-.03h0V14.1h0v-.06l-.033-.07a1.321,1.321,0,0,1-.935-.15.481.481,0,0,0-.352-.07c-.066.01-.187.01-.2-.02a.6.6,0,0,0-.473-.26.864.864,0,0,1-.275-.08,4.926,4.926,0,0,0-.682-.25l-.165-.03a.75.75,0,0,1-.286-.07l.132-.05.1-.04a.194.194,0,0,0-.231-.1.588.588,0,0,1-.132-.01c-.088-.03-.176-.06-.286-.1l-.165-.06.1.14.077.12h-.11a1.114,1.114,0,0,0-.176-.04c-.055-.02-.1-.04-.143-.06a.534.534,0,0,0-.352-.07c-.044.01-.154-.11-.187-.19-.1-.21-.1-.22-.341-.19a.812.812,0,0,1-.913-.34,1.034,1.034,0,0,0-.176,0c-.132,0-.253.01-.319-.15a.092.092,0,0,0-.033.01.382.382,0,0,1-.154.02.859.859,0,0,1-.22-.1c-.033-.02-.066-.03-.1-.05l-.033-.15V11.6l-.055-.19-.143.19-.088.12-.242-.12-.209-.11v-.11a.4.4,0,0,0-.011-.16.213.213,0,0,0-.231-.11c-.022,0-.044.02-.066.03a.284.284,0,0,1-.077.04h-.033a2.073,2.073,0,0,0-.33-.1,1.294,1.294,0,0,1-.462-.18.2.2,0,0,0-.11-.03H271.8a.654.654,0,0,1-.352-.24c-.033-.05-.1-.12-.143-.11a.484.484,0,0,1-.209-.04.367.367,0,0,0-.253-.03.123.123,0,0,0-.055.02c-.044.01-.132-.05-.2-.1l-.033-.02-.11-.07a.807.807,0,0,0-.638-.21.445.445,0,0,1-.4-.22h-.033a.164.164,0,0,1-.044-.02.4.4,0,0,1-.143-.08.714.714,0,0,0-.6-.24c-.055,0-.143-.01-.165-.04a.651.651,0,0,0-.44-.29c-.066-.02-.143-.05-.209-.07l.044-.02s.066-.03.066-.05c0-.12-.077-.15-.165-.19-.022,0-.044-.02-.077-.03a.31.31,0,0,0-.2-.05c-.033,0-.055.03-.077.05s0,.05,0,.07v.04a1.445,1.445,0,0,1-1.177-.77l-.055.03h0l-.022.19-.44-.2-.088-.04.308-.03V8.08l.022-.03-.286-.14c-.132-.07-.275-.14-.418-.2a.087.087,0,0,1,.044.02.647.647,0,0,1-.484-.23h-.011c.033.01.066.03.11.04l-.066-.03H264.8a.276.276,0,0,0-.132-.04c-.022,0-.044.03-.055.05l-.418-.04h-.055V7.39c0-.06,0-.11-.033-.13h0a.654.654,0,0,0-.4-.15.371.371,0,0,1-.275-.05c-.088-.04-.176-.08-.275-.12l-.3-.12a5.9,5.9,0,0,1-.869-.55l.319.03a.8.8,0,0,0-.55-.23.609.609,0,0,1-.143-.02h-.055a.27.27,0,0,1-.121-.03c-.143-.08-.286-.17-.429-.25l-.165-.1-.055-.28V5.32l-.2.17-.066.06A2.951,2.951,0,0,0,259.376,5a.451.451,0,0,1-.275-.18.5.5,0,0,0-.308-.23c-.033-.01-.066-.03-.1-.04h0a.638.638,0,0,1-.385-.33h.022l.033-.02a.32.32,0,0,0-.132-.24.284.284,0,0,0-.077-.04.386.386,0,0,1-.187-.02v.12a.464.464,0,0,1-.374-.13.814.814,0,0,0-.231-.12.214.214,0,0,0,0-.2.161.161,0,0,0-.154-.05l-.044.1-.055.11-.33-.25h.055l.132-.03-.231-.14-.055-.04-.044.04.033.09v.04h-.022l-.011.01a1.157,1.157,0,0,0-.4-.22,1.5,1.5,0,0,1-.363-.18l.22-.07V2.95s0-.03-.011-.04c-.044-.02-.1-.04-.143-.06a.352.352,0,0,0-.3-.07.234.234,0,0,0-.11.06l-.1-.12-.1-.1c-.2.03-.352-.07-.473-.31-.066-.12-.154-.31-.429-.23-.066.02-.154-.03-.242-.08a.6.6,0,0,0-.143-.06l.088-.06.077-.05a.749.749,0,0,0-.616-.31,1.651,1.651,0,0,1-.616-.21,5.7,5.7,0,0,1-.495-.32c-.077-.05-.143-.1-.22-.16h-.044l-.187.05.033-.05.033-.05s.033-.05.022-.08-.044-.05-.077-.07c-.011,0-.022-.01-.033-.02l-.143-.09c-.121-.08-.242-.15-.374-.23L251.27.17l-.11-.06V.04l.011-.11h-.077l-.2.03.055-.07V-.13h-1.485l.3.18a5.348,5.348,0,0,1,.77.48,8.217,8.217,0,0,0,.935.63c.154.1.319.2.484.31a1.762,1.762,0,0,1,.22.17,1.368,1.368,0,0,0,.143.11,3.547,3.547,0,0,0,.7.37c.121.05.242.11.363.17a.859.859,0,0,1,.165.12c.022.02.055.04.077.06a.124.124,0,0,1,.055.05.259.259,0,0,0,.132.08,1.309,1.309,0,0,1,.539.25.7.7,0,0,1,.1.08c.209.15.429.29.638.42l.121.08.022.02a.268.268,0,0,0,.1.05.582.582,0,0,1,.429.23c.022.03.055.05.077.08a.76.76,0,0,0,.363.23,3.224,3.224,0,0,1,.957.42c.121.07.242.14.363.2a7.539,7.539,0,0,1,.693.4c.176.11.363.22.55.32s.418.2.627.29l.22.1a4.492,4.492,0,0,1,.77.46,1.551,1.551,0,0,0,.374.17,1.022,1.022,0,0,1,.187.08c.088.04.176.08.264.13.011,0,.022.02.033.03s.022.03.044.03a2.487,2.487,0,0,1,.781.46,2.22,2.22,0,0,0,.495.24,2.952,2.952,0,0,1,.319.13c.154.08.308.17.462.26.1.06.209.12.308.18h0a1.076,1.076,0,0,0,.33.15.538.538,0,0,1,.473.34.839.839,0,0,1,.649.2.29.29,0,0,0,.121.07,2.525,2.525,0,0,1,.814.35l.264.15a6.187,6.187,0,0,0,.814.32,4.565,4.565,0,0,1,.924.38,3.294,3.294,0,0,0,.374.19l.363.18a1.022,1.022,0,0,0,.418.1,1.5,1.5,0,0,1,.209.03h.044c.055.02.132.03.143.06a.47.47,0,0,0,.286.24.534.534,0,0,1,.22.14.068.068,0,0,0,.066.03.876.876,0,0,1,.627.21,1.385,1.385,0,0,0,.3.17l.1.04a1.276,1.276,0,0,1,.6.37.245.245,0,0,0,.187.08,1.325,1.325,0,0,1,1.078.4l-.154.11-.088.07a1.219,1.219,0,0,0,.484.34l.11.05h.066a.614.614,0,0,0,.143-.07.935.935,0,0,0,.1-.1.559.559,0,0,1,.077-.09c.011.04.033.08.044.12a.382.382,0,0,1,.033.16.314.314,0,0,0,.286.42.473.473,0,0,1-.22.21.44.44,0,0,1-.319-.06.239.239,0,0,0-.165-.04.248.248,0,0,0-.121.11l.077.07.121.12h-.011l-.011.03-.473-.24a.646.646,0,0,0,.011.15,1.24,1.24,0,0,0,.022.21.182.182,0,0,1-.11.23.3.3,0,0,1-.187-.02l-.209-.09c-.209-.09-.429-.19-.638-.29a1.214,1.214,0,0,1-.2-.11c-.044-.02-.088-.05-.132-.07-.022-.01-.033-.02-.055-.03a.4.4,0,0,0-.165-.07.913.913,0,0,1-.792-.35c-.033-.04-.121-.04-.165-.05a1.216,1.216,0,0,1-.649-.22,2.388,2.388,0,0,0-.572-.25l-.066-.02a8,8,0,0,1-.913-.39c-.143-.07-.3-.14-.451-.2a3.2,3.2,0,0,0-.4-.15l-.231-.09c-.044-.02-.088-.03-.132-.05a1.054,1.054,0,0,1-.308-.14,2.516,2.516,0,0,0-.792-.4,8.772,8.772,0,0,1-1-.44l-.044-.02c-.209-.1-.418-.22-.616-.34l-.22-.13-.044-.02a.825.825,0,0,1-.154-.11.678.678,0,0,0-.594-.2.762.762,0,0,1-.517-.21,1.509,1.509,0,0,0-.231-.15c.132-.15.2-.28.055-.42H262.4c-.11.03-.176.14-.242.26l-.022.03-.044-.03h-.011l-.495-.33a.462.462,0,0,0-.121-.07,2.129,2.129,0,0,1-.264-.14,4.367,4.367,0,0,0-.627-.29,5.025,5.025,0,0,1-.935-.48,5.161,5.161,0,0,0-.781-.42c-.407-.17-.836-.36-1.254-.57a4.125,4.125,0,0,1-.561-.38c-.033-.03-.077-.06-.11-.09a1.123,1.123,0,0,0-.627-.32,1.3,1.3,0,0,1-.759-.37,1.594,1.594,0,0,0-.264-.16,1.243,1.243,0,0,0-.121-.06l-.286-.15-.594-.33c-.374-.22-.8-.47-1.243-.74-.132-.09-.275-.18-.4-.27s-.231-.16-.352-.24a1.375,1.375,0,0,0-.352-.16,3.393,3.393,0,0,1-1.342-.85.7.7,0,0,0-.143-.1c-.143-.09-.308-.17-.451-.25a8.713,8.713,0,0,1-.99-.6,3.436,3.436,0,0,0-.528-.32,2.591,2.591,0,0,1-.836-.62.263.263,0,0,0-.1-.06.087.087,0,0,1-.044-.02L247.4.72,246.353.16h-.022S246.3.14,246.3.13a1.476,1.476,0,0,0-.22-.22H0v50H329.967V21.16l-.055.02Zm-25.9-2.27h.033V19a.058.058,0,0,1-.033-.01l-.4-.02C303.724,18.84,303.867,18.92,304.01,18.99Zm-36.824-9.9c.165,0,.33,0,.418.17C267.383,9.38,267.328,9.15,267.185,9.09Zm7.38,3.85-.286.27-.077-.1c.033-.15.044-.34.352-.17Z" fill="#fff"/>
      <path id="Path_55" data-name="Path 55" d="M256.02,16c-.132.06-.121.16-.1.27,0,.04.033.07.077.09a.306.306,0,0,0,.231.02h.011a.214.214,0,0,0,.1-.27.263.263,0,0,0-.3-.12h-.022Z" transform="translate(25.563)" fill="#fff"/>
      <path id="Path_56" data-name="Path 56" d="M272.952,19.73c-.154-.08-.2-.1-.264-.08-.033.01-.055.02-.088.03l.352.04Z" transform="translate(27.23)" fill="#fff"/>
      <path id="Path_57" data-name="Path 57" d="M271.079,19.24,271,19.22v.03l-.022.01.022.02s.033.02.055.03h.066l.033-.02v-.04l-.077-.01h0Z" transform="translate(27.068)" fill="#fff"/>
      <path id="Path_58" data-name="Path 58" d="M241.2,9.91l-.022.03.088.03.154.07.033-.04V9.98l-.121-.05-.121-.05Z" transform="translate(24.092)" fill="#fff"/>
      <path id="Path_59" data-name="Path 59" d="M251.707,13.68h0a.161.161,0,0,0-.033.02l-.033.02-.022.07-.066.23-.231.04h0l-.242.04c.022.05.044.09.066.14a2.165,2.165,0,0,0,.143.27.445.445,0,0,0,.506.18.536.536,0,0,0,.11-.05.5.5,0,0,0,.143-.19.732.732,0,0,1,.077-.12h0l.077.04c.055.03.121.06.176.09a.251.251,0,0,0,.209.04.154.154,0,0,0,.088-.05.2.2,0,0,0,.033-.29,1.108,1.108,0,0,0-.979-.5Zm.132.85-.253-.07.066-.12a1.389,1.389,0,0,1,.22.08.5.5,0,0,0-.022.11Z" transform="translate(25.08)" fill="#fff"/>
      <path id="Path_60" data-name="Path 60" d="M307.06,18.18v-.19c-.066,0-.132.02-.187.02-.264.02-.539.04-.869.06h-.517a1,1,0,0,0-.3.03.575.575,0,0,0-.176.09c-.011,0-.022.02-.044.02a.688.688,0,0,1-.143.01h-.209q-.4.045-.792.06c-.3.02-.572.03-.836.04h-.264a1.75,1.75,0,0,0-.561.03l-.055.02a1.105,1.105,0,0,1-.363,0c-.044,0-.1-.01-.143-.01a1.635,1.635,0,0,1-.22-.02,1.572,1.572,0,0,0-.572.01.7.7,0,0,0-.2.09c-.011,0-.033.02-.044.02a.656.656,0,0,1-.242,0h-.352l-.011.01c-.341.01-.7.03-1.056.05a2.035,2.035,0,0,1-.55-.03,1.632,1.632,0,0,0-.66.02,7.571,7.571,0,0,1-1.254.1,4.1,4.1,0,0,0-.495.02.7.7,0,0,1-.253-.04h-.055l-.066-.03a.406.406,0,0,0-.22-.02.265.265,0,0,0-.121.09.04.04,0,0,1-.022.01h-.176l-.979-.03-.682-.02H293.3c-.044,0-.077.01-.088,0a.394.394,0,0,0-.407-.1c-.044,0-.077.01-.121.01a26.218,26.218,0,0,1-2.662.04h-.308a7,7,0,0,0-1.023-.04.239.239,0,0,1-.121-.03.565.565,0,0,0-.077-.03,2.208,2.208,0,0,0-.726-.06,5.047,5.047,0,0,1-.781-.03c-.1,0-.2-.02-.286-.02a.43.43,0,0,1-.121-.02.51.51,0,0,0-.121-.02c-.286-.02-.561-.03-.836-.05l-.385-.02h-.066a3.028,3.028,0,0,0-.99-.13,4.04,4.04,0,0,1-.693-.05l-.407-.06c-.132-.02-.242-.04-.374-.06a.991.991,0,0,1-.165-.04,1.022,1.022,0,0,0-.253-.05h-.066a1.616,1.616,0,0,1-.814-.15.168.168,0,0,0-.121,0H281.2l-.209-.02a6.045,6.045,0,0,1-.616-.09c-.1-.02-.209-.04-.308-.07a4.722,4.722,0,0,0-1.353-.16,1.454,1.454,0,0,1-.506-.09,1.479,1.479,0,0,0-.418-.09.127.127,0,0,1-.088-.02.425.425,0,0,0-.11-.02,1.947,1.947,0,0,1-.957-.15c-.11-.04-.231-.08-.341-.11a6.8,6.8,0,0,0-1.276-.23h-.154a2.73,2.73,0,0,1-.979-.18,3.279,3.279,0,0,0-.825-.19l-.231-.03-.462-.06a5,5,0,0,1-1.078-.21,1.853,1.853,0,0,0-.341-.06h-.077a6.706,6.706,0,0,1-1.188-.23,3.438,3.438,0,0,0-.792-.14c-.121-.01-.253-.03-.374-.04h-.066a1.529,1.529,0,0,1-.308-.08,4.826,4.826,0,0,0-1.3-.27,3.25,3.25,0,0,1-.748-.18,3.629,3.629,0,0,0-.726-.17,3.232,3.232,0,0,1-.429-.08,3.4,3.4,0,0,0-.385-.08c-.2-.04-.4-.08-.594-.14-.242-.06-.473-.13-.7-.2l-.33-.1h-.022a.233.233,0,0,0-.077-.02.966.966,0,0,1-.627-.08,1.827,1.827,0,0,0-.253-.08c-.33-.08-.66-.15-.979-.22h-.011l-.44-.1H260.5s-.055-.02-.077-.03c-.066-.03-.132-.06-.187-.09a.779.779,0,0,0-.407-.13.726.726,0,0,1-.462-.09c-.055-.02-.1-.04-.154-.06-.088-.03-.176-.05-.264-.08-.11-.03-.22-.06-.33-.1h-.033a3.546,3.546,0,0,0-.891-.29,6.542,6.542,0,0,1-1.133-.31h-.033c-.11-.05-.22-.1-.33-.16a3.653,3.653,0,0,0-.352-.16q-.495-.15-.99-.27c-.176-.05-.352-.09-.517-.14l-.165-.06c-.033-.01-.066-.03-.1-.04-.242-.09-.484-.17-.715-.26-.55-.2-1.122-.4-1.683-.62a3.692,3.692,0,0,1-.836-.46.268.268,0,0,0-.2-.05.5.5,0,0,1-.121-.01,2.474,2.474,0,0,0-.242-.1c-.132-.05-.264-.11-.385-.17-.418-.21-.847-.41-1.287-.58l-.154-.06h-.022c-.3-.13-.6-.25-.9-.38-.1-.04-.209-.1-.308-.15a2.741,2.741,0,0,0-.671-.27.789.789,0,0,1-.209-.1c-.044-.03-.1-.06-.154-.09-.11-.05-.231-.09-.341-.13-.165-.06-.33-.12-.495-.19-.176-.09-.352-.19-.528-.28-.132-.08-.275-.15-.407-.23-.209-.1-.418-.21-.616-.31-.264-.13-.539-.26-.8-.39-.2-.1-.407-.19-.6-.28a4.662,4.662,0,0,1-1-.52,1.608,1.608,0,0,0-.352-.17,1.287,1.287,0,0,1-.176-.07l-.055-.02s-.077-.03-.121-.05c-.154-.09-.308-.19-.462-.28-.319-.2-.66-.4-1-.57a4.572,4.572,0,0,1-.484-.28,3.834,3.834,0,0,0-1.056-.49.99.99,0,0,1-.3-.14c-.044-.02-.077-.05-.121-.07l-.209-.11c-.2-.1-.407-.21-.6-.32s-.374-.22-.561-.33l-.4-.24-.066-.04c-.363-.22-.748-.44-1.122-.65-.132-.07-.275-.15-.418-.21-.176-.09-.363-.18-.528-.28-.132-.08-.264-.17-.385-.26a4.936,4.936,0,0,0-.484-.32,2.061,2.061,0,0,1-.264-.18,1,1,0,0,0-.6-.27.213.213,0,0,1-.121-.07l-.044-.04-.22-.17c-.154-.12-.319-.25-.484-.36-.088-.05-.176-.1-.264-.14H229.32l.077.05h0c.341.24.682.48,1.034.71a1.03,1.03,0,0,0,.264.12,1.277,1.277,0,0,1,.209.09c.484.26.957.52,1.452.79a.426.426,0,0,1,.11.08c.022.02.055.04.077.06.055.03.1.07.154.1a2.511,2.511,0,0,0,.4.24,2.119,2.119,0,0,1,.77.5.808.808,0,0,0,.187.14,10.827,10.827,0,0,1,1.9.99l.055.03a3.442,3.442,0,0,0,.99.49,2.866,2.866,0,0,1,.572.25l.143.07a3.048,3.048,0,0,1,.363.23,2.459,2.459,0,0,0,.3.19,1.9,1.9,0,0,0,.253.12,2.589,2.589,0,0,1,.242.11c.209.12.429.24.627.36s.44.25.66.37c.143.08.286.14.44.21l.187.08.231.1q.247.105.495.24c.308.16.627.33.924.49.253.14.506.27.77.41.341.18.627.32.9.45.1.04.2.08.3.11a1.092,1.092,0,0,1,.165.06,3.884,3.884,0,0,1,.385.15l.44.17c.374.14.77.3,1.144.46.231.1.462.22.682.33.132.07.264.13.4.2a4.074,4.074,0,0,0,.44.18l.2.06a1.088,1.088,0,0,1,.649.36.622.622,0,0,0,.4.18,3.363,3.363,0,0,1,1.122.44,1.993,1.993,0,0,0,.462.18c.1.03.187.06.286.09l.264.1a8.279,8.279,0,0,1,.979.41,5.586,5.586,0,0,0,.957.39,1.247,1.247,0,0,0,.187.04.627.627,0,0,1,.187.04c.055.01.11.03.154.04a1.747,1.747,0,0,1,.44.15,4.125,4.125,0,0,0,1.111.39l.143.03a5.365,5.365,0,0,1,.682.22c.1.04.209.07.308.11l.077.03c.121.04.253.09.385.12.209.06.418.12.616.18h.011l.374.12a.246.246,0,0,1,.077.03.664.664,0,0,0,.132.04,10.342,10.342,0,0,1,1.254.31,10.51,10.51,0,0,0,1.375.33,2.972,2.972,0,0,1,.583.17c.11.04.231.08.352.12a1.853,1.853,0,0,0,.341.06,1.081,1.081,0,0,1,.176.03l.11.02c.11.02.231.04.341.07l.671.18c.33.09.682.19,1.012.27a2.29,2.29,0,0,0,.363.06,1.536,1.536,0,0,1,.3.05c.2.05.4.09.594.14.242.06.495.12.737.17.165.03.341.06.506.08a4.855,4.855,0,0,1,.528.09,2.984,2.984,0,0,1,.4.12,1.676,1.676,0,0,0,.242.08,3.111,3.111,0,0,0,.44.11c.517.09.99.17,1.463.24a1.215,1.215,0,0,0,.33,0h.4c.484.1.924.19,1.342.28.341.08.693.16,1.034.23l.781.18a2.6,2.6,0,0,0,.275.04,7.063,7.063,0,0,1,1.584.26l.264.06c.495.12,1,.19,1.5.27.209.03.44.07.649.1a1.863,1.863,0,0,1,.88.06c.1.02.2.05.286.06.352.06.7.11,1.056.16.264.03.528.07.792.11.209.03.418.08.627.12s.4.08.583.12a2.057,2.057,0,0,0,.429.02h.308l.484.06c.44.05.891.1,1.331.16.165.02.33.06.495.09a6.038,6.038,0,0,0,.616.1,3.39,3.39,0,0,0,.55.01h.4c.341.02.682.04,1.023.05.506.03,1.034.06,1.551.08.319.01.649,0,.968,0,.176,0,.363-.01.55-.01a.467.467,0,0,1,.165.02.7.7,0,0,1,.143.02h.121a1.388,1.388,0,0,0,.407,0,3.557,3.557,0,0,1,.979-.04,4.754,4.754,0,0,0,.924,0c.143,0,.275-.01.418-.02s.253,0,.385,0h.033c.2,0,.407.01.594.02.44.02.891.03,1.342.02.242,0,.495-.03.737-.05a7.237,7.237,0,0,1,1.045-.05,8.108,8.108,0,0,0,1.21-.04c.22-.02.451-.04.682-.05h.121a5.436,5.436,0,0,1,1.067.02h.308c.209-.03.429-.05.638-.07.374-.04.77-.09,1.155-.12l.594-.05c.726-.06,1.474-.13,2.211-.14a3.4,3.4,0,0,0,.715-.09Z" transform="translate(22.907)" fill="#fff"/>
      <path id="Path_61" data-name="Path 61" d="M246.332,12.52l.143-.03c-.11-.08-.165-.13-.2-.12s-.044.06-.077.17l.132-.03Z" transform="translate(24.593)" fill="#fff"/>
      <path id="Path_62" data-name="Path 62" d="M280.836,20.88l.407.06c-.209-.12-.264-.15-.352-.12h0s-.077.03-.121.05h.066Z" transform="translate(28.046)" fill="#fff"/>
      <path id="Path_63" data-name="Path 63" d="M241.566,9.8h.022c.121-.04.154-.12.11-.25a.176.176,0,0,0-.209-.13.043.043,0,0,0-.033.01h-.011a.228.228,0,0,0-.154.1.2.2,0,0,0,0,.16c.044.12.132.15.286.12Z" transform="translate(24.101)" fill="#fff"/>
      <path id="Path_64" data-name="Path 64" d="M282.244,20.87a.993.993,0,0,0-.154.07.438.438,0,0,0,.385.06.575.575,0,0,0,.176-.09.576.576,0,0,0-.407-.05Z" transform="translate(28.178)" fill="#fff"/>
      <path id="Path_65" data-name="Path 65" d="M280.54,19.22v.03l.209-.01v-.05l-.209-.02Z" transform="translate(28.023)" fill="#fff"/>
      <path id="Path_66" data-name="Path 66" d="M234.31,1.54h0a.4.4,0,0,0,.242.37,3.864,3.864,0,0,1,.363.16l.2.09.209.09.1.04.022-.03.022-.03a3.162,3.162,0,0,0-.649-.38c-.176-.09-.341-.19-.506-.29Z" transform="translate(23.405)" fill="#fff"/>
      <path id="Path_67" data-name="Path 67" d="M241.46,5.9a1.259,1.259,0,0,0,.209.08,2.761,2.761,0,0,1,.308.13c.132.07.253.14.374.22.1.06.2.12.308.18l.121.07c.308.17.616.34.946.5h.022a1.009,1.009,0,0,0,.737.14l-.253-.13a28.331,28.331,0,0,0-2.992-1.37.5.5,0,0,0,.231.18Z" transform="translate(24.098)" fill="#fff"/>
      <path id="Path_68" data-name="Path 68" d="M239.851,4.85a.731.731,0,0,0-.154-.03h-.077V4.8h.011a1.762,1.762,0,0,0,1.232.6.557.557,0,0,0-.187-.16c-.33-.17-.583-.29-.825-.4Z" transform="translate(23.936)" fill="#fff"/>
      <path id="Path_69" data-name="Path 69" d="M277.24,18.78v.08a.734.734,0,0,0,.484.05.92.92,0,0,0,.2-.1h-.143l-.539-.02Z" transform="translate(27.694)" fill="#fff"/>
      <path id="Path_70" data-name="Path 70" d="M239.355,4.53a6.868,6.868,0,0,0-1.7-1A3.46,3.46,0,0,0,239.355,4.53Z" transform="translate(23.739)" fill="#fff"/>
      <path id="Path_71" data-name="Path 71" d="M239.485,4.74l.165.05a.155.155,0,0,0-.088-.13.162.162,0,0,0-.165,0,.246.246,0,0,0-.077.03l.165.06Z" transform="translate(23.906)" fill="#fff"/>
      <path id="Path_72" data-name="Path 72" d="M247.094,8.7a.535.535,0,0,0-.374-.25C246.753,8.7,246.907,8.71,247.094,8.7Z" transform="translate(24.645)" fill="#fff"/>
      <path id="Path_73" data-name="Path 73" d="M244.3,7.36l.2.09.022-.04.022-.03-.2-.09h0Z" transform="translate(24.403)" fill="#fff"/>
      <path id="Path_74" data-name="Path 74" d="M248.58,9.35a2.288,2.288,0,0,0-.88-.39A.926.926,0,0,0,248.58,9.35Z" transform="translate(24.743)" fill="#fff"/>
      <path id="Path_75" data-name="Path 75" d="M244.68,7.56c.1.04.2.09.3.14a1.109,1.109,0,0,0,.616.19,2.071,2.071,0,0,1-.3-.15,1.109,1.109,0,0,0-.616-.19Z" transform="translate(24.441)" fill="#fff"/>
      <path id="Path_76" data-name="Path 76" d="M235.94,2.62a2.811,2.811,0,0,0,1.43.75,8.32,8.32,0,0,0-1.43-.76h0Z" transform="translate(23.568)" fill="#fff"/>
      <path id="Path_77" data-name="Path 77" d="M245.009,10.01a.433.433,0,0,0,.253.01.424.424,0,0,0,.132-.07.374.374,0,0,1-.1-.03.367.367,0,0,0-.143-.03.087.087,0,0,0-.044.02H245.1a.6.6,0,0,0-.121.04l-.066.03h0a.215.215,0,0,1,.11.02Z" transform="translate(24.464)" fill="#fff"/>
      <path id="Path_78" data-name="Path 78" d="M255.748,14.17a.336.336,0,0,0-.2-.04h0a.477.477,0,0,0-.11.1v.02h0l.319-.1Z" transform="translate(25.516)" fill="#fff"/>
      <path id="Path_79" data-name="Path 79" d="M276.67,18.63s-.055.03-.077.04l-.033.02s.022.02.022.03c.022.03.033.05.055.05h.033c.022,0,.044-.02.066-.03s.044-.02.066-.03c-.022-.02-.044-.03-.055-.05a.233.233,0,0,0-.066-.04h-.011Z" transform="translate(27.626)" fill="#fff"/>
      <path id="Path_80" data-name="Path 80" d="M251.794,7.65a.353.353,0,0,0,.33.07.167.167,0,0,0,.066-.02.128.128,0,0,0,.077-.07.191.191,0,0,0-.033-.15.391.391,0,0,0-.374-.18.409.409,0,0,1-.154-.02h0c-.143.17-.033.27.088.36Z" transform="translate(25.136)" fill="#fff"/>
      <path id="Path_81" data-name="Path 81" d="M299.792,18.95h.176c.033-.01.033-.04.055-.06v-.06l-.253.05h0v.02l.022.05Z" transform="translate(29.944)" fill="#fff"/>
      <path id="Path_82" data-name="Path 82" d="M233.19.9h0a.96.96,0,0,0,.627.38.8.8,0,0,1-.176-.15A.613.613,0,0,0,233.19.9Z" transform="translate(23.293)" fill="#fff"/>
      <path id="Path_83" data-name="Path 83" d="M233.131.71a8.374,8.374,0,0,0-.891-.59,2.382,2.382,0,0,0-.286-.12h-.264a14.3,14.3,0,0,0,1.43.71Z" transform="translate(23.144)" fill="#fff"/>
      <path id="Path_84" data-name="Path 84" d="M272.862,18.06l-.022.05h.033a.954.954,0,0,0,.165.03c0-.02.022-.03.022-.05a.942.942,0,0,0-.143-.07h-.033l-.022.04Z" transform="translate(27.254)" fill="#fff"/>
      <path id="Path_85" data-name="Path 85" d="M240.04.34c.132.09.275.18.418.26l.121.07.4.21.726.42.44.25s.1.05.154.08c.594.27,1.221.57,1.837.89.165.09.319.18.473.27.2.12.407.24.627.35h0a11.121,11.121,0,0,0,1.375.62,3.652,3.652,0,0,1,.352.16,1.988,1.988,0,0,0,.209.1c.22.1.462.21.7.3.154.06.319.12.473.18.22.08.44.17.66.26a1.769,1.769,0,0,1,.264.15,1.616,1.616,0,0,0,.143.09c.033.02.055.04.088.06a.49.49,0,0,0,.231.11,1.288,1.288,0,0,1,.737.3c.066.04.132.09.187.13l.077.05a.853.853,0,0,0,.352.16,2.991,2.991,0,0,1,.88.34c.088.05.176.09.275.14a.082.082,0,0,1,.044.04c.022.02.044.04.066.04a1.875,1.875,0,0,1,.737.25,2.3,2.3,0,0,0,.517.21,2.868,2.868,0,0,1,.484.2c.077.04.154.07.231.11-.132.23-.2.37-.154.48s.187.16.429.23c.011,0,.033.02.055.04a.327.327,0,0,0,.055.06h0a2.226,2.226,0,0,0-.451.03,1,1,0,0,1-.682-.06,4.54,4.54,0,0,0-.726-.3c-.143-.05-.286-.1-.429-.16a1.8,1.8,0,0,1-.242-.13c-.066-.04-.143-.08-.22-.12-.1-.04-.2-.08-.308-.12s-.187-.07-.275-.11c-.2-.08-.385-.17-.572-.26l-.275-.13-.231-.11c-.165-.07-.33-.15-.484-.23a2.474,2.474,0,0,0-.242-.1,1.776,1.776,0,0,1-.44-.22.717.717,0,0,0-.275-.11,1.562,1.562,0,0,1-.2-.07c-.341-.16-.693-.32-1.034-.48l-.44-.21s-.066-.03-.1-.04a9.471,9.471,0,0,1-1.562-.73c-.275-.15-.572-.31-.858-.44-.385-.18-.8-.38-1.21-.59-.209-.11-.407-.22-.616-.34-.11-.07-.231-.13-.352-.2a.7.7,0,0,0-.154-.07c-.033-.01-.066-.03-.1-.04-.121-.06-.231-.11-.352-.17l-.11-.06-.11-.05c-.088-.04-.176-.09-.264-.13-.2-.11-.407-.24-.627-.36-.055-.03-.1-.07-.154-.1a1.576,1.576,0,0,1-.165-.11l-.077-.04c-.3-.17-.6-.35-.913-.52a1.1,1.1,0,0,0-.231-.09,1.02,1.02,0,0,1-.22-.09L238.632.7a12.631,12.631,0,0,1-1.32-.72H235.64a.286.286,0,0,0,.11.04,1.772,1.772,0,0,1,.374.17,4.9,4.9,0,0,1,.517.26c.407.24.8.49,1.21.72a4.23,4.23,0,0,0,.693.31.886.886,0,0,1,.495.28c0,.02.022.04.044.05.352.19.715.37,1.056.56s.726.4,1.089.59c.319.16.638.32.957.47a4.43,4.43,0,0,1,.495.24,1.359,1.359,0,0,0,.649.3.24.24,0,0,1,.154.07,7.255,7.255,0,0,0,1.463.8c.143.09.308.17.451.25.022.01.044.03.066.03a3.052,3.052,0,0,1,1.012.37c.341.12.649.25.968.38.242.09.473.19.715.28a.79.79,0,0,1,.407.27.87.87,0,0,0,.561.23,1,1,0,0,1,.66.28,2.1,2.1,0,0,0,.869.39,10.6,10.6,0,0,1,.99.41,2.9,2.9,0,0,0,.319.1.777.777,0,0,1,.165.05,3.215,3.215,0,0,0,.946.39,1.551,1.551,0,0,1,.374.17,2.245,2.245,0,0,0,1.111.38,5.758,5.758,0,0,1,1.012.38c.22.06.451.1.671.15a1.182,1.182,0,0,1,.759.38c.088,0,.22-.04.286,0a1.468,1.468,0,0,0,.649.19l-.044.44c.385.09.418.06.473-.31.2.06.4.12.594.17.44.12.88.23,1.32.36a.891.891,0,0,1,.407.29l-.825-.14c-.022.43.055.52.462.61.121.03.242.07.363.11a.628.628,0,0,0,.8-.22.339.339,0,0,0,.044-.11A.206.206,0,0,1,261.8,11h.011c.187.04.363.08.55.11a5.268,5.268,0,0,1,1.364.31c.1.06.2.12.3.19a.7.7,0,0,1,.616.05.645.645,0,0,0,.275.06,13.081,13.081,0,0,1,1.738.37c.3.06.6.05.9.09.132.02.253.11.374.14.33.08.66.16.99.23s.671.11,1,.2a3.573,3.573,0,0,0,.8.05h.242c.429.08.847.18,1.265.26.385.08.781.15,1.177.22a.329.329,0,0,1,.143.02c.275.21.638.13.946.22a.2.2,0,0,0,.11.01,5.387,5.387,0,0,1,1.639.31,8.636,8.636,0,0,0,2.376.3.7.7,0,0,1,.506.1.676.676,0,0,0,.374.07,9.012,9.012,0,0,1,1.562.22,7.616,7.616,0,0,0,2.013.27.643.643,0,0,1,.275.02,2.278,2.278,0,0,0,.9.1,11.442,11.442,0,0,1,1.155.16,4.008,4.008,0,0,0,.979.09,5.614,5.614,0,0,1,.913.07c.066,0,.154.05.209.03a3.3,3.3,0,0,1,1.254.04c.319,0,.638-.01.946-.02a4.173,4.173,0,0,1,1.056.07,2.923,2.923,0,0,0,.726-.04c.066,0,.132-.06.2-.06.407.03.814.06,1.232.1.187.02.374.11.55-.06.055-.05.2-.04.3-.03.6.03,1.2.1,1.8.1.418,0,.836-.07,1.265-.1.242-.02.495-.03.737-.03a4.208,4.208,0,0,0,1.122-.06.4.4,0,0,1,.242,0,1.31,1.31,0,0,0,.759-.05,1.7,1.7,0,0,1,.451,0,3.293,3.293,0,0,0,.44.05,10.027,10.027,0,0,1,1.221-.09,3.039,3.039,0,0,0,.418-.07c.583-.04,1.166-.07,1.749-.12.22-.02.44-.07.66-.09.308-.02.6-.01.913-.02a1.812,1.812,0,0,0,.407-.03l.429-.09v-.54c-.143,0-.286.02-.429.02a6.391,6.391,0,0,0-.88.05c-.143.02-.3.03-.451.04-.11,0-.231.01-.33.01h-.308a.652.652,0,0,0-.165.02.059.059,0,0,0-.044.02.551.551,0,0,1-.176.08,1.112,1.112,0,0,1-.319.04h-.044l-.341.05c-.418.03-.836.06-1.265.07-.4.01-.792,0-1.177,0h-.693a.781.781,0,0,0-.22.02.271.271,0,0,0-.121.06c-.022.01-.033.02-.055.03a.929.929,0,0,1-.165.02h-.044l-.165.01c-.352.02-.7.03-1.067.04-.154,0-.319,0-.462-.01s-.341-.01-.506,0-.308.02-.462.03-.3.03-.451.03c-.836.02-1.683.04-2.508.05h-1.1a.857.857,0,0,1-.528-.08.3.3,0,0,0-.209-.01,3.314,3.314,0,0,1-.55.03,4.1,4.1,0,0,0-.6.04,3.12,3.12,0,0,1-.748.01,1.785,1.785,0,0,1-.231-.01c-.627-.03-1.144-.05-1.639-.09a1.3,1.3,0,0,1-.275-.04,2.206,2.206,0,0,0-.275-.05h-.627c-.715-.05-1.43-.11-2.134-.17-.572-.05-1.089-.09-1.606-.15-.1-.01-.209-.03-.308-.05a2.034,2.034,0,0,0-.242-.04c-.132-.02-.275-.03-.407-.05-.187-.02-.385-.04-.572-.07-.341-.06-.682-.11-1.012-.18-.275-.05-.561-.1-.847-.15-.11-.02-.22-.04-.319-.06a3.738,3.738,0,0,0-1-.1,1.5,1.5,0,0,1-.473-.07,1.742,1.742,0,0,0-.22-.05.943.943,0,0,1-.143-.03.79.79,0,0,0-.308-.04,1.883,1.883,0,0,1-1.023-.18,5.752,5.752,0,0,0-1.694-.32h-.121a1.068,1.068,0,0,0-.165-.02,1.944,1.944,0,0,1-.484-.07,5.3,5.3,0,0,0-1.2-.26l-.143-.02c-.11-.02-.231-.03-.341-.04a4.6,4.6,0,0,1-1.276-.28.507.507,0,0,0-.242-.03H270.4a2.925,2.925,0,0,1-1.023-.18,3.166,3.166,0,0,0-.682-.14c-.088-.01-.187-.02-.286-.04a.813.813,0,0,1-.154-.02.679.679,0,0,1-.2-.03l-1.122-.24h0l-.792-.17c-.363-.08-.726-.15-1.089-.23h0l-.418-.09H264.6a1.277,1.277,0,0,0-.748-.22,1.565,1.565,0,0,1-.572-.11,2.93,2.93,0,0,0-.979-.2.455.455,0,0,1-.44-.27.163.163,0,0,0-.088-.1.522.522,0,0,1-.352-.53.247.247,0,0,0-.121,0,.209.209,0,0,0-.121.11.209.209,0,0,1-.044.06l.077.07a.453.453,0,0,1,.132.15.179.179,0,0,1,.022.15.152.152,0,0,1-.1.08.405.405,0,0,1-.11,0h-.022a.2.2,0,0,1-.055-.02,4.6,4.6,0,0,0-.9-.25,3.428,3.428,0,0,1-1.078-.33,3.371,3.371,0,0,0-.561-.22,3.548,3.548,0,0,1-.352-.12c-.143-.05-.143-.07-.143-.26V9l.143-.01.253-.02.121.12.209.2.572-.35h.022l.693.27-.044-.3h.022a.237.237,0,0,1,.066-.02h0a.335.335,0,0,1,.121.02,2.105,2.105,0,0,0,.781.22c.11.02.22.03.33.06.165.04.33.09.495.14.121.04.242.08.374.12.165.04.341.08.517.11l.209.04.165.03c.11.02.209.04.308.06.33.09.66.19.979.29l.495.15a.492.492,0,0,0,.1.02,2.753,2.753,0,0,1,.9.16,3.759,3.759,0,0,0,.451.12c.121.02.242.04.363.05a1.635,1.635,0,0,1,.22.02,1.136,1.136,0,0,1,.2.04.729.729,0,0,1,.143.03l.253.04.22.04h.077s.1.03.143.05a1.794,1.794,0,0,0,.847.28,3.766,3.766,0,0,1,.462.09,2.821,2.821,0,0,0,.4.09l.077.02.077.02a.916.916,0,0,0,.231.03,4,4,0,0,1,1.287.13l.308.06.506.09c.473.07.935.17,1.4.28l.154.04a3.172,3.172,0,0,0,.759.15,3.012,3.012,0,0,1,.792.1c.22.07.462.13.7.19l.1.02a9.461,9.461,0,0,0,2.189.32,2.4,2.4,0,0,1,.539.07,2.393,2.393,0,0,0,.286.05c.121.02.242.03.363.05s.22.03.33.04l.2.03c.242.03.495.07.748.12s.473.1.7.15l.7.15a.9.9,0,0,0,.231.01h.176a2.542,2.542,0,0,1,.275.02,2.776,2.776,0,0,1,.7.1,1.992,1.992,0,0,0,.594.05h.352a8.85,8.85,0,0,0,1.771.23c.22.01.44.03.66.05h.066a7.279,7.279,0,0,1,1.32.03,7.475,7.475,0,0,0,1.419.02,2.439,2.439,0,0,1,.539.03,2.368,2.368,0,0,0,.264.03h.066a.266.266,0,0,0,.176,0h.022a2.954,2.954,0,0,1,1.221-.05,4.885,4.885,0,0,0,.539.04,1.175,1.175,0,0,0,.264-.02.7.7,0,0,0,.143-.02h.066a1.08,1.08,0,0,1,.253-.02c.22.01.44.03.66.04.418.03.847.06,1.265.07a3.953,3.953,0,0,0,.594-.04c.132-.02.275-.03.418-.04.319-.02.638-.02.946-.03h.462l.055-.01c.11,0,.22,0,.33-.01.165-.01.319-.03.473-.05a6.235,6.235,0,0,1,1.056-.06q.429.015.858,0c.176,0,.363-.01.539-.01a4.855,4.855,0,0,0,.847-.08c.165-.02.341-.05.517-.06a.143.143,0,0,0,.088-.02.51.51,0,0,1,.121-.02,5.191,5.191,0,0,0,1.045-.05c.231-.03.473-.05.7-.06a10.775,10.775,0,0,0,1.881-.17.81.81,0,0,1,.22,0h.066V0H239.358a4.608,4.608,0,0,1,.627.34Zm15.607,7.7a4.224,4.224,0,0,0,.88.27,2.155,2.155,0,0,1,.935.37,4.434,4.434,0,0,0,.407.24c-.022.24.1.51-.1.78a4.216,4.216,0,0,1-1.474-.48,2.848,2.848,0,0,0-.748-.2l-1.067-.29c.165-.12.319-.25.473-.38.143-.15-.044-.31-.022-.47a1.142,1.142,0,0,1,.726.16Z" transform="translate(23.538)" fill="#fff"/>
    </g>
  </g>
</svg>
