<svg xmlns="http://www.w3.org/2000/svg" xmlns:xlink="http://www.w3.org/1999/xlink" width="330" height="50" viewBox="0 0 330 50">
  <defs>
    <clipPath id="clip-ribbon1-2">
      <rect width="330" height="50"/>
    </clipPath>
  </defs>
  <g id="ribbon1-2" clip-path="url(#clip-ribbon1-2)">
    <g id="ribbon1-2-2" data-name="ribbon1-2" transform="translate(0 0)">
      <path id="Path_1" data-name="Path 1" d="M239.72,4.7h-.22a1.724,1.724,0,0,0,1.209.6l-.22-.2a6.5,6.5,0,0,0-.77-.4Z" transform="translate(24.337)" fill="#fff" fill-rule="evenodd"/>
      <path id="Path_2" data-name="Path 2" d="M237.229,3.2c-.44-.3-.879-.5-1.429-.8A2.291,2.291,0,0,0,237.229,3.2Z" transform="translate(23.962)" fill="#fff" fill-rule="evenodd"/>
      <path id="Path_3" data-name="Path 3" d="M257.6,12.7h0c0,.1.11.1.11.1l.11.1c0-.1,0-.1-.11-.2s-.11-.1-.11,0Z" transform="translate(26.27)" fill="#fff" fill-rule="evenodd"/>
      <path id="Path_4" data-name="Path 4" d="M239.5,4.6Z" transform="translate(24.335)" fill="#fff" fill-rule="evenodd"/>
      <path id="Path_5" data-name="Path 5" d="M239.2,4.5h0l.22.1c0-.1,0-.1-.11-.1Z" transform="translate(24.305)" fill="#fff" fill-rule="evenodd"/>
      <path id="Path_6" data-name="Path 6" d="M239.259,4.4a6.022,6.022,0,0,0-1.759-1A4.475,4.475,0,0,0,239.259,4.4Z" transform="translate(24.135)" fill="#fff" fill-rule="evenodd"/>
      <path id="Path_7" data-name="Path 7" d="M233.1.7a1.016,1.016,0,0,0,.66.4c-.11,0-.11-.1-.22-.1a.59.59,0,0,0-.44-.3Z" transform="translate(23.686)" fill="#fff" fill-rule="evenodd"/>
      <path id="Path_8" data-name="Path 8" d="M271.218,7.2c.22.2.22.5.33.8a.347.347,0,0,0,.11.3,1.584,1.584,0,0,0,.44.7c.11.3.33.5.44.8,0,.1.11.2.11.4,0,.1.11.2.11.4s.11.2.22.3c0,.1.11.1.11.1h0l.11.1v.4c0,.1.11.1.11.2v.1c.22.1.22.3.33.5h0c.22,0,.44.1.77.1v-.3a.1.1,0,0,1-.11-.1c0-.1-.11-.1-.11-.2h0a.341.341,0,0,1-.11-.2h0v-.1a.545.545,0,0,0-.33-.5.56.56,0,0,1-.11-.4v-.2a.837.837,0,0,0-.33-.6l-.11-.1a.833.833,0,0,0-.11-.5c0-.1-.11-.1-.11-.2h.11a.13.13,0,0,0,0-.2V8.7c0-.1,0-.1-.11-.2h-.11v.1h0a1.415,1.415,0,0,1-.33-1.3h-.11l-.11.1a.734.734,0,0,0-.22-.4V6.9c.11.1.22.1.22.2h0c0-.1-.11-.2-.11-.3s-.11-.2-.11-.3a.734.734,0,0,1-.22-.4h0v0h0c0-.1,0-.1-.11-.1h-.11c-.11-.1-.22-.2-.22-.3h0a.1.1,0,0,1,.11-.1c0-.1.11-.1.11-.1h0a.734.734,0,0,0-.22-.4l-.22-.2a.341.341,0,0,0-.11-.2c0-.1-.11-.2-.11-.3a2.7,2.7,0,0,1-.22-.9l.22.2a.729.729,0,0,0-.22-.5l-.11-.1h0a.1.1,0,0,0-.11-.1c0-.2-.11-.3-.11-.5V2.3c0-.1.11-.1.11-.2V2h-.33a3.384,3.384,0,0,0-.44-1.1.347.347,0,0,1-.11-.3.7.7,0,0,0-.11-.4V.1h0V0h-.77c0,.1.11.2.11.3a1.336,1.336,0,0,0,.22.6c.11.2.11.4.22.6,0,.1.11.1.11.2a2.183,2.183,0,0,1,.22.8c0,.1.11.2.11.3s.11.1.11.2.11.2.11.3h0a1.75,1.75,0,0,1,.22.8c0,.2.11.3.22.5,0,.1.11.2.11.3a.833.833,0,0,1,.11.5c0,.1.11.2.11.3h0c0,.1.11.2.11.3.11.2.22.3.11.5.22.2.33.3.33.5a.3.3,0,0,0-.11.2ZM272.757,9c-.22,0-.11-.2-.22-.4A.506.506,0,0,1,272.757,9Z" transform="translate(27.386)" fill="#fff" fill-rule="evenodd"/>
      <path id="Path_9" data-name="Path 9" d="M270.61,7.8l-.11.1a.347.347,0,0,0,.11.3h0c.11,0,.22,0,.22-.1.11-.1,0-.2-.11-.2h0c.11-.1,0-.1-.11-.1Z" transform="translate(27.555)" fill="#fff" fill-rule="evenodd"/>
      <path id="Path_10" data-name="Path 10" d="M244.2,7.2l.22.1h0c-.11-.1-.11-.1-.22-.1Z" transform="translate(24.944)" fill="#fff" fill-rule="evenodd"/>
      <path id="Path_11" data-name="Path 11" d="M233,.5a4.672,4.672,0,0,0-.769-.5h-.33A3.581,3.581,0,0,0,233,.5Z" transform="translate(23.565)" fill="#fff" fill-rule="evenodd"/>
      <path id="Path_12" data-name="Path 12" d="M234.2,1.4a.506.506,0,0,0,.22.4c.11,0,.22.1.33.2h0c.11,0,.11.1.22.1s.11.1.22.1h.11c-.22-.1-.44-.3-.66-.4-.11-.2-.33-.3-.44-.4Z" transform="translate(23.798)" fill="#fff" fill-rule="evenodd"/>
      <path id="Path_13" data-name="Path 13" d="M253.809,11.4A3.293,3.293,0,0,0,252.6,11,2.122,2.122,0,0,0,253.809,11.4Z" transform="translate(25.778)" fill="#fff" fill-rule="evenodd"/>
      <path id="Path_14" data-name="Path 14" d="M252.2,11.2h0v.1h0c.11-.1.11-.1,0-.1Z" transform="translate(25.738)" fill="#fff" fill-rule="evenodd"/>
      <path id="Path_15" data-name="Path 15" d="M252.42,11v-.1h-.22c.11,0,.11,0,.22.1Z" transform="translate(25.738)" fill="#fff" fill-rule="evenodd"/>
      <path id="Path_16" data-name="Path 16" d="M256.81,12.1a.723.723,0,0,0-.11.3.508.508,0,0,0,.33.1C257.14,12.3,257.03,12.2,256.81,12.1Z" transform="translate(26.185)" fill="#fff" fill-rule="evenodd"/>
      <path id="Path_17" data-name="Path 17" d="M256.61,12.7l-.11.1v.1c0,.1.11.1.11.1l.11.1c0-.1,0-.1.11-.1,0-.1.11-.1.11-.2s0-.1-.11-.1Z" transform="translate(26.165)" fill="#fff" fill-rule="evenodd"/>
      <path id="Path_18" data-name="Path 18" d="M247.6,8.8h0a1.182,1.182,0,0,0,.879.4,3.432,3.432,0,0,0-.879-.4Z" transform="translate(25.281)" fill="#fff" fill-rule="evenodd"/>
      <path id="Path_19" data-name="Path 19" d="M251.1,10.4h0c.22.3.55.3.879.4h.22v-.1h0v-.1h0a3.534,3.534,0,0,1-1.1-.2Z" transform="translate(25.629)" fill="#fff" fill-rule="evenodd"/>
      <path id="Path_20" data-name="Path 20" d="M246.93,8.5c-.11-.1-.22-.2-.33-.2C246.6,8.5,246.82,8.5,246.93,8.5Z" transform="translate(25.182)" fill="#fff" fill-rule="evenodd"/>
      <path id="Path_21" data-name="Path 21" d="M244.5,7.4h0c.11,0,.22.1.33.1a1.257,1.257,0,0,0,.66.2c-.11,0-.22-.1-.33-.2-.22,0-.33-.1-.66-.1Z" transform="translate(24.974)" fill="#fff" fill-rule="evenodd"/>
      <path id="Path_22" data-name="Path 22" d="M250.6,10.2h0c.11.1.11.1.22.1v-.1Z" transform="translate(25.579)" fill="#fff" fill-rule="evenodd"/>
      <path id="Path_23" data-name="Path 23" d="M248.9,9.5a.517.517,0,0,0,.55.1h.11a.1.1,0,0,1-.11-.1.43.43,0,0,0-.33-.1.357.357,0,0,1-.22.1Z" transform="translate(25.41)" fill="#fff" fill-rule="evenodd"/>
      <path id="Path_24" data-name="Path 24" d="M241.31,5.7c.11,0,.11.1.22.1s.22.1.33.1c.11.1.22.1.33.2s.22.1.33.2l.11.1c.33.2.66.3.989.5h0a.979.979,0,0,0,.77.1c-.11,0-.11-.1-.22-.1-.989-.5-1.979-1-2.968-1.4,0,.1,0,.2.11.2Z" transform="translate(24.646)" fill="#fff" fill-rule="evenodd"/>
      <path id="Path_25" data-name="Path 25" d="M276.5,18.5h0v.1h.11c0-.1,0-.1-.11-.1Z" transform="translate(28.15)" fill="#fff" fill-rule="evenodd"/>
      <path id="Path_26" data-name="Path 26" d="M284.7,26.5h0a.347.347,0,0,0,.11.3h0l-.11-.1v-.2Z" transform="translate(28.964)" fill="#fff" fill-rule="evenodd"/>
      <path id="Path_27" data-name="Path 27" d="M276.669,17.9h.22c0-.1,0-.2-.11-.2,0,0-.11,0-.11-.1h-.77v.1c0,.1,0,.1.11.2h.33a.43.43,0,0,1,.33.1v-.1Z" transform="translate(28.091)" fill="#fff" fill-rule="evenodd"/>
      <path id="Path_28" data-name="Path 28" d="M285.1,27.2c-.11.1,0,.2,0,.3s.11.1.22.2h0c0,.1.11.1.11.2.11.1.22.2.22.3h0a2.726,2.726,0,0,0,.55.6h0l.22.2h.22a5.628,5.628,0,0,1-.66-.8,2.4,2.4,0,0,0-.879-1Z" transform="translate(28.999)" fill="#fff" fill-rule="evenodd"/>
      <path id="Path_29" data-name="Path 29" d="M290.918,34.4c-.11-.1-.22-.3-.33-.4s-.11-.2-.22-.3a1.4,1.4,0,0,1-.33-.4,2.356,2.356,0,0,0-.66-.9c-.11-.2-.33-.3-.44-.5l-.33-.3h-.11v.1a1.4,1.4,0,0,0,.33.4l.11.1c.11.1.33.2.44.4l.11.1a13.01,13.01,0,0,0,1.1,1.5c.22.2.33.4.55.5h0l.11.1h.11v-.1a.1.1,0,0,0-.11-.1.852.852,0,0,1-.33-.2Z" transform="translate(29.341)" fill="#fff" fill-rule="evenodd"/>
      <path id="Path_30" data-name="Path 30" d="M287.5,30.2h0a3.862,3.862,0,0,0,.879,1.1,2.037,2.037,0,0,0-.66-.9A.227.227,0,0,1,287.5,30.2Z" transform="translate(29.242)" fill="#fff" fill-rule="evenodd"/>
      <path id="Path_31" data-name="Path 31" d="M272.52,13.4s.11,0,.11.1c0-.1,0-.2-.11-.2s-.11,0-.22.1Z" transform="translate(27.733)" fill="#fff" fill-rule="evenodd"/>
      <path id="Path_32" data-name="Path 32" d="M273.32,10.6h-.22a.1.1,0,0,0,.11.1c0,.1.11.1.22.2h.11v-.1c-.11-.1-.22-.1-.22-.2Z" transform="translate(27.813)" fill="#fff" fill-rule="evenodd"/>
      <path id="Path_33" data-name="Path 33" d="M273.6,11.4l.11.1h0c0,.1.11.1.11.2v-.1s0-.1-.22-.2Z" transform="translate(27.862)" fill="#fff" fill-rule="evenodd"/>
      <path id="Path_34" data-name="Path 34" d="M274.689,14h0l.22-.2c0-.1,0-.2-.11-.2h-.22v-.1h-.11a.712.712,0,0,1-.44-.1c-.11,0-.11,0-.22-.1h-.11v.1c0,.1,0,.1.11.2a1.59,1.59,0,0,1,.44.4Z" transform="translate(27.872)" fill="#fff" fill-rule="evenodd"/>
      <path id="Path_35" data-name="Path 35" d="M270.33,5.6h0c0-.2-.11-.2-.11-.2h-.11c-.11,0-.11.2-.11.2,0,.1.11.1.11.2h0a.227.227,0,0,0,.22-.2Z" transform="translate(27.505)" fill="#fff" fill-rule="evenodd"/>
      <path id="Path_36" data-name="Path 36" d="M274.507,10.9c.11.1.11.3.22.4,0,.1.11.1.11.2a1.351,1.351,0,0,1,.22.7.7.7,0,0,0,.11.4h0c.11,0,.22,0,.22.1h.33a5.825,5.825,0,0,0-.55-1.2c0-.1,0-.1-.11-.1h0c-.11-.3-.33-.5-.44-.8,0-.1-.11-.2-.11-.3-.11-.2-.11-.4-.33-.6,0-.1-.11-.1-.11-.2V9.3c0-.1-.11-.2-.11-.3-.11-.1-.11-.3-.22-.4-.11-.2-.11-.4-.22-.5,0-.1-.11-.3-.11-.4-.11-.2-.11-.4-.22-.6h0c-.11-.3-.22-.5-.33-.8-.11-.2-.11-.4-.22-.6a2.743,2.743,0,0,1-.33-1c0-.1-.11-.2-.11-.3s0-.1-.11-.2V4c0-.2-.11-.3-.11-.5-.11-.3-.22-.7-.33-1a.833.833,0,0,1-.11-.5,3.969,3.969,0,0,0-.44-1,.347.347,0,0,1-.11-.3V.6c0-.1,0-.1-.11-.2,0-.1-.11-.2-.11-.3H270c.11.2.11.5.33.7a1.6,1.6,0,0,1,.22.5v.1c0,.1.11.3.11.4a.347.347,0,0,0,.11.3.341.341,0,0,0,.11.2.341.341,0,0,0,.11.2c.11.2.11.4.22.6s.11.5.22.7a.734.734,0,0,0,.22.4h0c0,.1,0,.1.11.2a.341.341,0,0,0,.11.2c.11.2.11.3.22.5l.33.9h0c.11.3.22.5.33.8l.33.9c0,.1.11.2.11.3a.1.1,0,0,0,.11.1c.11.1.11.2.22.3s.11.3.22.4c.22.3.33.7.55,1a1.351,1.351,0,0,1,.22.7c-.11.2,0,.3,0,.4Z" transform="translate(27.505)" fill="#fff" fill-rule="evenodd"/>
      <path id="Path_37" data-name="Path 37" d="M272.24.1a5.29,5.29,0,0,1,.44,1.2,1.335,1.335,0,0,0,.22.6c.11.2.11.4.22.5a.734.734,0,0,0,.22.4v.4c0,.1.11.2.11.3v.1a3.4,3.4,0,0,0,.44.9h0c0,.1,0,.1.11.2,0,.1.11.2.11.4s.11.3.11.5c0,.1,0,.2.11.2,0,.1,0,.2.11.2,0,.2.11.3.22.5,0,.1.11.2.11.4a1.948,1.948,0,0,0,.44.8.1.1,0,0,0,.11.1v.1a1.6,1.6,0,0,1,.22.5,5.825,5.825,0,0,1,.55,1.2c0,.1.11.2.22.4a5.452,5.452,0,0,1,.55,1.4.729.729,0,0,0,.22.5.341.341,0,0,0,.11.2h0c.11.2.22.5.33.7.11,0,.33.1.44.1,0-.1-.11-.2-.11-.3a1.268,1.268,0,0,0-.33-.7c-.22-.2-.22-.6-.44-.9a2.161,2.161,0,0,0-.33-.5c0-.1-.11-.2-.11-.3-.11-.2-.11-.4-.22-.5a7.242,7.242,0,0,1-.66-1.3c0-.1-.11-.2-.22-.3-.11-.3-.33-.6-.44-.9a2.985,2.985,0,0,0-.33-.9c-.11-.4-.33-.8-.44-1.1a11.251,11.251,0,0,1-.55-1.1.833.833,0,0,1-.11-.5,5.825,5.825,0,0,0-.55-1.2,1.351,1.351,0,0,1-.22-.7c-.11-.2-.11-.5-.22-.7V.9a2.935,2.935,0,0,0-.55-1.2h-.33c.44.3.44.4.44.4Z" transform="translate(27.684)" fill="#fff" fill-rule="evenodd"/>
      <path id="Path_38" data-name="Path 38" d="M291.3,35.2a.341.341,0,0,1,.11.2c.11.1.11.2.22.3l.33.3.11.1h0a1.3,1.3,0,0,0-.77-.9c.11-.1,0-.1,0,0Z" transform="translate(29.619)" fill="#fff" fill-rule="evenodd"/>
      <path id="Path_39" data-name="Path 39" d="M301.787,43.2v-.7h0c-.33,0-.55-.3-.66-.4l-.989-.9-.22-.2a1.271,1.271,0,0,1-.55-.5,1.085,1.085,0,0,0-.55-.4,1.271,1.271,0,0,1-.55-.5l-.33-.3c-.33-.3-.55-.6-.879-.9-.11-.1-.11-.2-.22-.2a4.448,4.448,0,0,1-1.209-1.2c-.11-.2-.33-.3-.55-.5-.11-.1-.22-.1-.22-.2-.11-.3-.33-.4-.55-.6l-.22-.2a5.6,5.6,0,0,0-.77-.9c-.11-.2-.33-.3-.55-.5l-.33-.3a1.023,1.023,0,0,0-.44-.5,1.577,1.577,0,0,1-.66-.8c-.11-.2-.22-.3-.33-.5a6.712,6.712,0,0,1-.879-.9c-.11-.1-.22-.3-.33-.4a6.1,6.1,0,0,0-.77-1,4.006,4.006,0,0,1-.879-1c-.11-.2-.44-.4-.55-.6l-.22-.2a2.16,2.16,0,0,0-.33-.5c-.22-.3-.55-.5-.77-.8l-.66-.9c-.22-.4-.55-.7-.77-1.1a2.725,2.725,0,0,0-.55-.6,7.153,7.153,0,0,0-1.1-1.4c-.22-.3-.44-.5-.66-.8H282c.11.2.33.4.44.6a5.534,5.534,0,0,1,.55.8c.33.4.55.8.879,1.2.22.2.33.5.55.7a3.059,3.059,0,0,0,.55.7l.22.2.22.2c0,.1.11.1.11.2a2.088,2.088,0,0,1,.44.6,3.611,3.611,0,0,0,.77,1c.11.2.33.3.44.5a1.591,1.591,0,0,0,.44.4c.11,0,.11.1.22.2h0l.11.1c.22.3.55.6.77.9h0c.33.4.66.8.879,1.1.11.1.11.2.22.3l.11.1a12.222,12.222,0,0,1,1.1,1.4c.11.2.33.4.44.6.11.1.11.2.22.3a8.058,8.058,0,0,0,.989.9,1.4,1.4,0,0,1,.33.4.341.341,0,0,1,.11.2v.1a.1.1,0,0,0,.11.1,1.809,1.809,0,0,1,.55.7c.11.1.11.2.22.3.33.4.77.8,1.1,1.2a3.213,3.213,0,0,0,.879.8,5.926,5.926,0,0,1,.77.8c.11.1.22.3.33.4h0c.11.2.33.3.55.5.11.1.33.2.44.3.11.2.33.3.55.5.22.1.33.3.55.4a6.37,6.37,0,0,0,.879.8l.11.1c.11,0,.11.1.22.2l.33.3c.11.1.11.2.22.2l.11.1c0,.1.11.1.22.2h.11c.22-.3.33-.2.44-.2Z" transform="translate(28.696)" fill="#fff" fill-rule="evenodd"/>
      <path id="Path_40" data-name="Path 40" d="M270.01,7.6h-.11v.1l.11.1h0V7.6Z" transform="translate(27.495)" fill="#fff" fill-rule="evenodd"/>
      <path id="Path_41" data-name="Path 41" d="M270.4,8.3h0V8.1h0v.1c-.11,0,0,.1,0,.1Z" transform="translate(27.54)" fill="#fff" fill-rule="evenodd"/>
      <path id="Path_42" data-name="Path 42" d="M300.03,44.4h0v-.2c0-.1-.11-.1-.22-.2,0,0-.11,0-.11-.1h0c.11.2.22.3.33.5Z" transform="translate(30.453)" fill="#fff" fill-rule="evenodd"/>
      <path id="Path_43" data-name="Path 43" d="M292.62,36.7l-.22-.2h0a7.707,7.707,0,0,0,1.209,1.4s.11,0,.11.1h.11v-.2a12.041,12.041,0,0,1-1.209-1.1Z" transform="translate(29.728)" fill="#fff" fill-rule="evenodd"/>
      <path id="Path_44" data-name="Path 44" d="M293.7,38.1h0c.11.1.11.1.11.2h0c.11-.1,0-.1-.11-.2Z" transform="translate(29.858)" fill="#fff" fill-rule="evenodd"/>
      <path id="Path_45" data-name="Path 45" d="M296.618,40.8c-.22-.1-.33-.3-.55-.5a2.725,2.725,0,0,1-.55-.6c-.11-.1-.22-.2-.22-.3l-.11-.1a5.922,5.922,0,0,1-.77-.8s-.11,0-.11-.1h-.11l.11.1a7.1,7.1,0,0,1,1.209,1.3.824.824,0,0,0,.44.4,2.872,2.872,0,0,1,.66.5l.22.2c.11.1.22.2.33.2h0l.11.1h0v-.1c0-.1-.11-.1-.11-.2a.329.329,0,0,1-.55-.1Z" transform="translate(29.907)" fill="#fff" fill-rule="evenodd"/>
      <path id="Path_46" data-name="Path 46" d="M298.9,43.2c0,.2.11.3.44.5.11,0,.22.1.44.1a1.084,1.084,0,0,0-.55-.4c-.22,0-.33-.1-.33-.2Z" transform="translate(30.374)" fill="#fff" fill-rule="evenodd"/>
      <path id="Path_47" data-name="Path 47" d="M297.2,41.7a1.833,1.833,0,0,0,.879.9h0a2.454,2.454,0,0,0-.879-.9Z" transform="translate(30.205)" fill="#fff" fill-rule="evenodd"/>
      <path id="Path_48" data-name="Path 48" d="M291.41,38h-.11v.1h.22c-.11,0-.11,0-.11-.1Z" transform="translate(29.619)" fill="#fff" fill-rule="evenodd"/>
      <path id="Path_49" data-name="Path 49" d="M255.3,14.1h0c.11,0,.11,0,.33-.1-.11,0-.11-.1-.22,0-.11,0-.11,0-.11.1Z" transform="translate(26.046)" fill="#fff" fill-rule="evenodd"/>
      <path id="Path_50" data-name="Path 50" d="M252.8,13.1c.11.1.22.1.44.2h-.11a.313.313,0,0,0-.33-.2Z" transform="translate(25.798)" fill="#fff" fill-rule="evenodd"/>
      <path id="Path_51" data-name="Path 51" d="M254.614,13.8h0c0-.1-.11-.1-.11-.1v.1Z" transform="translate(25.962)" fill="#fff" fill-rule="evenodd"/>
      <path id="Path_52" data-name="Path 52" d="M261,15.7c.11,0,.11.1.22,0,0,0,.11,0,.11-.1h-.11a.357.357,0,0,0-.22.1Z" transform="translate(26.612)" fill="#fff" fill-rule="evenodd"/>
      <path id="Path_53" data-name="Path 53" d="M260.5,15.4h0c0,.1.11.1.22.1h.11v-.1Z" transform="translate(26.562)" fill="#fff" fill-rule="evenodd"/>
      <path id="Path_54" data-name="Path 54" d="M245.8,10.1h0l.11.1h0c.11,0,.11.1.22.1v-.1c-.22-.1-.22-.2-.33-.1Z" transform="translate(25.098)" fill="#fff" fill-rule="evenodd"/>
      <path id="Path_55" data-name="Path 55" d="M243.9,9.2h0l.11.1h0c0-.1,0-.1-.11-.1Z" transform="translate(24.914)" fill="#fff" fill-rule="evenodd"/>
      <path id="Path_56" data-name="Path 56" d="M242.3,8.4h0c0,.1.11.1.33.1-.11,0-.11,0-.33-.1.11.1.11,0,0,0Z" transform="translate(24.755)" fill="#fff" fill-rule="evenodd"/>
      <path id="Path_57" data-name="Path 57" d="M250,12h0l.11.1h.11A.4.4,0,0,0,250,12Z" transform="translate(25.52)" fill="#fff" fill-rule="evenodd"/>
      <path id="Path_58" data-name="Path 58" d="M262,15.7h0c.11.2.11.2.22.1,0,0,.11,0,.11-.1H262Z" transform="translate(26.711)" fill="#fff" fill-rule="evenodd"/>
      <path id="Path_59" data-name="Path 59" d="M244.92,9.7s-.11,0-.11.1h.22s.11,0,.11-.1h-.22Z" transform="translate(24.993)" fill="#fff" fill-rule="evenodd"/>
      <path id="Path_60" data-name="Path 60" d="M263.179,14c-.55-.1-1.209-.3-1.869-.4h-.11l.11.1c.11,0,.22.1.44.1a5.179,5.179,0,0,0,.55.1c.44.1.77.2,1.319.3h.11l.11-.1h0c-.33,0-.55,0-.66-.1Z" transform="translate(26.631)" fill="#fff" fill-rule="evenodd"/>
      <path id="Path_61" data-name="Path 61" d="M268.93,17.2h0c-.11-.1-.22-.1-.33-.2h0c0,.2.22.2.33.2Z" transform="translate(27.366)" fill="#fff" fill-rule="evenodd"/>
      <path id="Path_62" data-name="Path 62" d="M287.6,36.1l.22.2c0-.1,0-.1-.22-.2Z" transform="translate(29.252)" fill="#fff" fill-rule="evenodd"/>
      <path id="Path_63" data-name="Path 63" d="M286.8,34.7h0v.1h0v-.1Z" transform="translate(29.168)" fill="#fff" fill-rule="evenodd"/>
      <path id="Path_64" data-name="Path 64" d="M294,43.3c0,.1.11.2.22.3h.22a.771.771,0,0,0-.22-.3Z" transform="translate(29.887)" fill="#fff" fill-rule="evenodd"/>
      <path id="Path_65" data-name="Path 65" d="M296.449,42.8h0l.11.1h0c.33.1.44.3.66.6,0,.1.11.1.11.2l.11.1h.11l.22.2.33.3a.1.1,0,0,0,.11.1h.11a1.271,1.271,0,0,1,.55.5V45l.33.3c.11.1.33.1.44.2.22.2.44.3.55.4a1.4,1.4,0,0,1,.33.4h0l.11.1c.11.2.44.3.55.5a2.872,2.872,0,0,1,.66.5l.11.1h0v-.6h0a2.3,2.3,0,0,0-.879-.6h0a.227.227,0,0,1-.22-.2l-.11-.1-.33-.3h0l-.11-.1h0l.11-.1v-.1l-.11-.1h-.33a.824.824,0,0,1-.44-.4h0c0-.1-.11-.1-.22-.2h0l-.11-.1a.227.227,0,0,0-.22-.2h-.22l-.33-.3c-.11-.1-.33-.2-.33-.4v-.2c0-.1,0-.2-.11-.2h-.33s-.11,0-.11-.1h0c-.11-.1-.33-.2-.44-.3H297s-.11,0-.11-.1c-.11-.2-.33-.3-.44-.5h0c0-.1-.11-.1-.11-.2h0a1.511,1.511,0,0,1-.44-.3l-.33-.3c-.11-.1-.33-.2-.33-.4a.341.341,0,0,0-.11-.2h0c-.11-.1-.11-.1-.11-.2v-.1h-.11v.2h0a.3.3,0,0,0-.11-.2.341.341,0,0,0-.11-.2v-.1a.1.1,0,0,0-.11-.1h-.11c0-.2-.11-.2-.22-.3l-.11-.1h0a.341.341,0,0,1-.11-.2l-.11-.1a.824.824,0,0,0-.44-.4c-.11,0-.11-.1-.11-.2v-.1h0v-.1a1.271,1.271,0,0,0-.55-.5.1.1,0,0,1-.11.1.347.347,0,0,1-.11-.3c0-.1,0-.3-.22-.3a.1.1,0,0,1-.11.1v.1c-.11-.1-.11-.2-.22-.4-.11-.1-.11-.2-.22-.3h0l.22.2h0c-.11-.1-.11-.2-.22-.2h0s-.11,0-.11.1a3.052,3.052,0,0,1-.989-1c0-.1-.11-.1-.22-.2l-.11-.1h0c-.11,0-.11-.1-.11-.2-.11-.4-.44-.6-.66-.9l-.11-.1v-.1h.11s.11,0,.11-.1c0,0-.11,0-.11-.1l-.11-.1h-.11c-.22-.1-.22-.2-.33-.3a.734.734,0,0,1-.22-.4c-.22-.3-.44-.5-.55-.7l-.33-.3-.11-.1c.11-.1.11-.2,0-.4-.11-.1-.22-.3-.44-.3h-.11a.622.622,0,0,0-.44-.6c-.22-.1-.33-.3-.55-.5l.33.1h0v-.1l-.33-.3h-.22a.78.78,0,0,0-.33-.3h.22a.506.506,0,0,1-.22-.4l-.11-.1h0v.2c0-.1-.11-.1-.22-.2a1.4,1.4,0,0,1-.33-.4c0-.1-.11-.1-.22-.2l-.11-.1v-.2c-.11,0-.22,0-.22-.1a1.4,1.4,0,0,1-.33-.4.227.227,0,0,0-.22-.2l-.11-.1c-.11-.1-.22-.2-.11-.4,0-.1,0-.2-.11-.2h-.22c-.11,0-.11-.1-.22-.3,0-.1-.11-.1-.11-.2a1.023,1.023,0,0,0-.44-.5c-.11,0-.11-.1-.11-.2v-.1h0c-.33-.4-.77-.7-.879-1.2a.341.341,0,0,0-.11-.2l-.11-.1h.11c0-.1,0-.1-.11-.2h-.22v.1c-.11-.1-.22-.2-.22-.3s0-.2-.11-.2a.341.341,0,0,1-.11-.2c-.11-.1-.11-.3-.33-.4a.341.341,0,0,1-.11-.2v-.1s.11,0,.11-.1h0c0-.2-.22-.2-.33-.3H279.3c0,.1.11.1.11.2s.11.1.22.2l.11.1h0a.341.341,0,0,1,.11.2c0,.2.22.4.33.6,0,.1.11.1.11.2a1.4,1.4,0,0,1,.33.4c.11.1.22.2.22.3a.506.506,0,0,1,.22.4c0,.1.11.1.11.2h0c.11.1.11.2.22.3a4.69,4.69,0,0,1,.66.9h0a.1.1,0,0,0,.11.1c0,.1.11.1.22.2a2.234,2.234,0,0,0,.44.5,1.4,1.4,0,0,1,.33.4c0,.1.11.2.22.3s.11.2.22.3a1.513,1.513,0,0,0,.55.6s.11,0,.11.1h0a.545.545,0,0,0,.33.5h0a2.161,2.161,0,0,0,.33.5l.22.2.11.1a1.4,1.4,0,0,1,.33.4h0a2.158,2.158,0,0,1,.33.5c0,.1.11.1.11.1h0c.55.5.989,1,1.429,1.4h0l-.11.1v.1h0a1.833,1.833,0,0,1,.879.9h0a.341.341,0,0,1,.11.2h0v.1c.22.2.55.4.66.7.11.1.22.3.33.4a1.4,1.4,0,0,1,.33.4c.11.1.11.2.22.3a1.4,1.4,0,0,1,.33.4,17.984,17.984,0,0,0,1.319,1.4h0l.11.1a1.809,1.809,0,0,0,.55.7c.11.2.33.3.44.5h0c.11.1.11.2.22.3a1.8,1.8,0,0,0,.44.5h0c0,.1.11.1.11.2h0c0,.1.11.1.22.2,0,.1.11.1.22.2l.11.1h0l.22.2V41a.1.1,0,0,0,.11.1h.11c.11,0,.11.1.22.2.11.2.11.2.33.3h.11l.11.1c.22.2.33.4.55.6.11.1.22.3.33.4a1.4,1.4,0,0,0,.33.4c.11.1.22.2.33.2a1.271,1.271,0,0,1,.55.5c-1.1-1.2-.989-1-.769-1Zm-4.287-4.7h0l-.33-.3c.22,0,.22.1.33.3Z" transform="translate(28.428)" fill="#fff" fill-rule="evenodd"/>
      <path id="Path_66" data-name="Path 66" d="M293,42.4h0c.11.2.22.2.33.3-.11-.2-.11-.3-.22-.3Z" transform="translate(29.788)" fill="#fff" fill-rule="evenodd"/>
      <path id="Path_67" data-name="Path 67" d="M277.52,22.4c-.11,0-.22,0-.22.1v.1c0,.1.11.1.11.1h0c.11,0,.22,0,.22-.1.11,0,.11-.2-.11-.2Z" transform="translate(28.23)" fill="#fff" fill-rule="evenodd"/>
      <path id="Path_68" data-name="Path 68" d="M269.5,17.2a.406.406,0,0,0,.55.1h0a1.075,1.075,0,0,1-.55-.1Z" transform="translate(27.455)" fill="#fff" fill-rule="evenodd"/>
      <path id="Path_69" data-name="Path 69" d="M271.33,17.7l.33.1v-.1h0a.517.517,0,0,0-.55-.1h0s-.11,0-.11.1Z" transform="translate(27.604)" fill="#fff" fill-rule="evenodd"/>
      <path id="Path_70" data-name="Path 70" d="M229.6.9h0l.11.1c.11,0,.11.1.22.1h0C229.82.9,229.82.9,229.6.9Z" transform="translate(23.33)" fill="#fff" fill-rule="evenodd"/>
      <path id="Path_71" data-name="Path 71" d="M278.007,17.5h.22a.341.341,0,0,1-.11-.2v-.1h-.11c-.11,0-.22-.1-.44-.1h-.22a3.331,3.331,0,0,1-.989-.1c-.11,0-.22-.1-.33-.1a6.019,6.019,0,0,0-1.319-.2h-.11a1.768,1.768,0,0,1-.989-.2c-.22-.1-.55-.1-.879-.2h-.22a.712.712,0,0,1-.44-.1,4.248,4.248,0,0,1-1.1-.2c-.11,0-.22-.1-.33-.1h-.11a5.093,5.093,0,0,1-1.209-.2,2.042,2.042,0,0,0-.77-.1h-.44a.43.43,0,0,1-.33-.1c-.44-.1-.77-.2-1.319-.3a3.014,3.014,0,0,1-.77-.2,7.548,7.548,0,0,0-.77-.2c-.11,0-.33-.1-.44-.1s-.22-.1-.44-.1a5.18,5.18,0,0,1-.55-.1c-.22-.1-.44-.1-.66-.2-.11,0-.22-.1-.33-.1h-.11a.786.786,0,0,1-.66-.1c-.11,0-.11-.1-.22-.1-.33-.1-.66-.1-.989-.2h0c-.11,0-.33-.1-.44-.1h-.11c-.11,0-.11-.1-.22-.1a.713.713,0,0,0-.44-.1c-.22,0-.33,0-.44-.1,0,0-.11,0-.11-.1a.4.4,0,0,1-.22-.1c-.11,0-.22-.1-.33-.1h0c-.33-.1-.55-.2-.879-.3-.44-.1-.769-.2-1.1-.3h0c-.11-.1-.22-.1-.33-.2s-.22-.1-.33-.2l-.989-.3h0a1.075,1.075,0,0,0-.55-.1c-.11,0-.11,0-.11-.1h-.11l-.66-.3h0l-1.649-.6a2.438,2.438,0,0,1-.879-.5c-.11-.1-.11-.1-.22,0h-.11c-.11,0-.11-.1-.22-.1-.11-.1-.22-.1-.44-.2l-1.319-.6c-.11,0-.11,0-.11-.1h0a2.3,2.3,0,0,1-.879-.4.43.43,0,0,0-.33-.1l-.66-.3c-.11,0-.11-.1-.22-.1l-.11-.1a.43.43,0,0,0-.33-.1c-.11-.1-.33-.1-.44-.2-.22-.1-.33-.2-.55-.3a.591.591,0,0,0-.44-.2l-.66-.3h0c-.22-.1-.55-.3-.769-.4l-.66-.3a4.6,4.6,0,0,1-.989-.5c-.11-.1-.22-.1-.33-.2-.11,0-.11,0-.22-.1h-.11s-.11,0-.11-.1c-.11-.1-.33-.2-.44-.3l-.989-.6c-.11-.1-.33-.2-.44-.3a3.581,3.581,0,0,0-1.1-.5c-.11,0-.22-.1-.33-.1,0,0-.11,0-.11-.1-.11,0-.11-.1-.22-.1l-.66-.3c-.22-.1-.33-.2-.55-.3a.591.591,0,0,0-.44-.2h-.11c-.33-.2-.769-.4-1.1-.6a.591.591,0,0,0-.44-.2c-.22-.1-.33-.2-.55-.3a1.511,1.511,0,0,0-.44-.3c-.11-.1-.33-.2-.44-.3a.227.227,0,0,1-.22-.2c-.22-.1-.33-.3-.66-.3,0,0-.11,0-.11-.1h0l-.22-.2c-.11-.1-.33-.2-.44-.3H229.2a6.083,6.083,0,0,0,.879.6.357.357,0,0,0,.22.1c.11,0,.11.1.22.1.44.3.989.5,1.429.8,0,0,.11,0,.11.1,0,0,.11,0,.11.1a.1.1,0,0,1,.11.1.591.591,0,0,0,.44.2,3.357,3.357,0,0,1,.77.5c.11.1.11.1.22.1a10.716,10.716,0,0,1,1.869,1h.11a4.6,4.6,0,0,0,.989.5,2.459,2.459,0,0,1,.55.3l.11.1c.11.1.22.2.33.2.11.1.22.1.33.2s.11.1.22.1.11.1.22.1a2.33,2.33,0,0,1,.66.4,2.33,2.33,0,0,1,.66.4c.11.1.33.1.44.2h0c.11,0,.11.1.22.1s.11.1.22.1a.868.868,0,0,0,.44.2,6.258,6.258,0,0,1,.879.5h0c.22.1.55.3.769.4a6.762,6.762,0,0,0,.879.4c.11,0,.22.1.33.1s.11,0,.11.1c.11,0,.22.1.44.1.11.1.33.1.44.2a5.354,5.354,0,0,1,1.1.5l.66.3c.11.1.22.1.44.2.11.1.33.1.44.2.11,0,.11,0,.22.1.22.1.44.1.66.4.11.1.22.1.44.2a3.485,3.485,0,0,1,1.1.4c.11.1.33.1.44.2.11,0,.22.1.33.1a.4.4,0,0,1,.22.1h0a4.109,4.109,0,0,1,.989.4,4.109,4.109,0,0,0,.989.4h.55c.11,0,.33.1.44.1a3.485,3.485,0,0,0,1.1.4h.11c.22.1.44.1.66.2.11,0,.22.1.33.1h.11c.11,0,.22.1.33.1.22.1.44.1.66.2h0c.11,0,.22.1.33.1h.22c.44.1.879.2,1.209.3a6.273,6.273,0,0,0,1.319.3.885.885,0,0,1,.55.2c.11,0,.22.1.33.1s.22.1.33.1h.33a.43.43,0,0,1,.33.1c.22.1.44.1.66.2h0l.989.3c.11,0,.22.1.33.1a.43.43,0,0,1,.33.1,5.179,5.179,0,0,1,.55.1c.22.1.55.1.77.2a5.179,5.179,0,0,0,.55.1c.22,0,.33.1.55.1.11,0,.22.1.44.1.11,0,.11.1.22.1a.713.713,0,0,0,.44.1,8.265,8.265,0,0,0,1.429.2h.77l1.319.3a3.482,3.482,0,0,0,.989.2h0c.22.1.55.1.77.2h.22a3.807,3.807,0,0,1,1.539.3h0c.11,0,.22,0,.22.1.55.1.989.2,1.539.3a7.365,7.365,0,0,0,1.209.3Z" transform="translate(23.455)" fill="#fff" fill-rule="evenodd"/>
      <path id="Path_72" data-name="Path 72" d="M272.7,17.9h0c0,.1.11.1.11.1h0c.11-.1,0-.1-.11-.1Z" transform="translate(27.773)" fill="#fff" fill-rule="evenodd"/>
      <path id="Path_73" data-name="Path 73" d="M281.41,25.2h-.11l.11.1.11.1.11-.1-.22-.1Z" transform="translate(28.627)" fill="#fff" fill-rule="evenodd"/>
      <path id="Path_74" data-name="Path 74" d="M281.82,25.8h0l-.22-.2h0c0,.1.11.1.11.1,0,.1.11.1.11.1Z" transform="translate(28.656)" fill="#fff" fill-rule="evenodd"/>
      <path id="Path_75" data-name="Path 75" d="M286.3,31.7h0c-.11.2,0,.3.11.3h.11l-.11-.1c0-.1,0-.1-.11-.2Z" transform="translate(29.119)" fill="#fff" fill-rule="evenodd"/>
      <path id="Path_76" data-name="Path 76" d="M286.9,32.4c0,.2.11.3.33.4h0a1.4,1.4,0,0,1-.33-.4Z" transform="translate(29.183)" fill="#fff" fill-rule="evenodd"/>
      <path id="Path_77" data-name="Path 77" d="M282.2,26.4h0c0,.1,0,.2.11.2h.22l-.11-.1a.4.4,0,0,0-.22-.1Z" transform="translate(28.716)" fill="#fff" fill-rule="evenodd"/>
      <path id="Path_78" data-name="Path 78" d="M274.193,14.9h.22a8.909,8.909,0,0,1,1.759.4.713.713,0,0,0,.44.1,1.336,1.336,0,0,1-.22-.6h0c-.11,0-.11-.1-.22-.1-.22-.1-.44-.1-.55-.2a5.869,5.869,0,0,0-1.319-.1c-.22,0-.33-.1-.55-.1l-1.319-.3a6.02,6.02,0,0,1-1.319-.2,2.341,2.341,0,0,0-.879-.1.43.43,0,0,1-.33-.1,1.671,1.671,0,0,0-.66-.2c-.44,0-.77-.1-1.1-.1-.44-.1-.77-.2-1.1-.3l-1.319-.3a2.646,2.646,0,0,0-.879-.1c-.66-.1-1.209-.3-1.869-.4l-1.319-.3c-.44-.1-.77-.2-1.209-.3-.11,0-.11-.1-.22-.1s-.22-.1-.44-.1a.43.43,0,0,1-.33-.1c-.11-.1-.22-.1-.44-.2s-.33-.2-.22-.4v-.1c0-.1-.11-.1-.22,0s-.11.2-.22.3c-.66,0-1.1-.3-1.759-.3.11-.2.11-.3,0-.4s0-.2.22-.2c-.11-.1-.11-.3-.22-.4l-.44.4c0,.1.11.2.11.3h-.22c-.11,0-.33-.1-.44-.1a.4.4,0,0,1-.22-.1l-.11-.1a5.844,5.844,0,0,1-1.429-.4c-.66-.2-1.319-.5-1.979-.7-.11-.1-.33-.1-.44-.2a5.655,5.655,0,0,0-.77-.3c-.33,0-.66-.3-.879-.4a1.671,1.671,0,0,0-.66-.2c-.11,0-.22-.1-.33-.1-.22-.1-.33-.2-.55-.3a5.962,5.962,0,0,1-1.429-.6.43.43,0,0,0-.33-.1c-.33-.2-.66-.2-.989-.4-.22-.2-.66-.3-.879-.5-.44-.2-.769-.4-1.209-.6s-.769-.3-1.209-.5a1.511,1.511,0,0,0-.44-.3,12.4,12.4,0,0,1-1.209-.6l-.66-.3c-.22-.1-.44-.3-.66-.4h-.11a4.229,4.229,0,0,0-1.539-.7,6.5,6.5,0,0,1-.769-.4l-.22-.2c-.11-.1-.11-.1-.33-.1a.43.43,0,0,1-.33-.1,2.438,2.438,0,0,0-.879-.5,2.438,2.438,0,0,1-.879-.5c-.11-.1-.22-.1-.33-.2h-.55l.11.1c.11,0,.11.1.22.2l.11.1c.11.1.11.1.22.1s.11.1.22.1c.11.1.33.1.44.2h0a7.836,7.836,0,0,1,1.539,1,.1.1,0,0,1,.11.1h0a9.9,9.9,0,0,0,1.1.6,4.619,4.619,0,0,1,1.209.7,1.085,1.085,0,0,1,.55.4,2.46,2.46,0,0,1,.55.3c.11.1.33.1.44.2.11,0,.11.1.22.1a.1.1,0,0,1,.11.1.357.357,0,0,0,.22.1s.11,0,.11.1c.33.2.66.3.989.5h0c.11,0,.11.1.22.1.11.1.22.1.44.2.11.1.33.2.44.3.11,0,.11.1.22.1s.11.1.22.1c.11.1.33.2.44.3s.22.1.44.2a2.854,2.854,0,0,0,.989.4c.11,0,.11,0,.11.1h.11a1.971,1.971,0,0,0,.55.2l1.319.6c.11.1.22.1.44.2a9.413,9.413,0,0,1,1.429.7,1.971,1.971,0,0,0,.55.2c.11,0,.22.1.33.1h0c.33.2.769.3,1.1.5a1.229,1.229,0,0,0,.55.2h.11a1.41,1.41,0,0,1,.879.4l.11.1c.11.1.22.1.44.2h.11a.712.712,0,0,0,.44.1.4.4,0,0,1,.22.1h.33a.347.347,0,0,1,.44.1c.22.1.33.1.55.2.11,0,.22.1.33.1a.4.4,0,0,1,.22.1l.22.1.989.3h0c.11,0,.22.1.44.1v.1a.347.347,0,0,0,.11.3c0,.1.11.1.22.2l.11.1a.9.9,0,0,1-.44-.1c-.11,0-.11-.1-.22-.1s-.22-.1-.44-.1c-.11,0-.11,0-.22-.1a1.518,1.518,0,0,0-.66-.1c.22.2.55.2.769.3s.44.1.55.2c0,.1-.11.1-.11.2h0c0,.1-.11.1-.11.2a.43.43,0,0,0,.33.1h0c.11-.1.11-.2.22-.3h.33a.341.341,0,0,1,.11-.2l-.11-.3-.11-.3h.22a.341.341,0,0,1,.11.2.227.227,0,0,0,.22.2h.33c.11.2.22.2.22.2l.22-.2a1.518,1.518,0,0,0,.66.1h0c.44.1.989.2,1.429.3a3.482,3.482,0,0,0,.989.2c.55.1.989.3,1.539.4.33.1.66.1.989.2s.55.1.879.2h.879a2.194,2.194,0,0,1,.77.2,7.3,7.3,0,0,0,1.209.3c.22,0,.44.1.66.1s.33.1.55.1h.44a5.093,5.093,0,0,0,1.209.2h0c.55.1.989.2,1.539.3Z" transform="translate(23.862)" fill="#fff" fill-rule="evenodd"/>
      <path id="Path_79" data-name="Path 79" d="M261.1,13.7Z" transform="translate(26.621)" fill="#fff" fill-rule="evenodd"/>
      <path id="Path_80" data-name="Path 80" d="M261.159,13.6c-.11,0-.11,0-.22-.1-.11,0-.22-.1-.33-.1a3.482,3.482,0,0,0-.989-.2h0a3.163,3.163,0,0,1,1.319.3c0,.1.11.1.22.1,0,.1.11.1.11.1l-.11-.1Z" transform="translate(26.453)" fill="#fff" fill-rule="evenodd"/>
      <path id="Path_81" data-name="Path 81" d="M263.9,14.2h0a.357.357,0,0,0,.22.1h-.11l-.11-.1Z" transform="translate(26.899)" fill="#fff" fill-rule="evenodd"/>
      <path id="Path_82" data-name="Path 82" d="M268.5,15.2a5.819,5.819,0,0,0,1.539.3,2.384,2.384,0,0,0-1.209-.3Z" transform="translate(27.356)" fill="#fff" fill-rule="evenodd"/>
      <path id="Path_83" data-name="Path 83" d="M264.7,14.4c0,.2.11.2.22.2s.22,0,.22.1h.22c.11,0,.33.1.44.1h0a2.042,2.042,0,0,0,.77.1h.44s.11,0,.11-.1c-.33-.1-.66-.1-.989-.2-.33,0-.879-.2-1.429-.2Z" transform="translate(26.979)" fill="#fff" fill-rule="evenodd"/>
      <path id="Path_84" data-name="Path 84" d="M288.9,35h0a.3.3,0,0,0,.11.2h0c0-.1,0-.1-.11-.2Z" transform="translate(29.381)" fill="#fff" fill-rule="evenodd"/>
      <path id="Path_85" data-name="Path 85" d="M287.91,33.7h-.11l.22.2.22.2h.11A.824.824,0,0,0,287.91,33.7Z" transform="translate(29.272)" fill="#fff" fill-rule="evenodd"/>
      <path id="Path_86" data-name="Path 86" d="M279.906,13.3h0a.43.43,0,0,1,.33.1c0-.1-.11-.2-.11-.3l-.11-.1c-.22.1-.22.2-.11.3Z" transform="translate(28.481)" fill="#fff" fill-rule="evenodd"/>
      <path id="Path_87" data-name="Path 87" d="M296.079,40.8a1.512,1.512,0,0,0,.44.3c.11.1.22.2.33.2a4.877,4.877,0,0,1,.77.7l1.1,1c.22.2.55.4.77.6.11.1.33.2.44.3l.11.1.11.1.11.1c.11.1.22.2.33.2a4.673,4.673,0,0,1,.77.5l.66.6c.11,0,.11.1.22.2v-.2a1.512,1.512,0,0,0-.44-.3h-.11s-.11,0-.11-.1c0-.2-.11-.2-.22-.3,0,0-.11,0-.11-.1-.55-.4-1.319-1-2.089-1.6l-.22-.2a4.687,4.687,0,0,0-.77-.6.1.1,0,0,0-.11-.1v-.1c-.11-.2-.33-.3-.55-.5a1.271,1.271,0,0,1-.55-.5l-.22-.2a1075.583,1075.583,0,0,0-.22-.2l-.55-.5h0l-.22-.2h0c-.11-.3-.44-.5-.66-.7l-.55-.5c-.11-.1-.22-.2-.22-.3-.11-.1-.11-.2-.22-.3l-.11-.1c0-.1-.11-.1-.11-.2h0c-.22-.2-.44-.3-.55-.6l-.11-.1h-.11l-.11-.1-.44-.4c-.11-.1-.11-.2-.22-.2a3.582,3.582,0,0,0-.879-.9,1.4,1.4,0,0,1-.33-.4c-.11-.1-.11-.2-.22-.3v-.1a.1.1,0,0,0-.11-.1,2.1,2.1,0,0,1-.66-.7c0-.1-.11-.2-.22-.3a3.174,3.174,0,0,0-.77-.9l-.11-.1h0a4.5,4.5,0,0,1-.66-.7,2.725,2.725,0,0,0-.55-.6.341.341,0,0,1-.11-.2l-.33-.3a2.442,2.442,0,0,1-.66-.8.227.227,0,0,0-.22-.2h0v-.1a7.185,7.185,0,0,1-.77-.9,2.726,2.726,0,0,0-.55-.6c-.11-.1-.22-.2-.22-.3h0l-.22-.2a6.1,6.1,0,0,0-.77-1c-.11-.2-.33-.4-.44-.6a2.089,2.089,0,0,0-.44-.6c-.11-.1-.22-.2-.22-.3-.11-.1-.11-.2-.22-.3a2.157,2.157,0,0,1-.33-.5,2.089,2.089,0,0,0-.44-.6c0-.1-.11-.2-.22-.3h0a1.59,1.59,0,0,1-.44-.4c0-.1-.11-.1-.11-.2a2.16,2.16,0,0,1-.55-.8h0c-.11-.1-.22-.2-.22-.3h0v-.1c0-.1,0-.1-.11-.2,0-.1,0-.1-.11-.2h-.44a3.611,3.611,0,0,0,.77,1,2.158,2.158,0,0,1,.33.5c0,.1.11.2.22.3s.11.2.22.2l.11.1.11.1h0c.11.1.11.2.22.3a2.161,2.161,0,0,0,.33.5h0c.22.3.33.5.55.8.11.1.11.2.22.3l.22.2a2.158,2.158,0,0,1,.33.5c.11.2.33.4.44.6a1.4,1.4,0,0,1,.33.4c.11.2.22.2.33.4.11.1.11.2.22.3,0,.1.11.1.11.2.11.1.11.2.22.4a9.375,9.375,0,0,0,.989,1l.22.2.11.1h0l.11.1c.33.4.55.7.77,1a3.475,3.475,0,0,1,.55.8h0c.11.2.33.4.44.6,0,.1.11.1.22.2a4.938,4.938,0,0,1,.989,1.1h0c0,.1.11.1.11.2a10.907,10.907,0,0,0,.989,1.1c.11.2.33.3.44.5.33.1.44.4.66.6a.227.227,0,0,0,.22.2c.22.3.44.5.66.8.22.2.33.4.55.6.11.2.22.3.33.5a1.4,1.4,0,0,0,.33.4l.33.3.11.1h0l.33.3h0c.33.3.55.6.879.9a1.4,1.4,0,0,1,.33.4.458.458,0,0,1,.44.3Z" transform="translate(28.468)" fill="#fff" fill-rule="evenodd"/>
      <path id="Path_88" data-name="Path 88" d="M273.8.3h0a3.384,3.384,0,0,0,.44,1.1,4.6,4.6,0,0,0,.44,1.1l.33.9c.11.2.11.3.22.5s.11.5.22.6a.341.341,0,0,1,.11.2,4.155,4.155,0,0,0,.55,1.5c0,.2.11.3.11.5v.1c.33.2.33.6.55.9.11.3.33.6.44.9l.33.6a.56.56,0,0,1,.11.4.729.729,0,0,0,.22.5c.22.2.22.4.33.6a1.2,1.2,0,0,0,.44.8,3.4,3.4,0,0,1,.44.9c0,.1.11.2.22.3,0,.1.11.1.11.1,0,.2.11.3.22.5h.11a1.3,1.3,0,0,0,.55.1h0c0-.1-.11-.2-.22-.4-.11-.1-.11-.2-.22-.4a.341.341,0,0,0-.11-.2c0-.1,0-.1-.11-.2,0-.1-.11-.2-.11-.3a.341.341,0,0,0-.11-.2c-.11-.2-.11-.4-.22-.5,0-.1-.11-.2-.11-.3s-.11-.1-.11-.2c-.11-.1-.11-.3-.22-.5,0-.1-.11-.1-.11-.2a.56.56,0,0,1-.11-.4.341.341,0,0,0-.11-.2c0-.1-.11-.1-.11-.2-.11-.3-.33-.7-.44-1a.734.734,0,0,0-.22-.4V7.7h0a8.912,8.912,0,0,1-.66-1.5,6.514,6.514,0,0,0-.33-.8,5.824,5.824,0,0,0-.55-1.2c-.11-.2-.11-.4-.22-.6,0-.1-.11-.2-.11-.4a.1.1,0,0,0-.11-.1V3c0-.1-.11-.2-.11-.3V2.5c0-.1-.11-.2-.11-.3-.11-.2-.11-.4-.22-.6V1.1L274.9.2V.1h-.879c-.22,0-.11.1-.22.2Z" transform="translate(27.882)" fill="#fff" fill-rule="evenodd"/>
      <path id="Path_89" data-name="Path 89" d="M251.61,7.5a.43.43,0,0,0,.33.1h.11s.11,0,.11-.1V7.3a.313.313,0,0,0-.33-.2h-.11c-.33.2-.22.3-.11.4Z" transform="translate(25.668)" fill="#fff" fill-rule="evenodd"/>
      <path id="Path_90" data-name="Path 90" d="M294,41h0l.11.1h0L294,41Z" transform="translate(29.887)" fill="#fff" fill-rule="evenodd"/>
      <path id="Path_91" data-name="Path 91" d="M272.907,9.5h0c-.11,0-.11.1,0,0v.1h0V9.5Z" transform="translate(27.785)" fill="#fff" fill-rule="evenodd"/>
      <path id="Path_92" data-name="Path 92" d="M236.014,0c.22.1.33.2.55.3.44.2.769.5,1.209.7l.66.3c.22.1.44.1.44.3h0a9.9,9.9,0,0,0,1.1.6c.33.2.77.4,1.1.6s.66.3.989.5c.11.1.33.1.44.2.22.1.33.3.66.3.11,0,.11,0,.11.1a10.256,10.256,0,0,0,1.429.8.868.868,0,0,0,.44.2h.11a1.717,1.717,0,0,1,.989.4,4.109,4.109,0,0,1,.989.4l.66.3c.11.1.33.1.44.3a.885.885,0,0,0,.55.2.989.989,0,0,1,.66.3,2.3,2.3,0,0,0,.879.4c.33.1.66.3.989.4.11,0,.22.1.33.1s.11,0,.11.1a2.854,2.854,0,0,0,.989.4c.11.1.22.1.33.2a3.485,3.485,0,0,0,1.1.4c.44,0,.66.3.989.4a1.518,1.518,0,0,0,.66.1c.33.1.55.1.769.4h.33a1.671,1.671,0,0,0,.66.2v.4c.44.1.44.1.44-.3.22.1.44.1.55.2a6.635,6.635,0,0,1,1.319.4c.11.1.33.1.44.3a2.341,2.341,0,0,0-.879-.1c0,.4,0,.5.44.6.11,0,.22.1.33.1a.722.722,0,0,0,.879-.3c.11-.1.11-.1.33-.1s.33.1.55.1a5.017,5.017,0,0,1,1.319.3c.11,0,.22.1.33.2a.555.555,0,0,1,.66.1.4.4,0,0,1,.22.1,14.8,14.8,0,0,1,1.759.4,2.646,2.646,0,0,0,.879.1c.11,0,.22.1.33.1a3.482,3.482,0,0,0,.989.2,3.482,3.482,0,0,1,.989.2c.22.1.55,0,.77.1h.22c.44.1.879.2,1.209.3.44.1.77.1,1.209.2h.11c.22.2.66.1.989.2h.11a3.534,3.534,0,0,1,1.1.2h0c0-.1-.11-.1-.11-.1a1.581,1.581,0,0,1-.33-.6h0c-.22,0-.55-.1-.77-.1h-.22a.712.712,0,0,1-.44-.1c-.44-.1-.77-.2-1.209-.3h-.44a6.275,6.275,0,0,1-1.319-.3h-.33a2.845,2.845,0,0,1-.989-.2,1.519,1.519,0,0,0-.66-.1h-.66a4.247,4.247,0,0,0-1.1-.2h0c-.22-.1-.55-.1-.77-.2-.33-.1-.77-.1-1.1-.2h0c-.11,0-.22-.1-.44-.1h0a.992.992,0,0,0-.77-.2.891.891,0,0,1-.55-.1,3.482,3.482,0,0,0-.989-.2.59.59,0,0,1-.44-.3.1.1,0,0,0-.11-.1,2.463,2.463,0,0,1-.22-1h-.11l-.11.1v.1a.1.1,0,0,0,.11.1c0,.1.11.1.11.1V10a.1.1,0,0,1-.11.1h-.11a2.8,2.8,0,0,0-.879-.2,4.5,4.5,0,0,1-1.1-.3c-.22-.1-.33-.1-.55-.2-.11,0-.22-.1-.33-.1-.11-.1-.11-.1-.11-.3h.33l.11.1.22.2a1.912,1.912,0,0,0,.55-.4h0l.66.3V8.9h.22a2.194,2.194,0,0,0,.77.2.43.43,0,0,1,.33.1,5.178,5.178,0,0,0,.55.1c.11,0,.22.1.33.1a5.179,5.179,0,0,0,.55.1h.33a.43.43,0,0,1,.33.1l.989.3a.891.891,0,0,0,.55.1h.11a2.236,2.236,0,0,1,.879.2.712.712,0,0,0,.44.1.43.43,0,0,1,.33.1h1.209a2.229,2.229,0,0,0,.879.3.713.713,0,0,1,.44.1c.11,0,.22.1.44.1h.44a2.962,2.962,0,0,1,1.319.1.43.43,0,0,1,.33.1,5.179,5.179,0,0,0,.55.1c.44.1.989.2,1.429.3h.11a2.042,2.042,0,0,0,.77.1h.33c-.11-.1-.11-.3-.22-.4s-.11-.3-.22-.4c0-.1-.11-.2-.22-.4,0-.1-.11-.1-.11-.2a.1.1,0,0,0-.11-.1c0-.1-.11-.2-.11-.3a1.26,1.26,0,0,0-.33-.8,3.4,3.4,0,0,1-.44-.9V8c-.11-.2-.11-.4-.22-.6,0-.1,0-.2-.11-.2h0V7c0-.2-.11-.3-.33-.5a.73.73,0,0,1-.22-.5c0-.1,0-.2-.11-.2q.33,0,.33-.3l-.11-.1a.43.43,0,0,0-.33.1h0a3.989,3.989,0,0,0-.11-.5V4.9c0-.1-.11-.2-.11-.3-.11-.2-.11-.4-.22-.6a2.983,2.983,0,0,1-.33-.9,2.473,2.473,0,0,0-.33-.8c-.22-.4-.33-.8-.55-1.2a1.167,1.167,0,0,1-.11-.6V.4c0-.2-.11-.3-.11-.5h-30.12c.11.1.22.1.33.2a1.511,1.511,0,0,0,.44.3s.11,0,.11.1c.11.1.22.1.44.2a4.919,4.919,0,0,0,.769.4h0a.868.868,0,0,0,.44.2l.11.1c.55.3,1.209.6,1.869.9.11.1.33.2.44.3l.66.3h0a7.7,7.7,0,0,0,1.319.6c.11,0,.22.1.33.2.11,0,.11.1.22.1l.66.3c.11.1.33.1.44.2l.66.3a.227.227,0,0,1,.22.2l.11.1s.11,0,.11.1c.11.1.11.1.22.1a1.727,1.727,0,0,1,.769.3c.11,0,.11.1.22.1,0,0,.11,0,.11.1.11.1.22.1.33.2a8.059,8.059,0,0,1,.879.3.357.357,0,0,0,.22.1h.11a2.194,2.194,0,0,1,.769.2.885.885,0,0,0,.55.2.868.868,0,0,1,.44.2c.11,0,.11.1.22.1-.11.2-.22.4-.11.5a.591.591,0,0,0,.44.2h.11l.11.1h-.44c-.22,0-.44.1-.66-.1a5.655,5.655,0,0,0-.77-.3c-.11-.1-.33-.1-.44-.2-.11,0-.11-.1-.22-.1s-.11-.1-.22-.1-.22-.1-.33-.1a.4.4,0,0,1-.22-.1,2.458,2.458,0,0,1-.55-.3.4.4,0,0,1-.22-.1c-.11,0-.11-.1-.22-.1a.868.868,0,0,0-.44-.2c-.11,0-.11-.1-.22-.1-.11-.1-.33-.1-.44-.2a.357.357,0,0,0-.22-.1c-.11,0-.11,0-.22-.1-.33-.2-.66-.3-.989-.5-.11-.1-.33-.1-.44-.2h-.11c-.55-.2-1.1-.5-1.539-.7a2.3,2.3,0,0,0-.879-.4c-.44-.2-.769-.4-1.209-.6l-.66-.3c-.11-.1-.22-.1-.33-.2,0,0-.11,0-.11-.1h-.11c-.11-.1-.22-.1-.33-.2l-1.1-.1h-.11a.4.4,0,0,1-.22-.1,2.33,2.33,0,0,1-.66-.4.1.1,0,0,1-.11-.1.1.1,0,0,1-.11-.1h-.11c-.33-.2-.66-.4-.879-.5-.11,0-.11-.1-.22-.1s-.11-.1-.22-.1c-.11-.1-.22-.1-.33-.2a9.9,9.9,0,0,0-1.1-.6h-1.429Zm18.8,8.2c.11-.1,0-.3,0-.5.33-.1.44.1.769.2s.55.2.879.3a4.109,4.109,0,0,1,.989.4c.11.1.22.1.44.2a1.088,1.088,0,0,1-.11.8,3.436,3.436,0,0,1-1.429-.5,7.548,7.548,0,0,0-.769-.2c-.33-.1-.66-.2-1.1-.3,0-.2.22-.3.33-.4Z" transform="translate(24.116)" fill="#fff" fill-rule="evenodd"/>
      <path id="Path_93" data-name="Path 93" d="M291.8,38.5h0a1.4,1.4,0,0,0,.33.4h.22l-.11-.1h0a1.512,1.512,0,0,1-.44-.3Z" transform="translate(29.669)" fill="#fff" fill-rule="evenodd"/>
      <path id="Path_94" data-name="Path 94" d="M293.4,40.4l.22.2c0-.1,0-.2-.11-.2Z" transform="translate(29.828)" fill="#fff" fill-rule="evenodd"/>
      <path id="Path_95" data-name="Path 95" d="M277.93,16.1h0c0-.2-.11-.3-.11-.5h-.22c.11.1.11.2.22.3,0,.1,0,.1.11.2Z" transform="translate(28.259)" fill="#fff" fill-rule="evenodd"/>
      <path id="Path_96" data-name="Path 96" d="M272.314,8.2c0-.1,0-.1-.11-.2V7.9h0C272.094,8,272.2,8.1,272.314,8.2Z" transform="translate(27.719)" fill="#fff" fill-rule="evenodd"/>
      <path id="Path_97" data-name="Path 97" d="M281.76,17.3c-.11.1-.11.1-.33.1,0-.1-.11-.1-.11-.2h-.22c0,.1.11.1.11.2h.77v-.2c0,.1-.11.1-.22.1Z" transform="translate(28.607)" fill="#fff" fill-rule="evenodd"/>
      <path id="Path_98" data-name="Path 98" d="M283.3,17.5a2.006,2.006,0,0,0,1.319.1v-.1Z" transform="translate(28.825)" fill="#fff" fill-rule="evenodd"/>
      <path id="Path_99" data-name="Path 99" d="M283.52,18.4h-.22a.3.3,0,0,0,.11.2c0-.1,0-.1.11-.2Z" transform="translate(28.825)" fill="#fff" fill-rule="evenodd"/>
      <path id="Path_100" data-name="Path 100" d="M273.42,15.6c0-.1,0-.1-.11-.2,0,.1-.11.1-.11.1h0c.11,0,.11,0,.22.1Z" transform="translate(27.823)" fill="#fff" fill-rule="evenodd"/>
      <path id="Path_101" data-name="Path 101" d="M278.05,17.9h0a.43.43,0,0,0-.33-.1h-.22c0,.1.11.1.11.2a.1.1,0,0,0,.11.1v.1h.55c-.11-.2-.22-.2-.22-.3Z" transform="translate(28.249)" fill="#fff" fill-rule="evenodd"/>
      <path id="Path_102" data-name="Path 102" d="M283,24.2Z" transform="translate(28.795)" fill="#fff" fill-rule="evenodd"/>
      <path id="Path_103" data-name="Path 103" d="M273.71,15.6h0Z" transform="translate(27.862)" fill="#fff" fill-rule="evenodd"/>
      <path id="Path_104" data-name="Path 104" d="M283,24.4c.11.1.11.2.22.3a1.4,1.4,0,0,1,.33.4c.22.3.44.6.77,1a.1.1,0,0,0,.11.1h.11c-.11-.1-.11-.2-.22-.3a12.218,12.218,0,0,0-1.1-1.4l-.11-.1h0c-.11-.1-.11,0-.11,0Z" transform="translate(28.795)" fill="#fff" fill-rule="evenodd"/>
      <path id="Path_105" data-name="Path 105" d="M299.959,16.9h0c-.55,0-1.1.1-1.649.1h-.11v.1h.989a4.519,4.519,0,0,0,1.1-.1v-.1Z" transform="translate(30.304)" fill="#fff" fill-rule="evenodd"/>
      <path id="Path_106" data-name="Path 106" d="M275.75,16.6h0a.885.885,0,0,0-.55-.2l.11.1h.22a.357.357,0,0,0,.22.1Z" transform="translate(28.021)" fill="#fff" fill-rule="evenodd"/>
      <path id="Path_107" data-name="Path 107" d="M279.71,19.5a.43.43,0,0,1,.33.1.341.341,0,0,1-.11-.2c0-.1-.11-.1-.11-.2v-.1h-.22a.506.506,0,0,1,.22.4Z" transform="translate(28.458)" fill="#fff" fill-rule="evenodd"/>
      <path id="Path_108" data-name="Path 108" d="M281.2,18.2h0c.11.1.22.2.33,0h-.33Z" transform="translate(28.617)" fill="#fff" fill-rule="evenodd"/>
      <path id="Path_109" data-name="Path 109" d="M283.7,19.9h.22a.341.341,0,0,1,.11-.2.1.1,0,0,0-.11-.1h-.22v.3Z" transform="translate(28.865)" fill="#fff" fill-rule="evenodd"/>
      <path id="Path_110" data-name="Path 110" d="M283.5,19.9a2.088,2.088,0,0,0-.44-.6h-.11s-.11,0-.11.1h-.44c.11.1.11.2.22.3v.1a1.351,1.351,0,0,1,.879.1c-.11-.1,0-.1,0,0Z" transform="translate(28.736)" fill="#fff" fill-rule="evenodd"/>
      <path id="Path_111" data-name="Path 111" d="M279.507,17.2h0a5.18,5.18,0,0,1,.55.1l.11-.1q-.495-.15-.66,0c-.11-.1-.11,0,0,0Z" transform="translate(28.441)" fill="#fff" fill-rule="evenodd"/>
      <path id="Path_112" data-name="Path 112" d="M282.22,19.5c-.11.1-.22.2-.22.3h.44c0-.1-.11-.2-.22-.3Z" transform="translate(28.696)" fill="#fff" fill-rule="evenodd"/>
      <path id="Path_113" data-name="Path 113" d="M284.55,22.7a.823.823,0,0,1,.44.4c0,.1.11.1.11.2.44.4.66.9,1.1,1.3l.66.6c.11.1.11.2.22.3a3.475,3.475,0,0,1,.55.8c.11.3.44.5.55.8.11.2.44.3.55.5a.4.4,0,0,0,.22.1,8.688,8.688,0,0,1,.77,1,5.6,5.6,0,0,0,.769.9l.11.1c0,.3.44.5.55.7a.1.1,0,0,0,.11.1,5.46,5.46,0,0,1,.989,1.2,7.655,7.655,0,0,0,1.539,1.7,1.4,1.4,0,0,1,.33.4c0,.1.11.2.22.3a4.938,4.938,0,0,1,.989,1.1,8.329,8.329,0,0,0,1.319,1.4c.11,0,.11.1.22.2.11.3.44.4.55.6a5.924,5.924,0,0,1,.77.8c.22.2.44.5.66.7l.66.6.11.1c.44.1.55.5.879.8a1.978,1.978,0,0,0,.769.5c.11.1.22.2.33.2v-.7h0c-.44-.4-.879-.7-1.209-1l-.22-.2c0-.1-.11-.1-.22-.2l-.22-.2-.22-.2-1.539-1.4a10.362,10.362,0,0,1-1.1-1.1c-.11-.1-.11-.2-.22-.2,0-.1-.11-.1-.11-.2-.11-.1-.22-.2-.22-.3-.11-.1-.22-.3-.33-.4-.22-.2-.44-.5-.66-.7h0c-.22-.2-.33-.4-.55-.6-.11-.1-.11-.2-.22-.2-.22-.2-.44-.5-.66-.7l-.33-.3c0-.1-.11-.1-.11-.2a.1.1,0,0,0-.11-.1.227.227,0,0,0-.22-.2,1.577,1.577,0,0,1-.66-.8,4.2,4.2,0,0,0-1.1-1.3l-.11-.1-.11-.1a1.4,1.4,0,0,1-.33-.4l-.66-.9a.1.1,0,0,0-.11-.1c-.11-.1-.11-.2-.22-.2a3.612,3.612,0,0,1-.769-1c0-.1-.11-.1-.11-.2h0a1.577,1.577,0,0,1-.66-.8,1.023,1.023,0,0,0-.44-.5l-.22-.2-.11-.1-.11-.1-.66-.9h0c-.11-.2-.33-.4-.44-.6-.22-.3-.44-.5-.66-.8h0c-.11-.1-.11-.2-.22-.3h0c0-.3-.22-.4-.44-.6l-.33-.3H284a4.272,4.272,0,0,1,.55.7q0,.15,0,.3Z" transform="translate(28.895)" fill="#fff" fill-rule="evenodd"/>
      <path id="Path_114" data-name="Path 114" d="M281.91,22.9a3.612,3.612,0,0,1,.77,1,.227.227,0,0,0,.22.2l.11.1h0v-.1c0-.1-.11-.1-.11-.2-.11-.1-.11-.2-.22-.3a3.475,3.475,0,0,0-.55-.8c0-.1-.11-.1-.22-.2h-.11v.1c.11.1.11.1.11.2Z" transform="translate(28.676)" fill="#fff" fill-rule="evenodd"/>
      <path id="Path_115" data-name="Path 115" d="M282,20.8Z" transform="translate(28.696)" fill="#fff" fill-rule="evenodd"/>
      <path id="Path_116" data-name="Path 116" d="M278.62,17.1h0c-.11-.1-.11-.1-.22-.1h0v.1h.22Z" transform="translate(28.339)" fill="#fff" fill-rule="evenodd"/>
      <path id="Path_117" data-name="Path 117" d="M276.869,15.8h0c-.11-.1-.11-.2-.22-.4h-.55a1.6,1.6,0,0,1,.22.5h.55c.11.1.11,0,0-.1Z" transform="translate(28.11)" fill="#fff" fill-rule="evenodd"/>
      <path id="Path_118" data-name="Path 118" d="M275.61,15.7h0c-.11-.1-.11,0-.11,0h.11v.1h.11l-.11-.1Z" transform="translate(28.051)" fill="#fff" fill-rule="evenodd"/>
      <path id="Path_119" data-name="Path 119" d="M241.1,9.7h0a.357.357,0,0,0,.22.1h0l-.11-.1Z" transform="translate(24.636)" fill="#fff" fill-rule="evenodd"/>
      <path id="Path_120" data-name="Path 120" d="M240.52,9.8V9.5h-.11a.1.1,0,0,0-.11.1v.1a.357.357,0,0,0,.22.1Z" transform="translate(24.557)" fill="#fff" fill-rule="evenodd"/>
      <path id="Path_121" data-name="Path 121" d="M239.1,8.2h.22c.11-.1.11-.1.11-.3V7.8c-.11,0-.22-.1-.22,0,0,0-.11,0-.11.1v.3Z" transform="translate(24.295)" fill="#fff" fill-rule="evenodd"/>
      <path id="Path_122" data-name="Path 122" d="M236.64,7.8h0c.11-.2.11-.4.22-.6h-.11s-.11,0-.11.1a.1.1,0,0,1-.11.1.1.1,0,0,1-.11.1h-.11c-.11,0-.11.1-.11.2a1.881,1.881,0,0,0,.44.1Z" transform="translate(24.001)" fill="#fff" fill-rule="evenodd"/>
      <path id="Path_123" data-name="Path 123" d="M241.42,9.6h0c.11,0,.22-.1.11-.2,0-.1-.11-.1-.22-.1h0a.1.1,0,0,0-.11.1v.2c0,.1.11.1.22,0Z" transform="translate(24.646)" fill="#fff" fill-rule="evenodd"/>
      <path id="Path_124" data-name="Path 124" d="M270.9,19.1h0c0,.1.11.1,0,0Z" transform="translate(27.594)" fill="#fff" fill-rule="evenodd"/>
      <path id="Path_125" data-name="Path 125" d="M255.91,15.8h0a.347.347,0,0,0-.11.3.1.1,0,0,0,.11.1h.22c.11,0,.11-.2.11-.3a.43.43,0,0,0-.33-.1Z" transform="translate(26.095)" fill="#fff" fill-rule="evenodd"/>
      <path id="Path_126" data-name="Path 126" d="M300,44.4Z" transform="translate(30.483)" fill="#fff" fill-rule="evenodd"/>
      <path id="Path_127" data-name="Path 127" d="M232.9,5.7h0c0,.2.11.2.22.2h0a.1.1,0,0,0,.11-.1V5.7c0-.1-.11-.1-.22-.1h0s-.11,0-.11.1Z" transform="translate(23.665)" fill="#fff" fill-rule="evenodd"/>
      <path id="Path_128" data-name="Path 128" d="M272.83,19.6a.357.357,0,0,0-.22-.1h-.11c.11,0,.11,0,.33.1Z" transform="translate(27.753)" fill="#fff" fill-rule="evenodd"/>
      <path id="Path_129" data-name="Path 129" d="M246.33,12.3c-.11-.1-.11-.1-.22-.1a.3.3,0,0,1-.11.2h.11c.11,0,.11-.1.22-.1Z" transform="translate(25.123)" fill="#fff" fill-rule="evenodd"/>
      <path id="Path_130" data-name="Path 130" d="M251.56,13.5h0l-.11.1c0,.1,0,.1-.11.2h-.44c0,.1,0,.1.11.1,0,.1.11.2.11.3.11.2.33.2.55.2,0,0,.11,0,.11-.1.11,0,.11-.1.11-.2A.1.1,0,0,1,252,14h.11c.11,0,.11.1.22.1s.11.1.22,0c0,0,.11,0,.11-.1a.178.178,0,0,0,0-.3,10.36,10.36,0,0,0-1.1-.2Zm.11.9c-.11,0-.11-.1-.22-.1a.1.1,0,0,1,.11-.1c.11,0,.11.1.22.1C251.779,14.3,251.669,14.3,251.669,14.4Z" transform="translate(25.609)" fill="#fff" fill-rule="evenodd"/>
      <path id="Path_131" data-name="Path 131" d="M270.632,15.8h.11a.891.891,0,0,1,.55.1.357.357,0,0,1,.22.1,14.338,14.338,0,0,0,1.979.5,1.519,1.519,0,0,1,.66.1v-.2h-.11a.891.891,0,0,1-.55-.1h-.33a1.075,1.075,0,0,1-.55-.1,2.277,2.277,0,0,0-1.1-.3c-.22,0-.44-.1-.66-.1a.712.712,0,0,1-.44-.1h-.11v.1c-.11-.1.11-.1.33,0Z" transform="translate(27.532)" fill="#fff" fill-rule="evenodd"/>
      <path id="Path_132" data-name="Path 132" d="M277.36,19.3h.22c0-.1-.11-.2-.22-.3a.341.341,0,0,1-.11-.2h-.11c-.11,0-.22-.1-.44-.1h0a.1.1,0,0,0,.11.1c0,.1.11.2.11.3v.1h.11a.43.43,0,0,0,.33.1Z" transform="translate(28.17)" fill="#fff" fill-rule="evenodd"/>
      <path id="Path_133" data-name="Path 133" d="M300.478,15.8h-.22a1.693,1.693,0,0,0-.989.1h-.11a19.565,19.565,0,0,1-2.418.1h-1.319c-.11,0-.33.1-.44.1h-1.759a6.8,6.8,0,0,0-1.429,0h-1.649a4.047,4.047,0,0,1-1.1,0,2.962,2.962,0,0,1-1.319-.1h-.22a1.669,1.669,0,0,1-.989,0h-.11c-.22.2-.55.1-.879.1A6.876,6.876,0,0,1,284.1,16h-.33a2.042,2.042,0,0,1-.77-.1.763.763,0,0,0-.66,0h-.44c0,.1.11.2.11.4v.2h1.429a5.4,5.4,0,0,0,1.209.1H286.3c.22-.1.44,0,.66,0h2.308a2.989,2.989,0,0,1,.879.1,9.155,9.155,0,0,0,1.759-.1h.77a6.876,6.876,0,0,0,1.429-.1h1.869c.55,0,.989-.1,1.539-.1h1.209c.66,0,1.319-.1,1.979-.1h.55a1.3,1.3,0,0,0,.55-.1h0v-.6h-.11a4.3,4.3,0,0,0-1.209.2Z" transform="translate(28.686)" fill="#fff" fill-rule="evenodd"/>
      <path id="Path_134" data-name="Path 134" d="M268.314,3.7h0c.22-.1.33-.2.55-.3h-.55c-.11,0-.11,0-.11.1-.11.1,0,.1.11.2Z" transform="translate(27.322)" fill="#fff" fill-rule="evenodd"/>
      <path id="Path_135" data-name="Path 135" d="M278.77,19.5h.11a2.158,2.158,0,0,1-.33-.5h-.44s-.11,0-.11.1h0c.11.1.11.2.22.3,0,.1.11.1.11.2a.9.9,0,0,1,.44-.1Z" transform="translate(28.299)" fill="#fff" fill-rule="evenodd"/>
      <path id="Path_136" data-name="Path 136" d="M275.55.3V.4c0,.1.11.3.11.4.11.2.11.5.22.7h0a3.989,3.989,0,0,1,.11.5v.2c.22.6.55,1.2.77,1.8,0,.2.11.3.11.5.11.2.11.4.22.6h0c.22.4.33.9.55,1.3a.347.347,0,0,1,.11.3c0,.1,0,.1.11.2a4.649,4.649,0,0,1,.33.7c.11.1.11.3.22.4l.33.6c0,.1.11.2.11.3v.2c0,.1,0,.2.11.2a.872.872,0,0,1,.33.7v.3c0,.1.11.2.11.3a1.948,1.948,0,0,1,.44.8c0,.1.11.2.11.3v.2a.837.837,0,0,1,.33.6c.11.2.11.3.22.5.11.1.11.3.22.4,0,.1,0,.1.11.2.33,0,.55.1.879.1a1.519,1.519,0,0,1,.66.1h0a5.819,5.819,0,0,1,1.319,0,6.826,6.826,0,0,0,1.429,0h1.1a2.463,2.463,0,0,1,1.209,0h1.869c.44,0,.879.1,1.209.1h2.748a.713.713,0,0,0,.44-.1c.33,0,.66-.1,1.1-.1h1.429a2.646,2.646,0,0,0,.879-.1,5.179,5.179,0,0,1,.55-.1h.22a4.519,4.519,0,0,0,1.1-.1c.22,0,.44-.1.66-.1a5.957,5.957,0,0,0,1.869-.2h.44V0H275c.549.1.549.2.549.3Z" transform="translate(28.001)" fill="#fff" fill-rule="evenodd"/>
      <path id="Path_137" data-name="Path 137" d="M0,50H330.483v-.3c-.11-.1-.22-.2-.33-.2h-.11a2.878,2.878,0,0,0-.661-.5s-.11,0-.11-.1c-.22-.2-.551-.4-.771-.6a1.917,1.917,0,0,1-.551-.4h0l-.11-.1a8.071,8.071,0,0,0-.991-.9c-.22-.1-.33-.3-.551-.4a.4.4,0,0,0-.22-.1s-.11,0-.11-.1l-.11-.1a1.273,1.273,0,0,1-.551-.5c-.11-.1-.33-.2-.441-.4a2.8,2.8,0,0,1-.771-.8.825.825,0,0,1-.441-.4.341.341,0,0,1-.11-.2l-.551-.5-.661-.6a2.235,2.235,0,0,1-.441-.5c-.11-.1-.11-.2-.22-.2a.1.1,0,0,0-.11-.1c-.11-.1-.11-.2-.22-.2a7.669,7.669,0,0,1-1.652-1.6l-.11-.1-.11-.1c-.11-.1-.22-.2-.22-.3h0a.341.341,0,0,1-.11-.2c0-.1-.11-.1-.11-.1-.11-.1-.22-.2-.22-.3-.11-.2-.33-.3-.441-.5a5.63,5.63,0,0,1-.661-.8.1.1,0,0,0-.11-.1,4.882,4.882,0,0,1-.771-.7c-.22-.2-.441-.5-.661-.7l-.11-.1v-.1c0-.1-.11-.1-.11-.2-.11-.1-.22-.2-.22-.3-.11-.1-.11-.2-.22-.3,0-.1-.11-.2-.22-.3a.1.1,0,0,0-.11-.1c-.11-.1-.22-.3-.33-.4a3.268,3.268,0,0,1-.551-.6c-.11-.1-.11-.2-.22-.3l-.11-.1a.341.341,0,0,1-.11-.2h0c-.11-.1-.22-.2-.22-.3-.11-.1-.11-.2-.22-.2a.341.341,0,0,0-.11-.2c-.22-.2-.33-.4-.551-.6-.11-.1-.11-.2-.22-.2a1.4,1.4,0,0,1-.33-.4c-.11-.2-.33-.4-.441-.6h0c-.11-.1-.22-.3-.33-.4,0-.1-.11-.1-.11-.2h0c-.22-.3-.551-.7-.771-1a1.4,1.4,0,0,1-.33-.4,1.4,1.4,0,0,1-.33-.4c-.441-.6-.881-1.1-1.322-1.7l-.11-.2a.341.341,0,0,1-.11-.2.1.1,0,0,0-.11-.1,1.8,1.8,0,0,0-.441-.5l-.661-.9c-.11-.1-.22-.3-.33-.4a3.475,3.475,0,0,1-.551-.8c-.11-.1-.22-.3-.33-.4l-.22-.2c0-.1-.11-.1-.11-.2a.1.1,0,0,0-.11-.1c-.11-.1-.11-.2-.22-.3h0c-.22-.3-.441-.7-.661-1a.341.341,0,0,0-.11-.2c0-.1-.11-.1-.11-.2-.11-.2-.22-.3-.22-.4h0l-.11-.1c-.22,0-.441-.1-.661-.1a3.5,3.5,0,0,1-.991-.2h-.11a4.114,4.114,0,0,1-1.1-.1,3.345,3.345,0,0,0-.991-.1h-.551c-.11,0-.33-.1-.441-.1s-.22-.1-.33-.1-.22-.1-.33-.1h-.11c-.11,0-.33-.1-.441-.1a3,3,0,0,1-.881-.1.9.9,0,0,1-.441-.1h-.331a.9.9,0,0,1-.441-.1,2785046345540.681,2785046345540.681,0,0,1-.661-.2c-.33,0-.551-.1-.881-.1h-.33a1.3,1.3,0,0,1-.551-.1,2.2,2.2,0,0,1-.771-.2h0a5.2,5.2,0,0,0-.551-.1h-.22l-1.322-.3a1.3,1.3,0,0,1-.551-.1,1.08,1.08,0,0,1-.551-.1,19.122,19.122,0,0,1-2.313-.5h-.22c-.11,0-.11,0-.22-.1a.359.359,0,0,1-.22-.1c-.22,0-.441-.1-.661-.1-.33-.1-.771-.1-1.1-.2-.22,0-.33-.1-.551-.1a3.753,3.753,0,0,1-.991-.3.894.894,0,0,0-.551-.1h-.33c-.11,0-.22,0-.22-.1h-.11c-.11,0-.22-.1-.33-.1h-.22a5.733,5.733,0,0,1-1.212-.4.4.4,0,0,1-.22-.1c-.11,0-.11,0-.22-.1a.9.9,0,0,0-.441-.1h0a.715.715,0,0,0-.441-.1,1.677,1.677,0,0,1-.661-.2h0c-.11-.1-.11-.1-.33-.1,0,0-.11,0-.11-.1-.11-.1-.22-.3-.33-.4h0c0-.1-.11-.1-.11-.1h-.22v.1c0,.1-.11.1-.11.2a.225.225,0,0,1-.33-.2c0-.1-.11-.1-.11-.2l-.11.1-.11.1c-.11,0-.22-.1-.33-.1h0c-.22-.1-.551-.2-.771-.3-.11,0-.11-.1-.22-.2h0v-.1a.1.1,0,0,1,.11-.1h.11c.11-.1.22-.1.22-.3s-.11-.2-.22-.3c0,0-.11,0-.11-.1h-.22c0,.1,0,.1-.11.2h0c0,.1-.11.2-.11.3-.22-.1-.33-.2-.22-.3h0v-.2c.11-.1.11-.3.331-.4v-.1h0c.11,0,.11-.1.22-.1s.22-.1.33-.1h.11a5.2,5.2,0,0,0,.551.1h0s.11,0,.11.1a.863.863,0,0,0,.661.2c.11,0,.11,0,.22.1h0c.11,0,.11.1.22.1.11.1.22.1.33.2.22.1.441.1.661.2.11,0,.22,0,.22.1h.22c.11,0,.22.1.331.1a1.677,1.677,0,0,0,.661.2c.11,0,.22,0,.22.1a1.254,1.254,0,0,1,.771.3,1.677,1.677,0,0,1,.661.2.4.4,0,0,1,.22.1h.551c.11,0,.11,0,.22.1a1.942,1.942,0,0,0,.661.3c.11,0,.11,0,.22.1a5.2,5.2,0,0,0,.551.1.9.9,0,0,1,.441.1c.11,0,.33.1.441.1a.4.4,0,0,1,.22.1h0c.11,0,.22.1.33.1a3.478,3.478,0,0,1,1.1.3h0s.11,0,.11.1a.432.432,0,0,1,.33.1,1.784,1.784,0,0,0,.771.1c.22,0,.33.1.441.1s.22.1.33.1.22.1.33.1a1.275,1.275,0,0,0,.881.1h.11a1.233,1.233,0,0,0,.551.2h0c.22.1.441.1.661.2h.551c.11,0,.33.1.441.1h0c.22,0,.441,0,.551.2h.22a13.4,13.4,0,0,1,2.093.2h0v.2h0a2.975,2.975,0,0,1,1.322.1h0c.11,0,.11,0,.22.1h.11a3.345,3.345,0,0,1,.991.1c.22,0,.33.1.551.1a5.2,5.2,0,0,0,.551.1c.11,0,.22.1.441.1a5.2,5.2,0,0,0,.551.1,13.325,13.325,0,0,0,1.983.2h.11c.33.1.661.1.991.2h.22v-.1h0l-.22-.2h-.11c-.11,0-.11.1-.22.1-.22-.1-.11-.2-.11-.3h-.22c-.11,0-.22-.1-.441-.1h.22v-.1h-.22v.1a4.394,4.394,0,0,1-1.542-.2h-.771a4.218,4.218,0,0,0-1.212-.3h-.441v-.2h-.991c-.11,0-.33-.1-.441-.1-.33-.1-.661-.1-.991-.2h-.661c0-.2-.11-.2-.33-.3-.22,0-.33-.1-.551,0,0,0-.11,0-.11.1a1.713,1.713,0,0,0-.771-.2,2.355,2.355,0,0,1-.771-.1l.33-.1H291.6l-.11.1-.11.1h-.441l.11-.2c-.11,0-.33-.1-.441-.1h-.11v.1l.11.1.11.1h-.22a1.08,1.08,0,0,1-.551-.1.432.432,0,0,1-.33-.1h-.22l-.11-.1-.11-.1a.359.359,0,0,1-.22.1c-.22,0-.33,0-.441-.1a.432.432,0,0,0-.33-.1h-.11a.871.871,0,0,1-.441-.2c0-.1-.11-.1-.22-.1h-.11l-.11.1a.432.432,0,0,1-.33-.1c-.11,0-.11,0-.22-.1a1.525,1.525,0,0,0-.661-.1c-.11,0-.22,0-.22-.1v-.2h0a6.913,6.913,0,0,1-1.542-.3c-.11,0-.22-.1-.33-.1h-.11v-.1c-.11-.1-.11-.1-.22-.1a.4.4,0,0,1-.22.1l.11.1a.715.715,0,0,1-.441-.1c0-.1-.22-.1-.22-.1-.11,0-.11,0-.22-.1a.9.9,0,0,0-.551-.1c-.11,0-.11,0-.22-.1,0,0-.11,0-.11-.1s0-.1.11-.1h0a.361.361,0,0,0-.441,0h-.441c-.11,0-.22-.1-.33-.1h-.11v-.1h0v-.1a1.78,1.78,0,0,1-.991-.1.432.432,0,0,0-.33-.1h-.22c-.11-.2-.33-.2-.441-.3-.11,0-.22,0-.22-.1a1.677,1.677,0,0,0-.661-.2h-.11c-.11,0-.22,0-.22-.1,0,0,.11,0,.11-.1h.11c-.11-.1-.11-.1-.22-.1h-.11c-.11,0-.22-.1-.33-.1s-.11,0-.11-.1c0,.1.11.1.11.1h0l.11.1h-.331c-.11,0-.11,0-.11-.1a.432.432,0,0,0-.33-.1l-.22-.2c-.11-.2-.11-.2-.33-.2a.8.8,0,0,1-.881-.3h-.22a.432.432,0,0,1-.331-.1h-.11c-.11,0-.11-.1-.22-.1,0,0-.11,0-.11-.1v-.1h0c0-.1,0-.1-.11-.2l-.11.2-.11.1c-.11,0-.11-.1-.22-.1h0c-.11,0-.11-.1-.22-.1v-.3c0-.1-.11-.1-.22-.1h-.22a.432.432,0,0,0-.33-.1.871.871,0,0,1-.441-.2h-.11c-.11,0-.22-.1-.33-.2,0-.1-.11-.1-.11-.1H271c-.11,0-.11-.1-.22,0h-.11a.4.4,0,0,0-.22-.1h0l-.11-.1a1.261,1.261,0,0,0-.661-.2.593.593,0,0,1-.441-.2h-.11c-.11,0-.11,0-.11-.1-.11-.2-.331-.2-.661-.2h-.11c-.11-.2-.22-.2-.441-.3-.11,0-.11,0-.22-.1h.11c0-.1-.11-.1-.11-.2h-.11c-.11,0-.11-.1-.22-.1,0,0-.11,0-.11.1v.1h0a1.5,1.5,0,0,1-1.212-.8h-.11v.2c-.11-.1-.22-.1-.441-.2h.22a.359.359,0,0,0-.22-.1c-.11-.1-.22-.1-.33-.2a.593.593,0,0,1-.441-.2h0s-.11-.1-.11,0l-.11.1h0V7.9h0a.593.593,0,0,0-.441-.2c-.22,0-.22,0-.22-.1a.4.4,0,0,1-.22-.1,1.187,1.187,0,0,0-.33-.1,2.645,2.645,0,0,1-.881-.6h.331c-.22-.8-.441-.8-.551-.9h-.331a.871.871,0,0,0-.441-.2.1.1,0,0,1-.11-.1.346.346,0,0,0-.11-.3V5.2l-.22.2-.11.1a3.265,3.265,0,0,0-1.212-.6.227.227,0,0,1-.22-.2c-.11-.1-.22-.2-.331-.2h-.11c-.11-.1-.33-.2-.441-.3h0c0-.1,0-.2-.11-.2H258v.1h0a.432.432,0,0,1-.33-.1c-.11,0-.11-.1-.22-.1V3.7h-.11v.1h0l-.11.1c-.11-.1-.22-.2-.33-.2h.22c-.11-.1-.11-.1-.22-.1h-.11v.1h0a.593.593,0,0,0-.441-.2c-.11,0-.22-.1-.331-.2l.22-.1h0s-.11,0-.11-.1c-.11,0-.22-.1-.33-.1,0,0-.11,0-.11.1l-.11-.1h0l-.11-.1a.459.459,0,0,1-.441-.3c-.11-.1-.11-.3-.441-.2h0c-.11,0-.11,0-.22-.1,0,0-.11,0-.11-.1,0,0,.11,0,.11-.1s.11,0,.11,0a.814.814,0,0,0-.661-.3,1.677,1.677,0,0,1-.661-.2,1.515,1.515,0,0,1-.441-.3h0l-.22-.2h-.22V.8a.1.1,0,0,0-.11-.1h0l-.11-.1h0c-.11-.1-.22-.2-.33-.2s-.11-.1-.22-.1c0,0-.11,0-.11-.1V.1h-1.322c.22.2.551.3.771.5l.991.6c.11.1.33.2.441.3.11,0,.11.1.22.2l.11.1a2.336,2.336,0,0,0,.661.4c.11.1.22.1.33.2a.1.1,0,0,1,.11.1s.11,0,.11.1h.11l.11.1a1.233,1.233,0,0,1,.551.2s.11,0,.11.1c.22.1.441.3.661.4l.11.1h.11a.593.593,0,0,1,.441.2s.11,0,.11.1c.11.1.22.2.33.2a4.122,4.122,0,0,1,.991.4c.11.1.22.1.33.2.22.1.441.3.661.4s.33.2.551.3l.661.3c.11,0,.11.1.22.1a1.982,1.982,0,0,1,.771.5c.11.1.22.1.33.2.11,0,.11.1.22.1a.4.4,0,0,1,.22.1h0a1.279,1.279,0,0,1,.771.5.871.871,0,0,0,.441.2c.11,0,.22.1.33.1.11.1.33.2.441.3s.22.1.33.2h0c.11.1.22.1.331.2.22.1.441.1.441.3a1.677,1.677,0,0,1,.661.2l.11.1a1.826,1.826,0,0,1,.771.4.358.358,0,0,0,.22.1c.22.1.551.2.771.3a2.307,2.307,0,0,1,.881.4c.11.1.22.1.33.2s.22.1.33.2.22.1.441.1h.22c.11,0,.11,0,.11.1.11.1.11.2.33.2.11,0,.11.1.22.1H270a1.677,1.677,0,0,1,.661.2c.11.1.22.1.33.2h.11a2.336,2.336,0,0,1,.661.4c0,.1.11.1.22.1a1.493,1.493,0,0,1,1.1.4l-.11.1-.11.1a.591.591,0,0,0,.441.3s.11,0,.11.1h.11a.1.1,0,0,0,.11-.1l.11-.1a.1.1,0,0,1,.11-.1v.3c0,.2,0,.4.331.4-.11.1-.11.2-.22.2a.432.432,0,0,1-.33-.1c-.11,0-.11-.1-.11,0s-.11.1-.11.1l.11.1h0l.11.1h0c-.11-.1-.22-.1-.441-.2v.3c0,.1,0,.2-.11.2h-.22c-.11,0-.11-.1-.22-.1h0l-.661-.3c-.11,0-.11-.1-.22-.1l-.11-.1h-.11a.1.1,0,0,1-.11-.1,1.051,1.051,0,0,1-.771-.3s-.11,0-.11-.1a1.677,1.677,0,0,1-.661-.2,1.233,1.233,0,0,0-.551-.2h-.11a2.307,2.307,0,0,1-.881-.4c-.11-.1-.33-.1-.441-.2s-.22-.1-.441-.1c-.11,0-.11-.1-.22-.1,0,0-.11,0-.11-.1-.11,0-.22-.1-.331-.1a1.826,1.826,0,0,0-.771-.4c-.33-.1-.661-.3-.991-.4h-.11l-.661-.3c-.11,0-.11-.1-.22-.1h0a.1.1,0,0,1-.11-.1c-.11-.2-.33-.2-.551-.2a1.233,1.233,0,0,1-.551-.2c-.11-.1-.11-.1-.22-.1.11-.1.22-.3.11-.4h-.11c-.11,0-.22.1-.22.3h0a1.514,1.514,0,0,1-.441-.3l-.11-.1a.4.4,0,0,1-.22-.1l-.661-.3a4.615,4.615,0,0,1-.991-.5,1.826,1.826,0,0,0-.771-.4A12.44,12.44,0,0,1,258,7.1a1.087,1.087,0,0,1-.551-.4l-.11-.1a.814.814,0,0,0-.661-.3,1.145,1.145,0,0,1-.771-.4c-.11-.1-.22-.1-.22-.2,0,0-.11,0-.11-.1-.11-.1-.22-.1-.331-.2a2.466,2.466,0,0,1-.551-.3,11.826,11.826,0,0,0-1.212-.7,1.515,1.515,0,0,0-.441-.3c-.11-.1-.22-.2-.33-.2-.11-.1-.22-.1-.33-.2a4.007,4.007,0,0,1-1.322-.8l-.11-.1a.871.871,0,0,0-.441-.2l-.991-.6a2.465,2.465,0,0,0-.551-.3,2.645,2.645,0,0,1-.881-.6l-.11-.1h0l-.11-.1-.991-.6h0l-.11-.1H0" fill="#fff" fill-rule="evenodd"/>
      <path id="Path_138" data-name="Path 138" d="M249.54,12.8l-.33.3-.11-.1c.11-.2.11-.4.44-.2Z" transform="translate(25.43)" fill="#fff" fill-rule="evenodd"/>
      <path id="Path_139" data-name="Path 139" d="M242.8,8.9a.455.455,0,0,1,.44.2C243.02,9.2,242.91,9,242.8,8.9Z" transform="translate(24.805)" fill="#fff" fill-rule="evenodd"/>
      <path id="Path_140" data-name="Path 140" d="M228.93,1.9h.11c-.11-.1-.22-.2-.33-.1s-.11.1-.11.2a.43.43,0,0,1,.33-.1Z" transform="translate(23.228)" fill="#fff" fill-rule="evenodd"/>
      <path id="Path_141" data-name="Path 141" d="M275.12,18.6h.11c.11,0,.11,0,.22-.1h.11v.1c0,.1,0,.1.11.2,0,.1.11.1.11.1h.11c.11,0,.11-.1.22-.1h-.22c.11-.1.11-.1.22,0v-.1h0a.1.1,0,0,0-.11-.1.763.763,0,0,0-.66,0h0v.1c-.11,0-.22-.1-.33-.1l-.11-.1c.11-.1.11.1.22.1Z" transform="translate(27.991)" fill="#fff" fill-rule="evenodd"/>
      <path id="Path_142" data-name="Path 142" d="M300.6,14.1h-1.1a.4.4,0,0,1-.22.1h-.66c-.44,0-.879.1-1.209.1H295.32s-.11,0-.11.1h-.22a4.519,4.519,0,0,0-1.1.1h-1.869a21.376,21.376,0,0,0-2.528.1h-1.539a1.075,1.075,0,0,1-.55-.1H285.1c-.66,0-1.1-.1-1.649-.1-.11,0-.22,0-.22-.1s-.22,0-.22-.1h-.66c-.66-.1-1.429-.1-2.089-.2a1.519,1.519,0,0,1-.66-.1l.33.6h.77c.22,0,.22-.2.33-.4.22.1.33.4.44.6v.1h.55a2.646,2.646,0,0,1,.879.1c.11,0,.11.1.22,0a4.87,4.87,0,0,1,1.209,0h.989a4.519,4.519,0,0,1,1.1.1c.22.1.44,0,.77,0,.11,0,.11-.1.22-.1.44,0,.77.1,1.209.1.22,0,.33.1.55-.1,0-.1.22,0,.33,0,.55,0,1.209.1,1.759.1.44,0,.879-.1,1.209-.1h.77a4.1,4.1,0,0,0,1.1-.1h.22a1.049,1.049,0,0,0,.77-.1h.44c.11,0,.33.1.44.1.44,0,.77-.1,1.209-.1.11,0,.22-.1.44-.1.55,0,1.209-.1,1.759-.1.22,0,.44-.1.66-.1h1.319c.22,0,.44-.1.66-.1V14h-.55a3.016,3.016,0,0,0-1.1.1Z" transform="translate(28.458)" fill="#fff" fill-rule="evenodd"/>
      <path id="Path_143" data-name="Path 143" d="M282.73,17.4h-.33l.11.1v.1h.66v-.1h-.11a.915.915,0,0,0-.33-.1Z" transform="translate(28.736)" fill="#fff" fill-rule="evenodd"/>
      <path id="Path_144" data-name="Path 144" d="M286.589,17.5H285.6c.22.2.33.2.66.1a.915.915,0,0,0,.33-.1Z" transform="translate(29.053)" fill="#fff" fill-rule="evenodd"/>
      <path id="Path_145" data-name="Path 145" d="M284.469,18.4H283.7c0,.1.11.1.11.2h2.418a3.281,3.281,0,0,1,.989,0h4.4a4.024,4.024,0,0,1,1.1,0h3.408a1.518,1.518,0,0,0,.66-.1c.33,0,.77-.1,1.1-.1h.55a16.181,16.181,0,0,1,2.2-.1,2.646,2.646,0,0,0,.879-.1h0V18h-.33a2.989,2.989,0,0,0-.879.1h-.879c-.11,0-.11,0-.22.1h-.33a2.042,2.042,0,0,0-.77.1h-2.858c-.11,0-.11,0-.22.1h-2.858a5.4,5.4,0,0,1-1.209.1h-1.1s-.11,0-.11.1h-1.979c-.11-.1-.22-.1-.44-.1h-.11c-.879-.1-1.869,0-2.748-.1Z" transform="translate(28.865)" fill="#fff" fill-rule="evenodd"/>
      <path id="Path_146" data-name="Path 146" d="M278.6,16h0c0,.1,0,.1.11.1h.11a.227.227,0,0,1,.22.2h.55c0-.1-.11-.1-.11-.2V16c-.11-.1-.22-.2-.22-.3a.891.891,0,0,1-.55-.1.7.7,0,0,0-.11.4Z" transform="translate(28.359)" fill="#fff" fill-rule="evenodd"/>
      <path id="Path_147" data-name="Path 147" d="M287.04,17.5h-.44a5.179,5.179,0,0,0,.55.1v-.1c0,.1,0,0-.11,0Z" transform="translate(29.153)" fill="#fff" fill-rule="evenodd"/>
      <path id="Path_148" data-name="Path 148" d="M280.72,16.4c.11.1.11.2.22.3h.11c-.11-.1-.11-.3-.22-.4a.341.341,0,0,0-.11-.2h-.22a1.244,1.244,0,0,1,.22.3Z" transform="translate(28.547)" fill="#fff" fill-rule="evenodd"/>
      <path id="Path_149" data-name="Path 149" d="M278.02,14.6h.55l-.33-.6h0a.9.9,0,0,1-.44-.1h0a1.351,1.351,0,0,0,.22.7Z" transform="translate(28.279)" fill="#fff" fill-rule="evenodd"/>
      <path id="Path_150" data-name="Path 150" d="M291.988,17.5c.11,0,.11,0,.11-.1h-3.3a5.766,5.766,0,0,0,3.188.1Z" transform="translate(29.371)" fill="#fff" fill-rule="evenodd"/>
      <path id="Path_151" data-name="Path 151" d="M292.4,17.5h0c.22.1.33,0,.55,0h-.55Z" transform="translate(29.728)" fill="#fff" fill-rule="evenodd"/>
      <path id="Path_152" data-name="Path 152" d="M287.64,17.6a.43.43,0,0,0-.33-.1l-.11.1h.44Z" transform="translate(29.212)" fill="#fff" fill-rule="evenodd"/>
      <path id="Path_153" data-name="Path 153" d="M287.807,17.7h0l.11-.1h0c-.11-.1-.22,0-.11.1h0c-.11-.1-.11,0,0,0Z" transform="translate(29.264)" fill="#fff" fill-rule="evenodd"/>
      <path id="Path_154" data-name="Path 154" d="M287.1,17.7Z" transform="translate(29.202)" fill="#fff" fill-rule="evenodd"/>
      <path id="Path_155" data-name="Path 155" d="M292.33,17.6h0a.128.128,0,0,0-.22-.1s-.11,0-.11.1Z" transform="translate(29.689)" fill="#fff" fill-rule="evenodd"/>
      <path id="Path_156" data-name="Path 156" d="M272.35,2.7A8.809,8.809,0,0,0,271.8.9,4.156,4.156,0,0,0,272.35,2.7Z" transform="translate(27.684)" fill="#fff" fill-rule="evenodd"/>
      <path id="Path_157" data-name="Path 157" d="M272.4,2.9h0V3l.11.1V2.9c0,.1,0,.1-.11,0Z" transform="translate(27.743)" fill="#fff" fill-rule="evenodd"/>
      <path id="Path_158" data-name="Path 158" d="M272.5,3.2Z" transform="translate(27.753)" fill="#fff" fill-rule="evenodd"/>
      <path id="Path_159" data-name="Path 159" d="M271.62.5c0-.2-.11-.3-.11-.5h-.11A.73.73,0,0,0,271.62.5Z" transform="translate(27.644)" fill="#fff" fill-rule="evenodd"/>
      <path id="Path_160" data-name="Path 160" d="M272.94,4.1a6.519,6.519,0,0,0-.33-.8.1.1,0,0,0-.11-.1h0a1.4,1.4,0,0,0,.55,1.2.347.347,0,0,0-.11-.3Z" transform="translate(27.753)" fill="#fff" fill-rule="evenodd"/>
      <path id="Path_161" data-name="Path 161" d="M273.1,4.9v.3c0,.1.11.1.11.2s.11.2.11.3.11.3.11.4.11.2.11.3v.1l.33.9h0a1.022,1.022,0,0,0,.44.5.341.341,0,0,0-.11-.2A9.874,9.874,0,0,0,273.1,4.9Z" transform="translate(27.813)" fill="#fff" fill-rule="evenodd"/>
      <path id="Path_162" data-name="Path 162" d="M275.5,10.6h0c-.11.2,0,.3.11.4C275.614,10.9,275.5,10.7,275.5,10.6Z" transform="translate(28.047)" fill="#fff" fill-rule="evenodd"/>
      <path id="Path_163" data-name="Path 163" d="M274.83,9.1c-.11-.2-.11-.4-.33-.5h0c0,.1.11.2.11.3.11.2.11.4.33.5C274.94,9.3,274.83,9.2,274.83,9.1Z" transform="translate(27.952)" fill="#fff" fill-rule="evenodd"/>
      <path id="Path_164" data-name="Path 164" d="M274.51,8.4h0V8.2h-.11l.11.2Z" transform="translate(27.942)" fill="#fff" fill-rule="evenodd"/>
      <path id="Path_165" data-name="Path 165" d="M276.24,12.4a1.948,1.948,0,0,0-.44-.8A.885.885,0,0,0,276.24,12.4Z" transform="translate(28.081)" fill="#fff" fill-rule="evenodd"/>
      <path id="Path_166" data-name="Path 166" d="M295.419,17.5h.55a.891.891,0,0,0,.55-.1H294.21l-.11.1h1.319Z" transform="translate(29.897)" fill="#fff" fill-rule="evenodd"/>
      <path id="Path_167" data-name="Path 167" d="M297.53,18.9h-.33c.11.1.11.1.22.1s.11,0,.11-.1c.11.1.11,0,0,0Z" transform="translate(30.205)" fill="#fff" fill-rule="evenodd"/>
      <path id="Path_168" data-name="Path 168" d="M295.214,19.1h0c-.11,0-.11,0-.11.1-.11,0,0,0,.11-.1l-.11.1.11-.1Z" transform="translate(29.992)" fill="#fff" fill-rule="evenodd"/>
      <path id="Path_169" data-name="Path 169" d="M295.4,19.2h.33a.163.163,0,0,0-.22,0c0-.1,0-.1-.11,0Z" transform="translate(30.026)" fill="#fff" fill-rule="evenodd"/>
      <path id="Path_170" data-name="Path 170" d="M286.718,19.4h-.33s-.11,0-.11.1a.4.4,0,0,1-.22.1.763.763,0,0,1-.66,0h-.44c-.11,0-.22-.1-.33,0h-.33a.341.341,0,0,0,.11.2.341.341,0,0,1,.11.2h0a1.049,1.049,0,0,1,.769.1h.55c.11,0,.33-.1.44-.1h3.188a.712.712,0,0,1,.44.1h3.408s.11,0,.11-.1a.347.347,0,0,1,.44.1h.22a1.075,1.075,0,0,0,.55-.1h1.209a1,1,0,0,1,.55,0h.66c.22.1.44,0,.66,0h.33a1.519,1.519,0,0,0,.66-.1.713.713,0,0,0,.44-.1h1.979v-.5h-.55c0-.1-.11-.1-.22-.1h-.22a.763.763,0,0,1-.66,0c-.11.1-.22.1-.33.2a1.3,1.3,0,0,1-.55-.1c-.11.1-.11.2-.22.2h-.22c-.11.1-.22.1-.33.2h-.11a.43.43,0,0,0-.33-.1s-.11,0-.11.1l-.11.1h-.879a.43.43,0,0,1-.33-.1h-.11l-.11.1-.11.1h0a.712.712,0,0,1-.44-.1.6.6,0,0,0-.55-.1h.22s-.11,0-.11.1h-.22c-.11,0-.11-.1-.22,0h0a.3.3,0,0,0,.11.2h-.66a.531.531,0,0,0-.55,0h-.11a.357.357,0,0,0-.22.1c-.22.1-.33,0-.55,0h.22a.43.43,0,0,0-.33-.1s-.11,0-.11.1a.4.4,0,0,1-.22.1h-1.979l-.11-.1a.885.885,0,0,0-.55-.2h-.11a.227.227,0,0,0-.22.2,2.04,2.04,0,0,0-1.1,0h-1.209l.11-.7Z" transform="translate(28.924)" fill="#fff" fill-rule="evenodd"/>
      <path id="Path_171" data-name="Path 171" d="M275.52,13.9a.341.341,0,0,0,.11.2h.44c-.11-.2-.11-.4-.22-.6a.43.43,0,0,1-.33-.1c-.11,0-.22,0-.22-.1,0,.4.11.5.22.6Z" transform="translate(28.031)" fill="#fff" fill-rule="evenodd"/>
      <path id="Path_172" data-name="Path 172" d="M281.7,18.3c.11.1.11.2.22.3h.66c0-.1-.11-.2-.11-.3h-.77Z" transform="translate(28.666)" fill="#fff" fill-rule="evenodd"/>
      <path id="Path_173" data-name="Path 173" d="M274,16.4h.11c0-.1,0-.1-.11,0Z" transform="translate(27.902)" fill="#fff" fill-rule="evenodd"/>
      <path id="Path_174" data-name="Path 174" d="M280.4,19.1h.22c-.11-.1-.11-.1-.22,0Z" transform="translate(28.537)" fill="#fff" fill-rule="evenodd"/>
      <path id="Path_175" data-name="Path 175" d="M280.22,18.4c.22,0,.33.1.55.1a1.4,1.4,0,0,1-.33-.4H280c.11.1.11.2.22.3Z" transform="translate(28.498)" fill="#fff" fill-rule="evenodd"/>
      <path id="Path_176" data-name="Path 176" d="M281.419,19.7h0c-.11-.2-.11-.3-.22-.4v-.1h-1.1v.5h0c.11,0,.33.1.44.1l.11-.3a.4.4,0,0,1,.22.1.1.1,0,0,1-.11.1h.66Z" transform="translate(28.508)" fill="#fff" fill-rule="evenodd"/>
      <path id="Path_177" data-name="Path 177" d="M301.19,21.1h0c-.11,0-.33.1-.44-.1,0-.1-.11-.1-.22,0h-.11a.43.43,0,0,1-.33.1h-.22a1.075,1.075,0,0,0-.55.1,3.711,3.711,0,0,1-1.1.1h-7.585a2.574,2.574,0,0,0-.879,0h-1.869a6.876,6.876,0,0,0-1.429-.1h-.66a.1.1,0,0,0,.11.1.734.734,0,0,1,.22.4.1.1,0,0,0,.11.1,1.809,1.809,0,0,1,.55.7c.11.1.11.2.22.4.11.1.11.2.22.2l.11.1.11.1a.1.1,0,0,0,.11.1c0,.1.11.1.11.2h0c0,.1.11.1.11.2h0l.11.1a1,1,0,0,0,.44.7l.33.3c.11.1.11.2.22.3h0v.2c0,.1.11.1.11.2a2.454,2.454,0,0,1,.879.9c.11.1.11.2.22.2a1.4,1.4,0,0,1,.33.4c.33.3.55.7.879,1a.1.1,0,0,0,.11.1,2.089,2.089,0,0,0,.44.6l.55.5a2.088,2.088,0,0,0,.44.6V30a9.658,9.658,0,0,0,1.429,1.5,1.4,1.4,0,0,1,.33.4c0,.1.11.1.22.2s.11.2.22.2h0c.11.1.11.2.22.2l.11.1c.11.2.33.3.44.5a2.234,2.234,0,0,0,.44.5h0a2.235,2.235,0,0,0,.44.5c0,.1.11.1.22.2l.11.1.22.2c.11.2.33.3.44.5a.824.824,0,0,0,.44.4c.11,0,.11.1.22.2h0a4.447,4.447,0,0,0,1.209,1.2l.44.4h0a6.944,6.944,0,0,1,.989.8c.11.1.11.2.22.2V21c.22,0,.11,0,0,.1Z" transform="translate(29.073)" fill="#fff" fill-rule="evenodd"/>
      <path id="Path_178" data-name="Path 178" d="M293.64,17.5h0c-.11,0-.33-.1-.44-.1h0a.712.712,0,0,0,.44.1Z" transform="translate(29.808)" fill="#fff" fill-rule="evenodd"/>
      <path id="Path_179" data-name="Path 179" d="M299.6,18.8h.22l.11-.1h0a.43.43,0,0,0-.33.1Z" transform="translate(30.443)" fill="#fff" fill-rule="evenodd"/>
      <path id="Path_180" data-name="Path 180" d="M297.42,17.2h-.22c0,.1,0,.1.22,0Z" transform="translate(30.205)" fill="#fff" fill-rule="evenodd"/>
      <path id="Path_181" data-name="Path 181" d="M277.34,16.8a.712.712,0,0,1-.44-.1.1.1,0,0,0,.11.1,5.18,5.18,0,0,0,.55.1c-.11,0-.11,0-.22-.1Z" transform="translate(28.19)" fill="#fff" fill-rule="evenodd"/>
      <path id="Path_182" data-name="Path 182" d="M279.6,19Z" transform="translate(28.458)" fill="#fff" fill-rule="evenodd"/>
      <path id="Path_183" data-name="Path 183" d="M277.2,18.7h0c.11-.1,0-.1,0,0Z" transform="translate(28.22)" fill="#fff" fill-rule="evenodd"/>
      <path id="Path_184" data-name="Path 184" d="M275.539,15.8v-.3l-.11-.1c-.11-.1-.11-.1-.11-.2-.11,0-.11,0-.22-.1h-.77A.43.43,0,0,1,274,15v.1h.33v.1c0,.1,0,.1-.11.1-.11.1-.11.1-.11.2h.44a1.3,1.3,0,0,1,.55.1h.33c0,.2.11.2.11.2Z" transform="translate(27.902)" fill="#fff" fill-rule="evenodd"/>
    </g>
  </g>
</svg>
