<?xml version="1.0" encoding="utf-8"?>
<!-- Generator: Adobe Illustrator 26.5.0, SVG Export Plug-In . SVG Version: 6.00 Build 0)  -->
<svg version="1.1" id="a" xmlns="http://www.w3.org/2000/svg" xmlns:xlink="http://www.w3.org/1999/xlink" x="0px" y="0px"
	 viewBox="0 0 300 600.3" style="enable-background:new 0 0 300 600.3;" xml:space="preserve">
<style type="text/css">
	.st0{fill:#FFFFFF;}
</style>
<g>
	<path class="st0" d="M47.4,5.7C45.6,4.6,44,3,41.8,2.6C43,4.3,46.3,5,46.6,7.1c3.5,0.3,1,2.2,3,3.7C50.6,9,50.7,7,51,5
		c34.7,25.6,79.5,41.8,116.1,59.5c-2.4-0.1-4.5-1.3-6.9-1.5c1.6,1.1,3.6,1.1,5.2,1.8c-0.3,0.5-0.5,1-0.8,1.6
		c1.4,0.7,1.7,0.3,2.3-0.9c2.8,0.9,1.8-1.7,1-3.2c8.8,3.1,24.8,5.1,36.4,7.9c-5.6-7.4-29.3-3.4-35.7-11.4c0.2-2-1.6-0.4-1.8,0.6
		c-2.4,0.2-4.4-1.1-6.7-1.2c1-1.3-1.4-2.5,0.7-2.6c-0.3-0.6-0.5-1.1-0.8-1.8c-1,1.2-2.2,1.6-1.1,3.1C122.6,46.1,87,25.9,57.6,6.5
		c1-4-3.6-8.6-0.9-0.6c-3.3-1.8-6.4-3.8-9.5-5.8H44C46.8,2,49.4,4.2,47.4,5.7z M188.3,70.3c-2.1-0.9-5.4-2.1-7.6-1.5
		C183.3,69.1,185.7,70,188.3,70.3z M198.1,72.2c-3.1-0.7-6.5-2-9.7-1.8C191.3,70.9,195.8,72.8,198.1,72.2z M205.6,74.2
		c-0.1-1.2-1-1.1-2-1.1C203.5,73.5,204.4,73.9,205.6,74.2z M121.5,47.7c-1.2-0.4-2.1-1.5-3.5-1.3C119.1,46.8,120.1,47.8,121.5,47.7z
		"/>
	<g>
		<path class="st0" d="M104.4,57.7l0.9,0.3l0.1-0.2c-0.3-0.2-0.6-0.3-0.9-0.4C104.5,57.5,104.4,57.6,104.4,57.7z"/>
		<path class="st0" d="M105.3,55.5c-1.2,0.3-0.5,2,0.5,1.5C106.9,56.8,106.1,55,105.3,55.5z"/>
		<path class="st0" d="M116.3,54.4c0,0,0,0.1-0.1,0.2C116.8,55.1,117,54.6,116.3,54.4z"/>
		<path class="st0" d="M101.7,57.6c0.7,0.3,0.5-0.4,0.6-0.9C101.5,56.9,101.4,57.2,101.7,57.6z"/>
		<path class="st0" d="M123.8,58.1c0.7,0.2,1,0.4,1.7,0.6C124.9,58,124.7,57.5,123.8,58.1z"/>
		<path class="st0" d="M85.2,48.6c-1.3,2.1,1.3,1.2,1.1-1.3C85.5,47.5,85.5,48.1,85.2,48.6z"/>
		<path class="st0" d="M95.9,50c-0.5,1.7,2.3,1.4,1.4-0.2C96.7,49.6,96.1,49.6,95.9,50z"/>
		<path class="st0" d="M70.2,40.8c-0.2,0.2-0.3,0.5-0.4,0.7C71,43.3,72.4,40.2,70.2,40.8z"/>
		<path class="st0" d="M51.5,26c0.5-0.1,0.9-0.3,1.5-0.5C51.8,24.6,51.7,24.7,51.5,26z"/>
		<path class="st0" d="M125.6,68.1c0.3-0.1,0.7-0.2,1-0.3C126.1,67.4,125.8,67.4,125.6,68.1z"/>
		<path class="st0" d="M25.7,10.3c0.3,0.3,0.4,0.8,1.3,0.4c-0.5-0.3-0.8-0.5-1.2-0.7C25.8,10.1,25.7,10.2,25.7,10.3z"/>
		<path class="st0" d="M75.9,33.6l-0.2,0.1C75.8,33.7,75.8,33.7,75.9,33.6z"/>
		<path class="st0" d="M259.3,89.9h-2.6C257,90.9,258.7,90.4,259.3,89.9z"/>
		<path class="st0" d="M267.1,91.1c0.5,0,1,0,1.5,0.1C268.1,90.3,267.6,90.8,267.1,91.1z"/>
		<path class="st0" d="M270.5,91.5l0.8-0.1v-0.2c-0.3-0.1-0.5-0.1-0.8-0.1V91.5z"/>
		<path class="st0" d="M143.1,66c0-0.1,0.1-0.2,0.1-0.4c-0.3,0-0.6-0.1-1-0.1C142.1,66,142.8,65.9,143.1,66z"/>
		<path class="st0" d="M253.8,89.6c0.2,0.5,0.4,0.3,0.9,0C254.3,89.1,254.1,89.2,253.8,89.6z"/>
		<path class="st0" d="M250.1,84.4c0-0.3-0.1-0.5-0.5-0.5c-0.8,0-1.7,0.1-2.5,0.1c-0.9-0.1-1.7-0.2-2.6-0.4c0.3,0.1,0.7,0.2,1,0.4
			c-4.3-0.1-8.5-0.7-12.7-1.3c-2.9-0.5-5.7-1.2-8.6-1.7c-3.1-0.5-6.2-1-9.4-1.5c-3.2-0.5-6.4-1-9.6-1.5c0,0,0,0-0.1-0.1
			c-0.1,0-0.2-0.1-0.3-0.1c-0.2,0-0.4,0-0.6,0c0,0-0.1,0-0.1,0c0,0-0.1,0-0.1,0c-0.2,0-0.4,0-0.5,0c-0.1,0-0.1,0-0.2,0
			c-0.2-0.1-0.5-0.2-0.7-0.3c-0.2-0.1-0.5,0.1-0.6,0.3c0,0.1,0,0.2,0,0.3C146.9,64.3,88.5,41.6,41.2,6C42.6,4.2,39,3.2,41,1.7
			c-2.7-2.4-2,0.6-3.7,2.2C36.8,3.4,35.1,2,32.8,0H30c2.6,2.2,5.2,4.4,7.8,6.5C83,37.7,143.7,69.4,203.1,78.9c1,0.4,2,0.7,3.1,0.9
			c0.1,0,0.1,0.1,0.2,0.1c5.6,0.9,11.3,1.8,16.9,2.6c3.4,0.5,6.7,1,10.1,1.4c2.5,0.4,5,0.7,7.6,0.9c3.5,0.3,7,0.5,10.4,1.2
			c0.1,0,0.2,0,0.3,0c14.9,4,31.5,4.3,48.4,3.2V87C283.4,87.4,266.7,86.7,250.1,84.4z"/>
		<path class="st0" d="M154.1,69.6c0.5,0.3,1,0.5,1.5,0.8h0l0.2-0.4c-0.5-0.2-1.1-0.5-1.6-0.7C154.1,69.4,154.1,69.5,154.1,69.6z"/>
		<path class="st0" d="M148.7,73.1c0,1.3-0.9,1.5-2.1,1.7c0.5,2.3,3.1,3.7,4,0.9C155.5,78.2,151.6,71.5,148.7,73.1z M149.2,75.3
			l-0.2-0.7l0.8-0.3L150,75L149.2,75.3z"/>
		<path class="st0" d="M167.5,82c-0.9,0.6-0.2,2,0.9,1.6C169.3,83,168.6,81.4,167.5,82z"/>
		<polygon class="st0" points="220.1,75.9 220.1,75.9 220.1,75.9 		"/>
		<path class="st0" d="M61.6,14.2c-3.7,0.6-5.8-4.2-9.2-4.8c4.8,4.3,10.1,7.3,15.6,9.9C66.2,17.1,62,17,61.6,14.2z"/>
		<path class="st0" d="M232,78.4c-0.1-1-0.8-1.1-1.7-1.1C230.5,78.2,231.2,78.3,232,78.4z"/>
		<path class="st0" d="M238.7,79.8c0-1.2-1.1-1-2-1.3C236.7,79.7,237.7,79.7,238.7,79.8z"/>
		<polygon class="st0" points="252.6,80.8 252.6,80.8 252.6,80.8 		"/>
		<path class="st0" d="M260.9,82.1c-2.5-1.1-5.6-0.7-8.3-1.3c0,0.1,0,0.2-0.1,0.3C255.3,81.5,258.1,82.8,260.9,82.1z"/>
		<path class="st0" d="M295.5,83.1c-1.3-0.1-2.5,0.1-3.8,0.2C292.7,84.2,293.1,84.1,295.5,83.1z"/>
		<path class="st0" d="M298.1,83.6c-0.3-1.1-1.2-0.7-2.1-0.7C296.1,83.5,297.6,83.4,298.1,83.6z"/>
		<path class="st0" d="M280.5,83.6c0.1-0.1,0.1-0.2,0.1-0.3c-5.6-0.5-11.4-0.8-17.1-0.9C268.8,83.6,274.9,84,280.5,83.6z"/>
		<path class="st0" d="M262.1,82.1c-0.3,0-0.6-0.1-0.9-0.1v0.2c0.3,0,0.6,0.1,0.9,0.1V82.1z"/>
		<path class="st0" d="M287,83.6v-0.3l-5.1-0.1C283.6,84.1,285.3,83.9,287,83.6z"/>
		<path class="st0" d="M250.2,80.8c-0.8-1.1-3.4-0.8-4.8-1.1C246.1,80.9,248.8,80.6,250.2,80.8z"/>
		<path class="st0" d="M101.2,37.9c-1.3-1.1-3.1-2-4.8-2.4C97.6,37,99.2,37.8,101.2,37.9z"/>
		<path class="st0" d="M95.1,35.1c0.3,0.1,0.9,0.3,1.3,0.4C96.2,34.8,95.7,34.8,95.1,35.1z"/>
		<path class="st0" d="M94.5,34.5c-1-1-5.6-3.8-6.6-4C88.7,31.9,92.2,34,94.5,34.5z"/>
		<path class="st0" d="M78,25.5c-0.3-1.4-3.1-1.8-4.4-2.9C74,24.7,76.5,24.6,78,25.5z"/>
		<path class="st0" d="M86.1,29.9c-1.8-1.1-3.4-2.1-5.5-3C81.6,28.2,84.8,29.9,86.1,29.9z"/>
		<path class="st0" d="M104.5,40c4,1.2,6.9,5.2,11.3,5c-4.3-2.2-8.3-4.3-12.6-5.8C103.5,39.7,104,39.9,104.5,40z"/>
		<path class="st0" d="M222.7,76c-0.8-0.1-1.7-0.1-2.6-0.1c0.6,0.7,2,0.7,2.9,0.9C222.9,76.6,222.8,76.3,222.7,76z"/>
		<path class="st0" d="M117.3,45.7c-0.3-0.1-0.5-0.2-0.8-0.3c-0.1,0.1-0.1,0.2-0.1,0.3c0.2,0,0.4,0.2,0.7,0.3
			C117.2,45.9,117.2,45.8,117.3,45.7z"/>
		<path class="st0" d="M71.3,21.6c-0.8-0.5-1.3-1.5-2.4-1.5C69.5,21,70.3,21.4,71.3,21.6z"/>
		<path class="st0" d="M161,71.9c0,0.1-0.1,0.2-0.1,0.3c0.3,0.1,0.7,0.1,1,0.2C162.2,72,161.2,72,161,71.9z"/>
		<path class="st0" d="M186.9,78.6c0.4,0.1,0.8,0.2,1.2,0.2c0-0.1,0-0.3,0.1-0.4c-0.4-0.1-0.8-0.1-1.2-0.2
			C187,78.3,187,78.5,186.9,78.6z"/>
	</g>
	<g>
		<path class="st0" d="M193.9,56.2c2.4,0.5,4.7,1.1,7.1,1.5v-0.1c2.8,0.6,6.4,1.2,10.4,2c0.3,0.1,0.6,0.2,0.8,0.2
			c9.2,1.7,21,3.8,33.1,5.6c1.9,0.4,3.9,0.7,6.1,0.9c19.6,2.8,39,4.5,48.7,2.7V0H62.9c-0.9,1.7,3.3,4,2.8,0.9
			c27.6,16.8,56.1,32.1,86,43.7c-1.4,2.5-0.1,2.1,1.6,3.3c-1.2-0.3-2.4-0.6-3.6-1c1-1.1-1-1.8-1.9-1.6c-0.3,0.4-0.3,0.8-0.1,1.1
			c-28.5-8.2-55.4-25.9-81.2-40.7c-2.6-2.2-6-3.8-9-5.7H56c3.4,2.1,6.9,5.6,9.6,7.3c-1.8-0.7-2.9,1.5-0.9,2.2
			c19.7,3.7,37.4,21.3,57.5,28.1c14.5,6.3,29.2,13.3,44.2,17.2c-0.7,2,1.7,3.2,1.6,0.5c2.9,1.2,6.6,0.9,8.9,3.2
			c-1.1-0.2-2.1-0.3-3.2-0.5c-0.6,3,5.7,4.4,6.4,1.5c6.1-0.8,14.7,2.9,21.8,3.9c0.4,0.1,0.8,0.2,1.2,0.3c0.7,0.2,1.4,0.4,2.1,0.5
			c1.6,0.3,3.1,0.6,4.7,0.9c3,0.5,5.9,0.9,8.9,1.7c5.8,1.6,11.7,2.5,17.7,3c3.4,0.3,6.8,0.5,10.2,0.7c0.1,0,0.2,0,0.3-0.1
			c16.4,4,34.6,4.4,53,3.6v-1.4c-20.9,0.1-41.7-1.5-60.8-4.4c0.4,0.1,0.9,0.3,1.3,0.4c-4.7-0.5-9.4-1.1-14-1.7
			c-2.6-0.4-5.3-0.7-7.9-1.2c-0.3-0.1-0.6-0.1-0.9-0.2c-0.5-0.1-1-0.2-1.5-0.4c-1.7-0.4-3.5-0.9-5.2-1.3c-1.3-0.3-2.6-0.4-4-0.5
			c-0.5,0-1-0.1-1.6-0.1c-0.7-0.1-1.3-0.3-2-0.4c-0.2-0.1-0.4-0.1-0.5-0.2c-0.2-0.1-0.3-0.1-0.4,0c-0.3-0.1-0.5-0.1-0.8-0.2
			c-5.5-3.9-18.2-0.5-21-7.6c-0.7-0.2-0.8,0.3-1.1,0.7c4.1,3.7-6.5,0.2-7.8-0.3c-4.8-0.8-5.4-4.7-1.3-1.4c1.7-1.6,2.8-1.7,4.9-0.5
			c-0.1-0.5-0.1-0.8-0.2-1.2C181.3,53.3,187.6,54.8,193.9,56.2L193.9,56.2z M153.3,49.5c1.4-1.2,2.3-1.8,1.6-3.6
			C170.8,48.7,168.5,56.3,153.3,49.5z"/>
		<path class="st0" d="M173.2,66.7c-0.1,0.1-0.1,0.2-0.1,0.3c0.3,0.1,0.7,0.3,1,0.5C174.1,66.7,173.7,66.6,173.2,66.7z"/>
		<path class="st0" d="M247.6,75.4c-0.1-0.1-0.2-0.1-0.3-0.1c-0.5,0-0.9-0.1-1.4-0.1c-1.5-0.2-3.1-0.4-4.6-0.7
			c0.4,0.1,0.9,0.2,1.3,0.3c-10.4-1.1-20.7-3.1-31-4.9c-1.6-0.3-3.2-0.6-4.8-1c-1.3-0.3-2.5-0.6-3.8-0.6c-0.1-0.1-0.1-0.1-0.2-0.2
			c-0.2-0.1-0.4-0.2-0.6-0.2c-0.5-0.1-0.9-0.2-1.4-0.2c-0.3,0-0.5,0.2-0.5,0.5c0,0.3,0.2,0.5,0.5,0.5c0.2,0,0.4,0,0.5,0c0,0,0,0,0,0
			c0,0,0.1,0,0.1,0c-0.1,0.3,0.1,0.6,0.5,0.6c0.2,0,0.5,0,0.7,0c0,0,0.1,0,0.1,0s0.1,0,0.1,0c0,0,0,0,0,0c-0.1,0.2,0,0.5,0.3,0.6
			c12.2,2.2,24.5,4.1,36.8,6c3.4,0.5,6.8,1.1,10.3,1.1c0.3,0,0.4-0.2,0.5-0.4c15.8,3.3,32.4,4.6,49.3,4.3v-2.5
			C282.5,78.8,264.9,77.8,247.6,75.4z"/>
		<path class="st0" d="M38.7,9.9c-0.1-0.1-0.3-0.1-0.5-0.2C38,10.2,38.5,10.4,38.7,9.9z"/>
		<path class="st0" d="M271.8,99.1c0.7,0.1,1.3,0.2,1.8,0.2C272.9,98.9,272.3,98.9,271.8,99.1z"/>
		<path class="st0" d="M277.3,99.3c0.8,0.5,1.4,0.4,2.1-0.2C278.7,98.8,278,98.8,277.3,99.3z"/>
		<path class="st0" d="M296.5,92.2c-0.2-1.9-3.1,1.2-4.6,0.1c-0.8-0.4-1.4,0.2-2.2-0.1c-7.4-0.3-15.1,0.5-22.8-0.8
			c-0.5-0.5-1.6,0.1-1.8-0.8c-0.4-1-1.3,0.1-0.6,0.7c-3.8-1.1-7.7-0.4-11.7-1.6c-0.1-0.2-0.2-0.3-0.3-0.4l0.2,0.5l-2,0.7
			c0-0.1-0.2-0.5-0.2-0.6l2-0.7c-0.7-0.6-2-0.3-2.9-0.2c0,0.2,0.1,0.3,0.1,0.5c-0.8,0.2-3-2.7-2.5-0.3l-0.9-0.3
			c9.1,6.2,30.8,7.3,53.9,6.4V92C298.8,92.4,297.7,92.5,296.5,92.2z"/>
		<path class="st0" d="M243.5,79.8c-0.2,0-0.4-0.1-0.6-0.1C243,80,243.3,79.8,243.5,79.8z"/>
		<path class="st0" d="M300,83.3c-0.9-0.4-1.4-0.3-1.9,0.3C298.7,83.5,299.3,83.4,300,83.3z"/>
		<path class="st0" d="M71.8,6.7V5.2c-0.4,0.1-0.8,0.2-1.3,0.4C71,6.1,71.1,6.8,71.8,6.7z"/>
		<path class="st0" d="M200,72.6c0.3-0.1,1.1,0.5,1.2,0c-0.4-0.1-0.8-0.2-1.1-0.3C200.1,72.4,200,72.5,200,72.6z"/>
		<path class="st0" d="M193.1,80c0.3,0.3,0.7,0.4,1.4-0.2c-0.6-0.1-1-0.2-1.3-0.2C193.2,79.7,193.1,79.9,193.1,80z"/>
		<path class="st0" d="M110.7,52.1c-0.5-0.3-0.8-0.4-1.1-0.6C109.8,51.9,110.2,52.1,110.7,52.1z"/>
		<path class="st0" d="M190.1,79.2C188.2,78.7,188.9,80.4,190.1,79.2L190.1,79.2z"/>
		<path class="st0" d="M226.8,77.4c0-0.1-0.1-0.3-0.1-0.4H226C226.1,77.5,226.5,77.4,226.8,77.4z"/>
	</g>
	<g>
		<path class="st0" d="M258.5,101c-8.8-1-17.5-2.2-25.2-3.2c-0.1-0.1-0.2-0.1-0.3-0.1c-1.7-0.2-3.3-0.5-4.8-0.7
			c-0.4-0.2-0.8-0.3-1.2-0.3c0,0.1,0,0.1,0.1,0.2c-0.9-0.1-1.9-0.3-2.7-0.4c0-0.1,0-0.2,0.1-0.2c-0.2,0-0.4-0.1-0.6-0.1
			c-0.1,0.1-0.1,0.2-0.1,0.2c-0.2,0-0.5-0.1-0.7-0.1c-0.6-0.6-1.5-0.9-2.9-0.8c0,0.1,0.1,0.2,0.1,0.3c-4.2-0.6-7.6-1.2-9.8-1.5
			c-1.9-1.3-4.7-2-9.2-2.2c-18.4-2.8-41.4-7.9-54.9-14.6c-0.2,0.3-0.4,0.6-0.7,0.9c-10.9-2.7-0.4-3.1-5.8-6.2
			c-0.2,0.8-0.4,1.5-0.5,2.2c-2.4-0.8,0.2-2.8,0.7-3.9l-0.9,0.3l-0.2-0.6l0.9-0.3c21.6,4.1,46.2,13.7,69.5,16.3c0,0,0,0,0.1,0
			c0.1,0,0.1,0,0.2,0c0.1,0,0.1,0,0.2,0c0,0,0,0,0.1,0c1,0.2,2,0.4,3,0.6c0.1,0,0.2,0,0.3,0c1.9,0.4,3.9,0.7,5.9,0.9
			c2.2,0.4,4.3,0.8,6.5,1.1c3,0.5,5.9,0.9,8.9,1.3c2.9,0.4,5.9,0.9,8.8,1.1c3.4,0.2,6.9,0.2,10.3,0.5c0.6,0.1,0.6-0.9,0-1
			c-1.2-0.1-2.5-0.2-3.7-0.2c0.2-0.3,0.1-0.8-0.4-0.8c0,0-0.1,0-0.1,0c0,0-0.1-0.1-0.2-0.1l-0.5-0.1c0-0.2-0.2-0.4-0.5-0.4
			c-0.8,0-1.7,0-2.5,0c-1.4-0.2-2.8-0.4-4.2-0.6c-0.2,0-0.3,0-0.5,0c-0.1,0-0.2,0-0.3,0c-0.2-0.1-0.5-0.1-0.7-0.2
			c-0.1,0-0.2,0-0.3-0.1c-0.6,0-1.2-0.1-1.8-0.2c-0.1,0-0.1,0.1-0.2,0.1c0,0,0,0,0,0c0,0,0,0-0.1,0c0,0,0,0,0,0c-0.1,0-0.2,0-0.3,0
			c0,0,0,0,0,0c0,0,0,0,0,0c0,0,0,0-0.1,0c-0.2,0-0.4,0-0.5-0.1c-0.1-0.1-0.1-0.1-0.2-0.2c0,0,0,0,0,0c-0.5-0.1-1-0.2-1.6-0.3
			c-1.1-0.2-2.2-0.3-3.3-0.5c-0.4,0-0.8,0-1.1-0.1c-1.3-0.1-2.6-0.3-3.9-0.5c-0.5-0.1-1-0.3-1.5-0.4c-0.6-0.1-1.2,0-1.9,0
			c-0.4,0-0.9-0.1-1.3-0.3c-0.1-0.1-0.3-0.2-0.4-0.3c-0.2,0-0.3,0-0.5-0.1c-0.2,0-0.3,0.1-0.5,0.1c-1.2,0-2.4-0.4-3.6-0.6
			c-0.2,0-0.3-0.1-0.5-0.2c-1.2-0.2-2.4-0.3-3.6-0.5c0,0,0,0-0.1,0.1c-0.1,0.1-0.3,0.1-0.4,0.1c-0.4,0-0.8-0.1-1.3-0.2
			c-0.2,0-0.3-0.1-0.5-0.3l0,0c-0.2,0-0.5-0.1-0.7-0.1c0,0,0,0-0.1,0c-0.1,0-0.2,0-0.3,0c-0.1,0-0.3,0-0.4-0.1
			c-0.1,0-0.1-0.1-0.2-0.1c-0.2,0-0.4-0.1-0.5-0.1c-0.1-0.3-0.3-0.5-0.5-0.7l0.2-0.1c-0.5-2.1-1.9,0.4-3.6-0.3
			c0.2-0.3,0.4-0.5,0.6-0.8c-0.9-0.2-3.3-0.9-1.6,0.2c-2-0.2-4.1,0.1-5.5-1.4c-1.5,1.4-2.8-0.2-4.6-0.1c-1.2,0.2-1.7-1.8-2.7-1
			c-1.1,1-1.9-0.3-3-0.4c-3.7-0.6-6.9-1.7-10.9-2.7c0.6-0.8-0.6-1-1.4-0.2c0.1,0.1,0.3,0.2,0.4,0.3c-2.2-0.6-4.1-1.7-6.5-1.9
			c0.9-1.6-3.6-0.1-4.9-1l0.1-0.1c0.3-0.1,0.7-0.3,1-0.3c-0.6-0.3-0.9-0.2-1.1,0.1c0-0.1-0.1-0.3-0.1-0.4c-4.6,0.4-8.3-2.9-12.9-3.5
			c0.3-0.1,0.5-0.3,0.9-0.4c-0.9-0.8-1.9-0.3-3.1-1.1c0.3,0.4,0.4,0.7,0.7,1.1c-1.4-0.4-2.9-0.2-3.7-1.4c-0.7-1.9-3.6,0.6-4.8-2.1
			c-0.7-0.1-1.6,0.4-1.9-0.6c-1.3,0.4-2.2-0.4-2.3-2c-1.8,3.8-2.3-2.4-4.3-0.8c-2-0.6-4.2-1-5.6-2.6c-2.5-0.3-4.9-1.6-7.4-2.5
			c-1-1.2-2.4-1.3-3.7-1.7c-0.6-0.9-1.6-0.9-2.4-1.3c1.5-0.6-2.1-2.3-1.6-0.7c-2-0.3-3.7-1.1-4.6-3.1c-0.4,0.2-0.2,0.5-0.3,1l-2-1
			c0.6-0.2,1.2,0.1,1.2-0.4c-0.7-0.2-1.6-0.8-2.4-1.3c0.1,0.4,0.5,0.6,0.8,0.9c-0.2,0-0.3-0.1-0.5-0.1l0.1,0.3l-2.3,0.8l-0.9-2.6
			l0.2-0.1h-0.1c-0.6,0-1.2-0.1-1.8-0.2c-1.2-2.6-6.2-2.1-8.3-4.8c0.3,0,0.7,0,1.2,0.1c-2-1.7-5.8-0.5-5.9-3.9
			c-0.4,0.5-0.7,0.7-0.9,1c-2.7-2.1-6.5-2.7-8.7-5.4c0.9-0.5-1.6-2.2-1.3-0.8l0.6-0.2l0.4,1L76,34.7l-0.4-1h0.1
			c-0.8,0-1.3-0.8-2.1-1c0.4-1.1-0.7-1.5-1-0.2c-0.5-0.4-0.9-0.7-1.3-1c0.2,0,0.3,0,0.7-0.1c-0.7-0.5-1.6-1.1-1,0
			c-0.9-0.2-2.1-0.9-3.2-1.5l0.8-0.3c-0.3-0.6-1.4-1.2-2.1-0.5c-0.2-0.3-0.4-0.5-0.7-0.9c-1.9,0.5-1.5-2.8-3.5-2.1
			c-0.4,0.1-0.9-0.4-1.5-0.6c1.6-0.9-1-1.8-1.7-1.7c-1.6,0-2.7-1.2-3.9-2c0.6,0.1,0.7,1,1.5,0.5c-0.6-0.5-1.1-0.7-1.6-0.6
			c-0.6-0.4-1.3-0.7-2.1-0.5c1.3-1.8-3.9-2-3.4-3.8c-0.3,0-0.6,0.1-1,0.2c0.2-0.2,0.2-0.4,0.3-0.5c-2.4-0.9-3.3-1.6-3.7-2.8
			c-2.5,1-3-2.3-5.1-2.4l-0.5-1.5c-1.2,1.4-8.3-5.1-9.8-6.5c1.3,0.6,0.8-0.6-0.2-0.9c-0.9,1.8-1.6-1.9-2.8-2v0.8
			c-0.7-0.7-1.3-1.2-2.2-1.7h-5C21.8,2,24,3.7,26.3,5.3c32.1,25.5,71.1,44.9,108,61.4c-0.2,0.2-0.5,0.5-0.9,0.8
			c1.1,1.2,2.8,2.5,3.7,0.4c0.7,1.2-0.2,2.6,1.5,2.9c-0.7,2.1-2.4-0.3-3.1,1c1.5,1.4,0.1,0.6-1.1,0c4.1,7.9-37.2-15-40.6-16
			c1.4-1.7-0.8-2.6-1.3-0.5C62.6,39.9,34.1,21.8,8.7,0H0v600.3h300V102.8C286.1,102.8,272.1,102,258.5,101z M140.7,68.5l0.3,0.9
			l-1.3,0.5l-0.3-0.9L140.7,68.5z M112.8,54.4l-0.3-0.8l0.9-0.3l0.3,0.8L112.8,54.4z M293,240c2.9,3.3,5.1,5.7,6.2,6.9
			C297.1,244.6,295,242.4,293,240z"/>
		<path class="st0" d="M121.9,56.7c-0.8-0.3-1.2-0.2-1.8,0.2C120.7,57,121.2,57.3,121.9,56.7z"/>
	</g>
</g>
</svg>
