<?xml version="1.0" encoding="utf-8"?>
<!-- Generator: Adobe Illustrator 26.5.0, SVG Export Plug-In . SVG Version: 6.00 Build 0)  -->
<svg version="1.1" id="a" xmlns="http://www.w3.org/2000/svg" xmlns:xlink="http://www.w3.org/1999/xlink" x="0px" y="0px"
	 viewBox="0 0 300.1 600.6" style="enable-background:new 0 0 300.1 600.6;" xml:space="preserve">
<style type="text/css">
	.st0{fill:#FFFFFF;}
</style>
<path class="st0" d="M191.6,71.3c0.4-0.9,0.8-1.8,1.2-2.8c-0.2,0-0.3-0.1-0.5-0.2c-0.4,0.9-0.8,1.8-1.3,2.8
	C191.2,71.1,191.4,71.2,191.6,71.3z M178.5,73.1c14.2-24.8,17.6-67.6,53.7-66.9c28.8,0.9,28.9,34.7,53.8,20
	c4.7-3.6,13.6-5.7,14.1-12.1C261.7,53,265.4,2.2,229.4,4.7c-34.5,2.4-39.6,43.2-51.5,68.4H178.5L178.5,73.1z"/>
<path class="st0" d="M200.3,49l-1.8,5.6c0.2,0,0.4,0.1,0.5,0.1c0.9-1.8,2.4-3.5,1.8-5.7C200.7,49.1,200.5,49,200.3,49z M202.7,43.8
	c0.3-1.1,1.5-2.1,1-3.2c-1.4,1.7-2.4,4.6-2,5.4C202,45.4,202.3,44.6,202.7,43.8z M177.6,81.6c-1.4,0.6-2.7,1.4-2.3,3.2
	c0.3-0.3,4.9-2.5,4.4-3.2C179,81.6,178.2,81.4,177.6,81.6L177.6,81.6z M205.4,37c-1.5-0.3-2,2.3-1.7,3.4
	C204.3,39.3,204.8,38.1,205.4,37z M151.2,51.5l3.8,5.8C153.9,55.2,153.8,52.8,151.2,51.5z M158.2,72.4c0.2-0.1,0.3-0.1,0.5-0.2
	c-0.2-0.8-0.4-1.5-0.6-2.3c-0.2,0.1-0.4,0.1-0.5,0.2C157.8,70.9,158,71.7,158.2,72.4z M205.8,35.2c0.1,0.1,0.3,0.1,0.4,0.2
	c0.3-0.5,0.6-1.1,0.9-1.6c-0.2,0-0.4-0.1-0.6-0.1C206.3,34.1,206.1,34.7,205.8,35.2L205.8,35.2z"/>
<path class="st0" d="M164.6,77.7c2.3,3.1,2.3,8.9,7.8,7.6c-9.1-6.6-8.5-19.2-11.8-29c-10-27.3-35.8-14.5-49.6,2.3
	C76.7,107.1,71.1,173.4,10,199.7l0.2,0.2c-0.6,0.1-1.1,0.3-1.6,0.6c-2.6,0-5.8,0.9-8.5,1.5v2.1c33.2-8.3,59.8-37.2,73.7-67.6
	c13.1-26,21.6-54.9,40-78c9.3-12.1,31.5-25.2,42-7.7C161.2,59,159.9,69.4,164.6,77.7z"/>
<path class="st0" d="M139,45.9c1.9,0.2,3.4,0.3,4.9,0.4c0.1-0.3,0.1-0.6,0.2-0.8C142.5,46.1,141.3,44.2,139,45.9L139,45.9z"/>
<path class="st0" d="M0,191.8c1.4-0.5,2.5-0.8,3.3,0.7l-0.4-0.7c54.9-22,64.8-84,92.3-129.6c22.6-36.6,71.7-49.5,80.3,4
	c8.4-16.1,11.6-34.9,22.9-49.3c18.4-25.1,53.7-18.5,70.7,4.8c9.5,8.5,24.4-6.9,30.8-14V0H0V191.8z M300,30v-0.2l-3.7,2.2
	c0,0,0.1,0.1,0.1,0.2L300,30z"/>
<path class="st0" d="M182,84.4l-5.9,3.5C178.4,87.2,180.6,86.4,182,84.4z M178.7,104.8c0.1,0.1,0.1,0.3,0.1,0.4
	c1.2-0.5,2.5-0.9,3.8-1.4c0-0.2-0.1-0.3-0.1-0.5L178.7,104.8z M149.7,97.8c0.1-0.1,0.3-0.3,0.5-0.4l-1.4-1.4
	c-0.1,0.1-0.2,0.2-0.3,0.2C148.9,96.8,149.3,97.3,149.7,97.8z M163.5,105.6c1,0.2,2,0.3,3,0.5v-0.2c-1-0.2-2-0.5-2.9-0.7
	C163.6,105.3,163.5,105.4,163.5,105.6z M192.9,97.7c0.1,0.1,0.3,0.2,0.4,0.4l1.7-1.7l-0.3-0.3C194.1,96.6,193.5,97.2,192.9,97.7
	L192.9,97.7z"/>
<path class="st0" d="M223.1,31c13.2-11.9,22.8,28.1,53,22.2c6-1,24.1-3.9,24-11.1c-0.6,0.2-2.3,0.6-2.9,0.8l0.5,0.8l-1.7,1
	c0-0.3-0.1-0.5-0.1-0.8c-0.7,0.3-1.5,0.6-2.1,0.9c0,0.1,0.1,0.2,0.1,0.2c0.3-0.1,0.6-0.1,0.9-0.2c0.1,0.2,0.1,0.3,0.2,0.4
	c-3.3,1-6.6,4.3-9.8,3.1c-0.5,0.3,0.4,1.2,0.5,1.4c-1.9-0.2-3.2-0.9-4.4,0.6l-0.1-0.1c0.2-0.2,0.4-0.3,0.9-0.8
	c-1.5,0.2-2.6,0.3-3.7,0.4c0,0.6,0.6,0.4,1.4,0.7c-3.4,0.3-6.3,0.5-9.4,0.7c0.5-0.3,0.8-0.5,1.3-1c-3-0.5-5.1,2.1-6.9-0.9
	c-1.3,1.7-2.3-0.2-3.5-0.4c-1.4,0.8-1.9-0.2-3-0.7c0.4-0.1,0.6-0.2,1-0.4c-0.9-0.5-1.6-1-2.6-1.5c0.1,0.5,0.1,0.9,0.1,1.4
	c-1.5-1-2.9-1.8-4.4-2.8c0.2-0.8-1.9-3.3-3.4-3.5c0.5,0.6,0.9,1.1,1.3,1.5c-2.8-0.9-2.9-4.3-5.6-5.4c-2.1-1-1.9-3.6-4.6-4
	C227.6,17.6,215.8,37,212,50.4c0,0-0.2-0.2-0.6-0.4c-0.2,0.7-0.3,1.1-0.4,1.6c0.4,0.1,0.7,0.2,1,0.3c-4.1,10.8-9.2,20.2-13.5,30.9
	l-0.4-0.4c-4.2,5.9-9.3,12.3-16.4,14.8c-2.9-0.6-4.7,1.8-7.1,3.1c-2.2-2-6.5-0.7-9.5-1.9c-0.1,0.2-0.1,0.3-0.2,0.4
	c-3.7-1.1-6.9-3.7-9.8-6.8c1,0.3,1.3,0.7,2,0.1c-4.1-2-4.2-6.1-5.2-9.7l-0.6,0.3c0.2,0.4,0.4,0.9,0.6,1.3c-3.1-1.7-1.2-6.2-3.5-8.7
	c0.3-2.1-0.9-3.5-0.7-5.7c0.4-1.2-0.9-2.7-1.5-4.3c-0.1,0-0.1,0.1-0.1,0.1c-1.2-3.6-1.7-8.4-6.6-7.9c4.8,1.8,3.7,15.2,6.2,20.4
	c0.3,2.2-0.1,4.7,2.4,6c1.2,2.7,2.4,5.8,4.2,8.2c0.1,3,3.4,3.7,3.9,6.2c1.3,1.2,4.8,1.7,4.5,3.6c0.9-0.2,2.3-1.1,3.2-0.8
	c1.1,1.4,3,0.6,4.4,1c1.3,0.3,3,1.4,4.6-0.1c0.6-0.1,1.9,0.6,2.6,0.4C207.1,93.3,209.1,55.6,223.1,31L223.1,31z"/>
<path class="st0" d="M217.1,57.6c0.2-0.7,0.4-1.5,0.6-2.2h-0.1c-0.3,0.7-0.5,1.4-0.8,2.2C216.9,57.5,217,57.6,217.1,57.6z
	 M90.4,140.9c12.9-26,21.1-55.9,39.9-78.1c-5.9,4.9-9.9,11-14.2,17.1c-0.7,2.1-1.8,4.2-3.3,5.9c0.2,3.4-3.1,6.2-4,9.3
	c-1.2,1.9-7.4,20.2-8.1,16.8c-2.1,3.1-1.6,8.2-5.4,10.5c1.8,1.2-0.9,3.5-1.4,5.1h0.7c-0.5,1.2-2.1,1.3-2.1,2.8
	c-1.3,4.9-3.7,9.1-5.6,13.6c-2.3,2.3-2.3,6.4-4.4,8.7c-2.1,0.2-1.1,2.6-2.7,3.8c0.1,0,0.4,0.1,0.9,0.2c-3,2.1-3.3,6.5-6.4,7.8
	c0.7,3.4-3.1,3.5-3.6,6.4c-0.2-0.1-0.3-0.2-0.5-0.4c-3.8,3.8-6.2,9.7-11.4,12.3c-0.4,3.3-5.3,5.4-7.2,8.6l-0.5-0.8
	c-1.7,1.6-3.1,3.1-4.6,4.8c0.1,0.1,0.3,0.2,0.4,0.4c-3.8,0.8-5.1,5.4-8.9,5.3c-3.2,4.2-8.5,5.4-12.8,8.3v-0.4
	c-1.2,0.5-2.4,1-3.6,1.6l0.2,0.4c0.5-0.2,1-0.5,1.6-0.7c0,0.1,0.1,0.1,0.2,0.2c-2.2,1.7-4.3,2.3-6.4,3.5c-0.7-1.4-2.6-0.3-3.7,0.3
	c-1.5,0-2.9,0.8-4.4,0.9c-2.1-0.4-3.5,1.9-5.9,1c-0.7,0.4-2,0.4-2.3,1.4c-0.3-0.1-0.5-0.1-0.8-0.2v2.8
	C39.1,214.4,75.9,176.4,90.4,140.9L90.4,140.9z M274,40.1c0,0.2,0.1,0.4,0.1,0.6c1.9-0.4,3.8-0.8,5.6-1.2c0-0.2,0-0.3-0.1-0.5
	C277.8,39.3,275.8,39.7,274,40.1z M217.1,20.7c1.6-1,3.2-2.1,4.8-3.1C220.6,17.4,218.1,19.3,217.1,20.7z M246.3,23.4
	c-3.3-3.7-7.3-6.5-13.1-6.8C238.3,17.9,242.7,20.1,246.3,23.4z M248.5,25.6c0.9,1,1.7,2,2.6,3c0.1-0.1,0.3-0.2,0.4-0.3
	c-0.9-1-1.7-2-2.5-3C248.8,25.4,248.7,25.5,248.5,25.6z"/>
<path class="st0" d="M298.9,26.7c1.2-0.5,1.2-2.1,1.1-3.3c-43.8,33.7-38.3-16.3-73.9-11.9c-21.7,2.8-27.4,27.2-33.7,44.5
	c-2.4,6.2-5.9,11.6-8.3,17.7c-0.8,2-4.8,4.1-1.9,6.1C195.8,62.2,197,38.4,211,21.1C253.3-11.1,250.9,62.6,298.9,26.7z"/>
<path class="st0" d="M283.5,38c0,0.2,0.1,0.4,0.1,0.6c1.7-0.6,3.4-1.3,5.1-1.9C287.7,35.8,285.1,37.8,283.5,38z M188.8,92.9
	c0.9-0.9,1.8-1.8,2.6-2.7c-0.2-0.1-0.3-0.2-0.5-0.4c-0.8,0.9-1.6,1.9-2.5,2.8C188.6,92.8,188.7,92.8,188.8,92.9z M13.9,203.7
	c0-0.1-0.1-0.2-0.1-0.2c-0.2,0-0.3,0.1-0.5,0.1c0,0.1,0.1,0.1,0.1,0.2c-0.1,0.1-0.2,0.2-0.4,0.3C13.4,203.9,13.6,203.8,13.9,203.7
	L13.9,203.7z M6.6,196l0.1,0.1C59.6,173,70.6,121.2,94.8,74.8c20.5-41,66.2-61.5,76.4-1.8c-4-57.7-53.4-43.8-74.8-4
	C71.7,114.8,58.7,174,5.2,195.3c-1.5-0.4-3.5,0.5-5.2,0.6v1.6C2.2,196.8,4.4,196.4,6.6,196L6.6,196z M25,196.9
	c-2.2,1.1-4.5,2.2-6.7,3.4c0.1,0.1,0.2,0.3,0.3,0.5c2.2-1.2,4.5-2.3,6.7-3.5C25.2,197.1,25.1,197,25,196.9z M5.4,206.6
	c0.6-0.1,1.1-0.3,1.7-0.4v-0.5c-2.3,0.6-4.6,1-6.8,1.5H0.1v0.6C1.8,207.3,3.6,207,5.4,206.6L5.4,206.6z M30.6,193.7l4.8-2.9
	c-0.1-0.1-0.1-0.2-0.2-0.3l-4.8,2.9C30.5,193.5,30.5,193.6,30.6,193.7z M41.1,185.9c1.1-1,2.2-2,3.3-2.9c-0.1-0.1-0.2-0.2-0.4-0.3
	l-3.3,3C40.9,185.7,41,185.8,41.1,185.9z"/>
<path class="st0" d="M138.2,53.6c18.7-2.2,10.4,39.1,29.1,42.6c41.2,5,32.6-68.5,62.3-72.2c16.2,1.1,20.8,21.8,37.3,23.5
	c7.8,1.8,35-3.8,33.1-13.5c-16.8,12-39.3,15.4-52.6-3.4c-9.8-15.9-32.5-11.9-37.4,5.7c-6,14.2-10.4,29.1-18,42.5
	c-5.3,9.1-20.8,19.7-30,10.8c-11.2-10.3-6.9-50.3-29.8-37.2c-19.5,10.8-26.1,33.8-35.9,52.2c-15.9,41.2-38,82.8-80.3,101.9
	c0.2,0.3,0.4,0.5,0.5,0.8c-3.9,2.9-17.2,1.1-16.4,6.5c33.2-5.2,58.8-30.8,76.5-58.1C97.7,122.9,102,74.2,138.2,53.6L138.2,53.6z"/>
<path class="st0" d="M0.1,227.9V600c67.6,0,234.4-0.1,300,0.6L300,53.8c-26.8,14.5-53,7.5-71.4-15.9c-12.5,31.2-28.8,85.9-73.3,68.7
	c-17.4-4.4-18.5-44.3-24-31.9c-12.1,18.4-20,39.4-28.3,59.8c-15.3,35.3-40.1,67.8-75.5,84.7C27.5,219.2,10.3,226.3,0.1,227.9z
	 M111.8,88.8l-0.3-0.3c-0.5,0.4-1,0.8-1.5,1.3l0.4,0.4C110.8,89.7,111.3,89.2,111.8,88.8z M3,215.9c0.2-0.1,0.5-0.2,0.8-0.4
	c-0.6-0.4-1-0.3-1.4,0.2C2.6,215.7,2.8,216,3,215.9z M10.5,213.9c-0.5-0.2-0.9-0.2-1.1,0.6c0.5-0.1,0.8-0.2,1.2-0.3
	C10.6,214,10.6,213.9,10.5,213.9z M6.3,214.9c-0.2,0.1-0.5,0.1-0.7,0.2c0.1,0.1,0.1,0.2,0.2,0.3l0.7-0.3L6.3,214.9z"/>
<path class="st0" d="M73.1,147.2c1-2.3,2-4.7,3-7c-0.2-0.1-0.4-0.1-0.6-0.2c-1.1,2.3-2.2,4.6-3.3,7C72.5,147,72.8,147.1,73.1,147.2z
	 M112.5,65.9c-0.2-0.1-0.3-0.2-0.5-0.3c-0.9,1.2-1.9,2.4-2.8,3.6c0.2,0.1,0.3,0.2,0.5,0.3C110.6,68.3,111.6,67.1,112.5,65.9z
	 M114.9,61.9l-1,0.9c0.2,0.1,0.4,0.3,0.6,0.4l1.5-2.1C116,61.1,114.9,61.9,114.9,61.9z M118.8,58c-0.2-0.1-0.4-0.2-0.7-0.4l-1.9,3.1
	C117,59.9,117.9,59,118.8,58z M47.9,179.9c1.2-1.5,2.5-3,3.8-4.6c-0.2-0.1-0.3-0.2-0.5-0.3c-1.2,1.5-2.5,3.1-3.7,4.6
	C47.6,179.7,47.8,179.8,47.9,179.9z M89.2,109.5c-0.5,1.2-1.1,2.4-1.6,3.6c0.2,0,0.3,0.1,0.5,0.1l1.7-3.6
	C89.6,109.7,89.4,109.6,89.2,109.5z M127.3,50.5c-1.7,1.2-3.3,2.4-5.2,3.8C124.8,53.3,127.4,51.5,127.3,50.5z M69.7,153.1l1.3-2.5
	c-0.2-0.1-0.3-0.1-0.5-0.2c-0.5,0.8-0.9,1.6-1.4,2.5C69.3,153,69.5,153,69.7,153.1z M85.3,118.1c-0.3,0.9-0.7,1.7-1,2.6l0.5,0.1
	c0.4-0.8,0.7-1.7,1.1-2.5C85.7,118.2,85.5,118.2,85.3,118.1z M79.8,131.7c-0.9,1.5-1.7,3.1-2.6,4.6c0.2,0.1,0.5,0.1,0.7,0.2
	c0.8-1.5,1.7-3,2.6-4.6C80.3,131.8,80,131.8,79.8,131.7z"/>
</svg>
