<?xml version="1.0" encoding="utf-8"?>
<!-- Generator: Adobe Illustrator 26.5.0, SVG Export Plug-In . SVG Version: 6.00 Build 0)  -->
<svg version="1.1" id="a" xmlns="http://www.w3.org/2000/svg" xmlns:xlink="http://www.w3.org/1999/xlink" x="0px" y="0px"
	 viewBox="0 0 728 90" style="enable-background:new 0 0 728 90;" xml:space="preserve">
<style type="text/css">
	.st0{fill:#FFFFFF;}
</style>
<path class="st0" d="M616,17.7c0-0.1,0.1-0.2,0.1-0.4l-3.6-1.4C612.7,17.2,615,17.3,616,17.7L616,17.7z"/>
<path class="st0" d="M632.7,26c0.1,0.3,0.5,0.5,1,0.8C635,25.1,632.6,24.3,632.7,26z"/>
<path class="st0" d="M618.3,18.2c1.2,1.1,2.6,1.5,4.2,1.5C621.9,19.2,619.6,18.4,618.3,18.2z"/>
<path class="st0" d="M616.9,18.9V19V18.9z"/>
<path class="st0" d="M617.6,18.3c0.1-0.1,0.1-0.2,0.2-0.4c-0.2-0.1-0.4-0.2-0.7-0.3C617,17.9,617.4,18.1,617.6,18.3L617.6,18.3z"/>
<path class="st0" d="M617,19.5c0-0.2,0.2-0.5-0.1-0.5c-0.1,0.1-0.2,0.2-0.2,0.4C616.8,19.3,616.9,19.4,617,19.5L617,19.5z"/>
<path class="st0" d="M661.5,31.8c0-0.1,0-0.1,0.1-0.2c-0.3-0.1-0.7-0.2-1-0.3c0,0.1-0.1,0.2-0.1,0.3
	C660.8,31.6,661.1,31.7,661.5,31.8z"/>
<path class="st0" d="M658.9,31.1c-2.8-0.7-5.7-2.1-8.6-2.1C652.8,29.6,656.7,31.6,658.9,31.1z"/>
<path class="st0" d="M612.6,15.9L612.6,15.9L612.6,15.9z"/>
<path class="st0" d="M634,23c-0.6,1.2-0.4,1.5,0.8,1.5C635,23.8,634.8,23.2,634,23z"/>
<path class="st0" d="M637.6,25.7c0-0.7-0.3-0.8-0.8-0.8l0,0c0,0.1-0.1,0.2-0.1,0.3C637,25.4,637.3,25.5,637.6,25.7L637.6,25.7z"/>
<path class="st0" d="M650.1,29c-1.9-1-4.8-2.2-6.7-1.7C645.7,27.6,647.8,28.6,650.1,29z"/>
<path class="st0" d="M581.5,0h-1.3c1.9,1.4,3.7,2.8,6.2,2.8C584.8,1.8,583.1,0.9,581.5,0L581.5,0z"/>
<path class="st0" d="M665.4,33.3c0-1.1-0.9-1.1-1.8-1.1C663.6,32.5,664.4,33,665.4,33.3z"/>
<path class="st0" d="M728,40.1c-6-0.6-12-1.5-18-2.5c0,0,0,0,0,0c0,0,0-0.1-0.1-0.1c0,0-0.1-0.1-0.1-0.1c0,0-0.1-0.1-0.1-0.1
	c-0.1,0-0.1,0-0.2,0c0,0,0,0-0.1,0c0,0-0.1,0-0.1,0c-0.1-0.3-0.4-0.6-0.9-0.6c-2.2,0-4.3-0.6-6.4-1.2c-2.1-0.6-4.2-1-6.4-1.3
	c-4.2-0.7-8.3-1.1-12.5-1.9c-4.1-0.7-8-2-12.1-3.1c-2.1-0.6-4.2-0.8-6.3-1.2c-1.9-0.4-3.7-1.5-5.7-1.7c0,0,0,0,0,0
	c-8.2-2.9-22-2.7-26.2-8.4c0.3-1.8-1.4-0.4-1.7,0.4c-2.1,0-3.9-1.2-5.9-1.4c1-1.1-1.2-2.3,0.7-2.3c-0.2-0.6-0.4-1-0.6-1.6
	c-1,1-2.1,1.3-1.2,2.7C612.7,11.3,601.1,6,589.9,0h-2.1c15,7.9,30,15.2,43.7,22.8c-2.2-0.3-4-1.5-6.1-1.7c1.4,1,3.1,1.1,4.6,1.9
	c-0.3,0.5-0.5,0.9-0.8,1.4c1.2,0.7,1.5,0.4,2.1-0.7c2.4,0.9,1.7-1.5,1-2.8c7.4,3,18.9,5.2,28.8,7.8c0.4,0.1,0.7,0.3,1.1,0.4
	c1,0.4,2,0.7,3,0.9c2.1,0.4,4.2,0.7,6.3,1.3c4,1.2,7.9,2.3,12.1,3c4.2,0.7,8.3,1.1,12.5,1.9c2.1,0.4,4.2,0.9,6.3,1.4
	c2,0.5,4,1,6.1,1c0.1,0,0.2,0,0.2,0c0.5,0.1,0.9,0.2,1.4,0.4c0.2,0,0.3,0,0.4-0.1c5.7,1.3,11.5,2.4,17.4,3.2V40.1z"/>
<path class="st0" d="M587,3.1L587,3.1L587,3.1z"/>
<path class="st0" d="M587.5,3.7c0.1-0.1,0.1-0.2,0.2-0.3c-0.2-0.1-0.5-0.2-0.7-0.3c0,0.1-0.1,0.2-0.1,0.3
	C587.1,3.5,587.3,3.6,587.5,3.7L587.5,3.7z"/>
<path class="st0" d="M606.6,13c-0.7-0.4-1.1-1.1-2-0.4C605.2,13.1,605.7,13.3,606.6,13z"/>
<path class="st0" d="M597.1,8.6c-0.2-0.6-0.6-0.8-1.2-1C596,8.5,596.4,8.6,597.1,8.6z"/>
<path class="st0" d="M588.3,4.1c1,0.4,1.9,1.4,3.1,1.3C590.3,5,589.5,4.1,588.3,4.1z"/>
<path class="st0" d="M611.5,15.7c0-0.1,0.1-0.2,0.2-0.3c-0.2-0.1-0.5-0.2-0.7-0.4c0,0.1-0.1,0.2-0.2,0.3
	C611.1,15.4,611.3,15.6,611.5,15.7L611.5,15.7z"/>
<path class="st0" d="M602.5,11.2c-1-0.8-1.9-1.2-3-1.5C600.2,10.6,601,11.3,602.5,11.2z"/>
<path class="st0" d="M620.9,27.4l0.2-0.3c-0.5-0.2-0.9-0.5-1.4-0.7c0,0.1-0.1,0.2-0.1,0.3C620,27,620.4,27.2,620.9,27.4L620.9,27.4z
	"/>
<path class="st0" d="M609.9,22.9c0-0.1,0.1-0.2,0.1-0.3c-0.3,0-0.6-0.1-0.9-0.1l0,0v0.2C609.3,22.8,609.6,22.9,609.9,22.9
	L609.9,22.9z"/>
<path class="st0" d="M626.4,29.5l0.1-0.2l-0.8-0.3c0,0.1-0.1,0.2-0.1,0.3C625.8,29.4,626.1,29.5,626.4,29.5L626.4,29.5z"/>
<path class="st0" d="M586.4,11.4c0.5,0.4,0.7,0.1,0.1-0.2C586.4,11.3,586.4,11.3,586.4,11.4z"/>
<path class="st0" d="M592.9,14.9c0.6,0.2,0.9,0.4,1.5,0.6C594,14.9,593.8,14.4,592.9,14.9z"/>
<path class="st0" d="M649.6,36.6c0-0.1,0-0.2,0.1-0.4c-0.4-0.1-0.8-0.1-1.1-0.2c0,0.1,0,0.2-0.1,0.3
	C648.8,36.4,649.2,36.5,649.6,36.6z"/>
<path class="st0" d="M581.6,8.9c-0.5-0.3-0.7-0.4-1-0.6C580.8,8.6,581.1,8.9,581.6,8.9z"/>
<path class="st0" d="M670.7,34c0-1.2-2.2-0.9-3.1-1.3c0,0.1,0.1,0.2,0.1,0.2l0,0c0.2,2.2,2.2,2,4,2.5C672,34.7,671.7,34.1,670.7,34
	L670.7,34z"/>
<path class="st0" d="M655.2,37.8c-0.5-0.1-0.9-0.2-1.2-0.3c0,0.1-0.1,0.2-0.1,0.3C654.2,38.1,654.6,38.2,655.2,37.8L655.2,37.8z"/>
<path class="st0" d="M651.4,37L651.4,37C649.7,36.4,650.2,38,651.4,37z"/>
<path class="st0" d="M685.3,42.2L685.3,42.2L685.3,42.2C685.2,42.2,685.3,42.2,685.3,42.2z"/>
<path class="st0" d="M679.9,41L679.9,41L679.9,41z"/>
<path class="st0" d="M689.7,45.7C689.7,45.7,689.7,45.6,689.7,45.7L689.7,45.7C689.7,45.6,689.7,45.7,689.7,45.7L689.7,45.7z"/>
<path class="st0" d="M687.4,37.2c0.1,0.8,0.7,0.9,1.5,1.1C688.8,37.4,688.2,37.3,687.4,37.2z"/>
<path class="st0" d="M687.4,37.2L687.4,37.2L687.4,37.2z"/>
<path class="st0" d="M684.2,36.8L684.2,36.8c-0.2,0-0.4,0-0.6,0c0,0.4,0.4,0.3,0.7,0.4C684.3,37.1,684.2,37,684.2,36.8L684.2,36.8z"
	/>
<path class="st0" d="M573.8,12.6c-0.7,0.1-0.8,0.4-0.6,0.8C573.8,13.7,573.7,13.1,573.8,12.6z"/>
<path class="st0" d="M577,13.1c1-0.2,0.4-1.8-0.4-1.4C575.4,11.9,576,13.4,577,13.1z"/>
<path class="st0" d="M576.4,14l0.1-0.2c-0.3-0.1-0.5-0.3-0.8-0.4l0,0c0,0.1-0.1,0.2-0.1,0.2C575.9,13.7,576.2,13.8,576.4,14
	L576.4,14z"/>
<path class="st0" d="M614.6,29.5c-0.1,1.2-0.9,1.3-2,1.4c0.3,2.1,2.5,3.5,3.5,1C620.3,34.4,617.2,28.2,614.6,29.5z M614.9,31.6
	l-0.2-0.6l0.7-0.2l0.2,0.6L614.9,31.6z"/>
<path class="st0" d="M569.7,6.2c-0.5-0.2-1-0.3-1.3,0.2C567.9,7.8,570.4,7.7,569.7,6.2z"/>
<path class="st0" d="M594.1,23.9c0.3,0,0.6-0.1,0.9-0.2C594.6,23.3,594.3,23.4,594.1,23.9z"/>
<path class="st0" d="M631,38.4c-0.9,0.5-0.3,1.8,0.7,1.4C632.5,39.4,631.9,37.9,631,38.4z"/>
<path class="st0" d="M559.9,3.4c-0.7,0.1-0.7,0.7-1.1,1.1C557.6,6.4,560,5.6,559.9,3.4z"/>
<path class="st0" d="M708,45.1c-0.1-0.1-0.1-0.1-0.2-0.1c-0.7-0.1-1.3-0.2-2-0.3c-2-0.4-4-0.8-5.9-1.2c0.4,0.2,0.8,0.3,1.2,0.5
	c-8.7-1.3-17.4-2.8-26-4.9c-2.8-0.7-5.7-1.8-8.6-1.8c-0.8-0.3-1.6-0.6-2.4-1c-1-0.4-2-0.8-3-1.1c-2-0.7-4-1.2-6.1-1.7
	c-0.4-0.1-0.7,0.3-0.6,0.6c-26.8-8.7-54.1-20-79.9-34.2h-3.2c29,16.8,61,30.8,93,37.6c0.6,0.3,1.2,0.5,1.8,0.7
	c0.1,0,0.1,0.1,0.2,0.1c0.1,0,0.2,0.1,0.3,0.1c0.2,0,0.3,0,0.4-0.1c2.5,0.1,4.8,1,7.2,1.6c2.6,0.7,5.3,1.3,8,1.8
	c5.4,1.1,10.8,2,16.2,2.8c2.3,0.4,4.7,0.7,7,1c7.1,2.4,14.8,3.9,22.7,4.7v-2.4C721.3,47.3,714.6,46.3,708,45.1z"/>
<path class="st0" d="M708.6,49.4c-0.4-0.4-0.5-0.4-0.8-0.1C708,49.8,708.2,49.7,708.6,49.4z"/>
<path class="st0" d="M712.7,49.9L712.7,49.9c-0.9-0.1-1.6-0.1-2.3-0.2C710.7,50.6,712.2,50.3,712.7,49.9L712.7,49.9z"/>
<path class="st0" d="M698.8,26.7c5.7,2.5,15.1,1.5,20.7,3.7c2.8,0.5,5.7,1,8.6,1.4V0H609.7c3,1.4,5.9,2.8,8.9,4.2
	c-1.4,2.2-0.2,1.8,1.2,3c-1.1-0.3-2.2-0.7-3.2-1c1-0.9-0.8-1.6-1.6-1.6c-0.3,0.3-0.3,0.7-0.1,1c-4.6-1.6-9.2-3.5-13.6-5.6h-1.9
	c10.4,5.3,21,10.6,31.8,14c-0.8,1.8,1.3,2.9,1.5,0.6c2.5,1.2,5.8,1.1,7.8,3.3c-0.9-0.2-1.9-0.4-2.8-0.6c-0.7,2.7,4.9,4.2,5.7,1.6
	c5-0.3,11.6,2.6,17.4,4.1c0.1,0.1,0.2,0.2,0.3,0.2c2.3,0.5,4.7,1,7,1.4c0.5,0.2,1.1,0.3,1.6,0.5c2.6,0.7,5.2,1.2,7.9,1.5
	c0.1,0,0.3,0,0.4,0.1c3.2,0.7,6.4,1.3,9.6,1.9c1.9,0.5,3.7,0.9,5.6,1.3c1.6,0.3,3.2,0.6,4.8,0.8c0.7,0.1,1.4,0.3,2.2,0.4
	c8.3,3,18,4.3,27.9,5v-1.7c-8.5-0.9-16.8-2.2-24.9-3.7c-0.1-0.1-0.2-0.2-0.3-0.2c-1.2-0.2-2.4-0.4-3.6-0.6
	c-3.8-0.8-7.7-1.5-11.5-2.3c-0.4-0.1-0.9-0.2-1.3-0.4c-2.8-0.8-5.8-1.3-8.7-1.7c-2.5-0.5-5-1-7.4-1.5c-0.6-0.1-1.2-0.3-1.8-0.4
	c-0.7-0.2-1.4-0.4-2-0.6c-1.4-0.5-2.8-0.9-4.2-0.9c-4.9-3.4-16-1.2-18.1-7.6c-0.6-0.2-0.7,0.2-1,0.6c4,3.9-11.2-1.3-10.5-3.1
	c2.8,1.2,4-0.7,6.9,0.9c0-0.4-0.1-0.7-0.1-1.1c7.6,2,15.2,4.4,22.9,6.4C663.2,19.6,698.8,26.7,698.8,26.7z M619.8,8.6
	c1.3-1,2.1-1.5,1.6-3.1C635.5,8.8,633.1,15.4,619.8,8.6z"/>
<path class="st0" d="M723.5,58.8c0.6,0.1,1.1,0.2,1.6,0.3C724.5,58.7,723.9,58.6,723.5,58.8z"/>
<path class="st0" d="M719.7,51.4c0.4,0,0.9,0.1,1.3,0.1C720.6,50.7,720.2,51.1,719.7,51.4z"/>
<path class="st0" d="M699.1,40.1c-0.2,0-0.3-0.1-0.5-0.1C698.6,40.3,698.9,40.1,699.1,40.1z"/>
<path class="st0" d="M707.2,41.5c0,0.1,0,0.2-0.1,0.3c2.5,0.5,4.9,1.8,7.4,1.3C712.4,41.9,709.6,42.1,707.2,41.5z"/>
<path class="st0" d="M700.8,40.1c0.5,1.1,3,1,4.2,1.2C704.4,40.3,702.1,40.4,700.8,40.1z"/>
<path class="st0" d="M723.5,51.8L723.5,51.8L723.5,51.8z"/>
<path class="st0" d="M714.9,42.9c0,0.1,0,0.2,0,0.2c0.3,0,0.5,0.1,0.8,0.1c0-0.1,0-0.2,0-0.2C715.4,43,715.1,43,714.9,42.9z"/>
<path class="st0" d="M722.8,51.5c0,0.1,0,0.2,0,0.3h0.7v-0.2C723.2,51.5,723,51.5,722.8,51.5L722.8,51.5z"/>
<path class="st0" d="M728,45.1v-0.7c-3.7-0.4-7.5-0.8-11.1-1.1C720.3,44.3,724.2,44.9,728,45.1z"/>
<path class="st0" d="M678.3,35.5c0.5,0.7,1.8,0.7,2.6,1c-0.1-0.2-0.1-0.5-0.2-0.7C679.9,35.6,679.1,35.6,678.3,35.5L678.3,35.5z"/>
<path class="st0" d="M693.1,38.6c-0.1,1.1,0.8,1.1,1.7,1.3l0,0C694.8,38.8,693.9,38.9,693.1,38.6z"/>
<path class="st0" d="M692.8,53.6L692.8,53.6L692.8,53.6L692.8,53.6L692.8,53.6z"/>
<path class="st0" d="M692.8,53.7L692.8,53.7L692.8,53.7L692.8,53.7L692.8,53.7z"/>
<g>
	<path class="st0" d="M583.9,10.1L583.9,10.1c0,0.1,0,0.1,0,0.1C583.9,10.1,583.9,10.1,583.9,10.1z"/>
	<path class="st0" d="M590.8,14c-0.7-0.3-1-0.2-1.6,0.1C589.7,14.2,590.2,14.5,590.8,14z"/>
	<path class="st0" d="M607,26.8c6.3-1,13.7,4.1,19.9,6.2c13.2,3.8,26.3,8.1,39.7,10.9c0.2,0.1,0.4,0.3,0.6,0.3
		c5.9,1.2,11.6,3,17.4,4.2c5.9,1.2,11.8,2.8,17.9,2.7c0.4,0,0.7-0.1,0.9-0.3c0.1,0.1,0.2,0.1,0.3,0.1c0.1,0,0.2,0,0.2-0.1
		c5.5,3.2,14.9,4.3,24.1,4.8v-2.7c-2.9-0.2-5.8-0.6-8.5-1.2c-0.6-0.5-1.5,0-1.7-0.8c-0.3-0.9-1.2,0-0.6,0.6c-3.3-1.2-6.9-0.7-10.4-2
		c0-0.1-0.1-0.3-0.2-0.3l0.1,0.4l-1.8,0.5c0-0.1-0.1-0.4-0.2-0.5l1.8-0.5c-0.6-0.5-1.8-0.4-2.6-0.3c0,0,0,0,0,0c0,0,0,0-0.1-0.1
		c-0.1,0-0.2-0.1-0.2-0.1c-0.2-0.4-0.6-0.6-1.2-0.6c-0.1,0-0.2,0-0.2,0c-0.1,0-0.3,0-0.5,0c0,0,0,0,0,0c0,0,0,0,0,0
		c0-0.1,0-0.1-0.1-0.2c-0.1-0.1-0.2-0.2-0.3-0.2c0,0-0.1,0-0.1,0c-0.1,0-0.2,0-0.3,0.1c-0.2,0.1-0.5,0.2-0.7,0.3
		c-0.5,0-0.9-0.1-1.4-0.1c0,0,0-0.1-0.1-0.1l-0.1-0.1c-0.1,0-0.1-0.1-0.2-0.1c-0.1,0-0.1,0-0.2,0c-0.1,0-0.1,0-0.2,0.1
		c0,0,0,0,0,0.1c-0.3,0-0.5-0.1-0.8-0.1c0,0,0,0,0,0c0-0.1-0.1-0.2-0.2-0.3c-0.1-0.1-0.3-0.1-0.4-0.1c-0.1,0-0.2,0.1-0.3,0.2
		c0,0,0,0.1-0.1,0.1c-0.9-0.1-1.8-0.3-2.7-0.4c-0.1-0.1-0.2-0.2-0.4-0.2l-1.5-0.2c-0.9-0.2-1.7-0.4-2.6-0.5c0-0.1,0-0.1,0-0.2
		c0,0,0-0.1-0.1-0.1c0-0.1-0.1-0.1-0.2-0.2c0,0-0.1-0.1-0.1-0.1c-0.1,0-0.1-0.1-0.2-0.1c-0.1,0-0.1,0-0.2,0c-0.1,0-0.1,0-0.2,0.1
		c-0.1,0-0.1,0.1-0.1,0.1c0,0,0,0.1-0.1,0.1c0,0,0,0,0,0.1c-0.6-0.1-1.2-0.3-1.8-0.4c-0.5-0.2-1-0.3-1.6-0.4c0,0,0,0,0,0
		c-1.6-0.3-3.2-0.7-4.7-1.1c-0.1-0.1-0.1-0.1-0.2-0.2c-0.6-0.2-1.3-0.4-2-0.5c-0.1,0-0.2,0-0.3,0c-0.6-0.2-1.3-0.3-1.9-0.5
		c-0.1-0.1-0.1-0.1-0.2-0.2c-0.5-0.2-1.1-0.3-1.6-0.3c0,0,0,0,0,0c-0.2-0.1-0.5-0.1-0.7-0.2c-0.1-0.1-0.1-0.2-0.2-0.2
		c-0.1-0.1-0.2-0.1-0.2-0.2c-0.1,0-0.2-0.1-0.3-0.1c-0.1,0-0.1,0-0.2,0c-0.1,0-0.1,0-0.2,0.1c-0.1,0-0.1,0.1-0.1,0.1c0,0,0,0,0,0
		c-1.2-0.3-2.4-0.6-3.7-0.8c-0.3-0.1-0.5,0-0.8,0c0,0,0-0.1-0.1-0.1h0.2c-0.3-1.9-1.7,0.2-3.2-0.5c0.2-0.2,0.4-0.5,0.5-0.7
		c-0.7,0-1.7-0.8-2-0.3l0.6,0.5c-1.7-0.2-3.6-0.1-4.9-1.5c-1.4,1.2-2.5-0.3-4.1-0.3c-1.1,0.2-1.4-1.7-2.4-1c-1,0.8-1.7-0.4-2.6-0.5
		c-0.8-0.7-2.8,0.4-2.8-1.1c-2.4-0.1-4.5-1.2-6.8-1.8c0.6-0.7-0.4-1-1.3-0.2c0.1,0.1,0.2,0.2,0.3,0.3c-1.9-0.6-3.6-1.7-5.8-2
		c0.9-1.4-3.2-0.3-4.3-1.1c0,0,0-0.1,0.1-0.1c0.3,0,0.7-0.2,0.9-0.3c-0.5-0.3-0.8-0.2-1,0c0-0.1-0.1-0.2-0.1-0.3
		c-4.2,0.1-7.3-3-11.4-3.7c0.2-0.1,0.5-0.2,0.8-0.3c-0.8-0.8-1.7-0.4-2.8-1.1c0.2,0.4,0.3,0.6,0.6,1c-1.2-0.4-2.6-0.3-3.3-1.4
		c-0.5-1.8-3.3,0.4-4.2-2.1c-0.6-0.2-1.4,0.3-1.7-0.6c-1.2,0.3-2-0.5-2-1.9c-0.4,0.5-0.5,0.8-0.8,1.1c-0.5-0.3-1.1-0.7-1.6-0.9
		c0.3-2.2-3.2-1-4.7-2.4c-1.2-0.5-1.8-2.1-3.4-1.6c-1.3-1.2-3.2-1.4-4.8-2.4c-0.8-1.2-2.1-1.2-3.2-1.7c-0.5-0.8-1.4-0.9-2.1-1.3
		c0.6-0.2,0.4-0.6,0-0.9c0.1,0.2,0.2,0.6,0.2,0.7l-0.8,0.2c0,0-0.2-0.7-0.2-0.8l0.7-0.2c-0.6-0.4-1.5-0.6-1.3,0.3
		c-1.8-0.4-3.2-1.2-3.9-3c-0.3,0.1-0.2,0.4-0.3,0.8c-0.6-0.3-1.2-0.7-1.8-1c0.6-0.1,1,0.1,1.1-0.3c-0.7-0.2-1.4-0.8-2.1-1.2
		c0,0.4,0.4,0.5,0.6,0.8c-0.2,0-0.3-0.1-0.4-0.1l0.1,0.3L574.1,7l-0.7-2.4l0.2-0.1c-0.5-0.1-1.1-0.2-1.6-0.2
		c-0.9-2.2-4.9-2.2-6.8-4.3h-5C574,8.3,588.1,16,602,23.1c-0.2,0.2-0.5,0.4-0.8,0.6c0.9,1.1,2.4,2.3,3.3,0.5
		c0.5,1.1-0.3,2.3,1.2,2.6c-0.7,1.8-2.1-0.4-2.8,0.8c0.2,0.3,0.4,0.5,0.7,0.8c-0.4,0.1-1-0.6-1.7-0.9c3.3,7.3-32.5-15.2-35.6-16.3
		c1.3-1.4-0.6-2.4-1.2-0.5c-6-3.5-11.8-7.1-17.6-10.8H0v90h728V61.7c-7.9-0.8-15.7-1.8-23.3-3L665.9,50c-1.4-0.4-3.1-0.7-5.2-0.9
		c-16.3-3.4-36.7-9.1-48.4-15.7c-0.2,0.3-0.4,0.5-0.7,0.8c-9.7-3-0.2-2.8-4.9-5.8c-0.2,0.7-0.4,1.3-0.6,1.9
		c-2.1-0.9,0.3-2.5,0.8-3.4l-0.8,0.2l-0.2-0.5l0.9-0.3C606.8,26.3,606.9,26.8,607,26.8z M606.4,25.4l1.2-0.4l0.2,0.8l-1.2,0.4
		L606.4,25.4z"/>
</g>
<path class="st0" d="M674,34.7c0.5,0.7,1.8,0.7,2.6,1c-0.1-0.2-0.1-0.5-0.2-0.7C675.6,34.8,674.8,34.8,674,34.7L674,34.7z"/>
</svg>
