<?xml version="1.0" encoding="utf-8"?>
<!-- Generator: Adobe Illustrator 26.5.0, SVG Export Plug-In . SVG Version: 6.00 Build 0)  -->
<svg version="1.1" id="a" xmlns="http://www.w3.org/2000/svg" xmlns:xlink="http://www.w3.org/1999/xlink" x="0px" y="0px"
	 viewBox="0 0 728 90" style="enable-background:new 0 0 728 90;" xml:space="preserve">
<style type="text/css">
	.st0{fill:#FFFFFF;}
</style>
<g>
	<path class="st0" d="M693.5,39.9c-0.1,0.1-0.1,0.2-0.2,0.2l2.3,1c0-0.1,0-0.1,0.1-0.2L693.5,39.9L693.5,39.9z"/>
	<path class="st0" d="M700,43.7c0.1,0,0.3,0.1,0.4,0.1h0.1c-1.1-0.7-2.1-1.5-3.2-2.2L697,42c0.6,1,1.5,1.3,2.5,1.6
		C699.5,43.6,700,43.7,700,43.7z"/>
	<path class="st0" d="M689.2,37.2l-2.6-1.1c0,0.1-0.1,0.2-0.1,0.3l2.6,1.1C689.1,37.4,689.2,37.3,689.2,37.2z"/>
	<path class="st0" d="M674.5,29.2l-2-0.9c-0.1,0.1-0.1,0.2-0.1,0.3l2,0.8C674.5,29.3,674.5,29.3,674.5,29.2z"/>
	<path class="st0" d="M686.2,35.7c-2.4-1.2-4.7-2.5-7.1-3.7c0,0.1-0.1,0.2-0.2,0.4c2.4,1.2,4.8,2.4,7.1,3.7
		C686,36,686,35.9,686.2,35.7z"/>
	<path class="st0" d="M708.7,47.9l-4.3-1.8l-0.2-0.1c1.4,0.9,2.7,1.7,4.1,2.6C708.3,48.4,708.5,48.1,708.7,47.9z"/>
	<path class="st0" d="M704,45.8c-0.7-1.1-2-1.3-3.1-1.7l-0.2-0.1l3.4,2L704,45.8L704,45.8z"/>
	<path class="st0" d="M720,49.7c-1.3-0.9-2.7-1.8-4.1-2.6c-0.9-0.5-1.9-0.9-2.9-1.4c-0.6-0.3-1.4-0.4-1.9-0.8c-2-1.3-3.9-2.7-6-3.9
		c-2.2-1.3-4.5-2.4-6.8-3.6c-0.7-0.4-1.2-1-1.9-1.2c-2.2-0.6-3.9-2.1-5.8-3.2c-2.7-1.6-5.6-3-8.5-4.5c-0.3-0.2-0.6-0.2-0.9-0.4
		c-2-1.2-4-2.3-6-3.5c-1.1-0.6-2.1-1.3-3.2-2c-0.2-0.2-0.5-0.3-0.7-0.5l-0.5-0.4c-0.5-0.4-1.1-0.9-1.7-1c-2.6-0.8-4.4-2.9-6.5-4.3
		c-3.2-2.1-6-4.9-8.8-7.5C650.8,6,647.7,3,644.8,0h-1.8c0.4,0.5,0.9,0.9,1.3,1.4c1.1,1.2,2,2.6,3.2,3.7c1.8,1.8,3.8,3.3,5.7,5
		c0.6,0.6,1.2,1.2,1.8,1.8c0.8,0.7,1.7,1.2,2.5,1.9c1.8,1.5,3.4,3.3,5.2,4.7c2,1.5,4.2,2.6,6.3,4c1,0.7,1.9,1.5,3,2.2
		c2,1.2,4,2.3,6,3.4c2.3,1.3,4.6,2.6,6.9,3.9c1.1,0.6,2.3,1.2,3.4,1.8c3,1.6,5.9,3.3,8.8,4.9c1.8,1,3.5,2,5.3,3.1c2,1.2,4,2.4,6,3.5
		c2.3,1.2,4.8,2.2,6.9,3.6c1.1,0.8,2.3,1.5,3.5,2.2l1.4,0.9c2.4,1.4,4.8,2.9,6.9,4.8c0.3,0.3,0.6,0.5,1,0.8v-2.1
		c-0.8-0.6-1.5-1.2-2.3-1.8C723.8,52.4,722,51,720,49.7L720,49.7z"/>
	<path class="st0" d="M726.5,47.5l-1.2-0.9c-0.8-0.6-1.6-1.2-2.4-1.7c-2.8-1.7-5.7-3.2-8.6-4.8c-1.6-0.9-3.1-1.8-4.7-2.7
		c-0.9-0.5-1.8-1-2.8-1.5c-3.1-1.8-6.1-3.7-9.3-5.2c-3-1.4-5.7-3.3-8.6-4.9c-1.4-0.8-3.1-1.3-4.5-2.1c-3.1-1.8-6.1-3.8-9.2-5.7
		c-0.6-0.4-1.2-1.1-1.8-1.3c-3-1.3-5.5-3.3-8-5.2c-1.2-0.9-2.2-2.2-3.4-3.2c-1.4-1.2-3-2.3-4.3-3.5c-1.7-1.6-3.3-3.2-5-4.8H651
		c0.4,0.5,0.9,0.9,1.5,1.3c1.8,1,2.6,3.3,4.7,4.3c0.8,0.4,1.5,1,2.1,1.7l0.5,0.5c0.2,0.2,0.5,0.5,0.7,0.7c1.5,1.3,2.9,2.8,4.4,4
		c1.6,1.2,3.4,2.2,5,3.3c1.8,1.2,3.5,2.5,5.4,3.6c1.6,1,3.2,1.8,4.8,2.7c3,1.8,6,3.5,9,5.3c0.4,0.3,0.7,0.8,1.2,1
		c2.6,1.3,5.3,2.5,7.9,3.8c0.7,0.3,1.3,0.7,1.9,1.1l1.2,0.8c0.4,0.3,0.8,0.5,1.3,0.8c1.4,0.8,2.9,1.4,4.3,2.2c3,1.7,6,3.5,9,5.3
		c2.1,1.2,4.4,2.2,6.4,3.7c1.7,1.3,4.2,1.5,5.1,3.8c0,0.1,0.3,0.2,0.3,0.2c0.1,0,0.2-0.1,0.3-0.1v-1.4c-0.1-0.1-0.2-0.2-0.3-0.2
		C727.3,48.1,726.9,47.8,726.5,47.5L726.5,47.5z"/>
	<path class="st0" d="M721.7,55.8c-1.4-0.9-2.9-1.7-4.3-2.6c-0.2,0.1-0.2,0.3-0.3,0.4c1.4,0.9,2.8,1.8,4.3,2.6
		C721.5,56.1,721.6,55.9,721.7,55.8z"/>
	<path class="st0" d="M709.8,49.3L709.8,49.3c1.1,0.7,2.3,1.4,3.5,2c0.1-0.1,0.2-0.3,0.3-0.4L709.8,49.3z"/>
	<path class="st0" d="M630.5,2.9c0.2-0.1,0.3-0.2,0.4-0.3c-0.5-0.5-1.1-1-1.6-1.5l-0.2,0.1L629,1.3l0.1,0.2L630.5,2.9L630.5,2.9z"/>
	<path class="st0" d="M643,15.8c-0.1,0.1-0.1,0.2-0.2,0.3l1.4,0.6l0.1-0.2C643.9,16.3,643.4,16,643,15.8z"/>
	<path class="st0" d="M720.7,65.6c-0.7-0.7-2-0.9-2.9-1.5c-1.4-0.9-2.7-2-4.1-2.9c-0.8-0.5-2-0.8-2.4-1.5c-0.6-1.2-1.3-1.4-2.4-1.5
		c-0.2,0-0.3-0.1-0.5-0.2c-1.3-0.8-2.6-1.6-3.9-2.4c-0.4-0.2-0.8-0.5-1-0.9c-0.2-0.3-0.3-0.8-0.3-0.9c-0.7,0.2-1,0.4-1.3,0.3
		c-0.8-0.4-1.6-0.9-2.4-1.3c-2.2-1.1-4.4-2.2-6.5-3.3c-0.2-0.1-0.3-0.4-0.5-0.5l-0.3-0.2l-0.5-0.5c-0.4-0.3-0.7-0.6-1.1-0.8
		c-0.7-0.4-1.5-0.4-2.2-0.7c-0.9-0.5-1.8-1.2-2.7-1.7c-1.5-0.8-3-1.5-4.6-2.3c-2-1-3.9-2.1-5.9-3.1c-0.2-0.1-0.4-0.4-0.6-0.6
		c-0.5-0.5-0.9-1.2-1.5-1.4c-1.1-0.3-2.1-0.6-3-1.4c-1-0.9-2.1-1.6-3.2-2.2c-0.9-0.5-1.9-0.9-2.9-1.3c0-0.1,0.1-0.2,0.1-0.3
		c0.3,0,0.5,0.1,0.8,0.1c-0.4-0.5-1-1.1-1.5-1.1c-1.6,0-3.7-1-4.3-2.3c-0.1-0.3-0.4-0.6-0.6-0.7c-0.7-0.3-1.5-0.5-2.2-0.9
		c-1-0.6-2-1.3-2.9-2c-0.5-0.4-1-0.9-1.8-1.5c0.7,0,0.9,0.1,1.4,0.1c-0.4-0.4-0.7-0.8-1-0.8c-1.2-0.1-2-0.8-2.9-1.5
		c-2.2-1.6-3.9-3.8-6.2-5.4c-2.7-2-4.8-4.8-7.2-7.3c-0.3-0.3-1-0.4-1.2-0.8c-0.6-0.7-0.9-1.7-1.5-2.4c-0.7-0.9-1.7-1.5-2.4-2.4
		c-0.5-0.6-1-1.3-1.5-2l-0.2-0.3l-0.2-0.2c-0.1-0.1-0.2-0.3-0.3-0.4v0.1L626.5,0h-3c1.3,1.5,2.6,3,3.9,4.6c1.2,1.4,2.3,3.3,3.8,4.2
		c2.9,1.9,4.3,5.3,7.2,7.1c1,0.6,1.6,1.7,2.4,2.5s1.7,1.6,2.5,2.3c0.7,0.6,1.3,1.2,2,1.7c0.4,0.3,1,0.6,1.3,1
		c0.2,0.2,0.3,0.4,0.4,0.6l0.2,0.4c0.5,0.7,0.9,1.5,2.1,1.3c0.1,0,0.2,0.1,0.3,0.2c0.9,0.9,1.8,1.9,2.7,2.8c0.8,0.8,1.7,1.7,2.7,2
		c2.1,0.6,3.3,2.3,5,3.3c0.4-0.1,0.9-0.1,1.1,0.1c0.6,0.5,1,1.3,1.7,1.7c1.8,1.1,3.7,2,5.5,3c1,0.5,2.1,0.9,3.1,1.5
		c1.2,0.8,2.4,1.8,3.6,2.5c0.3,0.2,0.7,0.4,1,0.5l0.7,0.3c0.2,0.1,0.5,0.2,0.7,0.3c1.6,0.8,3.1,1.7,4.6,2.5l0.8,0.5l1.6,1
		c0.3,0.2,0.5,0.3,0.8,0.5c0.7,0.4,1.4,0.7,2.2,1c1.1,0.6,2.3,1.1,3.3,1.8c1.5,0.9,2.9,2,4.5,2.9c1.1,0.6,2.4,1,3.6,1.6
		c1.9,1,3.8,2.2,5.7,3.3c1,0.6,2.1,1,3,1.6l4.5,3c1.3,0.9,2.7,1.9,4,2.9c0.2,0.2,0.4,0.4,0.7,0.5c0.9,0.5,1.9,1,2.8,1.6
		c1.7,1.2,3.4,2.5,5.1,3.7c1.1,0.8,2.2,1.6,3.3,2.4V71c-1-0.6-1.7-1.7-2.8-2.3C723.7,67.9,722,67,720.7,65.6L720.7,65.6z"/>
	<path class="st0" d="M662.7,21.6c-1.1-0.7-2.1-1.4-3.2-2.2c-0.1,0.1-0.2,0.3-0.3,0.4c1.1,0.7,2.1,1.5,3.2,2.2
		C662.5,21.9,662.6,21.7,662.7,21.6z"/>
	<path class="st0" d="M658.3,0c1,1.1,2.1,2.1,3.1,3.2c1.4,1.3,2.9,2.4,4.4,3.6c0.3,0.2,0.6,0.5,0.8,0.7l0.8,0.8
		c0.5,0.5,1.1,1,1.7,1.4c2.3,1.6,4.7,3.1,7.1,4.5c2.4,1.5,4.8,2.9,7.3,4.3c2.8,1.6,5.7,3.3,8.5,4.8c3.4,1.9,6.9,3.7,10.3,5.6
		c0.9,0.5,1.7,1.2,2.6,1.7c2.1,1.2,4.2,2.4,6.3,3.6c4,2.3,8,4.6,11.9,6.8l0.9,0.5l1.8,1c0.7,0.4,1.4,0.8,2.2,1.2V0H658.3L658.3,0z"
		/>
	<path class="st0" d="M721.5,78.5c-3.3-2.3-6.6-4.6-10-6.9c-2.6-1.8-5.2-3.7-7.9-5.4c-1.7-1.1-3.6-1.9-5.3-2.9
		c-3.1-1.8-6.2-3.6-9.3-5.4c-0.3-0.2-0.6-0.3-0.9-0.4c-3.4-1.5-6.8-3.1-9.8-5.3c-0.9-0.7-2-1.2-3-1.7l-1.3-0.6
		c-0.6-0.3-1.3-0.6-1.9-1c-4-2.3-8.2-4.1-11.8-7c-1.2-0.9-2.5-1.8-3.8-2.3c-3.1-1.2-5.3-3.6-7.9-5.4c-3.2-2.2-6.1-4.9-8.9-7.5
		c-3.6-3.3-7.1-6.7-10.6-10.2c-2-2-3.9-4.1-5.7-6.3c-2-2.4-4-4.8-5.8-7.3C617,1.9,616.4,1,615.9,0H0l0.3,90h371.6
		c0.2-0.4,0.5-0.8,0.7-1.1c2-2.9,3.6-6.3,5.7-9.2c1.4-2.1,3.1-4,4.9-5.8c2.5-2.6,5-5.2,7.7-7.6c1.3-1.2,2.7-2.2,4.1-3.2l1.4-1
		c0.2-0.2,0.5-0.3,0.7-0.6c1.6-1.2,3.1-2.4,4.9-3.4c2.3-1.3,4.7-2.7,7.1-3.7c3.1-1.3,6.4-2.3,9.6-3.2c1-0.3,2.3,0,3.5,0
		c0.7,0,1.5-0.1,2.1-0.4c1.3-0.5,2.7-0.7,4-0.2c0.7,0.2,1.4,0.1,2.1,0.2c2.6,0.1,5.2,0.2,7.6,0.5c2.3,0.3,4.5,0.8,6.7,1.4
		c1.9,0.6,3.8,1.5,5.7,2.5c1.2,0.7,2.5,1.5,3.8,2.1c3.5,1.5,6,4.3,8.9,6.5c2.7,2.1,5.1,4.6,7.2,7.2c0.5,0.6,0.9,1.2,1.4,1.7l1,1.1
		c2,2.3,3.9,4.6,5.3,7.2c1.3,2.4,3.2,4.7,4.6,7.2c0.4,0.6,0.7,1.2,1,1.9h36.7c-0.3-2.2-0.7-4.3-1.1-6.5c-0.3-1.3-0.8-2.6-1.1-3.9
		c-0.3-1.7-0.3-3.4-0.6-5.2c-0.3-2.1-0.6-4.2-0.8-6.3c0-0.1-0.1-0.3-0.1-0.4c0.7-4-0.7-8.2,1-12.1c0.7-1.6,0.6-3.4,0.9-5.2
		c0.3-1.6,0.9-3,1.9-4.3s1.4-3.1,2.3-4.3c1.5-1.9,3.4-3.3,5-5.1c1.3-1.6,3-2.4,4.7-3.3l0.7-0.3c2.3-1.1,4.6-2.1,7.1-2.8
		c3.5-0.9,7.1-1.5,10.7-1c0.9,0.1,1.9,0.2,2.8,0.3l1.2,0.1c2.5,0.2,5,0.4,7.4,1.4c2.4,0.9,4.7,2.2,7.2,3.3c2.6,1.1,5,2.5,7.1,4.5
		c2.6,2.6,5.6,4.7,8.2,7.2c2.3,2.2,4.4,4.8,6.5,7.2c2.7,3.3,5.3,6.7,8,10.1c0.5,0.7,1.1,1.1,1.8,1.7c0.4,0.4,0.8,0.7,1.1,1
		c1.7,2.2,3.3,4.2,4.8,6.4c0.7,0.9,1.2,1.9,1.9,2.8c2.2,2.7,4.5,5.5,6.8,8c2.1,2.4,4.5,4.5,6.8,6.8H728v-7c-0.1-0.1-0.2-0.2-0.3-0.3
		C725.7,81.3,723.7,79.9,721.5,78.5L721.5,78.5z"/>
	<path class="st0" d="M644.2,5.6c-0.1,0.1-0.1,0.2-0.2,0.3c0.7,1.1,1.6,1.8,3,2C646,7.1,645.2,6.3,644.2,5.6z"/>
	<path class="st0" d="M650.3,21.9c-0.4-0.3-0.8-0.6-1.2-0.9c0,0.1-0.1,0.2-0.2,0.3l1.1,0.9C650.1,22.1,650.2,22,650.3,21.9
		L650.3,21.9z"/>
	<path class="st0" d="M655,15.4c-1.1-0.9-2.3-1.9-3.4-2.8c-0.2,0-0.3,0.1-0.4,0.3c1.2,0.9,2.3,1.8,3.5,2.8L655,15.4L655,15.4z"/>
	<path class="st0" d="M719,58.7c-1.5-1-3.1-1.7-4.6-2.6c-4.2-2.5-8.3-5.1-12.5-7.6c-1.8-1.1-3.7-1.9-5.5-2.9c-2.8-1.5-5.5-3-8.3-4.5
		c-1.2-0.6-2.3-1.3-3.4-2c-1.7-1-3.4-1.9-5.1-2.9c-1.8-1-3.6-1.8-5.3-2.8c-2.5-1.5-4.9-3.1-7.3-4.7c-2.2-1.4-4.4-3-6.7-4.3
		c-2.8-1.6-5-3.9-7.4-6c-2.7-2.3-5.2-4.8-7.8-7.2c-2.2-2-4.4-4-6.5-6.1c-1.4-1.5-2.7-3.2-4-4.8c-0.1-0.1-0.2-0.2-0.2-0.3h-2.7
		c2.1,2.3,4.3,4.5,6.4,6.8c0.8,0.8,1.3,1.9,2.2,2.7c2,1.9,4.2,3.7,6.3,5.5c2.7,2.4,5.4,4.7,8.1,7.1c1,0.9,1.9,1.9,3,2.6
		c2.4,1.6,4.8,3,7.2,4.5c1.9,1.2,3.6,2.5,5.5,3.6c3.4,1.9,6.8,3.7,10.3,5.6c3,1.6,5.9,3.3,8.9,4.9l0.7,0.4l1.5,0.8
		c0.5,0.3,1,0.5,1.4,0.8c2.7,1.6,5.4,3.3,8.1,4.9c3,1.7,6.3,3.1,9.2,4.9c4.5,2.8,8.7,5.8,13.1,8.8l3.8,2.6c0.2,0.1,0.4,0.2,0.5,0.4
		V65c-0.5-0.3-1-0.7-1.5-1C724,62.3,721.6,60.4,719,58.7z"/>
	<path class="st0" d="M640.3,1.5c-0.4-0.4-0.7-0.8-1.1-1.2c-0.1,0.1-0.2,0.2-0.3,0.3l1.1,1.2C640.1,1.7,640.2,1.6,640.3,1.5z"/>
	<path class="st0" d="M550.2,45.8c0.7,0.1,1.3,0.2,2,0.3C551.7,45.4,551.1,44.7,550.2,45.8z"/>
	<path class="st0" d="M568,53.2l2.5,2.6C570.2,54.1,569.1,53.6,568,53.2z"/>
	<path class="st0" d="M564.9,50.1l-3.1-1.7c0,0.1-0.1,0.3-0.2,0.4c1,0.5,2,1.2,3,1.7L564.9,50.1L564.9,50.1z"/>
	<path class="st0" d="M446.5,83.2c-1-0.9-2.2-1.6-3.3-2.3c-1.5-1-3.1-1.9-4.5-2.9c-0.1,0-0.2-0.2-0.3-0.2c-2.7-0.1-5.3-1.4-8-0.8
		c-0.2,0-0.5,0.1-0.7,0c-3.2-0.4-6.2,0.4-9,1.6c-1.5,0.6-2.9,1.6-4.2,2.4c-1.3,0.7-2.5,1.5-3.8,2.4c-0.5,0.3-0.9,0.9-1.4,1.4
		c-1.5,1.2-3.3,2.3-4.6,3.7c-0.5,0.5-0.9,1.1-1.4,1.6h0.9c0.7-0.7,1.5-1.3,2.3-2c1.9-1.7,3.8-3.7,5.9-5.1c4.2-2.8,8.5-5.7,13.9-5.1
		c2.7,0.2,5.6,0.2,8.3,0.8c3.2,0.9,5.8,3,8.2,5.4c1.6,1.6,3.5,3,5.1,4.6c0.4,0.4,0.8,0.9,1.2,1.4h1.4c-0.6-0.8-1.3-1.6-2-2.4
		C449.4,86.1,448,84.6,446.5,83.2L446.5,83.2z"/>
	<path class="st0" d="M580.7,81.2c-1-1.3-2.2-2.6-3.4-4c-0.8-1-1.5-2-2.3-2.9c-0.6-0.7-1.3-1.3-1.9-2.1c-0.5-0.7-1.1-1.2-1.4-1.9
		c-0.9-1.8-3.3-2.3-3.8-4.4c0-0.1-0.2-0.3-0.3-0.2c-1-0.3-1.5-1-2.1-1.8l-0.3-0.3c-0.3-0.3-0.5-0.7-0.8-0.9
		c-1.3-1.2-2.4-2.8-3.9-3.9c-2.7-2-6.1-2.8-9.4-3.5c-0.3,0-0.7,0.3-1,0.6l0.2,0.4c3.4,0,6.5,1.2,9.1,3.1c1.3,0.9,2.4,2.2,3.6,3.5
		c3.2,3.4,6.4,6.6,9.4,10.1c2.3,2.7,4.5,5.6,6.7,8.3c0.9,1.2,2.1,2.1,3,3.3c1.4,1.7,2.7,3.5,4,5.3h1.6c-0.8-0.9-1.6-1.9-2.3-2.9
		C583.7,85.1,582.2,83.1,580.7,81.2L580.7,81.2z"/>
	<path class="st0" d="M595,84.7c0.6,0.8,1.2,1.6,1.8,2.6c0.1-0.1,0.2-0.1,0.3-0.3l-1.9-2.5C595.2,84.6,595.1,84.6,595,84.7L595,84.7
		z"/>
	<path class="st0" d="M590.6,78.8c-0.1,0-0.1,0.1-0.2,0.1l1.7,1.7l0.2-0.1L590.6,78.8z"/>
	<path class="st0" d="M588.4,75.4c-2.4-2.8-4.7-5.5-6.9-8.2c-0.2,0.1-0.2,0.2-0.3,0.3C584.4,72.2,587.1,75.2,588.4,75.4z"/>
	<path class="st0" d="M577.4,62.8c-0.1,0-0.2,0.1-0.2,0.1l2,2.1c0.1,0,0.1-0.1,0.2,0C579.5,65,577.4,62.8,577.4,62.8z"/>
	<path class="st0" d="M525.7,43.6c-0.1,0-0.2-0.2-0.3-0.2l-1.8,3.5c0.2,0.1,0.3,0.1,0.5,0.2C524.5,45.9,525.1,44.8,525.7,43.6z"/>
	<path class="st0" d="M609.2,85.1c-0.3-0.7-1.1-1.2-1.7-1.8c-1.2-1.4-2.5-2.8-3.7-4.3c-0.6-0.8-1.1-1.7-1.7-2.5
		c-0.2-0.3-0.6-0.6-0.8-0.8s-0.6-0.4-0.8-0.7c-1.6-2.2-3.2-4.4-5-6.7c-0.3-0.5-0.7-0.9-1.1-1.2l-0.6-0.6c-0.6-0.6-1.1-1.2-1.5-1.8
		c-0.9-1.7-2.3-2.9-3.6-4.2c-1-1-1.7-2.2-2.5-3.2l-0.5-0.6l-1-1.1c-0.1-0.2-0.3-0.3-0.5-0.6c-0.4-0.5-0.6-1.1-1.1-1.6
		c-0.3-0.3-0.8-0.6-1.2-1c-1.5-1.4-2.8-2.9-4.2-4.3c-0.8-0.8-1.6-1.3-2.3-2.1c-1.4-1.3-2.7-2.6-4.1-3.8c-0.7-0.6-1.6-1-2.5-1.5
		c-1.3-0.7-2.7-1.3-4.1-1.9c-0.5-0.2-1-0.3-1.5-0.5c-0.4-0.1-1.1,0-1.3-0.3c-1.6-2.1-4.1-1-6-1.8c-1.5-0.5-3-0.3-4.5-0.8
		c-0.7-0.2-1.4,0-2.1,0.1c-0.9,0.1-1.9,0.4-2.8,0.5c-1.6,0.3-3.2,0.4-4.8,0.8c-0.8,0.2-1.6,0-2.5,0.3c-0.9,0.4-1.5,1-2.3,1.5
		c-0.7,0.5-1.5,0.7-2.5,1.1c0,0.7-0.3,1.5-1.5,1.5c-0.3,0-0.6,0.3-0.8,0.4c-1,0.8-2.2,1.5-2.9,2.4c-0.5,0.7-1,1.5-1.4,2.3l-0.4,0.8
		c-0.1,0.2-0.1,0.3-0.2,0.5c-0.4,0.8-0.6,1.7-1,2.5c-0.1,0.3-0.5,0.4-0.6,0.7c-1.2,3.3-1.2,6.7-1.4,10.1c-0.1,0.6-0.1,1.3-0.1,1.9
		c0,1.8-0.2,3.6-0.1,5.4c0.2,2.1,0.6,4.2,0.8,6.3c0.1,0.6,0.2,1.2,0,1.6c-0.6,1.4,0.7,2.2,0.8,3.3c0.4,2,0.8,4.1,1.2,6.1
		c0.3,1.4,0.5,2.8,0.8,4.1h2.3c0-0.1,0-0.3,0-0.4c-0.1-0.9-0.5-1.9-0.7-2.7c-0.2-1.4-0.6-2.8-0.7-4.2c0-1.7-0.5-3.2-1.2-4.6
		c0-0.1-0.1-0.2-0.1-0.3l0-0.1c-0.2-0.4-0.4-0.8,0.3-0.9c-0.4-1.8-0.8-3.7-1.2-5.8c0.5,0.3,0.8,0.4,1,0.5c-1.5-2.1-1.2-4.2-0.7-6.3
		l0.1-0.5c0.1-0.5,0.2-1,0.4-1.6c-0.4,0.2-0.7,0.3-1,0.5c0.2-2.3,0.6-4.5,0.8-6.8c0.1,0.3,0.2,0.5,0.4,0.9c0.1,0,0.3-0.1,0.5,0
		c-0.2-0.8-0.3-1.7-0.4-2.6c-0.1-0.9,0-2-0.1-2.9c0.1,0,0.3,0,0.5,0c0,0.3,0,0.7,0,1.4c0.3-0.6,0.5-0.9,0.5-1.2c0-0.1,0-0.2,0-0.3
		v-0.2c0-0.6,0-1.2,1-1.4c0.5,0,1-1.4,0.9-2.1c-0.2-2,1.1-2.7,2.3-3.7c1-0.7,1.5-1.7,3-1.9c1-0.1,1.9-1.6,2.9-2.4
		c0.2-0.1,0.5-0.1,0.7-0.1c0.3,0,0.6,0.1,0.9,0.1c0-0.2-0.1-0.5,0-0.7c0.1-0.2,0.5-0.2,0.6-0.2c1.2,0.6,1.6-0.3,2.4-1.2
		c0.1,0.5,0.2,0.8,0.2,1.2c0.7-0.4,1.5-0.9,2.2-1.5c0,0.1,0,0.2,0,0.3c0.6,0.1,1.1,0.2,1.8,0.1c0.5,0,1.1-0.1,1.8,0
		c0.5-0.2,1.2-0.5,2.3-1c-0.2,0.6-0.3,0.9-0.4,1.1c0.6,0.1,1.3,0.2,1.9,0.3c0-0.1,0.1-0.2,0.1-0.3c-0.4-0.2-0.7-0.3-1.1-0.5
		c0-0.2,0-0.3,0-0.5c0.6,0.2,1.1,0.2,1.7,0.3c1.2,0.3,2.3,0.5,3.7,0.6c-0.4,0.1-0.6,0.2-1,0.2c0,0.1,0,0.2,0,0.3
		c0.6,0.1,1.3,0.1,1.9,0.2c0.2,0,0.6-0.3,0.7-0.1c1.3,0.7,2.5,1.5,3.8,2.2c0.5,0.3,1.1,0.6,2,1c-0.3-0.5-0.3-0.7-0.5-0.9l0.2-0.2
		l1.3,1.3c0.8-0.8,1.4-0.2,2,0.2l0.1,0.2c0.2,0.2,0.4,0.4,0.7,0.5c0.9,0.5,1.4,1.5,2.1,2.3c0-0.3,0.2-0.6,0.2-0.9
		c1.6,1.5,3.2,2.8,5,4.5c-0.5-0.2-0.6-0.3-0.9-0.5c0.4,0.4,0.8,0.7,1.2,1.1l0.3,0.2c1.4,1.1,2.6,2.3,2.5,4.5c0.1,0,0.3-0.1,0.4-0.2
		c0.1-0.3,0.1-0.5,0.4-1.1c0.6,0.8,1,1.5,1.5,2.1s1.1,0.9,1.6,1.5c1,1.1,1.9,2.2,2.8,3.3c0.1,0,0.2,0.1,0.1,0.2
		c0,1.9,1.8,2.1,2.8,3.1c0.4,0.4,1.2,0.8,0.3,1.3l0.9,0.9c-0.1,0.2-0.2,0.6-0.2,0.7c0.6,0.7,1.2,1.3,1.9,1.9l0.5,0.6l0-0.1
		c-0.1-0.3-0.3-0.6-0.4-0.8c0,0-0.1-0.1-0.1-0.1c0.5,0.5,0.9,1,1.3,1.5c0.3,0.5,0.7,1.1,1,1.6l0.2-0.2c0.6,1,1,2.3,2.4,2.6
		c0.1,0,0.2,0.3,0.4,0.6c-0.4-0.1-0.6-0.2-0.8-0.1c0,0.1-0.1,0.2-0.2,0.2c0.5,0.3,0.9,0.8,1.4,1c0.3,0.1,0.7,0.3,1,0.6l-0.3,0.3
		c0.3,0.2,0.6,0.6,0.9,0.8c0-0.1,0.1-0.1,0.1-0.2c0.6,0.9,1,1.9,0.9,2.6c0.4,0.2,0.8,0.4,1.2,0.5c0.5,0.2,0.4,0.3,0.5,1
		c0,0.4,0,1.4,1.1,1.2c0.7-0.1,1.3,0.7,1.1,1.4c-0.3,0.9-0.2,0.8,0.6,0.8c0.5,0.1,1,0.4,1.3,0.9c1.4,1.6,2.7,3.3,4.1,4.9h3.4
		c-0.3-0.4-0.7-0.8-1-1.2C611.3,87.6,610,86.6,609.2,85.1L609.2,85.1z"/>
	<path class="st0" d="M544.4,46.8c0-0.1-0.1-0.3-0.1-0.5c-0.4,0.2-1,0.5-1.5,0.6c0,0.1,0.1,0.3,0.1,0.4
		C543.4,47.1,544,46.9,544.4,46.8L544.4,46.8z"/>
	<path class="st0" d="M521,54.2c0.2,0.1,0.3,0,0.5,0.1l0.2-2.5c-0.1,0-0.3,0-0.4-0.1L521,54.2z"/>
	<path class="st0" d="M585.5,77.2c-0.6-0.7-1-1.4-1.5-2.2l-0.6-0.9c-0.9-1.4-1.8-2.6-3-3.7c-2-1.7-3.3-3.7-5-5.6
		c-1.8-1.9-3.3-4-5.1-5.7c-2.6-2.6-5-5.2-8-7.1c-2.5-1.6-5.5-2.7-8.6-3c-0.3,0-0.5,0-0.8,0c-3.3-0.8-6.4-0.1-9.3,1.4
		c-3.2,1.6-5.1,4.2-5,8c0,3.2-0.5,6.2-0.4,9.4c0,1.9,0.6,3.8,1,5.7c0.5,2.6,1,5.2,1.5,7.8c0.5,2.9,1,5.9,1.5,8.8h2.7
		c-0.5-2.5-1-5-1.3-7.6c-0.1-0.7-0.2-1.5-0.3-2.3l-0.1-1.6c0-0.2-0.1-0.5-0.1-0.8c-0.1-0.4-0.1-0.8-0.2-1.2c-1.1-2-1.3-4.3-1.2-6.5
		c0.1-0.6-0.3-1.3-0.5-1.9c0-0.2-0.2-0.4-0.2-0.6c0.1-3.5,0-6.9,0.3-10.2c0.3-2.4,2.2-4,4.4-4.8c4.5-1.8,9.1-1.3,13.5,0.3
		c1.9,0.7,3.6,1.7,5.2,2.8c1.4,1,2.5,2.5,3.7,3.8c0.6,0.6,1.3,1.1,1.8,1.6c1.4,1.4,2.9,2.7,4.1,4c0.7,0.7,1.1,1.7,1.7,2.6
		c0.7,0.9,1.5,1.8,2.2,2.8c2,2.3,3.8,4.6,5.7,6.9c1.1,1.2,2.5,2.4,3.5,3.7c1.7,2.2,3.3,4.3,4.9,6.5c0.6,0.8,1.1,1.7,1.7,2.6h2.2
		c-1-1.1-2-2.3-2.9-3.4C590.5,83.5,587.9,80.4,585.5,77.2L585.5,77.2z"/>
	<path class="st0" d="M537.6,82.4L537.6,82.4C537.7,82.4,537.6,82.3,537.6,82.4C537.6,82.3,537.6,82.4,537.6,82.4z"/>
	<path class="st0" d="M536.6,76.6c-0.1,1.2,0,2.4,0.3,3.6c0.2,0.6,0.4,1.2,0.5,1.8l0.1,0.3C538,80.2,537.3,78.4,536.6,76.6
		L536.6,76.6z"/>
	<path class="st0" d="M537.7,82.4c0.2,1.6,0.3,3.1,0.5,4.7c0.1,0,0.3,0,0.5,0c0-1.6-0.1-3.1-0.9-4.5L537.7,82.4L537.7,82.4z"/>
	<path class="st0" d="M424.3,67.8c0-0.2-0.1-0.4-0.1-0.6l-1.8,0.5c0,0.1,0.1,0.3,0.1,0.4C423.1,68,423.7,67.9,424.3,67.8L424.3,67.8
		z"/>
	<path class="st0" d="M462.2,79.8c-1.2-1.4-2.7-2.8-3.9-4.2c-1.6-1.7-3.1-3.6-5-5.1c-1.1-1-2.5-1.5-3.8-2.3
		c-1.9-1.2-3.8-2.4-5.8-3.4c-1.4-0.6-2.9-0.9-4.4-1.3c-2-0.4-4.1-0.9-6.1-1c-2.3-0.2-4.7-0.1-7,0.1c-1.7,0.1-3.5,0.1-5.1,0.6
		c-2.9,0.9-5.7,2.1-8.6,3.2c-3.6,1.4-6.5,3.7-9.6,5.9c-3.1,2.3-5.9,5.1-8.6,7.9c-2.2,2.3-4.3,4.8-6.2,7.4c-0.6,0.8-1.1,1.7-1.6,2.5
		h2.1c1.1-2.6,3.4-4.2,4.8-6.6c1.5-2.5,3.8-4.2,6-6.1c1.3-1.2,2.4-2.4,3.8-3.5c2.6-1.9,5.3-3.7,8-5.3c1.4-0.9,3-1.4,4.5-2.2
		c1.5-0.7,3-1.5,4.5-1.8c2.9-0.5,5.9-0.9,8.9-0.9c3.5,0,7,0.4,10.6,1c2,0.3,3.8,1.7,5.7,2.5c2.6,1.1,4.7,2.9,6.8,4.7
		c2.2,1.9,4.2,4.1,6.4,6c3.3,2.8,5.4,6.4,7.9,9.8c0.6,0.8,1.1,1.6,1.6,2.4h1.4c-1.4-2.4-3-4.7-5-6.8
		C463.8,82.1,463.1,80.8,462.2,79.8L462.2,79.8z"/>
	<path class="st0" d="M442.1,86.4c-2.2-2.2-5-4.1-8.4-4.2c-2.6-0.1-5.3-0.6-7.8-0.1c-2.6,0.5-5.1,1.7-7.3,3c-2.5,1.4-4.7,3.2-6.8,5
		h33.8C444.5,88.8,443.4,87.5,442.1,86.4L442.1,86.4z"/>
	<path class="st0" d="M572.2,78.8c-0.5-0.7-1.1-1.2-1.8-1.7c-0.5-0.4-0.9-0.8-1.3-1.3c-1-1.7-2.5-3-4-4.4c-1.8-1.7-3.3-3.7-4.9-5.5
		c-2.2-2.4-4.6-4.5-8-5c-2.9-0.4-2.8-0.4-3.2,2.4c-0.4,3,0,5.9,0.7,8.8c0.8,3.5,1.2,7.1,2,10.7c0.5,2.4,0.9,4.7,1.3,7.2h28.1
		c-0.9-1.1-1.8-2.1-2.7-3.2C576.4,84.1,574.3,81.4,572.2,78.8L572.2,78.8z"/>
	<path class="st0" d="M548.7,83.9c-0.2-0.8-0.3-1.6-0.5-2.4c-0.2-1.4-0.2-2.8-0.5-4.1c-0.3-1.7-1.2-3.3-1.4-5.1
		c-0.3-2.2-0.3-4.5-0.5-6.9c0-0.7-0.3-1.2-0.6-1.9c-0.2,0-0.4,0.1-0.6,0.1c0.2,2.1,0.2,4.3,0.3,6.5c0.2,1.8,0.4,3.7,0.7,5.4
		c0.7,3.5,1.4,7,2.1,10.4c0.3,1.4,0.5,2.8,0.7,4.1h1.3c-0.2-1.2-0.4-2.5-0.6-3.8L548.7,83.9L548.7,83.9z"/>
	<path class="st0" d="M534.7,67l0.5,3.7c0.3-0.1,0.5-0.1,0.6-0.2l-0.6-3.6C535.1,66.9,534.8,67,534.7,67L534.7,67z"/>
	<path class="st0" d="M392.6,89.7c0.1,0,0.2,0.2,0.3,0.2c1-1.2,2-2.4,3-3.7c-0.2-0.1-0.3-0.2-0.5-0.3
		C394.5,87.2,393.5,88.4,392.6,89.7L392.6,89.7z"/>
	<path class="st0" d="M470.7,82.1c-0.3-0.3-0.4-0.7-0.6-1c-1.6-2.8-3.9-5-6.2-7.3s-4.5-4.7-6.9-6.9c-0.6-0.5-1.1-0.9-1.7-1.3
		l-0.9-0.6c-0.3-0.2-0.6-0.4-0.9-0.6c-2-1.4-4-2.8-6.3-3.5c-0.5-0.2-1-0.7-1.5-0.9c-1.2-0.4-2.4-0.7-3.7-1.1l-0.8-0.2l-1.4-0.5
		c-0.5-0.2-1-0.3-1.5-0.4c-0.7-0.2-1.5-0.2-2.3-0.2c-1.5-0.1-3-0.2-4.4-0.2c-0.7,0-1.3,0.1-2.1,0.1c-0.7,0-1.2,0-1.8,0
		c-0.5,0-0.9,0-1.3,0c-1.9,0.1-3.9,0.2-5.9,0.5c-0.6,0.1-1.2,0.3-1.9,0.6l-0.3,0.1c-1.6,0.6-3.1,1.5-4.7,1.7
		c-2.4,0.4-4.1,1.8-6.1,2.8c-1.1,0.5-2,1.4-3.2,2.1c-0.6,0.3-1.2,0.3-1.8,0.6c-0.6,0.4-1.1,0.8-1.7,1.3c-0.2,0.2-0.4,0.8-0.6,0.8
		c-2,0.2-2.7,2-4,3.1c-1.4,1.1-2.9,2.3-4.2,3.6c-1,1-1.9,2.2-2.8,3.2c-0.8,0.8-1.7,1.6-2.4,2.4c-1.6,1.9-3.8,3.7-4.6,6
		c-0.5,1.5-1.5,2.6-2.3,3.9h3c0.2-0.2,0.4-0.3,0.6-0.5c0.2-0.1,0.5-0.2,0.5-0.3c0.2-2,1.5-3.4,2.8-4.8c1-1.1,1.7-2.4,2.7-3.6
		c0.4-0.5,1-0.6,1.6-0.9c0.1-0.1,0.4-0.2,0.4-0.4c0.6-2.7,2.6-4.2,4.8-5.7c0.1-0.1,0.2-0.2,0.2-0.3c0.1-0.3,0.2-0.6,0.3-0.6
		c1.4-0.6,2.6-1.2,3.9-1.8c0-0.1-0.1-0.3-0.1-0.4c-0.1,0.1-0.4,0.2-0.5,0.2c1-1.8,1.1-1.8,1.9-1c0.7-0.4,1.5-0.9,2.1-1.4l0-0.1
		c-0.4,0.1-0.8,0.1-1.2,0.2c0-0.1-0.1-0.3-0.1-0.4c1.3-0.4,2.4-0.8,3.8-1.3c-0.3-0.1-0.3-0.2-0.4-0.3l-0.1,0l-0.1,0
		c0.8-0.6,1.6-1.4,2.5-1.9c0.7-0.3,1.5-0.2,2.3-0.3c0.7-0.4,1.5-1,2.3-1.4c0-0.1-0.1-0.3-0.1-0.3c0.5,0.1,1.1,0.2,1.5,0.2
		c1.1-1.2,2.3-1.7,4-1.9c1.1-0.1,2.3-0.6,3.4-1l0.3-0.1l0.6,0c0.2,0.8,0.5,0.7,1.3,0.2l-0.7-0.2l-0.1,0l3.7-0.1
		c1.6,0,3.3-0.1,4.9-0.2c0.3,0,0.7,0,0.9-0.1c0.9-0.3,1.6-0.2,1.8,0.9c2-0.9,3.8-0.7,5.4,0.9c0.4,0.4,1.3,0.1,2,0.2
		c0.9,0.2,1.9,0.3,2.7,0.5c0.2,0.1,0.3,0.6,0.5,1.2c1.4,0,3.4-0.1,4.2,2.3c0.8-0.8,1.6-0.5,2.1,0.4c0.4,0.7,0.9,1.4,1.4,2.1
		c0.1-0.1,0.3-0.2,0.3-0.3l-0.7-0.9c0.8,0.5,1.6,0.8,2.4,1.4c0.3,0.5,0.7,0.8,1,1.3c0,0,0-0.1,0.1-0.1c0.1,0.2,0.2,0.4,0.3,0.6
		c0,0.1,0.2,0.1,0.3,0.1c0.6,0.4,1.5,0.6,1.9,1.2c0.2,0.2,0.4,0.4,0.5,0.7c-0.1,0.1-0.1,0.1-0.1,0.2l1.3,1.1c0,0,0,0,0,0
		c0.8,0.9,1.7,1.7,2.5,2.7c1,1.3,2.1,2.8,3.5,3.9c1,0.8,1.5,2.1,2.2,3.2c0.2,0.3,0.5,0.3,0.7,0.5c0.2,0.1,0.3,0.2,0.5,0.4
		c0.6,1,1.3,2.1,2,3.2c0.6,0.9,1.3,1.8,1.7,2.9h3.1c-0.7-1.2-1.4-2.5-2.1-3.7C473,84.8,471.8,83.5,470.7,82.1L470.7,82.1z"/>
	<path class="st0" d="M461.7,87.2l1.3,1.3c0-0.1,0.1-0.1,0.2-0.1l-1.3-1.3C461.7,87.1,461.7,87.2,461.7,87.2z"/>
	<path class="st0" d="M599.3,81.7c-2.5-3.3-5-6.6-7.6-9.9c-0.8-1-1.6-1.8-2.4-2.7c-0.7-0.7-1.3-1.6-1.9-2.4
		c-0.6-0.7-1.2-1.2-1.8-1.9c-1-1.2-2-2.5-3-3.7c-0.8-0.9-1.7-1.7-2.5-2.6c-2-2.2-3.9-4.5-5.8-6.6c-0.5-0.6-1.1-0.9-1.7-1.4
		c-0.5-0.6-1.1-1.2-1.7-1.7c-1-0.9-2-1.6-3.1-2.4c-3.4-2.4-7.2-3.7-11.2-4.7c-1.6-0.4-3.2-0.7-4.8-0.9c-1.3,0-2.7,0.1-4,0.4
		c-2.3,0.5-4.8,0.2-7,1.5c-3,1.7-6,3.6-7.9,6.4c-1.5,2.3-2.1,5.3-2.5,8.1c-0.4,3.7-0.4,7.6-0.4,11.3c0,1.8,0.5,3.5,0.8,5.3
		c0.9,4.9,1.7,9.8,2.6,14.7c0.1,0.5,0.2,1,0.3,1.5h1.6c-0.1-0.5-0.1-1-0.2-1.6c-0.3-2.3-0.8-4.6-1.1-6.9c-0.2-1.2-0.3-2.4-0.5-3.6
		c-0.4-1.8-0.9-3.6-1.3-5.4c-0.1-0.7-0.1-1.5-0.2-2.3c-0.2-3.8-0.3-7.5-0.4-11.4c0-1,0-2.1,0.8-3c0.2-0.1,0.2-0.5,0.1-0.8
		c-0.3-2.4,0.8-4.5,2-6.3c0.9-1.3,2.4-2.3,3.8-3.4c3.4-2.9,7.7-3.2,11.8-3.5c2.3-0.2,4.6,0.2,6.8,0.8c3.2,0.9,6.2,2.3,8.9,4.1
		c1.2,0.8,2.2,1.7,3.3,2.7c0.5,0.4,1,0.8,1.5,1.1c0.2,0.2,0.5,0.3,0.7,0.5c0.4,0.4,0.8,0.9,1.1,1.4l0.7,0.9c1,1.2,2,2.4,3.2,3.4
		c1.8,1.4,2.9,3.2,4.4,4.9c2,2.3,3.9,4.9,5.8,7.2c0.3,0.5,0.8,0.8,1.1,1.2c1.5,1.6,3.4,3,4.3,4.9c1.1,2.2,3.3,3.3,4.3,5.6
		c0.7,1.6,2.4,2.8,3.6,4.2c0.2,0.2,0.3,0.5,0.5,0.8c1.2,1.5,2.3,3.1,3.5,4.6h2.6c-1.1-1.2-2.1-2.3-3.2-3.5
		C602,84.9,600.6,83.4,599.3,81.7L599.3,81.7z"/>
	<path class="st0" d="M430.8,67.1c0,0.1,0,0.2-0.1,0.4c1.2,0.1,2.3,0.2,3.5,0.2C433.2,66.7,432,67.1,430.8,67.1L430.8,67.1z"/>
	<path class="st0" d="M413.5,71.1c-0.6,0.3-1.3,0.7-2,1.1c0,0.1,0.2,0.3,0.2,0.4c0.6-0.4,1.4-0.8,2-1.2L413.5,71.1L413.5,71.1z"/>
	<path class="st0" d="M458.6,82.2L457,81l-0.2,0.3c0.6,0.4,1.1,0.7,1.7,1.2C458.4,82.4,458.5,82.3,458.6,82.2L458.6,82.2z"/>
	<path class="st0" d="M449.9,77.9c-0.9-0.9-2.2-1.6-3.3-2.4c-1.5-1-3-1.9-4.5-2.9c-1.8-1.2-3.8-1.6-5.9-1.8l-0.7-0.1
		c-1-0.1-2-0.6-3-0.6c-1.8,0-3.6,0.3-5.4,0.1c-2.8,0-5.5,0.6-8.1,1.7c-2.7,1.1-5.4,2.2-7.7,4.1c-2.2,1.8-4.4,3.5-6.6,5.2
		c-3.4,2.5-6.1,5.6-8.5,8.9h3.6c0-0.1,0.1-0.2,0.2-0.2c0.6-0.9,1.5-1.7,2.2-2.5c1.4-1.5,2.7-3,4.2-4.3c1.1-1,2.5-1.9,3.7-2.7
		c1.6-1.2,3.1-2.3,4.9-3.3c0.3-0.2,0.6-0.3,0.9-0.5l0.9-0.5c1.4-0.8,2.8-1.7,4.5-2.2c1.5-0.4,3.1-0.5,4.6-0.9
		c3.7-0.9,7.2,0.1,10.8,0.1c1.5,0,2.7,0.5,4,1.2l0.6,0.3c0.5,0.2,0.8,0.4,1.3,0.6c2.8,1.2,5,3.2,7.2,5.2c1.6,1.5,3.4,2.9,5,4.6
		c1.1,1,1.9,2.2,2.8,3.4c0.5,0.6,0.9,1.2,1.4,1.8h1.8c-0.2-0.2-0.4-0.5-0.6-0.7C456.7,85.4,453.4,81.6,449.9,77.9L449.9,77.9z"/>
	<path class="st0" d="M402.4,79.4c-0.1,0-0.1-0.1-0.2-0.1l-4.4,4.1c0.1,0,0.1,0.1,0.1,0.2L402.4,79.4L402.4,79.4z"/>
	<path class="st0" d="M444.2,70.3c-1.4-0.7-2.9-1.5-4.3-2.2c0,0.1-0.1,0.3-0.2,0.5l4.3,2.1C444,70.6,444.1,70.4,444.2,70.3z"/>
	<path class="st0" d="M454.1,78.1l-0.4-0.5c-1.6-2-3.3-3.9-6.1-4.8c3,2.8,5.9,5.3,8.6,7.8C455.4,79.8,454.8,78.9,454.1,78.1z"/>
	<path class="st0" d="M447.5,72.4c-0.8-0.6-1.7-1.2-2.5-1.8c-0.1,0.1-0.2,0.2-0.3,0.4c0.8,0.6,1.7,1.2,2.5,1.7
		C447.3,72.6,447.4,72.5,447.5,72.4L447.5,72.4z"/>
</g>
</svg>
