<?xml version="1.0" encoding="utf-8"?>
<!-- Generator: Adobe Illustrator 26.5.0, SVG Export Plug-In . SVG Version: 6.00 Build 0)  -->
<svg version="1.1" id="a" xmlns="http://www.w3.org/2000/svg" xmlns:xlink="http://www.w3.org/1999/xlink" x="0px" y="0px"
	 viewBox="0 0 728 90" style="enable-background:new 0 0 728 90;" xml:space="preserve">
<style type="text/css">
	.st0{fill:#FFFFFF;}
</style>
<path class="st0" d="M616,17.7c0-0.1,0.1-0.2,0.1-0.4l-3.6-1.4C612.7,17.2,615,17.3,616,17.7L616,17.7z"/>
<path class="st0" d="M632.7,26c0.1,0.3,0.5,0.5,1,0.8C635,25.1,632.6,24.3,632.7,26z"/>
<path class="st0" d="M618.3,18.2c1.2,1.1,2.6,1.5,4.2,1.5C621.9,19.2,619.6,18.4,618.3,18.2z"/>
<polygon class="st0" points="616.9,18.9 616.9,19 616.9,18.9 "/>
<path class="st0" d="M617.6,18.3c0.1-0.1,0.1-0.2,0.2-0.4c-0.2-0.1-0.4-0.2-0.7-0.3C617,17.9,617.4,18.1,617.6,18.3L617.6,18.3z"/>
<path class="st0" d="M617,19.5c0-0.2,0.2-0.5-0.1-0.5c-0.1,0.1-0.2,0.2-0.2,0.4C616.8,19.3,616.9,19.4,617,19.5L617,19.5z"/>
<path class="st0" d="M661.5,31.8c0-0.1,0-0.1,0.1-0.2c-0.3-0.1-0.7-0.2-1-0.3c0,0.1-0.1,0.2-0.1,0.3
	C660.8,31.6,661.1,31.7,661.5,31.8z"/>
<path class="st0" d="M658.9,31.1c-2.8-0.7-5.7-2.1-8.6-2.1C652.8,29.6,656.7,31.6,658.9,31.1z"/>
<polygon class="st0" points="612.6,15.9 612.6,15.9 612.6,15.9 "/>
<path class="st0" d="M634,23c-0.6,1.2-0.4,1.5,0.8,1.5C635,23.8,634.8,23.2,634,23z"/>
<path class="st0" d="M633,17.7c0.3-1.8-1.4-0.4-1.7,0.4c-2.1,0-3.9-1.2-5.9-1.4c1-1.1-1.2-2.3,0.7-2.3c-0.2-0.6-0.4-1-0.6-1.6
	c-1,1-2.1,1.3-1.2,2.7C612.7,11.3,601.1,6,589.9,0h-2.1c15,7.9,30,15.2,43.7,22.8c-2.2-0.2-3.9-1.4-6.1-1.7c1.4,1,3.1,1.1,4.6,1.9
	c-0.3,0.5-0.5,0.9-0.8,1.4c1.2,0.7,1.5,0.4,2.1-0.7c2.4,0.9,1.7-1.5,1-2.8c8.3,3.3,21.7,5.7,32.2,8.8
	C659.8,22.7,638.4,25.1,633,17.7L633,17.7z"/>
<path class="st0" d="M637.6,25.7c0-0.7-0.3-0.8-0.8-0.8l0,0c0,0.1-0.1,0.2-0.1,0.3C637,25.4,637.3,25.5,637.6,25.7L637.6,25.7z"/>
<path class="st0" d="M669.2,0.6c0,0,0.2-0.1,0.2,0c0-0.2-0.1-0.4-0.1-0.6H669C669,0,669.2,0.6,669.2,0.6z"/>
<path class="st0" d="M650.1,29c-1.9-1-4.8-2.2-6.7-1.7C645.7,27.6,647.8,28.6,650.1,29z"/>
<path class="st0" d="M703.2,67.2c-1.3-3-1.3-8.6-4.6-9.5c3.1,10.2,6.8,20.2,11.5,29.6c0.2,0.9,0.5,1.8,0.9,2.8h1.8
	C709.3,82.4,705.7,75.1,703.2,67.2L703.2,67.2z"/>
<path class="st0" d="M586.4,2.8c-1.7-1-3.3-1.9-4.9-2.8h-1.3C582.1,1.4,584,2.8,586.4,2.8L586.4,2.8z"/>
<path class="st0" d="M663.6,9.1c0.2-0.8,0.1-1.3-0.5-1.8C662.8,8,663,8.6,663.6,9.1z"/>
<path class="st0" d="M662.3,2.4c0,0.7,0.1,1.1,0.1,1.6C662.6,3.3,662.6,2.7,662.3,2.4z"/>
<path class="st0" d="M665.4,33.3c0-1.1-0.9-1.1-1.8-1.1C663.6,32.5,664.4,33,665.4,33.3z"/>
<path class="st0" d="M728,40.1c-10.3-1.1-20.5-2.7-30.6-4.9c9.8,3.2,20,5.5,30.6,6.9V40.1L728,40.1z"/>
<path class="st0" d="M695.5,47.5c0,0.3,0,0.8,0.1,1.1h0c0.2,1.4,0.8,2.1,2.3,1.9C697.5,48.9,697.6,47.3,695.5,47.5L695.5,47.5z"/>
<polygon class="st0" points="587,3.1 587,3.1 587,3.1 "/>
<path class="st0" d="M716.6,90H728V61.7c-8-0.8-16-1.9-23.8-3C707.5,69.6,711.9,79.8,716.6,90z"/>
<path class="st0" d="M587.5,3.7c0.1-0.1,0.1-0.2,0.2-0.3c-0.2-0.1-0.5-0.2-0.7-0.3c0,0.1-0.1,0.2-0.1,0.3
	C587.1,3.5,587.3,3.6,587.5,3.7L587.5,3.7z"/>
<path class="st0" d="M606.6,13c-0.7-0.4-1.1-1.1-2-0.4C605.2,13.1,605.7,13.3,606.6,13z"/>
<path class="st0" d="M597.1,8.6c-0.2-0.6-0.6-0.8-1.2-1C596,8.5,596.4,8.6,597.1,8.6z"/>
<path class="st0" d="M588.3,4.1c1,0.4,1.9,1.4,3.1,1.3C590.3,5,589.5,4.1,588.3,4.1z"/>
<path class="st0" d="M611.5,15.7c0-0.1,0.1-0.2,0.2-0.3c-0.2-0.1-0.5-0.2-0.7-0.4c0,0.1-0.1,0.2-0.2,0.3
	C611.1,15.4,611.3,15.6,611.5,15.7L611.5,15.7z"/>
<path class="st0" d="M602.5,11.2c-1-0.8-1.9-1.2-3-1.5C600.2,10.6,601,11.3,602.5,11.2z"/>
<path class="st0" d="M620.9,27.4l0.2-0.3c-0.5-0.2-0.9-0.5-1.4-0.7c0,0.1-0.1,0.2-0.1,0.3C620,27,620.4,27.2,620.9,27.4L620.9,27.4z
	"/>
<path class="st0" d="M609.9,22.9c0-0.1,0.1-0.2,0.1-0.3c-0.3,0-0.6-0.1-0.9-0.1l0,0l0,0.2C609.3,22.8,609.6,22.9,609.9,22.9
	L609.9,22.9z"/>
<path class="st0" d="M626.4,29.5l0.1-0.2l-0.8-0.3c0,0.1-0.1,0.2-0.1,0.3C625.8,29.4,626.1,29.5,626.4,29.5L626.4,29.5z"/>
<path class="st0" d="M586.4,11.4c0.5,0.4,0.7,0.1,0.1-0.2C586.4,11.3,586.4,11.3,586.4,11.4z"/>
<path class="st0" d="M592.9,14.9c0.6,0.2,0.9,0.4,1.5,0.6C594,14.9,593.8,14.4,592.9,14.9z"/>
<path class="st0" d="M649.6,36.6c0-0.1,0-0.2,0.1-0.4c-0.4-0.1-0.8-0.1-1.1-0.2c0,0.1,0,0.2-0.1,0.3
	C648.8,36.4,649.2,36.5,649.6,36.6z"/>
<path class="st0" d="M680.3,74.2c0-0.5,0-0.9-0.7-0.9C679.6,73.9,679.8,74.1,680.3,74.2z"/>
<path class="st0" d="M581.6,8.9c-0.5-0.3-0.7-0.4-1-0.6C580.8,8.6,581.1,8.9,581.6,8.9z"/>
<path class="st0" d="M679.4,39.1c0.2,0.6,0.4,1.2,0.5,1.8c0.8,0.2,1.6,0.4,2.4,0.6C682.7,39.5,681,39.5,679.4,39.1L679.4,39.1z"/>
<path class="st0" d="M675.4,32.3c0.3-0.7,0-1.4-1-1.4c0-1.2-2.2-0.9-3.1-1.3c0,0.1,0.1,0.2,0.1,0.2l0,0
	C671.6,32.1,673.7,31.8,675.4,32.3L675.4,32.3z"/>
<path class="st0" d="M574.3,0h-3.2c29.8,17.2,62.7,31.6,95.5,38.1C635.9,28.9,604.1,16.4,574.3,0z"/>
<path class="st0" d="M655.2,37.8c-0.5-0.1-0.9-0.2-1.2-0.3c0,0.1-0.1,0.2-0.1,0.3C654.2,38.1,654.6,38.2,655.2,37.8L655.2,37.8z"/>
<path class="st0" d="M651.4,37L651.4,37C649.7,36.4,650.2,38,651.4,37z"/>
<path class="st0" d="M698.3,88.2c3,1.1,0.9-3.8,0.5-4.9c-4,2.5-3.4-5.2-5.7-6.8c-2.3-4.9-4.4-21.4-9.5-22.1
	c1.9,7.3,6.2,14.8,6.3,22.2c2,1.3,8.2,12.6,3.3,12.6c3.5-3.2-2.9-2.6-2.7-6c0.2,0.1,0.4,0.2,0.5,0.2c0.2-0.6-0.6-1.4-0.3-2.1
	c0.6-1.5-1.5-1.9-1.5-3.2c-0.6-1.7-2.2-0.4-2.3-2.6c0.9-0.5,0.6-1.8-0.5-2.1l-1.1-3.3c0.8-0.6,0.1-0.9-0.2-1.3
	c-0.3-1.9-1.8-3-1.1-4.9c-1.5-0.5-0.5-1.5-1.8-2.3c0.2-0.6,0.6-1.4-0.2-1.8c-1.7-2.6-0.3-6.7-4.7-6.6c2.9,10.1,6,20.4,10.1,30.1
	c1.8,1.8,0.7,8.1-0.1,3c-2.5,0.2-2.1,2.4-0.9,3.8h13.1C699,89.4,698.3,88.8,698.3,88.2L698.3,88.2z M697.4,87c0,0.2,0,0.3,0,0.6
	c-0.4-0.9-0.5-1.6-1-2.3c0.1-0.1,0-0.2,0-0.3c0.3,0.1,0.6,0.1,0.9-0.2l1.5,2.6l-0.8,0.5L697.4,87L697.4,87z"/>
<path class="st0" d="M685.3,42.2L685.3,42.2L685.3,42.2C685.2,42.2,685.3,42.2,685.3,42.2z"/>
<path class="st0" d="M683.5,61.7c-0.2,0.4-0.2,0.6-0.3,0.7C683.8,63.2,683.7,62.5,683.5,61.7z"/>
<path class="st0" d="M698.8,83.3c0.2,0,0.4,0,0.6,0.1c0-0.9-0.8-1.7,0.4-2.6c-1.1-0.1-1.7,0.2-2.1-0.8c0,0-0.1,0.1-0.2,0.1
	c0.2,0.5,0.5,1.1,0.8,1.7c-0.6-0.1-1-0.2-1.6-0.3c-0.5,1.1,1.2,1.6,1.9,1.5l0,0C698.8,83.1,698.8,83.3,698.8,83.3L698.8,83.3z"/>
<path class="st0" d="M686.2,45.5c0.1,0.4,0.1,0.8,0.2,1.2l0,0c0.1,0,0.2,0,0.3,0C686.5,46.2,686.7,45.5,686.2,45.5L686.2,45.5z"/>
<path class="st0" d="M683.2,44.9c-0.8-0.1-1.7-0.3-2.5-0.5c0.5,2,0.8,3.5,3.2,3.4C683.8,46.7,683.4,45.8,683.2,44.9z"/>
<polygon class="st0" points="679.9,41 679.9,41 679.9,41 "/>
<path class="st0" d="M684.8,40.5c-0.1,0.6-0.1,1.2,0.4,1.6C685.5,41.4,685.5,41,684.8,40.5z"/>
<path class="st0" d="M690.3,59.6l0.2,0.7c0.1,0,0.2,0,0.2-0.1l0,0l-0.2-0.7C690.5,59.6,690.4,59.6,690.3,59.6L690.3,59.6z"/>
<path class="st0" d="M688.3,41.1c0.3,1,0.3,2.2,1.6,2.2C689.7,42.3,689.7,41.1,688.3,41.1z"/>
<path class="st0" d="M686,32.9c0.3,1.1,0.3,2.3,1.8,2.3C687.5,33.9,687.5,32.9,686,32.9z"/>
<path class="st0" d="M692,49.7c-0.3-1.1-0.6-2.1-1.2-3.1l0,0c-0.3-0.1-0.7-0.2-1-0.2C690.6,47.7,690,49.7,692,49.7L692,49.7z"/>
<path class="st0" d="M689.3,56.6c-0.1-0.3,0-1-0.5-1C689,56,689.1,56.3,689.3,56.6z"/>
<path class="st0" d="M689.7,45.7C689.7,45.7,689.7,45.6,689.7,45.7L689.7,45.7C689.7,45.6,689.7,45.7,689.7,45.7L689.7,45.7z"/>
<polygon class="st0" points="683.2,44.9 683.2,44.9 683.2,44.9 "/>
<path class="st0" d="M618.6,4.2c-1.4,2.2-0.2,1.8,1.2,3c-1.1-0.3-2.2-0.7-3.2-1l0,0c1-0.9-0.8-1.6-1.6-1.6c-0.3,0.3-0.3,0.7-0.1,1
	c-4.6-1.6-9.2-3.5-13.6-5.6h-1.9c10.4,5.3,21,10.6,31.8,14c-0.8,1.8,1.3,2.9,1.5,0.6c2.5,1.2,5.8,1.1,7.8,3.3
	c-0.9-0.2-1.9-0.4-2.8-0.6c-0.7,2.7,4.9,4.2,5.7,1.6c5.8-0.4,13.8,3.7,20.2,4.7c-3.7-5.4-17.2-1.9-19.6-9c-0.6-0.2-0.7,0.2-1,0.6
	c4,3.9-11.2-1.3-10.5-3.1c2.8,1.2,4-0.7,6.9,0.9c0-0.4-0.1-0.7-0.1-1.1c7.6,2,15.2,4.4,22.9,6.4c-1.1-6.1-2-12.2-2.7-18.3h-49.6
	C612.7,1.4,615.6,2.8,618.6,4.2L618.6,4.2z M621.4,5.5c14.1,3.3,11.7,10-1.6,3.1C621.1,7.6,621.9,7.1,621.4,5.5z"/>
<path class="st0" d="M696.1,77.4c0.3,0.7,0.4,1.5,1.4,1.7c0.1-0.5,0.1-1.1,0.2-1.7c-2.1-0.1-1.2-3.4-3.1-4c0.4,1,0.7,1.8,1.1,2.8
	C691.8,75.1,693.2,78.2,696.1,77.4z"/>
<path class="st0" d="M688.9,38.3c-0.1-0.9-0.7-1-1.5-1.1C687.5,38,688.1,38.1,688.9,38.3z"/>
<path class="st0" d="M690.2,0c1,7.4,2.3,14.8,4,22c2.7,8.4,17.5,5.4,25.2,8.3c2.8,0.5,5.7,1,8.6,1.4V0H690.2z"/>
<path class="st0" d="M701.5,88.8L701.5,88.8c-0.3-1.9-1.2-3.1-2.1-4.8C699.8,85.8,699.9,88.1,701.5,88.8z"/>
<polygon class="st0" points="687.4,37.2 687.4,37.2 687.4,37.2 "/>
<path class="st0" d="M693,56.5c3.5,11.4,7.7,22.5,12.4,33.5h1C701.3,79,698.2,66.6,693,56.5z"/>
<path class="st0" d="M694.2,70.5c-0.4-1.2-2.7-9.7-2.6-6.5C692.7,65.9,692.3,69.5,694.2,70.5z"/>
<path class="st0" d="M681.2,53.9c-0.2,0-0.3-0.1-0.5-0.1c0,0-0.1,0.2-0.1,0.3c0.2,0.1,0.3,0.1,0.5,0.2
	C681.1,54.1,681.2,54,681.2,53.9L681.2,53.9z"/>
<path class="st0" d="M686.2,28.9c-0.3-0.9-0.1-1.8-1.2-1.8C685.1,28,685,28.9,686.2,28.9L686.2,28.9L686.2,28.9z"/>
<path class="st0" d="M681,55L681,55L681,55c0,0.4,0,0.8,0.4,1.2C681.8,55.5,681.2,55.3,681,55L681,55z"/>
<path class="st0" d="M683.5,34.2c-0.3-0.7-0.1-2.1-1-2.1C682.7,32.9,682.4,34.2,683.5,34.2L683.5,34.2z"/>
<path class="st0" d="M684.2,36.8L684.2,36.8c-0.2,0-0.4,0-0.6,0c0,0.4,0.4,0.3,0.7,0.4C684.3,37.1,684.2,37,684.2,36.8L684.2,36.8z"
	/>
<path class="st0" d="M681,0h-1.5c1.1,8.3,2.8,16.3,5.6,23.6C683.4,15.8,682.1,7.9,681,0L681,0z"/>
<path class="st0" d="M573.8,12.6c-0.7,0.1-0.8,0.4-0.6,0.8C573.8,13.7,573.7,13.1,573.8,12.6z"/>
<path class="st0" d="M577,13.1c1-0.2,0.4-1.8-0.4-1.4C575.4,11.9,576,13.4,577,13.1z"/>
<path class="st0" d="M576.4,14l0.1-0.2c-0.3-0.1-0.5-0.3-0.8-0.4l0,0c0,0.1-0.1,0.2-0.1,0.2C575.9,13.7,576.2,13.8,576.4,14
	L576.4,14z"/>
<path class="st0" d="M683.1,44.5c-0.1-0.6-0.8-0.5-1.3-0.7C682.3,44.3,682.6,44.5,683.1,44.5z"/>
<path class="st0" d="M614.6,29.5c-0.1,1.2-0.9,1.3-2,1.4c0.3,2.1,2.5,3.5,3.5,1C620.3,34.4,617.2,28.2,614.6,29.5z M614.9,31.6
	l-0.2-0.6l0.7-0.2l0.2,0.6L614.9,31.6z"/>
<path class="st0" d="M569.7,6.2c-0.5-0.2-1-0.3-1.3,0.2C567.9,7.8,570.4,7.7,569.7,6.2z"/>
<path class="st0" d="M594.1,23.9c0.3,0,0.6-0.1,0.9-0.2C594.6,23.3,594.3,23.4,594.1,23.9z"/>
<path class="st0" d="M631,38.4c-0.9,0.5-0.3,1.8,0.7,1.4C632.5,39.4,631.9,37.9,631,38.4z"/>
<path class="st0" d="M0,90h683.3c-0.3-0.8-0.6-1.5-0.8-1.9c0.5,0,0.8-0.1,1.4-0.1c-4.5-3.6-5-9.7-7.2-14.8c0.1-3.2-2.6-5.9-3.1-9.5
	c-2.6-9.4-1.7-13.6-13-14.5c-16.3-3.4-36.7-9.1-48.4-15.7c-0.2,0.3-0.4,0.5-0.7,0.8c-9.7-3-0.2-2.8-4.9-5.8
	c-0.2,0.7-0.4,1.3-0.6,1.9c-2.1-0.9,0.3-2.5,0.8-3.4l-0.8,0.2l-0.2-0.5l0.9-0.3c0,0,0.1,0.5,0.2,0.5c6.3-1,13.7,4.1,19.9,6.2
	c13.8,4,27.4,8.5,41.4,11.3c-0.5-0.9-0.4-2.3-1.1-3l0.2,0c-0.3-1.9-1.7,0.2-3.2-0.5c0.2-0.2,0.4-0.5,0.5-0.7c-0.7,0-1.7-0.8-2-0.3
	l0.6,0.5c-1.7-0.2-3.6-0.1-4.9-1.5c-1.4,1.2-2.5-0.3-4.1-0.3c-1.1,0.2-1.4-1.7-2.4-1c-1,0.8-1.7-0.4-2.6-0.5
	c-0.8-0.7-2.8,0.4-2.8-1.1c-2.4-0.1-4.5-1.2-6.8-1.8c0.6-0.7-0.4-1-1.3-0.2c0.1,0.1,0.2,0.2,0.3,0.3c-1.9-0.6-3.6-1.7-5.8-2
	c0.9-1.4-3.2-0.3-4.3-1.1c0,0,0-0.1,0.1-0.1c0.3,0,0.7-0.2,0.9-0.3c-0.5-0.3-0.8-0.2-1,0c0-0.1-0.1-0.2-0.1-0.3
	c-4.2,0.1-7.3-3-11.4-3.7c0.2-0.1,0.5-0.2,0.8-0.3c-0.8-0.8-1.7-0.4-2.8-1.1c0.2,0.4,0.3,0.6,0.6,1c-1.2-0.4-2.6-0.3-3.3-1.4
	c-0.5-1.8-3.3,0.4-4.2-2.1c-0.6-0.2-1.4,0.3-1.7-0.6c-1.2,0.3-2-0.5-2-1.9c-0.4,0.5-0.5,0.8-0.8,1.1c-0.5-0.3-1.1-0.7-1.6-0.9
	c0.3-2.2-3.2-1-4.7-2.4c-1.2-0.5-1.8-2.1-3.4-1.6c-1.3-1.2-3.2-1.4-4.8-2.4c0,0,0,0,0,0c0.5,0.1,1,0.4,1.6-0.1
	c-0.7-0.3-1-0.2-1.6,0.1c-0.8-1.2-2.1-1.2-3.2-1.7c-0.5-0.8-1.4-0.9-2.1-1.3c1.4-0.5-1.7-2.2-1.4-0.7c-1.8-0.4-3.2-1.2-3.9-3
	c-0.3,0.1-0.2,0.4-0.3,0.8c-0.6-0.3-1.2-0.7-1.8-1c0.6-0.1,1,0.1,1.1-0.3c-0.7-0.2-1.4-0.8-2.1-1.2c0,0.4,0.4,0.5,0.6,0.8
	c-0.2,0-0.3-0.1-0.4-0.1l0.1,0.3L574.1,7l-0.7-2.4l0.2-0.1c0,0,0,0,0,0l0,0c-0.5-0.1-1.1-0.2-1.6-0.2c-0.9-2.2-4.9-2.2-6.8-4.3h-5
	c13.9,8.3,28,15.9,41.9,23.1c-0.2,0.2-0.5,0.4-0.8,0.6c0.9,1.1,2.4,2.3,3.3,0.5c0.5,1.1-0.3,2.3,1.2,2.6c-0.7,1.8-2.1-0.4-2.8,0.8
	c0.2,0.3,0.4,0.5,0.7,0.8c-0.4,0.1-1-0.6-1.7-0.9c3.3,7.3-32.5-15.2-35.6-16.3c1.3-1.4-0.6-2.4-1.2-0.5c-6-3.5-11.8-7.1-17.6-10.8H0
	V90z M607.6,25l0.2,0.8l-1.2,0.4l-0.2-0.8L607.6,25z M583.3,11.1c0,0-0.2-0.7-0.2-0.8l0.8-0.2c0,0,0.2,0.7,0.2,0.8L583.3,11.1z"/>
<path class="st0" d="M559.9,3.4c-0.7,0.1-0.7,0.7-1.1,1.1C557.6,6.4,560,5.6,559.9,3.4z"/>
<path class="st0" d="M670.6,25.3c0.8,0.1,1.6,0.3,2.4,0.5c0.2-1.8-1.6-1.5-2.9-1.9C670.3,24.4,670.5,24.8,670.6,25.3L670.6,25.3
	L670.6,25.3z"/>
<path class="st0" d="M728,50.3v-2.4c-9.5-0.9-18.9-2.4-28.2-4.4C708.4,47.3,718,49.3,728,50.3L728,50.3z"/>
<path class="st0" d="M676.5,40.2c0-0.6,0-1.3-0.3-1.8l0,0c-1-0.2-2.1-0.5-3.2-0.7C673.2,39.9,674.8,39.9,676.5,40.2L676.5,40.2z"/>
<path class="st0" d="M686.1,70.2c-0.5,0.2-0.3,1,0.5,1C686.4,70.8,686.2,70.5,686.1,70.2z"/>
<path class="st0" d="M672,20.7c-0.4-3.5-2.2-7-1.3-10.5c-2-2.9-1.8-6.7-2.2-10.2h-2.8C666.8,11.4,668.6,20.6,672,20.7z"/>
<path class="st0" d="M678.5,46.5c0-0.6-0.2-1.2-0.6-1.7c-0.6-1-0.9-1.7-2.2-1.5c0-0.7-0.5-1-1.2-1.1c0.3,1.3,0.7,2.9,1,4.2
	C676.5,46.3,677.6,46.4,678.5,46.5L678.5,46.5z"/>
<path class="st0" d="M694.2,42.4c0.4,0.6,0.1,1.3,0.3,1.9c0.5,0.1,1,0.2,1.5,0.3C695.7,43.4,695.6,42.3,694.2,42.4L694.2,42.4z"/>
<path class="st0" d="M708.6,49.4c-0.4-0.4-0.5-0.4-0.8-0.1C708,49.8,708.2,49.7,708.6,49.4z"/>
<path class="st0" d="M712.7,49.9L712.7,49.9c-0.9-0.1-1.6-0.1-2.3-0.2C710.7,50.6,712.2,50.3,712.7,49.9L712.7,49.9z"/>
<path class="st0" d="M728,36.2v-1.7c-11.1-1.2-21.9-3-32.2-5.1C704.9,33.7,716.3,35.4,728,36.2z"/>
<path class="st0" d="M725.1,59.1c-0.6-0.4-1.2-0.5-1.6-0.3C724.1,58.9,724.6,59,725.1,59.1z"/>
<path class="st0" d="M719.7,51.4c0.4,0,0.9,0.1,1.3,0.1C720.6,50.7,720.2,51.1,719.7,51.4z"/>
<path class="st0" d="M699.1,40.1c-0.2,0-0.3-0.1-0.5-0.1C698.6,40.3,698.9,40.1,699.1,40.1z"/>
<path class="st0" d="M728,55.6v-2.7c-2.9-0.2-5.8-0.6-8.5-1.2c-0.4-0.5-1.4,0-1.6-0.8c-0.3-0.9-1.2,0-0.6,0.6
	c-3.3-1.2-6.9-0.7-10.4-2l0,0c0-0.1-0.1-0.3-0.2-0.3l0.1,0.4l-1.8,0.5c0-0.1-0.1-0.4-0.2-0.5l1.8-0.5c-0.6-0.5-1.8-0.4-2.6-0.3
	c0,0.2,0,0.3,0.1,0.5c-1,0.1-1.1-1.5-2.3-1.2c0,0.2,0.1,0.4,0.1,0.8c-0.3-0.1-0.5-0.2-0.8-0.3C705.4,53.7,716.9,55.1,728,55.6
	L728,55.6z"/>
<path class="st0" d="M707.2,41.5c0,0.1,0,0.2-0.1,0.3c2.5,0.5,4.9,1.8,7.4,1.3C712.4,41.9,709.6,42.1,707.2,41.5z"/>
<path class="st0" d="M700.8,40.1c0.5,1.1,3,1,4.2,1.2C704.4,40.3,702.1,40.4,700.8,40.1z"/>
<polygon class="st0" points="723.5,51.8 723.5,51.8 723.5,51.8 "/>
<path class="st0" d="M714.9,42.9c0,0.1,0,0.2,0,0.2c0.3,0,0.5,0.1,0.8,0.1c0-0.1,0-0.2,0-0.2C715.4,43,715.1,43,714.9,42.9z"/>
<path class="st0" d="M722.8,51.5c0,0.1,0,0.2,0,0.3l0.7,0v-0.2C723.2,51.5,723,51.5,722.8,51.5L722.8,51.5z"/>
<path class="st0" d="M728,45.1v-0.7c-3.7-0.4-7.5-0.8-11.1-1.1C720.3,44.3,724.2,44.9,728,45.1z"/>
<path class="st0" d="M678.5,13.2L678.5,13.2l0.3-0.1L678,8.6C677.5,10.2,678,11.7,678.5,13.2z"/>
<path class="st0" d="M677,2c-0.1-0.7-0.2-1.3-0.3-2h-0.6C677,5.5,678.3,10.1,677,2L677,2z"/>
<path class="st0" d="M677.8,21.8c-1.9-7.2-3.2-14.5-4-21.8h-2.5C672.3,11.3,674.2,21.1,677.8,21.8L677.8,21.8z"/>
<path class="st0" d="M680.9,36.5c-0.1-0.2-0.1-0.5-0.2-0.7c-0.8-0.2-1.6-0.2-2.4-0.3C678.8,36.2,680.1,36.2,680.9,36.5L680.9,36.5z"
	/>
<path class="st0" d="M693.1,38.6c-0.1,1.1,0.8,1.1,1.7,1.3l0,0C694.8,38.8,693.9,38.9,693.1,38.6z"/>
<path class="st0" d="M678.6,26.8c0.1-1.5-1.3-1.4-2.5-1.6c0.1,0.4,0.2,0.8,0.3,1.2C677.1,26.5,677.9,26.7,678.6,26.8L678.6,26.8z"/>
<path class="st0" d="M680.5,20.6c-0.1-1.1-0.5-2.1-0.9-3.3C679.1,18.3,679.2,18.7,680.5,20.6z"/>
<path class="st0" d="M680.1,33.5c0-2-0.8-2.2-2.7-2.5C677.4,32.9,678.4,33.2,680.1,33.5z"/>
<path class="st0" d="M692.8,53.6C692.8,53.6,692.8,53.6,692.8,53.6C692.8,53.6,692.8,53.6,692.8,53.6
	C692.8,53.6,692.8,53.6,692.8,53.6L692.8,53.6z"/>
<path class="st0" d="M681,22.5c0-0.5-0.2-1-0.3-1.4c-0.4,0-0.1,1-0.2,1.3C680.7,22.5,680.9,22.5,681,22.5z"/>
<path class="st0" d="M692.8,53.7C692.8,53.7,692.8,53.7,692.8,53.7L692.8,53.7L692.8,53.7L692.8,53.7z"/>
<path class="st0" d="M691.8,34.1c0.4,1.4,0.7,2.4,2.3,2.4l0,0C693.8,35.1,693.4,34.1,691.8,34.1z"/>
<path class="st0" d="M684.9,0c0,0.4,0.1,0.9,0.1,1.3c1.2,3.8,2.9,24.1,6,23.7c-2-8.2-3.5-16.5-4.5-24.9H684.9L684.9,0z"/>
<path class="st0" d="M690.6,28.2c0.2,0.6-0.1,1.4,0.6,1.5c0.4,0.2,0.8,0.3,1.2,0.5C692.3,28.9,691.9,28.3,690.6,28.2L690.6,28.2z"/>
</svg>
