<svg version="1.1" id="a" xmlns="http://www.w3.org/2000/svg" x="0" y="0" viewBox="0 0 300 250" style="enable-background:new 0 0 300 250" xml:space="preserve"><style>.st0{fill:#fff}</style><path class="st0" d="m291.1 59.8-1.7-1-.2.4 1.7 1zM292.6 55.5c-1.9-1.3-3.8-2.5-5.7-3.8-2.4-1.7-4.4-3.9-7.2-5.2-2-1-3.7-2.6-5.6-4-1.9-1.3-3.7-2.7-5.6-4-1.3-.9-2.7-1.8-4.1-2.6-.9-.5-1.9-.9-2.9-1.4-.6-.3-1.4-.4-1.9-.8-2-1.3-3.9-2.7-6-3.9-2.2-1.3-4.5-2.4-6.8-3.6-.7-.4-1.2-1-1.9-1.2-2.2-.6-3.9-2.1-5.8-3.2-2.7-1.6-5.6-3-8.5-4.5-.3-.2-.6-.2-.9-.4-2-1.2-4-2.3-6-3.5-1.1-.6-2.1-1.3-3.2-2-.2-.2-.5-.3-.7-.5l-.5-.4c-.5-.4-1.1-.9-1.7-1-2.6-.8-4.4-2.9-6.5-4.3-2.2-1.5-4.3-3.3-6.3-5.2h-2.1l.6.6c.8.7 1.7 1.2 2.5 1.9 1.8 1.5 3.4 3.3 5.2 4.7 2 1.5 4.2 2.6 6.3 4 1 .7 1.9 1.5 3 2.2 2 1.2 4 2.3 6 3.4l6.9 3.9c1.1.6 2.3 1.2 3.4 1.8 3 1.6 5.9 3.3 8.8 4.9 1.8 1 3.5 2 5.3 3.1 2 1.2 4 2.4 6 3.5 2.3 1.2 4.8 2.2 6.9 3.6 1.1.8 2.3 1.5 3.5 2.2l1.4.9c2.4 1.4 4.8 2.9 6.9 4.8 2.6 2.3 5.7 3.8 8.5 5.9 3.3 2.3 6.5 4.7 9.6 7.2 2.2 1.7 4.3 3.5 6.4 5.3v-2.5c-1.6-1.3-3.2-2.5-4.7-3.8-.8-.6-1.7-1.4-2.6-2.1zM298.3 66.2c.6.5 1.2 1.1 1.7 1.7V67l-1.4-1.2c-.1.1-.2.3-.3.4z"/><path class="st0" d="m258.3 38-.1.1c1.2.6 2.4 1.3 3.6 1.9.1-.1.2-.3.3-.4l-3.8-1.6zM270.1 44.5c-1.4-.9-2.9-1.7-4.3-2.6-.2.1-.2.3-.3.4 1.4.9 2.8 1.8 4.3 2.6.1 0 .2-.2.3-.4zM293.6 85.8l-1-.8c-.7-.5-1.3-1.1-1.9-1.6-4.6-4.2-9.6-8-14.6-11.8-2-1.5-4-2.9-6.1-4.3-3.3-2.3-6.6-4.6-10-6.9-2.6-1.8-5.2-3.7-7.9-5.4-1.7-1.1-3.6-1.9-5.3-2.9l-9.3-5.4c-.3-.2-.6-.3-.9-.4-3.4-1.5-6.8-3.1-9.8-5.3-.9-.7-2-1.2-3-1.7l-1.3-.6c-.6-.3-1.3-.6-1.9-1-4-2.3-8.2-4.1-11.8-7-1.2-.9-2.5-1.8-3.8-2.3-3.1-1.2-5.3-3.6-7.9-5.4-3.2-2.2-6.1-4.9-8.9-7.5-3.6-3.3-7.1-6.7-10.6-10.2-1.7-1.7-3.3-3.4-4.8-5.2H0v115.4h.4V250h91c.6-3.2.7-6.6 1.3-9.8.4-2.5 1.2-4.9 2.1-7.3 1.2-3.4 2.5-6.8 4-10.1.7-1.6 1.6-3.1 2.5-4.6l.9-1.5c.1-.3.3-.5.4-.8 1-1.7 1.9-3.5 3.1-5.1 1.6-2.1 3.2-4.3 5-6.2 2.3-2.4 4.9-4.7 7.5-6.8.8-.7 2.1-.9 3.2-1.4.6-.3 1.3-.7 1.8-1.2 1-1 2.2-1.7 3.6-1.8.7-.1 1.3-.5 2-.7 2.4-.9 4.8-1.9 7.2-2.6 2.2-.6 4.4-1.1 6.7-1.4 2-.2 4.1-.1 6.2 0 1.4.1 2.9.4 4.3.4 3.8 0 7.2 1.5 10.8 2.4 3.3.8 6.5 2.2 9.5 3.7.7.3 1.3.7 2 1l1.4.6c2.7 1.3 5.4 2.6 7.8 4.5 2.2 1.7 4.8 3 7.1 4.7 1.6 1.1 2.9 2.5 4.4 3.8 2.7 2.3 5.5 4.6 8.3 6.9.7.6 1.2 1.4 1.8 2 1.8 1.5 3.6 2.9 5.4 4.4s3.5 3.1 5.3 4.6c1.3 1.1 2.7 2 4.1 2.9 1.8 1.1 3.5 2.2 5.4 3.1 1.2.6 2.6.7 3.7 1.4 1.7 1.1 3.6 1.2 5.4 1.5 3.2.6 5.9-.9 6.6-4.7.8-4.1 0-8-1.3-11.8-.5-1.4-.7-2.8-1.2-4.2-.3-1-1-1.8-1.4-2.8-1.3-2.7-2.5-5.5-3.8-8.2-.4-.8-1-1.4-1.4-2.1-1.4-2.3-2.6-4.6-4-6.9-1.8-3-3.7-5.9-5.7-8.8-.8-1.1-1.8-2-2.6-3.1-1-1.4-1.7-3-2.6-4.5l-3.3-5.4c-.1-.1-.2-.2-.2-.3-1-3.9-3.9-7.2-3.9-11.5 0-1.7-.8-3.4-1.3-5.1-.4-1.6-.4-3.1 0-4.7s0-3.4.4-4.9c.6-2.3 1.8-4.4 2.5-6.7.6-2 1.8-3.4 3-4.9l.5-.6c1.7-1.9 3.4-3.8 5.4-5.4 2.8-2.2 5.9-4.2 9.4-5.2l2.7-.9 1.1-.4c2.4-.8 4.7-1.6 7.3-1.7s5.2.1 7.9.1 5.6.3 8.3 1.3c3.4 1.3 7 2.1 10.4 3.3 3 1.1 5.9 2.6 8.8 4 3.8 1.9 7.6 4 11.4 6 .7.4 1.5.6 2.3.8.5.2 1 .3 1.4.5 2.4 1.3 4.7 2.5 7 3.9.2.1.5.3.7.5V92.3c-.9-1-1.9-2-2.7-3.1-1.1-1.3-2.4-2.4-3.7-3.4zM252.5 34.5c-.7-1.1-2-1.3-3.1-1.7l-.2-.1 3.4 2-.1-.2zM299.3 70.9c-3.2-2.5-6.4-5.1-9.6-7.5s-6.5-4.8-9.7-7.2c-1.7-1.2-3.3-2.4-5-3.5-2.6-1.7-4.9-3.6-7.5-5.3-1.5-1-3.1-1.7-4.6-2.6-4.2-2.5-8.3-5.1-12.5-7.6-1.8-1.1-3.7-1.9-5.5-2.9-2.8-1.5-5.5-3-8.3-4.5-1.2-.6-2.3-1.3-3.4-2-1.7-1-3.4-1.9-5.1-2.9-1.8-1-3.6-1.8-5.3-2.8-2.5-1.5-4.9-3.1-7.3-4.7-2.2-1.4-4.4-3-6.7-4.3-2.8-1.6-5-3.9-7.4-6-2.7-2.3-5.2-4.8-7.8-7.2h-2.9c1.4 1.3 2.9 2.5 4.4 3.8 2.7 2.4 5.4 4.7 8.1 7.1 1 .9 1.9 1.9 3 2.6 2.4 1.6 4.8 3 7.2 4.5 1.9 1.2 3.6 2.5 5.5 3.6 3.4 1.9 6.8 3.7 10.3 5.6 3 1.6 5.9 3.3 8.9 4.9l.7.4 1.5.8c.5.3 1 .5 1.4.8 2.7 1.6 5.4 3.3 8.1 4.9 3 1.7 6.3 3.1 9.2 4.9 4.5 2.8 8.7 5.8 13.1 8.8l3.8 2.6c2.5 1.7 5 3.4 7.5 5.2 1.4 1 2.8 2.1 4.1 3.2l2 1.7c.3.3.7.6 1 .8l4.8 3.9c1.6 1.4 3.2 2.8 4.7 4.3v-2.7c-.2-.2-.5-.4-.7-.7zM198.8 10.6l-1.2-.9c0 .1-.1.2-.2.3l1.1.9c.1-.1.2-.1.3-.3zM192.8 5.2c-.4-.2-.9-.5-1.3-.7-.1.1-.1.2-.2.3l1.4.6c0 .1.1-.1.1-.2zM283 42l-6.9-4.8-1.2-.9-1.2-.9c-.8-.6-1.6-1.2-2.4-1.7-2.8-1.7-5.7-3.2-8.6-4.8-1.6-.9-3.1-1.8-4.7-2.7-.9-.5-1.8-1-2.8-1.5-3.1-1.8-6.1-3.7-9.3-5.2-3-1.4-5.7-3.3-8.6-4.9-1.4-.8-3.1-1.3-4.5-2.1-3.1-1.8-6.1-3.8-9.2-5.7-.6-.4-1.2-1.1-1.8-1.3-3-1.3-5.5-3.3-8-5.2-.1-.1-.2-.2-.3-.2h-1.6c.5.4.9.9 1.4 1.2 1.6 1.2 3.4 2.2 5 3.3 1.8 1.2 3.5 2.5 5.4 3.6 1.6 1 3.2 1.8 4.8 2.7 3 1.8 6 3.5 9 5.3.4.3.7.8 1.2 1 2.6 1.3 5.3 2.5 7.9 3.8.7.3 1.3.7 1.9 1.1l1.2.8c.4.3.8.5 1.3.8 1.4.8 2.9 1.4 4.3 2.2 3 1.7 6 3.5 9 5.3 2.1 1.2 4.4 2.2 6.4 3.7 1.7 1.3 4.2 1.5 5.1 3.8 0 .1.3.2.3.2 1.3-.5 1.7.6 2.4 1.2s1.4 1.2 2.1 1.7l1.5 1.1c.2.2.5.2.8.3.5.2 1 .4 1.4.7 1.6 1.1 3.2 2.3 4.8 3.5 1.2.9 2.4 1.6 3.5 2.5 1.2.9 2.3 1.9 3.4 2.8 1.4 1.1 2.7 2.1 4 3.1v-1.4c-3-2.5-6-4.9-9.3-7-2.7-1.7-5.2-3.7-7.7-5.4zM211.1 10.4c-1.1-.7-2.1-1.4-3.2-2.2-.1.1-.2.3-.3.4 1.1.7 2.1 1.5 3.2 2.2.1-.2.2-.4.3-.4zM203.5 4.2c-1.1-.9-2.3-1.9-3.4-2.8-.2 0-.3.1-.4.3 1.2.9 2.3 1.8 3.5 2.8.1-.2.2-.3.3-.3zM219.9 0l4.8 3c2.4 1.5 4.8 2.9 7.3 4.3 2.8 1.6 5.7 3.3 8.5 4.8 3.4 1.9 6.9 3.7 10.3 5.6.9.5 1.7 1.2 2.6 1.7l6.3 3.6c4 2.3 8 4.6 11.9 6.8l.9.5 1.8 1c1.2.7 2.3 1.3 3.5 2.1 1.7 1.1 3.2 2.5 4.9 3.7 4.1 2.9 8.3 5.6 12.4 8.5.8.6 1.5 1.3 2.3 1.9.9.7 1.8 1.5 2.6 2.2V0h-80.1zM257.1 36.7l-4.3-1.8-.2-.1c1.4.9 2.7 1.7 4.1 2.6.1-.2.2-.5.4-.7z"/><path class="st0" d="M295.1 74.2c-1.2-.8-1.5-2.6-3.3-2.7-.1 0-.3-.3-.4-.6l-.1-.2c-.1-.1-.1-.2-.2-.3-.1-.1-.1-.4-.2-.4-1.5-.3-2.7-1.1-3.3-2.6-.1-.1-.4-.1-.6-.2-.7-.3-1.5-.5-1.9-1-.6-.8-.8-1.8-2.1-1.4-.2 0-.5-.3-.7-.5-1-.9-1.9-1.9-2.9-2.7-.2-.1-.6 0-.7 0-.3-.5-.6-1.2-.9-1.3-1.9-.1-2.7-1.9-4.1-2.7-1.6-.9-3.3-1.8-4.6-3.2-.7-.7-2-.9-2.9-1.5-1.4-.9-2.7-2-4.1-2.9-.8-.5-2-.8-2.4-1.5-.6-1.2-1.3-1.4-2.4-1.5-.2 0-.3-.1-.5-.2l-3.9-2.4c-.4-.2-.8-.5-1-.9-.2-.3-.3-.8-.3-.9-.7.2-1 .4-1.3.3-.8-.4-1.6-.9-2.4-1.3-2.2-1.1-4.4-2.2-6.5-3.3-.2-.1-.3-.4-.5-.5l-.3-.2-.5-.5c-.4-.3-.7-.6-1.1-.8-.7-.4-1.5-.4-2.2-.7-.9-.5-1.8-1.2-2.7-1.7-1.5-.8-3-1.5-4.6-2.3-2-1-3.9-2.1-5.9-3.1-.2-.1-.4-.4-.6-.6-.5-.5-.9-1.2-1.5-1.4-1.1-.3-2.1-.6-3-1.4-1-.9-2.1-1.6-3.2-2.2-.9-.5-1.9-.9-2.9-1.3 0-.1.1-.2.1-.3.3 0 .5.1.8.1-.4-.5-1-1.1-1.5-1.1-1.6 0-3.7-1-4.3-2.3-.1-.3-.4-.6-.6-.7-.7-.3-1.5-.5-2.2-.9-1-.6-2-1.3-2.9-2-.5-.4-1-.9-1.8-1.5.7 0 .9.1 1.4.1-.4-.4-.7-.8-1-.8-1.2-.1-2-.8-2.9-1.5-2.2-1.6-3.9-3.8-6.2-5.4-2-1.5-3.6-3.4-5.3-5.2h-3.6c1.4 1.7 2.7 3.5 4.6 4.7 1 .6 1.6 1.7 2.4 2.5s1.7 1.6 2.5 2.3c.7.6 1.3 1.2 2 1.7.4.3 1 .6 1.3 1 .2.2.3.4.4.6l.2.4c.5.7.9 1.5 2.1 1.3.1 0 .2.1.3.2.9.9 1.8 1.9 2.7 2.8.8.8 1.7 1.7 2.7 2 2.1.6 3.3 2.3 5 3.3.4-.1.9-.1 1.1.1.6.5 1 1.3 1.7 1.7 1.8 1.1 3.7 2 5.5 3 1 .5 2.1.9 3.1 1.5 1.2.8 2.4 1.8 3.6 2.5.3.2.7.4 1 .5l.7.3c.2.1.5.2.7.3 1.6.8 3.1 1.7 4.6 2.5l.8.5 1.6 1c.3.2.5.3.8.5.7.4 1.4.7 2.2 1 1.1.6 2.3 1.1 3.3 1.8 1.5.9 2.9 2 4.5 2.9 1.1.6 2.4 1 3.6 1.6 1.9 1 3.8 2.2 5.7 3.3 1 .6 2.1 1 3 1.6l4.5 3c1.3.9 2.7 1.9 4 2.9.2.2.4.4.7.5.9.5 1.9 1 2.8 1.6 1.7 1.2 3.4 2.5 5.1 3.7s3.4 2.4 5 3.6c.9.7 1.8 1.6 2.7 2.3 1 .8 2.1 1.4 3.2 2.2.8.6 1.6 1.4 2.4 2 1.6 1.3 3.2 2.6 4.8 3.8.3.3.6.6 1 .9 1.4 1.1 2.7 2.2 4.1 3.3 1.3 1.1 2.5 2.4 3.7 3.5v-4.5c-.4-.3-.8-.7-1.2-1.1-1.3-1.2-2.5-2.2-3.8-3zM223 18l-2-.9c-.1.1-.1.2-.1.3l2 .8c0-.2.1-.2.1-.2zM248.4 32.5c.1 0 .3.1.4.1h.1c-1.1-.7-2.1-1.5-3.2-2.2l-.2.4c.6 1 1.5 1.3 2.5 1.6 0-.1.4 0 .4.1zM241.9 28.6c-.1.1-.1.2-.2.2l2.3 1c0-.1 0-.1.1-.2l-2.2-1zM237.6 26l-2.6-1.1c0 .1-.1.2-.1.3l2.6 1.1c0-.2.1-.3.1-.3zM234.6 24.5c-2.4-1.2-4.7-2.5-7.1-3.7 0 .1-.1.2-.2.4 2.4 1.2 4.8 2.4 7.1 3.7.1-.1.1-.3.2-.4zM260.1 229.4h.4l-.1-1.6h-.4c0 .5.1 1.1.1 1.6zM238.2 177c.4.5.8.9 1.2 1.4l.2.2c-.4-2-1.7-3.4-3.1-4.8.4 1.1 1 2.2 1.7 3.2zM283.4 151.9c-3.3-1.6-6.5-3.2-9.6-4.7-.1.2-.1.3-.2.4 4.9 3 8.6 4.7 9.8 4.3zM239.7 178.7c.1 0 0-.1 0-.1v.1zM260.2 232.4c0-.8-.1-1.7-.1-2.6h-.4c0 .9 0 1.7-.1 2.6h.6zM239.9 178.8l-.1-.1c.8 1.4 1.6 2.7 2.3 4.1.1 0 .3-.1.4-.2-.6-1.5-1.3-2.8-2.6-3.8zM255.8 139.8l3.3 1.4c-.9-1.5-2.1-1.5-3.3-1.4zM251.8 138.2l-3.5-.3v.4c1.1.1 2.3.3 3.4.4l.1-.5zM232.8 169c.2-.2.4-.3.5-.4l-2-3.1c-.1.1-.3.2-.4.3l1.9 3.2zM268.3 144.8c-.1.1-.1.2-.1.2l2.7 1.1c.1 0 .1-.1.2-.1l-2.8-1.2zM236.6 140.2c.7-.2 1.3-.3 2-.5-.8-.5-1.6-.9-2 .5zM231.4 143c-.3.4-.7.8-1.1 1.1.1.1.2.2.2.3.4-.3.8-.7 1.2-1-.1-.1-.2-.2-.3-.4zM248.7 193.5c.2-.1.4-.2.5-.3-.3-.4-.6-.9-.9-1.3-.1.1-.3.2-.4.3l.8 1.3zM251.7 235.1l-1.6 3.8.3.1 1.6-3.8z"/><path class="st0" d="M271.4 233.8c.3-1.5.4-3.2.2-4.7-.5-3.4.4-6.8-.7-10.2-.8-2.3-1.1-4.8-1.7-7.1-.4-1.4-1-2.8-1.5-4.2-1.2-3.1-2.2-6.2-3.5-9.2-.7-1.7-2-3.2-2.7-4.9-1.6-3.8-4.3-7.1-6.3-10.7-1-1.8-2.1-3.5-3.3-5.2l-1.4-2c-.5-.7-.9-1.4-1.4-2-.8-1.2-1.3-2.5-2.1-3.6-1-1.4-2.4-2.6-3.3-4.1-1.2-1.9-2.1-4-3.2-6.1-.3-.6-.8-1-1.3-1.5-.2.1-.3.2-.5.3 1 1.9 1.9 3.9 2.9 5.8.9 1.6 1.8 3.2 2.8 4.7 2 2.9 4.1 5.8 6.1 8.7 1.9 2.8 3.7 5.6 5.5 8.5 1.8 3 3.8 5.9 5.2 9 .2.4.4.8.7 1.2l.2.3c.6.8 1.1 1.7.9 2.9-.1.4.5.9.7 1.4 1 1.9 1.7 3.9 2.4 6l.5 1.5c.3 1 .7 2 1.1 3 .4.9.1 2.1.6 2.9.9 1.4 1.1 2.8 1.3 4.3.3 2 .6 4 .4 6.2-.3 1.9.1 4 0 6 0 1.1-.6 2.2-.6 3.3 0 3-1.3 5.7-2.1 8.5-.6 2.3-2.2 4-3.2 6.1-.2.4-.4.8-.6 1.1h1.9c2-3 3.5-6.3 4.3-9.9.5-2.1 1.3-4.2 1.7-6.3z"/><path class="st0" d="M285 147.3c-1.1-.6-2.2-1-3.3-1.5-.9-.4-1.8-.9-2.7-1.4-.8-.4-1.6-.6-2.4-1-1.4-.7-2.8-1.5-4.3-2.2-1.1-.5-2.2-.9-3.3-1.4-2.7-1.2-5.4-2.5-8-3.7-.7-.3-1.4-.4-2.1-.6-.7-.3-1.5-.6-2.2-.9-1.3-.4-2.5-.7-3.8-1-4.1-.8-8.1-.5-12.1.2-1.6.3-3.2.6-4.7 1.1-1.2.5-2.4 1.2-3.5 2-1.9 1.4-4.3 2.1-5.8 4.2-2.1 2.8-4.1 5.7-4.7 9-.4 2.7.2 5.7 1 8.4 1.1 3.6 2.7 7.1 4.2 10.5.7 1.6 1.9 3 2.9 4.5 2.8 4.1 5.5 8.3 8.3 12.4 1.4 2.1 3 4.2 4.3 6.5 1.9 3.3 3.8 6.6 5.5 10 .8 1.5 1.3 3.1 1.9 4.7.9 2.3 1.8 4.5 2.7 6.8 1.3 3.4 2.5 6.9 2.6 10.7.2 5.8-.5 11.5-3.5 16.6-.8 1.3-2 2.4-3.2 3.3-1.6 1.2-3.4 2.3-5.3 3.2-1.7.9-3.6 1-5.5.9h-1.8c-4.1.1-7.9-1.1-11.6-2.6-4.3-1.7-8.5-3.5-12.1-6.6-2.1-1.8-4.5-3.2-6.6-5-1.8-1.5-3.5-3.1-5.2-4.6l-3.4-3.1c-.6-.5-1.1-1-1.7-1.6-1-.9-2.1-1.9-3.2-2.7-2.7-2.3-5-5.1-8.2-6.7-1-.5-1.8-1.4-2.7-2.1-2.5-2-5.2-3.6-8.2-4.9-1.3-.6-2.4-1.5-3.7-2.1-1.7-.8-3.6-1.5-5.3-2.3-2.2-.9-4.3-2-6.6-2.7-1.4-.5-2.9-.4-4.4-.6-2.2-.3-4.5-.7-6.7-.8-1.5 0-3 .3-4.5.6-2 .4-4.1.8-6 1.5-2.2.8-4.3 1.8-6.4 2.9-1.5.8-3.2 1.5-4.4 2.6-2.3 2-4.4 4.2-6.6 6.4-2.7 2.7-4.5 6-6.4 9.2-1.9 3.4-3.4 7-4.7 10.7-1.1 3-2 6.1-2.7 9.3-.3 1.5-.5 3-.6 4.5l-.1 1.5c0 .2 0 .4-.1.6h1.5c.2-1.5.9-2.9.8-4.3-.1-2.9 1.4-5.4 1.8-8.2.4-2.9 1.8-5.4 3-8 .7-1.6 1.2-3.2 2.1-4.7 1.6-2.8 3.4-5.5 5.2-8.1.9-1.4 2.2-2.5 3.3-3.8 1.1-1.2 2.1-2.6 3.4-3.5 2.5-1.6 5-3.2 7.8-4.4 3.2-1.4 6.6-2.5 10.1-3.3 2-.5 4.1 0 6.2 0 2.8 0 5.5.8 8.1 1.6 2.8.9 5.5 2.1 8.3 2.9 4.1 1.2 7.5 3.7 11.2 5.8 3.6 2.1 6.9 4.8 10.2 7.3 1.5 1.2 2.7 2.8 4.1 4.1 1.7 1.5 3.5 2.8 5.2 4.3.7.6 1.2 1.3 1.9 1.9l2.4 1.8c.4.3.7.8 1.1 1.2l1.2 1.2c1.3 1.1 2.5 2.3 3.9 3.3 1.4 1.1 2.9 2 4.3 3 .4.2.7.5 1.1.8.4.3.8.6 1.2.8l1.2.9c1.2.9 2.5 1.7 3.8 2.3 2.2 1.1 4.6 1.6 6.9 2.4 1.3.5 2.5 1.1 3.8 1.6.3.1.7.1 1 .2l.5.1 1 .2c.7.1 1.4.2 2.1.2 2.2.1 4.5.6 6.7-.4 1.1-.5 2.3-.8 3.4-1.1 2.9-.7 4.9-2.7 7.1-4.4 1-.8 1.7-2 2.2-3.2 1.1-2.7 2.2-5.5 2.9-8.4.5-2 .3-4.2.4-6.3.1-2 .3-4-.4-6-.6-1.7-.9-3.5-1.4-5.2-.6-2.1-1.3-4.2-2.1-6.3-1.3-3.4-2.7-6.8-4.6-9.9-2.7-4.4-5.3-8.8-8-13.2-1.2-2-2.6-3.9-3.8-5.9-.7-1-1.2-2.1-1.9-3.1-1.1-1.5-2.3-2.9-3.4-4.4-.4-.6-.7-1.3-1.1-2-1.7-3.4-3.3-6.8-5-10.3-.4-.9-.8-1.9-.5-3 .1-.2 0-.6-.2-.8-1.2-2.1-1.1-4.4-.7-6.6.3-1.6 1.3-3.1 2.1-4.6 2-4 5.8-6 9.4-8 2-1.1 4.3-1.7 6.5-2 3.3-.5 6.6-.4 9.8.2 1.4.2 2.7.7 4.1 1.1.6.2 1.2.3 1.8.4.3.1.6.1.9.2.5.2 1.1.5 1.6.8l1 .5c1.4.7 2.8 1.4 4.3 1.8 2.2.6 4 1.8 6 2.7 2.8 1.3 5.5 2.9 8.2 4.3.5.3 1 .4 1.5.7 2 .9 4.3 1.4 5.9 2.8 1.9 1.6 4.4 1.7 6.2 3.4 1.3 1.2 3.3 1.6 5 2.4.3.1.5.3.8.5l1.5.9v-1.8c-1.4-.7-2.8-1.3-4.1-2.1-3.6-2-7.2-4-10.9-6z"/><path class="st0" d="M199.9 247.2c-.7-.6-1.3-1.2-2-1.8-1.6-1.4-3.3-2.8-4.9-4.2-2.1-1.9-4.1-3.9-6.2-5.8-1.3-1.2-2.9-2.2-4.2-3.3-.6-.5-1-1.3-1.6-1.8-2.5-2-4.9-3.9-7.5-5.8-1.4-1-2.9-1.8-4.5-2.6-2.3-1.2-4.5-2.4-6.8-3.5-1.8-.9-3.7-1.7-5.6-2.4-1.3-.4-2.7-.6-4-.8-1.8-.3-3.6-.5-5.3-.8-.1 0-.3-.1-.4-.1-2.5 1-5.4.8-7.6 2.5-.2.1-.4.3-.6.3-3.1.9-5.5 2.9-7.6 5.1-1.1 1.1-2 2.6-2.9 3.9-.9 1.2-1.7 2.4-2.5 3.7-.3.5-.4 1.2-.7 1.8-.9 1.7-2.1 3.4-2.7 5.2-1.1 3.6-2.6 7-2.7 10.9 0 .8-.1 1.5-.2 2.3h.3c.5-2.1 1-4.2 1.2-6.4.3-2.9 1.5-5.4 2.8-7.9 1.1-2.3 2-4.9 3.4-7 2.7-4.3 5.5-8.6 10.7-10.3 2.6-.9 5.2-2.1 7.9-2.6 3.3-.5 6.5.4 9.7 1.6 2.1.8 4.4 1.3 6.5 2.2 2 .8 3.8 1.9 5.7 3 1.8 1.1 3.6 2.3 5.4 3.4 3.9 2.5 7.4 5.6 10.7 8.9 1.1 1.1 2.4 1.9 3.6 2.9 2.4 2.2 4.8 4.5 7.3 6.7 2.2 1.9 4.6 3.7 6.9 5.5h1.8c-.4-.3-.8-.5-1.1-.8-.8-.6-1.5-1.3-2.3-2z"/><path class="st0" d="M296.4 147.4c-.3-.2-.8-.3-1.1-.4-.3-.1-.7-.1-1-.3-2.4-1.4-4.7-2.8-7.2-4.1-.5-.3-1-.5-1.5-.7l-.8-.3c-.8-.3-1.5-.6-2.1-1.1-1.5-1.2-3.3-1.7-5-2.4-1.3-.5-2.4-1.3-3.6-1.9l-.7-.3-1.3-.6c-.2-.1-.4-.2-.7-.3-.6-.3-1-.8-1.6-1-.4-.2-1-.2-1.5-.4-1.9-.7-3.7-1.5-5.6-2.3-1-.4-2-.6-3-1-1.8-.6-3.5-1.3-5.3-1.8-.9-.3-1.9-.3-2.9-.4-1.5-.1-3-.1-4.5-.1-.5 0-1 .1-1.6.2-.4.1-1 .4-1.3.2-2.3-1.3-4.2.7-6.2.8-1.6.1-2.9.9-4.4 1.1-.7.1-1.3.6-1.9.9-.8.5-1.6 1.1-2.4 1.6-1.4.9-2.8 1.7-4.1 2.7-.7.5-1.5.6-2.1 1.3-.7.7-1 1.5-1.5 2.3-.4.7-1.1 1.2-1.8 2 .3.6.3 1.5-.8 2-.3.1-.4.5-.6.7-.6 1.1-1.4 2.2-1.7 3.4-.2.9-.3 1.8-.3 2.7v1.4c0 .9.1 1.8.1 2.7 0 .3-.3.6-.3.9.2 3.5 1.6 6.6 2.8 9.8.2.6.4 1.2.7 1.8.7 1.7 1.3 3.4 2.1 5 1 1.8 2.2 3.6 3.3 5.4.3.5.6 1 .6 1.5 0 1.5 1.5 1.7 2.1 2.7l3.6 5.1c1.5 2.2 3 4.3 4.4 6.6 1.3 2 2.5 4.1 3.7 6.2 1.4 2.5 2.8 4.9 4.1 7.4.8 1.6 1.2 3.4 1.9 5.1.5 1.2 1.2 2.4 1.6 3.6.7 2.1 1.3 4.1 1.9 6.2 1.3 4.8.7 10.2-.8 15-1 3.2-3.6 4.2-5.9 5.9s-4.7.8-7.1.9c-2.2.1-4.3-.6-6.3-1.4l-.8-.3c-.4-.2-.8-.3-1.2-.5-1.5-.6-2.9-1.5-4.4-2.2-.5-.2-1.1-.1-1.5-.3-1-.5-1.9-1.1-2.8-1.7-1.2-.9-2.1-2.3-3.4-2.7-2.4-.8-3.4-3.3-5.7-4.1-.2-.1-.3-.2-.4-.3-.3-.9-1-1.4-1.7-1.9l-.4-.2c-.4-.2-.8-.5-1.1-.8-.9-.9-1.9-1.8-2.9-2.7 0 0 0-.1-.1-.1-1.4-1.2-2.9-2.3-4.3-3.6-1.2-1.1-2.3-2.3-3.5-3.4-1.9-1.6-3.9-3.2-5.9-4.8l-1.6-1.2c-1.3-1-2.7-2.1-4.1-3-1.5-1-3.1-1.7-4.7-2.6-.4-.2-.7-.5-1-.7-2.6-1.9-5.6-3-8.6-4.2s-6-2.5-9.1-3.5c-.7-.2-1.4-.4-2.1-.5l-1.1-.2c-.4-.1-.7-.1-1.1-.2-2.4-.5-4.8-.9-7.2-.7-.6 0-1.2-.2-1.7-.2-1.3.1-2.5.3-3.8.5l-.8.1-1.5.1c-.5 0-1 .1-1.5.2-.7.1-1.5.4-2.2.7-1.4.5-2.8 1-4.1 1.6-.6.3-1.2.6-1.9.9-.6.3-1.1.5-1.7.7-.4.2-.8.3-1.2.5-1.7.9-3.5 1.8-5.2 2.8-.5.3-1 .8-1.5 1.3l-.2.2c-1.2 1.2-2.2 2.6-3.6 3.4-2 1.3-3 3.3-4.5 5-.8.9-1.3 2.1-2.1 3.2-.4.5-1 .8-1.4 1.3-.4.6-.7 1.2-1 1.9-.1.3 0 .9-.2 1-1.7 1-1.7 2.9-2.4 4.4-.8 1.6-1.7 3.3-2.4 5-.5 1.3-.8 2.8-1.3 4.1-.4 1.1-.9 2.1-1.2 3.2-.7 2.4-2 4.9-1.8 7.3.2 1.9-.6 3.6-.7 5.5h2.7c-.5-1-.1-1.9.4-2.9.1-.2.4-.4.3-.5-.6-1.9 0-3.7.6-5.5.5-1.4.6-2.9 1-4.4.2-.6.7-1 1.1-1.5.1-.1.3-.3.2-.5-.5-2.7.7-4.9 2.1-7.1.1-.1.1-.3.1-.4v-.7c1-1.1 1.9-2.2 2.8-3.2l-.3-.3-.4.4c.2-2 .3-2.1 1.3-1.7.5-.7 1-1.4 1.4-2.1l-.1-.1c-.3.2-.7.4-1 .7l-.3-.3c1-.9 1.9-1.7 3-2.7-.3 0-.4-.1-.5-.1h-.2c.5-.9.9-1.9 1.5-2.7.5-.5 1.3-.8 2-1.2.5-.7 1-1.5 1.5-2.2l-.2-.2c.5-.1 1.1-.3 1.5-.4.5-1.5 1.4-2.5 2.9-3.3 1-.5 1.9-1.5 2.7-2.3l.2-.2.5-.2c.5.6.7.5 1.3-.4l-.7.1h-.1l3.4-1.6c1.5-.7 3-1.4 4.4-2.1.3-.1.6-.3.8-.5.7-.6 1.4-.8 2 .1 1.5-1.6 3.2-2.2 5.3-1.3.5.2 1.2-.4 1.9-.6.9-.2 1.8-.5 2.7-.6.2 0 .5.4.9.9 1.3-.6 3.1-1.5 4.8.4.4-1 1.3-1.1 2.1-.5.7.5 1.4.9 2.1 1.4.1-.1.2-.3.2-.4l-1-.6c.9.1 1.8.1 2.7.3.5.3 1 .5 1.5.8v-.1c.2.1.3.2.5.4.1.1.2 0 .3 0 .7.1 1.6 0 2.2.4.2.1.5.2.8.4 0 .1-.1.2-.1.2l1.6.5c1.1.5 2.3.9 3.4 1.4 1.5.8 3 1.7 4.8 2.2 1.2.3 2.2 1.3 3.3 2 .3.2.6.1.9.2.2 0 .4.1.6.2 1 .7 2 1.4 3.1 2.1 1.5.9 3.1 1.8 3.9 3.6.1.2.4.3.8.3-.3-.4-.5-.8-.8-1.2l.2-.1c.6.6 1.1 1.4 1.8 1.9 1.3 1 2.7 1.8 3.9 2.8.5.4.8.9 1.1 1.4l.2-.4.9.4-.3.5c.1.1.2.1.3.2l.8.6c.1.1.3.2.4.3 1.3 1.1 2.6 2.3 3.9 3.4.1.1.2.1.2.1.5 2.6 3.9 2.2 4.6 4.4-.1 0-.4-.1-.7-.2 0 .1 0 .2-.1.2l2.3 1h-.1c.2.4.4 1 .7 1.3 1.1.9 2.4 1.7 3.5 2.7.8.6 1.4 1.4 2.1 2.1.3.3.5.8.8 1.2l.3-.1c.3-.1.5-.2.6-.3 1.7 1.2 3.3 2.4 5.1 3.4 1.1.6.6.8.1 1.2 1.1.4 2.3.8 3.5 1.2l.2-.5.8.3.1.1-.2.6c.4.4.8.7 1.2 1.1.1-.1.2-.2.3-.2-.1-.2-.2-.4-.2-.5l4.2.9c.3.1.4.7.6.7 1.6.5 3.3 1.2 4.9 1.4 2 .3 4 .2 5.9.2.7 0 1.5-.1 2.2-.4 1.4-.6 3.1-1 4.2-2l.5-.4c2.1-1.8 4.3-3.7 4.8-6.8.3-2 1.7-3.8 1.5-5.9-.2-3 .3-5.9-.6-8.9-.5-1.7-.9-3.3-1.7-4.9-.1-.2.2-.7.4-1.1.1 0 .2 0 .4.1-.5-.8-1-1.6-1.4-2.5-.8-1.6-1.6-3.1-2.3-4.7-.5-1.1-.9-2.3-1.3-3.5-.1-.3.2-.6.3-1-1.2-.3-1.7-1.2-2.2-2.5-.6-1.6-1.3-3.6-2.5-4.4-1.5-.9-.7-2.3-1.7-3.2-.8-.7-1.5-1.6-2.1-2.5s-.9-1.9-1.5-2.8c-.5-.8-1.2-1.5-1.7-2.2-.8-1.2-1.7-2.3-2.3-3.6-.7-1.5-1.7-2.7-2.9-3.7l-.2-.2-.1-.1c-.4-.3-.7-.6-.1-.9-1.1-1.5-2.2-3.1-3.4-4.9.6.1.9.1 1.1.1-2.2-1.3-2.8-3.4-3.2-5.5l-.1-.5c-.1-.5-.2-1-.3-1.6-.3.3-.5.6-.7.8-.7-2.2-1.3-4.4-2-6.5l.7.7c.1-.1.2-.2.4-.2-.5-.7-1-1.4-1.4-2.2-.5-.8-.8-1.8-1.2-2.6.1-.1.3-.1.4-.2.1.3.3.6.6 1.3 0-.7.1-1 0-1.3 0-.1-.1-.2-.1-.3l-.1-.2c-.2-.6-.5-1.1.4-1.7.4-.2.4-1.7 0-2.3-1-1.7-.1-2.9.6-4.3.6-1 .7-2.2 2-3 .9-.5 1.1-2.2 1.7-3.4.1-.2.4-.3.6-.4l.9-.3c-.1-.2-.3-.4-.3-.6s.4-.4.5-.4c1.3.1 1.4-.9 1.7-2.1.3.4.5.7.7 1 .5-.7 1-1.4 1.4-2.2 0 .1.1.2.1.3.6-.2 1.1-.3 1.7-.6.5-.2 1-.5 1.6-.7.4-.4.9-1 1.7-1.8.1.6.1.9.1 1.2.6-.2 1.3-.3 1.9-.5v-.3H235c-.1-.2-.1-.3-.2-.5.6-.1 1.1-.3 1.7-.4 1.2-.2 2.3-.5 3.6-.9-.3.2-.5.4-.8.6 0 .1.1.2.1.3l1.8-.6c.2-.1.4-.5.6-.4 1.5.1 2.9.4 4.4.5.6.1 1.2.1 2.2.1-.5-.3-.6-.5-.8-.6l.1-.3 1.7.7c.4-1 1.2-.8 1.9-.6l.2.1c.3.1.5.2.8.2 1 .1 1.9.8 2.9 1.3-.1-.3-.1-.6-.2-.9 2.1.7 4.1 1.3 6.4 2.1-.5 0-.7 0-1-.1.5.2 1 .3 1.5.5l.4.1c1.7.5 3.3 1.1 4.1 3.1l.3-.3c0-.3-.1-.5-.1-1.2.9.5 1.5 1 2.2 1.3s1.4.4 2.1.7c1.3.6 2.6 1.3 3.9 1.9.1 0 .2 0 .2.1.8 1.7 2.5 1.2 3.8 1.7.5.2 1.4.2.8 1.1l1.2.5c0 .2 0 .6.1.7.8.4 1.6.7 2.5 1l.7.3-.1-.1c-.2-.2-.5-.4-.7-.6l-.1-.1c.5.2 1.1.5 1.6.8l-.2-.1c.6.4 1.3.9 1.9 1.3l.2-.3c1 .7 1.8 1.6 3.2 1.4.1 0 .3.2.6.4-.4.1-.6.1-.8.2 0 .1 0 .2-.1.3.6.1 1.2.4 1.7.3.3-.1.7 0 1.2.2l-.2.4c.4.1.8.3 1.2.4v-.3c.9.6 1.7 1.3 1.9 2h1.3c.6 0 .5.1.9.7.2.4.6 1.3 1.5.7.3-.2.6-.2.8-.1v-2.5c-.4-.2-.7-.3-1-.5-.9-.5-1.7-1.1-2.5-1.6zm-11.3-2.8c.2.1.4.2.6.2l.6.3-1.2-.5zM214.2 247l3.8 1.6c.1-.1.1-.2.2-.3l-3.8-1.6-.2.3z"/><path class="st0" d="M292.2 160.3c-3.6-1.8-7.2-3.6-10.7-5.5-.8-.4-1.5-.9-2.3-1.4l-.9-.6c-1.4-.9-2.7-1.7-4.2-2.2-2.5-.8-4.5-2.1-6.8-3.1-2.4-1-4.6-2.3-7-3.2-3.4-1.3-6.7-2.7-10.2-3.3-2.9-.5-6.1-.3-9.1.7-.3.1-.5.2-.8.3-3.3.6-5.9 2.5-8 5-2.3 2.8-3 5.9-1.4 9.3 1.3 2.9 2.1 5.9 3.4 8.8.8 1.7 2.1 3.2 3.2 4.8l4.5 6.6c2.1 3.1 4.1 6.2 6.1 9.3 1.2 1.9 2.2 3.9 3.3 5.9 1.9 3.5 4 6.8 5.7 10.4 1.2 2.4 1.8 5 2.7 7.5.6 1.7 1.3 3.3 1.8 5 .5 1.9 1 3.8 1.3 5.8.3 2.4.3 4.9.3 7.4 0 1.9 0 3.8-.4 5.6-1.1 5-2.6 9.9-6.1 13.8-.9 1.1-2.1 1.9-3.3 2.8h5.7c.5-.6 1-1.2 1.4-1.8 1.5-1.9 2.3-4.3 3.3-6.5.6-1.3 1.1-2.7 1.4-4.2.5-2.3 1.5-4.5 1.2-7-.3-2.3 0-4.7.1-7.1 0-1.5-.1-2.9-.7-4.4-.4-.9-.6-1.9-.7-2.9l-.2-1c-.1-.3-.1-.7-.2-1-.1-.4-.3-.7-.4-1.1-.8-2.4-1.6-4.8-2.5-7.2-.4-1.2-1.3-2.2-1.5-3.4-.4-2.4-2.3-4-3-6.1-.6-2-2-3.3-2.8-5-.6-1.3-1.4-2.5-2.2-3.7-.8-1.3-1.6-2.7-2.5-4-1.6-2.4-3.3-4.7-4.8-7.2-.4-.6-.8-1.3-1.2-2l-.7-1.4c-.1-.2-.3-.4-.4-.7-.2-.3-.4-.7-.7-1-1.8-1.4-2.9-3.4-3.7-5.5-.2-.6-.8-1.1-1.2-1.6-.1-.2-.4-.3-.4-.5-1.3-3.2-2.8-6.3-3.8-9.5-.7-2.3.4-4.5 2.1-6.2 3.4-3.5 7.8-4.8 12.5-5.1 2-.1 4 .1 5.9.5 1.7.4 3.3 1.3 4.9 2 .8.3 1.6.5 2.3.7 1.8.7 3.7 1.3 5.4 2 .9.4 1.7 1.1 2.6 1.7 1 .6 2.1 1.1 3.2 1.7 2.7 1.3 5.3 2.7 8 4 1.5.7 3.2 1.2 4.7 2 2.4 1.3 4.7 2.6 7.1 4 1.5.9 3 2.2 4.6 2.6 1.4.3 2.6.9 3.8 1.6v-1.6c-1-.5-2-.9-2.9-1.4-1.5-.8-3.2-1.6-4.8-2.4z"/><path class="st0" d="M259.7 220.8c.1.9.2 1.7.3 2.6.1-.1.3-.1.4-.1-.1-.9-.2-1.8-.2-2.6-.2 0-.3.1-.5.1zM258.9 236.3l-2.8 6.6.3.1 2.8-6.6c-.1 0-.2-.1-.3-.1zM248.7 249.9l.1.1h.6c.4-.4.9-.8 1.3-1.2-.1-.1-.2-.3-.3-.4-.6.5-1.1 1-1.7 1.5zM255.9 243.1c-1.4 1.6-2.6 3-3.8 4.4l.2.3c1.4-1.3 3-2.3 3.6-4.7zM109.8 243.6c.1 0 .3.1.4.1.4-1.5.9-3 1.3-4.6-.2 0-.4-.1-.6-.1-.2 1.6-.6 3.1-1.1 4.6zM208.8 246.2c-2.7-2-5.6-3.8-8.2-6-2-1.7-3.9-3.4-5.9-5.2l-2.9-2.6c-1-.9-1.9-1.8-2.9-2.6l-4.5-3.9c-2.7-2.3-5.4-4.7-8.3-7-1.4-1.1-3.1-1.9-4.7-2.7-4.6-2.2-9.1-4.4-13.8-6.4-1.2-.5-2.7-.6-4-.9-1.8-.3-3.5-.5-5.3-.9-2.1-.4-4.1.1-6.1.7l-.7.2c-1 .3-2.1.3-3 .7-1.7.7-3.2 1.7-4.9 2.3-2.6 1.1-4.8 2.8-6.7 4.8-2 2.1-4 4.2-5.4 6.8-1.3 2.5-2.6 5-4 7.4-2.5 4.4-3.9 9.2-4.6 14l-.1.6-.2 1.3-.2 1.3c-.1.6-.2 1.3-.3 1.9h2.7c.1-.6.3-1.3.5-1.9.1-.3.2-.5.2-.8-.5-2.4.9-4.4 1.2-6.6.2-1.1.7-2.2 1-3.2.7-1.9 1.3-3.8 2.1-5.6.6-1.4 1.5-2.7 2.3-4 1-1.7 1.9-3.4 3.1-5 .2-.3.4-.5.6-.8l.6-.8c1-1.3 1.9-2.7 3.3-3.8 1.2-1 2.6-1.7 3.8-2.7 3-2.3 6.6-2.8 9.9-4.2 1.4-.6 2.7-.6 4.1-.5h2.1c3 0 5.9.9 8.7 1.9 2.1.7 4.3 1.3 6.4 2.2 1.4.5 2.6 1.3 3.9 2 1.4.8 2.9 1.6 4.3 2.4.8.5 1.5 1.1 2.3 1.6 4 2.4 7.6 5.3 11 8.5 1.9 1.7 3.9 3.3 5.8 4.9.6.5 1.1 1.3 1.7 1.9 1.7 1.5 3.4 3 5.2 4.5.9.8 1.7 1.6 2.7 2.3 1.5 1.2 3 2.3 4.5 3.5l.8.6 1.5 1.2c1.1.9 2.2 1.6 3.3 2.4h3.1c-.8-.4-1.5-.7-2.3-1.1-1.3-.7-2.5-1.8-3.7-2.7zM286.8 154.2c-.1.1-.1.1-.1.2l2.2.9.1-.2-2.2-.9zM114.8 230.3h-.2l-2.4 5.5c.1 0 .1 0 .2.1l2.4-5.6zM109.1 249.6c.2 0 .3 0 .5.1.2-1.1.5-2.2.7-3.3-.1 0-.3-.1-.4-.1-.4 1.1-.7 2.2-.8 3.3zM129.8 210.3l-1.4 1.2c.1.1.2.2.2.3.5-.3 1-.6 1.5-1-.1-.2-.2-.3-.3-.5zM135.8 207.6c0 .1.1.2.1.4l3.3-1.2c-1.4-.5-2.3.3-3.4.8zM292.9 173.4c-2.8-1.5-5.6-3-8.4-4.4-1.8-.9-3.7-1.7-5.5-2.7l-9-4.8c-.7-.4-1.5-.6-2.3-.8-.6-.2-1.2-.4-1.7-.7-1.6-1.2-3.5-1.7-5.4-2.4-2.3-.8-4.5-2.1-6.7-3.1-3-1.3-6-2.3-9.3-1.4-2.8.8-2.7.7-1.9 3.5.8 2.9 2.4 5.4 4.2 7.8 2.1 2.9 4 6 6.1 9 1.5 2.2 3 4.3 4.4 6.6 2.2 3.7 4.3 7.4 6.4 11.1 1 1.7 2 3.5 3 5.2.3.6.4 1.3.6 1.9.4 1 .9 1.9 1.3 2.9 1.3 3.8 2.4 7.7 3.9 11.4 1.2 2.9 1.8 5.9 2 9 .3 4.3.4 8.6-.3 12.9-.4 2.4-.8 4.8-1.4 7.1-.4 1.6-1.1 3.2-1.8 4.8-.6 1.3-1.4 2.5-2.1 3.7h31v-73.3c-1.3-.6-2.7-1.1-4-1.7-1-.5-2.1-1-3.1-1.6z"/><path class="st0" d="M184.4 240.8c-2.1-1.8-4.6-3.4-6.3-5.6-2.1-2.5-5-3.8-7.3-6-1.1-1.1-2.5-1.8-3.9-2.5-4.3-2.1-8.5-4.4-13-6-2.9-1.1-6.2-1.7-9.4-.5-2.4 1-5.1 1.6-7.2 3-2.2 1.5-4 3.6-5.5 5.7-1.7 2.3-3 4.9-4.3 7.4-.8 1.4-1.3 3-1.8 4.6-.6 2.3-1.2 4.5-1.6 6.8-.1.8-.3 1.5-.4 2.3h71.4c-1.7-1.4-3.3-2.7-4.9-4.1-2-1.6-3.9-3.4-5.8-5.1zM213.3 148c-.1 0-.3-.1-.4-.1l-.3 3.9h.5c0-1.2.1-2.5.2-3.8zM213.2 159.6c.2 0 .3-.1.5-.1l-.8-2.4c-.1 0-.3.1-.4.1l.7 2.4zM149.3 205.2l-4.8-.3v.5l4.8.2v-.4zM121.5 218.2c-.4.5-.9 1.1-1.4 1.8.1.1.3.2.4.3.4-.6.9-1.3 1.3-1.9l-.3-.2zM150.2 205.1c-.1.1-.1.3-.1.5 1 .2 2 .4 3 .5 0-.1 0-.2.1-.3-1-.2-2-.4-3-.7zM192.7 228.9c-1.4-1.2-2.8-2.4-4.3-3.7-.1.2-.2.3-.3.4 1.4 1.2 2.8 2.4 4.3 3.7.1-.1.2-.3.3-.4zM210.6 243.9c-1.2-.7-2.3-1.5-3.5-2.2 0 0-.1.1-.2.3l3.5 2.3.2-.4zM293.4 157.5c-.1.1-.1.2-.2.3.9.5 1.8 1 2.7 1.6.1-.1.1-.2.2-.4l-2.7-1.5zM292.6 167.6c-2.4-1.2-4.9-2.4-7.3-3.7-2.2-1.2-4.4-2.5-6.6-3.6-1.5-.8-3.1-1.5-4.7-2.3-1.1-.6-2.2-1.2-3.3-1.7-.8-.4-1.7-.7-2.6-1.1-.7-.4-1.5-.7-2.1-1.2-1.6-1.3-4-.8-5.3-2.5-.1-.1-.3-.2-.4-.1-1 .1-1.8-.3-2.6-.8l-.4-.2c-.4-.2-.7-.4-1.1-.5-1.7-.6-3.3-1.6-5.1-2-3.3-.7-6.7-.1-10 .6-.3.1-.5.6-.7 1l.3.3c3.1-1.3 6.4-1.5 9.6-.8 1.6.3 3.1 1.1 4.7 1.8 4.3 1.8 8.5 3.5 12.7 5.5 3.2 1.5 6.3 3.3 9.5 4.9 1.3.7 2.8 1.1 4.1 1.8 2.9 1.5 5.7 3.2 8.6 4.8 1.3.7 2.7 1.1 4.1 1.8 2.1 1.1 4.1 2.2 6 3.2v-1.6c-.3-.1-.6-.1-.8-.3-2.2-1-4.4-2.1-6.6-3.3zM202.9 238.1c0 .1-.1.2-.2.3l1.2.9.2-.3-1.2-.9zM161.5 208.3l-.6-.3c-2.3-1.2-4.6-2.2-7.5-2 3.9 1.3 7.5 2.5 11 3.7-1-.4-1.9-.9-2.9-1.4zM185.9 222.8c-.7-.5-1.4-1.1-2.1-1.6 0 .1-.1.2-.1.3.7.5 1.4 1.1 2 1.6.1-.1.2-.2.2-.3zM165.3 209.8l-.1.4c.7.1 1.3.2 2 .4 0-.1 0-.2.1-.3l-2-.5zM172.2 213.4c-.1.1-.1.2-.1.2l1.7.7c0-.1 0-.1.1-.2l-1.7-.7zM178.4 216.8c-.7-.4-1.5-.8-2.2-1.2-.2.1-.3.2-.3.3l2.2 1.3c.1-.1.2-.3.3-.4z"/></svg>