<?xml version="1.0" encoding="utf-8"?>
<!-- Generator: Adobe Illustrator 26.5.0, SVG Export Plug-In . SVG Version: 6.00 Build 0)  -->
<svg version="1.1" id="a" xmlns="http://www.w3.org/2000/svg" xmlns:xlink="http://www.w3.org/1999/xlink" x="0px" y="0px"
	 viewBox="0 0 300 250" style="enable-background:new 0 0 300 250;" xml:space="preserve">
<style type="text/css">
	.st0{fill:#FFFFFF;}
</style>
<g>
	<path class="st0" d="M217.5,26.5c-0.6,1.2-0.5,1.5,0.8,1.5C218.5,27.3,218.2,26.8,217.5,26.5z M206.1,22.9
		c-0.5-0.6-2.9-1.5-4.2-1.7C203.1,22.4,204.5,22.8,206.1,22.9z M216,29.5c0.1,0.3,0.5,0.5,0.9,0.9C218.4,28.7,216,27.8,216,29.5z
		 M196.4,18.7h-0.1H196.4z M200.6,22.4c0-0.2,0.2-0.5-0.1-0.5c-0.1,0.1-0.2,0.2-0.2,0.3C200.4,22.3,200.5,22.3,200.6,22.4z
		 M201.2,21.3c0.1-0.1,0.1-0.2,0.2-0.4l-0.6-0.3c0,0,0,0.1-0.1,0.1C200.9,20.9,201,21.1,201.2,21.3L201.2,21.3z M241.4,35.9
		c0.4,0.1,0.5,0,0.6-0.3c-2.7-0.8-5.7-2.3-8.5-2.4C236,34.4,238.9,34.7,241.4,35.9z M244.6,36.4c0-0.1,0.1-0.2,0.1-0.2
		c-0.3-0.1-0.7-0.2-1-0.4c0,0.1-0.1,0.2-0.1,0.3C243.9,36.2,244.2,36.3,244.6,36.4z M233.4,33.1c-1.8-1-4.7-2.3-6.7-1.9
		C229,31.6,231.1,32.6,233.4,33.1z M220.2,28.6c0,0.1-0.1,0.2-0.2,0.3l0.9,0.6C221,28.7,220.6,28.6,220.2,28.6z M248.5,38h-0.1
		H248.5z M246.8,36.8c0,0.3,0.7,0.8,1.7,1.2c-0.1-0.3-0.1-0.6-0.2-0.9C247.8,37,247.2,36.9,246.8,36.8z M199.7,20.6
		c0-0.1,0.1-0.2,0.1-0.4l-3.5-1.5l-0.1,0.2C197.1,20,198.5,20.2,199.7,20.6z M172.5,6c1,0.5,1.8,1.5,3.1,1.5
		C174.5,7,173.7,6,172.5,6z M200.8,9.1c1-0.9-0.8-1.7-1.6-1.6C198.3,8.5,199.9,9.6,200.8,9.1z"/>
	<g>
		<path class="st0" d="M189.4,29.1l0.1,0.3c0.1-0.1,0.2-0.2,0.2-0.4L189.4,29.1z"/>
		<path class="st0" d="M197.7,16.6c1.4,0.8,3.1,1.4,4.6,2.1c0.7-0.4,1.3,0.1,1.8,0.4c3.2,1.3,6.3,2.8,9.5,4.1
			c-0.2,1.4,0.1,2.1,1.3,2.9c-2.2-0.3-3.9-1.6-6-1.9c1.3,1.1,3.1,1.2,4.5,2c-0.3,0.4-0.5,0.9-0.9,1.4c0.5,0.2,0.8,0.4,1.2,0.6
			c0.3-0.4,0.5-0.8,0.9-1.2c0.4,0.1,0.8,0.2,1.4,0.3c0.2-0.3,0.4-0.6,0.5-0.8c-0.3-0.8-0.5-1.5-0.8-2.3c1.9-0.5,0.1,1.9,2.9,1.4
			c0.5,1.1,0.8,1.1,1.6,0.2c9.1,2.9,18.2,5.7,27.4,8.4v-0.1c0-0.2-0.1-0.3,0-0.5v-1.2c-9.3-2.7-18.6-5.6-27.8-8.6
			c-1.3-0.5-3.5-0.9-3.1-2.7c0.3-1.8-1.3-0.5-1.7,0.3c-2.1,0-3.8-1.3-5.9-1.6c1-1.1-1.1-2.3,0.8-2.2c-0.2-0.6-0.3-1-0.5-1.6
			c-0.7,0.6-1.2,1-1.7,1.5c0.1,0.4,0.3,0.7,0.4,1.1c-9.3-2.7-17.8-8-26.2-12.7c-3.6-1.9-7.1-3.9-10.6-6h-3.9
			c0.2,0.2,0.3,0.3,0.4,0.3C177.8,5.6,187.8,11.1,197.7,16.6z"/>
		<path class="st0" d="M190.4,29.4c0.5-0.2,1.1-0.5,1.6-0.7c1.8,0.2,3.3,2,5.1,1.8c0.2,0,0.5,0.1,0.7,0.2c3.8,2.5,8.6,3.1,12.3,5.6
			c2,0.5,3.8,1.4,5.8,1.7c2.9,1.9,6.6,2,9.8,3.4c2.8,0.4,5,2.4,7.8,2.6c2.4,0.4,4.3,2.1,6.8,1.9c1,0,1.4,1.3,2.6,0.8
			c2.7,1.1,5.4,1.8,8.2,2.4c0-0.1-0.1-0.2-0.1-0.4c-0.2-0.5-0.3-1-0.4-1.5c0.4-0.1,0.8-0.2,1.1-0.4c0.1-0.1,0.2-0.2,0.2-0.3
			c0-0.1,0-0.3-0.1-0.4c-0.1-0.1-0.2-0.2-0.3-0.2c-0.1,0-0.3,0-0.4,0.1c-0.1,0.1-0.2,0.1-0.3,0.2c-0.2,0.1-0.3,0.1-0.5,0.1
			c0,0,0-0.1,0-0.1c-0.1,0-0.2-0.1-0.2-0.1h0.2c0-0.3-0.1-0.5-0.2-0.8c-0.6-0.1-1.1-0.1-1.5,0.4c-0.3,0-0.8-0.1-1.5-0.2
			c0.2-0.2,0.4-0.4,0.6-0.7c-0.7-0.2-1.3-0.4-1.9-0.6l-0.1,0.2l0.6,0.5c-1.7,0-2.6-0.6-4.3-1c-0.1-0.1-0.3-0.4-0.5-0.8
			c-1.5,1.1-2.5-0.5-4.1-0.5c-1.1,0.1-1.4-1.7-2.3-1.1c-0.6,0.4-0.9,0.2-1.4,0c0.2,0,0.4-0.1,0.7-0.3c-0.5-0.1-0.8-0.1-1.1-0.2
			c0,0-0.1,0.2-0.1,0.3c-0.2-0.2-0.5-0.3-0.8-0.4c-0.8-0.7-2.8,0.3-2.8-1.2c-2.4-0.2-4.4-1.4-6.7-2.1c0.6-0.7-0.4-1-1.2-0.3l0.3,0.3
			c-1,0.2-1.3-0.9-2.2-1.1c-1.1-0.7-2.3-0.5-3.5-1.1l0.3-0.6c-0.6-0.5-1.2-0.2-1.8-0.1c-1,0.2-1.7-0.4-2.6-0.7h-0.1v-0.1
			c0.3-0.1,0.7-0.2,1-0.2c-0.5-0.3-0.8-0.2-1,0v-0.3c-1.9,0.4-3.3-1.2-5-1.2c-0.7-0.8-1.7-1.3-2.8-1.7l0.2-0.3
			c-0.5-0.2-0.9-0.5-1.4-0.7c0,0.1-0.1,0.2-0.1,0.3c0.4,0.2,0.8,0.5,1.2,0.7c-1.1-0.4-2.3-0.8-3.3-1.2c0.2-0.1,0.5-0.2,0.8-0.3
			c-0.2-0.6-0.8-0.3-1.2-0.5c-0.4-0.2-0.8-0.4-1.5-0.7l0.5,1c-0.7-0.1-1.1-0.2-1.6-0.6c-0.6-0.4-1.3,0-1.6-1
			c-0.4-1.8-3.3,0.2-4.2-2.3c-0.6-0.2-1.4,0.2-1.6-0.7c-0.6,0.2-1.2-0.2-1.7-0.6c0-0.3-0.1-0.7-0.2-1.4c-0.4,0.5-0.6,0.8-0.8,1.1
			c-0.5-0.4-1.1-0.7-1.5-1c0.3-1.3-0.3-1.7-1.4-1.2c-1.1-0.4-2.1-0.9-3.2-1.4c-0.8-0.1-1-1.1-1.6-1.4c-0.6,0-1-0.6-1.7-0.3
			c-1.1-0.3-1.8-1.9-3.2-1.7c-0.6-0.1-1-0.4-1.4-0.8c0.5,0.1,0.9,0.4,1.6-0.1c-0.7-0.3-0.9-0.3-1.5,0h-0.1c-0.7-0.7-1.4-1.6-2.5-1.5
			c-0.2,0-0.5-0.1-0.5-0.2c-0.4-1-1.4-1-2.1-1.5c1.4-0.4-1.6-2.2-1.3-0.7c-1.7-0.5-3.2-1.3-3.8-3.2c-0.1,0-0.1,0.1-0.2,0.1
			c0,0.2-0.1,0.4-0.1,0.7c-0.5-0.3-1.2-0.7-1.7-1c0.5,0,0.8,0,1.1-0.1c0-0.1,0-0.1,0.1-0.2c-0.6-0.2-1.3-0.8-2-1.3l0.1,0.3
			c0.2,0.1,0.4,0.3,0.5,0.5c-0.2,0-0.3-0.1-0.4-0.1l0.1,0.3L159,7.9l-0.6-2.4l0.2-0.1c-0.5-0.1-1.1-0.2-1.6-0.3
			c0.2-1-0.7-1.4-1.4-1.5c-2.2-0.5-3.9-2.1-5.6-3.5c0.3,0,0.6,0.1,1.1,0.2c-0.4-0.3-0.7-0.5-1.1-0.7h-5.8l6,4.2
			c1.6,1.2,3.7,2,5.2,3.4c0.9,0.8,2.4,0.6,2.6,2c2.2,0.4,4.2,2.1,6.1,3.3c3.8,1.6,7,4.4,10.9,5.5c0.3,0.9,1.3,1.1,1.8,1.6
			c1.4-0.1,2,1.1,3,1.6c0.8,0.4,1.8,0.8,2.3,1.7c1.4,0.7,3.1,0.5,4.2,2.1c-0.2,0.2-0.5,0.4-0.9,0.6c0.8,1.1,2.3,2.4,3.2,0.7
			c0.5,1.1-0.4,2.3,1.1,2.7c0,0,0,0,0,0l0.6-0.1L190.4,29.4z M167.2,12.7L167,12l0.8-0.2l0.2,0.7L167.2,12.7z M189.8,27.9l1.2-0.3
			l0.2,0.8l-1.2,0.3L189.8,27.9z"/>
		<path class="st0" d="M286.3,64.8l-33.8-8.6v-0.1c-3.1-0.9-6.2-1.7-9.3-2.6c-12.8-3.1-25.4-7.2-37.5-12.2c-1.3-0.6-2.9-0.6-4-1.6
			c-0.3-0.3-0.6-0.6-1.1-0.5c-1-0.3-1.3-1.7-2-2.6c-0.3,0-0.6-0.1-1-0.1c-0.2,0.4-0.3,0.7-0.5,1c-1.1,0.2-1.1-0.9-1.7-1.4
			c-0.2,0.3-0.4,0.5-0.7,0.8c-9.5-3.3-0.1-2.8-4.6-6c-0.2,0.7-0.4,1.3-0.7,1.9c-1.7-0.7-0.2-2.5,0.8-3c0.1,0,0.1-0.2,0.1-0.4
			l-0.8,0.2l0-0.2c-0.8,1-1.9-0.8-2.7,0.2c0.2,0.3,0.4,0.5,0.6,0.8c0,0,0,0.1-0.1,0.1c-0.4-0.3-0.9-0.6-1.5-1c0.7,4.2-3.3,0.6-5-0.4
			c-1.1-0.8-2.6-0.5-3.4-1.9c-0.1-0.1-0.4-0.2-0.5-0.2c-9.1-4.2-17.7-10.1-26.1-15.1c0.5-0.5,0.7-1,0.3-1.6c-0.7-0.2-1,0.4-1.4,1
			c-5.8-3.9-11.6-7.8-17.4-11.8H0V250h300V67.5L286.3,64.8z"/>
		<path class="st0" d="M181.2,10.8c-0.2-0.6-0.6-0.8-1.2-1C180,10.7,180.5,10.8,181.2,10.8z"/>
	</g>
	<g>
		<polygon class="st0" points="271.7,43.9 271.7,43.9 271.7,43.9 		"/>
		<path class="st0" d="M266.5,42.2c0,0.1,0,0.2,0.1,0.3c0.2,0,0.4,0.1,0.6,0.1c0-0.1,0-0.2-0.1-0.3
			C266.9,42.2,266.7,42.2,266.5,42.2z"/>
		<polygon class="st0" points="270.7,40.7 270.7,40.7 270.7,40.7 		"/>
		<path class="st0" d="M270.3,42.7c0.1,0.2,0.2,0.5,0.2,0.8c0.4,0.1,0.8,0.3,1.2,0.4l-0.3-0.9C271,42.9,270.6,42.8,270.3,42.7z"/>
		<path class="st0" d="M263.6,41c-0.8-0.2-1.6-0.3-2.4-0.4v0.2c0.9,0.4,1.8,0.7,2.6,0.9C263.7,41.5,263.7,41.2,263.6,41z"/>
		<path class="st0" d="M300,45.4c-6.4-1.3-12.7-2.6-19.1-4.2c-0.1-0.1-0.2-0.2-0.4-0.2c-4.4-0.6-8.7-1.7-12.9-2.8
			c-4.3-1.2-8.5-2.4-12.7-3.7c-2.4-0.7-4.9-1.5-7.3-2.2c-0.3-0.1-0.5,0.1-0.6,0.3c-0.4-0.1-0.8-0.2-1.2-0.3c-0.6-0.1-0.9,0.8-0.3,1
			c0.6,0.1,1.2,0.3,1.7,0.4c0,0.3,0.1,0.6,0.5,0.6c1.1,0,2.2,0.7,3.2,1.1c1,0.4,2.1,0.8,3.1,1.2c2.1,0.8,4.3,1.5,6.5,2.1
			c4.4,1.3,8.8,2.2,13.3,3.1c2.5,0.5,5.1,1.1,7.6,1.7c0.1,0,0.3,0,0.4,0c6.1,1.4,12.1,2.6,18.2,3.8V45.4z"/>
		<path class="st0" d="M292.8,56.4c1,0.4,1.6,0.4,2.3-0.1c-0.9-0.1-1.6-0.2-2.3-0.2V56.4z"/>
		<path class="st0" d="M283.6,46.1l-0.1,0.3c1.4,0.6,2.7,1,4.2,1l0.1-0.2C286.5,46.6,285,46.3,283.6,46.1z"/>
		<path class="st0" d="M289.9,47.7c0,0.1-0.1,0.2-0.1,0.3c2.4,0.6,4.9,1.9,7.4,1.6C295.1,48.3,292.3,48.5,289.9,47.7z"/>
		<path class="st0" d="M297.5,49.5v0.2c0.3,0,0.5,0.1,0.8,0.2v-0.2C298.1,49.6,297.8,49.5,297.5,49.5z"/>
		<path class="st0" d="M277.5,44.9c-0.5-0.2-1-0.3-1.5-0.5c0,0.3,0.1,0.6,0.2,1c0.4,0,0.9,0.2,1.4,0.3
			C277.6,45.4,277.5,45.1,277.5,44.9z"/>
		<path class="st0" d="M281.4,46.1h0.5C281.7,46.1,281.6,46,281.4,46.1L281.4,46.1z"/>
		<path class="st0" d="M290.7,55.5c-0.2,0-0.3,0.1-0.4,0.2c0.1,0.4,0.3,0.3,0.8,0.1C290.9,55.6,290.8,55.4,290.7,55.5z"/>
		<path class="st0" d="M170.3,13.2c0.2,0,0.4,0.4,0.6,0.1c-0.1-0.1-0.3-0.2-0.5-0.3C170.4,13.1,170.3,13.1,170.3,13.2z"/>
		<path class="st0" d="M176.7,16.9c0.6,0.3,0.9,0.4,1.5,0.7C177.8,17,177.6,16.5,176.7,16.9z"/>
		<path class="st0" d="M192.6,25.3c0.2,0.1,0.5,0.2,0.8,0.3c0-0.1,0.1-0.2,0.1-0.3c-0.3-0.1-0.6-0.1-0.9-0.2V25.3z"/>
		<path class="st0" d="M143.1,5.3c-0.9,0.3-0.4,1.4,0.4,1.1c0.2-0.7,0.4-1.3,0.7-2.1C143.5,4.4,143.5,4.9,143.1,5.3z"/>
		<path class="st0" d="M177.6,26c0.3,0,0.6-0.1,0.9-0.2C178.1,25.4,177.8,25.5,177.6,26z"/>
		<path class="st0" d="M197.8,32.3c-0.1,0.3-0.2,0.7-0.4,1.1c-0.5,0.1-1.1,0.1-1.6,0.2c0.3,2.1,2.4,3.6,3.5,1.1
			C203.4,37.5,200.5,31.2,197.8,32.3z M198,34.4l-0.2-0.6l0.7-0.2l0.2,0.6L198,34.4z"/>
		<path class="st0" d="M165.6,10.5c-0.4-0.3-0.7-0.5-1-0.6C164.8,10.2,165.1,10.4,165.6,10.5z"/>
		<path class="st0" d="M160.5,13.1c-1.1,0.2-0.6,1.8,0.3,1.4C161.8,14.4,161.3,12.7,160.5,13.1z"/>
		<path class="st0" d="M159.5,15c0.3,0.1,0.5,0.3,0.8,0.5l0.1-0.2c-0.3-0.2-0.5-0.3-0.8-0.5C159.5,14.8,159.5,14.9,159.5,15z"/>
		<path class="st0" d="M157.1,14.6c0.6,0.4,0.5-0.2,0.6-0.7C157,14,156.9,14.3,157.1,14.6z"/>
		<path class="st0" d="M152.5,7.4c-0.5,1.5,2,1.5,1.3-0.1C153.3,7.1,152.8,7,152.5,7.4z"/>
		<path class="st0" d="M231.4,40.5c0.4,0,0.7,0.1,1.1,0.2c0-0.1,0-0.2,0.1-0.3c-0.4-0.1-0.7-0.2-1.1-0.2
			C231.5,40.3,231.4,40.4,231.4,40.5z"/>
		<path class="st0" d="M236.8,42.1c0.3,0.3,0.6,0.4,1.3,0c-0.5-0.1-0.9-0.2-1.2-0.3C236.9,41.9,236.9,42,236.8,42.1z"/>
		<path class="st0" d="M282.5,49.5C282.5,49.5,282.5,49.5,282.5,49.5c-0.1,0-0.2,0-0.3,0c-0.2,0-0.4,0-0.6,0.1
			c-8.3-1.9-16.7-3.8-24.9-6.1c-2.1-0.6-4.3-1.3-6.4-2.1c-0.1-0.1-0.1-0.1-0.2-0.2c-0.1,0-0.3,0-0.4-0.1c-0.1,0-0.3-0.1-0.4-0.1
			c-0.1,0-0.2,0-0.3,0c-33.1-8.2-64-22.7-92.8-41h-2.6c9.7,6.2,19.5,12,29.5,17.6c20.9,11,43.4,19.2,66.3,25.3c0,0,0-0.1,0-0.1
			c0.4,0.1,0.8,0.1,1.1,0.2c1.2,0.6,2.6,0.9,3.9,1.3c2.3,0.6,4.7,1.3,7,1.9c0.1,0,0.2,0.1,0.3,0.1c0,0,0,0,0,0c0,0,0.1,0,0.1,0
			c4.4,1.2,8.9,2.4,13.3,3.6c2.6,0.7,5.1,1.4,7.8,1.7c0.1,0,0.2,0,0.2,0c5.5,1.3,11,2.5,16.5,3.5v-1.8h0.1
			C294.1,52.1,288.3,50.8,282.5,49.5z"/>
		<path class="st0" d="M208.8,32.6c0.3,0.1,0.6,0.1,0.9,0.2v-0.2l-0.8-0.3C208.9,32.4,208.8,32.5,208.8,32.6z"/>
		<path class="st0" d="M300,36.6V0H189.1c4.5,2.5,9.1,4.9,13.7,7.2c-1.5,2.1-0.2,1.8,1.1,3.1c-3.5,0.5-6.4-1.5-9.3-3.3
			c-1.5-0.7-3.4-1.7-4.8-2.5c-2.6-1.5-5.3-3-7.9-4.4h-2.2c5.3,2.9,10.2,6.3,15.8,8.7c2.7,1.3,5.3,3.2,8.2,3.9c2.6,1.6,6,1.8,8.1,3.9
			c1.2-0.3,2,0.9,3.1,0.9c-0.1,0.6-0.2,1.1-0.2,1.7c1.3,0.4,1.4,0.3,1.7-1c2.5,1.3,5.8,1.4,7.7,3.5c-0.9-0.2-1.9-0.5-2.8-0.7
			c-0.8,2.7,4.7,4.4,5.6,1.8c0.4-1.2,7.8,1.3,8.4,2.4c3.8,0.5,7.7,1.8,11.6,3c0,0,0,0,0-0.1c8.8,2.4,17.6,4.8,26.4,7.1
			c1.9,0.5,3.9,1.1,5.9,1.3c0,0.1,0,0.2,0,0.2V37c2.3,0.5,4.7,0.8,6.9,1.3c4.6,1.1,9.3,2.1,13.9,3.1v-1.2c-6.4-1.3-12.7-2.8-19-4.4
			c-0.1-0.1-0.2-0.2-0.4-0.2c-0.1,0-0.2,0-0.4,0c-0.4-0.1-0.9-0.2-1.3-0.3c0,0.1,0,0.2,0,0.2c-1.7-0.2-3.4-0.7-5-1.1
			c-2.2-0.6-4.4-1.2-6.6-1.8c-4.5-1.2-9-2.4-13.4-3.6c-2.4-0.7-4.8-1.3-7.3-2c0,0,0-0.1,0-0.2c-3.6-1-7.2-2.2-10.7-3.4
			c-1.9-0.1-3.5-1.5-5.5-1.5c-0.9,0.1-1.3-0.8-1.7-1.5c-0.9-0.4-1.1-1.2-1.1-2c-0.6-0.2-0.7,0.2-1,0.5c3.3,3.7-5.9-0.3-6.9-0.9
			c-1-1.1-3.6-0.7-3.5-2.6h1.4c0.4,0.4,0.7,0.8,1.1,1.3l2.1-1.2c0.7,0.4,1.4,0.7,2.3,1.2c0-0.4,0-0.7-0.1-1.1
			c2.6,0.8,5.2,1.6,7.8,2.5C265.8,30.4,300,36.6,300,36.6z M214.5,16c-3.8-1.2-6.8-3.2-10.7-4.3c1.4-1.1,2.2-1.5,1.7-3.1
			c3.3,0.8,6.8,2.3,9.5,4.5C214.9,14,215.2,15,214.5,16z"/>
		<path class="st0" d="M188.5,15c0.5,0.6,1.1,0.8,2,0.5C189.8,15.1,189.4,14.4,188.5,15z"/>
		<path class="st0" d="M171.9,5.3c-0.2-0.1-0.5-0.2-0.7-0.4c-0.1,0.1-0.1,0.2-0.2,0.2c0.3,0.2,0.5,0.3,0.7,0.5
			C171.8,5.5,171.8,5.4,171.9,5.3z"/>
		<path class="st0" d="M163.1,0h-0.6c2.7,1.7,4.9,4.5,8.2,4.6C168.1,3,165.6,1.4,163.1,0z"/>
		<path class="st0" d="M183.5,12c0.6,0.9,1.4,1.6,2.9,1.6C185.4,12.8,184.5,12.3,183.5,12z"/>
		<path class="st0" d="M194.8,17.7c-0.1,0.1-0.1,0.2-0.2,0.3c0.2,0.2,0.5,0.3,0.7,0.4c0-0.1,0.1-0.2,0.2-0.3
			C195.3,18,195,17.8,194.8,17.7z"/>
	</g>
	<path class="st0" d="M299.4,57.5c0.1,0.2,0.2,0.5,0.3,0.7c-1,0.2-2-1.5-3-0.7c0,0.1-0.3,0-0.3,0c-0.9-0.7-2.1-0.2-3.1-0.6
		c-1.3-0.8-2.7-0.3-4-1.1c0-0.2-0.1-0.3-0.2-0.4l0.1,0.4l-1.9,0.5l-0.1-0.4v-0.1l1.8-0.5c-0.6-0.6-1.8-0.5-2.5-0.4v0.4
		c-1,0-1.1-1.5-2.3-1.3c0,0.2,0,0.4,0.1,0.6c-0.1-0.1-0.2-0.1-0.3-0.1c-0.1,0-0.3,0-0.4,0c0,0,0,0-0.1,0l0,0c-1,0-2-0.1-2.9-0.3
		c-0.1,0-0.2,0.1-0.3,0.1c-0.2,0-0.4,0-0.6,0c-0.1,0-0.2,0-0.3-0.1c-0.3-0.1-0.5-0.2-0.8-0.4c0,0-0.1-0.1-0.1-0.1
		c-0.3-0.1-0.6-0.2-0.9-0.3c0,0-0.1,0.1-0.1,0.1c-0.1,0.1-0.2,0.1-0.4,0.1c-0.1,0-0.3,0-0.4,0c-0.1-0.1-0.3-0.1-0.4-0.2
		c-0.1-0.1-0.2-0.2-0.3-0.3c-0.1-0.1-0.2-0.2-0.3-0.3c0,0,0,0,0-0.1c0,0,0,0,0,0c-0.3-0.1-0.6-0.2-0.9-0.3c-0.1,0.1-0.3,0.1-0.5,0.1
		c-0.4,0-0.7-0.2-0.9-0.5c-0.7-0.2-1.4-0.4-2.1-0.6c-0.2,0.2-0.4,0.3-0.8,0.3c-0.5,0-0.8-0.3-0.9-0.7c-0.2,0-0.5-0.1-0.7-0.1
		c0,0-0.1,0.1-0.1,0.1c-0.1,0.1-0.3,0.1-0.4,0.1h-0.1c-0.2,0-0.4,0-0.5-0.1c-0.1-0.1-0.1-0.1-0.2-0.2c-0.1-0.1-0.1-0.1-0.1-0.2
		c-0.9-0.2-1.7-0.4-2.6-0.6c-0.1,0-0.2,0.1-0.3,0.1c-0.3,0-0.5-0.1-0.7-0.3c-0.3-0.1-0.6-0.2-0.9-0.2c-0.2,0.1-0.3,0.2-0.6,0.2
		c-0.5,0-0.8-0.3-0.9-0.6c-0.1,0-0.1,0-0.2,0c-0.1,0-0.2,0.1-0.3,0.1c-0.4,0-0.6-0.2-0.8-0.4c-0.2-0.1-0.5-0.1-0.7-0.2
		c-0.1,0.1-0.3,0.1-0.4,0.1c-0.4,0-0.7-0.2-0.8-0.5c0,0-0.1,0-0.1,0c-0.1,0-0.2-0.1-0.3-0.1c-0.1,0.1-0.3,0.1-0.5,0.1
		c-0.4,0-0.7-0.2-0.9-0.5c-0.4-0.1-0.8-0.2-1.3-0.4c-0.1,0.1-0.3,0.1-0.4,0.1c-0.4,0-0.6-0.2-0.8-0.4c-1-0.3-2.1-0.5-3.1-0.6
		c-0.2-0.1-0.3-0.2-0.5-0.3c-0.4-0.2-0.7,0.3-0.5,0.7c-0.1,0.1-0.1,0.2-0.1,0.4c0,0.1,0,0.3,0.1,0.4c-0.2,0.2-0.2,0.7,0.2,0.8
		c1.6,0.6,3.3,1.1,5,1.6c0.5,0.2,1,0.4,1.5,0.5c0.6,0.2,1.3,0.3,1.9,0.4c0.2,0,0.4,0.1,0.6,0.1c1.7,0.5,3.3,0.9,5,1.3
		c0.2,0,0.4,0.1,0.6,0.1l11.7,3c0.1,0,0.3,0.1,0.4,0.1c0.4,0.1,0.8,0.2,1.3,0.3l8,2c0.1,0,0.2,0,0.3,0c4.5,1.1,9.1,2.1,13.6,3v-3.6
		C299.8,57.3,299.6,57.4,299.4,57.5z"/>
</g>
<path class="st0" d="M252.1,38.1c-0.5-0.3-1-0.4-1.6-0.3c-0.1,0-0.2,0.1-0.3,0.2c-0.1,0.1-0.1,0.3-0.1,0.4c0,0.1,0.1,0.2,0.2,0.3
	c0.1,0.1,0.2,0.1,0.4,0.1c0.1,0,0.2,0,0.4,0c0.1,0,0.2,0,0.3,0.1c0.1,0,0.1,0.1,0.2,0.1c0.2,0.1,0.6,0.1,0.7-0.2
	C252.4,38.5,252.3,38.2,252.1,38.1z"/>
<path class="st0" d="M256.7,39.2c-0.6-0.2-1.2-0.4-1.8-0.6c-0.3-0.1-0.6,0.1-0.6,0.3c-0.1,0.3,0.1,0.5,0.3,0.6
	c0.6,0.2,1.2,0.4,1.8,0.6c0.3,0.1,0.6-0.1,0.6-0.3C257.1,39.6,256.9,39.3,256.7,39.2z"/>
</svg>
