<svg width="300" height="250" viewBox="0 0 300 250" fill="none" xmlns="http://www.w3.org/2000/svg">
<g clip-path="url(#clip0_2838_968)">
<rect x="80" y="133" width="140" height="20" rx="10" fill="url(#paint0_linear_2838_968)"/>
<path d="M122.978 144.223C122.978 145.741 121.9 146.632 120.162 146.632C119.051 146.632 118.237 146.225 117.467 145.631L118.38 144.399C118.853 144.773 119.535 145.092 120.195 145.092C120.998 145.092 121.218 144.817 121.218 144.333C121.218 143.53 119.755 143.255 119.084 142.881C118.281 142.441 117.643 141.935 117.643 140.659C117.643 139.009 119.084 138.338 120.503 138.338C121.262 138.338 122.175 138.547 122.824 139.031L122.032 140.34C121.68 140.076 121.086 139.878 120.503 139.878C119.689 139.878 119.403 140.34 119.403 140.659C119.403 141.385 120.426 141.605 121.361 142.012C122.142 142.353 122.978 142.903 122.978 144.223ZM129.223 146.5H124.383V138.47H129.058V139.955H126.143V141.836H128.849V143.321H126.143V145.015H129.223V146.5ZM135.518 146.5H130.678V138.47H135.353V139.955H132.438V141.836H135.144V143.321H132.438V145.015H135.518V146.5ZM146.055 142.474C146.055 145.125 144.009 146.5 141.875 146.5H139.444V138.47H141.875C144.163 138.47 146.055 139.878 146.055 142.474ZM144.24 142.474C144.24 141.066 143.283 139.955 141.875 139.955H141.204V145.015H141.875C143.371 145.015 144.24 143.827 144.24 142.474ZM155.205 142.452C155.205 144.773 153.544 146.632 151.058 146.632C148.572 146.632 146.933 144.74 146.933 142.452C146.933 140.142 148.594 138.338 151.08 138.338C153.588 138.338 155.205 140.065 155.205 142.452ZM153.39 142.452C153.39 141.044 152.477 139.878 151.08 139.878C149.705 139.878 148.748 141.11 148.748 142.452C148.748 143.926 149.804 145.092 151.058 145.092C152.51 145.092 153.39 143.805 153.39 142.452ZM161.478 144.223C161.478 145.741 160.4 146.632 158.662 146.632C157.551 146.632 156.737 146.225 155.967 145.631L156.88 144.399C157.353 144.773 158.035 145.092 158.695 145.092C159.498 145.092 159.718 144.817 159.718 144.333C159.718 143.53 158.255 143.255 157.584 142.881C156.781 142.441 156.143 141.935 156.143 140.659C156.143 139.009 157.584 138.338 159.003 138.338C159.762 138.338 160.675 138.547 161.324 139.031L160.532 140.34C160.18 140.076 159.586 139.878 159.003 139.878C158.189 139.878 157.903 140.34 157.903 140.659C157.903 141.385 158.926 141.605 159.861 142.012C160.642 142.353 161.478 142.903 161.478 144.223ZM164.643 146.5H162.883V138.47H164.643V146.5ZM173.284 146.5H171.766L168.224 141.825C168.114 141.671 168.026 141.495 168.026 141.495C168.026 141.495 168.048 141.704 168.048 141.902V146.5H166.288V138.47H167.806L171.348 143.101C171.469 143.255 171.546 143.431 171.546 143.431C171.546 143.431 171.524 143.222 171.524 143.024V138.47H173.284V146.5ZM182.592 142.452C182.592 145.103 180.854 146.632 178.665 146.632C176.278 146.632 174.551 144.927 174.551 142.452C174.551 139.966 176.399 138.338 178.632 138.338C180.051 138.338 181.03 138.888 181.734 139.647L180.645 140.714C180.15 140.175 179.446 139.878 178.632 139.878C177.29 139.878 176.289 141.066 176.289 142.452C176.289 143.871 177.29 145.092 178.665 145.092C179.633 145.092 180.337 144.707 180.645 143.937H178.599V142.452H182.592Z" fill="white"/>
</g>
<defs>
<linearGradient id="paint0_linear_2838_968" x1="130.291" y1="139" x2="127.504" y2="151.821" gradientUnits="userSpaceOnUse">
<stop stop-color="#94348C"/>
<stop offset="1" stop-color="#852A7D"/>
</linearGradient>
<clipPath id="clip0_2838_968">
<rect width="300" height="250" fill="white"/>
</clipPath>
</defs>
</svg>
