<?xml version="1.0" encoding="UTF-8"?>
<svg id="Layer_1" data-name="Layer 1" xmlns="http://www.w3.org/2000/svg" viewBox="0 0 300 50">
  <defs>
    <style>
      .cls-1 {
        fill: #fff;
        stroke-width: 0px;
      }
    </style>
  </defs>
  <path class="cls-1" d="m225.76,48.2c.23-.73.49-1.46.66-2.2.37-1.6.67-3.2,1.06-4.8.24-.97.64-1.91.93-2.87.27-.91.47-1.83.73-2.74.36-1.31.73-2.61,1.14-3.91.51-1.61.99-3.24,1.6-4.83.44-1.05.95-2.07,1.52-3.06.35-.64.73-1.27,1.15-1.86.33-.45.68-.88,1.07-1.27.42-.43.85-.84,1.31-1.23.38-.34.8-.64,1.24-.9.79-.48,1.8-.33,2.41.36.67.64,1.24,1.37,1.68,2.18.51,1.02.77,2.19,1.2,3.26.32.82.7,1.61,1.14,2.38.45.77,1.02,1.47,1.53,2.2.1.11.19.22.26.35.51,1.03,1.57,1.68,2.72,1.67,1.44.12,2.88-.31,4.02-1.19.81-.55,1.52-1.23,2.1-2.01.62-.93,1.19-1.89,1.7-2.89.35-.78.59-1.6.72-2.45.43-1.6.84-3.21,1.27-4.82.09-.33.3-.65.35-.99.2-1.13.35-2.26.54-3.39.29-1.74.76-3.44,1.41-5.08.34-.76.84-1.45,1.46-2.02.63-.58,1.43-.96,2.29-1.08l.23-.05c.32-.06.65-.04.96.07.74.22,1.46.48,2.16.78.88.44,1.68,1.01,2.37,1.7l.34.31c.44.41.9.79,1.38,1.14,1.45,1.2,3.25,1.9,5.13,2,1.35.07,2.69-.18,3.92-.73,1.06-.53,2.14-1,3.21-1.52.2-.13.38-.27.54-.44.22-.18.44-.36.67-.55,1.21-.83,2.33-1.77,3.36-2.81.47-.58.9-1.19,1.29-1.83.24-.39.65-.69.87-1.08.37-.66.72-1.33,1.08-2h-1.18c-.52.84-1.13,1.64-1.69,2.47-.14.2-.19.48-.35.65-.62.65-1.25,1.29-1.92,1.9-.47.31-.91.65-1.32,1.03-.56.63-1.22,1.15-1.96,1.55-.74.55-1.56.98-2.44,1.26-.7.16-1.38.52-2.08.76-.21.04-.43.03-.64,0-.1,0-.21-.06-.3-.02-.98.27-2.01.24-2.97-.08-.77-.25-1.49-.62-2.16-1.08-.34-.18-.66-.39-.97-.62-.59-.46-1.17-.93-1.74-1.42-.14-.12-.2-.33-.37-.4-.35-.22-.68-.46-1-.73-.81-.74-1.81-1.24-2.89-1.43-1.02-.16-2.07-.04-3.02.37-1.41.62-2.53,1.77-3.1,3.2-.45.75-.75,1.59-.88,2.45-.01.26-.29.53-.34.8-.08.44-.16.87-.23,1.31l-.21,1.31-.11.66c-.19,1.1-.36,2.2-.59,3.29-.11.53-.34,1.04-.5,1.57-.13.43-.2.87-.33,1.3-.09.3.09.69-.4.88-.06.02-.05.23-.08.35-.18,1-.45,1.99-.8,2.95-.28.65-.62,1.27-1,1.86-.52.77-1.15,1.47-1.86,2.07-.65.55-1.38,1-2.17,1.31-.38.12-.77.17-1.16.16-.28,0-.56.02-.83.07-.66.12-1.33-.15-1.73-.7l-.1-.11-.21-.22c-.61-.62-.94-1.48-1.52-2.13-1.13-1.27-1.43-2.97-2.1-4.47-.48-1.07-.94-2.15-1.45-3.21-.13-.18-.3-.34-.49-.45-.33-.28-.7-.53-.99-.84-.6-.4-1.33-.55-2.03-.42-.77.21-1.47.63-2.02,1.22l-.19.18c-.16.15-.33.29-.5.43-.45.34-.85.73-1.21,1.16-.59.76-1.12,1.56-1.64,2.37-.43.66-.82,1.35-1.19,2.05-.14.3-.26.61-.35.93-.38,1.14-.75,2.29-1.14,3.42-.45,1.32-.97,2.62-1.38,3.95-.25.82-.32,1.66-.49,2.49-.06.25-.15.5-.27.73-.11.2-.21.41-.3.62-.25.86-.48,1.72-.7,2.58-.14.7-.32,1.38-.53,2.06-.54,1.39-.57,2.83-.96,4.23-.18.64-.55,1.26-.77,1.91-.18.51-.25,1.04-.39,1.55-.12.32-.22.65-.32.98h1.26c.04-.18.08-.35.13-.52.12-.43.31-.85.45-1.28Z"/>
  <path class="cls-1" d="m276.93,2.47l.12.1s.04.03.06.05l.12.1c.43.45,1.07.64,1.68.5l.25-.07c.75-.15,1.44-.49,2.01-1,.46-.39.94-.76,1.44-1.1.44-.29.83-.65,1.16-1.05h-9.87c.97.79,1.88,1.66,2.91,2.38.04.03.08.06.12.09Z"/>
  <path class="cls-1" d="m219.19,44.12c.16-.56.15-1.14.28-1.7.26-1.1.57-2.19.85-3.29.15-.57.27-1.14.43-1.7.18-.65.39-1.3.58-1.95.17-.57.31-1.13.48-1.7.4-1.3.82-2.6,1.22-3.91.25-.8.43-1.62.71-2.41.5-1.42.97-2.86,1.61-4.23.68-1.46,1.61-2.84,2.33-4.29.84-1.49,1.95-2.8,3.27-3.88.37-.42.76-.83,1.18-1.21.42-.31.86-.6,1.3-.89l.88-.57c.29-.19.58-.38.87-.58,1.14-.69,2.47-1.02,3.81-.94,1.04-.04,2.09.02,3.11.08.26.03.51.14.72.3.64.46,1.55.48,2.07,1.12.24.29.5.56.78.81.22.2.53.31.72.54.67.74,1.27,1.53,1.81,2.36.48.91.9,1.86,1.24,2.83.28.69.51,1.4.87,2.1.18-.73.32-1.46.53-2.18.37-1.32.85-2.64,1.15-3.97.27-1.16.34-2.34.57-3.51.15-.79.41-1.57.64-2.36.29-.99.58-1.99.92-2.97.18-.39.39-.77.63-1.12.14-.22.27-.46.36-.71.38-1.1,1.11-2.04,2.06-2.7.24-.22.45-.46.63-.72.07-.09.14-.17.22-.24.22-.17.43-.35.65-.52H0v50h217.42c.13-.41.25-.83.35-1.25.42-1.55.97-3.09,1.42-4.64Z"/>
  <path class="cls-1" d="m283.76,1.92c-.92.84-1.95,1.57-3.05,2.16-.42.19-.86.35-1.3.46-.38.13-.78.2-1.19.21-1.21-.13-2.32-.73-3.07-1.68-.96-.92-1.99-1.76-3.08-2.51-.28-.21-.58-.39-.88-.56h-1.25c.2.08.41.14.61.24.69.37,1.35.78,1.98,1.24.23.13.46.29.66.46.4.44.83.86,1.28,1.26.63.47,1.39.8,2,1.29.94.74,2.22.88,3.3.36,1.01-.27,1.94-.78,2.71-1.49.72-.66,1.48-1.28,2.28-1.85.46-.41,1.03-.79,1.11-1.48,0-.01.02-.01.02-.02h-.33c-.47.75-1.08,1.41-1.8,1.92Z"/>
  <path class="cls-1" d="m300,0h-2.36c-.04.09-.08.18-.13.26-.51.97-1.06,1.94-1.63,2.87-.57.93-1.16,1.85-1.81,2.74-.46.63-1.02,1.19-1.54,1.77-.38.43-.78.85-1.18,1.27-.21.23-.43.45-.66.65-.74.64-1.51,1.24-2.31,1.79-1.06.82-2.2,1.53-3.41,2.12-1.31.5-2.61,1.06-3.93,1.52-.52.12-1.06.18-1.59.19l-.42.05-.84.11c-.42.05-.84.1-1.25.12-.47,0-.93-.04-1.39-.12-.9-.09-1.77-.35-2.58-.76-.35-.12-.71-.22-1.07-.29-.29-.11-.56-.26-.82-.43-1.17-.8-2.35-1.59-3.5-2.42-.45-.32-.8-.77-1.22-1.13-.3-.25-.65-.45-1.03-.71-.32,1.04-.67,1.99-.89,2.95-.2.95-.34,1.92-.43,2.89-.2,1.42-.52,2.83-.95,4.2-.22.8-.46,1.61-.68,2.41-.26.75-.47,1.52-.64,2.3-.2.88-.56,1.73-1.05,2.49-.32.72-.69,1.42-1.1,2.09-.27.4-.6.77-.83,1.18-.86,1.5-2.32,2.33-3.67,3.29-.57.45-1.19.83-1.85,1.13-.85.35-1.75.59-2.66.73-.94.13-1.89.15-2.83.06-.5-.05-1-.17-1.48-.34l-.36-.12-.18-.06c-.52-.1-1.01-.3-1.46-.59-1.04-.73-1.94-1.65-2.64-2.7-.33-.52-.69-1.02-1.08-1.5-.33-.46-.63-.94-.91-1.44-.31-.59-.6-1.2-.85-1.81-.31-.76-.58-1.53-.86-2.3l-.17-.04c-.24.41-.51.82-.72,1.24-.4.82-.76,1.64-1.13,2.47-.06.16-.1.32-.12.49,0,.03-.01.07-.01.1l-.02.2c-.01.1-.03.2-.07.29-.34.81-.7,1.62-1.04,2.43-.03.1-.05.2-.06.3-.13.47-.26.93-.37,1.39-.13.54-.25,1.08-.38,1.61-.17.72-.31,1.45-.5,2.17-.38,1.42-.71,2.85-1.21,4.25-.43,1.55-.78,3.13-1.05,4.72-.22.89-.64,1.75-.9,2.64-.13.43-.25.86-.37,1.29h70.2V0Z"/>
  <path class="cls-1" d="m260.56.22c-.36.24-.72.5-1.06.77-.59.47-1.14.98-1.66,1.52-.43.43-.81.91-1.13,1.43-.45.75-.72,1.58-1.19,2.32-.77,1.21-.79,2.57-1.36,3.82-.1.25-.16.52-.17.78l-.02.27c-.01.14-.03.27-.06.41-.09.46-.27.91-.34,1.37-.2,1.17-.32,2.35-.56,3.52-.15.79-.38,1.56-.6,2.34l-.23.78c-.15.5-.37.99-.52,1.49s-.26,1.01-.37,1.52c-.01.18,0,.36.04.53l.18-.03c.16-.51.34-1.02.48-1.54.18-.66.31-1.33.5-1.99.37-1.24.82-2.46,1.17-3.7.12-.62.2-1.24.22-1.87,0-.08.02-.16.04-.24.14-.71.25-1.42.41-2.13.16-.69.34-1.38.54-2.06.13-.45.45-.91.44-1.33-.03-.31.07-.61.27-.85.11-.22.19-.45.25-.69.14-.34.29-.69.46-1.02.17-.33.48-.64.53-.96.17-.66.56-1.24,1.09-1.65.55-.55,1.18-1.03,1.85-1.61.7-.09.99-1.07,1.72-1.29.16.06.33.06.49.02.08-.03.15-.09.22-.15h-1.31l-.32.22Z"/>
  <path class="cls-1" d="m293.46.68c-.42.79-.86,1.58-1.34,2.33-.27.42-.65.77-.94,1.18-.15.27-.27.56-.37.85-.05-.04-.09-.08-.15-.12-.16.12-.3.26-.44.41-.37.48-.58,1.08-1.22,1.36-.31.17-.61.36-.9.56.13.06.19.09.32.15-.31.14-.61.27-.9.4l-.58.26-.29.13.19.23-.47.39c-.03-.1-.05-.16-.08-.26-.22.13-.42.25-.62.37.01.03.03.05.04.08l.28-.11s.05.09.07.13c-.8.52-1.61,1.05-2.34,1.53l-.55-.1s-.03.07-.04.11l.27.32c-.39,0-.69,0-.99,0-.03.02-.06.05-.09.08l-.25.31s-.03-.02-.04-.03c.05-.06.1-.12.23-.29-.46.12-.79.21-1.12.3l.02.1c.1.02.2.03.43.07l-2.86.64c.14-.13.22-.21.37-.36-.31.02-.6-.04-.71.07-.61.61-1.04.32-1.47-.05-.22.31-.44.36-.71.16-.11-.08-.33-.19-.38-.15-.17.17-.43.2-.63.06l-.08-.04c-.08-.05-.16-.08-.24-.11.11-.06.18-.1.3-.17-.31-.13-.56-.24-.89-.38.04.17.07.28.1.44-.51-.24-.98-.46-1.47-.7.03-.28-.72-.98-1.22-.99l.47.44c-.23-.04-.44-.15-.6-.31-.22-.22-.43-.45-.62-.7-.16-.19-.37-.33-.61-.42l-.14-.06c-.38-.11-.67-.41-.77-.79-.01-.08-.22-.11-.35-.16-.15-.05-.32-.09-.48-.13.05-.35.01-.58-.42-.5-.15.01-.3-.04-.4-.15-.63-.57-1.48-.85-2.32-.76-.49-.02-.97.1-1.4.33-.56.43-1.03.97-1.39,1.58-.43.85-.82,1.73-1.15,2.63-.12.25-.22.52-.29.79-.09.46-.13.93-.21,1.38-.08.45-.2.9-.29,1.33l-.2-.11c-.02.21-.04.37-.06.52.12.02.22.03.32.05-.34.99-.16,2.02-.79,2.9.02.14.02.29,0,.43-.08.25-.29.49-.3.73,0,.85-.26,1.68-.76,2.37-.07.11-.1.24-.09.37,0,.12.13.25.1.36-.08.37-.21.72-.32,1.09-.07.27-.11.54-.19.81-.12.4-.27.8-.39,1.2-.02.08-.02.16-.01.24-.07-.05-.12-.1-.14-.11-.21.37-.4.71-.6,1.04-.33.55-.35,1.17-.88,1.69-.3.3-.51.74-.87,1.05-.43.37-.81.79-1.23,1.17-.23.21-.54.53-.76.52-.42-.03-.82.13-1.11.44-.3.28-.6.56-.93.86-.27-.32-.53-.46-.74-.13-.81-.02-1.54-.05-2.27-.07-.01.05-.03.1-.04.15-.11-.08-.22-.16-.25-.18-.15.07-.24.14-.28.13-.32-.12-.64-.26-.95-.42-.38-.21-.74-.45-1.09-.69-.24-.17-.47-.36-.77-.59.22.05.34.07.46.1.05-.05.11-.1.16-.15-1.35-.47-1.58-1.77-2.06-2.87l-.16.11c.08.13.16.26.24.39-.21-.08-.44-.18-.51-.35-.18-.82-.51-1.59-.98-2.28-.06-.06-.09-.14-.08-.22.17-.63-.5-.92-.4-1.59.07-.4-.41-.82-.67-1.3-.01.01-.02.03-.04.04-.02-.03-.03-.05-.05-.08l-.08-.21s-.02-.03-.03-.04c-.09-.2-.19-.4-.3-.59-.04-.19-.11-.37-.22-.54-.05-.62-.77-.72-1.27-.83-.06-.02-.11-.02-.17-.03.11.13.24.24.39.33,0,.02,0,.05.01.07.25.45.44.92.57,1.42.01.28.1.56.25.8.13.44.27.94.45,1.43.29.76.67,1.49.91,2.27.21.7.2,1.49,1.01,1.83.05.02.05.12.09.17.39.61.77,1.22,1.17,1.82.11.16.37.26.41.43.2.62.67,1.11,1.27,1.33.08.19.1.42.21.48.36.19.78.29,1.15.46.16.1.31.21.45.34l-.04.17c.21-.12.43-.24.65-.35.09-.04.26-.09.3-.05.22.2.53.27.81.18l.2-.04c.13-.02.26-.03.39-.02.41.05.98.33,1.42-.23.04-.05.22,0,.33.01.17,0,.36.06.5,0,.49-.21.95-.47,1.4-.77.81-.59,1.57-1.25,2.38-1.85.51-.4.93-.9,1.23-1.48.36-.63.96-1.13,1.14-1.87.09-.31.24-.6.43-.86l.13-.19c.28-.35.44-.78.47-1.22.02-.35.09-.7.22-1.03l.09-.26c.05-.13.09-.26.13-.39.26-.87.54-1.73.8-2.58.12-.41.22-.83.34-1.24.2-1.04.52-2.05.72-3.07.23-1.15.34-2.31.52-3.46.08-.57.2-1.12.36-1.67.33-1.03.7-2.04,1.04-3,.22-.27.47-.52.74-.74.66-.41,1.5-.4,2.14.04.98.45,1.87,1.09,2.62,1.87.26.24.53.46.83.65.87.75,1.78,1.45,2.72,2.1.72.41,1.49.71,2.3.9.67.19,1.45.11,2.09.35.85.33,1.71-.12,2.56-.04.25,0,.5-.05.74-.15.2-.08.42-.13.63-.15.76-.17,1.5-.44,2.2-.79.27-.05.53-.13.78-.24.69-.37,1.37-.78,2.05-1.18.23-.14.46-.29.68-.45.26-.19.51-.38.76-.57.34-.24.64-.84.9-.85.32-.03.62-.19.81-.45l.11-.12c.16-.22.39-.38.66-.45.81-1.07,2.04-1.84,2.49-3.18.02-.05.05-.1.09-.13.74-.68,1.33-1.52,1.71-2.44.26-.52.52-1.03.78-1.55h-1.12s-.02.05-.02.08c0,.2-.02.4-.08.59Z"/>
  <path class="cls-1" d="m285.54,2.97c-.69.51-1.38,1.05-2.05,1.6-.85.72-1.83,1.28-2.88,1.64-.75.31-1.54.51-2.34.57-1.09.05-2.17-.29-3.03-.97-.59-.51-1.29-.88-1.86-1.4-.48-.44-.97-.86-1.48-1.28-.71-.59-1.49-1.1-2.3-1.53-.65-.3-1.33-.54-2.02-.72-.3-.13-.62-.18-.94-.15-.41.07-.83.11-1.25.11-.69-.02-1.38.1-2.03.37-.19.08-.4.13-.6.16-.24.02-.48.09-.69.21-1.03.69-1.98,1.47-2.86,2.34-.58.76-1.09,1.57-1.5,2.43-.58,1.17-1.04,2.4-1.36,3.67-.24.78-.41,1.58-.53,2.4-.08.46-.08.92-.15,1.38-.13.81-.29,1.63-.44,2.44-.05.25-.13.5-.2.75-.21.78-.43,1.56-.64,2.35-.05.3-.12.59-.21.88-.1.26-.33.49-.4.75-.19.69-.3,1.39-.49,2.08-.1.32-.26.62-.47.88-.35.47-.35.9.16,1.18.44-.86.83-1.75,1.18-2.66.39-1.19.62-2.42.95-3.62.31-1.13.7-2.25,1-3.38.03-.33.05-.66.04-.99.06-.44.18-.89.27-1.33.22-1.11.39-2.22.66-3.32.19-.72.43-1.43.74-2.11.38-.94.82-1.86,1.31-2.74.42-.54.92-1.02,1.47-1.43.85-.95,1.98-1.61,3.22-1.87.97-.2,1.98-.22,2.96-.05.36.04.72.11,1.07.2.86.28,1.68.65,2.46,1.11,1.07.71,2.09,1.5,3.06,2.35.05.03.1.08.15.12l.3.24c.78.68,1.67,1.23,2.63,1.6.96.29,1.99.31,2.96.07.96-.27,1.9-.63,2.8-1.07.28-.14.53-.31.77-.51.83-.64,1.66-1.28,2.49-1.92.36-.26.7-.54,1.01-.86.38-.43.67-.92,1.01-1.37.38-.5.8-.98,1.15-1.49,0-.01.01-.03.02-.04h-.79c-.22.33-.44.66-.65.99-.43.76-1,1.44-1.68,1.98Z"/>
  <path class="cls-1" d="m254.19,32.72c-.02-.05-.04-.11-.06-.16l-1.1.65h0s.04.08.07.12l1.09-.62Z"/>
  <path class="cls-1" d="m249.33,34.07c-.32-.04-.63-.07-.94-.11,0,.05-.02.1-.02.14h0c.32,0,.64.01.96.02,0-.01,0-.04,0-.05Z"/>
  <path class="cls-1" d="m243.88,32.09c-.17-.13-.34-.26-.5-.39l-.08.09.46.46c.04-.05.08-.1.12-.15Z"/>
  <path class="cls-1" d="m231.13,31.36l.14.1c.13-.16.26-.33.39-.49l-.12-.09c-.14.16-.27.32-.41.48Z"/>
  <path class="cls-1" d="m257.21,30.41c.15-.21.3-.42.46-.63-.04-.02-.07-.05-.1-.07-.16.19-.32.4-.49.59h0s.09.07.14.11Z"/>
  <path class="cls-1" d="m256.28,27.97c-.05-.03-.1-.06-.16-.1l-.63,1.01s.07.04.11.06c.23-.33.46-.65.69-.97Z"/>
  <polygon class="cls-1" points="255.48 28.88 255.48 28.88 255.48 28.88 255.48 28.88"/>
  <path class="cls-1" d="m262.76,15.65s-.03,0-.04,0l-.14.73h0s.06,0,.09.01l.09-.73Z"/>
  <path class="cls-1" d="m239,19.69s0,0,.01,0c0,0,0,0,0,0,0,0,0,0,0,0Z"/>
  <path class="cls-1" d="m227.17,50c.06-.13.17-.3.14-.38-.1-.29-.06-.61.11-.86l.06-.13c.03-.06.06-.13.08-.19.16-.43.27-.87.39-1.3.32-1.11.67-2.24.96-3.36.13-.49.09-1.01.19-1.51.12-.64.31-1.26.48-1.9.07-.25.16-.48.23-.73.22-.83.43-1.66.67-2.49.25-.92.53-1.83.79-2.74.15-.55.28-1.1.44-1.65.3-1.01.62-2.01.93-3.02.05-.16.1-.32.15-.48l.3-.96c.2-.64.4-1.27.64-1.9.28-.65.61-1.28.98-1.88.33-.61.66-1.22,1.01-1.82.14-.24.33-.47.52-.74-.03-.05-.05-.09-.07-.15-.06.08-.12.15-.17.23,0,0,0,.01,0,.02-.41.39-.77.85-1.05,1.35-.08.18-.18.35-.29.5l-.11.16c-.23.27-.36.62-.37.98,0,.13-.26.29-.35.46-.49.76-.91,1.57-1.25,2.41-.09.48-.22.96-.38,1.43-.08.12-.16.23-.26.33-.05.08-.14.2-.12.27.11.61-.03,1.24-.37,1.76l-.09.18-.04.09c-.13.36-.21.73-.25,1.1-.02,0-.04,0-.06,0-.11.54-.18,1.03-.32,1.5-.24.48-.38,1-.4,1.54.05.45-.32.99-.46,1.5-.08.28-.08.58-.13.87-.04.2-.11.4-.17.6-.04,0-.09,0-.13,0-.03-.08-.06-.16-.11-.27-.07.08-.13.13-.12.16.02.47-.26.91-.21,1.42-.07.6-.24,1.18-.52,1.72-.02.04-.06.08-.09.1-.08.07-.16.14-.23.21.08.06.16.13.3.24l-.2.59c-.1.27-.19.56-.3.87.03,0,.11,0,.22-.02-.02.09-.03.25-.07.27-.38.13-.39.43-.44.71-.16.9-.31,1.8-.51,2.69-.08.36-.32.72-.44,1.09-.09.28-.07.57-.16.84-.03.09-.09.16-.15.24h.81s0,0,0,0Z"/>
  <path class="cls-1" d="m230.83,23.6c-.05-.03-.11-.05-.16-.07-.24.43-.47.86-.7,1.29.05.02.11.05.17.08.23-.43.46-.86.69-1.3Z"/>
  <path class="cls-1" d="m225.04,41.56c-.07,0-.13-.01-.2-.02-.07.29-.14.58-.2.87l.17.02c.07-.29.15-.58.23-.87Z"/>
  <polygon class="cls-1" points="223.19 47.74 223.19 47.73 223.19 47.73 223.19 47.74"/>
  <path class="cls-1" d="m225.84,38.66c-.07,0-.13-.02-.2-.03-.11.41-.22.82-.33,1.23.05,0,.11.01.17.02l.37-1.22Z"/>
  <path class="cls-1" d="m223.19,47.73c.07.01.15.02.22.04.2-.53.4-1.05.6-1.57-.08-.02-.17-.04-.24-.06-.19.53-.38,1.06-.58,1.59Z"/>
  <path class="cls-1" d="m223.03,49.01l-.19-.03c-.1.34-.19.68-.29,1.01h.23c.08-.33.16-.66.24-.99Z"/>
  <path class="cls-1" d="m234.66,18h0c-.46.46-.91.91-1.44,1.45.83-.42,1.52-1.14,1.44-1.45Z"/>
  <path class="cls-1" d="m243.29,18.63l-.08-.16c-.19-.53-.6-.95-1.12-1.16l1.42,1.7c-.08-.12-.16-.25-.22-.38Z"/>
  <path class="cls-1" d="m245.2,23.71c.05-.03.1-.05.14-.07-.09-.24-.18-.48-.28-.71-.05.03-.1.05-.16.07.09.24.19.47.29.71h0Z"/>
  <polygon class="cls-1" points="238.07 16.01 238.07 16.01 238.07 16.01 238.07 16.01"/>
  <polygon class="cls-1" points="231.66 21.9 231.39 22.22 231.12 22.54 231.3 22.64 231.66 21.9"/>
  <path class="cls-1" d="m222.13,47.99c.22-.66.49-1.31.67-1.98.32-1.2.55-2.41.86-3.61.29-1.14.65-2.28.95-3.42.07-.27.15-.55.22-.82l.42-1.64c.14-.54.29-1.09.44-1.64.36-1.27.77-2.53,1.16-3.8.19-.64.33-1.28.53-1.92.2-.61.46-1.21.68-1.82.12-.51.28-1.01.46-1.5.75-1.56,1.54-3.09,2.33-4.63.24-.54.54-1.04.9-1.51.68-.78,1.41-1.52,2.18-2.22.73-.68,1.5-1.34,2.29-1.95.48-.38,1.08-.6,1.69-.61.63-.01,1.28-.2,1.89-.17.49.03.97.16,1.41.38.87.43,1.64,1.04,2.25,1.8.95,1.2,1.66,2.57,2.09,4.04.4,1.48,1.04,2.89,1.89,4.16.45.61.86,1.24,1.29,1.87.26.38.83.46,1.47.21-.28-.17-.57-.32-.84-.51-.28-.17-.52-.38-.72-.64-.29-.46-.37-1.1-.75-1.44-.96-.85-.93-2.2-1.56-3.21-.21-.5-.35-1.03-.43-1.57-.08-.21-.19-.41-.3-.6-.08-.16-.15-.32-.22-.49l-.15-.33c-.22-.56-.52-1.08-.9-1.56-.33-.35-.68-.68-1.05-.99-.26-.19-.5-.4-.71-.64-.35-.46-.89-.75-1.47-.79-.13-.05-.26-.11-.39-.17-.28-.11-.58-.21-.87-.27-.19-.03-.43.07-.62.03-.6-.11-1.21.03-1.71.37-.1.04-.2.05-.3.02-.1-.02-.2-.02-.29.01-.43.19-.83.42-1.21.69-.71.54-1.37,1.17-2.07,1.72-.82.72-1.56,1.53-2.19,2.42-.53.66-.91,1.4-1.41,2.03-.47.59-.53,1.24-.92,1.82-.34.59-.61,1.22-.81,1.87-.34.87-.66,1.75-1,2.63-.37.8-.7,1.62-.97,2.46-.09.36-.17.73-.27,1.1-.31,1.09-.54,2.19-.83,3.29-.13.51-.35,1-.5,1.51-.06.21-.02.44-.09.65-.32,1-.65,2-.98,3-.01.03-.04.07-.04.1-.13.79-.35,1.57-.64,2.32-.16.78-.23,1.56-.42,2.33-.17.73-.45,1.45-.66,2.18-.16.52-.25,1.06-.46,1.57-.25.62-.44,1.24-.62,1.87h.77c.17-.67.31-1.35.54-2.01Z"/>
  <path class="cls-1" d="m232.16,20.72l-.45,1.09c.22-.33.45-.67.67-1-.07-.03-.15-.06-.23-.09Z"/>
  <path class="cls-1" d="m239.63,15.63c-.19.11-.41.14-.62.08-.34-.08-.7.03-.93.29.59-.03,1.07-.07,1.54-.1,0-.09.01-.19.02-.28Z"/>
  <path class="cls-1" d="m271.94,5.48c-.31-.28-.61-.57-.92-.85-.04.04-.08.08-.13.11l.94.85.11-.11Z"/>
  <path class="cls-1" d="m265.76,2.52c1.56.16,3.06.71,4.34,1.6-1.15-1.14-2.73-1.73-4.34-1.6Z"/>
  <path class="cls-1" d="m262.22,3.23c-.41.44-1.01.69-1.25,1.3.44-.41.89-.81,1.33-1.22-.03-.03-.05-.06-.08-.09Z"/>
  <path class="cls-1" d="m258.51,9.14c-.06,0-.12,0-.18,0-.05.17-.11.36-.16.54l.15.03c.06-.19.12-.37.19-.56Z"/>
  <polygon class="cls-1" points="262.22 3.23 262.22 3.23 262.22 3.23 262.22 3.23"/>
  <path class="cls-1" d="m289.74.34s-.08-.05-.12-.08h0c-.22.28-.43.57-.72.96.58-.17.63-.59.84-.88Z"/>
  <path class="cls-1" d="m287.33,3.6s-.03-.04-.04-.05l-1.35,1.13h0s.03.04.04.05l1.35-1.13Z"/>
  <path class="cls-1" d="m283.8,6.51l-.06-.13c-.5.27-.99.53-1.49.79h0c.02.06.05.12.08.18l1.48-.85Z"/>
  <path class="cls-1" d="m281.16,7.82c-.01-.05-.04-.11-.04-.16l-1.71.63h0c.02.06.04.11.07.17l1.69-.64Z"/>
  <path class="cls-1" d="m255.69,20.93c-.06,0-.11-.02-.16-.03-.09.32-.17.63-.26.95h0c.06,0,.12.02.19.02.08-.31.16-.63.24-.94Z"/>
  <path class="cls-1" d="m252.26,25.9c0-.06,0-.13,0-.19-.22,0-.45.03-.66.1-.39.26-.76.58-.57,1.12l1.22-1.03Z"/>
  <path class="cls-1" d="m257.28,14.36h-.17s-.3,1.88-.3,1.88h.17c.2-.61.56-1.23.3-1.88Z"/>
  <path class="cls-1" d="m253.09,26.52l-1.65,1.38c.7-.25,1.28-.74,1.65-1.38Z"/>
  <path class="cls-1" d="m258.13,10.28c-.06,0-.12-.02-.18-.02h0c-.26.34-.34.78-.19,1.18.13-.39.25-.77.37-1.16Z"/>
  <path class="cls-1" d="m257.6,12.57c.08-.28.18-.56.25-.85.01-.07-.05-.16-.09-.23l-.04.08h0c-.31.52-.42,1.14-.32,1.74.05-.19.11-.45.2-.74Z"/>
  <path class="cls-1" d="m219.8,48.18s.02-.07.02-.11l.04-.2c.03-.17.08-.34.16-.5.63-1.49,1.07-3.05,1.29-4.66.31-1.35.73-2.68,1.1-4.02.24-.88.44-1.78.73-2.65.57-1.73.7-3.53,1.49-5.23.17-.51.32-1.03.43-1.56.22-.67.5-1.33.74-2,.09-.26.17-.52.25-.78l.16-.52c.15-.52.34-1.03.57-1.53.69-1.42,1.51-2.8,2.28-4.19.25-.47.47-.96.77-1.41.6-.86,1.32-1.64,2.13-2.31.14-.12.25-.26.38-.39.52-.55,1.07-1.07,1.65-1.55.79-.56,1.62-1.07,2.47-1.54.3-.15.63-.23.97-.24.86-.06,1.72-.08,2.58-.1.52-.01,1.04,0,1.56.04.14.02.28.08.4.17.16.1.3.31.47.32,1.22.12,1.47,1.44,2.55,1.77.37.11.55.69.82,1.05.77,1.06,1.39,2.22,1.85,3.44.38.94.68,1.92,1.04,2.86.16.34.36.67.57.98.04-.11.13-.24.1-.31-.45-1.52-.99-3.01-1.62-4.46-.35-.88-.77-1.73-1.27-2.54-.42-.55-.9-1.05-1.44-1.48l-.39-.34c-.46-.38-.89-.8-1.27-1.26-.01-.01-.02-.02-.04-.03-.29-.08-.57-.18-.84-.3l-.23-.1c-.78-.41-1.67-.58-2.55-.47-.2,0-.41-.02-.6-.07-.44-.04-.88.04-1.28.23l-.23.09c-.11.04-.23.09-.35.13-.89.21-1.73.57-2.5,1.07-.25.18-.45.41-.68.6-.76.61-1.55,1.2-2.3,1.83-.18.2-.34.41-.48.63-.44.54-.9,1.08-1.35,1.62-.35.36-.67.76-.96,1.17-.47.79-.87,1.6-1.3,2.41-.31.58-.67,1.14-.95,1.72-.34.57-.58,1.2-.71,1.85-.25.94-.56,1.86-.93,2.76-.25,1.17-.75,2.32-1.09,3.48-.3,1.04-.48,2.1-.79,3.13-.3,1.03-.7,2.04-1.03,3.07-.22.67-.37,1.35-.56,2.02-.13.46-.31.91-.42,1.38-.11.49-.15.98-.24,1.47-.26,1.4-.65,2.77-1.16,4.09-.28.8-.52,1.61-.72,2.43l-.17.64c-.02.08-.05.15-.07.23h.54c.14-.6.28-1.21.43-1.82Z"/>
</svg>