<?xml version="1.0" encoding="UTF-8"?>
<svg id="Layer_1" data-name="Layer 1" xmlns="http://www.w3.org/2000/svg" viewBox="0 0 300 50">
  <defs>
    <style>
      .cls-1 {
        fill: #fff;
        stroke-width: 0px;
      }
    </style>
  </defs>
  <path class="cls-1" d="M278.42,17.19s-.05-.04-.07-.06c-.02-.03-.05-.04-.09-.05-.5-.08-1-.15-1.49-.22l-.32-.05v.03s-.01.03-.01.03c.57.15,1.15.27,1.73.37.04,0,.08,0,.12-.02h.04s0,0,0,0c.03,0,.06-.02.09-.03Z"/>
  <path class="cls-1" d="M274.76,16.57c.06.02.12.04.18.06.13.05.26.08.4.11.13.02.26.03.39.03.06,0,.11,0,.17,0v-.07c-.36-.12-.74-.2-1.12-.22v.08Z"/>
  <polygon class="cls-1" points="278.5 17.21 278.59 17.22 278.72 17.24 278.72 17.21 278.72 17.18 278.54 17.16 278.51 17.15 278.5 17.21"/>
  <path class="cls-1" d="M273.78,16.37c-.18-.02-.36-.05-.54-.1-.11-.03-.22-.04-.33-.05-.17-.01-.34-.05-.5-.12-.32-.16-.66-.25-1.01-.29-.22-.02-.44-.05-.66-.08-.14-.02-.28-.04-.42-.05-.02,0-.05,0-.07,0l-.07.02h0s0,.08,0,.08c.17.07.35.11.54.11h.14c.18,0,.35.03.52.07l.16.05c.57.2,1.16.35,1.76.46.24.04.49.06.73.08h0s.19.01.19.01h0s.03-.02.04-.04c.01-.01.02-.03.04-.04-.03-.01-.06-.02-.08-.03-.04-.02-.09-.04-.14-.05-.1-.02-.2-.03-.3-.05Z"/>
  <path class="cls-1" d="M268.62,15.38c.43.19.89.29,1.35.31-.32-.21-.7-.31-1.08-.29-.09,0-.18-.01-.27-.02h0Z"/>
  <path class="cls-1" d="M285.75,17.7c.14.16.37.2.55.1.08-.03.19-.07.35-.14-.21-.02-.43-.02-.64,0-.09.01-.18.02-.27.03Z"/>
  <path class="cls-1" d="M282.3,17.49c-.22,0-.44,0-.66-.02-.27-.02-.54-.05-.81-.08-.12-.01-.24-.03-.37-.04l-.19-.02c-.34-.04-.69-.08-1.04-.11-.04,0-.08,0-.12.01l-.06.02s.02.03.02.04c0,.01.01.03.02.03.05.01.1.02.15.03.57.02,1.13.1,1.67.25.17.06.35.09.54.07.25-.03.51-.03.76,0,.12,0,.24.02.35.02.12,0,.24,0,.36-.01h.16s0-.06,0-.06h0s-.06-.04-.09-.05c-.06-.03-.13-.05-.2-.06-.17,0-.34,0-.51,0Z"/>
  <path class="cls-1" d="M287.18,17.65c-.09-.01-.18-.01-.27,0h-.1s0,.04,0,.04v.02s.03,0,.03,0c.15.03.3.07.45.1-.01-.02-.02-.04-.03-.06-.02-.05-.05-.1-.08-.11Z"/>
  <path class="cls-1" d="M284.63,17.75v-.07s-1.22-.07-1.22-.07c.38.18.81.23,1.22.14Z"/>
  <path class="cls-1" d="M263.17,14.2c-.55-.14-1.11-.28-1.67-.42-.05,0-.09,0-.14.02l-.05.02h0s-.01,0-.01,0l-.02-.03s-.05-.05-.08-.06c-.06-.02-.13-.04-.19-.05-.1-.02-.2-.05-.29-.09-.29-.11-.59-.19-.9-.22-.08-.01-.16-.02-.24-.04h-.01s-.03.02-.04.03c-.01.01-.02.03-.04.04.03,0,.05.02.07.03.03.01.06.02.1.03.42.04.84.13,1.23.29.09.03.19.05.29.05.04,0,.08,0,.12.01h.01s.01,0,.01,0c.01,0,.03.02.04.03.03.03.07.05.1.06.11.03.24.05.35.08.15.03.3.06.45.1.34.09.71.19,1.2.34.03.01.06.01.09,0,.03-.01.05-.04.06-.1h-.02s-.02-.03-.04-.03l-.37-.09Z"/>
  <path class="cls-1" d="M256.73,12.9s-.08.05-.11.09c-.02.05-.02.1,0,.15.04.06.09.1.15.13.03.02.07.05.12.08.02-.05.04-.09.06-.13.03-.06.05-.12.06-.19,0-.04-.02-.08-.06-.11-.05-.04-.12-.05-.18-.03h-.03Z"/>
  <polygon class="cls-1" points="252.55 11.17 252.6 11.07 252.51 11.03 252.42 11 252.41 11.02 252.41 11.03 252.48 11.1 252.55 11.17"/>
  <path class="cls-1" d="M264.87,14.6c.02.13.12.22.25.23.08.02.17.03.25.05l.22.04.39.08c.24.05.49.1.74.15h.06c.09.04.19.04.28.02.05-.02.1-.05.14-.09-.32-.06-.63-.13-.95-.22-.45-.14-.91-.23-1.38-.26Z"/>
  <path class="cls-1" d="M251.21,10.58v.03c.2.2.47.32.75.34.06.01.12.02.18.04l.02-.05.02-.05h-.04s-.92-.35-.92-.35v.03Z"/>
  <path class="cls-1" d="M252.38,11.33s-.03.05-.04.07v.03s.05.03.05.03l.03.02v-.03s0-.06,0-.09c-.01,0-.03,0-.05,0h0Z"/>
  <path class="cls-1" d="M253.86,11.52c-.34-.21-.73-.34-1.13-.38.31.28.72.41,1.13.38Z"/>
  <path class="cls-1" d="M256.95,12.32c-.08.18-.1.28-.06.33.04.06.12.07.28.07.08-.3.08-.3-.22-.4Z"/>
  <path class="cls-1" d="M287.44,17.7c-.06.02-.11.06-.15.11,0,0,0,0,0,0l.45-.05c-.09-.06-.2-.08-.3-.06Z"/>
  <polygon class="cls-1" points="264.05 14.36 264.03 14.41 264.01 14.44 264.3 14.51 264.31 14.48 264.32 14.45 264.18 14.4 264.05 14.36"/>
  <path class="cls-1" d="M257.82,12.97l.1.05c0-.06-.01-.13-.06-.17-.05-.03-.1-.04-.16-.03l-.04.07.15.08Z"/>
  <polygon class="cls-1" points="250.12 12.19 250.11 12.23 250.22 12.27 250.33 12.3 250.34 12.25 250.36 12.22 250.21 12.2 250.12 12.19"/>
  <path class="cls-1" d="M287.85,17.76l.02.02s.02.03.04.04c.03-.02.06-.05.09-.08l.02-.02-.02-.03v-.02s-.15.08-.15.08Z"/>
  <polygon class="cls-1" points="253.29 13.42 253.31 13.38 253.33 13.34 253.25 13.3 252.96 13.16 252.96 13.17 252.93 13.24 253.29 13.42"/>
  <polygon class="cls-1" points="254.57 13.81 254.54 13.9 254.69 13.93 254.77 13.95 254.78 13.92 254.78 13.88 254.68 13.85 254.57 13.81 254.57 13.81"/>
  <path class="cls-1" d="M244.04,9.35v.02s.01.02.01.02c.03.02.06.04.09.05,0,0,.01-.02.02-.03h.02s-.08-.06-.08-.06l-.05-.03v.02Z"/>
  <polygon class="cls-1" points="250.75 10.4 250.81 10.43 250.93 10.49 250.97 10.41 250.79 10.32 250.76 10.37 250.75 10.4"/>
  <path class="cls-1" d="M245.89,10.23h-.01s-.06.02-.09.04l.15.06h.01s.24.1.24.1l-.02-.05c-.08-.11-.14-.19-.27-.14Z"/>
  <path class="cls-1" d="M271.42,17.84l.3.07.02-.08-.03-.02c-.12-.11-.29-.15-.45-.11h0c-.05.02-.1.04-.14.07l.3.07Z"/>
  <path class="cls-1" d="M269.62,17.4c.18.17.29.21.48.14h.04s-.01-.02-.01-.02h0s-.5-.13-.5-.13Z"/>
  <path class="cls-1" d="M262.17,15.89v.03s-.03.06-.03.06c.05.06.13.08.2.05.05-.02.1-.05.14-.08l-.1-.02-.22-.05h0Z"/>
  <path class="cls-1" d="M261.18,15.75s-.01.03-.01.06v.03c.05.03.12.04.18.02.05-.02.1-.05.13-.09h-.07c-.09-.02-.15-.02-.22-.02h0Z"/>
  <polygon class="cls-1" points="260.68 15.55 260.67 15.62 260.86 15.65 260.97 15.67 260.99 15.57 260.77 15.54 260.69 15.52 260.68 15.55"/>
  <path class="cls-1" d="M292.53,17.69c.16.06.34.05.49-.02l.15-.05c-.15-.05-.3-.05-.45-.01-.06.02-.13.05-.19.08Z"/>
  <polygon class="cls-1" points="293.34 17.56 293.33 17.61 293.33 17.65 293.75 17.67 293.76 17.62 293.76 17.59 293.37 17.57 293.34 17.56"/>
  <path class="cls-1" d="M292.22,17.61c-.06.02-.11.05-.15.09.11.06.23.07.35.04.03-.01.06-.03.09-.05h.01s0,0,0,0h0s0,0,0,0c-.13-.08-.2-.11-.29-.08Z"/>
  <path class="cls-1" d="M290.46,17.68c-.34.01-.69.02-1.03.03h-.45c.95.19,1.93.18,2.87-.03.05-.02.1-.04.15-.06l-.49.02c-.36.01-.7.03-1.05.05Z"/>
  <path class="cls-1" d="M242.47,8.59q.07.14.26.15l-.15-.09-.1-.06h0Z"/>
  <path class="cls-1" d="M294.43,17.47h-.01s-.04.02-.06.03c-.02.02-.05.04-.08.06.13.01.26.03.38.05.25.06.51.06.76,0,.15-.03.3-.05.46-.05.18,0,.36-.02.53-.07.03,0,.05-.02.08-.02-.7-.03-1.4-.02-2.06,0Z"/>
  <path class="cls-1" d="M229.75,1.1l-.06.02c.06,0,.12.04.16.09.05.05.1.1.2.07h.03c-.18-.2-.2-.22-.33-.18Z"/>
  <path class="cls-1" d="M233.62.26c.07.05.14.11.21.16.04.04.09.08.14.11.07.05.14.1.22.14.07.04.15.08.22.12.13.06.27.13.4.21h.02c.48.32.98.63,1.45.96l.15.11c.3.24.64.43.99.58.4.17.77.38,1.11.65.17.12.36.25.54.37.17.1.35.19.52.28.13.06.26.13.38.2.07.04.13.08.19.14.05.04.09.08.14.11.08.05.16.09.24.13l.09.05.87.46h.03s0,.02,0,.02l.16.08c.12.06.24.12.35.19.14.08.29.17.43.26l.2.12c.06.04.13.08.19.12.14.09.29.18.44.26.12.06.23.12.35.19.26.17.55.29.85.36.05.01.1.03.14.06.02.01.04.02.06.03l.52.24c.4.18.81.37,1.21.56.12.06.24.11.36.17.46.2.89.43,1.3.71.17.11.35.19.54.24.08.03.17.06.26.09,0,0,.02,0,.03,0,.01,0,.02,0,.03,0l.99.5.49.25.03.02s.05.03.08.03c.3.06.58.18.82.35l.13.08c.12.07.24.12.37.16l.1.04c.13.05.26.1.39.14l.24.08s.04.02.06.03c.03.02.06.04.08.03.02-.01.04-.02.07-.03.15-.03.3.01.41.11.16.09.33.15.51.18.1.02.2.05.3.08.08.03.17.07.25.12.08.04.16.08.24.11.31.12.62.23.93.34h0s.35.12.35.12c0,.05,0,.1,0,.14,0,.11.01.22.05.32.05.08.13.15.21.2.04.03.09.06.14.1-.12.03-.25,0-.35-.07-.06-.04-.13-.06-.2-.07-.12-.02-.24-.05-.36-.09-.05-.02-.11-.04-.16-.05-.18-.06-.37-.1-.56-.13.22.15.47.25.73.3.17.04.34.1.5.17l-.09.17v.02s-.12.19-.12.19l.32.13h0s.2-.34.2-.34l.12.02.25.04.13-.22-.11-.26-.14-.33c.09-.03.18-.04.23,0,.05.05.07.11.06.18,0,.13.12.16.2.17.07,0,.13,0,.2,0h.09c.1.17.16.23.24.2.08-.04.14-.1.19-.18l.58.14c.43.1.88.21,1.31.32.29.08.58.17.86.25.47.14.94.29,1.42.39.29.06.57.14.85.22.28.08.54.15.82.21.1.02.19.03.29.03.1,0,.2.01.29.03.07.01.15.03.22.03.25.03.5.09.73.19.37.16.76.27,1.15.31.2.03.4.07.6.12.17.04.34.05.51.05.08,0,.16,0,.25.01h.05c.07,0,.13.01.2.03l1.1.25c.45.1.93.21,1.39.32.12.03.24.04.36.06.06,0,.13.02.2.03.55.09,1.09.22,1.61.4.24.08.48.13.73.17.11.02.22.04.34.06.4.07.8.1,1.21.09.16,0,.31.03.46.07.06.02.13.03.19.04.03,0,.05.01.08.02.04.02.09.03.13.03.29,0,.57.05.85.13.12.03.25.06.38.09.53.1,1.05.18,1.55.24.38.05.77.09,1.14.14.34.04.69.08,1.03.12.16.03.32.07.48.12h.02c.21.06.42.07.64.04.17-.02.34-.01.51.01.23.03.46.04.69.03.21-.01.43,0,.64.02.37.06.74.09,1.11.07.05,0,.1,0,.14-.01.08-.01.16-.01.24-.01.15.01.31.03.46.04.1.01.2.02.3.03.03,0,.06,0,.09.01.07.02.15.02.23,0h.03s.08-.05.13-.06c.18-.05.38-.06.57-.03h.12c.25.02.5.02.75.02h.27s.09,0,.13,0c.06,0,.13,0,.19,0,.21.01.42.03.63.05.25.02.52.04.77.06.55.04,1.11,0,1.65-.09.23-.04.47-.05.7-.04.44.04.87.02,1.31-.06.06,0,.12,0,.18,0,.05,0,.09,0,.14,0,.09,0,.18-.02.26-.03.13-.02.26-.03.39-.04.11,0,.21,0,.32.01.12.01.25.02.38.01.45-.03.91-.08,1.35-.12h.01s.45-.05.45-.05l.24-.03c.12-.01.24-.03.36-.04.57-.04,1.18-.09,1.78-.13.07,0,.15,0,.22,0,.09,0,.18,0,.28,0,.11-.02.23-.04.34-.06v-.63c-.35.02-.71.08-1.06.13-.05.01-.11.02-.16.02-.31-.07-.64-.02-.92.14-.03.02-.06.02-.1.02-.74-.03-1.46.17-2.21.09-.4-.03-.81-.02-1.21.02-.15.02-.29.05-.43.1-.04.02-.08.03-.12.04-.31.01-.62.01-.93.02-.16,0-.32.02-.48.03-.04.01-.09.01-.13,0-.44-.09-.9-.07-1.33.05-.03,0-.06,0-.1,0l-1.31-.02s-.06,0-.1,0c-.33.06-.68.07-1.02.03-.4.04-.8.01-1.2-.08-.06-.03-.12-.04-.19-.03-.29.07-.6.08-.89.02-.02,0-.05,0-.06,0-.24.17-.52.09-.77.09-.42,0-.85-.03-1.27-.08-.08-.01-.17-.02-.26-.01-.24.03-.49.01-.73-.06-.21-.05-.42-.07-.63-.03-.25.05-.51.04-.76-.04-.15-.03-.3-.04-.45-.04-.41-.05-.81-.11-1.21-.17-.08-.02-.17-.03-.25-.04-.53.04-1.07-.03-1.57-.19-.21-.04-.42-.06-.64-.05-.09,0-.19,0-.28-.03-.23-.12-.49-.16-.75-.14-.09,0-.17,0-.26-.02-.38-.09-.75-.19-1.12-.26-.22-.04-.44-.02-.67-.03-.14-.02-.27-.04-.41-.07-.2-.06-.41-.1-.62-.11-.35,0-.7-.08-1.02-.23-.18-.07-.36-.13-.55-.16-.4-.05-.81-.07-1.21-.12-.16-.03-.31-.06-.47-.11-.4-.12-.8-.21-1.21-.29-.41-.03-.83-.1-1.22-.22-.26-.06-.53-.1-.79-.1-.09,0-.19-.03-.27-.07-.19-.11-.39-.17-.61-.19-.35-.04-.7-.07-1.04-.14-.34-.07-.7-.17-1.05-.26-.41-.11-.82-.23-1.24-.33-.26-.06-.53-.08-.78-.14-.56-.13-1.12-.31-1.68-.43-.41-.08-.81-.18-1.2-.31-.37-.11-.74-.19-1.12-.26-.08-.02-.15-.07-.24-.1-.12-.04-.24-.06-.36-.09-.09-.02-.18-.05-.27-.08-.12-.05-.23-.11-.35-.16-.19-.06-.3-.25-.25-.44.01-.05,0-.1,0-.15-.02-.06-.08-.1-.15-.09-.03,0-.06.03-.07.06-.07.1-.14.21-.21.31-.57.02-1.03-.29-1.59-.34.07-.18.12-.3-.02-.44-.11-.11.04-.17.2-.16-.06-.15-.1-.26-.17-.43l-.42.43.13.29c-.06,0-.11,0-.17-.01-.13-.03-.26-.07-.39-.11-.08-.03-.16-.06-.23-.1-.04-.02-.07-.06-.11-.07-.46-.07-.9-.21-1.32-.41-.6-.2-1.17-.46-1.75-.7-.14-.06-.27-.14-.39-.23-.2-.15-.43-.25-.67-.28-.29-.04-.55-.28-.82-.41-.18-.09-.37-.16-.55-.24-.09-.04-.17-.08-.25-.13-.16-.11-.32-.2-.5-.27-.45-.17-.88-.38-1.29-.62-.11-.05-.23-.08-.33-.13-.3-.12-.59-.27-.86-.45-.26-.18-.55-.33-.84-.46-.35-.21-.71-.4-1.08-.56-.37-.14-.7-.35-1.05-.53-.14-.07-.25-.19-.39-.27-.38-.22-.77-.42-1.15-.63-.21-.11-.41-.22-.61-.34s-.41-.26-.61-.39c-.03-.02-.06-.02-.09-.04-.38-.38-.91-.47-1.36-.72-.22-.12-.45-.25-.66-.39-.08-.07-.16-.15-.21-.24-.05-.1-.16-.15-.26-.12-.12,0-.23-.04-.31-.11-.23-.21-.48-.38-.76-.52-.28-.16-.56-.34-.82-.53-.19-.12-.38-.24-.57-.35h-.52c.13.09.27.17.4.26Z"/>
  <polygon class="cls-1" points="297.42 17.42 297.53 17.42 297.53 17.39 297.53 17.35 297.46 17.35 297.34 17.35 297.33 17.36 297.33 17.39 297.33 17.39 297.33 17.42 297.42 17.42"/>
  <path class="cls-1" d="M299.91,17.08c-.5.04-1.01.08-1.51.12h-.02s-.05.03-.07.05c-.01.01-.03.02-.04.03,0,.02.01.04.02.06h.08c.06,0,.11,0,.17,0,.06,0,.14-.02.21-.03.14-.03.28-.04.42-.03.28.03.56,0,.83-.05v-.15h-.07s-.03,0-.03,0Z"/>
  <path class="cls-1" d="M268.68,17.28c.1.13.23.1.34.07l.08-.03-.12-.04-.27-.08v.03s-.03.05-.03.05Z"/>
  <path class="cls-1" d="M228.86,1.85s-.06.1-.1.25l.28-.07.1-.03c-.15-.11-.23-.17-.28-.15Z"/>
  <path class="cls-1" d="M233.29,6.01h0s.09-.04.11-.09c.01-.03.01-.07,0-.1-.05-.08-.14-.13-.23-.11h0s-.02,0-.03.01c-.04.04-.06.08-.08.13,0,.02-.01.03-.02.04.03.1.13.15.23.13,0,0,.02,0,.02,0Z"/>
  <path class="cls-1" d="M236.77,7.95s0,0,0,0h.01s.15-.58.15-.58h0s-.04.03-.06.03c-.03.01-.06.03-.09.05-.02.03-.04.07-.05.1-.02.04-.04.08-.07.12-.02.02-.03.03-.05.04-.05.04-.1.07-.06.15.04.08.14.12.22.08Z"/>
  <path class="cls-1" d="M239.22,8.07c-.02.09,0,.18.05.26.03.04.14.04.21.02h.02c.12-.06.1-.16.07-.27,0-.02-.01-.04-.01-.06-.08-.03-.16-.04-.24-.03h0s-.07.04-.09.07Z"/>
  <path class="cls-1" d="M279.88,19.08s-.09.04-.13.07l-.03.02.35.02c-.05-.11-.11-.14-.19-.12h0Z"/>
  <path class="cls-1" d="M295.19,19.33s.02.02.04.03l.03.02.07-.1.02-.02-.09-.04-.02.03s-.03.06-.05.09Z"/>
  <path class="cls-1" d="M249.06,9.7c.13.14.32.18.49.12l.05-.02s-.09-.05-.13-.08c-.1-.06-.19-.12-.31-.08h0s-.07.03-.11.05Z"/>
  <path class="cls-1" d="M240.67,9.91c.02-.05.03-.11.03-.16v-.06s-.04.02-.04.02h0c-.07.03-.11.05-.12.09,0,.03,0,.07.02.1.01.02.1.02.11.02Z"/>
  <polygon class="cls-1" points="297.41 19.06 297.57 19.19 297.7 19.12 297.7 19.09 297.69 19.08 297.41 19.06"/>
  <path class="cls-1" d="M295.62,19.27s-.05.03-.08.04c-.01,0-.02.01-.03.01h0,.02s0,0,0,0c.08.02.16.01.23,0,.03-.01.06-.03.09-.05-.04-.04-.1-.06-.16-.04-.03.01-.06.03-.08.04Z"/>
  <path class="cls-1" d="M299.95,21.26h-.04c-.13.06-.28.02-.37-.1-.04-.06-.11-.08-.17-.05-.03.01-.06.02-.09.04h-.03c-.1.06-.21.11-.32.15-.06.02-.12.03-.18.04-.16.02-.33.05-.49.08-.32.07-.64.1-.96.09-.15,0-.3.01-.45.04-.07.01-.15.02-.22.03l-.12.02c-.1.02-.2.02-.3.02-.41-.03-.82-.03-1.24,0-.22.02-.46.03-.68.03-.08,0-.15.01-.22.03-.05.01-.1.02-.15.03h0c-.16.02-.32.03-.47.04-.16,0-.35,0-.51,0-.35-.02-.7,0-1.05.03-.32.04-.64.05-.96.05-.16,0-.32,0-.48.01-.02,0-.03,0-.05,0-.03,0-.05,0-.08,0-.26-.05-.53-.05-.79,0-.03,0-.06,0-.1,0-.3-.03-.61-.03-.91,0-.2.02-.41.03-.61.03h-.02s-.07,0-.11-.01c-.42-.09-.84-.12-1.26-.1-.21,0-.42,0-.62,0-.06,0-.13,0-.19.03-.05.01-.1.02-.16.03h-.14c-.23.02-.46.02-.69,0-.18-.02-.36-.02-.53-.02-.35.02-.69-.02-1.03-.11-.18.04-.37.05-.55,0-.07,0-.14-.02-.21-.02-.23-.02-.47-.03-.69-.04-.29-.01-.58-.03-.87-.06-.2-.02-.39-.05-.58-.1-.09-.02-.18-.04-.27-.05-.04,0-.08-.02-.13-.03-.09-.03-.19-.04-.28-.04-.74.04-1.48-.04-2.19-.21-.05-.01-.11-.02-.16-.02-.04,0-.08,0-.12,0-.12-.02-.25-.04-.37-.07l-.2-.04c-.06-.01-.12-.02-.18-.03-.12-.02-.24-.04-.36-.07-.22-.05-.44-.08-.67-.1-.32,0-.64-.06-.94-.16-.03-.01-.06-.02-.09-.02-.33.02-.65-.02-.97-.11-.29-.07-.58-.11-.88-.11-.06,0-.11-.01-.16-.03-.03,0-.06-.02-.09-.02l-.22-.05c-.13-.03-.27-.06-.41-.09-.11-.03-.21-.06-.32-.09-.1-.03-.19-.06-.29-.09-.05-.01-.1-.03-.14-.04-.14-.05-.29-.08-.45-.08-.26,0-.51-.04-.76-.12-.12-.03-.24-.06-.36-.07l-.14-.02-.2-.03c-.12-.02-.24-.04-.36-.06-.09-.02-.18-.05-.26-.07-.08-.02-.17-.05-.26-.06-.27-.05-.53-.1-.76-.14-.1-.02-.2-.03-.29-.04-.15-.02-.31-.04-.47-.08-.23-.05-.45-.1-.67-.16-.15-.04-.3-.08-.45-.11l-.23-.05c-.39-.09-.78-.18-1.18-.26-.15-.03-.3-.05-.45-.06-.15-.01-.33-.04-.5-.07-.69-.15-1.39-.31-2.06-.47l-.19-.04c-.06-.02-.11-.04-.17-.06-.05-.03-.11-.05-.17-.06-.2-.06-.4-.11-.6-.15-.34-.07-.69-.15-1.03-.25-.16-.04-.32-.08-.48-.12-.32-.06-.64-.15-.94-.28-.15-.06-.32-.1-.48-.11-.09-.01-.19-.03-.27-.05-.08-.02-.17-.05-.25-.08-.05-.02-.1-.03-.14-.05-.12-.04-.24-.07-.34-.1-.01,0-.03,0-.05,0-.02,0-.03,0-.05,0-.38-.13-.74-.25-1.11-.38-.08-.03-.17-.06-.25-.09s-.13-.05-.2-.08c-.17-.06-.31-.11-.45-.15h-.03c-.13-.05-.27-.09-.41-.11-.24-.02-.46-.11-.66-.25l-.04-.03c-.08-.06-.15-.13-.27-.09-.05,0-.11-.02-.14-.06-.11-.14-.22-.29-.33-.45l-.11-.15h-.04s-.23-.02-.23-.02l-.04.09-.07.18c-.19.05-.26-.06-.33-.18-.03-.06-.08-.12-.14-.17l-.08.11-.09.11-.27-.09c-.25-.08-.5-.17-.75-.26-.07-.04-.13-.09-.18-.16l-.02-.04s-.04-.07-.04-.12c0-.04.03-.08.07-.11l.05-.03c.1-.07.2-.13.19-.27-.02-.13-.1-.25-.21-.32-.02-.02-.04-.03-.07-.05s-.03-.02-.06-.04l-.05-.04v.04s-.02.01-.02.01l-.05.19s0,0,0,0h.02s0,.02,0,.02c0,0,0-.01-.02-.02h0s-.07.27-.07.27c-.23-.12-.26-.16-.21-.31h-.05s.05-.03.07-.04c0-.02.02-.04.03-.07l.03-.06c.05-.16.16-.28.31-.35.01,0,.02-.03.02-.07v-.03s.17-.08.17-.08l.26-.13.14.04c.15.04.32.08.48.13h.01s.1.03.14.06c.16.16.4.22.62.16.05-.02.12.02.18.05.06.03.13.07.19.11.11.07.22.13.34.17.19.07.4.12.59.16.08.02.17.04.25.06h.05s.07.03.1.04c.1.04.19.09.29.13.2.1.4.19.62.25.08.02.17.04.25.05.25.02.49.12.67.3.22.02.43.07.63.17.08.03.16.07.25.1.09.03.18.04.28.03.05,0,.11,0,.16,0h.04c.07,0,.14.02.2.06.17.14.39.24.61.26.07.02.14.03.21.05.15.04.3.07.45.08.12.02.24.03.36.06.14.04.28.08.42.13.08.03.16.06.25.08h.05c.1.05.21.07.32.09.36.04.71.15,1.03.32v.02s.03,0,.03,0c.04.02.09.04.13.05.09.02.18.05.27.06.22.06.44.1.66.12.15.01.3.05.44.11.09.04.19.07.29.09.12.03.23.06.35.1.24.11.51.14.77.09.04-.01.09-.01.12,0,.16.12.32.24.53.17h.04c.19.09.39.15.6.17.09.01.18.03.27.05l.16.04c.14.04.28.07.43.09h.05c.19,0,.37.06.52.17.06.03.12.04.19.04h.03c.63.03,1.26.11,1.87.24v.03s.04.13.04.13v.06s.05,0,.05,0c.01,0,.03,0,.04,0h0c.4-.1.83-.06,1.21.11l.17.05s.03.01.05.02c.02.01.05.02.07.02.31,0,.63.02.93.09.16.03.32.06.48.08.15.02.31.07.45.12.12.05.25.08.38.11.15.03.31.06.46.09.6.14,1.2.22,1.82.24h.01s.1,0,.14.01c.27.1.56.16.85.17.22.01.44.04.65.1l.05.02h0c.1.03.2.06.31.08.19.04.38.07.56.1l.22.04h.05c.08.02.17.04.26.05l.25.04.16.02h.01c.09.01.18.03.27.04.02,0,.05.01.07.02.03.02.07.02.1.02h0s.04-.02.06-.03c.1-.02.21,0,.3.05.12.07.27.09.41.04h.03s.04-.02.04-.02c.02,0,.05-.01.08-.01l.11.02c.24.03.49.06.73.11.16.03.33.07.49.1.18.04.36.08.54.11.13.02.26.01.38,0,.24-.02.47,0,.7.05.16.03.33.05.49.06.02,0,.04,0,.06,0,.04,0,.08,0,.12,0h0s.06-.02.06-.02c.27-.07.56-.06.82.03.07.02.14.03.22.04.04,0,.07,0,.11,0,.03,0,.05,0,.08,0,.08,0,.16,0,.24-.01.14-.03.29-.02.42.04.03.01.07.02.11,0h.02s.07-.04.11-.05c.24-.06.5-.03.73.06l.1.03c.13.04.27.04.4,0,.13-.05.27-.07.41-.07.23.02.47,0,.7-.04.17-.01.33,0,.49.05l.09.02c.24.04.48.03.72-.02.24-.03.49-.04.73-.02h.1s.09,0,.13,0c.14-.02.28,0,.4.08.02.01.05,0,.08,0,.01,0,.03,0,.04,0l.51-.03h.12c.06,0,.11-.01.17-.01h.13c.13-.02.27-.03.41-.05.38-.04.77-.06,1.16-.04.2,0,.41,0,.61,0,.01,0,.02,0,.03,0,.02,0,.04,0,.05,0h0s.08-.05.13-.07c.13-.04.27-.01.37.07l.24-.03c.18-.03.33-.05.49-.06.13,0,.26-.01.4-.01h.08c.06,0,.13,0,.19.01.12.02.25.01.37-.01h.04c.17-.06.35-.06.53-.03.06,0,.12.02.18.02.02,0,.04,0,.06,0,.02,0,.03-.01.05-.02h.04s.05-.03.07-.05c.02-.01.05-.02.08-.03.02,0,.04,0,.06,0,.19.05.39.04.58-.02.11-.03.22-.05.34-.05.21-.01.41-.04.61-.08.13-.02.26-.05.4-.06.21-.02.42-.03.63-.03h0s.09,0,.09,0c.12,0,.24,0,.35,0,.18.02.36,0,.54-.03v-.45l-.32.03c-.04-.11-.1-.15-.17-.13-.03.01-.06.03-.09.05-.03.02-.06.03-.09.05h-.02c-.2.08-.42.07-.62-.03-.08.07-.17.13-.26.16-.16.04-.34,0-.45-.13-.07.11-.12.17-.18.19-.07.01-.15,0-.21-.04l-.3.18h-.02s-.06-.04-.09-.06c-.06-.07-.16-.1-.26-.07-.04.02-.08.04-.11.07-.04.03-.08.06-.12.08-.07.02-.15.02-.22.01-.09,0-.18,0-.27,0-.09.01-.17.01-.26.01-.1,0-.2-.03-.29-.06-.04-.01-.09-.02-.13-.03-.02.02-.04.04-.07.06-.03.04-.07.07-.12.09,0,0-.02,0-.03,0-.12.01-.25-.02-.35-.09-.14-.14-.35-.18-.53-.13h-.08s-.02.05-.02.05l-.02.05h.09s.16,0,.16,0c-.03.03-.07.05-.11.07-.08.02-.17,0-.24-.04h0c-.07-.04-.15-.05-.22-.03h-.03c.03.06.05.12.09.19-.21.05-.43.04-.63-.05-.17-.08-.35-.09-.53-.04-.04.01-.08.03-.11.05-.05.03-.1.05-.16.07-.17.05-.36.05-.53,0l.06-.03.08-.04c-.08-.08-.19-.11-.3-.09-.04.01-.07.03-.1.06-.04.05-.1.08-.16.1-.09.03-.19.02-.28-.02-.13-.04-.27-.04-.39.01l-.17.05c-.06.02-.11.03-.17.04-.17.01-.34.02-.52.03h-.24s-.15-.07-.15-.07c-.13-.08-.29-.17-.45-.24-.04-.02-.1-.03-.14-.01-.1.04-.17.13-.19.23-.34-.07-.69-.06-1.02.04l-.05.02c-.1.02-.2.02-.3,0-.05,0-.1-.01-.15-.01h-.46s-.03-.01-.03-.01h-.19s0-.05,0-.05v-.09s-.04,0-.07-.01c-.07-.02-.14-.02-.2,0-.04.01-.08.04-.12.06-.05.04-.11.07-.17.09-.18.06-.37.06-.56,0l-.05-.02c-.07-.03-.16-.04-.24-.02-.02,0-.03.01-.05.02h-.01c-.07,0-.14,0-.2-.05-.1-.05-.21-.06-.31-.03-.03,0-.06.02-.09.04-.02.01-.04.02-.06.03,0,0-.02,0-.03,0-.14-.04-.29-.05-.44-.03-.17.02-.33,0-.49-.05-.05-.02-.1-.05-.14-.09-.06-.05-.13-.09-.21-.1-.03,0-.06,0-.09.01-.05.02-.09.04-.13.06-.04.02-.09.05-.14.06-.04,0-.08.01-.12,0-.02,0-.04,0-.07,0h-.07c-.16,0-.33.01-.5.02-.03,0-.06,0-.09.01-.04.01-.09.02-.13.01-.21-.04-.43-.08-.64-.12h0s-.22-.04-.22-.04h-.01s-.01,0-.02,0c-.17.03-.35.02-.51-.02-.14-.03-.28-.04-.42-.03-.17.04-.34,0-.49-.09-.07-.05-.16-.07-.24-.07-.09,0-.15-.01-.18-.12,0-.04-.02-.07-.05-.09-.02,0-.04-.01-.06,0-.04.02-.08.04-.11.06h-.01s.04.1.04.1c.01.03.03.07.04.1h-.02s-.02.01-.02.01c0,0-.01,0-.02,0-.06-.02-.11-.04-.16-.07-.08-.04-.17-.07-.25-.1-.02,0-.04-.02-.06-.03-.05-.03-.11-.05-.16-.04-.03.01-.06.04-.08.07,0,0-.01,0-.02,0-.02,0-.05,0-.07,0-.11-.07-.25-.1-.38-.07-.06,0-.11,0-.17,0h-.07c-.07,0-.15-.01-.22-.03-.06-.01-.11-.03-.16-.05-.18-.08-.39-.1-.58-.07-.08,0-.16-.02-.22-.06-.03-.02-.07-.03-.11-.05h0s-.02-.02-.02-.04c-.01-.04-.03-.08-.06-.09-.22-.08-.46-.09-.68-.03,0,.05.01.08.02.12-.12.01-.2-.07-.27-.15-.08-.08-.18-.19-.35-.15l.02.14v.07s-.39-.13-.39-.13l-.36-.12h.02s.27-.04.27-.04v-.02s0-.04,0-.04l-.3-.05h0s-.01.11-.01.11c-.46.05-.93,0-1.36-.16-.08-.02-.17-.03-.26,0-.05,0-.1.01-.15.01h-.07c-.07.02-.15,0-.22-.02-.33-.17-.69-.26-1.06-.29l-.17-.02s-.06-.01-.09-.02l-.06-.02.02-.07.03-.11s-.08,0-.12,0c-.06,0-.12,0-.18.02-.02,0-.03,0-.04.01-.03.02-.06.03-.1.04-.16.04-.33.02-.48-.05-.14-.05-.28-.09-.43-.12-.33-.07-.6-.12-.85-.16-.13-.02-.26-.03-.4-.04l-.19-.02c.02-.19-.1-.23-.27-.26-.16-.05-.34-.05-.5,0-.04.01-.08.03-.12.06-.19-.17-.46-.23-.71-.17-.24.03-.48-.02-.7-.12l.29-.1v-.05s-.04-.01-.04-.01c-.03-.01-.06-.02-.09-.03-.15-.01-.3-.03-.44-.03h0s-.04.04-.06.06c-.02.02-.04.05-.06.08l-.39-.03v-.02s.14-.17.14-.17l-.41-.11-.1-.03v.02s-.03.04-.03.04l.08.06.09.06c-.08,0-.16-.01-.24-.01-.16.01-.31-.01-.46-.08-.09-.04-.18-.06-.27-.07-.05,0-.11-.02-.18-.03l-.06-.08-.09-.12c-.07.05-.14.08-.22.11-.15.05-.32.02-.44-.09-.08-.05-.18-.07-.28-.07-.05,0-.1,0-.15-.02-.15,0-.29-.08-.37-.21-.03-.08-.12-.12-.2-.09-.02,0-.05.02-.07.04-.04.03-.08.06-.13.07-.1.03-.2,0-.3-.1-.07-.02-.13-.04-.2-.07-.18-.09-.39-.11-.59-.08-.06.02-.16-.04-.21-.07-.02-.01-.02-.05-.03-.09,0-.02,0-.04,0-.06-.49-.02-.97-.14-1.41-.34-.09-.04-.18-.06-.27-.07-.04,0-.09-.01-.13-.03l.03-.04s.04-.06.04-.06c-.07-.08-.12-.1-.2-.07-.07.03-.14.07-.2.12l.09.08c-.14.03-.28-.02-.37-.13-.07-.06-.15-.11-.24-.13-.06-.02-.12-.03-.18-.06-.14-.08-.29-.1-.45-.08-.07,0-.14-.02-.2-.05-.03-.02-.07-.03-.1-.05l.06-.14h0c-.12-.09-.27-.1-.39-.04-.03,0-.06.02-.08.03-.1.03-.2.03-.3,0-.1-.04-.2-.07-.3-.1l-.12-.03h0s0-.02,0-.02h0s0,0,0,0v-.06s-.03-.07-.03-.07c-.29.07-.6.01-.85-.15-.09-.07-.21-.09-.32-.07-.06.01-.17.01-.18-.02-.09-.15-.25-.25-.43-.26-.09-.01-.17-.04-.25-.08-.2-.1-.4-.18-.62-.25-.05-.01-.1-.02-.15-.03-.09,0-.17-.03-.26-.07l.12-.05.09-.04c-.05-.11-.13-.11-.21-.1-.04,0-.08,0-.12-.01-.08-.03-.16-.06-.26-.1l-.15-.06.09.14.07.12h-.1c-.05-.02-.11-.03-.16-.04-.05-.02-.09-.04-.13-.06-.09-.06-.21-.09-.32-.07-.04.01-.14-.11-.17-.19-.09-.21-.09-.22-.31-.19-.41.06-.68-.05-.83-.34-.05,0-.11-.01-.16,0-.12,0-.23.01-.29-.15,0,0-.01,0-.03.01-.04.02-.09.02-.14.02-.07-.02-.14-.06-.2-.1-.03-.02-.06-.03-.09-.05l-.03-.15v-.03s-.05-.19-.05-.19l-.13.19-.08.12-.22-.12-.19-.11s0-.07,0-.11c.01-.05,0-.11-.01-.16-.04-.07-.12-.14-.21-.11-.02,0-.04.02-.06.03-.02.02-.05.03-.07.04-.01,0-.02,0-.03,0-.1-.04-.2-.08-.3-.1-.15-.03-.29-.09-.42-.18-.03-.02-.06-.03-.1-.03h-.04c-.13-.04-.25-.13-.32-.24-.03-.05-.09-.12-.13-.11-.07,0-.13-.01-.19-.04-.07-.04-.15-.05-.23-.03-.02,0-.03.01-.05.02-.04.01-.12-.05-.18-.1l-.03-.02s-.07-.05-.1-.07c-.15-.16-.36-.23-.58-.21-.16.03-.28-.11-.36-.22,0,0-.01,0-.02,0,0,0,0,0-.01,0h0s-.03-.01-.04-.02c-.05-.02-.09-.04-.13-.08-.13-.17-.34-.26-.55-.24-.05,0-.13-.01-.15-.04-.09-.15-.23-.26-.4-.29-.06-.02-.13-.05-.19-.07l.04-.02s.06-.03.06-.05c0-.12-.07-.15-.15-.19-.02,0-.04-.02-.07-.03-.06-.04-.13-.06-.18-.05-.03,0-.05.03-.07.05-.01.02,0,.05,0,.07,0,.01,0,.03,0,.04-.47-.05-.88-.34-1.07-.77l-.05.03h0s-.02.19-.02.19l-.4-.2-.08-.04.28-.03v-.03s.02-.03.02-.03l-.26-.14c-.12-.07-.25-.14-.38-.2.01,0,.03.01.04.02-.17,0-.33-.09-.44-.23,0,0,0,0-.01,0h0s0,0,0,0c.03.01.06.03.1.04-.02-.01-.04-.02-.06-.03h-.01s-.08-.05-.12-.04c-.02,0-.04.03-.05.05l-.38-.04h-.05s0-.06,0-.09c0-.06,0-.11-.03-.13h0c-.11-.08-.25-.17-.36-.15-.09.02-.18,0-.25-.05-.08-.04-.16-.08-.25-.12-.09-.04-.18-.08-.27-.12-.28-.16-.54-.34-.79-.55l.29.03c-.13-.14-.31-.23-.5-.23-.05,0-.09-.01-.13-.02-.02,0-.03,0-.05,0-.04,0-.07-.01-.11-.03-.13-.08-.26-.17-.39-.25l-.15-.1-.05-.28v-.07s-.18.17-.18.17l-.06.06c-.3-.26-.66-.45-1.05-.55-.1-.02-.19-.09-.25-.18-.06-.11-.16-.2-.28-.23-.03-.01-.06-.03-.09-.04h0c-.16-.06-.29-.18-.35-.33h.02s.03-.02.03-.02c0-.09-.05-.18-.12-.24-.02-.02-.05-.03-.07-.04-.06,0-.12.01-.17-.02,0,0,0,.04,0,.07,0,.02,0,.03,0,.05-.13.01-.25-.03-.34-.13-.06-.05-.13-.09-.21-.12.03-.06.03-.14,0-.2-.03-.04-.08-.06-.14-.05l-.04.1-.05.11-.3-.25h.05s.12-.03.12-.03l-.21-.14-.05-.04-.04.04s.02.06.03.09v.04s0,0,0,0h-.02s-.01.01-.01.01c-.1-.1-.23-.17-.36-.22-.12-.04-.23-.11-.33-.18l.2-.07s0-.02,0-.03c0,0,0-.03-.01-.04-.04-.02-.09-.04-.13-.06-.08-.05-.17-.11-.27-.07-.04.01-.07.03-.1.06l-.09-.12-.09-.1c-.18.03-.32-.07-.43-.31-.06-.12-.14-.31-.39-.23-.06.02-.14-.03-.22-.08-.04-.02-.08-.05-.13-.06l.08-.06.07-.05c-.12-.19-.33-.31-.56-.31-.2-.03-.39-.1-.56-.21-.16-.1-.31-.21-.45-.32-.07-.05-.13-.1-.2-.16h-.04s-.17.05-.17.05l.03-.05.03-.05s.03-.05.02-.08c0-.03-.04-.05-.07-.07-.01,0-.02-.01-.03-.02l-.13-.09c-.11-.08-.22-.15-.34-.23-.07-.04-.14-.08-.21-.12l-.1-.06v-.07s.01-.11.01-.11h-.07s-.18.03-.18.03l.05-.07v-.02s-1.35,0-1.35,0c.09.06.18.12.27.18.25.14.48.3.7.48.27.23.55.44.85.63.14.1.29.2.44.31.07.05.14.11.2.17.04.04.09.08.13.11.2.15.41.27.64.37.11.05.22.11.33.17.05.03.1.07.15.12.02.02.05.04.07.06.03.02.04.03.05.05.03.04.08.07.12.08.18.04.35.13.49.25.03.02.06.05.09.08.19.15.39.29.58.42l.11.08.02.02s.06.05.09.05c.16.01.3.1.39.23.02.03.05.05.07.08.09.11.2.19.33.23.31.09.61.23.87.42.11.07.22.14.33.2.22.12.43.26.63.4.16.11.33.22.5.32.17.1.38.2.57.29l.2.1c.25.13.48.28.7.46.1.07.22.13.34.17.06.02.12.05.17.08.08.04.16.08.24.13.01,0,.02.02.03.03,0,.01.02.03.04.03.26.11.51.26.71.46.14.1.29.18.45.24.1.04.2.08.29.13.14.08.28.17.42.26.09.06.19.12.28.18h0c.09.07.2.12.3.15.2.02.37.15.43.34.22-.03.43.05.59.2.03.03.07.06.11.07.27.07.52.19.74.35.08.05.16.1.24.15.24.13.49.23.74.32.29.09.57.22.84.38.11.07.23.14.34.19.11.06.22.12.33.18.12.06.25.1.38.1.06,0,.13.02.19.03h.04c.05.02.12.03.13.06.05.11.14.2.26.24.08.03.15.08.2.14.01.02.03.03.06.03.21-.01.42.06.57.21.08.07.17.12.27.17l.09.04c.21.07.41.19.55.37.04.05.1.08.17.08.37-.03.74.11.98.4l-.14.11-.08.07c.12.15.27.27.44.34l.1.05s.04,0,.06,0c.05-.02.09-.04.13-.07.03-.03.06-.06.09-.1.02-.03.04-.06.07-.09.01.04.03.08.04.12.02.05.03.1.03.16-.04.25.05.38.26.42-.04.09-.11.16-.2.21-.1.02-.21,0-.29-.06-.04-.03-.1-.05-.15-.04-.05.02-.08.06-.11.11l.07.07.11.12h-.01s-.01.03-.01.03l-.43-.24c0,.06,0,.1.01.15,0,.08.01.14.02.21.02.12-.02.2-.1.23-.06.02-.12,0-.17-.02l-.19-.09c-.19-.09-.39-.19-.58-.29-.06-.03-.13-.07-.18-.11-.04-.02-.08-.05-.12-.07-.02-.01-.03-.02-.05-.03-.04-.03-.09-.06-.15-.07-.28.02-.56-.11-.72-.35-.03-.04-.11-.04-.15-.05-.22-.01-.42-.09-.59-.22-.16-.11-.34-.19-.52-.25l-.06-.02c-.28-.11-.56-.24-.83-.39-.13-.07-.27-.14-.41-.2-.12-.06-.24-.11-.36-.15-.07-.03-.14-.06-.21-.09-.04-.02-.08-.03-.12-.05-.1-.03-.2-.08-.28-.14-.21-.18-.46-.31-.72-.4-.31-.13-.62-.27-.91-.44l-.04-.02c-.19-.1-.38-.22-.56-.34l-.2-.13-.04-.02c-.05-.03-.1-.07-.14-.11-.13-.16-.34-.23-.54-.2-.18,0-.34-.08-.47-.21-.07-.06-.14-.11-.21-.15.12-.15.18-.28.05-.42-.04,0-.08,0-.12,0-.1.03-.16.14-.22.26l-.02.03-.04-.03h-.01s-.45-.33-.45-.33c-.03-.03-.07-.05-.11-.07-.08-.04-.17-.09-.24-.14-.18-.11-.37-.21-.57-.29-.3-.13-.59-.29-.85-.48-.22-.16-.46-.3-.71-.42-.37-.17-.76-.36-1.14-.57-.18-.11-.35-.24-.51-.38-.03-.03-.07-.06-.1-.09-.15-.17-.35-.28-.57-.32-.27-.04-.51-.17-.69-.37-.07-.06-.15-.11-.24-.16-.03-.02-.07-.04-.11-.06l-.26-.15c-.18-.11-.36-.22-.54-.33-.34-.22-.73-.47-1.13-.74-.12-.09-.25-.18-.36-.27s-.21-.16-.32-.24c-.1-.07-.2-.12-.32-.16-.47-.18-.89-.47-1.22-.85-.04-.04-.08-.07-.13-.1-.13-.09-.28-.17-.41-.25-.31-.18-.62-.38-.9-.6-.15-.12-.31-.23-.48-.32-.29-.15-.55-.36-.76-.62-.03-.03-.06-.05-.09-.06-.01,0-.03-.01-.04-.02l-.1-.06-.95-.56h-.02s-.03-.02-.03-.03c-.06-.08-.13-.16-.2-.22H0v50h300v-28.75l-.05.02ZM276.4,18.99h.03s0,.01,0,.01c0,0-.02,0-.03-.01l-.36-.02c.1-.13.23-.05.36.02ZM242.92,9.09c.15,0,.3,0,.38.17-.2.12-.25-.11-.38-.17ZM249.63,12.94l-.26.27-.07-.1c.03-.15.04-.34.32-.17Z"/>
  <path class="cls-1" d="M256.01,16c-.12.06-.11.16-.09.27,0,.04.03.07.07.09.06.04.14.04.21.02h.01c.09-.06.13-.17.09-.27-.05-.1-.16-.15-.27-.12h-.02Z"/>
  <path class="cls-1" d="M272.92,19.73c-.14-.08-.18-.1-.24-.08-.03.01-.05.02-.08.03l.32.04Z"/>
  <path class="cls-1" d="M271.07,19.24l-.07-.02v.03s-.02.01-.02.01l.02.02s.03.02.05.03c.01,0,.02,0,.03,0h.03s.03-.02.03-.02v-.04s-.07-.01-.07-.01h0Z"/>
  <polygon class="cls-1" points="241.2 9.91 241.18 9.94 241.26 9.97 241.4 10.04 241.43 10 241.43 9.98 241.32 9.93 241.21 9.88 241.2 9.91"/>
  <path class="cls-1" d="M251.65,13.68h0s-.02.01-.03.02l-.03.02-.02.07-.06.23-.21.04h0s-.22.04-.22.04c.02.05.04.09.06.14.04.09.08.19.13.27.09.16.28.24.46.18.03-.01.07-.03.1-.05.06-.05.1-.12.13-.19.02-.04.04-.08.07-.12h0s.07.04.07.04c.05.03.11.06.16.09.05.04.12.06.19.04.03,0,.06-.03.08-.05.08-.07.1-.2.03-.29-.18-.32-.52-.51-.89-.5ZM251.77,14.53l-.23-.07.06-.12c.07.02.14.05.2.08,0,0-.02.07-.02.11Z"/>
  <path class="cls-1" d="M300,18.18v-.19c-.06,0-.12.02-.17.02-.24.02-.49.04-.79.06-.06,0-.13,0-.19,0-.06,0-.1,0-.16,0-.06,0-.08,0-.12,0-.09,0-.18,0-.27.03-.06.02-.11.05-.16.09-.01,0-.02.02-.04.02-.04.01-.09.01-.13.01-.03,0-.05,0-.08,0h-.11c-.24.03-.48.05-.72.06-.27.02-.52.03-.76.04-.08,0-.16,0-.24,0-.17-.02-.35-.01-.51.03l-.05.02c-.11.02-.22.02-.33,0-.04,0-.09-.01-.13-.01-.07,0-.13-.01-.2-.02-.17-.03-.35-.03-.52.01-.06.02-.13.05-.18.09-.01,0-.03.02-.04.02-.07.01-.15.02-.22,0-.05,0-.1,0-.15,0h-.17s-.01.01-.01.01c-.31.01-.64.03-.96.05-.17.02-.33,0-.5-.03-.2-.04-.4-.03-.6.02-.38.07-.76.1-1.14.1-.15,0-.3,0-.45.02-.08,0-.16-.01-.23-.04h-.05s-.06-.03-.06-.03c-.06-.03-.13-.03-.2-.02-.05.02-.08.05-.11.09,0,0-.01.01-.02.01-.04,0-.08,0-.12,0h-.04s-.89-.03-.89-.03l-.62-.02s-.05,0-.07,0c-.04,0-.07.01-.08,0-.11-.14-.24-.12-.37-.1-.04,0-.07.01-.11.01-.8.06-1.61.07-2.42.04h-.28c-.31-.04-.62-.05-.93-.04-.04,0-.08-.01-.11-.03-.02-.01-.04-.02-.07-.03-.21-.06-.44-.08-.66-.06-.24.01-.48,0-.71-.03-.09,0-.18-.02-.26-.02-.04,0-.08-.01-.11-.02-.04-.01-.07-.02-.11-.02-.26-.02-.51-.03-.76-.05l-.35-.02h-.01s-.03,0-.05,0c-.29-.1-.6-.14-.9-.13-.21,0-.42-.01-.63-.05-.12-.02-.25-.04-.37-.06-.12-.02-.22-.04-.34-.06-.05-.01-.1-.02-.15-.04-.07-.03-.15-.04-.23-.05h-.06c-.26.02-.51-.03-.74-.15-.03-.01-.07-.02-.11,0-.03,0-.05,0-.08,0l-.19-.02c-.19-.02-.38-.05-.56-.09-.09-.02-.19-.04-.28-.07-.4-.12-.81-.17-1.23-.16-.16,0-.31-.03-.46-.09-.12-.05-.25-.08-.38-.09-.03,0-.06,0-.08-.02-.03-.01-.07-.02-.1-.02-.3.03-.6-.02-.87-.15-.1-.04-.21-.08-.31-.11-.38-.12-.76-.19-1.16-.23h-.14c-.3,0-.61-.06-.89-.18-.24-.1-.49-.16-.75-.19-.07-.01-.14-.02-.21-.03-.14-.02-.28-.04-.42-.06-.33-.03-.66-.1-.98-.21-.1-.03-.2-.05-.31-.06h-.07c-.37-.04-.73-.12-1.08-.23-.23-.08-.47-.12-.72-.14-.11-.01-.23-.03-.34-.04h-.06c-.1-.02-.19-.04-.28-.08-.38-.15-.78-.24-1.18-.27-.23-.03-.46-.09-.68-.18-.21-.08-.44-.14-.66-.17-.13-.02-.26-.04-.39-.08-.13-.04-.24-.06-.35-.08-.18-.04-.36-.08-.54-.14-.22-.06-.43-.13-.64-.2l-.3-.1h-.02s-.04-.02-.07-.02c-.19.04-.4.02-.57-.08-.07-.03-.15-.06-.23-.08-.3-.08-.6-.15-.89-.22h-.01s-.4-.1-.4-.1h-.02s-.05-.02-.07-.03c-.06-.03-.12-.06-.17-.09-.13-.07-.26-.15-.37-.13-.15.02-.3-.01-.42-.09-.05-.02-.09-.04-.14-.06-.08-.03-.16-.05-.24-.08-.1-.03-.2-.06-.3-.1h-.03c-.26-.14-.53-.23-.81-.29-.35-.07-.69-.17-1.03-.31h-.03c-.1-.05-.2-.1-.3-.16-.1-.06-.21-.11-.32-.16-.3-.1-.6-.19-.9-.27-.16-.05-.32-.09-.47-.14-.05-.02-.1-.04-.15-.06-.03-.01-.06-.03-.09-.04-.22-.09-.44-.17-.65-.26-.5-.2-1.02-.4-1.53-.62-.27-.12-.53-.27-.76-.46-.05-.04-.11-.06-.18-.05-.04,0-.07,0-.11-.01-.07-.04-.15-.07-.22-.1-.12-.05-.24-.11-.35-.17-.38-.21-.77-.41-1.17-.58l-.14-.06h-.02c-.27-.13-.55-.25-.82-.38-.09-.04-.19-.1-.28-.15-.19-.12-.4-.21-.61-.27-.07-.02-.13-.06-.19-.1-.04-.03-.09-.06-.14-.09-.1-.05-.21-.09-.31-.13-.15-.06-.3-.12-.45-.19-.16-.09-.32-.19-.48-.28-.12-.08-.25-.15-.37-.23-.19-.1-.38-.21-.56-.31-.24-.13-.49-.26-.73-.39-.18-.1-.37-.19-.55-.28-.32-.13-.63-.31-.91-.52-.1-.07-.21-.13-.32-.17-.05-.02-.11-.04-.16-.07l-.05-.02s-.07-.03-.11-.05c-.14-.09-.28-.19-.42-.28-.29-.2-.6-.4-.91-.57-.15-.08-.3-.18-.44-.28-.29-.21-.61-.38-.96-.49-.1-.03-.19-.08-.27-.14-.04-.02-.07-.05-.11-.07l-.19-.11c-.18-.1-.37-.21-.55-.32-.18-.11-.34-.22-.51-.33-.12-.08-.24-.16-.36-.24l-.06-.04c-.33-.22-.68-.44-1.02-.65-.12-.07-.25-.15-.38-.21-.16-.09-.33-.18-.48-.28-.12-.08-.24-.17-.35-.26-.14-.12-.29-.22-.44-.32-.08-.05-.16-.11-.24-.18-.14-.15-.34-.25-.55-.27-.04,0-.08-.04-.11-.07-.01-.01-.03-.03-.04-.04-.07-.06-.14-.12-.2-.17-.14-.12-.29-.25-.44-.36-.08-.05-.16-.1-.24-.14h-1.07l.07.05h0c.31.24.62.48.94.71.07.05.15.09.24.12.07.03.13.05.19.09.44.26.87.52,1.32.79.04.02.07.05.1.08.02.02.05.04.07.06.05.03.09.07.14.1.11.09.23.17.36.24.27.11.5.28.7.5.05.06.11.1.17.14.61.27,1.19.6,1.73.99l.05.03c.27.21.57.38.9.49.18.06.36.15.52.25l.13.07c.12.07.23.15.33.23.09.07.18.14.27.19.07.05.15.08.23.12.07.03.15.07.22.11.19.12.39.24.57.36.19.12.4.25.6.37.13.08.26.14.4.21l.17.08.21.1c.15.07.3.15.45.24.28.16.57.33.84.49.23.14.46.27.7.41.31.18.57.32.82.45.09.04.18.08.27.11.05.02.1.03.15.06.11.04.23.09.35.15l.4.17c.34.14.7.3,1.04.46.21.1.42.22.62.33.12.07.24.13.36.2.13.07.27.13.4.18.06.02.12.04.18.06.23.04.44.17.59.36.05.08.17.14.36.18.37.08.71.23,1.02.44.13.08.28.14.42.18.09.03.17.06.26.09l.24.1c.31.12.6.25.89.41.28.16.57.29.87.39.06.02.11.03.17.04.06,0,.11.02.17.04.05.01.1.03.14.04.14.03.27.08.4.15.31.18.65.31,1.01.39l.13.03c.21.06.42.13.62.22.09.04.19.07.28.11l.07.03c.11.04.23.09.35.12.19.06.38.12.56.18h.01s.34.12.34.12c.02,0,.05.02.07.03.04.02.08.03.12.04.39.08.77.18,1.14.31.41.14.82.25,1.25.33.18.04.36.09.53.17.1.04.21.08.32.12.1.03.2.05.31.06.05,0,.11.02.16.03l.1.02c.1.02.21.04.31.07.2.06.41.12.61.18.3.09.62.19.92.27.11.03.22.05.33.06.09.01.18.02.27.05.18.05.36.09.54.14.22.06.45.12.67.17.15.03.31.06.46.08.15.02.33.05.48.09.12.03.24.07.36.12.07.03.14.06.22.08.13.05.26.08.4.11.47.09.9.17,1.33.24.1.01.2.02.3,0,.05,0,.09,0,.14,0h.06c.05,0,.11,0,.16,0,.44.1.84.19,1.22.28.31.08.63.16.94.23l.71.18c.08.02.17.03.25.04.49.03.97.11,1.44.26l.24.06c.45.12.91.19,1.36.27.19.03.4.07.59.1.27-.05.55-.03.8.06.09.02.18.05.26.06.32.06.64.11.96.16.24.03.48.07.72.11.19.03.38.08.57.12s.36.08.53.12c.13.02.26.03.39.02.06,0,.12,0,.18,0h.04s.04,0,.06,0l.44.06c.4.05.81.1,1.21.16.15.02.3.06.45.09.18.04.37.08.56.1.17.02.34.02.5.01.12,0,.24,0,.36,0,.31.02.62.04.93.05.46.03.94.06,1.41.08.29.01.59,0,.88,0,.16,0,.33-.01.5-.01.05,0,.1,0,.15.02.04,0,.09.01.13.02h.11c.12.02.25.02.37,0,.29-.06.59-.07.89-.04.28.03.56.03.84,0,.13,0,.25-.01.38-.02s.23,0,.35,0h.03c.18,0,.37.01.54.02.4.02.81.03,1.22.02.22,0,.45-.03.67-.05.31-.04.63-.06.95-.05.37.02.74,0,1.1-.04.2-.02.41-.04.62-.05h.11c.32-.03.65-.02.97.02.09,0,.18,0,.27,0h.01c.19-.03.39-.05.58-.07.34-.04.7-.09,1.05-.12l.54-.05c.66-.06,1.34-.13,2.01-.14.22,0,.44-.04.65-.09Z"/>
  <path class="cls-1" d="M246.32,12.52l.13-.03c-.1-.08-.15-.13-.18-.12-.03.01-.04.06-.07.17l.12-.03Z"/>
  <path class="cls-1" d="M280.83,20.88l.37.06c-.19-.12-.24-.15-.32-.12h0s-.07.03-.11.05h.06Z"/>
  <path class="cls-1" d="M241.54,9.8h.02c.11-.04.14-.12.1-.25-.02-.09-.1-.15-.19-.13-.01,0-.02,0-.03.01h-.01c-.06.01-.11.05-.14.1-.02.05-.02.11,0,.16.04.12.12.15.26.12Z"/>
  <path class="cls-1" d="M282.23,20.87s-.1.04-.14.07c.1.08.23.1.35.06.06-.02.11-.05.16-.09-.11-.07-.25-.08-.37-.05Z"/>
  <polygon class="cls-1" points="280.54 19.22 280.54 19.25 280.73 19.24 280.73 19.19 280.54 19.17 280.54 19.22"/>
  <path class="cls-1" d="M234.31,1.54h0c0,.16.08.3.22.37.11.05.23.1.33.16l.18.09.19.09.09.04.02-.03.02-.03c-.18-.15-.38-.28-.59-.38-.16-.09-.31-.19-.46-.29Z"/>
  <path class="cls-1" d="M241.44,5.9c.06.03.12.06.19.08.1.04.19.08.28.13.12.07.23.14.34.22.09.06.18.12.28.18l.11.07c.28.17.56.34.86.5h.02c.2.14.44.19.67.14l-.23-.13c-.88-.51-1.78-.97-2.72-1.37.05.08.12.14.21.18Z"/>
  <path class="cls-1" d="M239.83,4.85s-.09-.03-.14-.03h-.07s0-.02,0-.02h0s0,0,0,0h.01c.27.35.68.57,1.12.6-.04-.06-.1-.12-.17-.16-.3-.17-.53-.29-.75-.4Z"/>
  <path class="cls-1" d="M277.24,18.78v.04s0,.04,0,.04c.14.07.29.09.44.05.06-.02.12-.06.18-.1h-.11s-.02,0-.02,0l-.49-.02Z"/>
  <path class="cls-1" d="M239.2,4.53c-.46-.41-.98-.74-1.55-1,.4.48.94.83,1.55,1Z"/>
  <path class="cls-1" d="M239.47,4.74l.15.05c0-.05-.03-.1-.08-.13-.05-.03-.1-.03-.15,0-.02,0-.05.02-.07.03l.15.06Z"/>
  <path class="cls-1" d="M247.06,8.7c-.07-.13-.19-.22-.34-.25.03.25.17.26.34.25Z"/>
  <polygon class="cls-1" points="244.3 7.36 244.48 7.45 244.5 7.41 244.52 7.38 244.34 7.29 244.34 7.29 244.3 7.36"/>
  <path class="cls-1" d="M248.5,9.35c-.23-.19-.51-.32-.8-.39.17.28.48.43.8.39Z"/>
  <path class="cls-1" d="M244.68,7.56c.09.04.18.09.27.14.16.12.36.19.56.19-.09-.04-.18-.09-.27-.15-.16-.12-.36-.19-.56-.19Z"/>
  <path class="cls-1" d="M235.94,2.62c.35.38.8.64,1.3.75-.41-.3-.84-.55-1.3-.76h0Z"/>
  <path class="cls-1" d="M245,10.01c.07.03.15.03.23.01.04-.01.08-.04.12-.07-.03,0-.06-.02-.09-.03-.04-.02-.09-.03-.13-.03-.01,0-.03.01-.04.02h-.01s-.08.02-.11.04l-.06.03s0,0,0,0c.03,0,.07,0,.1.02Z"/>
  <path class="cls-1" d="M255.72,14.17c-.05-.03-.12-.05-.18-.04h0s-.08.06-.1.1v.02s0,0,0,0l.29-.1Z"/>
  <path class="cls-1" d="M276.66,18.63s-.05.03-.07.04l-.03.02s.02.02.02.03c.02.03.03.05.05.05,0,0,.02,0,.03,0,.02,0,.04-.02.06-.03.02,0,.04-.02.06-.03-.02-.02-.04-.03-.05-.05-.01-.01-.05-.04-.06-.04h-.01Z"/>
  <path class="cls-1" d="M251.78,7.65c.08.08.19.1.3.07.02,0,.04-.01.06-.02.03-.01.06-.04.07-.07.01-.05,0-.1-.03-.15-.08-.16-.21-.17-.34-.18-.05,0-.09,0-.14-.02h0c-.13.17-.03.27.08.36Z"/>
  <path class="cls-1" d="M299.79,18.95h.04s.08,0,.12,0c.03-.01.03-.04.05-.06v-.06l-.23.05h0s0,.02,0,.02l.02.05Z"/>
  <path class="cls-1" d="M233.19.9h0c.13.2.34.34.57.38-.06-.04-.11-.09-.16-.15-.1-.14-.25-.22-.41-.23Z"/>
  <path class="cls-1" d="M233,.71c-.26-.22-.53-.41-.81-.59-.08-.05-.17-.08-.26-.12h-.24c.42.26.85.5,1.3.71Z"/>
  <path class="cls-1" d="M272.86,18.06l-.02.05h.03c.05.02.1.02.15.03,0-.02.02-.03.02-.05-.04-.03-.09-.05-.13-.07h-.03s-.02.04-.02.04Z"/>
  <path class="cls-1" d="M239.64.34c.12.09.25.18.38.26l.11.07c.12.07.24.14.36.21.22.14.44.28.66.42l.4.25s.09.05.14.08c.54.27,1.11.57,1.67.89.15.09.29.18.43.27.18.12.37.24.57.35h0c.4.24.82.44,1.25.62.11.05.22.1.32.16.06.04.13.07.19.1.2.1.42.21.64.3.14.06.29.12.43.18.2.08.4.17.6.26.08.04.16.09.24.15.04.03.08.06.13.09.03.02.05.04.08.06.07.05.14.11.21.11.25.02.49.13.67.3.06.04.12.09.17.13l.07.05c.09.08.2.13.32.16.28.07.56.18.8.34.08.05.16.09.25.14.02.01.03.02.04.04.02.02.04.04.06.04.24.03.47.12.67.25.15.09.3.16.47.21.15.05.3.12.44.2.07.04.14.07.21.11-.12.23-.18.37-.14.48.04.1.17.16.39.23.01,0,.03.02.05.04.02.03.03.04.05.06h0c-.14,0-.28,0-.41.03-.21.06-.43.04-.62-.06-.21-.12-.43-.22-.66-.3-.13-.05-.26-.1-.39-.16-.08-.04-.15-.08-.22-.13-.06-.04-.13-.08-.2-.12-.09-.04-.18-.08-.28-.12s-.17-.07-.25-.11c-.18-.08-.35-.17-.52-.26l-.25-.13-.21-.11c-.15-.07-.3-.15-.44-.23-.07-.04-.15-.07-.22-.1-.14-.05-.28-.13-.4-.22-.08-.06-.16-.09-.25-.11-.06-.02-.12-.04-.18-.07-.31-.16-.63-.32-.94-.48l-.4-.21s-.06-.03-.09-.04c-.5-.2-.97-.44-1.42-.73-.25-.15-.52-.31-.78-.44-.35-.18-.73-.38-1.1-.59-.19-.11-.37-.22-.56-.34-.1-.07-.21-.13-.32-.2-.04-.03-.09-.05-.14-.07-.03-.01-.06-.03-.09-.04-.11-.06-.21-.11-.32-.17l-.1-.06-.1-.05c-.08-.04-.16-.09-.24-.13-.18-.11-.37-.24-.57-.36-.05-.03-.09-.07-.14-.1s-.1-.07-.15-.11l-.07-.04c-.27-.17-.55-.35-.83-.52-.07-.04-.14-.07-.21-.09-.07-.02-.13-.05-.2-.09l-.34-.19c-.42-.21-.81-.46-1.2-.72h-1.52s.06.04.1.04c.12.04.23.1.34.17.16.08.32.16.47.26.37.24.73.49,1.1.72.2.12.41.23.63.31.18.04.34.14.45.28,0,.02.02.04.04.05.32.19.65.37.96.56.32.19.66.4.99.59.29.16.58.32.87.47.15.08.31.14.45.24.19.12.34.29.59.3.05,0,.1.03.14.07.41.32.86.59,1.33.8.13.09.28.17.41.25.02.01.04.03.06.03.35,0,.61.25.92.37.31.12.59.25.88.38.22.09.43.19.65.28.15.05.28.14.37.27.13.14.32.22.51.23.23.01.44.11.6.28.23.19.5.33.79.39.31.12.61.26.9.41.09.04.19.07.29.1.05.02.11.02.15.05.26.18.56.31.86.39.12.04.24.1.34.17.29.22.64.35,1.01.38.35.04.6.28.92.38.2.06.41.1.61.15.27.03.52.17.69.38.08,0,.2-.04.26,0,.18.11.38.18.59.19l-.04.44c.35.09.38.06.43-.31.18.06.36.12.54.17.4.12.8.23,1.2.36.15.06.28.16.37.29l-.75-.14c-.02.43.05.52.42.61.11.03.22.07.33.11.26.14.59.04.73-.22.02-.03.03-.07.04-.11.03-.1.14-.16.24-.12,0,0,0,0,.01,0,.17.04.33.08.5.11.43.04.84.15,1.24.31.09.06.18.12.27.19.18-.08.4-.06.56.05.08.04.16.06.25.06.53.08,1.06.21,1.58.37.27.06.55.05.82.09.12.02.23.11.34.14.3.08.6.16.9.23.3.07.61.11.91.2.24.05.48.06.73.05.07,0,.15,0,.22,0,.39.08.77.18,1.15.26.35.08.71.15,1.07.22.04,0,.1,0,.13.02.25.21.58.13.86.22.03.01.06.02.1.01.51.02,1.01.12,1.49.31.7.21,1.43.31,2.16.3.16-.03.32,0,.46.1.1.06.22.08.34.07.48.03.96.1,1.42.22.6.18,1.21.27,1.83.27.08-.02.17,0,.25.02.26.09.54.13.82.1.35.03.7.09,1.05.16.29.07.59.1.89.09.28,0,.55.02.83.07.06,0,.14.05.19.03.39-.15.76.03,1.14.04.29,0,.58-.01.86-.02.32-.02.64,0,.96.07.22.02.45,0,.66-.04.06,0,.12-.06.18-.06.37.03.74.06,1.12.1.17.02.34.11.5-.06.05-.05.18-.04.27-.03.55.03,1.09.1,1.64.1.38,0,.76-.07,1.15-.1.22-.02.45-.03.67-.03.34.03.69.01,1.02-.06.07-.02.15-.03.22,0,.23.06.47.04.69-.05.14-.02.27-.02.41,0,.13.03.27.04.4.05.37-.06.74-.08,1.11-.09.13-.01.25-.04.38-.07.53-.04,1.06-.07,1.59-.12.2-.02.4-.07.6-.09.28-.02.55-.01.83-.02.13,0,.25,0,.37-.03.13-.03.26-.06.39-.09v-.54c-.13,0-.26.02-.39.02-.27,0-.54.01-.8.05-.13.02-.27.03-.41.04-.1,0-.21.01-.3.01-.08,0-.16,0-.23,0h-.05s-.1,0-.15.02c-.02,0-.03.01-.04.02-.05.04-.1.06-.16.08-.09.03-.19.04-.29.04h-.04s-.31.05-.31.05c-.38.03-.76.06-1.15.07-.36.01-.72,0-1.07,0-.19,0-.39,0-.58,0h-.05c-.07,0-.14,0-.2.02-.04.01-.08.03-.11.06-.02.01-.03.02-.05.03-.05.01-.1.02-.15.02h-.04s-.15.01-.15.01c-.32.02-.64.03-.97.04-.14,0-.29,0-.42-.01-.14,0-.31-.01-.46,0-.15,0-.28.02-.42.03-.14.01-.27.03-.41.03-.76.02-1.53.04-2.28.05h-.15c-.22,0-.43,0-.64,0-.07,0-.14,0-.21,0-.17.03-.34,0-.48-.08-.06-.03-.13-.03-.19-.01-.16.02-.33.04-.5.03-.18,0-.37.01-.55.04-.23.03-.45.04-.68.01-.07,0-.14,0-.21-.01-.57-.03-1.04-.05-1.49-.09-.08,0-.17-.02-.25-.04-.08-.02-.16-.04-.25-.05-.09,0-.19,0-.29,0-.09,0-.19,0-.28,0-.65-.05-1.3-.11-1.94-.17-.52-.05-.99-.09-1.46-.15-.09-.01-.19-.03-.28-.05-.07-.02-.15-.03-.22-.04-.12-.02-.25-.03-.37-.05-.17-.02-.35-.04-.52-.07-.31-.06-.62-.11-.92-.18-.25-.05-.51-.1-.77-.15-.1-.02-.2-.04-.29-.06-.3-.08-.6-.11-.91-.1-.15,0-.29-.02-.43-.07-.07-.02-.13-.04-.2-.05-.04,0-.08-.02-.13-.03-.09-.03-.18-.05-.28-.04-.32.04-.65-.03-.93-.18-.49-.19-1.02-.3-1.54-.32h-.11c-.05-.01-.11-.02-.15-.02-.15,0-.3-.03-.44-.07-.35-.13-.71-.22-1.09-.26l-.13-.02c-.1-.02-.21-.03-.31-.04-.4-.03-.79-.13-1.16-.28-.07-.03-.15-.04-.22-.03h-.06c-.32,0-.64-.06-.93-.18-.2-.07-.41-.12-.62-.14-.08-.01-.17-.02-.26-.04-.05,0-.09-.01-.14-.02-.06,0-.12-.01-.18-.03-.34-.08-.68-.16-1.02-.24h0s-.72-.17-.72-.17c-.33-.08-.66-.15-.99-.23h0s-.38-.09-.38-.09h-.01s-.01,0-.02,0c-.19-.15-.43-.22-.68-.22-.18,0-.36-.04-.52-.11-.28-.12-.58-.19-.89-.2-.18,0-.34-.1-.4-.27-.01-.04-.04-.08-.08-.1-.21-.09-.34-.3-.32-.53-.03-.01-.07-.01-.11,0-.05.02-.09.06-.11.11-.01.02-.02.04-.04.06.02.02.04.04.07.07.05.04.09.09.12.15.03.04.03.1.02.15-.02.04-.05.07-.09.08-.03,0-.07.01-.1,0h-.02s-.04-.01-.05-.02c-.26-.11-.54-.2-.82-.25-.34-.05-.67-.16-.98-.33-.16-.09-.33-.16-.51-.22-.11-.04-.22-.07-.32-.12-.13-.05-.13-.07-.13-.26v-.03s.13-.01.13-.01l.23-.02.11.12.19.2.52-.35h.02s.63.27.63.27l-.04-.3h.02s.04-.02.06-.02h0s.08,0,.11.02c.22.12.46.2.71.22.1.02.2.03.3.06.15.04.3.09.45.14.11.04.22.08.34.12.15.04.31.08.47.11l.19.04c.05.01.1.02.15.03.1.02.19.04.28.06.3.09.6.19.89.29l.45.15s.06.02.09.02c.28,0,.56.06.82.16.14.05.27.09.41.12.11.02.22.04.33.05.07,0,.13.01.2.02.07.01.12.02.18.04.04,0,.09.02.13.03l.23.04.2.04h.07s.09.03.13.05c.23.16.49.26.77.28.14.02.28.05.42.09.12.04.24.07.36.09l.07.02.07.02c.07.02.14.03.21.03.39-.03.79.02,1.17.13.09.02.19.04.28.06.15.03.31.06.46.09.43.07.85.17,1.27.28l.14.04c.22.08.45.13.69.15.24,0,.49.03.72.1.2.07.42.13.64.19l.09.02c.65.19,1.31.3,1.99.32.17,0,.33.03.49.07.08.02.17.04.26.05.11.02.22.03.33.05.1.01.2.03.3.04l.18.03c.22.03.45.07.68.12.22.05.43.1.64.15.21.05.43.1.64.15.07.01.14.02.21.01.05,0,.11,0,.16,0,.08,0,.17.01.25.02.22,0,.43.04.64.1.18.05.36.06.54.05.08,0,.17,0,.25,0,0,0,.02,0,.03,0,.01,0,.02,0,.04,0,.53.14,1.07.21,1.61.23.2.01.4.03.6.05h.02s.03,0,.04,0c.4-.03.8-.02,1.2.03.43.05.86.06,1.29.02.16-.01.33,0,.49.03.08.01.16.03.24.03h.06c.05.02.11.02.16,0h.02c.36-.1.74-.12,1.11-.05.16.02.33.04.49.04.08,0,.16,0,.24-.02.04,0,.09-.01.13-.02h.06c.08-.02.15-.02.23-.02.2.01.4.03.6.04.38.03.77.06,1.15.07.18,0,.36-.01.54-.04.12-.02.25-.03.38-.04.29-.02.58-.02.86-.03h.42s.05-.01.05-.01c.1,0,.2,0,.3-.01.15-.01.29-.03.43-.05.32-.05.64-.07.96-.06.26.01.52.01.78,0,.16,0,.33-.01.49-.01.26,0,.51-.03.77-.08.15-.02.31-.05.47-.06.03,0,.05,0,.08-.02.04-.01.07-.02.11-.02.32.02.64,0,.95-.05.21-.03.43-.05.64-.06.57,0,1.15-.06,1.71-.17.07-.01.13-.01.2,0,.02,0,.04,0,.06,0V0h-60.92c.2.1.39.21.57.34ZM253.83,8.04c.25.12.52.21.8.27.31.05.61.18.85.37.11.09.23.15.37.24-.02.24.09.51-.09.78-.47-.07-.93-.23-1.34-.48-.22-.1-.45-.17-.68-.2-.3-.09-.6-.18-.97-.29.15-.12.29-.25.43-.38.13-.15-.04-.31-.02-.47.26-.07.44.07.66.16Z"/>
</svg>