<?xml version="1.0" encoding="utf-8"?>
<!-- Generator: Adobe Illustrator 28.0.0, SVG Export Plug-In . SVG Version: 6.00 Build 0)  -->
<svg version="1.1" id="Layer_1" xmlns="http://www.w3.org/2000/svg" xmlns:xlink="http://www.w3.org/1999/xlink" x="0px" y="0px"
	 viewBox="0 0 300 50" style="enable-background:new 0 0 300 50;" xml:space="preserve">
<style type="text/css">
	.st0{fill-rule:evenodd;clip-rule:evenodd;fill:#FFFFFF;}
</style>
<path class="st0" d="M239.7,4.7c0,0-0.1,0-0.1,0c0,0,0,0-0.1,0c0.3,0.3,0.6,0.6,1.1,0.6c-0.1-0.1-0.1-0.1-0.2-0.2
	C240.1,4.9,239.9,4.8,239.7,4.7L239.7,4.7z"/>
<path class="st0" d="M237.1,3.2c-0.4-0.3-0.8-0.5-1.3-0.8C236,2.8,236.8,3.2,237.1,3.2z"/>
<path class="st0" d="M257.6,12.7L257.6,12.7C257.6,12.7,257.5,12.7,257.6,12.7c0,0.1,0.1,0.1,0.1,0.1l0.1,0.1c0-0.1,0-0.1-0.1-0.2
	S257.6,12.6,257.6,12.7L257.6,12.7z"/>
<polygon class="st0" points="239.5,4.6 239.5,4.6 239.5,4.6 239.5,4.6 239.5,4.6 239.5,4.6 "/>
<path class="st0" d="M239.2,4.5C239.2,4.5,239.2,4.5,239.2,4.5L239.2,4.5l0.2,0.1c0-0.1,0-0.1-0.1-0.1
	C239.4,4.5,239.3,4.5,239.2,4.5L239.2,4.5z"/>
<path class="st0" d="M239.1,4.4c-0.2-0.2-1.3-1-1.6-1C237.7,3.7,238.5,4.2,239.1,4.4z"/>
<path class="st0" d="M233.1,0.7c0.1,0.2,0.3,0.3,0.6,0.4c-0.1,0-0.1-0.1-0.2-0.1C233.4,0.8,233.2,0.7,233.1,0.7L233.1,0.7z"/>
<path class="st0" d="M271,7.2c0.2,0.2,0.2,0.5,0.3,0.8c0,0.1,0,0.2,0.1,0.3c0.1,0.3,0.2,0.5,0.4,0.7c0.1,0.3,0.3,0.5,0.4,0.8
	c0,0.1,0.1,0.2,0.1,0.4c0,0.1,0.1,0.2,0.1,0.4s0.1,0.2,0.2,0.3c0,0.1,0.1,0.1,0.1,0.1c0,0,0,0,0,0c0,0,0.1,0.1,0.1,0.1
	c0,0.1,0,0.2,0,0.4c0,0.1,0.1,0.1,0.1,0.2c0,0,0,0.1,0,0.1c0.2,0.1,0.2,0.3,0.3,0.5c0,0,0,0,0,0c0.2,0,0.4,0.1,0.7,0.1
	c0,0,0-0.1,0-0.1c0-0.1,0-0.1,0-0.2c-0.1,0-0.1-0.1-0.1-0.1c0-0.1-0.1-0.1-0.1-0.2c0,0,0,0,0,0l0,0c0,0-0.1-0.1-0.1-0.2l0,0
	c0,0,0,0,0,0c0,0,0-0.1,0-0.1c0-0.2-0.1-0.4-0.3-0.5c-0.1-0.1-0.1-0.3-0.1-0.4c0,0,0,0,0-0.1c0-0.1,0-0.1,0-0.1
	c0-0.2-0.1-0.4-0.3-0.6c0,0-0.1-0.1-0.1-0.1c0-0.2,0-0.3-0.1-0.5c0-0.1-0.1-0.1-0.1-0.2c0,0,0,0,0,0c0,0,0.1,0,0.1,0
	c0.1-0.1,0-0.2,0-0.2c0,0,0-0.1,0-0.1c0-0.1,0-0.1-0.1-0.2c0,0,0,0-0.1,0c0,0,0,0,0,0.1c0,0,0,0,0,0c-0.3-0.4-0.4-0.8-0.3-1.3
	c0,0,0,0-0.1,0l0,0l0,0c0,0-0.1,0.1-0.1,0.1c0-0.1-0.1-0.3-0.2-0.4l0-0.1c0.1,0.1,0.2,0.1,0.2,0.2l0,0c0,0,0,0,0,0l0,0l0,0l0,0
	c0-0.1-0.1-0.2-0.1-0.3c0-0.1-0.1-0.2-0.1-0.3c-0.1-0.1-0.2-0.3-0.2-0.4c0,0,0,0,0,0l0,0c0,0,0,0,0,0c0,0,0,0,0,0.1c0,0,0,0,0-0.1
	l0,0c0-0.1,0-0.1-0.1-0.1c0,0,0,0-0.1,0c-0.1-0.1-0.2-0.2-0.2-0.3l0,0c0,0,0-0.1,0.1-0.1c0-0.1,0.1-0.1,0.1-0.1l0,0
	c0-0.1-0.1-0.3-0.2-0.4c-0.1-0.1-0.1-0.1-0.2-0.2c0-0.1-0.1-0.2-0.1-0.2c0-0.1-0.1-0.2-0.1-0.3c-0.1-0.3-0.2-0.6-0.2-0.9l0.2,0.2
	c0-0.2-0.1-0.4-0.2-0.5c0,0-0.1-0.1-0.1-0.1c0,0,0,0,0,0c0,0,0-0.1-0.1-0.1c0-0.2-0.1-0.3-0.1-0.5c0-0.1,0-0.1,0-0.2
	c0-0.1,0.1-0.1,0.1-0.2l0-0.1c-0.1,0-0.2,0-0.2,0h-0.1c-0.1-0.4-0.2-0.8-0.4-1.1c-0.1-0.1-0.1-0.2-0.1-0.3c0-0.1,0-0.2-0.1-0.4
	c0,0,0-0.1,0-0.1l0,0c0,0,0-0.1,0-0.1h-0.7c0,0.1,0.1,0.2,0.1,0.3c0,0.2,0.1,0.4,0.2,0.6c0.1,0.2,0.1,0.4,0.2,0.6
	c0,0.1,0.1,0.1,0.1,0.2c0.1,0.3,0.2,0.5,0.2,0.8c0,0.1,0.1,0.2,0.1,0.3c0,0.1,0.1,0.1,0.1,0.2c0,0.1,0.1,0.2,0.1,0.3c0,0,0,0,0,0
	c0,0,0,0,0,0c0.1,0.2,0.2,0.5,0.2,0.8c0,0.2,0.1,0.3,0.2,0.5c0,0.1,0.1,0.2,0.1,0.3c0.1,0.2,0.1,0.3,0.1,0.5c0,0.1,0.1,0.2,0.1,0.3
	l0,0c0,0.1,0.1,0.2,0.1,0.3c0.1,0.2,0.2,0.3,0.1,0.5c0.2,0.2,0.3,0.3,0.3,0.5C271,7.1,271,7.2,271,7.2L271,7.2z M272.4,9
	c-0.2,0-0.1-0.2-0.2-0.4C272.3,8.7,272.4,8.8,272.4,9z"/>
<path class="st0" d="M270.6,7.8c0,0-0.1,0.1-0.1,0.1c0,0.1,0,0.2,0.1,0.3c0,0,0,0,0,0c0.1,0,0.2,0,0.2-0.1c0.1-0.1,0-0.2-0.1-0.2
	l0,0C270.8,7.8,270.7,7.8,270.6,7.8L270.6,7.8z"/>
<path class="st0" d="M244.2,7.2l0.2,0.1c0,0,0,0,0,0l0,0c0,0,0,0,0,0l0,0C244.3,7.2,244.3,7.2,244.2,7.2
	C244.2,7.1,244.2,7.2,244.2,7.2L244.2,7.2z"/>
<path class="st0" d="M232.9,0.5c-0.2-0.2-0.4-0.3-0.7-0.5h-0.3C232.2,0.2,232.5,0.4,232.9,0.5z"/>
<path class="st0" d="M234.2,1.4c0,0.2,0.1,0.3,0.2,0.4c0.1,0,0.2,0.1,0.3,0.2l0,0c0.1,0,0.1,0.1,0.2,0.1c0.1,0,0.1,0.1,0.2,0.1
	c0,0,0.1,0,0.1,0c0,0,0,0,0,0l0,0c-0.2-0.1-0.4-0.3-0.6-0.4C234.5,1.6,234.3,1.5,234.2,1.4L234.2,1.4z"/>
<path class="st0" d="M253.7,11.4c-0.1-0.1-0.8-0.4-1.1-0.4C252.9,11.2,253.2,11.4,253.7,11.4z"/>
<path class="st0" d="M252.2,11.2C252.2,11.2,252.2,11.2,252.2,11.2C252.2,11.2,252.2,11.3,252.2,11.2c0,0.1,0,0.1,0,0.1l0,0
	c0,0,0,0,0,0C252.3,11.2,252.3,11.2,252.2,11.2L252.2,11.2C252.3,11.2,252.2,11.2,252.2,11.2L252.2,11.2L252.2,11.2z"/>
<path class="st0" d="M252.4,11c0,0,0-0.1,0-0.1l-0.1,0l-0.1,0v0l0,0C252.3,10.9,252.3,10.9,252.4,11C252.4,11,252.4,11,252.4,11
	L252.4,11z"/>
<path class="st0" d="M256.8,12.1c-0.1,0.2-0.1,0.3-0.1,0.3s0.1,0.1,0.3,0.1C257.1,12.3,257,12.2,256.8,12.1z"/>
<path class="st0" d="M256.6,12.7c0,0-0.1,0.1-0.1,0.1c0,0.1,0,0.1,0,0.1c0,0.1,0.1,0.1,0.1,0.1c0,0,0.1,0.1,0.1,0.1
	c0-0.1,0-0.1,0.1-0.1c0-0.1,0.1-0.1,0.1-0.2c0-0.1,0-0.1-0.1-0.1S256.7,12.7,256.6,12.7L256.6,12.7L256.6,12.7z"/>
<path class="st0" d="M247.6,8.8L247.6,8.8c0.2,0.2,0.4,0.4,0.8,0.4C248.1,9,247.9,8.9,247.6,8.8L247.6,8.8z"/>
<path class="st0" d="M251.1,10.4L251.1,10.4C251.1,10.4,251.1,10.4,251.1,10.4c0.2,0.3,0.5,0.3,0.8,0.4c0.1,0,0.1,0,0.2,0
	c0,0,0,0,0-0.1l0,0l0-0.1h0C251.7,10.6,251.4,10.5,251.1,10.4L251.1,10.4L251.1,10.4z"/>
<path class="st0" d="M246.9,8.5c-0.1-0.1-0.2-0.2-0.3-0.2C246.6,8.5,246.8,8.5,246.9,8.5z"/>
<path class="st0" d="M244.5,7.4L244.5,7.4c0.1,0,0.2,0.1,0.3,0.1c0.2,0.1,0.3,0.2,0.6,0.2c-0.1,0-0.2-0.1-0.3-0.2
	C244.9,7.5,244.8,7.4,244.5,7.4L244.5,7.4z"/>
<path class="st0" d="M250.6,10.2C250.6,10.2,250.6,10.2,250.6,10.2L250.6,10.2L250.6,10.2c0.1,0.1,0.1,0.1,0.2,0.1l0-0.1L250.6,10.2
	C250.6,10.1,250.6,10.2,250.6,10.2L250.6,10.2L250.6,10.2z"/>
<path class="st0" d="M248.9,9.5c0.1,0.1,0.3,0.2,0.5,0.1c0,0,0,0,0.1,0c-0.1,0-0.1-0.1-0.1-0.1c-0.1-0.1-0.2-0.1-0.3-0.1
	C249,9.5,248.9,9.5,248.9,9.5L248.9,9.5z"/>
<path class="st0" d="M241.3,5.7c0.1,0,0.1,0.1,0.2,0.1c0.1,0,0.2,0.1,0.3,0.1c0.1,0.1,0.2,0.1,0.3,0.2c0.1,0.1,0.2,0.1,0.3,0.2
	l0.1,0.1c0.3,0.2,0.6,0.3,0.9,0.5h0c0.2,0.1,0.4,0.2,0.7,0.1c-0.1,0-0.1-0.1-0.2-0.1c-0.9-0.5-1.8-1-2.7-1.4
	C241.2,5.6,241.2,5.7,241.3,5.7L241.3,5.7z"/>
<path class="st0" d="M276.5,18.5C276.5,18.5,276.5,18.5,276.5,18.5C276.5,18.5,276.5,18.5,276.5,18.5c0,0.1,0,0.1,0,0.1c0,0,0,0,0,0
	c0,0,0,0,0.1,0C276.6,18.5,276.6,18.5,276.5,18.5C276.5,18.5,276.5,18.5,276.5,18.5L276.5,18.5z"/>
<path class="st0" d="M284.7,26.5L284.7,26.5L284.7,26.5c0,0.1,0,0.2,0.1,0.3h0c0,0,0,0,0,0l-0.1-0.1L284.7,26.5L284.7,26.5
	L284.7,26.5z"/>
<path class="st0" d="M276.6,17.9c0,0,0.1,0,0.1,0c0,0,0.1,0,0.1,0c0-0.1,0-0.2-0.1-0.2c0,0-0.1,0-0.1-0.1l0,0c0,0-0.1,0-0.1,0
	c0,0-0.1,0-0.1,0c0,0-0.1,0-0.1,0c-0.1,0-0.1,0-0.2,0c-0.1,0-0.1,0-0.2,0c0,0,0,0.1,0,0.1c0,0.1,0,0.1,0.1,0.2c0.1,0,0.2,0,0.3,0
	c0.1,0,0.2,0,0.3,0.1C276.6,17.9,276.6,17.9,276.6,17.9L276.6,17.9z"/>
<path class="st0" d="M285.1,27.2c-0.1,0.1,0,0.2,0,0.3c0,0.1,0.1,0.1,0.2,0.2l0,0c0,0.1,0.1,0.1,0.1,0.2c0.1,0.1,0.2,0.2,0.2,0.3
	l0,0c0.1,0.2,0.3,0.4,0.5,0.6c0,0,0,0,0,0c0.1,0.1,0.1,0.1,0.2,0.2c0,0,0.1,0,0.2,0c-0.2-0.2-0.4-0.5-0.6-0.8
	C285.8,27.9,285.5,27.5,285.1,27.2L285.1,27.2z"/>
<path class="st0" d="M290.7,34.4c-0.1-0.1-0.2-0.3-0.3-0.4c-0.1-0.1-0.1-0.2-0.2-0.3c-0.1-0.1-0.2-0.2-0.3-0.4
	c-0.1-0.3-0.3-0.6-0.6-0.9c-0.1-0.2-0.3-0.3-0.4-0.5c-0.1-0.1-0.2-0.2-0.3-0.3c0,0,0,0-0.1,0c0,0,0,0,0,0c0,0,0,0,0,0c0,0,0,0,0,0
	l0,0c0,0,0,0,0,0.1c0.1,0.2,0.2,0.3,0.3,0.4c0,0,0.1,0.1,0.1,0.1c0.1,0.1,0.3,0.2,0.4,0.4c0,0,0.1,0.1,0.1,0.1c0.3,0.5,0.6,1,1,1.5
	c0.2,0.2,0.3,0.4,0.5,0.5l0,0c0,0,0.1,0.1,0.1,0.1l0,0c0,0,0,0,0,0s0,0,0.1,0c0,0,0,0,0-0.1c0,0,0-0.1-0.1-0.1
	C290.8,34.5,290.8,34.5,290.7,34.4L290.7,34.4z"/>
<path class="st0" d="M287.5,30.2L287.5,30.2c0.2,0.3,0.4,0.8,0.8,1.1c-0.1-0.4-0.4-0.7-0.6-0.9C287.6,30.4,287.5,30.3,287.5,30.2z"
	/>
<path class="st0" d="M272.5,13.4c0,0,0.1,0,0.1,0.1c0-0.1,0-0.2-0.1-0.2s-0.1,0-0.2,0.1C272.4,13.4,272.4,13.4,272.5,13.4
	L272.5,13.4L272.5,13.4z"/>
<path class="st0" d="M273.3,10.6c0,0-0.1,0-0.1,0c0,0,0,0-0.1,0c0,0,0,0.1,0.1,0.1c0,0.1,0.1,0.1,0.2,0.2c0,0,0.1,0,0.1,0
	c0,0,0-0.1,0-0.1C273.4,10.7,273.3,10.7,273.3,10.6C273.3,10.6,273.3,10.6,273.3,10.6L273.3,10.6z"/>
<path class="st0" d="M273.6,11.4l0.1,0.1l0,0c0,0.1,0.1,0.1,0.1,0.2c0,0,0,0,0-0.1C273.8,11.6,273.8,11.5,273.6,11.4
	C273.6,11.4,273.6,11.4,273.6,11.4L273.6,11.4z"/>
<path class="st0" d="M274.6,14C274.6,14,274.6,14,274.6,14c0.1-0.1,0.1-0.1,0.2-0.2c0-0.1,0-0.2-0.1-0.2c0,0,0,0-0.1,0
	c0,0-0.1,0-0.1,0c0,0,0,0,0,0c0,0,0-0.1,0-0.1c0,0-0.1,0-0.1,0c-0.1,0-0.3,0-0.4-0.1c-0.1,0-0.1,0-0.2-0.1c0,0-0.1,0-0.1,0
	c0,0,0,0.1,0,0.1c0,0.1,0,0.1,0.1,0.2c0.2,0.1,0.3,0.3,0.4,0.4C274.2,14,274.4,14,274.6,14L274.6,14z"/>
<path class="st0" d="M270.3,5.6C270.3,5.6,270.3,5.6,270.3,5.6c0-0.2-0.1-0.2-0.1-0.2l0,0l0,0c0,0-0.1,0-0.1,0
	c-0.1,0-0.1,0.2-0.1,0.2c0,0.1,0.1,0.1,0.1,0.2c0,0,0,0,0,0C270.2,5.8,270.3,5.7,270.3,5.6L270.3,5.6z"/>
<path class="st0" d="M274.1,10.9c0.1,0.1,0.1,0.3,0.2,0.4c0,0.1,0.1,0.1,0.1,0.2c0.1,0.2,0.2,0.4,0.2,0.7c0,0.1,0,0.2,0.1,0.4
	c0,0,0,0,0,0c0.1,0,0.2,0,0.2,0.1c0.1,0,0.2,0,0.3,0c-0.1-0.4-0.3-0.8-0.5-1.2c0-0.1,0-0.1-0.1-0.1v0c-0.1-0.3-0.3-0.5-0.4-0.8
	c0-0.1-0.1-0.2-0.1-0.3c-0.1-0.2-0.1-0.4-0.3-0.6c0-0.1-0.1-0.1-0.1-0.2c0-0.1,0-0.1,0-0.2c0-0.1-0.1-0.2-0.1-0.3
	c-0.1-0.1-0.1-0.3-0.2-0.4c-0.1-0.2-0.1-0.4-0.2-0.5c0-0.1-0.1-0.3-0.1-0.4c-0.1-0.2-0.1-0.4-0.2-0.6l0,0c-0.1-0.3-0.2-0.5-0.3-0.8
	c-0.1-0.2-0.1-0.4-0.2-0.6c-0.1-0.3-0.3-0.6-0.3-1c0-0.1-0.1-0.2-0.1-0.3c0-0.1,0-0.1-0.1-0.2c0,0,0,0,0-0.1c0,0,0-0.1,0-0.1
	c0-0.2-0.1-0.3-0.1-0.5c-0.1-0.3-0.2-0.7-0.3-1c-0.1-0.2-0.1-0.3-0.1-0.5c-0.1-0.3-0.2-0.7-0.4-1c-0.1-0.1-0.1-0.2-0.1-0.3
	c0,0,0-0.1,0-0.1c0-0.1,0-0.1-0.1-0.2c0-0.1-0.1-0.2-0.1-0.3H270c0.1,0.2,0.1,0.5,0.3,0.7c0.1,0.2,0.2,0.4,0.2,0.5c0,0,0,0.1,0,0.1
	c0,0.1,0.1,0.3,0.1,0.4c0,0.1,0,0.2,0.1,0.3c0,0.1,0.1,0.2,0.1,0.2c0,0.1,0.1,0.2,0.1,0.2c0.1,0.2,0.1,0.4,0.2,0.6
	c0.1,0.2,0.1,0.5,0.2,0.7c0,0.1,0.1,0.3,0.2,0.4l0,0c0,0.1,0,0.1,0.1,0.2c0,0.1,0.1,0.2,0.1,0.2c0.1,0.2,0.1,0.3,0.2,0.5
	c0.1,0.3,0.2,0.6,0.3,0.9l0,0c0.1,0.3,0.2,0.5,0.3,0.8c0.1,0.3,0.2,0.6,0.3,0.9c0,0.1,0.1,0.2,0.1,0.3c0,0,0,0.1,0.1,0.1
	c0.1,0.1,0.1,0.2,0.2,0.3c0.1,0.1,0.1,0.3,0.2,0.4c0.2,0.3,0.3,0.7,0.5,1c0.1,0.2,0.2,0.4,0.2,0.7C274,10.7,274.1,10.8,274.1,10.9
	L274.1,10.9z"/>
<path class="st0" d="M272.2,0.1c0.2,0.4,0.3,0.8,0.4,1.2c0,0.2,0.1,0.4,0.2,0.6c0.1,0.2,0.1,0.4,0.2,0.5c0,0.1,0.1,0.3,0.2,0.4
	c0,0.1,0,0.2,0,0.2c0,0.1,0,0.1,0,0.2c0,0.1,0.1,0.2,0.1,0.3c0,0,0,0.1,0,0.1c0.1,0.3,0.2,0.6,0.4,0.9v0h0c0,0.1,0,0.1,0.1,0.2
	c0,0.1,0.1,0.2,0.1,0.4c0,0.2,0.1,0.3,0.1,0.5c0,0.1,0,0.2,0.1,0.2c0,0.1,0,0.2,0.1,0.2c0,0.2,0.1,0.3,0.2,0.5
	c0,0.1,0.1,0.2,0.1,0.4c0.1,0.3,0.2,0.6,0.4,0.8c0,0,0,0.1,0.1,0.1c0,0,0,0,0,0.1c0.1,0.2,0.2,0.4,0.2,0.5c0.2,0.4,0.4,0.8,0.5,1.2
	c0,0.1,0.1,0.2,0.2,0.4c0.2,0.4,0.4,0.9,0.5,1.4c0,0.2,0.1,0.4,0.2,0.5c0,0.1,0.1,0.2,0.1,0.2c0,0,0,0,0,0c0,0,0,0,0,0
	c0.1,0.2,0.2,0.5,0.3,0.7c0.1,0,0.3,0.1,0.4,0.1c0-0.1-0.1-0.2-0.1-0.3c0-0.2-0.1-0.4-0.3-0.7c-0.2-0.2-0.2-0.6-0.4-0.9
	c-0.1-0.2-0.2-0.4-0.3-0.5c0-0.1-0.1-0.2-0.1-0.3c-0.1-0.2-0.1-0.4-0.2-0.5c-0.3-0.4-0.4-0.9-0.6-1.3c0-0.1-0.1-0.2-0.2-0.3
	c-0.1-0.3-0.3-0.6-0.4-0.9c0-0.3-0.2-0.6-0.3-0.9c-0.1-0.4-0.3-0.8-0.4-1.1c-0.2-0.3-0.3-0.7-0.5-1.1c-0.1-0.2-0.1-0.3-0.1-0.5
	c-0.1-0.4-0.3-0.8-0.5-1.2c-0.1-0.2-0.2-0.4-0.2-0.7c-0.1-0.2-0.1-0.5-0.2-0.7c0,0,0-0.1,0-0.1c0-0.4-0.3-0.8-0.5-1.2h-0.3
	C272.2,0,272.2,0.1,272.2,0.1L272.2,0.1z"/>
<path class="st0" d="M291.3,35.2c0,0,0.1,0.1,0.1,0.2c0.1,0.1,0.1,0.2,0.2,0.3c0.1,0.1,0.2,0.2,0.3,0.3c0,0,0.1,0.1,0.1,0.1l0,0
	C291.9,35.7,291.7,35.4,291.3,35.2C291.4,35.1,291.3,35.1,291.3,35.2L291.3,35.2z"/>
<path class="st0" d="M300,43.2v-0.7c0,0,0,0,0,0c-0.3,0-0.5-0.3-0.6-0.4c-0.3-0.3-0.6-0.6-0.9-0.9c-0.1-0.1-0.1-0.1-0.2-0.2
	c-0.2-0.1-0.4-0.3-0.5-0.5c-0.1-0.2-0.3-0.3-0.5-0.4c-0.2-0.1-0.4-0.3-0.5-0.5c-0.1-0.1-0.2-0.2-0.3-0.3c-0.3-0.3-0.5-0.6-0.8-0.9
	c-0.1-0.1-0.1-0.2-0.2-0.2c-0.4-0.3-0.8-0.7-1.1-1.2c-0.1-0.2-0.3-0.3-0.5-0.5c-0.1-0.1-0.2-0.1-0.2-0.2c-0.1-0.3-0.3-0.4-0.5-0.6
	c-0.1-0.1-0.1-0.1-0.2-0.2c-0.2-0.3-0.4-0.6-0.7-0.9c-0.1-0.2-0.3-0.3-0.5-0.5c-0.1-0.1-0.2-0.2-0.3-0.3c-0.1-0.2-0.2-0.4-0.4-0.5
	c-0.3-0.2-0.5-0.5-0.6-0.8c-0.1-0.2-0.2-0.3-0.3-0.5c-0.3-0.3-0.6-0.6-0.8-0.9c-0.1-0.1-0.2-0.3-0.3-0.4c-0.2-0.3-0.4-0.7-0.7-1
	c-0.3-0.3-0.6-0.6-0.8-1c-0.1-0.2-0.4-0.4-0.5-0.6c-0.1-0.1-0.1-0.1-0.2-0.2c-0.1-0.2-0.2-0.4-0.3-0.5c-0.2-0.3-0.5-0.5-0.7-0.8
	s-0.4-0.6-0.6-0.9c-0.2-0.4-0.5-0.7-0.7-1.1c-0.1-0.2-0.3-0.4-0.5-0.6c-0.3-0.5-0.6-1-1-1.4c-0.2-0.3-0.4-0.5-0.6-0.8
	c0,0-0.1,0-0.1,0c-0.1,0-0.1,0-0.2,0c-0.1,0-0.1,0-0.2,0c0.1,0.2,0.3,0.4,0.4,0.6c0.2,0.2,0.3,0.5,0.5,0.8c0.3,0.4,0.5,0.8,0.8,1.2
	c0.2,0.2,0.3,0.5,0.5,0.7c0.1,0.2,0.3,0.5,0.5,0.7c0.1,0.1,0.1,0.1,0.2,0.2s0.1,0.1,0.2,0.2c0,0.1,0.1,0.1,0.1,0.2
	c0.2,0.2,0.3,0.4,0.4,0.6c0.2,0.4,0.4,0.7,0.7,1c0.1,0.2,0.3,0.3,0.4,0.5c0.1,0.1,0.2,0.3,0.4,0.4c0.1,0,0.1,0.1,0.2,0.2
	c0,0,0,0,0,0c0,0,0.1,0.1,0.1,0.1c0.2,0.3,0.5,0.6,0.7,0.9l0,0l0,0c0.3,0.4,0.6,0.8,0.8,1.1c0.1,0.1,0.1,0.2,0.2,0.3
	c0,0,0.1,0.1,0.1,0.1c0.4,0.5,0.7,0.9,1,1.4c0.1,0.2,0.3,0.4,0.4,0.6c0.1,0.1,0.1,0.2,0.2,0.3c0.2,0.3,0.6,0.6,0.9,0.9
	c0.1,0.1,0.2,0.2,0.3,0.4c0,0,0.1,0.1,0.1,0.2c0,0,0,0,0,0.1c0,0,0,0.1,0.1,0.1c0.2,0.2,0.4,0.4,0.5,0.7c0.1,0.1,0.1,0.2,0.2,0.3
	c0.3,0.4,0.7,0.8,1,1.2c0.2,0.3,0.5,0.6,0.8,0.8c0.2,0.2,0.5,0.5,0.7,0.8c0.1,0.1,0.2,0.3,0.3,0.4l0,0c0.1,0.2,0.3,0.3,0.5,0.5
	c0.1,0.1,0.3,0.2,0.4,0.3c0.1,0.2,0.3,0.3,0.5,0.5c0.2,0.1,0.3,0.3,0.5,0.4c0.3,0.3,0.5,0.6,0.8,0.8c0,0,0.1,0.1,0.1,0.1
	c0.1,0,0.1,0.1,0.2,0.2c0.1,0.1,0.2,0.2,0.3,0.3c0.1,0.1,0.1,0.2,0.2,0.2c0,0,0,0,0.1,0.1c0,0.1,0.1,0.1,0.2,0.2c0,0,0,0,0,0
	c0,0,0.1,0,0.1,0C299.8,43.1,299.9,43.2,300,43.2L300,43.2z"/>
<path class="st0" d="M270,7.6c-0.1,0-0.1,0-0.1,0s0,0,0,0.1c0,0,0.1,0.1,0.1,0.1l0,0C270,7.7,270,7.7,270,7.6
	C270.1,7.6,270.1,7.6,270,7.6C270.1,7.6,270.1,7.6,270,7.6L270,7.6L270,7.6z"/>
<path class="st0" d="M270.4,8.3C270.4,8.3,270.4,8.3,270.4,8.3L270.4,8.3l0-0.1l0-0.1h0l0,0l0,0.1C270.3,8.2,270.4,8.3,270.4,8.3
	L270.4,8.3z"/>
<path class="st0" d="M300,44.4L300,44.4L300,44.4L300,44.4C300,44.3,300,44.3,300,44.4c0-0.1,0-0.2,0-0.2c0-0.1-0.1-0.1-0.2-0.2
	c0,0-0.1,0-0.1-0.1l0,0v0v0C299.8,44.1,299.9,44.2,300,44.4L300,44.4L300,44.4z"/>
<path class="st0" d="M292.6,36.7l-0.2-0.2c0,0,0,0,0,0l0,0c0,0,0,0,0,0c0.3,0.5,0.7,1,1.1,1.4c0,0,0.1,0,0.1,0.1h0l0,0l0,0l0,0
	c0,0,0.1,0,0.1,0c0,0,0-0.1,0-0.1c0,0,0-0.1,0-0.1C293.3,37.5,293,37.1,292.6,36.7L292.6,36.7z"/>
<path class="st0" d="M293.7,38.1L293.7,38.1c0.1,0.1,0.1,0.1,0.1,0.2l0,0c0,0,0,0,0,0C293.9,38.2,293.8,38.2,293.7,38.1L293.7,38.1
	C293.8,38.1,293.7,38.1,293.7,38.1z"/>
<path class="st0" d="M296.4,40.8c-0.2-0.1-0.3-0.3-0.5-0.5c-0.2-0.2-0.4-0.4-0.5-0.6c-0.1-0.1-0.2-0.2-0.2-0.3l-0.1-0.1
	c-0.2-0.2-0.5-0.5-0.7-0.8c0,0-0.1,0-0.1-0.1c0,0,0,0-0.1,0c0,0,0,0,0,0c0,0,0,0,0,0c0,0,0.1,0.1,0.1,0.1c0.4,0.4,0.8,0.8,1.1,1.3
	c0.1,0.2,0.2,0.3,0.4,0.4c0.2,0.1,0.4,0.3,0.6,0.5c0.1,0.1,0.2,0.2,0.2,0.2c0.1,0.1,0.2,0.2,0.3,0.2l0,0c0,0,0.1,0.1,0.1,0.1
	c0,0,0,0,0,0h0c0,0,0-0.1,0-0.1c0-0.1-0.1-0.1-0.1-0.2C296.7,41.1,296.5,41,296.4,40.8L296.4,40.8z"/>
<path class="st0" d="M298.9,43.2c0,0.2,0.1,0.3,0.4,0.5c0.1,0,0.2,0.1,0.4,0.1c-0.1-0.2-0.3-0.3-0.5-0.4
	C299,43.4,298.9,43.3,298.9,43.2L298.9,43.2z"/>
<path class="st0" d="M297.2,41.7c0.1,0.4,0.5,0.7,0.8,0.9l0,0C297.8,42.2,297.5,41.9,297.2,41.7L297.2,41.7z"/>
<path class="st0" d="M291.4,38C291.4,38,291.4,38,291.4,38c-0.1,0-0.1,0-0.1,0c0,0,0,0,0,0c0,0,0,0.1,0,0.1c0,0,0,0,0,0
	c0,0,0,0,0.1,0c0,0,0,0,0.1,0C291.4,38.1,291.4,38.1,291.4,38C291.4,38,291.4,38,291.4,38C291.4,38,291.4,38,291.4,38L291.4,38z"/>
<path class="st0" d="M255.3,14.1C255.3,14.1,255.3,14.1,255.3,14.1c0.1,0,0.1,0,0.3-0.1c-0.1,0-0.1-0.1-0.2,0
	C255.3,14,255.3,14,255.3,14.1L255.3,14.1z"/>
<path class="st0" d="M252.8,13.1c0.1,0.1,0.2,0.1,0.4,0.2l0,0l0,0l0,0l-0.1,0C253,13.1,252.9,13.1,252.8,13.1
	C252.8,13,252.8,13.1,252.8,13.1L252.8,13.1z"/>
<path class="st0" d="M254.6,13.8L254.6,13.8C254.6,13.8,254.6,13.8,254.6,13.8C254.6,13.8,254.6,13.7,254.6,13.8
	C254.6,13.7,254.6,13.7,254.6,13.8L254.6,13.8c0-0.1-0.1-0.1-0.1-0.1c0,0,0,0.1,0,0.1C254.4,13.8,254.5,13.8,254.6,13.8L254.6,13.8z
	"/>
<path class="st0" d="M261,15.7c0.1,0,0.1,0.1,0.2,0c0,0,0.1,0,0.1-0.1c0,0,0,0-0.1,0l0,0C261.2,15.6,261.1,15.6,261,15.7L261,15.7
	L261,15.7C261,15.6,261,15.6,261,15.7C261,15.7,261,15.7,261,15.7L261,15.7z"/>
<path class="st0" d="M260.5,15.4C260.5,15.4,260.5,15.4,260.5,15.4c0,0.1,0.1,0.1,0.2,0.1l0.1,0c0,0,0-0.1,0-0.1L260.5,15.4
	L260.5,15.4L260.5,15.4L260.5,15.4z"/>
<path class="st0" d="M245.8,10.1C245.8,10.1,245.7,10.1,245.8,10.1l0.1,0.1h0c0.1,0,0.1,0.1,0.2,0.1c0,0,0,0,0-0.1
	C245.9,10.1,245.9,10,245.8,10.1L245.8,10.1z"/>
<path class="st0" d="M243.9,9.2L243.9,9.2C243.9,9.2,243.9,9.2,243.9,9.2C243.9,9.2,244,9.3,243.9,9.2c0.1,0.1,0.1,0.1,0.1,0.1
	c0,0,0,0,0,0C244,9.2,244,9.2,243.9,9.2L243.9,9.2L243.9,9.2L243.9,9.2z"/>
<path class="st0" d="M242.3,8.4L242.3,8.4c0,0.1,0.1,0.1,0.3,0.1C242.5,8.5,242.5,8.5,242.3,8.4C242.4,8.5,242.4,8.4,242.3,8.4
	L242.3,8.4L242.3,8.4z"/>
<path class="st0" d="M250,12L250,12C250,12,250,12.1,250,12l0.1,0.1l0.1,0c0,0,0,0,0,0c0,0,0,0,0,0C250.2,12.1,250.1,12,250,12
	L250,12L250,12z"/>
<path class="st0" d="M262,15.7L262,15.7L262,15.7C262,15.8,262,15.8,262,15.7c0.1,0.2,0.1,0.2,0.2,0.1c0,0,0.1,0,0.1-0.1l-0.1,0
	C262.2,15.7,262.1,15.7,262,15.7L262,15.7z"/>
<path class="st0" d="M244.9,9.7c0,0-0.1,0-0.1,0.1c0,0,0,0-0.1,0c0,0,0.1,0,0.1,0c0.1,0,0.1,0,0.2,0c0,0,0.1,0,0.1-0.1
	c0,0-0.1,0-0.1,0C245.1,9.7,245,9.7,244.9,9.7C245,9.7,245,9.7,244.9,9.7L244.9,9.7z"/>
<path class="st0" d="M263,14c-0.5-0.1-1.1-0.3-1.7-0.4c0,0-0.1,0-0.1,0c0,0,0,0,0,0c0,0,0,0,0,0c0,0,0.1,0.1,0.1,0.1
	c0.1,0,0.2,0.1,0.4,0.1c0.1,0,0.3,0.1,0.5,0.1c0.4,0.1,0.7,0.2,1.2,0.3c0,0,0.1,0,0.1,0c0,0,0,0,0.1-0.1c0,0,0,0,0,0c0,0,0,0,0,0
	C263.3,14.1,263.1,14.1,263,14L263,14z"/>
<path class="st0" d="M268.9,17.2C268.9,17.2,268.9,17.2,268.9,17.2L268.9,17.2L268.9,17.2c-0.1-0.1-0.2-0.1-0.3-0.2l0,0c0,0,0,0,0,0
	l0,0l0,0c0,0,0,0,0,0C268.6,17.2,268.8,17.2,268.9,17.2L268.9,17.2z"/>
<path class="st0" d="M287.6,36.1c0.1,0.1,0.1,0.1,0.2,0.2C287.8,36.2,287.8,36.2,287.6,36.1C287.7,36.1,287.7,36.1,287.6,36.1
	L287.6,36.1z"/>
<path class="st0" d="M286.8,34.7C286.8,34.7,286.7,34.7,286.8,34.7L286.8,34.7L286.8,34.7c0,0.1,0,0.1,0,0.1c0,0,0,0,0,0
	c0,0,0,0,0,0c0,0,0,0,0,0l0,0L286.8,34.7L286.8,34.7L286.8,34.7L286.8,34.7z"/>
<path class="st0" d="M294,43.3c0,0.1,0.1,0.2,0.2,0.3c0,0,0.1,0,0.2,0c-0.1-0.2-0.1-0.2-0.2-0.3C294.1,43.3,294.1,43.3,294,43.3
	L294,43.3z"/>
<path class="st0" d="M294.9,42.8C294.9,42.8,294.9,42.8,294.9,42.8c0.1,0.1,0.1,0.1,0.1,0.1l0,0c0,0,0,0,0,0
	c0.3,0.1,0.4,0.3,0.6,0.6c0,0.1,0.1,0.1,0.1,0.2c0,0,0,0,0.1,0.1c0,0,0,0,0.1,0c0.1,0.1,0.1,0.1,0.2,0.2c0.1,0.1,0.2,0.2,0.3,0.3
	c0,0,0,0.1,0.1,0.1c0,0,0,0,0,0c0,0,0.1,0,0.1,0c0.2,0.1,0.4,0.3,0.5,0.5c0,0,0,0.1,0,0.1c0.1,0.1,0.2,0.2,0.3,0.3
	c0.1,0.1,0.3,0.1,0.4,0.2c0.2,0.2,0.4,0.3,0.5,0.4c0.1,0.1,0.2,0.2,0.3,0.4l0,0c0,0,0,0,0.1,0.1c0.1,0.2,0.4,0.3,0.5,0.5
	c0.2,0.1,0.4,0.3,0.6,0.5c0,0,0,0,0.1,0.1c0,0,0,0,0,0v-0.6l0,0c-0.3-0.3-0.5-0.5-0.8-0.6c0,0,0,0,0,0l0,0c-0.1,0-0.2-0.1-0.2-0.2
	c0,0-0.1-0.1-0.1-0.1c-0.1-0.1-0.2-0.2-0.3-0.3l0,0c0,0-0.1-0.1-0.1-0.1c0,0,0,0,0,0s0,0,0.1-0.1c0,0,0,0,0-0.1c0,0-0.1-0.1-0.1-0.1
	c0,0-0.1,0-0.1,0c-0.1,0-0.1,0-0.2,0c-0.2-0.1-0.3-0.2-0.4-0.4c0,0,0,0,0,0c0-0.1-0.1-0.1-0.2-0.2c0,0,0,0,0,0c0,0,0,0,0,0
	c0,0-0.1-0.1-0.1-0.1c0-0.1-0.1-0.2-0.2-0.2c0,0-0.1,0-0.1,0c0,0,0,0-0.1,0c0,0,0,0,0,0c-0.1-0.1-0.2-0.2-0.3-0.3
	c-0.1-0.1-0.3-0.2-0.3-0.4c0,0,0-0.1,0-0.2c0-0.1,0-0.2-0.1-0.2c0,0,0,0-0.1,0c0,0-0.1,0-0.1,0c0,0-0.1,0-0.1,0s-0.1,0-0.1-0.1
	s0,0,0,0l0,0l0,0c-0.1-0.1-0.3-0.2-0.4-0.3c0,0,0,0-0.1,0c0,0-0.1,0-0.1-0.1c-0.1-0.2-0.3-0.3-0.4-0.5l0,0c0-0.1-0.1-0.1-0.1-0.2
	c0,0,0,0,0,0c0,0,0,0,0,0c-0.2-0.1-0.3-0.2-0.4-0.3c-0.1-0.1-0.2-0.2-0.3-0.3c-0.1-0.1-0.3-0.2-0.3-0.4c0-0.1-0.1-0.2-0.1-0.2l0,0
	c-0.1-0.1-0.1-0.1-0.1-0.2c0,0,0-0.1,0-0.1c0,0,0,0,0,0c0,0-0.1,0-0.1,0h0l0,0.1c0,0,0,0.1,0,0.1l0,0c0,0,0,0,0,0c0,0,0,0,0,0
	c0,0,0,0,0,0c0,0,0-0.1-0.1-0.2c0-0.1-0.1-0.2-0.1-0.2c0,0,0,0,0-0.1c0,0,0-0.1-0.1-0.1c0,0-0.1,0-0.1,0c0,0,0,0,0,0c0,0,0,0,0,0
	c0-0.2-0.1-0.2-0.2-0.3c0,0-0.1-0.1-0.1-0.1c0,0,0,0,0,0l0,0c0,0-0.1-0.1-0.1-0.2c0,0-0.1-0.1-0.1-0.1c-0.1-0.2-0.2-0.3-0.4-0.4
	c-0.1,0-0.1-0.1-0.1-0.2c0,0,0-0.1,0-0.1h0c0,0,0,0,0,0c0,0,0-0.1,0-0.1c-0.1-0.2-0.3-0.4-0.5-0.5c0,0,0,0.1-0.1,0.1
	c-0.1-0.1-0.1-0.2-0.1-0.3c0-0.1,0-0.3-0.2-0.3c0,0,0,0.1-0.1,0.1l0,0.1c-0.1-0.1-0.1-0.2-0.2-0.4c-0.1-0.1-0.1-0.2-0.2-0.3h0
	c0.1,0.1,0.1,0.1,0.2,0.2h0c0,0,0,0,0,0c-0.1-0.1-0.1-0.2-0.2-0.2l0,0c0,0-0.1,0-0.1,0.1c-0.3-0.2-0.7-0.6-0.9-1
	c0-0.1-0.1-0.1-0.2-0.2c0,0-0.1-0.1-0.1-0.1c0,0,0,0,0,0c-0.1,0-0.1-0.1-0.1-0.2c-0.1-0.4-0.4-0.6-0.6-0.9c0,0-0.1-0.1-0.1-0.1
	c0,0,0,0,0-0.1l0,0c0,0,0,0,0,0c0,0,0,0,0.1,0c0,0,0.1,0,0.1-0.1c0,0-0.1,0-0.1-0.1c0,0-0.1-0.1-0.1-0.1c0,0,0,0,0,0
	c0,0-0.1,0-0.1,0c-0.2-0.1-0.2-0.2-0.3-0.3c-0.1-0.1-0.2-0.3-0.2-0.4c-0.2-0.3-0.4-0.5-0.5-0.7c-0.1-0.1-0.2-0.2-0.3-0.3
	c0,0-0.1-0.1-0.1-0.1c0.1-0.1,0.1-0.2,0-0.4c-0.1-0.1-0.2-0.3-0.4-0.3c0,0-0.1,0-0.1,0c0-0.2-0.1-0.5-0.4-0.6
	c-0.2-0.1-0.3-0.3-0.5-0.5l0.3,0.1c0,0,0,0,0,0c0,0,0,0,0,0c0,0,0-0.1,0-0.1c-0.1-0.1-0.2-0.2-0.3-0.3l0,0c0,0,0,0-0.1,0
	c0,0-0.1,0-0.1,0c0,0-0.1-0.2-0.3-0.3h0l0.2,0c-0.1-0.1-0.2-0.2-0.2-0.4l-0.1-0.1h0c0,0,0,0,0,0l0,0.1l0,0.1c0-0.1-0.1-0.1-0.2-0.2
	c-0.1-0.1-0.2-0.2-0.3-0.4c0-0.1-0.1-0.1-0.2-0.2c0,0-0.1-0.1-0.1-0.1v-0.1v-0.1c-0.1,0-0.2,0-0.2-0.1c-0.1-0.1-0.2-0.2-0.3-0.4
	c0-0.1-0.1-0.2-0.2-0.2c0,0-0.1-0.1-0.1-0.1c-0.1-0.1-0.2-0.2-0.1-0.4c0-0.1,0-0.2-0.1-0.2c0,0,0,0-0.1,0c-0.1,0-0.1,0-0.1,0
	c-0.1,0-0.1-0.1-0.2-0.3c0-0.1-0.1-0.1-0.1-0.2c-0.1-0.2-0.2-0.4-0.4-0.5c-0.1,0-0.1-0.1-0.1-0.2c0,0,0,0,0-0.1c0,0,0,0,0,0l0,0
	c-0.3-0.4-0.7-0.7-0.8-1.2c0-0.1-0.1-0.2-0.1-0.2c0,0-0.1-0.1-0.1-0.1c0,0,0,0,0,0c0,0,0.1,0,0.1,0c0-0.1,0-0.1-0.1-0.2
	c0,0-0.1,0-0.2,0c0,0,0,0.1,0,0.1c-0.1-0.1-0.2-0.2-0.2-0.3c0-0.1,0-0.2-0.1-0.2c0,0-0.1-0.1-0.1-0.2c-0.1-0.1-0.1-0.3-0.3-0.4
	c0,0-0.1-0.1-0.1-0.2c0,0,0-0.1,0-0.1c0,0,0.1,0,0.1-0.1h0c0-0.2-0.2-0.2-0.3-0.3c0,0,0,0-0.1,0c0,0,0,0-0.1,0c-0.2,0-0.4,0-0.6,0
	c0,0.1,0.1,0.1,0.1,0.2c0,0.1,0.1,0.1,0.2,0.2c0,0,0.1,0.1,0.1,0.1c0,0,0,0,0,0c0,0,0.1,0.1,0.1,0.2c0,0.2,0.2,0.4,0.3,0.6
	c0,0.1,0.1,0.1,0.1,0.2c0.1,0.1,0.2,0.2,0.3,0.4c0.1,0.1,0.2,0.2,0.2,0.3c0.1,0.1,0.2,0.2,0.2,0.4c0,0.1,0.1,0.1,0.1,0.2
	c0,0,0,0,0,0l0,0c0.1,0.1,0.1,0.2,0.2,0.3c0.3,0.3,0.4,0.6,0.6,0.9v0l0,0c0,0,0,0.1,0.1,0.1c0,0.1,0.1,0.1,0.2,0.2
	c0.1,0.2,0.3,0.4,0.4,0.5c0.1,0.1,0.2,0.2,0.3,0.4c0,0.1,0.1,0.2,0.2,0.3c0.1,0.1,0.1,0.2,0.2,0.3c0.1,0.2,0.3,0.5,0.5,0.6
	c0,0,0.1,0,0.1,0.1l0,0c0,0.2,0.1,0.4,0.3,0.5c0,0,0,0,0,0c0.1,0.2,0.2,0.4,0.3,0.5c0.1,0.1,0.1,0.1,0.2,0.2c0,0,0.1,0.1,0.1,0.1
	c0.1,0.1,0.2,0.2,0.3,0.4c0,0,0,0,0,0c0.1,0.1,0.2,0.3,0.3,0.5c0,0.1,0.1,0.1,0.1,0.1c0,0,0,0,0,0c0.5,0.5,0.9,1,1.3,1.4l0,0
	l-0.1,0.1l0,0.1c0,0,0,0,0,0c0,0,0,0,0,0l0,0c0.4,0.2,0.6,0.5,0.8,0.9l0,0c0,0,0.1,0.1,0.1,0.2c0,0,0,0,0,0c0,0,0,0,0,0.1
	c0.2,0.2,0.5,0.4,0.6,0.7c0.1,0.1,0.2,0.3,0.3,0.4c0.1,0.1,0.2,0.2,0.3,0.4c0.1,0.1,0.1,0.2,0.2,0.3c0.1,0.1,0.2,0.2,0.3,0.4
	c0.4,0.5,0.8,1,1.2,1.4h0c0,0,0.1,0.1,0.1,0.1c0.1,0.3,0.3,0.5,0.5,0.7c0.1,0.2,0.3,0.3,0.4,0.5c0,0,0,0,0,0l0,0
	c0.1,0.1,0.1,0.2,0.2,0.3c0.1,0.2,0.2,0.3,0.4,0.5l0,0c0,0.1,0.1,0.1,0.1,0.2l0,0l0,0c0,0.1,0.1,0.1,0.2,0.2c0,0.1,0.1,0.1,0.2,0.2
	c0,0,0.1,0.1,0.1,0.1l0,0c0.1,0.1,0.1,0.1,0.2,0.2c0,0,0,0,0,0.1c0,0,0,0.1,0.1,0.1l0,0c0,0,0,0,0.1,0c0.1,0,0.1,0.1,0.2,0.2
	c0.1,0.2,0.1,0.2,0.3,0.3c0,0,0,0,0,0l0,0c0,0,0,0,0,0c0,0,0,0,0.1,0l0.1,0.1c0.2,0.2,0.3,0.4,0.5,0.6c0.1,0.1,0.2,0.3,0.3,0.4
	c0.1,0.2,0.2,0.3,0.3,0.4c0.1,0.1,0.2,0.2,0.3,0.2c0.2,0.1,0.4,0.3,0.5,0.5C294.6,42.6,294.7,42.8,294.9,42.8L294.9,42.8z M291,38.1
	C291,38.1,291,38.1,291,38.1c-0.1-0.1-0.2-0.2-0.3-0.3C290.9,37.8,290.9,37.9,291,38.1C291,38.1,291,38.1,291,38.1L291,38.1
	L291,38.1z"/>
<path class="st0" d="M293,42.4L293,42.4c0.1,0.2,0.2,0.2,0.3,0.3c-0.1-0.2-0.1-0.3-0.2-0.3C293.1,42.4,293.1,42.4,293,42.4L293,42.4
	z"/>
<path class="st0" d="M277.5,22.4c-0.1,0-0.2,0-0.2,0.1c0,0,0,0.1,0,0.1c0,0.1,0.1,0.1,0.1,0.1c0,0,0,0,0,0c0.1,0,0.2,0,0.2-0.1
	C277.7,22.6,277.7,22.4,277.5,22.4C277.6,22.4,277.6,22.4,277.5,22.4L277.5,22.4z"/>
<path class="st0" d="M269.5,17.2c0.2,0.2,0.3,0.2,0.5,0.1c0,0,0,0,0,0h0l0,0C269.8,17.3,269.7,17.3,269.5,17.2L269.5,17.2z"/>
<path class="st0" d="M271.3,17.7l0.3,0.1l0-0.1c0,0,0,0,0,0c-0.1-0.1-0.3-0.2-0.5-0.1l0,0l0,0c0,0-0.1,0-0.1,0.1L271.3,17.7
	L271.3,17.7z"/>
<path class="st0" d="M229.6,0.9C229.6,0.9,229.6,0.9,229.6,0.9c0,0,0.1,0.1,0.1,0.1c0.1,0,0.1,0.1,0.2,0.1c0,0,0,0,0,0
	C229.8,0.9,229.8,0.9,229.6,0.9z"/>
<path class="st0" d="M273.6,17.5c0.1,0,0.2,0,0.2,0c0,0-0.1-0.1-0.1-0.2c0,0,0-0.1,0-0.1c0,0,0,0-0.1,0c-0.1,0-0.2-0.1-0.4-0.1
	c0,0-0.1,0-0.1,0c0,0-0.1,0-0.1,0c-0.3,0-0.6,0-0.9-0.1c-0.1,0-0.2-0.1-0.3-0.1c-0.4-0.1-0.8-0.2-1.2-0.2c0,0-0.1,0-0.1,0l0,0
	c-0.3,0-0.6,0-0.9-0.2c-0.2-0.1-0.5-0.1-0.8-0.2c-0.1,0-0.1,0-0.2,0c-0.1,0-0.3,0-0.4-0.1c-0.3,0-0.7-0.1-1-0.2
	c-0.1,0-0.2-0.1-0.3-0.1l0,0c0,0,0,0-0.1,0c-0.4,0-0.7-0.1-1.1-0.2c-0.2-0.1-0.5-0.1-0.7-0.1c-0.1,0-0.2,0-0.3,0c0,0,0,0-0.1,0
	c-0.1,0-0.2,0-0.3-0.1c-0.4-0.1-0.7-0.2-1.2-0.3c-0.2,0-0.4-0.1-0.7-0.2c-0.2-0.1-0.4-0.1-0.7-0.2c-0.1,0-0.3-0.1-0.4-0.1
	c-0.1,0-0.2-0.1-0.4-0.1c-0.2,0-0.4-0.1-0.5-0.1c-0.2-0.1-0.4-0.1-0.6-0.2c-0.1,0-0.2-0.1-0.3-0.1h0c0,0,0,0-0.1,0
	c-0.2,0.1-0.4,0-0.6-0.1c-0.1,0-0.1-0.1-0.2-0.1c-0.3-0.1-0.6-0.1-0.9-0.2h0c-0.1,0-0.3-0.1-0.4-0.1c0,0,0,0,0,0c0,0,0,0-0.1,0
	c-0.1,0-0.1-0.1-0.2-0.1c-0.1-0.1-0.3-0.1-0.4-0.1c-0.2,0-0.3,0-0.4-0.1c0,0-0.1,0-0.1-0.1c-0.1,0-0.2-0.1-0.2-0.1
	c-0.1,0-0.2-0.1-0.3-0.1h0c-0.3-0.1-0.5-0.2-0.8-0.3c-0.4-0.1-0.7-0.2-1-0.3h0c-0.1-0.1-0.2-0.1-0.3-0.2c-0.1-0.1-0.2-0.1-0.3-0.2
	c-0.3-0.1-0.6-0.2-0.9-0.3l0,0c-0.2-0.1-0.3-0.1-0.5-0.1c-0.1,0-0.1,0-0.1-0.1c0,0-0.1,0-0.1,0c-0.2-0.1-0.4-0.2-0.6-0.3l0,0
	c-0.5-0.2-1-0.4-1.5-0.6c-0.3-0.1-0.6-0.3-0.8-0.5c-0.1-0.1-0.1-0.1-0.2,0c0,0-0.1,0-0.1,0c-0.1,0-0.1-0.1-0.2-0.1
	c-0.1-0.1-0.2-0.1-0.4-0.2c-0.4-0.2-0.8-0.4-1.2-0.6c-0.1,0-0.1,0-0.1-0.1h0c-0.3-0.1-0.6-0.2-0.8-0.4c-0.1-0.1-0.2-0.1-0.3-0.1
	c-0.2-0.1-0.4-0.2-0.6-0.3c-0.1,0-0.1-0.1-0.2-0.1c0,0-0.1-0.1-0.1-0.1c-0.1-0.1-0.2-0.1-0.3-0.1c-0.1-0.1-0.3-0.1-0.4-0.2
	c-0.2-0.1-0.3-0.2-0.5-0.3c-0.1-0.1-0.2-0.2-0.4-0.2c-0.2-0.1-0.4-0.2-0.6-0.3l0,0c-0.2-0.1-0.5-0.3-0.7-0.4
	c-0.2-0.1-0.4-0.2-0.6-0.3c-0.3-0.1-0.6-0.3-0.9-0.5c-0.1-0.1-0.2-0.1-0.3-0.2c-0.1,0-0.1,0-0.2-0.1c0,0,0,0-0.1,0
	c0,0-0.1,0-0.1-0.1c-0.1-0.1-0.3-0.2-0.4-0.3c-0.3-0.2-0.6-0.4-0.9-0.6c-0.1-0.1-0.3-0.2-0.4-0.3c-0.3-0.2-0.6-0.4-1-0.5
	c-0.1,0-0.2-0.1-0.3-0.1c0,0-0.1,0-0.1-0.1c-0.1,0-0.1-0.1-0.2-0.1c-0.2-0.1-0.4-0.2-0.6-0.3c-0.2-0.1-0.3-0.2-0.5-0.3
	c-0.1-0.1-0.2-0.2-0.4-0.2l-0.1,0c-0.3-0.2-0.7-0.4-1-0.6c-0.1-0.1-0.2-0.2-0.4-0.2c-0.2-0.1-0.3-0.2-0.5-0.3
	c-0.1-0.1-0.2-0.2-0.4-0.3c-0.1-0.1-0.3-0.2-0.4-0.3c-0.1,0-0.2-0.1-0.2-0.2c-0.2-0.1-0.3-0.3-0.6-0.3c0,0-0.1,0-0.1-0.1
	c0,0,0,0,0,0c-0.1-0.1-0.1-0.1-0.2-0.2c-0.1-0.1-0.3-0.2-0.4-0.3h-1.1c0.2,0.2,0.5,0.4,0.8,0.6c0.1,0.1,0.2,0.1,0.2,0.1
	c0.1,0,0.1,0.1,0.2,0.1c0.4,0.3,0.9,0.5,1.3,0.8c0,0,0.1,0,0.1,0.1c0,0,0.1,0,0.1,0.1c0.1,0,0.1,0.1,0.1,0.1
	c0.1,0.1,0.2,0.2,0.4,0.2c0.2,0.1,0.5,0.3,0.7,0.5c0.1,0.1,0.1,0.1,0.2,0.1c0.6,0.3,1.2,0.6,1.7,1l0.1,0c0.3,0.2,0.6,0.4,0.9,0.5
	c0.2,0.1,0.4,0.2,0.5,0.3c0,0,0.1,0.1,0.1,0.1c0.1,0.1,0.2,0.2,0.3,0.2c0.1,0.1,0.2,0.1,0.3,0.2c0.1,0.1,0.1,0.1,0.2,0.1
	c0.1,0,0.1,0.1,0.2,0.1c0.2,0.1,0.4,0.2,0.6,0.4c0.2,0.1,0.4,0.2,0.6,0.4c0.1,0.1,0.3,0.1,0.4,0.2l0,0c0.1,0,0.1,0.1,0.2,0.1
	c0.1,0,0.1,0.1,0.2,0.1c0.1,0.1,0.3,0.2,0.4,0.2c0.3,0.2,0.6,0.3,0.8,0.5l0,0c0.2,0.1,0.5,0.3,0.7,0.4c0.3,0.2,0.6,0.3,0.8,0.4
	c0.1,0,0.2,0.1,0.3,0.1c0.1,0,0.1,0,0.1,0.1c0.1,0,0.2,0.1,0.4,0.1c0.1,0.1,0.3,0.1,0.4,0.2c0.3,0.1,0.7,0.3,1,0.5
	c0.2,0.1,0.4,0.2,0.6,0.3c0.1,0.1,0.2,0.1,0.4,0.2c0.1,0.1,0.3,0.1,0.4,0.2c0.1,0,0.1,0,0.2,0.1c0.2,0.1,0.4,0.1,0.6,0.4
	c0.1,0.1,0.2,0.1,0.4,0.2c0.4,0.1,0.7,0.2,1,0.4c0.1,0.1,0.3,0.1,0.4,0.2c0.1,0,0.2,0.1,0.3,0.1c0.1,0,0.2,0.1,0.2,0.1l0,0
	c0.3,0.1,0.6,0.2,0.9,0.4c0.3,0.2,0.6,0.3,0.9,0.4c0.1,0,0.1,0,0.2,0c0.1,0,0.1,0,0.2,0c0.1,0,0.1,0,0.1,0c0.1,0,0.3,0.1,0.4,0.1
	c0.3,0.2,0.6,0.3,1,0.4c0,0,0.1,0,0.1,0c0.2,0.1,0.4,0.1,0.6,0.2c0.1,0,0.2,0.1,0.3,0.1l0.1,0c0.1,0,0.2,0.1,0.3,0.1
	c0.2,0.1,0.4,0.1,0.6,0.2h0c0.1,0,0.2,0.1,0.3,0.1c0,0,0.1,0,0.1,0c0,0,0.1,0,0.1,0c0.4,0.1,0.8,0.2,1.1,0.3
	c0.4,0.1,0.8,0.3,1.2,0.3c0.2,0,0.4,0.1,0.5,0.2c0.1,0,0.2,0.1,0.3,0.1c0.1,0,0.2,0.1,0.3,0.1c0,0,0.1,0,0.2,0c0,0,0.1,0,0.1,0l0,0
	c0.1,0,0.2,0,0.3,0.1c0.2,0.1,0.4,0.1,0.6,0.2l0,0c0.3,0.1,0.6,0.2,0.9,0.3c0.1,0,0.2,0.1,0.3,0.1c0.1,0,0.2,0,0.3,0.1
	c0.2,0,0.4,0.1,0.5,0.1c0.2,0.1,0.5,0.1,0.7,0.2c0.1,0,0.3,0.1,0.5,0.1c0.2,0,0.3,0.1,0.5,0.1c0.1,0,0.2,0.1,0.4,0.1
	c0.1,0,0.1,0.1,0.2,0.1c0.1,0.1,0.3,0.1,0.4,0.1c0.5,0.1,0.9,0.2,1.3,0.2c0.1,0,0.2,0,0.3,0c0,0,0.1,0,0.1,0c0,0,0,0,0.1,0
	c0,0,0.1,0,0.2,0c0.4,0.1,0.8,0.2,1.2,0.3c0.3,0.1,0.6,0.2,0.9,0.2l0,0c0.2,0.1,0.5,0.1,0.7,0.2c0.1,0,0.2,0,0.2,0
	c0.5,0,1,0.1,1.4,0.3l0,0c0.1,0,0.2,0,0.2,0.1c0.5,0.1,0.9,0.2,1.4,0.3C273.2,17.4,273.4,17.5,273.6,17.5L273.6,17.5z"/>
<path class="st0" d="M272.7,17.9L272.7,17.9L272.7,17.9L272.7,17.9c0,0.1,0.1,0.1,0.1,0.1c0,0,0,0,0,0l0,0
	C272.9,17.9,272.8,17.9,272.7,17.9L272.7,17.9L272.7,17.9z"/>
<path class="st0" d="M281.4,25.2L281.4,25.2L281.4,25.2c-0.1,0-0.1,0-0.1,0c0,0,0.1,0.1,0.1,0.1l0.1,0.1c0,0,0,0,0.1-0.1L281.4,25.2
	L281.4,25.2z"/>
<path class="st0" d="M281.8,25.8C281.8,25.8,281.8,25.8,281.8,25.8L281.8,25.8c-0.1-0.1-0.2-0.2-0.2-0.2l0,0l0,0c0,0,0,0,0,0
	c0,0,0,0,0,0c0,0.1,0.1,0.1,0.1,0.1C281.7,25.8,281.8,25.8,281.8,25.8L281.8,25.8z"/>
<path class="st0" d="M286.3,31.7C286.3,31.7,286.3,31.7,286.3,31.7L286.3,31.7L286.3,31.7C286.3,31.7,286.3,31.7,286.3,31.7
	c-0.1,0.2,0,0.3,0.1,0.3c0,0,0,0,0.1,0h0l-0.1-0.1C286.4,31.8,286.4,31.8,286.3,31.7L286.3,31.7L286.3,31.7z"/>
<path class="st0" d="M286.9,32.4c0,0.2,0.1,0.3,0.3,0.4c0,0,0,0,0,0l0,0v0C287.1,32.7,287,32.6,286.9,32.4L286.9,32.4z"/>
<path class="st0" d="M282.2,26.4C282.2,26.4,282.2,26.4,282.2,26.4c0,0.1,0,0.2,0.1,0.2c0,0,0.1,0,0.2,0l-0.1-0.1
	C282.4,26.5,282.3,26.4,282.2,26.4L282.2,26.4L282.2,26.4L282.2,26.4z"/>
<path class="st0" d="M270.5,14.9c0.1,0,0.1,0,0.2,0c0.6,0.1,1.1,0.2,1.6,0.4c0.1,0.1,0.3,0.1,0.4,0.1c-0.1-0.2-0.2-0.4-0.2-0.6
	c0,0,0,0,0,0c-0.1,0-0.1-0.1-0.2-0.1c-0.2-0.1-0.4-0.1-0.5-0.2c-0.4-0.1-0.8-0.1-1.2-0.1c-0.2,0-0.3-0.1-0.5-0.1
	c-0.4-0.1-0.8-0.2-1.2-0.3c-0.4,0-0.8-0.1-1.2-0.2c-0.2-0.1-0.5-0.1-0.8-0.1c-0.1,0-0.2,0-0.3-0.1c-0.2-0.1-0.4-0.2-0.6-0.2
	c-0.4,0-0.7-0.1-1-0.1c-0.4-0.1-0.7-0.2-1-0.3c-0.4-0.1-0.8-0.2-1.2-0.3c-0.3-0.1-0.5-0.1-0.8-0.1c-0.6-0.1-1.1-0.3-1.7-0.4
	c-0.4-0.1-0.8-0.2-1.2-0.3c-0.4-0.1-0.7-0.2-1.1-0.3c-0.1,0-0.1-0.1-0.2-0.1c-0.1,0-0.2-0.1-0.4-0.1c-0.1,0-0.2,0-0.3-0.1
	c-0.1-0.1-0.2-0.1-0.4-0.2c-0.2-0.1-0.3-0.2-0.2-0.4c0-0.1,0-0.1,0-0.1c0-0.1-0.1-0.1-0.2,0s-0.1,0.2-0.2,0.3c-0.6,0-1-0.3-1.6-0.3
	c0.1-0.2,0.1-0.3,0-0.4c-0.1-0.1,0-0.2,0.2-0.2c-0.1-0.1-0.1-0.3-0.2-0.4c-0.2,0.2-0.3,0.3-0.4,0.4c0,0.1,0.1,0.2,0.1,0.3
	c-0.1,0-0.1,0-0.2,0c-0.1,0-0.3-0.1-0.4-0.1c-0.1,0-0.2-0.1-0.2-0.1c0,0-0.1-0.1-0.1-0.1c-0.5,0-0.9-0.3-1.3-0.4
	c-0.6-0.2-1.2-0.5-1.8-0.7c-0.1-0.1-0.3-0.1-0.4-0.2c-0.2-0.1-0.4-0.2-0.7-0.3c-0.3,0-0.6-0.3-0.8-0.4c-0.2-0.1-0.4-0.2-0.6-0.2
	c-0.1,0-0.2-0.1-0.3-0.1c-0.2-0.1-0.3-0.2-0.5-0.3c-0.5-0.1-0.9-0.4-1.3-0.6c-0.1-0.1-0.2-0.1-0.3-0.1c-0.3-0.2-0.6-0.2-0.9-0.4
	c-0.2-0.2-0.6-0.3-0.8-0.5c-0.4-0.2-0.7-0.4-1.1-0.6c-0.4-0.2-0.7-0.3-1.1-0.5c-0.1-0.1-0.2-0.2-0.4-0.3c-0.4-0.2-0.8-0.4-1.1-0.6
	c-0.2-0.1-0.4-0.2-0.6-0.3c-0.2-0.1-0.4-0.3-0.6-0.4c0,0-0.1,0-0.1,0c-0.4-0.4-0.9-0.5-1.4-0.7c-0.2-0.1-0.4-0.2-0.7-0.4
	c-0.1-0.1-0.1-0.1-0.2-0.2c-0.1-0.1-0.1-0.1-0.3-0.1c-0.1,0-0.2,0-0.3-0.1c-0.2-0.2-0.5-0.4-0.8-0.5c-0.3-0.1-0.6-0.3-0.8-0.5
	c-0.1-0.1-0.2-0.1-0.3-0.2h-0.5c0,0,0.1,0.1,0.1,0.1c0.1,0,0.1,0.1,0.2,0.2c0,0,0.1,0.1,0.1,0.1c0.1,0.1,0.1,0.1,0.2,0.1
	c0.1,0,0.1,0.1,0.2,0.1c0.1,0.1,0.3,0.1,0.4,0.2h0c0.5,0.3,1,0.6,1.4,1c0.1,0,0.1,0.1,0.1,0.1l0,0c0.3,0.2,0.6,0.4,1,0.6
	c0.4,0.2,0.8,0.4,1.1,0.7c0.2,0.1,0.4,0.2,0.5,0.4c0.2,0.1,0.4,0.2,0.5,0.3c0.1,0.1,0.3,0.1,0.4,0.2c0.1,0,0.1,0.1,0.2,0.1
	c0.1,0,0.1,0.1,0.1,0.1c0.1,0.1,0.2,0.1,0.2,0.1c0,0,0.1,0,0.1,0.1c0.3,0.2,0.6,0.3,0.9,0.5h0v0c0.1,0,0.1,0.1,0.2,0.1
	c0.1,0.1,0.2,0.1,0.4,0.2c0.1,0.1,0.3,0.2,0.4,0.3c0.1,0,0.1,0.1,0.2,0.1c0.1,0,0.1,0.1,0.2,0.1c0.1,0.1,0.3,0.2,0.4,0.3
	c0.1,0.1,0.2,0.1,0.4,0.2c0.3,0.2,0.5,0.3,0.9,0.4c0.1,0,0.1,0,0.1,0.1c0,0,0,0,0.1,0c0.2,0.1,0.4,0.2,0.5,0.2
	c0.4,0.2,0.8,0.4,1.2,0.6c0.1,0.1,0.2,0.1,0.4,0.2c0.4,0.2,0.9,0.4,1.3,0.7c0.2,0.1,0.4,0.2,0.5,0.2c0.1,0,0.2,0.1,0.3,0.1
	c0,0,0,0,0,0s0,0,0,0c0.3,0.2,0.7,0.3,1,0.5c0.2,0.1,0.3,0.2,0.5,0.2c0,0,0,0,0,0c0,0,0.1,0,0.1,0c0.3,0,0.6,0.2,0.8,0.4
	c0,0,0.1,0.1,0.1,0.1c0.1,0.1,0.2,0.1,0.4,0.2c0,0,0.1,0,0.1,0c0.1,0.1,0.3,0.1,0.4,0.1c0.1,0,0.2,0.1,0.2,0.1c0,0,0,0,0.1,0
	c0,0,0.1,0,0.1,0l0,0c0,0,0,0,0.1,0c0.2-0.1,0.3,0,0.4,0.1c0.2,0.1,0.3,0.1,0.5,0.2c0.1,0,0.2,0.1,0.3,0.1c0.1,0,0.2,0.1,0.2,0.1
	s0.2,0.1,0.2,0.1c0.3,0.1,0.6,0.2,0.9,0.3l0,0c0.1,0,0.2,0.1,0.4,0.1c0,0.1,0,0.1,0,0.1c0,0.1,0,0.2,0.1,0.3c0,0.1,0.1,0.1,0.2,0.2
	c0,0,0.1,0.1,0.1,0.1c-0.1,0-0.2,0-0.4-0.1c-0.1,0-0.1-0.1-0.2-0.1c-0.1,0-0.2-0.1-0.4-0.1c-0.1,0-0.1,0-0.2-0.1
	c-0.2-0.1-0.4-0.1-0.6-0.1c0.2,0.2,0.5,0.2,0.7,0.3c0.2,0.1,0.4,0.1,0.5,0.2c0,0.1-0.1,0.1-0.1,0.2v0c0,0.1-0.1,0.1-0.1,0.2
	c0.1,0.1,0.2,0.1,0.3,0.1l0,0l0,0c0.1-0.1,0.1-0.2,0.2-0.3l0.1,0c0.1,0,0.1,0,0.2,0c0-0.1,0.1-0.2,0.1-0.2l-0.1-0.3l-0.1-0.3
	c0.1,0,0.2,0,0.2,0c0,0,0.1,0.1,0.1,0.2c0,0.1,0.1,0.2,0.2,0.2c0.1,0,0.1,0,0.2,0c0,0,0.1,0,0.1,0c0.1,0.2,0.2,0.2,0.2,0.2
	c0,0,0.1-0.1,0.2-0.2c0.2,0.1,0.4,0.1,0.6,0.1l0,0c0.4,0.1,0.9,0.2,1.3,0.3c0.3,0.1,0.6,0.2,0.9,0.2c0.5,0.1,0.9,0.3,1.4,0.4
	c0.3,0.1,0.6,0.1,0.9,0.2c0.3,0.1,0.5,0.1,0.8,0.2c0.1,0,0.2,0,0.3,0c0.1,0,0.2,0,0.3,0c0.1,0,0.1,0,0.2,0c0.2,0,0.5,0.1,0.7,0.2
	c0.4,0.2,0.8,0.2,1.1,0.3c0.2,0,0.4,0.1,0.6,0.1c0.2,0,0.3,0.1,0.5,0.1c0.1,0,0.2,0,0.2,0c0,0,0,0,0,0c0.1,0,0.1,0,0.2,0
	c0.4,0.1,0.7,0.2,1.1,0.2l0,0l0,0c0.5,0.1,0.9,0.2,1.4,0.3C270.2,14.9,270.3,14.9,270.5,14.9L270.5,14.9z"/>
<path class="st0" d="M261.1,13.7C261.1,13.7,261.1,13.7,261.1,13.7C261.2,13.7,261.2,13.7,261.1,13.7L261.1,13.7L261.1,13.7
	L261.1,13.7z"/>
<path class="st0" d="M261,13.6c-0.1,0-0.1,0-0.2-0.1c-0.1,0-0.2-0.1-0.3-0.1c-0.3-0.1-0.6-0.2-0.9-0.2c-0.1,0-0.2,0-0.2,0l0,0
	c0,0,0,0,0,0c0,0,0,0,0,0c0,0,0,0,0.1,0c0,0,0.1,0,0.1,0c0.4,0,0.8,0.1,1.2,0.3C260.8,13.6,260.9,13.6,261,13.6
	c0,0.1,0.1,0.1,0.1,0.1L261,13.6C261.1,13.6,261.1,13.6,261,13.6L261,13.6z"/>
<path class="st0" d="M263.9,14.2L263.9,14.2L263.9,14.2c0.1,0.1,0.2,0.1,0.2,0.1v0c0,0,0,0,0,0l-0.1,0L263.9,14.2L263.9,14.2z"/>
<path class="st0" d="M268.5,15.2c0.4,0.1,0.8,0.3,1.4,0.3c-0.3-0.2-0.7-0.3-1.1-0.3C268.7,15.2,268.6,15.2,268.5,15.2L268.5,15.2
	L268.5,15.2z"/>
<path class="st0" d="M264.7,14.4c0,0.2,0.1,0.2,0.2,0.2c0.1,0,0.2,0,0.2,0.1l0,0c0.1,0,0.1,0,0.2,0c0.1,0,0.3,0.1,0.4,0.1l0,0
	c0.2,0.1,0.5,0.1,0.7,0.1c0,0,0,0,0.1,0c0.1,0,0.2,0,0.3,0c0,0,0.1,0,0.1-0.1c-0.3-0.1-0.6-0.1-0.9-0.2
	C265.7,14.6,265.2,14.4,264.7,14.4L264.7,14.4z"/>
<path class="st0" d="M288.9,35L288.9,35L288.9,35c0,0,0,0.1,0.1,0.2c0,0,0,0,0,0l0,0C289,35.1,289,35.1,288.9,35L288.9,35L288.9,35
	L288.9,35z"/>
<path class="st0" d="M287.9,33.7L287.9,33.7L287.9,33.7c0,0-0.1,0-0.1,0l0.2,0.2l0.2,0.2l0.1,0c0,0,0,0,0,0
	C288.2,33.9,288.1,33.8,287.9,33.7z"/>
<path class="st0" d="M279.9,13.3C279.9,13.3,279.9,13.3,279.9,13.3c0.1,0,0.2,0,0.3,0.1c0-0.1-0.1-0.2-0.1-0.3c0,0-0.1-0.1-0.1-0.1
	C279.8,13.1,279.8,13.2,279.9,13.3C279.8,13.3,279.9,13.3,279.9,13.3C279.9,13.3,279.9,13.3,279.9,13.3L279.9,13.3z"/>
<path class="st0" d="M294.6,40.8c0.1,0.1,0.2,0.2,0.4,0.3c0.1,0.1,0.2,0.2,0.3,0.2c0.2,0.2,0.5,0.4,0.7,0.7c0.3,0.3,0.7,0.7,1,1
	c0.2,0.2,0.5,0.4,0.7,0.6c0.1,0.1,0.3,0.2,0.4,0.3c0,0,0.1,0.1,0.1,0.1c0,0,0.1,0.1,0.1,0.1c0,0,0,0,0.1,0.1
	c0.1,0.1,0.2,0.2,0.3,0.2c0.3,0.2,0.5,0.3,0.7,0.5c0.2,0.2,0.4,0.4,0.6,0.6c0.1,0,0.1,0.1,0.2,0.2v-0.2c-0.1-0.1-0.2-0.2-0.4-0.3
	c0,0,0,0-0.1,0c0,0-0.1,0-0.1-0.1c0-0.2-0.1-0.2-0.2-0.3c0,0-0.1,0-0.1-0.1c-0.5-0.4-1.2-1-1.9-1.6c-0.1-0.1-0.1-0.1-0.2-0.2
	c-0.2-0.2-0.4-0.4-0.7-0.6c0,0,0-0.1-0.1-0.1c0,0,0,0,0-0.1c-0.1-0.2-0.3-0.3-0.5-0.5c-0.2-0.1-0.4-0.3-0.5-0.5
	c-0.1-0.1-0.1-0.1-0.2-0.2c0,0,0-0.1-0.1-0.1c0,0,0-0.1-0.1-0.1c-0.2-0.2-0.4-0.4-0.5-0.5l0,0c-0.1-0.1-0.2-0.2-0.2-0.2l0,0
	c0,0,0,0,0,0c-0.1-0.3-0.4-0.5-0.6-0.7c-0.1-0.1-0.3-0.3-0.5-0.5c-0.1-0.1-0.2-0.2-0.2-0.3c-0.1-0.1-0.1-0.2-0.2-0.3
	c0,0-0.1-0.1-0.1-0.1c0-0.1-0.1-0.1-0.1-0.2c0,0,0,0,0,0c-0.2-0.2-0.4-0.3-0.5-0.6c0,0,0,0-0.1-0.1c0,0,0,0-0.1,0
	c0,0-0.1-0.1-0.1-0.1c-0.1-0.1-0.3-0.3-0.4-0.4c-0.1-0.1-0.1-0.2-0.2-0.2c-0.2-0.3-0.5-0.7-0.8-0.9c-0.1-0.1-0.2-0.2-0.3-0.4
	c-0.1-0.1-0.1-0.2-0.2-0.3c0,0,0,0,0-0.1c0,0,0-0.1-0.1-0.1c-0.3-0.2-0.4-0.4-0.6-0.7c0-0.1-0.1-0.2-0.2-0.3
	c-0.2-0.3-0.4-0.7-0.7-0.9c0,0-0.1-0.1-0.1-0.1l0,0c-0.2-0.2-0.4-0.4-0.6-0.7c-0.1-0.2-0.3-0.4-0.5-0.6c0,0-0.1-0.1-0.1-0.2
	c-0.1-0.1-0.2-0.2-0.3-0.3c-0.2-0.2-0.5-0.5-0.6-0.8c0-0.1-0.1-0.2-0.2-0.2l0,0c0,0,0,0,0-0.1c-0.2-0.3-0.5-0.5-0.7-0.9
	c-0.1-0.2-0.3-0.4-0.5-0.6c-0.1-0.1-0.2-0.2-0.2-0.3c0,0,0,0,0,0c-0.1-0.1-0.1-0.1-0.2-0.2c-0.2-0.4-0.4-0.6-0.7-1
	c-0.1-0.2-0.3-0.4-0.4-0.6c-0.1-0.2-0.2-0.4-0.4-0.6c-0.1-0.1-0.2-0.2-0.2-0.3c-0.1-0.1-0.1-0.2-0.2-0.3c-0.1-0.1-0.2-0.3-0.3-0.5
	c-0.1-0.2-0.2-0.4-0.4-0.6c0-0.1-0.1-0.2-0.2-0.3c0,0,0,0,0,0c0,0,0,0,0,0c-0.2-0.1-0.3-0.3-0.4-0.4c0-0.1-0.1-0.1-0.1-0.2
	c-0.2-0.2-0.4-0.5-0.5-0.8l0,0c-0.1-0.1-0.2-0.2-0.2-0.3c0,0,0,0,0,0c0,0,0,0,0-0.1c0-0.1,0-0.1-0.1-0.2c0-0.1,0-0.1-0.1-0.2
	c-0.1,0-0.1,0-0.2,0c0,0-0.1,0-0.1,0c0,0-0.1,0-0.1,0c0.2,0.4,0.4,0.7,0.7,1c0.1,0.1,0.2,0.3,0.3,0.5c0,0.1,0.1,0.2,0.2,0.3
	c0.1,0.1,0.1,0.2,0.2,0.2c0,0,0.1,0.1,0.1,0.1c0,0,0,0,0.1,0.1l0,0c0.1,0.1,0.1,0.2,0.2,0.3c0.1,0.2,0.2,0.4,0.3,0.5l0,0
	c0.2,0.3,0.3,0.5,0.5,0.8c0.1,0.1,0.1,0.2,0.2,0.3c0.1,0.1,0.1,0.1,0.2,0.2c0.1,0.1,0.2,0.3,0.3,0.5c0.1,0.2,0.3,0.4,0.4,0.6
	c0.1,0.1,0.2,0.2,0.3,0.4s0.2,0.2,0.3,0.4c0.1,0.1,0.1,0.2,0.2,0.3c0,0.1,0.1,0.1,0.1,0.2c0.1,0.1,0.1,0.2,0.2,0.4
	c0.3,0.4,0.6,0.7,0.9,1c0.1,0.1,0.1,0.1,0.2,0.2c0,0,0.1,0.1,0.1,0.1c0,0,0,0,0,0c0,0,0.1,0.1,0.1,0.1c0.3,0.4,0.5,0.7,0.7,1
	c0.2,0.3,0.4,0.5,0.5,0.8l0,0c0.1,0.2,0.3,0.4,0.4,0.6c0,0.1,0.1,0.1,0.2,0.2c0.4,0.3,0.6,0.7,0.9,1.1l0,0c0,0.1,0.1,0.1,0.1,0.2
	c0.3,0.4,0.6,0.8,0.9,1.1c0.1,0.2,0.3,0.3,0.4,0.5c0.3,0.1,0.4,0.4,0.6,0.6c0,0.1,0.1,0.2,0.2,0.2c0.2,0.3,0.4,0.5,0.6,0.8
	c0.2,0.2,0.3,0.4,0.5,0.6c0.1,0.2,0.2,0.3,0.3,0.5c0.1,0.2,0.2,0.3,0.3,0.4c0.1,0.1,0.2,0.2,0.3,0.3c0,0,0.1,0.1,0.1,0.1
	c0,0,0,0,0,0s0,0,0,0c0.1,0.1,0.2,0.2,0.3,0.3l0,0c0.3,0.3,0.5,0.6,0.8,0.9c0.1,0.1,0.2,0.2,0.3,0.4
	C294.4,40.5,294.5,40.6,294.6,40.8L294.6,40.8z"/>
<path class="st0" d="M273.8,0.3C273.8,0.3,273.8,0.4,273.8,0.3c0.1,0.4,0.2,0.8,0.4,1.1c0.1,0.4,0.2,0.7,0.4,1.1
	c0.1,0.3,0.2,0.6,0.3,0.9c0.1,0.2,0.1,0.3,0.2,0.5c0.1,0.2,0.1,0.5,0.2,0.6c0,0,0.1,0.1,0.1,0.2c0,0.5,0.3,1,0.5,1.5
	c0,0.2,0.1,0.3,0.1,0.5c0,0,0,0.1,0,0.1c0.3,0.2,0.3,0.6,0.5,0.9c0.1,0.3,0.3,0.6,0.4,0.9c0.1,0.2,0.2,0.4,0.3,0.6
	c0.1,0.1,0.1,0.3,0.1,0.4c0,0.2,0.1,0.4,0.2,0.5c0.2,0.2,0.2,0.4,0.3,0.6c0,0.3,0.2,0.6,0.4,0.8c0.2,0.3,0.3,0.6,0.4,0.9
	c0,0.1,0.1,0.2,0.2,0.3c0,0.1,0.1,0.1,0.1,0.1c0,0.2,0.1,0.3,0.2,0.5c0,0,0.1,0,0.1,0c0.2,0.1,0.4,0.1,0.5,0.1c0,0,0,0,0,0
	c0-0.1-0.1-0.2-0.2-0.4c-0.1-0.1-0.1-0.2-0.2-0.4c0-0.1-0.1-0.2-0.1-0.2c0-0.1,0-0.1-0.1-0.2c0-0.1-0.1-0.2-0.1-0.3
	c0-0.1-0.1-0.2-0.1-0.2c-0.1-0.2-0.1-0.4-0.2-0.5c0-0.1-0.1-0.2-0.1-0.3c0-0.1-0.1-0.1-0.1-0.2c-0.1-0.1-0.1-0.3-0.2-0.5
	c0-0.1-0.1-0.1-0.1-0.2c-0.1-0.1-0.1-0.3-0.1-0.4c0-0.1-0.1-0.2-0.1-0.2c0-0.1-0.1-0.1-0.1-0.2c-0.1-0.3-0.3-0.7-0.4-1
	c0-0.1-0.1-0.3-0.2-0.4c0,0,0-0.1,0-0.1l0,0c-0.3-0.5-0.4-1-0.6-1.5c-0.1-0.3-0.2-0.6-0.3-0.8c-0.1-0.4-0.3-0.8-0.5-1.2
	c-0.1-0.2-0.1-0.4-0.2-0.6c0-0.1-0.1-0.2-0.1-0.4c0,0,0-0.1-0.1-0.1c0,0,0-0.1,0-0.1c0-0.1-0.1-0.2-0.1-0.3l0-0.1c0,0,0-0.1,0-0.1
	c0-0.1-0.1-0.2-0.1-0.3c-0.1-0.2-0.1-0.4-0.2-0.6c0,0,0-0.1,0-0.2c0-0.1,0-0.1,0-0.2l0-0.1c-0.1-0.3-0.2-0.6-0.3-0.9c0,0,0,0,0-0.1
	h-0.8C273.8,0.1,273.9,0.2,273.8,0.3L273.8,0.3z"/>
<path class="st0" d="M251.6,7.5c0.1,0.1,0.2,0.1,0.3,0.1c0,0,0,0,0.1,0c0,0,0.1,0,0.1-0.1c0,0,0-0.1,0-0.2c-0.1-0.2-0.2-0.2-0.3-0.2
	c0,0-0.1,0-0.1,0C251.4,7.3,251.5,7.4,251.6,7.5L251.6,7.5L251.6,7.5z"/>
<path class="st0" d="M294,41L294,41l0.1,0.1c0,0,0,0,0,0l0,0C294.1,41.1,294,41,294,41C294,40.9,294,41,294,41L294,41L294,41z"/>
<path class="st0" d="M272.9,9.5L272.9,9.5C272.8,9.5,272.8,9.6,272.9,9.5c0,0.1,0,0.1,0,0.1c0,0,0,0,0,0c0,0,0,0,0,0
	C272.9,9.6,272.9,9.6,272.9,9.5L272.9,9.5L272.9,9.5L272.9,9.5z"/>
<path class="st0" d="M236,0c0.2,0.1,0.3,0.2,0.5,0.3c0.4,0.2,0.7,0.5,1.1,0.7c0.2,0.1,0.4,0.2,0.6,0.3c0.2,0.1,0.4,0.1,0.4,0.3
	c0,0,0,0,0,0c0.3,0.2,0.6,0.4,1,0.6c0.3,0.2,0.7,0.4,1,0.6c0.3,0.2,0.6,0.3,0.9,0.5c0.1,0.1,0.3,0.1,0.4,0.2
	c0.2,0.1,0.3,0.3,0.6,0.3c0.1,0,0.1,0,0.1,0.1c0.4,0.4,0.9,0.5,1.3,0.8c0.1,0.1,0.3,0.2,0.4,0.2c0,0,0,0,0.1,0
	c0.4,0,0.6,0.2,0.9,0.4c0.3,0.1,0.6,0.2,0.9,0.4c0.2,0.1,0.4,0.2,0.6,0.3c0.1,0.1,0.3,0.1,0.4,0.3c0.1,0.1,0.3,0.2,0.5,0.2
	c0.2,0,0.4,0.1,0.6,0.3c0.2,0.2,0.5,0.3,0.8,0.4c0.3,0.1,0.6,0.3,0.9,0.4c0.1,0,0.2,0.1,0.3,0.1c0.1,0,0.1,0,0.1,0.1
	c0.2,0.2,0.6,0.3,0.9,0.4c0.1,0.1,0.2,0.1,0.3,0.2c0.3,0.2,0.6,0.3,1,0.4c0.4,0,0.6,0.3,0.9,0.4c0.2,0.1,0.4,0.1,0.6,0.1
	c0.3,0.1,0.5,0.1,0.7,0.4c0.1,0,0.2,0,0.3,0c0.2,0.1,0.4,0.2,0.6,0.2c0,0.2,0,0.3,0,0.4c0.4,0.1,0.4,0.1,0.4-0.3
	c0.2,0.1,0.4,0.1,0.5,0.2c0.4,0.1,0.8,0.2,1.2,0.4c0.1,0.1,0.3,0.1,0.4,0.3c-0.2-0.1-0.5-0.1-0.8-0.1c0,0.4,0,0.5,0.4,0.6
	c0.1,0,0.2,0.1,0.3,0.1c0.4,0.1,0.6,0,0.8-0.3c0.1-0.1,0.1-0.1,0.3-0.1c0.2,0,0.3,0.1,0.5,0.1c0.4,0.1,0.9,0.1,1.2,0.3
	c0.1,0,0.2,0.1,0.3,0.2c0.2-0.1,0.4-0.1,0.6,0.1c0.1,0,0.2,0.1,0.2,0.1c0.5,0,1,0.3,1.6,0.4c0.3,0.1,0.5,0.1,0.8,0.1
	c0.1,0,0.2,0.1,0.3,0.1c0.3,0.1,0.6,0.2,0.9,0.2s0.6,0.1,0.9,0.2c0.2,0.1,0.5,0,0.7,0.1c0.1,0,0.1,0,0.2,0c0.4,0.1,0.8,0.2,1.1,0.3
	c0.4,0.1,0.7,0.1,1.1,0.2c0,0,0.1,0,0.1,0c0.2,0.2,0.6,0.1,0.9,0.2c0,0,0.1,0,0.1,0c0.4,0,0.7,0.1,1,0.2c0,0,0,0,0,0
	c0-0.1-0.1-0.1-0.1-0.1c-0.1-0.1-0.2-0.3-0.3-0.6l0,0c-0.2,0-0.5-0.1-0.7-0.1c0,0-0.1,0-0.1,0c0,0-0.1,0-0.1,0c-0.1,0-0.3,0-0.4-0.1
	c-0.4-0.1-0.7-0.2-1.1-0.3c0,0-0.1,0-0.1,0c-0.1,0-0.2,0-0.3,0c-0.4-0.1-0.8-0.1-1.2-0.3c-0.1,0-0.1,0-0.2,0l0,0c0,0,0,0-0.1,0
	c-0.4,0-0.6-0.1-0.9-0.2c-0.2-0.1-0.4-0.1-0.6-0.1c-0.1,0-0.2,0-0.3,0c0,0-0.1,0-0.1,0c-0.1,0-0.1,0-0.2,0c-0.3-0.1-0.7-0.2-1-0.2
	l0,0c-0.2-0.1-0.5-0.1-0.7-0.2c-0.3-0.1-0.7-0.1-1-0.2l0,0c-0.1,0-0.2-0.1-0.4-0.1c0,0,0,0,0,0h0c-0.2-0.2-0.4-0.2-0.7-0.2
	c-0.2,0-0.4,0-0.5-0.1c-0.3-0.1-0.6-0.2-0.9-0.2c-0.1,0-0.3-0.1-0.4-0.3c0,0,0-0.1-0.1-0.1C259,9.9,259,9.7,259,9.5c0,0-0.1,0-0.1,0
	c0,0-0.1,0.1-0.1,0.1c0,0,0,0,0,0.1c0,0,0,0.1,0.1,0.1c0,0.1,0.1,0.1,0.1,0.1c0,0.1,0,0.1,0,0.1c0,0,0,0.1-0.1,0.1c0,0-0.1,0-0.1,0
	c0,0,0,0,0,0c0,0,0,0,0,0c-0.3-0.1-0.5-0.2-0.8-0.2c-0.3-0.1-0.7-0.1-1-0.3c-0.2-0.1-0.3-0.1-0.5-0.2c-0.1,0-0.2-0.1-0.3-0.1
	c-0.1-0.1-0.1-0.1-0.1-0.3v0l0.1,0l0.2,0l0.1,0.1l0.2,0.2c0.2-0.1,0.3-0.2,0.5-0.4h0c0.2,0.1,0.4,0.2,0.6,0.3c0-0.1,0-0.2,0-0.3
	c0,0,0,0,0,0c0,0,0,0,0.1,0l0,0c0,0,0.1,0,0.1,0c0.2,0.1,0.5,0.2,0.7,0.2c0.1,0,0.2,0,0.3,0.1c0.1,0,0.3,0.1,0.5,0.1
	c0.1,0,0.2,0.1,0.3,0.1c0.1,0,0.3,0.1,0.5,0.1l0,0c0.1,0,0.1,0,0.2,0c0,0,0.1,0,0.1,0c0.1,0,0.2,0,0.3,0.1c0.3,0.1,0.6,0.2,0.9,0.3
	c0.1,0.1,0.3,0.1,0.5,0.1c0,0,0.1,0,0.1,0c0.3,0,0.6,0.1,0.8,0.2c0.1,0.1,0.3,0.1,0.4,0.1c0.1,0,0.2,0,0.3,0.1c0.1,0,0.1,0,0.2,0
	c0.1,0,0.1,0,0.2,0c0,0,0.1,0,0.1,0c0.1,0,0.2,0,0.2,0l0,0c0.1,0,0.1,0,0.2,0c0,0,0,0,0.1,0c0,0,0.1,0,0.1,0
	c0.2,0.2,0.5,0.2,0.8,0.3c0.1,0,0.3,0,0.4,0.1c0.1,0,0.2,0.1,0.4,0.1l0,0c0,0,0,0,0.1,0c0,0,0,0,0.1,0c0.1,0,0.1,0,0.2,0
	c0.4-0.1,0.8,0,1.2,0.1c0.1,0,0.2,0,0.3,0.1c0.1,0,0.3,0.1,0.5,0.1c0.4,0.1,0.9,0.2,1.3,0.3c0,0,0.1,0,0.1,0
	c0.2,0.1,0.5,0.1,0.7,0.1c0.1,0,0.2,0,0.3,0c-0.1-0.1-0.1-0.3-0.2-0.4s-0.1-0.3-0.2-0.4c0-0.1-0.1-0.2-0.2-0.4
	c0-0.1-0.1-0.1-0.1-0.2c0,0,0-0.1-0.1-0.1c0-0.1-0.1-0.2-0.1-0.3c0-0.3-0.1-0.5-0.3-0.8c-0.2-0.3-0.3-0.6-0.4-0.9l0-0.1
	c-0.1-0.2-0.1-0.4-0.2-0.6c0-0.1,0-0.2-0.1-0.2c0,0,0,0,0,0c0-0.1,0-0.1,0-0.2c0-0.2-0.1-0.3-0.3-0.5c-0.1-0.1-0.2-0.3-0.2-0.5
	c0-0.1,0-0.2-0.1-0.2c0.2,0,0.3-0.1,0.3-0.3c0,0-0.1-0.1-0.1-0.1c-0.1,0-0.2,0-0.3,0.1h0l0,0v0c0-0.2-0.1-0.4-0.1-0.5
	c0,0,0-0.1,0-0.1c0-0.1-0.1-0.2-0.1-0.3c-0.1-0.2-0.1-0.4-0.2-0.6c-0.2-0.3-0.2-0.6-0.3-0.9c-0.1-0.3-0.1-0.5-0.3-0.8
	c-0.2-0.4-0.3-0.8-0.5-1.2c-0.1-0.2-0.1-0.4-0.1-0.6c0,0,0-0.1,0-0.1c0-0.2-0.1-0.3-0.1-0.5h-27.4c0.1,0.1,0.2,0.1,0.3,0.2
	c0.1,0.1,0.2,0.2,0.4,0.3c0,0,0.1,0,0.1,0.1c0.1,0.1,0.2,0.1,0.4,0.2c0.2,0.1,0.4,0.3,0.7,0.4l0,0c0.1,0.1,0.3,0.2,0.4,0.2
	c0,0,0.1,0.1,0.1,0.1c0.5,0.3,1.1,0.6,1.7,0.9c0.1,0.1,0.3,0.2,0.4,0.3c0.2,0.1,0.4,0.2,0.6,0.3l0,0c0.4,0.2,0.8,0.5,1.2,0.6
	c0.1,0,0.2,0.1,0.3,0.2c0.1,0,0.1,0.1,0.2,0.1c0.2,0.1,0.4,0.2,0.6,0.3c0.1,0.1,0.3,0.1,0.4,0.2c0.2,0.1,0.4,0.2,0.6,0.3
	c0.1,0,0.2,0.1,0.2,0.2c0,0,0.1,0.1,0.1,0.1c0,0,0.1,0,0.1,0.1c0.1,0.1,0.1,0.1,0.2,0.1c0.3,0,0.5,0.2,0.7,0.3
	c0.1,0,0.1,0.1,0.2,0.1c0,0,0.1,0,0.1,0.1c0.1,0.1,0.2,0.1,0.3,0.2c0.3,0.1,0.6,0.2,0.8,0.3c0.1,0.1,0.2,0.1,0.2,0.1c0,0,0,0,0,0
	c0,0,0,0,0.1,0c0.2,0,0.5,0.1,0.7,0.2c0.1,0.1,0.3,0.2,0.5,0.2c0.1,0,0.3,0.1,0.4,0.2c0.1,0,0.1,0.1,0.2,0.1
	c-0.1,0.2-0.2,0.4-0.1,0.5s0.2,0.2,0.4,0.2c0,0,0,0,0.1,0c0,0,0,0,0.1,0.1l0,0l0,0c-0.1,0-0.3,0-0.4,0c-0.2,0-0.4,0.1-0.6-0.1
	c-0.2-0.1-0.4-0.2-0.7-0.3c-0.1-0.1-0.3-0.1-0.4-0.2c-0.1,0-0.1-0.1-0.2-0.1c-0.1,0-0.1-0.1-0.2-0.1c-0.1,0-0.2-0.1-0.3-0.1
	c-0.1,0-0.2-0.1-0.2-0.1c-0.2-0.1-0.4-0.2-0.5-0.3c-0.1,0-0.2-0.1-0.2-0.1c-0.1,0-0.1-0.1-0.2-0.1c-0.1-0.1-0.3-0.2-0.4-0.2
	c-0.1,0-0.1-0.1-0.2-0.1c-0.1-0.1-0.3-0.1-0.4-0.2c-0.1-0.1-0.2-0.1-0.2-0.1c-0.1,0-0.1,0-0.2-0.1c-0.3-0.2-0.6-0.3-0.9-0.5
	c-0.1-0.1-0.3-0.1-0.4-0.2c0,0-0.1,0-0.1,0l0,0c-0.5-0.2-1-0.5-1.4-0.7c-0.2-0.2-0.5-0.3-0.8-0.4c-0.4-0.2-0.7-0.4-1.1-0.6
	c-0.2-0.1-0.4-0.2-0.6-0.3c-0.1-0.1-0.2-0.1-0.3-0.2c0,0-0.1,0-0.1-0.1c0,0-0.1,0-0.1,0c-0.1-0.1-0.2-0.1-0.3-0.2L241,2.2
	c0,0-0.1,0-0.1,0c-0.1,0-0.2-0.1-0.2-0.1c-0.2-0.1-0.4-0.2-0.6-0.4c-0.1,0-0.1-0.1-0.1-0.1c-0.1,0-0.1-0.1-0.1-0.1l-0.1,0
	c-0.3-0.2-0.6-0.4-0.8-0.5c-0.1,0-0.1-0.1-0.2-0.1c-0.1,0-0.1-0.1-0.2-0.1c-0.1-0.1-0.2-0.1-0.3-0.2c-0.3-0.2-0.6-0.4-1-0.6h-1.4
	C235.8,0,235.9,0,236,0L236,0z M253.1,8.2c0.1-0.1,0-0.3,0-0.5c0.3-0.1,0.4,0.1,0.7,0.2c0.3,0.1,0.5,0.2,0.8,0.3
	c0.3,0.1,0.6,0.2,0.9,0.4c0.1,0.1,0.2,0.1,0.4,0.2c0,0.2,0.1,0.5-0.1,0.8c-0.5-0.1-0.9-0.2-1.3-0.5c-0.2-0.1-0.4-0.1-0.7-0.2
	c-0.3-0.1-0.6-0.2-1-0.3C252.8,8.4,253,8.3,253.1,8.2L253.1,8.2z"/>
<path class="st0" d="M291.8,38.5L291.8,38.5L291.8,38.5c0.1,0.2,0.2,0.3,0.3,0.4c0.1,0,0.1,0,0.2,0l-0.1-0.1h0
	C292,38.7,291.9,38.6,291.8,38.5L291.8,38.5z"/>
<path class="st0" d="M293.4,40.4c0.1,0.1,0.2,0.2,0.2,0.2c0-0.1,0-0.2-0.1-0.2C293.5,40.4,293.5,40.4,293.4,40.4
	C293.4,40.4,293.4,40.4,293.4,40.4L293.4,40.4z"/>
<path class="st0" d="M277.9,16.1C277.9,16.1,277.9,16.1,277.9,16.1L277.9,16.1L277.9,16.1L277.9,16.1c0-0.2-0.1-0.3-0.1-0.5
	c-0.1,0-0.1,0-0.2,0c0.1,0.1,0.1,0.2,0.2,0.3C277.8,16,277.8,16,277.9,16.1L277.9,16.1z"/>
<path class="st0" d="M272.3,8.2c0-0.1,0-0.1-0.1-0.2c0,0,0-0.1,0-0.1l0,0C272.1,8,272.2,8.1,272.3,8.2z"/>
<path class="st0" d="M281.7,17.3c-0.1,0.1-0.1,0.1-0.3,0.1c0-0.1-0.1-0.1-0.1-0.2c-0.1,0-0.1,0-0.2,0c0,0.1,0.1,0.1,0.1,0.2
	c0,0,0,0,0,0c0.2,0,0.5,0,0.7,0l0,0c0-0.1,0-0.1,0-0.2C281.9,17.3,281.8,17.3,281.7,17.3L281.7,17.3z"/>
<path class="st0" d="M283.3,17.5c0.4,0.2,0.8,0.2,1.2,0.1v-0.1C284.1,17.5,283.7,17.5,283.3,17.5L283.3,17.5z"/>
<path class="st0" d="M283.5,18.4c-0.1,0-0.1,0-0.2,0c0,0,0,0.1,0.1,0.2C283.4,18.5,283.4,18.5,283.5,18.4L283.5,18.4z"/>
<path class="st0" d="M273.4,15.6c0-0.1,0-0.1-0.1-0.2c0,0.1-0.1,0.1-0.1,0.1c0,0,0,0,0,0C273.3,15.5,273.3,15.5,273.4,15.6
	C273.4,15.6,273.4,15.6,273.4,15.6L273.4,15.6z"/>
<path class="st0" d="M278,17.9C278,17.9,278,17.9,278,17.9c-0.1-0.1-0.2-0.1-0.3-0.1c0,0-0.1,0-0.1,0c0,0-0.1,0-0.1,0
	c0,0.1,0.1,0.1,0.1,0.2c0,0,0,0.1,0.1,0.1c0,0,0,0,0,0.1c0.1,0,0.1,0,0.2,0c0.1,0,0.1,0,0.2,0c0,0,0,0,0,0c0,0,0,0,0.1,0
	c0,0,0,0,0,0C278.1,18,278,18,278,17.9L278,17.9z"/>
<path class="st0" d="M283,24.2L283,24.2L283,24.2L283,24.2C283,24.2,283,24.2,283,24.2L283,24.2z"/>
<path class="st0" d="M273.7,15.6c0,0-0.1,0-0.1,0l0,0C273.6,15.6,273.7,15.6,273.7,15.6C273.7,15.6,273.7,15.6,273.7,15.6
	L273.7,15.6z"/>
<path class="st0" d="M283,24.4c0.1,0.1,0.1,0.2,0.2,0.3c0.1,0.1,0.2,0.2,0.3,0.4c0.2,0.3,0.4,0.6,0.7,1c0,0,0,0.1,0.1,0.1
	s0.1,0,0.1,0c0,0,0,0,0,0c0,0,0,0,0,0c-0.1-0.1-0.1-0.2-0.2-0.3c-0.3-0.5-0.6-0.9-1-1.4c0,0-0.1-0.1-0.1-0.1c0,0,0,0,0,0
	c0,0,0,0,0,0C283,24.3,283,24.4,283,24.4L283,24.4z"/>
<path class="st0" d="M299.8,16.9L299.8,16.9c-0.5,0-1,0.1-1.5,0.1c0,0,0,0,0,0c0,0,0,0-0.1,0c0,0,0,0,0,0l0,0c0,0,0,0,0,0.1
	c0,0,0,0,0.1,0c0.1,0,0.1,0,0.2,0c0.1,0,0.1,0,0.2,0c0.1,0,0.3,0,0.4,0c0.3,0,0.6,0,1-0.1v-0.1C299.9,16.9,299.8,16.9,299.8,16.9
	L299.8,16.9L299.8,16.9z"/>
<path class="st0" d="M275.7,16.6L275.7,16.6c-0.1-0.1-0.3-0.2-0.5-0.2c0,0,0.1,0.1,0.1,0.1l0,0v0c0.1,0,0.1,0,0.2,0
	C275.6,16.6,275.7,16.6,275.7,16.6L275.7,16.6z"/>
<path class="st0" d="M279.7,19.5c0.1,0,0.2,0,0.3,0.1c0,0-0.1-0.1-0.1-0.2c0-0.1-0.1-0.1-0.1-0.2c0,0,0,0,0-0.1c-0.1,0-0.1,0-0.2,0
	c0.1,0.1,0.2,0.2,0.2,0.4C279.8,19.5,279.7,19.5,279.7,19.5L279.7,19.5z"/>
<path class="st0" d="M281.2,18.2L281.2,18.2c0.1,0.1,0.2,0.2,0.3,0c-0.1,0-0.1,0-0.2,0C281.3,18.2,281.3,18.2,281.2,18.2z"/>
<path class="st0" d="M283.7,19.9c0.1,0,0.1,0,0.2,0c0-0.1,0.1-0.2,0.1-0.2c0,0,0-0.1-0.1-0.1c0,0-0.1,0-0.1,0c0,0,0,0-0.1,0
	c0,0,0,0.1,0,0.1C283.7,19.8,283.7,19.8,283.7,19.9L283.7,19.9L283.7,19.9z"/>
<path class="st0" d="M283.4,19.9c-0.1-0.2-0.2-0.4-0.4-0.6c0,0-0.1,0-0.1,0c0,0-0.1,0-0.1,0.1c0,0-0.1,0-0.1,0c0,0,0,0-0.1,0h-0.1
	l0,0c0,0-0.1,0-0.1,0c0.1,0.1,0.1,0.2,0.2,0.3c0,0,0,0.1,0,0.1C282.9,19.7,283.1,19.8,283.4,19.9C283.3,19.8,283.4,19.8,283.4,19.9
	L283.4,19.9z"/>
<path class="st0" d="M279.5,17.2C279.5,17.2,279.5,17.2,279.5,17.2c0.2,0,0.4,0.1,0.5,0.1c0,0,0.1-0.1,0.1-0.1
	C279.8,17.1,279.6,17.1,279.5,17.2C279.4,17.1,279.4,17.2,279.5,17.2L279.5,17.2z"/>
<path class="st0" d="M282.2,19.5c-0.1,0.1-0.2,0.2-0.2,0.3c0.1,0,0.1,0,0.2,0c0,0,0,0,0.1,0c0,0,0.1,0,0.1,0l0,0c0,0,0,0,0,0
	C282.4,19.7,282.3,19.6,282.2,19.5L282.2,19.5z"/>
<path class="st0" d="M284.5,22.7c0.2,0.1,0.3,0.2,0.4,0.4c0,0.1,0.1,0.1,0.1,0.2c0.4,0.4,0.6,0.9,1,1.3c0.2,0.2,0.4,0.4,0.6,0.6
	c0.1,0.1,0.1,0.2,0.2,0.3c0.2,0.3,0.4,0.5,0.5,0.8s0.4,0.5,0.5,0.8c0.1,0.2,0.4,0.3,0.5,0.5c0,0,0.1,0.1,0.2,0.1
	c0.2,0.3,0.5,0.6,0.7,1c0.2,0.3,0.4,0.6,0.7,0.9c0,0,0.1,0.1,0.1,0.1c0,0.3,0.4,0.5,0.5,0.7c0,0,0,0.1,0.1,0.1
	c0.4,0.3,0.6,0.8,0.9,1.2c0.4,0.6,0.8,1.2,1.4,1.7c0.1,0.1,0.2,0.2,0.3,0.4c0,0.1,0.1,0.2,0.2,0.3c0.4,0.3,0.6,0.7,0.9,1.1
	c0.4,0.5,0.7,1,1.2,1.4c0.1,0,0.1,0.1,0.2,0.2c0.1,0.3,0.4,0.4,0.5,0.6c0.2,0.2,0.5,0.5,0.7,0.8c0.2,0.2,0.4,0.5,0.6,0.7
	c0.2,0.2,0.4,0.4,0.6,0.6c0,0,0.1,0.1,0.1,0.1c0.4,0.1,0.5,0.5,0.8,0.8c0.2,0.2,0.4,0.4,0.7,0.5c0.1,0.1,0.2,0.2,0.3,0.2v-0.7
	c0,0,0,0,0,0c-0.4-0.4-0.8-0.7-1.1-1c-0.1-0.1-0.1-0.1-0.2-0.2c0-0.1-0.1-0.1-0.2-0.2c-0.1-0.1-0.1-0.1-0.2-0.2
	c-0.1-0.1-0.1-0.1-0.2-0.2c-0.5-0.5-0.9-0.9-1.4-1.4c-0.4-0.4-0.7-0.7-1-1.1c-0.1-0.1-0.1-0.2-0.2-0.2c0-0.1-0.1-0.1-0.1-0.2
	c-0.1-0.1-0.2-0.2-0.2-0.3c-0.1-0.1-0.2-0.3-0.3-0.4c-0.2-0.2-0.4-0.5-0.6-0.7l0,0c-0.2-0.2-0.3-0.4-0.5-0.6
	c-0.1-0.1-0.1-0.2-0.2-0.2c-0.2-0.2-0.4-0.5-0.6-0.7c-0.1-0.1-0.2-0.2-0.3-0.3c0-0.1-0.1-0.1-0.1-0.2c0,0,0-0.1-0.1-0.1
	c0-0.1-0.1-0.2-0.2-0.2c-0.3-0.2-0.5-0.5-0.6-0.8c-0.2-0.5-0.6-0.9-1-1.3c0,0,0,0-0.1-0.1c0,0-0.1-0.1-0.1-0.1
	c-0.1-0.1-0.2-0.2-0.3-0.4c-0.2-0.3-0.4-0.6-0.6-0.9c0,0,0-0.1-0.1-0.1c-0.1-0.1-0.1-0.2-0.2-0.2c-0.3-0.3-0.5-0.6-0.7-1
	c0-0.1-0.1-0.1-0.1-0.2l0,0c0,0,0,0,0,0c-0.3-0.2-0.5-0.5-0.6-0.8c-0.1-0.2-0.2-0.4-0.4-0.5c-0.1-0.1-0.1-0.1-0.2-0.2
	c0,0-0.1-0.1-0.1-0.1c0,0-0.1-0.1-0.1-0.1c-0.2-0.3-0.4-0.6-0.6-0.9l0,0c-0.1-0.2-0.3-0.4-0.4-0.6c-0.2-0.3-0.4-0.5-0.6-0.8l0,0
	c-0.1-0.1-0.1-0.2-0.2-0.3l0,0c0,0,0,0,0,0c0-0.3-0.2-0.4-0.4-0.6c-0.1-0.1-0.2-0.2-0.3-0.3c0,0-0.1,0-0.1,0c-0.2,0-0.4,0-0.5,0
	c0,0,0,0,0,0c0.2,0.2,0.3,0.4,0.5,0.7C284.5,22.5,284.5,22.6,284.5,22.7L284.5,22.7z"/>
<path class="st0" d="M281.9,22.9c0.3,0.3,0.5,0.6,0.7,1c0,0.1,0.1,0.2,0.2,0.2c0,0,0.1,0.1,0.1,0.1c0,0,0,0,0,0c0,0,0-0.1,0-0.1
	c0-0.1-0.1-0.1-0.1-0.2c-0.1-0.1-0.1-0.2-0.2-0.3c-0.1-0.3-0.3-0.5-0.5-0.8c0-0.1-0.1-0.1-0.2-0.2l0,0c0,0,0,0,0,0s0,0-0.1,0
	c0,0,0,0,0,0.1C281.9,22.8,281.9,22.8,281.9,22.9L281.9,22.9z"/>
<path class="st0" d="M282,20.8C282,20.8,282,20.8,282,20.8C282,20.8,282,20.8,282,20.8C282,20.8,282,20.8,282,20.8L282,20.8z"/>
<path class="st0" d="M278.6,17.1C278.6,17.1,278.6,17.1,278.6,17.1C278.6,17.1,278.6,17,278.6,17.1L278.6,17.1
	c-0.1-0.1-0.1-0.1-0.2-0.1h0l0,0c0,0,0,0,0,0.1h0C278.4,17.1,278.5,17.1,278.6,17.1L278.6,17.1z"/>
<path class="st0" d="M276.8,15.8L276.8,15.8c-0.1-0.1-0.1-0.2-0.2-0.4c-0.1,0-0.2,0-0.3,0c0,0-0.1,0-0.2,0c0.1,0.2,0.2,0.4,0.2,0.5
	c0.1,0,0.2,0,0.2,0c0.1,0,0.2,0,0.3,0C276.9,16,276.9,15.9,276.8,15.8L276.8,15.8z"/>
<path class="st0" d="M275.6,15.7L275.6,15.7L275.6,15.7c-0.1-0.1-0.1,0-0.1,0L275.6,15.7l0,0.1c0,0,0.1,0,0.1,0c0,0,0,0,0,0
	C275.7,15.8,275.7,15.8,275.6,15.7L275.6,15.7z"/>
<path class="st0" d="M241.1,9.7L241.1,9.7L241.1,9.7c0.1,0.1,0.2,0.1,0.2,0.1c0,0,0,0,0,0l0,0l-0.1-0.1L241.1,9.7L241.1,9.7
	L241.1,9.7z"/>
<path class="st0" d="M240.5,9.8c0,0,0-0.1,0-0.2c0,0,0,0,0-0.1c0,0,0,0-0.1,0l0,0c-0.1,0-0.1,0.1-0.1,0.1c0,0,0,0.1,0,0.1
	C240.4,9.8,240.5,9.8,240.5,9.8C240.5,9.8,240.5,9.8,240.5,9.8z"/>
<path class="st0" d="M239.1,8.2c0,0,0.1,0,0.2,0c0,0,0,0,0,0c0.1-0.1,0.1-0.1,0.1-0.3c0,0,0,0,0-0.1c-0.1,0-0.2-0.1-0.2,0
	c0,0-0.1,0-0.1,0.1C239.1,8,239.1,8.1,239.1,8.2L239.1,8.2z"/>
<path class="st0" d="M236.6,7.8C236.6,7.8,236.6,7.8,236.6,7.8c0.1-0.2,0.1-0.4,0.2-0.6c0,0,0,0-0.1,0c0,0-0.1,0-0.1,0.1
	c0,0,0,0.1-0.1,0.1c0,0,0,0.1-0.1,0.1c0,0,0,0-0.1,0c-0.1,0-0.1,0.1-0.1,0.2C236.5,7.8,236.6,7.8,236.6,7.8L236.6,7.8z"/>
<path class="st0" d="M241.4,9.6C241.4,9.6,241.4,9.6,241.4,9.6c0.1,0,0.2-0.1,0.1-0.2c0-0.1-0.1-0.1-0.2-0.1l0,0
	c-0.1,0-0.1,0.1-0.1,0.1s0,0.1,0,0.2C241.2,9.7,241.3,9.7,241.4,9.6L241.4,9.6z"/>
<path class="st0" d="M270.9,19.1L270.9,19.1C270.9,19.1,270.9,19.1,270.9,19.1L270.9,19.1C270.9,19.1,270.9,19.1,270.9,19.1
	C270.9,19.1,270.9,19.2,270.9,19.1C270.9,19.2,270.9,19.2,270.9,19.1C270.9,19.2,271,19.2,270.9,19.1C271,19.2,271,19.2,270.9,19.1
	L270.9,19.1L270.9,19.1L270.9,19.1L270.9,19.1z"/>
<path class="st0" d="M255.9,15.8C255.9,15.8,255.9,15.8,255.9,15.8c-0.1,0.1-0.1,0.2-0.1,0.3c0,0,0,0.1,0.1,0.1c0.1,0,0.1,0,0.2,0
	c0,0,0,0,0,0c0.1,0,0.1-0.2,0.1-0.3C256.1,15.8,256,15.8,255.9,15.8L255.9,15.8z"/>
<path class="st0" d="M300,44.4L300,44.4C300,44.4,300,44.4,300,44.4L300,44.4C300,44.4,300,44.4,300,44.4L300,44.4z"/>
<path class="st0" d="M232.9,5.7C232.9,5.7,232.9,5.7,232.9,5.7c0,0.2,0.1,0.2,0.2,0.2l0,0c0.1,0,0.1-0.1,0.1-0.1c0,0,0-0.1,0-0.1
	c0-0.1-0.1-0.1-0.2-0.1l0,0l0,0c0,0,0,0,0,0C233,5.6,232.9,5.6,232.9,5.7L232.9,5.7z"/>
<path class="st0" d="M272.8,19.6c-0.1-0.1-0.2-0.1-0.2-0.1c0,0,0,0-0.1,0C272.6,19.5,272.6,19.5,272.8,19.6L272.8,19.6z"/>
<path class="st0" d="M246.3,12.3c-0.1-0.1-0.1-0.1-0.2-0.1c0,0,0,0.1-0.1,0.2c0,0,0.1,0,0.1,0l0,0C246.2,12.4,246.2,12.3,246.3,12.3
	L246.3,12.3z"/>
<path class="st0" d="M251.5,13.5L251.5,13.5C251.5,13.5,251.5,13.5,251.5,13.5C251.5,13.5,251.5,13.6,251.5,13.5l-0.1,0.1
	c0,0.1,0,0.1-0.1,0.2c-0.1,0-0.1,0-0.2,0h0l-0.2,0c0,0.1,0,0.1,0.1,0.1c0,0.1,0.1,0.2,0.1,0.3c0.1,0.2,0.3,0.2,0.5,0.2
	c0,0,0.1,0,0.1-0.1c0.1,0,0.1-0.1,0.1-0.2c0,0,0-0.1,0.1-0.1l0,0l0,0c0,0,0.1,0,0.1,0c0.1,0,0.1,0.1,0.2,0.1c0.1,0,0.1,0.1,0.2,0
	c0,0,0.1,0,0.1-0.1c0.1-0.1,0.1-0.2,0-0.3C252.3,13.7,251.9,13.5,251.5,13.5L251.5,13.5z M251.6,14.4c-0.1,0-0.1-0.1-0.2-0.1
	c0,0,0-0.1,0.1-0.1c0.1,0,0.1,0.1,0.2,0.1C251.7,14.3,251.6,14.3,251.6,14.4z"/>
<path class="st0" d="M270.6,15.8c0,0,0.1,0,0.1,0c0.2,0,0.4,0,0.5,0.1c0,0,0.1,0,0.2,0.1c0.6,0.2,1.2,0.4,1.8,0.5
	c0.2,0,0.4,0,0.6,0.1c0-0.1,0-0.1,0-0.2c0,0-0.1,0-0.1,0c-0.2,0-0.4,0-0.5-0.1c-0.1,0-0.2,0-0.3,0c-0.2,0-0.3,0-0.5-0.1
	c-0.3-0.2-0.7-0.3-1-0.3c-0.2,0-0.4-0.1-0.6-0.1c-0.1,0-0.3,0-0.4-0.1c0,0,0,0-0.1,0c0,0,0,0,0,0s0,0,0,0c0,0,0,0,0,0l0,0
	c0,0,0,0.1,0,0.1C270.2,15.7,270.4,15.7,270.6,15.8L270.6,15.8z"/>
<path class="st0" d="M277.3,19.3c0,0,0.1,0,0.2,0c0-0.1-0.1-0.2-0.2-0.3c0,0-0.1-0.1-0.1-0.2c0,0-0.1,0-0.1,0
	c-0.1,0-0.2-0.1-0.4-0.1c0,0,0,0,0,0c0,0,0,0.1,0.1,0.1c0,0.1,0.1,0.2,0.1,0.3c0,0,0,0.1,0,0.1c0,0,0.1,0,0.1,0
	C277.1,19.3,277.2,19.3,277.3,19.3L277.3,19.3z"/>
<path class="st0" d="M298.8,15.8c0,0-0.1,0-0.2,0c-0.3-0.1-0.6,0-0.9,0.1c0,0-0.1,0-0.1,0c-0.7,0-1.5,0.2-2.2,0.1
	c-0.4,0-0.8,0-1.2,0c-0.1,0-0.3,0.1-0.4,0.1c0,0-0.1,0-0.1,0c-0.3,0-0.6,0-0.9,0c-0.2,0-0.3,0-0.5,0c0,0-0.1,0-0.1,0
	c-0.5-0.1-0.9,0-1.3,0c0,0-0.1,0-0.1,0c-0.4,0-0.9,0-1.3,0c0,0-0.1,0-0.1,0c-0.3,0.1-0.7,0-1,0c-0.4,0-0.8,0.1-1.2-0.1
	c-0.1,0-0.1,0-0.2,0c-0.3,0.1-0.6,0.1-0.9,0c0,0,0,0-0.1,0c-0.2,0.2-0.5,0.1-0.8,0.1c-0.4,0-0.9,0-1.3-0.1c-0.1,0-0.2,0-0.3,0
	c-0.2,0-0.5,0-0.7-0.1c-0.2-0.1-0.4-0.1-0.6,0c-0.1,0-0.3,0-0.4,0c0,0.1,0.1,0.2,0.1,0.4c0,0,0,0.1,0,0.2c0,0,0,0,0,0
	c0.2,0,0.5,0,0.7,0c0.2,0,0.4,0,0.6,0c0.4,0.1,0.8,0.1,1.1,0.1c0,0,0.1,0,0.1,0c0.1,0,0.2,0,0.2,0c0.1,0,0.3,0,0.5,0
	c0.1,0,0.2,0,0.3,0c0,0,0.1,0,0.1,0c0.1,0,0.2,0,0.2,0c0,0,0,0,0,0c0,0,0.1,0,0.1,0c0.2-0.1,0.4,0,0.6,0c0,0,0.1,0,0.1,0
	c0.2,0,0.5,0,0.8,0l0,0c0.1,0,0.2,0,0.3,0c0,0,0.1,0,0.1,0c0.1,0,0.1,0,0.2,0c0.2,0,0.4,0,0.6,0l0,0c0.2,0,0.5,0,0.8,0.1
	c0.6,0,1.2,0,1.6-0.1c0.2,0,0.4,0,0.7,0c0.4,0,0.9,0,1.3-0.1c0.1,0,0.1,0,0.2,0c0,0,0.1,0,0.1,0c0.1,0,0.2,0,0.3,0
	c0.1,0,0.3,0,0.4,0c0.1,0,0.2,0,0.3,0c0.1,0,0.2,0,0.4,0c0.5,0,0.9-0.1,1.4-0.1h0c0.1,0,0.3,0,0.5,0c0.1,0,0.2,0,0.2,0
	c0.1,0,0.2,0,0.4,0c0.6,0,1.2-0.1,1.8-0.1c0.1,0,0.1,0,0.2,0c0.1,0,0.2,0,0.3,0c0.1,0,0.3,0,0.5-0.1c0,0,0,0,0,0v-0.6c0,0,0,0-0.1,0
	C299.5,15.6,299.1,15.7,298.8,15.8L298.8,15.8z"/>
<path class="st0" d="M268.3,3.7C268.3,3.7,268.3,3.7,268.3,3.7c0.2-0.1,0.3-0.2,0.5-0.3c0,0,0,0-0.1,0c0,0-0.1,0-0.1,0
	c0,0-0.1,0-0.1,0c0,0-0.1,0-0.1,0c0,0,0,0-0.1,0c-0.1,0-0.1,0-0.1,0.1C268.1,3.6,268.2,3.6,268.3,3.7L268.3,3.7z"/>
<path class="st0" d="M278.7,19.5C278.7,19.5,278.7,19.5,278.7,19.5L278.7,19.5C278.7,19.5,278.7,19.4,278.7,19.5c0.1,0,0.1,0,0.1,0
	h0c-0.1-0.1-0.2-0.3-0.3-0.5c0,0-0.1,0-0.1,0c0,0,0,0-0.1,0c0,0-0.1,0-0.2,0c0,0-0.1,0-0.1,0.1l0,0c0.1,0.1,0.1,0.2,0.2,0.3
	c0,0.1,0.1,0.1,0.1,0.2C278.5,19.5,278.6,19.5,278.7,19.5L278.7,19.5z"/>
<path class="st0" d="M275.5,0.3c0,0,0,0.1,0,0.1c0,0.1,0.1,0.3,0.1,0.4c0.1,0.2,0.1,0.5,0.2,0.7l0,0c0,0.1,0.1,0.3,0.1,0.5
	c0,0,0,0.1,0,0.2c0.2,0.6,0.5,1.2,0.7,1.8c0,0.2,0.1,0.3,0.1,0.5c0.1,0.2,0.1,0.4,0.2,0.6l0,0c0.2,0.4,0.3,0.9,0.5,1.3
	c0.1,0.1,0.1,0.2,0.1,0.3c0,0.1,0,0.1,0.1,0.2c0.1,0.2,0.2,0.4,0.3,0.7c0.1,0.1,0.1,0.3,0.2,0.4c0.1,0.2,0.2,0.4,0.3,0.6
	c0,0.1,0.1,0.2,0.1,0.3c0,0.1,0,0.1,0,0.1c0,0,0,0.1,0,0.1c0,0.1,0,0.2,0.1,0.2c0.2,0.2,0.3,0.4,0.3,0.7c0,0.1,0,0.1,0,0.2
	c0,0,0,0.1,0,0.1c0,0.1,0.1,0.2,0.1,0.3c0.2,0.2,0.3,0.5,0.4,0.8c0,0.1,0.1,0.2,0.1,0.3c0,0,0,0,0,0.1c0,0,0,0.1,0,0.1
	c0.2,0.2,0.3,0.4,0.3,0.6c0.1,0.2,0.1,0.3,0.2,0.5c0.1,0.1,0.1,0.3,0.2,0.4c0,0.1,0,0.1,0.1,0.2c0.3,0,0.5,0.1,0.8,0.1
	c0.2,0,0.4,0,0.6,0.1h0c0,0,0,0,0,0c0.4-0.1,0.8,0,1.2,0c0.4,0,0.9,0.1,1.3,0c0.2,0,0.3,0,0.5,0c0.1,0,0.2,0,0.2,0c0,0,0,0,0.1,0
	c0.1,0,0.1,0,0.2,0l0,0c0,0,0,0,0,0c0.4-0.1,0.8-0.1,1.1,0c0.2,0,0.3,0,0.5,0c0.1,0,0.2,0,0.2,0c0,0,0.1,0,0.1,0c0,0,0,0,0.1,0
	c0.1,0,0.1,0,0.2,0c0.2,0,0.4,0,0.6,0l0,0c0.4,0,0.8,0.1,1.1,0.1c0.2,0,0.4,0,0.5,0c0.1,0,0.2,0,0.4,0c0.3,0,0.6,0,0.9,0
	c0.1,0,0.3,0,0.4,0h0c0.1,0,0.2,0,0.3,0c0.1,0,0.3,0,0.4-0.1c0.3,0,0.6-0.1,1-0.1c0.3,0,0.5,0,0.8,0c0.2,0,0.3,0,0.5,0
	c0.3,0,0.5,0,0.8-0.1c0.1,0,0.3-0.1,0.5-0.1c0,0,0,0,0.1,0c0,0,0.1,0,0.1,0c0.3,0,0.6,0,1-0.1c0.2,0,0.4-0.1,0.6-0.1
	c0.6,0,1.1,0,1.7-0.2c0.1,0,0.1,0,0.2,0c0,0,0.1,0,0.1,0c0,0,0,0,0.1,0V0h-24.5C275.5,0.1,275.5,0.2,275.5,0.3L275.5,0.3z"/>
<path class="st0" d="M0,50h300v-0.3c-0.1-0.1-0.2-0.2-0.3-0.2c0,0,0,0,0,0c0,0,0,0-0.1,0c-0.2-0.2-0.4-0.4-0.6-0.5
	c0,0-0.1,0-0.1-0.1c-0.2-0.2-0.5-0.4-0.7-0.6c-0.2-0.1-0.3-0.2-0.5-0.4h0c0,0-0.1-0.1-0.1-0.1c-0.2-0.3-0.6-0.6-0.9-0.9
	c-0.2-0.1-0.3-0.3-0.5-0.4c0,0-0.1-0.1-0.2-0.1c0,0-0.1,0-0.1-0.1c0,0-0.1-0.1-0.1-0.1c-0.2-0.1-0.4-0.3-0.5-0.5
	c-0.1-0.1-0.3-0.2-0.4-0.4c-0.3-0.2-0.5-0.5-0.7-0.8c-0.2-0.1-0.3-0.2-0.4-0.4c0,0-0.1-0.1-0.1-0.2c-0.2-0.2-0.3-0.3-0.5-0.5
	c-0.2-0.2-0.4-0.4-0.6-0.6c-0.1-0.1-0.3-0.3-0.4-0.5c-0.1-0.1-0.1-0.2-0.2-0.2c0,0,0-0.1-0.1-0.1c-0.1-0.1-0.1-0.2-0.2-0.2
	c-0.7-0.5-1.1-1.1-1.5-1.6c0,0-0.1-0.1-0.1-0.1c0,0-0.1-0.1-0.1-0.1c-0.1-0.1-0.2-0.2-0.2-0.3l0,0c0,0-0.1-0.1-0.1-0.2
	s-0.1-0.1-0.1-0.1c-0.1-0.1-0.2-0.2-0.2-0.3c-0.1-0.2-0.3-0.3-0.4-0.5c-0.2-0.2-0.4-0.5-0.6-0.8c0,0,0-0.1-0.1-0.1
	c-0.3-0.2-0.5-0.5-0.7-0.7c-0.2-0.2-0.4-0.5-0.6-0.7c0,0-0.1-0.1-0.1-0.1c0,0,0,0,0-0.1c0-0.1-0.1-0.1-0.1-0.2
	c-0.1-0.1-0.2-0.2-0.2-0.3c-0.1-0.1-0.1-0.2-0.2-0.3c0-0.1-0.1-0.2-0.2-0.3c0,0,0-0.1-0.1-0.1c-0.1-0.1-0.2-0.3-0.3-0.4
	c-0.2-0.2-0.3-0.3-0.5-0.6c-0.1-0.1-0.1-0.2-0.2-0.3c0,0-0.1-0.1-0.1-0.1c0,0-0.1-0.1-0.1-0.2l0,0c-0.1-0.1-0.2-0.2-0.2-0.3
	c-0.1-0.1-0.1-0.2-0.2-0.2c0-0.1-0.1-0.2-0.1-0.2c-0.2-0.2-0.3-0.4-0.5-0.6c-0.1-0.1-0.1-0.2-0.2-0.2c-0.1-0.1-0.2-0.2-0.3-0.4
	c-0.1-0.2-0.3-0.4-0.4-0.6l0,0c-0.1-0.1-0.2-0.3-0.3-0.4c0-0.1-0.1-0.1-0.1-0.2l0,0c-0.2-0.3-0.5-0.7-0.7-1
	c-0.1-0.1-0.2-0.2-0.3-0.4c-0.1-0.1-0.2-0.2-0.3-0.4c-0.4-0.6-0.8-1.1-1.2-1.7l-0.1-0.2c0,0-0.1-0.1-0.1-0.2c0,0,0-0.1-0.1-0.1
	c-0.1-0.2-0.2-0.3-0.4-0.5c-0.2-0.3-0.4-0.6-0.6-0.9c-0.1-0.1-0.2-0.3-0.3-0.4c-0.2-0.3-0.4-0.5-0.5-0.8c-0.1-0.1-0.2-0.3-0.3-0.4
	c-0.1-0.1-0.1-0.1-0.2-0.2c0-0.1-0.1-0.1-0.1-0.2c0,0,0-0.1-0.1-0.1c-0.1-0.1-0.1-0.2-0.2-0.3c0,0,0,0,0,0s0,0,0,0
	c-0.2-0.3-0.4-0.7-0.6-1c0-0.1-0.1-0.2-0.1-0.2c0-0.1-0.1-0.1-0.1-0.2c-0.1-0.2-0.2-0.3-0.2-0.4v0c0,0-0.1-0.1-0.1-0.1
	c-0.2,0-0.4-0.1-0.6-0.1c-0.3,0-0.6-0.1-0.9-0.2c0,0-0.1,0-0.1,0c-0.3,0-0.7,0-1-0.1c-0.3-0.1-0.6-0.1-0.9-0.1c0,0-0.1,0-0.2,0
	c0,0-0.1,0-0.1,0c-0.1,0-0.1,0-0.2,0c-0.1,0-0.3-0.1-0.4-0.1c-0.1,0-0.2-0.1-0.3-0.1c-0.1,0-0.2-0.1-0.3-0.1c0,0-0.1,0-0.1,0
	c-0.1,0-0.3-0.1-0.4-0.1c-0.2,0-0.5,0-0.8-0.1c-0.1,0-0.2,0-0.4-0.1c0,0-0.1,0-0.1,0c-0.1,0-0.1,0-0.2,0l0,0c-0.1,0-0.2,0-0.4-0.1
	c-0.1,0-0.2,0-0.3-0.1c-0.1,0-0.2,0-0.3-0.1c-0.3,0-0.5-0.1-0.8-0.1c-0.1,0-0.2,0-0.3,0c-0.1,0-0.3,0-0.5-0.1
	c-0.2,0-0.5-0.1-0.7-0.2l0,0c-0.1,0-0.3-0.1-0.5-0.1c-0.1,0-0.1,0-0.2,0l0,0c-0.4-0.1-0.8-0.2-1.2-0.3c-0.1,0-0.3,0-0.5-0.1
	c-0.2,0-0.3,0-0.5-0.1c-0.7-0.1-1.4-0.3-2.1-0.5l-0.2,0c-0.1,0-0.1,0-0.2-0.1c0,0-0.1,0-0.2-0.1c-0.2,0-0.4-0.1-0.6-0.1
	c-0.3-0.1-0.7-0.1-1-0.2c-0.2,0-0.3-0.1-0.5-0.1c-0.3-0.1-0.6-0.1-0.9-0.3c-0.1-0.1-0.3-0.1-0.5-0.1c-0.1,0-0.2,0-0.3,0
	c-0.1,0-0.2,0-0.2-0.1c0,0-0.1,0-0.1,0c-0.1,0-0.2-0.1-0.3-0.1c0,0,0,0-0.1,0s0,0-0.1,0c-0.4-0.1-0.7-0.2-1.1-0.4
	c-0.1,0-0.2-0.1-0.2-0.1c-0.1,0-0.1,0-0.2-0.1c-0.2-0.1-0.3-0.1-0.4-0.1h0c-0.1-0.1-0.3-0.1-0.4-0.1c-0.2,0-0.4-0.1-0.6-0.2
	c0,0,0,0,0,0c-0.1-0.1-0.1-0.1-0.3-0.1c0,0-0.1,0-0.1-0.1c-0.1-0.1-0.2-0.3-0.3-0.4l0,0c0-0.1-0.1-0.1-0.1-0.1h0c-0.1,0-0.1,0-0.2,0
	l0,0.1c0,0.1-0.1,0.1-0.1,0.2c-0.2,0.1-0.3-0.1-0.3-0.2c0-0.1-0.1-0.1-0.1-0.2c0,0-0.1,0.1-0.1,0.1c0,0-0.1,0.1-0.1,0.1
	c-0.1,0-0.2-0.1-0.3-0.1l0,0c-0.2-0.1-0.5-0.2-0.7-0.3c-0.1,0-0.1-0.1-0.2-0.2c0,0,0,0,0,0c0,0,0-0.1,0-0.1s0-0.1,0.1-0.1
	c0,0,0,0,0.1,0c0.1-0.1,0.2-0.1,0.2-0.3c0-0.2-0.1-0.2-0.2-0.3c0,0-0.1,0-0.1-0.1c0,0,0,0-0.1,0c0,0,0,0-0.1,0v0l0,0
	c0,0.1,0,0.1-0.1,0.2l0,0h0c0,0,0,0,0,0c0,0,0,0,0,0l0,0c0,0.1-0.1,0.2-0.1,0.3c-0.2-0.1-0.3-0.2-0.2-0.3c0,0,0,0-0.1,0
	c0,0,0,0,0.1,0c0,0,0,0,0-0.1c0,0,0,0,0-0.1c0.1-0.1,0.1-0.3,0.3-0.4c0,0,0,0,0-0.1c0,0,0,0,0,0l0,0l0,0l0,0l0,0
	c0.1,0,0.1-0.1,0.2-0.1c0.1,0,0.2-0.1,0.3-0.1c0,0,0.1,0,0.1,0c0.1,0,0.3,0.1,0.5,0.1h0c0,0,0.1,0,0.1,0.1c0.2,0.2,0.4,0.2,0.6,0.2
	c0.1,0,0.1,0,0.2,0.1l0,0c0.1,0,0.1,0.1,0.2,0.1c0.1,0.1,0.2,0.1,0.3,0.2c0.2,0.1,0.4,0.1,0.6,0.2c0.1,0,0.2,0,0.2,0.1
	c0,0,0,0,0.1,0c0,0,0.1,0,0.1,0c0.1,0,0.2,0.1,0.3,0.1c0.2,0.1,0.4,0.2,0.6,0.2c0.1,0,0.2,0,0.2,0.1c0.2,0,0.5,0.1,0.7,0.3
	c0.2,0,0.4,0.1,0.6,0.2c0.1,0,0.2,0.1,0.2,0.1c0.1,0,0.2,0,0.3,0c0.1,0,0.1,0,0.2,0c0,0,0,0,0,0c0.1,0,0.1,0,0.2,0.1
	c0.2,0.2,0.4,0.2,0.6,0.3c0.1,0,0.1,0,0.2,0.1c0.1,0,0.3,0.1,0.5,0.1c0.1,0,0.2,0,0.4,0.1c0.1,0,0.3,0.1,0.4,0.1
	c0.1,0,0.2,0.1,0.2,0.1c0,0,0,0,0,0l0,0c0.1,0,0.2,0.1,0.3,0.1c0.4,0,0.7,0.2,1,0.3h0l0,0c0,0,0.1,0,0.1,0.1c0.1,0,0.2,0,0.3,0.1
	c0.2,0.1,0.4,0.1,0.7,0.1c0.2,0,0.3,0.1,0.4,0.1c0.1,0,0.2,0.1,0.3,0.1c0.1,0,0.2,0.1,0.3,0.1c0.2,0.1,0.5,0.2,0.8,0.1
	c0,0,0.1,0,0.1,0l0,0c0.2,0.1,0.3,0.2,0.5,0.2c0,0,0,0,0,0c0.2,0.1,0.4,0.1,0.6,0.2c0.1,0,0.2,0,0.3,0c0,0,0.1,0,0.2,0
	c0.1,0,0.3,0.1,0.4,0.1c0,0,0,0,0,0c0.2,0,0.4,0,0.5,0.2c0,0,0.1,0,0.2,0c0,0,0,0,0,0c0.7,0,1.3,0.1,1.9,0.2v0l0,0.1v0.1
	c0,0,0,0,0,0c0,0,0,0,0,0l0,0c0.4-0.1,0.8,0,1.2,0.1l0,0c0.1,0,0.1,0,0.2,0.1c0,0,0,0,0,0s0,0,0.1,0c0.3,0,0.6,0,0.9,0.1
	c0.2,0,0.3,0.1,0.5,0.1c0.1,0,0.3,0.1,0.5,0.1c0.1,0,0.2,0.1,0.4,0.1c0.1,0,0.3,0.1,0.5,0.1c0.6,0.1,1.2,0.2,1.8,0.2h0
	c0,0,0.1,0,0.1,0c0.3,0.1,0.6,0.1,0.9,0.2c0.1,0,0.1,0,0.2,0c0,0,0,0,0-0.1l0,0c0,0-0.1-0.1-0.2-0.2l-0.1,0c-0.1,0-0.1,0.1-0.2,0.1
	c-0.2-0.1-0.1-0.2-0.1-0.3c-0.1,0-0.1,0-0.2,0c-0.1,0-0.2-0.1-0.4-0.1h0c0.1,0,0.1,0,0.2,0c0,0,0,0,0-0.1c-0.1,0-0.1,0-0.2,0l0,0
	c0,0,0,0.1,0,0.1c-0.4,0-0.9,0-1.4-0.2c-0.1,0-0.2,0-0.3,0c0,0-0.1,0-0.1,0c0,0,0,0-0.1,0c-0.1,0-0.2,0-0.2,0
	c-0.3-0.2-0.7-0.2-1.1-0.3c-0.1,0-0.1,0-0.2,0c0,0,0,0-0.1,0l0,0c0,0,0,0-0.1,0c0,0,0,0,0-0.1c0,0,0-0.1,0-0.1c0,0-0.1,0-0.1,0
	c-0.1,0-0.1,0-0.2,0c0,0,0,0,0,0c0,0-0.1,0-0.1,0c-0.2,0-0.3,0-0.5,0c-0.1,0-0.3-0.1-0.4-0.1c-0.3-0.1-0.6-0.1-0.9-0.2
	c-0.1,0-0.3,0-0.4,0c-0.1,0-0.1,0-0.2,0c0-0.2-0.1-0.2-0.3-0.3c-0.2,0-0.3-0.1-0.5,0c0,0-0.1,0-0.1,0.1c-0.2-0.1-0.4-0.2-0.7-0.2
	c-0.2,0-0.4,0-0.7-0.1l0.3-0.1c0,0,0,0,0,0c0,0,0,0,0,0c0,0-0.1,0-0.1,0c-0.1,0-0.3,0-0.4,0l0,0c0,0,0,0-0.1,0.1c0,0,0,0-0.1,0.1
	c-0.1,0-0.2,0-0.4,0v0l0.1-0.2c-0.1,0-0.3-0.1-0.4-0.1l-0.1,0l0,0c0,0,0,0,0,0.1l0.1,0.1l0.1,0.1c-0.1,0-0.2,0-0.2,0
	c-0.2,0-0.3,0-0.5-0.1c-0.1,0-0.2,0-0.3-0.1c0,0-0.1,0-0.2,0l-0.1-0.1l-0.1-0.1c-0.1,0.1-0.2,0.1-0.2,0.1c-0.2,0-0.3,0-0.4-0.1
	c-0.1-0.1-0.2-0.1-0.3-0.1c0,0-0.1,0-0.1,0c-0.1,0-0.3-0.1-0.4-0.2c0-0.1-0.1-0.1-0.2-0.1c0,0,0,0-0.1,0c0,0-0.1,0.1-0.1,0.1
	c-0.1,0-0.2,0-0.3-0.1c-0.1,0-0.1,0-0.2-0.1c-0.2-0.1-0.4-0.1-0.6-0.1c-0.1,0-0.2,0-0.2-0.1c0,0,0-0.1,0-0.1c0,0,0,0,0-0.1l0,0
	c-0.5-0.1-1-0.1-1.4-0.3c-0.1,0-0.2-0.1-0.3-0.1c0,0-0.1,0-0.1,0c0,0,0,0,0,0c0,0,0-0.1,0-0.1c-0.1-0.1-0.1-0.1-0.2-0.1
	c0,0-0.1,0.1-0.2,0.1c0,0,0.1,0.1,0.1,0.1c-0.1,0-0.3,0-0.4-0.1c0-0.1-0.2-0.1-0.2-0.1c-0.1,0-0.1,0-0.2-0.1
	c-0.1-0.1-0.3-0.1-0.5-0.1c-0.1,0-0.1,0-0.2-0.1c0,0-0.1,0-0.1-0.1c0-0.1,0-0.1,0.1-0.1l0,0c-0.1-0.1-0.3-0.1-0.4,0c0,0-0.1,0-0.1,0
	c-0.1,0-0.2,0-0.3,0c-0.1,0-0.2-0.1-0.3-0.1l0,0c0,0-0.1,0-0.1,0l0,0l0,0l0,0c0,0,0-0.1,0-0.1l0,0l0-0.1c-0.3,0.1-0.5,0-0.9-0.1
	c-0.1-0.1-0.2-0.1-0.3-0.1c-0.1,0-0.2,0-0.2,0c-0.1-0.2-0.3-0.2-0.4-0.3c-0.1,0-0.2,0-0.2-0.1c-0.2-0.1-0.4-0.2-0.6-0.2
	c-0.1,0-0.1,0-0.1,0c-0.1,0-0.2,0-0.2-0.1c0,0,0.1,0,0.1-0.1c0,0,0.1,0,0.1,0c-0.1-0.1-0.1-0.1-0.2-0.1c0,0-0.1,0-0.1,0
	c-0.1,0-0.2-0.1-0.3-0.1c-0.1,0-0.1,0-0.1-0.1c0,0.1,0.1,0.1,0.1,0.1l0,0l0.1,0.1c0,0-0.1,0-0.1,0c-0.1,0-0.1,0-0.2,0
	c-0.1,0-0.1,0-0.1-0.1c-0.1-0.1-0.2-0.1-0.3-0.1c0,0-0.1-0.1-0.2-0.2c-0.1-0.2-0.1-0.2-0.3-0.2c-0.4,0.1-0.7-0.1-0.8-0.3
	c-0.1,0-0.1,0-0.2,0c-0.1,0-0.2,0-0.3-0.1c0,0,0,0,0,0c0,0-0.1,0-0.1,0c-0.1,0-0.1-0.1-0.2-0.1c0,0-0.1,0-0.1-0.1c0,0,0-0.1,0-0.1v0
	c0-0.1,0-0.1-0.1-0.2l-0.1,0.2l-0.1,0.1c-0.1,0-0.1-0.1-0.2-0.1l0,0c-0.1,0-0.1-0.1-0.2-0.1c0,0,0-0.1,0-0.1c0-0.1,0-0.1,0-0.2
	c0-0.1-0.1-0.1-0.2-0.1c0,0,0,0-0.1,0c0,0-0.1,0-0.1,0c0,0,0,0,0,0c-0.1-0.1-0.2-0.1-0.3-0.1c-0.1,0-0.3-0.1-0.4-0.2
	c0,0-0.1,0-0.1,0c0,0,0,0,0,0c-0.1,0-0.2-0.1-0.3-0.2c0-0.1-0.1-0.1-0.1-0.1c-0.1,0-0.1,0-0.2,0c-0.1,0-0.1-0.1-0.2,0c0,0,0,0-0.1,0
	l0,0c0,0-0.1-0.1-0.2-0.1l0,0c0,0,0,0,0,0c0,0-0.1-0.1-0.1-0.1c-0.2-0.1-0.3-0.2-0.6-0.2c-0.2,0-0.3-0.1-0.4-0.2c0,0,0,0-0.1,0
	c-0.1,0-0.1,0-0.1-0.1c-0.1-0.2-0.3-0.2-0.6-0.2c-0.1,0-0.1,0-0.1,0c-0.1-0.2-0.2-0.2-0.4-0.3c-0.1,0-0.1,0-0.2-0.1c0,0,0,0,0,0
	c0,0,0.1,0,0.1,0c0-0.1-0.1-0.1-0.1-0.2c0,0-0.1,0-0.1,0c-0.1,0-0.1-0.1-0.2-0.1c0,0-0.1,0-0.1,0.1c0,0,0,0.1,0,0.1c0,0,0,0,0,0
	c-0.6-0.1-0.9-0.4-1.1-0.8c0,0,0,0-0.1,0l0,0v0c0,0.1,0,0.1,0,0.2c-0.1-0.1-0.2-0.1-0.4-0.2l-0.1,0c0.1,0,0.2,0,0.3,0l0,0
	c0,0,0,0,0,0l0,0l0,0v0c-0.1-0.1-0.2-0.1-0.2-0.1c-0.1-0.1-0.2-0.1-0.3-0.2c-0.2,0-0.3-0.1-0.4-0.2c0,0,0,0,0,0l0,0c0,0,0,0,0,0
	c0,0,0,0,0.1,0c0,0,0,0-0.1,0h0c0,0-0.1-0.1-0.1,0c0,0,0,0-0.1,0.1c-0.1,0-0.2,0-0.4,0H240c0,0,0-0.1,0-0.1c0-0.1,0-0.1,0-0.1l0,0
	c-0.1-0.1-0.2-0.2-0.4-0.2s-0.2,0-0.2-0.1c-0.1,0-0.2-0.1-0.2-0.1s-0.2-0.1-0.3-0.1c-0.3-0.2-0.6-0.3-0.8-0.6l0.3,0
	C238.2,6,238,6,237.9,5.9c-0.1,0-0.1,0-0.1,0c0,0,0,0-0.1,0c0,0-0.1,0-0.1,0c-0.1-0.1-0.3-0.2-0.4-0.2c-0.1,0-0.1-0.1-0.1-0.1
	c0-0.1,0-0.2-0.1-0.3V5.2c-0.1,0.1-0.1,0.1-0.2,0.2l-0.1,0.1c-0.3-0.2-0.6-0.5-1.1-0.6c-0.1,0-0.2-0.1-0.2-0.2
	c-0.1-0.1-0.2-0.2-0.3-0.2c0,0-0.1,0-0.1,0l0,0c-0.1-0.1-0.3-0.2-0.4-0.3c0,0,0,0,0,0c0,0,0,0,0,0c0-0.1,0-0.2-0.1-0.2
	c0,0,0,0-0.1,0c-0.1,0-0.1,0-0.2,0c0,0,0,0,0,0.1c0,0,0,0,0,0c-0.1,0-0.2,0-0.3-0.1c-0.1,0-0.1-0.1-0.2-0.1c0-0.1,0-0.2,0-0.2
	c0,0-0.1,0-0.1,0c0,0,0,0.1,0,0.1l0,0l-0.1,0.1c-0.1-0.1-0.2-0.2-0.3-0.2c0,0,0,0,0.1,0c0,0,0.1,0,0.1,0c-0.1-0.1-0.1-0.1-0.2-0.1
	l-0.1,0c0,0,0,0,0,0c0,0,0,0.1,0,0.1l0,0l0,0c0,0,0,0,0,0h0h0c-0.1-0.1-0.2-0.2-0.4-0.2c-0.1,0-0.2-0.1-0.3-0.2l0.2-0.1c0,0,0,0,0,0
	c0,0,0,0,0,0c0,0-0.1,0-0.1-0.1c-0.1,0-0.2-0.1-0.3-0.1c0,0-0.1,0-0.1,0.1c0,0-0.1-0.1-0.1-0.1l0,0l-0.1-0.1c-0.2,0-0.3-0.1-0.4-0.3
	c-0.1-0.1-0.1-0.3-0.4-0.2l0,0c-0.1,0-0.1,0-0.2-0.1c0,0-0.1,0-0.1-0.1c0,0,0.1,0,0.1-0.1s0.1,0,0.1,0c-0.1-0.2-0.4-0.3-0.6-0.3
	c-0.2,0-0.4-0.1-0.6-0.2c-0.2-0.1-0.3-0.2-0.4-0.3l0,0c-0.1-0.1-0.1-0.1-0.2-0.2h0c0,0-0.1,0-0.2,0c0,0,0,0,0-0.1c0,0,0,0,0-0.1
	c0,0,0-0.1,0-0.1c0,0,0-0.1-0.1-0.1c0,0,0,0,0,0c0,0-0.1-0.1-0.1-0.1l0,0c-0.1-0.1-0.2-0.2-0.3-0.2c-0.1,0-0.1-0.1-0.2-0.1
	c0,0-0.1,0-0.1-0.1v-0.1H227c0,0,0,0,0,0c0.2,0.2,0.5,0.3,0.7,0.5c0.3,0.2,0.6,0.4,0.9,0.6c0.1,0.1,0.3,0.2,0.4,0.3
	c0.1,0,0.1,0.1,0.2,0.2c0,0,0.1,0.1,0.1,0.1c0.2,0.2,0.4,0.3,0.6,0.4c0.1,0.1,0.2,0.1,0.3,0.2c0.1,0,0.1,0.1,0.1,0.1
	c0,0,0.1,0,0.1,0.1c0,0,0,0,0.1,0c0,0,0.1,0.1,0.1,0.1c0.2,0,0.3,0.1,0.5,0.2c0,0,0.1,0,0.1,0.1c0.2,0.1,0.4,0.3,0.6,0.4l0.1,0.1
	c0,0,0,0,0,0c0,0,0.1,0,0.1,0c0.2,0,0.3,0.1,0.4,0.2c0,0,0.1,0,0.1,0.1c0.1,0.1,0.2,0.2,0.3,0.2c0.3,0.1,0.6,0.2,0.9,0.4
	c0.1,0.1,0.2,0.1,0.3,0.2c0.2,0.1,0.4,0.3,0.6,0.4c0.2,0.1,0.3,0.2,0.5,0.3c0.2,0.1,0.4,0.2,0.6,0.3c0.1,0,0.1,0.1,0.2,0.1
	c0.3,0.1,0.5,0.3,0.7,0.5c0.1,0.1,0.2,0.1,0.3,0.2c0.1,0,0.1,0.1,0.2,0.1c0.1,0,0.2,0.1,0.2,0.1c0,0,0,0,0,0s0,0,0,0
	c0.3,0.1,0.5,0.2,0.7,0.5c0.1,0.1,0.3,0.2,0.4,0.2c0.1,0,0.2,0.1,0.3,0.1c0.1,0.1,0.3,0.2,0.4,0.3c0.1,0.1,0.2,0.1,0.3,0.2l0,0
	c0.1,0.1,0.2,0.1,0.3,0.2c0.2,0.1,0.4,0.1,0.4,0.3c0.2,0,0.4,0.1,0.6,0.2c0,0,0.1,0.1,0.1,0.1c0.3,0.1,0.5,0.2,0.7,0.4
	c0.1,0.1,0.2,0.1,0.2,0.1c0.2,0.1,0.5,0.2,0.7,0.3c0.3,0.1,0.6,0.2,0.8,0.4c0.1,0.1,0.2,0.1,0.3,0.2c0.1,0.1,0.2,0.1,0.3,0.2
	c0.1,0.1,0.2,0.1,0.4,0.1c0.1,0,0.1,0,0.2,0c0,0,0,0,0,0c0.1,0,0.1,0,0.1,0.1c0.1,0.1,0.1,0.2,0.3,0.2c0.1,0,0.1,0.1,0.2,0.1
	c0,0,0,0,0.1,0c0.2,0,0.4,0.1,0.6,0.2c0.1,0.1,0.2,0.1,0.3,0.2c0,0,0.1,0,0.1,0c0.2,0.1,0.4,0.2,0.6,0.4c0,0.1,0.1,0.1,0.2,0.1
	c0.4,0,0.7,0.1,1,0.4c0,0-0.1,0.1-0.1,0.1l-0.1,0.1c0.1,0.2,0.3,0.3,0.4,0.3c0,0,0.1,0,0.1,0.1c0,0,0,0,0.1,0c0.1,0,0.1-0.1,0.1-0.1
	c0,0,0.1-0.1,0.1-0.1c0,0,0-0.1,0.1-0.1c0,0.1,0,0.1,0,0.1c0,0.1,0,0.1,0,0.2c0,0.2,0,0.4,0.3,0.4c-0.1,0.1-0.1,0.2-0.2,0.2
	c-0.1,0-0.2,0-0.3-0.1c-0.1,0-0.1-0.1-0.1,0s-0.1,0.1-0.1,0.1l0.1,0.1l0,0c0,0,0.1,0.1,0.1,0.1c0,0,0,0,0,0h0
	c-0.1-0.1-0.2-0.1-0.4-0.2c0,0.1,0,0.1,0,0.1c0,0.1,0,0.1,0,0.2c0,0.1,0,0.2-0.1,0.2c-0.1,0-0.1,0-0.2,0c-0.1,0-0.1-0.1-0.2-0.1l0,0
	c-0.2-0.1-0.4-0.2-0.6-0.3c-0.1,0-0.1-0.1-0.2-0.1c0,0-0.1-0.1-0.1-0.1c0,0,0,0-0.1,0c-0.1,0-0.1-0.1-0.1-0.1
	c-0.4,0-0.6-0.2-0.7-0.3c0,0-0.1,0-0.1-0.1c-0.2,0-0.4-0.1-0.6-0.2c-0.2-0.1-0.3-0.2-0.5-0.2l-0.1,0c-0.3-0.1-0.6-0.2-0.8-0.4
	c-0.1-0.1-0.3-0.1-0.4-0.2c-0.1-0.1-0.2-0.1-0.4-0.1c-0.1,0-0.1-0.1-0.2-0.1c0,0-0.1,0-0.1-0.1c-0.1,0-0.2-0.1-0.3-0.1
	c-0.2-0.2-0.4-0.3-0.7-0.4c-0.3-0.1-0.6-0.3-0.9-0.4l-0.1,0c-0.2-0.1-0.4-0.2-0.6-0.3c-0.1,0-0.1-0.1-0.2-0.1c0,0,0,0,0,0
	c-0.1,0-0.1-0.1-0.1-0.1c-0.1-0.2-0.3-0.2-0.5-0.2c-0.2,0-0.3-0.1-0.5-0.2c-0.1-0.1-0.1-0.1-0.2-0.1c0.1-0.1,0.2-0.3,0.1-0.4
	c-0.1,0-0.1,0-0.1,0c-0.1,0-0.2,0.1-0.2,0.3l0,0l0,0h0c-0.2-0.1-0.3-0.2-0.4-0.3c0,0-0.1-0.1-0.1-0.1c-0.1,0-0.2-0.1-0.2-0.1
	c-0.2-0.1-0.4-0.2-0.6-0.3c-0.3-0.1-0.6-0.3-0.9-0.5c-0.2-0.2-0.4-0.3-0.7-0.4c-0.4-0.2-0.8-0.4-1.1-0.6c-0.2-0.1-0.4-0.2-0.5-0.4
	c0,0-0.1-0.1-0.1-0.1c-0.2-0.2-0.3-0.3-0.6-0.3c-0.3,0-0.5-0.2-0.7-0.4c-0.1-0.1-0.2-0.1-0.2-0.2c0,0-0.1,0-0.1-0.1
	c-0.1-0.1-0.2-0.1-0.3-0.2c-0.2-0.1-0.4-0.2-0.5-0.3c-0.3-0.2-0.7-0.5-1.1-0.7c-0.1-0.1-0.2-0.2-0.4-0.3c-0.1-0.1-0.2-0.2-0.3-0.2
	c-0.1-0.1-0.2-0.1-0.3-0.2c-0.5-0.2-0.9-0.5-1.2-0.8c0,0-0.1-0.1-0.1-0.1c-0.1-0.1-0.3-0.2-0.4-0.2c-0.3-0.2-0.6-0.4-0.9-0.6
	c-0.1-0.1-0.3-0.2-0.5-0.3c-0.3-0.2-0.6-0.3-0.8-0.6c0,0-0.1-0.1-0.1-0.1c0,0,0,0,0,0l-0.1-0.1c-0.3-0.2-0.6-0.4-0.9-0.6
	c0,0,0,0,0,0c0,0,0,0,0,0c0,0,0,0-0.1-0.1H0"/>
<path class="st0" d="M249.5,12.8c-0.1,0.1-0.2,0.2-0.3,0.3c0,0-0.1-0.1-0.1-0.1C249.2,12.8,249.2,12.6,249.5,12.8L249.5,12.8z"/>
<path class="st0" d="M242.8,8.9c0.1,0,0.3,0,0.4,0.2C243,9.2,242.9,9,242.8,8.9z"/>
<path class="st0" d="M228.9,1.9l0.1,0c-0.1-0.1-0.2-0.2-0.3-0.1s-0.1,0.1-0.1,0.2C228.7,1.9,228.8,1.9,228.9,1.9L228.9,1.9z"/>
<path class="st0" d="M275.1,18.6c0,0,0.1,0,0.1,0c0.1,0,0.1,0,0.2-0.1c0,0,0.1,0,0.1,0l0,0c0,0,0,0,0,0.1c0,0.1,0,0.1,0.1,0.2
	c0,0.1,0.1,0.1,0.1,0.1c0,0,0.1,0,0.1,0c0.1,0,0.1-0.1,0.2-0.1c-0.1,0-0.1,0-0.2,0c0.1-0.1,0.1-0.1,0.2,0c0,0,0-0.1,0-0.1
	c0,0,0,0,0,0l0,0c0,0,0,0,0,0c0,0,0-0.1-0.1-0.1c-0.2-0.1-0.4-0.1-0.6,0c0,0,0,0,0,0c0,0,0,0.1,0,0.1c-0.1,0-0.2-0.1-0.3-0.1
	c0,0-0.1-0.1-0.1-0.1C275,18.4,275,18.6,275.1,18.6L275.1,18.6z"/>
<path class="st0" d="M298.7,14.1c-0.1,0-0.3,0-0.4,0c-0.1,0-0.2,0-0.3,0c-0.1,0-0.2,0-0.2,0c0,0,0,0,0,0c0,0-0.1,0-0.1,0
	c0,0,0,0,0,0c0,0-0.1,0.1-0.2,0.1c-0.1,0-0.2,0-0.3,0l0,0c0,0,0,0,0,0c-0.1,0-0.2,0-0.3,0l0,0c-0.4,0-0.8,0.1-1.1,0.1
	c-0.4,0-0.7,0-1.1,0c-0.2,0-0.4,0-0.6,0c0,0,0,0,0,0c-0.1,0-0.1,0-0.2,0c0,0-0.1,0-0.1,0.1c0,0,0,0,0,0c0,0-0.1,0-0.1,0c0,0,0,0,0,0
	h-0.1c-0.3,0-0.6,0-1,0.1c-0.1,0-0.3,0-0.4,0c-0.1,0-0.3,0-0.5,0c-0.1,0-0.3,0-0.4,0c-0.1,0-0.3,0-0.4,0c-0.8,0-1.5,0-2.3,0.1H288
	c-0.2,0-0.4,0-0.6,0c-0.1,0-0.1,0-0.2,0c-0.2,0-0.3,0-0.5-0.1c0,0-0.1,0-0.2,0c-0.2,0-0.3,0-0.5,0c-0.2,0-0.4,0-0.5,0
	c-0.2,0-0.5,0-0.7,0c-0.1,0-0.1,0-0.2,0c-0.6,0-1-0.1-1.5-0.1c-0.1,0-0.2,0-0.2-0.1s-0.2,0-0.2-0.1c-0.1,0-0.2,0-0.3,0s-0.2,0-0.3,0
	c-0.6-0.1-1.3-0.1-1.9-0.2c-0.2,0-0.4,0-0.6-0.1c0.1,0.2,0.2,0.4,0.3,0.6c0,0,0.1,0,0.1,0c0,0,0,0,0,0c0.2,0,0.4,0,0.6,0
	c0.2,0,0.2-0.2,0.3-0.4c0.2,0.1,0.3,0.4,0.4,0.6c0,0,0,0,0,0.1c0.2,0,0.3,0,0.5,0c0.3,0,0.5,0,0.8,0.1c0.1,0,0.1,0.1,0.2,0
	c0.4-0.1,0.8,0,1.1,0c0.3,0,0.6,0,0.9,0c0.3,0,0.6,0,1,0.1c0.2,0.1,0.4,0,0.7,0c0.1,0,0.1-0.1,0.2-0.1c0.4,0,0.7,0.1,1.1,0.1
	c0.2,0,0.3,0.1,0.5-0.1c0-0.1,0.2,0,0.3,0c0.5,0,1.1,0.1,1.6,0.1c0.4,0,0.8-0.1,1.1-0.1c0.2,0,0.5,0,0.7,0c0.3,0,0.7,0,1-0.1
	c0.1,0,0.2,0,0.2,0c0.2,0.1,0.5,0,0.7-0.1c0.1,0,0.3,0,0.4,0c0.1,0,0.3,0.1,0.4,0.1c0.4,0,0.7-0.1,1.1-0.1c0.1,0,0.2-0.1,0.4-0.1
	c0.5,0,1.1-0.1,1.6-0.1c0.2,0,0.4-0.1,0.6-0.1c0.3,0,0.5,0,0.8,0c0.1,0,0.2,0,0.4,0c0.2,0,0.4-0.1,0.6-0.1V14c-0.2,0-0.4,0-0.5,0
	C299.2,14,298.9,14,298.7,14.1L298.7,14.1z"/>
<path class="st0" d="M282.7,17.4c-0.1,0-0.2,0-0.3,0l0.1,0.1v0.1l0,0c0.1,0,0.2,0,0.4,0l0,0c0,0,0.1,0,0.2,0c0,0,0,0,0-0.1l0,0
	c0,0-0.1,0-0.1,0C282.8,17.4,282.7,17.4,282.7,17.4L282.7,17.4z"/>
<path class="st0" d="M286.5,17.5c-0.2,0-0.4,0-0.6,0c-0.1,0-0.2,0-0.3,0c0.2,0.2,0.3,0.2,0.6,0.1C286.2,17.6,286.3,17.6,286.5,17.5
	L286.5,17.5z"/>
<path class="st0" d="M284.4,18.4c-0.1,0-0.2,0-0.3,0c-0.1,0-0.3,0-0.4,0c0,0,0,0,0,0c0,0.1,0.1,0.1,0.1,0.2c0,0,0.1,0,0.1,0
	c0.3,0,0.6,0,0.9,0c0.2,0,0.3,0,0.5,0c0,0,0.1,0,0.1,0c0,0,0.1,0,0.1,0c0,0,0.1,0,0.1,0c0.1,0,0.2,0,0.4,0c0.3,0,0.6-0.1,0.9,0
	c0.3,0,0.6,0,0.8,0c0.1,0,0.2,0,0.4,0c0.1,0,0.2,0,0.4,0h0c0.2,0,0.4,0,0.5,0c0.4,0,0.8,0,1.2,0c0.2,0,0.5,0,0.7,0
	c0.3,0,0.6-0.1,1,0c0.4,0,0.7,0,1.1,0c0.2,0,0.4,0,0.6,0c0,0,0.1,0,0.1,0c0.3,0,0.6,0,1,0c0.1,0,0.2,0,0.3,0h0c0.2,0,0.4,0,0.6-0.1
	c0.3,0,0.7-0.1,1-0.1c0.2,0,0.4,0,0.5,0l0,0c0.7-0.1,1.3-0.1,2-0.1c0.3,0,0.5,0,0.8-0.1h0v-0.2c0,0-0.1,0-0.1,0c-0.1,0-0.1,0-0.2,0
	c-0.2,0-0.5,0-0.8,0.1c-0.1,0-0.1,0-0.2,0c0,0-0.1,0-0.2,0c0,0-0.1,0-0.1,0c-0.1,0-0.2,0-0.3,0c-0.1,0-0.1,0-0.2,0.1c0,0,0,0,0,0
	c0,0-0.1,0-0.1,0c0,0,0,0-0.1,0h-0.1c-0.2,0-0.5,0-0.7,0.1c-0.3,0-0.5,0-0.8,0c-0.1,0-0.2,0-0.2,0c-0.2,0-0.3,0-0.5,0c0,0,0,0,0,0
	c0,0,0,0,0,0c-0.1,0-0.2,0-0.3,0c0,0-0.1,0-0.1,0c-0.1,0-0.1,0-0.2,0c-0.2,0-0.4,0-0.5,0c-0.1,0-0.1,0-0.2,0.1c0,0,0,0,0,0
	c-0.1,0-0.1,0-0.2,0c0,0-0.1,0-0.1,0c-0.1,0-0.1,0-0.2,0h0c-0.3,0-0.6,0-1,0c-0.2,0-0.3,0-0.5,0c-0.2,0-0.4,0-0.6,0
	c-0.4,0.1-0.8,0.1-1.1,0.1c-0.1,0-0.3,0-0.5,0c-0.1,0-0.2,0-0.2,0l0,0c0,0,0,0,0,0c0,0,0,0-0.1,0c-0.1,0-0.1,0-0.2,0
	c0,0-0.1,0-0.1,0.1c0,0,0,0,0,0c0,0-0.1,0-0.1,0c0,0,0,0,0,0c-0.3,0-0.6,0-0.9,0c-0.2,0-0.4,0-0.6,0c0,0,0,0-0.1,0c0,0-0.1,0-0.1,0
	c-0.1-0.1-0.2-0.1-0.4-0.1c0,0-0.1,0-0.1,0C286.1,18.4,285.2,18.5,284.4,18.4L284.4,18.4z"/>
<path class="st0" d="M278.6,16C278.6,16,278.7,16,278.6,16c0,0.1,0,0.1,0.1,0.1l0,0c0,0,0,0,0.1,0c0.1,0,0.2,0.1,0.2,0.2
	c0.1,0,0.2,0,0.4,0c0,0,0.1,0,0.1,0c0-0.1-0.1-0.1-0.1-0.2c0,0,0-0.1,0-0.1c-0.1-0.1-0.2-0.2-0.2-0.3c-0.2,0-0.4,0-0.5-0.1
	C278.6,15.8,278.6,15.9,278.6,16L278.6,16z"/>
<path class="st0" d="M287,17.5c-0.1,0-0.2,0-0.3,0c0,0-0.1,0-0.1,0v0v0h0c0.1,0,0.3,0.1,0.5,0.1c0,0,0,0,0-0.1
	C287.1,17.6,287.1,17.5,287,17.5L287,17.5z"/>
<path class="st0" d="M280.7,16.4c0.1,0.1,0.1,0.2,0.2,0.3c0,0,0,0,0.1,0c-0.1-0.1-0.1-0.3-0.2-0.4c0-0.1-0.1-0.2-0.1-0.2
	c-0.1,0-0.1,0-0.2,0C280.5,16.1,280.6,16.2,280.7,16.4L280.7,16.4z"/>
<path class="st0" d="M278,14.6c0.1,0,0.3,0,0.5,0c-0.1-0.2-0.2-0.4-0.3-0.6c0,0,0,0,0,0c-0.1,0-0.2,0-0.4-0.1c0,0,0,0,0,0
	C277.8,14.2,277.9,14.4,278,14.6L278,14.6z"/>
<path class="st0" d="M291.7,17.5c0.1,0,0.1,0,0.1-0.1c-0.2,0-0.3,0-0.5,0c-0.4,0-0.7,0-1,0c-0.3,0-0.7,0-1,0c-0.1,0-0.3,0-0.5,0l0,0
	C289.4,17.8,291.1,17.7,291.7,17.5L291.7,17.5z"/>
<path class="st0" d="M292.4,17.5L292.4,17.5L292.4,17.5L292.4,17.5L292.4,17.5c0.2,0.1,0.3,0,0.5,0c0,0,0,0,0.1,0h0l0,0c0,0,0,0,0,0
	c-0.2,0-0.3,0-0.5,0C292.5,17.5,292.4,17.5,292.4,17.5L292.4,17.5L292.4,17.5L292.4,17.5L292.4,17.5L292.4,17.5L292.4,17.5z"/>
<path class="st0" d="M287.6,17.6c-0.1-0.1-0.2-0.1-0.3-0.1c0,0-0.1,0.1-0.1,0.1l0,0C287.3,17.6,287.4,17.6,287.6,17.6L287.6,17.6z"
	/>
<path class="st0" d="M287.8,17.7C287.8,17.7,287.8,17.6,287.8,17.7c0.1-0.1,0.1-0.1,0.1-0.1c0,0,0,0,0,0v0
	C287.8,17.5,287.7,17.6,287.8,17.7C287.7,17.6,287.7,17.6,287.8,17.7L287.8,17.7C287.7,17.6,287.7,17.7,287.8,17.7L287.8,17.7z"/>
<polygon class="st0" points="287.1,17.7 287.1,17.7 287.1,17.7 287.1,17.7 287.1,17.7 "/>
<path class="st0" d="M292.3,17.6C292.3,17.6,292.3,17.6,292.3,17.6c0-0.1-0.1-0.2-0.2-0.1c0,0-0.1,0-0.1,0.1
	C292,17.6,292.1,17.6,292.3,17.6z"/>
<path class="st0" d="M272.3,2.7c0-0.3-0.4-1.6-0.5-1.8C271.8,1.3,272,2.2,272.3,2.7z"/>
<path class="st0" d="M272.4,2.9C272.4,2.9,272.4,2.9,272.4,2.9l0,0.1l0.1,0.1c0-0.1,0-0.1,0-0.2C272.5,3,272.5,3,272.4,2.9
	L272.4,2.9z"/>
<polygon class="st0" points="272.5,3.2 272.5,3.2 272.5,3.2 272.5,3.2 272.5,3.2 272.5,3.2 "/>
<path class="st0" d="M271.6,0.5c0-0.2-0.1-0.3-0.1-0.5h-0.1C271.4,0.2,271.5,0.4,271.6,0.5z"/>
<path class="st0" d="M272.9,4.1c-0.1-0.3-0.2-0.6-0.3-0.8c0,0,0-0.1-0.1-0.1c0,0,0,0,0,0c0,0.5,0.1,0.8,0.5,1.2
	C273,4.3,273,4.2,272.9,4.1L272.9,4.1z"/>
<path class="st0" d="M273.1,4.9c0,0.1,0,0.2,0,0.3c0,0.1,0.1,0.1,0.1,0.2c0,0.1,0.1,0.2,0.1,0.3c0,0.1,0.1,0.3,0.1,0.4
	c0,0.1,0.1,0.2,0.1,0.3l0,0.1c0.1,0.3,0.2,0.6,0.3,0.9v0c0.1,0.2,0.2,0.4,0.4,0.5c0-0.1-0.1-0.2-0.1-0.2
	C273.9,6.8,273.6,5.8,273.1,4.9z"/>
<path class="st0" d="M275.5,10.6L275.5,10.6c-0.1,0.2,0,0.3,0.1,0.4C275.6,10.9,275.5,10.7,275.5,10.6z"/>
<path class="st0" d="M274.8,9.1c-0.1-0.2-0.1-0.4-0.3-0.5l0,0c0,0.1,0.1,0.2,0.1,0.3c0.1,0.2,0.1,0.4,0.3,0.5
	C274.9,9.3,274.8,9.2,274.8,9.1z"/>
<path class="st0" d="M274.5,8.4L274.5,8.4C274.5,8.4,274.5,8.3,274.5,8.4L274.5,8.4c0-0.1,0-0.2,0-0.2c0,0,0,0-0.1,0L274.5,8.4
	C274.4,8.4,274.5,8.4,274.5,8.4L274.5,8.4z"/>
<path class="st0" d="M276.2,12.4c-0.1-0.3-0.2-0.6-0.4-0.8C275.8,11.9,275.9,12.2,276.2,12.4z"/>
<path class="st0" d="M295.3,17.5c0.1,0,0.3,0,0.5,0c0.2,0,0.4,0,0.5-0.1c0,0,0,0,0.1,0c-0.7,0-1.4,0-2.1,0c0,0,0,0,0,0
	c0,0,0,0-0.1,0c0,0,0,0-0.1,0.1c0.1,0,0.3,0,0.4,0C294.8,17.5,295,17.5,295.3,17.5z"/>
<path class="st0" d="M297.5,18.9L297.5,18.9c-0.1,0-0.1,0-0.3,0c0.1,0.1,0.1,0.1,0.2,0.1C297.5,19,297.5,19,297.5,18.9
	C297.6,19,297.6,18.9,297.5,18.9L297.5,18.9z"/>
<path class="st0" d="M295.2,19.1L295.2,19.1C295.2,19.1,295.1,19.1,295.2,19.1C295.1,19.1,295.1,19.1,295.2,19.1
	c-0.1,0-0.1,0-0.1,0.1C295,19.2,295.1,19.2,295.2,19.1c-0.1,0.1-0.1,0.1-0.1,0.1L295.2,19.1L295.2,19.1z"/>
<path class="st0" d="M295.4,19.2c0.1,0,0.2,0,0.2,0c0,0,0.1,0,0.1,0c0,0-0.1-0.1-0.2,0C295.5,19.1,295.5,19.1,295.4,19.2L295.4,19.2
	C295.5,19.1,295.4,19.2,295.4,19.2C295.4,19.2,295.4,19.2,295.4,19.2L295.4,19.2L295.4,19.2L295.4,19.2L295.4,19.2z"/>
<path class="st0" d="M286.5,19.4C286.5,19.4,286.5,19.4,286.5,19.4c-0.1,0-0.2,0-0.3,0c0,0-0.1,0-0.1,0.1c0,0-0.1,0.1-0.2,0.1
	c-0.2,0.1-0.4,0.1-0.6,0c0,0,0,0,0,0c-0.1,0-0.1,0-0.2,0c0,0,0,0,0,0c0,0,0,0,0,0c0,0-0.1,0-0.2,0c-0.1,0-0.2-0.1-0.3,0
	c0,0-0.1,0-0.1,0c0,0,0,0-0.1,0c0,0,0,0,0,0c0,0,0,0-0.1,0c0,0.1,0.1,0.2,0.1,0.2c0,0,0.1,0.1,0.1,0.2c0,0,0,0,0,0
	c0.2-0.1,0.5,0,0.7,0.1c0,0,0.1,0,0.1,0c0.1,0,0.3,0,0.4,0c0.1,0,0.3-0.1,0.4-0.1c0.2,0,0.5,0,0.7,0c0.2,0,0.3,0,0.5,0l0,0
	c0,0,0.1,0,0.1,0c0.2,0,0.5,0,0.7,0c0.2,0,0.5,0,0.7,0c0,0,0.1,0,0.1,0c0,0,0.1,0,0.1,0c0.1,0,0.3,0,0.4,0.1c0,0,0,0,0.1,0
	c0,0,0,0,0,0c0.2,0,0.3,0,0.5,0c0,0,0.1,0,0.1,0c0.1,0,0.1,0,0.2,0c0,0,0.1,0,0.1,0l0,0l0,0c0.1,0,0.3,0,0.4,0c0.4,0,0.8,0,1.1,0
	c0.2,0,0.4,0,0.6,0c0,0,0,0,0,0c0,0,0,0,0,0l0,0c0,0,0.1,0,0.1-0.1c0.2-0.1,0.3,0,0.4,0.1c0.1,0,0.2,0,0.2,0c0.2,0,0.3,0,0.5-0.1
	c0.1,0,0.3,0,0.4,0c0,0,0.1,0,0.1,0c0.1,0,0.1,0,0.2,0c0.1,0,0.3,0,0.4,0c0,0,0,0,0,0h0c0.2-0.1,0.4,0,0.5,0c0.1,0,0.1,0,0.2,0
	c0,0,0,0,0.1,0c0,0,0,0,0,0c0,0,0,0,0,0c0,0,0,0,0.1,0c0,0,0,0,0.1,0c0,0,0,0,0.1,0c0.2,0.1,0.4,0,0.6,0c0.1,0,0.2,0,0.3,0
	c0.2,0,0.4,0,0.6-0.1c0.1,0,0.3,0,0.4-0.1c0.2,0,0.4,0,0.6,0l0,0c0,0,0.1,0,0.1,0c0.1,0,0.2,0,0.4,0c0.2,0,0.4,0,0.7,0v-0.5
	c0,0-0.1,0-0.1,0l-0.4,0c0-0.1-0.1-0.1-0.2-0.1c0,0-0.1,0-0.1,0c0,0-0.1,0-0.1,0h0c-0.2,0.1-0.4,0.1-0.6,0c-0.1,0.1-0.2,0.1-0.3,0.2
	c-0.1,0-0.3,0-0.5-0.1c-0.1,0.1-0.1,0.2-0.2,0.2c0,0-0.1,0-0.2,0c-0.1,0.1-0.2,0.1-0.3,0.2c0,0,0,0,0,0c0,0-0.1,0-0.1,0
	c-0.1-0.1-0.2-0.1-0.3-0.1c0,0-0.1,0-0.1,0.1c0,0-0.1,0.1-0.1,0.1c-0.1,0-0.1,0-0.2,0c-0.1,0-0.2,0-0.3,0c-0.1,0-0.2,0-0.3,0
	c-0.1,0-0.2,0-0.3-0.1c0,0-0.1,0-0.1,0l0,0c0,0,0,0-0.1,0.1c0,0-0.1,0.1-0.1,0.1c0,0,0,0,0,0c-0.1,0-0.3,0-0.4-0.1
	c-0.2-0.2-0.4-0.1-0.5-0.1c0,0-0.1,0-0.1,0l0,0c0,0,0,0,0,0h0.1h0.2c0,0-0.1,0-0.1,0.1c-0.1,0-0.2,0-0.2,0l0,0c-0.1,0-0.1-0.1-0.2,0
	c0,0,0,0,0,0c0,0,0,0.1,0.1,0.2c-0.2,0-0.4,0-0.6,0c-0.2-0.1-0.4-0.1-0.5,0c0,0-0.1,0-0.1,0c0,0-0.1,0-0.2,0.1c-0.2,0.1-0.3,0-0.5,0
	c0,0,0,0,0.1,0c0,0,0,0,0.1,0c-0.1-0.1-0.2-0.1-0.3-0.1c0,0-0.1,0-0.1,0.1c0,0-0.1,0.1-0.2,0.1c-0.1,0-0.2,0-0.3,0
	c-0.1,0-0.3,0-0.4,0c0,0,0,0-0.1,0h0c0,0,0,0-0.1,0c0,0-0.1,0-0.2,0c-0.2,0-0.3,0-0.5,0l0,0c-0.1,0-0.2,0-0.2,0c0,0-0.1-0.1-0.1-0.1
	c-0.1-0.1-0.3-0.2-0.5-0.2c0,0-0.1,0-0.1,0c-0.1,0-0.2,0.1-0.2,0.2c-0.4-0.1-0.7-0.1-1,0c0,0,0,0,0,0l0,0c-0.1,0-0.2,0-0.3,0
	c0,0-0.1,0-0.1,0c-0.1,0-0.3,0-0.5,0h0c-0.1,0-0.1,0-0.2,0c0,0,0,0,0,0C286.5,19.4,286.5,19.4,286.5,19.4L286.5,19.4z"/>
<path class="st0" d="M275.5,13.9c0,0.1,0.1,0.2,0.1,0.2c0,0,0,0,0,0c0.1,0,0.3,0,0.4,0c-0.1-0.2-0.1-0.4-0.2-0.6
	c-0.1,0-0.2,0-0.3-0.1c-0.1,0-0.2,0-0.2-0.1C275.3,13.7,275.4,13.8,275.5,13.9L275.5,13.9z"/>
<path class="st0" d="M281.7,18.3c0.1,0.1,0.1,0.2,0.2,0.3c0.2,0,0.4,0,0.6,0c0,0,0,0,0,0c0-0.1-0.1-0.2-0.1-0.3c0,0,0,0,0,0
	c0,0-0.1,0-0.1,0C282.1,18.3,281.9,18.3,281.7,18.3L281.7,18.3z"/>
<path class="st0" d="M274,16.4C274,16.4,274.1,16.4,274,16.4C274.1,16.4,274,16.4,274,16.4C274.1,16.4,274.1,16.4,274,16.4L274,16.4
	C274,16.4,274,16.4,274,16.4C274,16.4,274,16.4,274,16.4L274,16.4C274.1,16.4,274.1,16.4,274,16.4c0.1,0,0.1,0,0.1,0
	C274.1,16.3,274.1,16.3,274,16.4C274.1,16.3,274.1,16.3,274,16.4L274,16.4L274,16.4z"/>
<path class="st0" d="M280.4,19.1L280.4,19.1l0.2,0c0,0,0,0,0,0l0,0C280.5,19,280.5,19,280.4,19.1C280.4,19,280.4,19,280.4,19.1
	L280.4,19.1z"/>
<path class="st0" d="M280.2,18.4c0.2,0,0.3,0.1,0.5,0.1c-0.1-0.1-0.2-0.2-0.3-0.4c0,0,0,0,0,0l0,0c-0.1,0-0.2,0-0.4,0c0,0,0,0,0,0
	c0,0,0,0,0,0s0,0,0,0c0.1,0.1,0.1,0.2,0.2,0.3C280.1,18.4,280.2,18.4,280.2,18.4L280.2,18.4z"/>
<path class="st0" d="M281.3,19.7C281.3,19.7,281.3,19.7,281.3,19.7c-0.1-0.2-0.1-0.3-0.2-0.4c0,0,0,0,0-0.1c-0.1,0-0.1,0-0.2,0
	c0,0,0,0,0,0c0,0,0,0,0,0c-0.2,0-0.4,0-0.5,0c-0.1,0-0.2,0-0.3,0c0,0,0,0,0,0.1c0,0.1,0,0.2,0,0.3c0,0,0,0,0,0.1l0,0
	c0.1,0,0.3,0.1,0.4,0.1l0.1-0.3c0.1,0,0.2,0.1,0.2,0.1c0,0,0,0.1-0.1,0.1c0.1,0,0.2,0,0.3,0C281.1,19.7,281.2,19.7,281.3,19.7
	L281.3,19.7z"/>
<path class="st0" d="M299.8,21.1C299.8,21.1,299.8,21.1,299.8,21.1c-0.1,0-0.3,0.1-0.4-0.1c0-0.1-0.1-0.1-0.2,0c0,0-0.1,0-0.1,0h0
	c-0.1,0.1-0.2,0.1-0.3,0.1c-0.1,0-0.1,0-0.2,0c-0.2,0-0.3,0-0.5,0.1c-0.3,0.1-0.6,0.1-1,0.1c-0.1,0-0.3,0-0.5,0c-0.1,0-0.1,0-0.2,0
	c0,0-0.1,0-0.1,0c-0.1,0-0.2,0-0.3,0c-0.4,0-0.8,0-1.2,0c-0.2,0-0.5,0-0.7,0c-0.1,0-0.1,0-0.2,0c0,0-0.1,0-0.1,0l0,0
	c-0.2,0-0.3,0-0.5,0c-0.2,0-0.4,0-0.5,0c-0.4,0-0.7,0-1,0c-0.3,0-0.6,0-1,0c-0.2,0-0.3,0-0.5,0c0,0,0,0,0,0c0,0,0,0-0.1,0
	c-0.2,0-0.5-0.1-0.8,0c0,0-0.1,0-0.1,0c-0.3,0-0.6,0-0.9,0c-0.2,0-0.4,0-0.6,0h0c0,0-0.1,0-0.1,0c-0.4-0.1-0.9-0.1-1.3-0.1
	c-0.2,0-0.4,0-0.6,0c0,0,0,0.1,0.1,0.1c0.1,0.1,0.2,0.3,0.2,0.4c0,0,0,0.1,0.1,0.1c0.2,0.2,0.4,0.4,0.5,0.7c0.1,0.1,0.1,0.2,0.2,0.4
	c0.1,0.1,0.1,0.2,0.2,0.2c0,0,0.1,0.1,0.1,0.1c0,0,0.1,0.1,0.1,0.1c0,0,0,0.1,0.1,0.1c0,0.1,0.1,0.1,0.1,0.2l0,0
	c0,0.1,0.1,0.1,0.1,0.2c0,0,0,0,0,0c0,0,0.1,0.1,0.1,0.1c0,0.3,0.2,0.5,0.4,0.7c0.1,0.1,0.2,0.2,0.3,0.3c0.1,0.1,0.1,0.2,0.2,0.3
	l0,0c0,0,0,0,0,0.1c0,0,0,0,0,0.1c0,0.1,0.1,0.1,0.1,0.2c0.3,0.2,0.6,0.5,0.8,0.9c0.1,0.1,0.1,0.2,0.2,0.2c0.1,0.1,0.2,0.2,0.3,0.4
	c0.3,0.3,0.5,0.7,0.8,1c0,0,0,0.1,0.1,0.1c0.1,0.2,0.2,0.4,0.4,0.6c0.2,0.2,0.4,0.4,0.5,0.5c0.1,0.2,0.2,0.4,0.4,0.6l0,0.1
	c0.4,0.5,0.8,1.1,1.3,1.5c0.1,0.1,0.2,0.2,0.3,0.4c0,0.1,0.1,0.1,0.2,0.2c0.1,0.1,0.1,0.2,0.2,0.2l0,0c0.1,0.1,0.1,0.2,0.2,0.2
	c0,0,0.1,0.1,0.1,0.1c0.1,0.2,0.3,0.3,0.4,0.5s0.3,0.4,0.4,0.5l0,0c0.1,0.2,0.3,0.4,0.4,0.5c0,0.1,0.1,0.1,0.2,0.2
	c0,0,0.1,0.1,0.1,0.1c0.1,0.1,0.1,0.1,0.2,0.2c0.1,0.2,0.3,0.3,0.4,0.5c0.1,0.2,0.2,0.3,0.4,0.4c0.1,0,0.1,0.1,0.2,0.2c0,0,0,0,0,0
	c0,0,0,0,0,0c0.3,0.5,0.7,0.9,1.1,1.2c0.1,0.1,0.3,0.3,0.4,0.4c0,0,0,0,0,0c0,0,0,0,0,0c0.3,0.2,0.6,0.5,0.9,0.8
	c0.1,0.1,0.1,0.2,0.2,0.2V21C300,21,299.9,21,299.8,21.1C299.9,21,299.9,21,299.8,21.1L299.8,21.1z"/>
<path class="st0" d="M293.6,17.5L293.6,17.5c-0.1,0-0.3-0.1-0.4-0.1h0c0,0,0,0,0,0l0,0v0C293.3,17.5,293.5,17.5,293.6,17.5
	C293.6,17.5,293.6,17.5,293.6,17.5z"/>
<path class="st0" d="M299.6,18.8C299.6,18.8,299.7,18.8,299.6,18.8c0.1,0,0.1,0,0.2,0c0,0,0.1-0.1,0.1-0.1h0h0
	C299.8,18.7,299.7,18.7,299.6,18.8L299.6,18.8L299.6,18.8C299.6,18.8,299.6,18.8,299.6,18.8L299.6,18.8z"/>
<path class="st0" d="M297.4,17.2C297.4,17.2,297.4,17.2,297.4,17.2L297.4,17.2c-0.1,0-0.1,0-0.2,0c0,0,0,0,0,0l0,0v0
	C297.2,17.3,297.2,17.3,297.4,17.2C297.3,17.3,297.3,17.3,297.4,17.2C297.4,17.3,297.4,17.2,297.4,17.2L297.4,17.2z"/>
<path class="st0" d="M277.3,16.8c-0.1,0-0.3,0-0.4-0.1c0,0,0,0.1,0.1,0.1c0.1,0,0.3,0.1,0.5,0.1C277.4,16.9,277.4,16.9,277.3,16.8
	L277.3,16.8z"/>
<path class="st0" d="M279.6,19C279.6,19,279.6,19,279.6,19C279.7,19,279.6,19,279.6,19C279.6,19,279.6,19,279.6,19
	C279.6,19,279.6,19,279.6,19L279.6,19z"/>
<path class="st0" d="M277.2,18.7L277.2,18.7L277.2,18.7L277.2,18.7L277.2,18.7C277.3,18.6,277.2,18.6,277.2,18.7
	C277.2,18.6,277.2,18.7,277.2,18.7L277.2,18.7z"/>
<path class="st0" d="M275.4,15.8c0-0.1,0-0.2,0-0.3c0,0-0.1-0.1-0.1-0.1c-0.1-0.1-0.1-0.1-0.1-0.2c-0.1,0-0.1,0-0.2-0.1
	c-0.2,0-0.4,0-0.7,0c-0.1,0-0.2,0-0.3-0.1c0,0,0,0,0,0.1c0,0,0,0,0,0c0,0,0.1,0,0.1,0c0,0,0.1,0,0.1,0c0,0,0.1,0,0.1,0
	c0,0,0,0.1,0,0.1c0,0.1,0,0.1-0.1,0.1c-0.1,0.1-0.1,0.1-0.1,0.2c0.1,0,0.3,0,0.4,0c0.1,0,0.3,0,0.5,0.1c0.1,0,0.1,0,0.2,0
	c0,0,0,0,0.1,0C275.3,15.8,275.4,15.8,275.4,15.8L275.4,15.8z"/>
</svg>
